<svg width="56" height="48" viewBox="0 0 56 48" fill="none" xmlns="http://www.w3.org/2000/svg">
<path d="M39.567 0.0126953H35.6103V3.96929H39.567V0.0126953Z" fill="white"/>
<path d="M43.5227 0.0126953H39.5662V3.96929H43.5227V0.0126953Z" fill="white"/>
<path d="M47.4796 0.0126953H43.5229V3.96929H47.4796V0.0126953Z" fill="white"/>
<path d="M51.4363 0.0126953H47.4796V3.96929H51.4363V0.0126953Z" fill="white"/>
<path d="M55.393 0.0126953H51.4363V3.96929H55.393V0.0126953Z" fill="white"/>
<path d="M59.3496 0.0126953H55.3929V3.96929H59.3496V0.0126953Z" fill="white"/>
<path d="M35.6095 3.96973H31.6528V7.92642H35.6095V3.96973Z" fill="white"/>
<path d="M39.567 3.96973H35.6103V7.92642H39.567V3.96973Z" fill="white"/>
<path d="M43.5227 3.96973H39.5662V7.92642H43.5227V3.96973Z" fill="black"/>
<path d="M47.4796 3.96973H43.5229V7.92642H47.4796V3.96973Z" fill="black"/>
<path d="M51.4363 3.96973H47.4796V7.92642H51.4363V3.96973Z" fill="black"/>
<path d="M55.393 3.96973H51.4363V7.92642H55.393V3.96973Z" fill="black"/>
<path d="M59.3496 3.96973H55.3929V7.92642H59.3496V3.96973Z" fill="black"/>
<path d="M31.6536 7.92578H27.6969V11.8825H31.6536V7.92578Z" fill="white"/>
<path d="M35.6095 7.92578H31.6528V11.8825H35.6095V7.92578Z" fill="white"/>
<path d="M39.567 7.92578H35.6103V11.8825H39.567V7.92578Z" fill="black"/>
<path d="M43.5227 7.92578H39.5662V11.8825H43.5227V7.92578Z" fill="white"/>
<path d="M47.4796 7.92578H43.5229V11.8825H47.4796V7.92578Z" fill="white"/>
<path d="M51.4363 7.92578H47.4796V11.8825H51.4363V7.92578Z" fill="white"/>
<path d="M55.393 7.92578H51.4363V11.8825H55.393V7.92578Z" fill="white"/>
<path d="M59.3496 7.92578H55.3929V11.8825H59.3496V7.92578Z" fill="white"/>
<path d="M19.7833 11.8828H15.8268V15.8394H19.7833V11.8828Z" fill="white"/>
<path d="M23.7402 11.8828H19.7835V15.8394H23.7402V11.8828Z" fill="white"/>
<path d="M27.6961 11.8828H23.7394V15.8394H27.6961V11.8828Z" fill="white"/>
<path d="M31.6536 11.8828H27.6969V15.8394H31.6536V11.8828Z" fill="white"/>
<path d="M35.6095 11.8828H31.6528V15.8394H35.6095V11.8828Z" fill="black"/>
<path d="M39.567 11.8828H35.6103V15.8394H39.567V11.8828Z" fill="#9CC8FF"/>
<path d="M43.5227 11.8828H39.5662V15.8394H43.5227V11.8828Z" fill="#BDD7FF"/>
<path d="M47.4796 11.8828H43.5229V15.8394H47.4796V11.8828Z" fill="#BDD7FF"/>
<path d="M51.4363 11.8828H47.4796V15.8394H51.4363V11.8828Z" fill="#BDD7FF"/>
<path d="M55.393 11.8828H51.4363V15.8394H55.393V11.8828Z" fill="#BDD7FF"/>
<path d="M59.3496 11.8828H55.3929V15.8394H59.3496V11.8828Z" fill="#BDD7FF"/>
<path d="M11.8701 15.8389H7.91339V19.7956H11.8701V15.8389Z" fill="white"/>
<path d="M15.8268 15.8389H11.8701V19.7956H15.8268V15.8389Z" fill="white"/>
<path d="M19.7833 15.8389H15.8268V19.7956H19.7833V15.8389Z" fill="white"/>
<path d="M23.7402 15.8389H19.7835V19.7956H23.7402V15.8389Z" fill="black"/>
<path d="M27.6961 15.8389H23.7394V19.7956H27.6961V15.8389Z" fill="black"/>
<path d="M31.6536 15.8389H27.6969V19.7956H31.6536V15.8389Z" fill="black"/>
<path d="M35.6095 15.8389H31.6528V19.7956H35.6095V15.8389Z" fill="#80B8FF"/>
<path d="M39.567 15.8389H35.6103V19.7956H39.567V15.8389Z" fill="#9CC8FF"/>
<path d="M43.5227 15.8389H39.5662V19.7956H43.5227V15.8389Z" fill="#BDD7FF"/>
<path d="M47.4796 15.8389H43.5229V19.7956H47.4796V15.8389Z" fill="#BDD7FF"/>
<path d="M51.4363 15.8389H47.4796V19.7956H51.4363V15.8389Z" fill="#BDD7FF"/>
<path d="M55.393 15.8389H51.4363V19.7956H55.393V15.8389Z" fill="#BDD7FF"/>
<path d="M59.3496 15.8389H55.3929V19.7956H59.3496V15.8389Z" fill="#BDD7FF"/>
<path d="M7.91339 19.7959H3.9567V23.7526H7.91339V19.7959Z" fill="white"/>
<path d="M11.8701 19.7959H7.91339V23.7526H11.8701V19.7959Z" fill="white"/>
<path d="M15.8268 19.7959H11.8701V23.7526H15.8268V19.7959Z" fill="black"/>
<path d="M19.7833 19.7959H15.8268V23.7526H19.7833V19.7959Z" fill="black"/>
<path d="M23.7402 19.7959H19.7835V23.7526H23.7402V19.7959Z" fill="white"/>
<path d="M27.6961 19.7959H23.7394V23.7526H27.6961V19.7959Z" fill="white"/>
<path d="M31.6536 19.7959H27.6969V23.7526H31.6536V19.7959Z" fill="#80B8FF"/>
<path d="M35.6095 19.7959H31.6528V23.7526H35.6095V19.7959Z" fill="#80B8FF"/>
<path d="M39.567 19.7959H35.6103V23.7526H39.567V19.7959Z" fill="#9CC8FF"/>
<path d="M43.5227 19.7959H39.5662V23.7526H43.5227V19.7959Z" fill="#9CC8FF"/>
<path d="M47.4796 19.7959H43.5229V23.7526H47.4796V19.7959Z" fill="#BDD7FF"/>
<path d="M51.4363 19.7959H47.4796V23.7526H51.4363V19.7959Z" fill="#BDD7FF"/>
<path d="M55.393 19.7959H51.4363V23.7526H55.393V19.7959Z" fill="#BDD7FF"/>
<path d="M59.3496 19.7959H55.3929V23.7526H59.3496V19.7959Z" fill="#BDD7FF"/>
<path d="M3.95669 23.7529H0V27.7095H3.95669V23.7529Z" fill="white"/>
<path d="M7.91339 23.7529H3.9567V27.7095H7.91339V23.7529Z" fill="black"/>
<path d="M11.8701 23.7529H7.91339V27.7095H11.8701V23.7529Z" fill="black"/>
<path d="M15.8268 23.7529H11.8701V27.7095H15.8268V23.7529Z" fill="#80B8FF"/>
<path d="M19.7833 23.7529H15.8268V27.7095H19.7833V23.7529Z" fill="#BDD7FF"/>
<path d="M23.7402 23.7529H19.7835V27.7095H23.7402V23.7529Z" fill="#BDD7FF"/>
<path d="M27.6961 23.7529H23.7394V27.7095H27.6961V23.7529Z" fill="#BDD7FF"/>
<path d="M31.6536 23.7529H27.6969V27.7095H31.6536V23.7529Z" fill="white"/>
<path d="M35.6095 23.7529H31.6528V27.7095H35.6095V23.7529Z" fill="white"/>
<path d="M39.567 23.7529H35.6103V27.7095H39.567V23.7529Z" fill="#80B8FF"/>
<path d="M43.5227 23.7529H39.5662V27.7095H43.5227V23.7529Z" fill="#80B8FF"/>
<path d="M47.4796 23.7529H43.5229V27.7095H47.4796V23.7529Z" fill="#9CC8FF"/>
<path d="M51.4363 23.7529H47.4796V27.7095H51.4363V23.7529Z" fill="#9CC8FF"/>
<path d="M55.393 23.7529H51.4363V27.7095H55.393V23.7529Z" fill="#9CC8FF"/>
<path d="M59.3496 23.7529H55.3929V27.7095H59.3496V23.7529Z" fill="#BDD7FF"/>
<path d="M3.95669 27.709H0V31.6657H3.95669V27.709Z" fill="white"/>
<path d="M7.91339 27.709H3.9567V31.6657H7.91339V27.709Z" fill="black"/>
<path d="M11.8701 27.709H7.91339V31.6657H11.8701V27.709Z" fill="#508FDA"/>
<path d="M15.8268 27.709H11.8701V31.6657H15.8268V27.709Z" fill="#BDD7FF"/>
<path d="M19.7833 27.709H15.8268V31.6657H19.7833V27.709Z" fill="#BDD7FF"/>
<path d="M23.7402 27.709H19.7835V31.6657H23.7402V27.709Z" fill="#BDD7FF"/>
<path d="M27.6961 27.709H23.7394V31.6657H27.6961V27.709Z" fill="#BDD7FF"/>
<path d="M31.6536 27.709H27.6969V31.6657H31.6536V27.709Z" fill="#BDD7FF"/>
<path d="M35.6095 27.709H31.6528V31.6657H35.6095V27.709Z" fill="#BDD7FF"/>
<path d="M39.567 27.709H35.6103V31.6657H39.567V27.709Z" fill="white"/>
<path d="M43.5227 27.709H39.5662V31.6657H43.5227V27.709Z" fill="white"/>
<path d="M47.4796 27.709H43.5229V31.6657H47.4796V27.709Z" fill="#80B8FF"/>
<path d="M51.4363 27.709H47.4796V31.6657H51.4363V27.709Z" fill="#80B8FF"/>
<path d="M55.393 27.709H51.4363V31.6657H55.393V27.709Z" fill="#80B8FF"/>
<path d="M59.3496 27.709H55.3929V31.6657H59.3496V27.709Z" fill="#9CC8FF"/>
<path d="M3.95669 31.666H0V35.6227H3.95669V31.666Z" fill="white"/>
<path d="M7.91339 31.666H3.9567V35.6227H7.91339V31.666Z" fill="black"/>
<path d="M11.8701 31.666H7.91339V35.6227H11.8701V31.666Z" fill="#508FDA"/>
<path d="M15.8268 31.666H11.8701V35.6227H15.8268V31.666Z" fill="#80B8FF"/>
<path d="M19.7833 31.666H15.8268V35.6227H19.7833V31.666Z" fill="#9CC8FF"/>
<path d="M23.7402 31.666H19.7835V35.6227H23.7402V31.666Z" fill="#9CC8FF"/>
<path d="M27.6961 31.666H23.7394V35.6227H27.6961V31.666Z" fill="#9CC8FF"/>
<path d="M31.6536 31.666H27.6969V35.6227H31.6536V31.666Z" fill="#9CC8FF"/>
<path d="M35.6095 31.666H31.6528V35.6227H35.6095V31.666Z" fill="#9CC8FF"/>
<path d="M39.567 31.666H35.6103V35.6227H39.567V31.666Z" fill="#9CC8FF"/>
<path d="M43.5227 31.666H39.5662V35.6227H43.5227V31.666Z" fill="#9CC8FF"/>
<path d="M47.4796 31.666H43.5229V35.6227H47.4796V31.666Z" fill="white"/>
<path d="M51.4363 31.666H47.4796V35.6227H51.4363V31.666Z" fill="white"/>
<path d="M55.393 31.666H51.4363V35.6227H55.393V31.666Z" fill="white"/>
<path d="M59.3496 31.666H55.3929V35.6227H59.3496V31.666Z" fill="#80B8FF"/>
<path d="M3.95669 35.623H0V39.5796H3.95669V35.623Z" fill="white"/>
<path d="M7.91339 35.623H3.9567V39.5796H7.91339V35.623Z" fill="white"/>
<path d="M11.8701 35.623H7.91339V39.5796H11.8701V35.623Z" fill="black"/>
<path d="M15.8268 35.623H11.8701V39.5796H15.8268V35.623Z" fill="#508FDA"/>
<path d="M19.7833 35.623H15.8268V39.5796H19.7833V35.623Z" fill="#508FDA"/>
<path d="M23.7402 35.623H19.7835V39.5796H23.7402V35.623Z" fill="#508FDA"/>
<path d="M27.6961 35.623H23.7394V39.5796H27.6961V35.623Z" fill="#508FDA"/>
<path d="M31.6536 35.623H27.6969V39.5796H31.6536V35.623Z" fill="#508FDA"/>
<path d="M35.6095 35.623H31.6528V39.5796H35.6095V35.623Z" fill="#508FDA"/>
<path d="M39.567 35.623H35.6103V39.5796H39.567V35.623Z" fill="#508FDA"/>
<path d="M43.5227 35.623H39.5662V39.5796H43.5227V35.623Z" fill="#508FDA"/>
<path d="M47.4796 35.623H43.5229V39.5796H47.4796V35.623Z" fill="#508FDA"/>
<path d="M51.4363 35.623H47.4796V39.5796H51.4363V35.623Z" fill="#508FDA"/>
<path d="M55.393 35.623H51.4363V39.5796H55.393V35.623Z" fill="#508FDA"/>
<path d="M59.3496 35.623H55.3929V39.5796H59.3496V35.623Z" fill="#508FDA"/>
<path d="M7.91339 39.5791H3.9567V43.5358H7.91339V39.5791Z" fill="white"/>
<path d="M11.8701 39.5791H7.91339V43.5358H11.8701V39.5791Z" fill="white"/>
<path d="M15.8268 39.5791H11.8701V43.5358H15.8268V39.5791Z" fill="black"/>
<path d="M19.7833 39.5791H15.8268V43.5358H19.7833V39.5791Z" fill="black"/>
<path d="M23.7402 39.5791H19.7835V43.5358H23.7402V39.5791Z" fill="black"/>
<path d="M27.6961 39.5791H23.7394V43.5358H27.6961V39.5791Z" fill="black"/>
<path d="M31.6536 39.5791H27.6969V43.5358H31.6536V39.5791Z" fill="black"/>
<path d="M35.6095 39.5791H31.6528V43.5358H35.6095V39.5791Z" fill="black"/>
<path d="M39.567 39.5791H35.6103V43.5358H39.567V39.5791Z" fill="black"/>
<path d="M43.5227 39.5791H39.5662V43.5358H43.5227V39.5791Z" fill="black"/>
<path d="M47.4796 39.5791H43.5229V43.5358H47.4796V39.5791Z" fill="black"/>
<path d="M51.4363 39.5791H47.4796V43.5358H51.4363V39.5791Z" fill="black"/>
<path d="M55.393 39.5791H51.4363V43.5358H55.393V39.5791Z" fill="black"/>
<path d="M59.3496 39.5791H55.3929V43.5358H59.3496V39.5791Z" fill="black"/>
<path d="M11.8701 43.5361H7.91339V47.4928H11.8701V43.5361Z" fill="white"/>
<path d="M15.8268 43.5361H11.8701V47.4928H15.8268V43.5361Z" fill="white"/>
<path d="M19.7833 43.5361H15.8268V47.4928H19.7833V43.5361Z" fill="white"/>
<path d="M23.7402 43.5361H19.7835V47.4928H23.7402V43.5361Z" fill="white"/>
<path d="M27.6961 43.5361H23.7394V47.4928H27.6961V43.5361Z" fill="white"/>
<path d="M31.6536 43.5361H27.6969V47.4928H31.6536V43.5361Z" fill="white"/>
<path d="M35.6095 43.5361H31.6528V47.4928H35.6095V43.5361Z" fill="white"/>
<path d="M39.567 43.5361H35.6103V47.4928H39.567V43.5361Z" fill="white"/>
<path d="M43.5227 43.5361H39.5662V47.4928H43.5227V43.5361Z" fill="white"/>
<path d="M47.4796 43.5361H43.5229V47.4928H47.4796V43.5361Z" fill="white"/>
<path d="M51.4363 43.5361H47.4796V47.4928H51.4363V43.5361Z" fill="white"/>
<path d="M55.393 43.5361H51.4363V47.4928H55.393V43.5361Z" fill="white"/>
<path d="M59.3496 43.5361H55.3929V47.4928H59.3496V43.5361Z" fill="white"/>
</svg>
