<svg width="49" height="25" viewBox="0 0 49 25" fill="none" xmlns="http://www.w3.org/2000/svg">
<path d="M28.3023 0.785645H30.2913V2.7746H28.3023V0.785645Z" fill="white"/>
<path d="M26.3138 0.785645H28.3027V2.7746H26.3138V0.785645Z" fill="white"/>
<path d="M24.3246 0.785645H26.3136V2.7746H24.3246V0.785645Z" fill="white"/>
<path d="M22.3358 0.785645H24.3248V2.7746H22.3358V0.785645Z" fill="white"/>
<path d="M20.3467 0.785645H22.3357V2.7746H20.3467V0.785645Z" fill="white"/>
<path d="M18.3577 0.785645H20.3467V2.7746H18.3577V0.785645Z" fill="white"/>
<path d="M16.3687 0.785645H18.3577V2.7746H16.3687V0.785645Z" fill="white"/>
<path d="M30.2918 2.77441H32.2808V4.76342H30.2918V2.77441Z" fill="white"/>
<path d="M28.3023 2.77441H30.2913V4.76342H28.3023V2.77441Z" fill="white"/>
<path d="M26.3138 2.77441H28.3027V4.76342H26.3138V2.77441Z" fill="black"/>
<path d="M24.3246 2.77441H26.3136V4.76342H24.3246V2.77441Z" fill="black"/>
<path d="M22.3358 2.77441H24.3248V4.76342H22.3358V2.77441Z" fill="black"/>
<path d="M20.3467 2.77441H22.3357V4.76342H20.3467V2.77441Z" fill="black"/>
<path d="M18.3577 2.77441H20.3467V4.76342H18.3577V2.77441Z" fill="black"/>
<path d="M16.3687 2.77441H18.3577V4.76342H16.3687V2.77441Z" fill="white"/>
<path d="M14.3797 2.77441H16.3687V4.76342H14.3797V2.77441Z" fill="white"/>
<path d="M32.2804 4.76367H34.2694V6.75267H32.2804V4.76367Z" fill="white"/>
<path d="M30.2918 4.76367H32.2808V6.75267H30.2918V4.76367Z" fill="white"/>
<path d="M28.3023 4.76367H30.2913V6.75267H28.3023V4.76367Z" fill="black"/>
<path d="M26.3138 4.76367H28.3027V6.75267H26.3138V4.76367Z" fill="white"/>
<path d="M24.3246 4.76367H26.3136V6.75267H24.3246V4.76367Z" fill="white"/>
<path d="M22.3358 4.76367H24.3248V6.75267H22.3358V4.76367Z" fill="white"/>
<path d="M20.3467 4.76367H22.3357V6.75267H20.3467V4.76367Z" fill="white"/>
<path d="M18.3577 4.76367H20.3467V6.75267H18.3577V4.76367Z" fill="white"/>
<path d="M16.3687 4.76367H18.3577V6.75267H16.3687V4.76367Z" fill="black"/>
<path d="M14.3797 4.76367H16.3687V6.75267H14.3797V4.76367Z" fill="white"/>
<path d="M12.3908 4.76367H14.3798V6.75267H12.3908V4.76367Z" fill="white"/>
<path d="M38.2475 6.75244H40.2365V8.7414H38.2475V6.75244Z" fill="white"/>
<path d="M36.2584 6.75244H38.2474V8.7414H36.2584V6.75244Z" fill="white"/>
<path d="M34.2698 6.75244H36.2588V8.7414H34.2698V6.75244Z" fill="white"/>
<path d="M32.2804 6.75244H34.2694V8.7414H32.2804V6.75244Z" fill="white"/>
<path d="M30.2918 6.75244H32.2808V8.7414H30.2918V6.75244Z" fill="black"/>
<path d="M28.3023 6.75244H30.2913V8.7414H28.3023V6.75244Z" fill="#9CC8FF"/>
<path d="M26.3138 6.75244H28.3027V8.7414H26.3138V6.75244Z" fill="#BDD7FF"/>
<path d="M24.3246 6.75244H26.3136V8.7414H24.3246V6.75244Z" fill="#BDD7FF"/>
<path d="M22.3358 6.75244H24.3248V8.7414H22.3358V6.75244Z" fill="#BDD7FF"/>
<path d="M20.3467 6.75244H22.3357V8.7414H20.3467V6.75244Z" fill="#BDD7FF"/>
<path d="M18.3577 6.75244H20.3467V8.7414H18.3577V6.75244Z" fill="#BDD7FF"/>
<path d="M16.3687 6.75244H18.3577V8.7414H16.3687V6.75244Z" fill="white"/>
<path d="M14.3797 6.75244H16.3687V8.7414H14.3797V6.75244Z" fill="black"/>
<path d="M12.3908 6.75244H14.3798V8.7414H12.3908V6.75244Z" fill="white"/>
<path d="M10.4017 6.75244H12.3907V8.7414H10.4017V6.75244Z" fill="white"/>
<path d="M42.2254 8.7417H44.2144V10.7307H42.2254V8.7417Z" fill="white"/>
<path d="M40.2365 8.7417H42.2255V10.7307H40.2365V8.7417Z" fill="white"/>
<path d="M38.2475 8.7417H40.2365V10.7307H38.2475V8.7417Z" fill="white"/>
<path d="M36.2584 8.7417H38.2474V10.7307H36.2584V8.7417Z" fill="black"/>
<path d="M34.2698 8.7417H36.2588V10.7307H34.2698V8.7417Z" fill="black"/>
<path d="M32.2804 8.7417H34.2694V10.7307H32.2804V8.7417Z" fill="black"/>
<path d="M30.2918 8.7417H32.2808V10.7307H30.2918V8.7417Z" fill="#80B8FF"/>
<path d="M28.3023 8.7417H30.2913V10.7307H28.3023V8.7417Z" fill="#9CC8FF"/>
<path d="M26.3138 8.7417H28.3027V10.7307H26.3138V8.7417Z" fill="#BDD7FF"/>
<path d="M24.3246 8.7417H26.3136V10.7307H24.3246V8.7417Z" fill="#BDD7FF"/>
<path d="M22.3358 8.7417H24.3248V10.7307H22.3358V8.7417Z" fill="#BDD7FF"/>
<path d="M20.3467 8.7417H22.3357V10.7307H20.3467V8.7417Z" fill="#BDD7FF"/>
<path d="M18.3577 8.7417H20.3467V10.7307H18.3577V8.7417Z" fill="#BDD7FF"/>
<path d="M16.3687 8.7417H18.3577V10.7307H16.3687V8.7417Z" fill="#BDD7FF"/>
<path d="M14.3797 8.7417H16.3687V10.7307H14.3797V8.7417Z" fill="white"/>
<path d="M12.3908 8.7417H14.3798V10.7307H12.3908V8.7417Z" fill="black"/>
<path d="M10.4017 8.7417H12.3907V10.7307H10.4017V8.7417Z" fill="white"/>
<path d="M8.41273 8.7417H10.4017V10.7307H8.41273V8.7417Z" fill="white"/>
<path d="M44.2144 10.7305H46.2034V12.7195H44.2144V10.7305Z" fill="white"/>
<path d="M42.2254 10.7305H44.2144V12.7195H42.2254V10.7305Z" fill="white"/>
<path d="M40.2365 10.7305H42.2255V12.7195H40.2365V10.7305Z" fill="black"/>
<path d="M38.2475 10.7305H40.2365V12.7195H38.2475V10.7305Z" fill="black"/>
<path d="M36.2584 10.7305H38.2474V12.7195H36.2584V10.7305Z" fill="white"/>
<path d="M34.2698 10.7305H36.2588V12.7195H34.2698V10.7305Z" fill="white"/>
<path d="M32.2804 10.7305H34.2694V12.7195H32.2804V10.7305Z" fill="#80B8FF"/>
<path d="M30.2918 10.7305H32.2808V12.7195H30.2918V10.7305Z" fill="#80B8FF"/>
<path d="M28.3023 10.7305H30.2913V12.7195H28.3023V10.7305Z" fill="#9CC8FF"/>
<path d="M26.3138 10.7305H28.3027V12.7195H26.3138V10.7305Z" fill="#9CC8FF"/>
<path d="M24.3246 10.7305H26.3136V12.7195H24.3246V10.7305Z" fill="#BDD7FF"/>
<path d="M22.3358 10.7305H24.3248V12.7195H22.3358V10.7305Z" fill="#BDD7FF"/>
<path d="M20.3467 10.7305H22.3357V12.7195H20.3467V10.7305Z" fill="#BDD7FF"/>
<path d="M18.3577 10.7305H20.3467V12.7195H18.3577V10.7305Z" fill="#BDD7FF"/>
<path d="M16.3687 10.7305H18.3577V12.7195H16.3687V10.7305Z" fill="#BDD7FF"/>
<path d="M14.3797 10.7305H16.3687V12.7195H14.3797V10.7305Z" fill="#BDD7FF"/>
<path d="M12.3908 10.7305H14.3798V12.7195H12.3908V10.7305Z" fill="#80B8FF"/>
<path d="M10.4017 10.7305H12.3907V12.7195H10.4017V10.7305Z" fill="black"/>
<path d="M8.41273 10.7305H10.4017V12.7195H8.41273V10.7305Z" fill="white"/>
<path d="M6.42372 10.7305H8.41272V12.7195H6.42372V10.7305Z" fill="white"/>
<path d="M46.2034 12.7197H48.1924V14.7087H46.2034V12.7197Z" fill="white"/>
<path d="M44.2144 12.7197H46.2034V14.7087H44.2144V12.7197Z" fill="black"/>
<path d="M42.2254 12.7197H44.2144V14.7087H42.2254V12.7197Z" fill="black"/>
<path d="M40.2365 12.7197H42.2255V14.7087H40.2365V12.7197Z" fill="#80B8FF"/>
<path d="M38.2475 12.7197H40.2365V14.7087H38.2475V12.7197Z" fill="#BDD7FF"/>
<path d="M36.2584 12.7197H38.2474V14.7087H36.2584V12.7197Z" fill="#BDD7FF"/>
<path d="M34.2698 12.7197H36.2588V14.7087H34.2698V12.7197Z" fill="#BDD7FF"/>
<path d="M32.2804 12.7197H34.2694V14.7087H32.2804V12.7197Z" fill="white"/>
<path d="M30.2918 12.7197H32.2808V14.7087H30.2918V12.7197Z" fill="white"/>
<path d="M28.3023 12.7197H30.2913V14.7087H28.3023V12.7197Z" fill="#80B8FF"/>
<path d="M26.3138 12.7197H28.3027V14.7087H26.3138V12.7197Z" fill="#80B8FF"/>
<path d="M24.3246 12.7197H26.3136V14.7087H24.3246V12.7197Z" fill="#9CC8FF"/>
<path d="M22.3358 12.7197H24.3248V14.7087H22.3358V12.7197Z" fill="#9CC8FF"/>
<path d="M20.3467 12.7197H22.3357V14.7087H20.3467V12.7197Z" fill="#9CC8FF"/>
<path d="M18.3577 12.7197H20.3467V14.7087H18.3577V12.7197Z" fill="#BDD7FF"/>
<path d="M16.3687 12.7197H18.3577V14.7087H16.3687V12.7197Z" fill="#BDD7FF"/>
<path d="M14.3797 12.7197H16.3687V14.7087H14.3797V12.7197Z" fill="#BDD7FF"/>
<path d="M12.3908 12.7197H14.3798V14.7087H12.3908V12.7197Z" fill="#BDD7FF"/>
<path d="M10.4017 12.7197H12.3907V14.7087H10.4017V12.7197Z" fill="#80B8FF"/>
<path d="M8.41273 12.7197H10.4017V14.7087H8.41273V12.7197Z" fill="black"/>
<path d="M6.42372 12.7197H8.41272V14.7087H6.42372V12.7197Z" fill="black"/>
<path d="M4.4347 12.7197H6.42371V14.7087H4.4347V12.7197Z" fill="white"/>
<path d="M46.2034 14.7085H48.1924V16.6975H46.2034V14.7085Z" fill="white"/>
<path d="M44.2144 14.7085H46.2034V16.6975H44.2144V14.7085Z" fill="black"/>
<path d="M42.2254 14.7085H44.2144V16.6975H42.2254V14.7085Z" fill="#508FDA"/>
<path d="M40.2365 14.7085H42.2255V16.6975H40.2365V14.7085Z" fill="#BDD7FF"/>
<path d="M38.2475 14.7085H40.2365V16.6975H38.2475V14.7085Z" fill="#BDD7FF"/>
<path d="M36.2584 14.7085H38.2474V16.6975H36.2584V14.7085Z" fill="#BDD7FF"/>
<path d="M34.2698 14.7085H36.2588V16.6975H34.2698V14.7085Z" fill="#BDD7FF"/>
<path d="M32.2804 14.7085H34.2694V16.6975H32.2804V14.7085Z" fill="#BDD7FF"/>
<path d="M30.2918 14.7085H32.2808V16.6975H30.2918V14.7085Z" fill="#BDD7FF"/>
<path d="M28.3023 14.7085H30.2913V16.6975H28.3023V14.7085Z" fill="white"/>
<path d="M26.3138 14.7085H28.3027V16.6975H26.3138V14.7085Z" fill="white"/>
<path d="M24.3246 14.7085H26.3136V16.6975H24.3246V14.7085Z" fill="#80B8FF"/>
<path d="M22.3358 14.7085H24.3248V16.6975H22.3358V14.7085Z" fill="#80B8FF"/>
<path d="M20.3467 14.7085H22.3357V16.6975H20.3467V14.7085Z" fill="#80B8FF"/>
<path d="M18.3577 14.7085H20.3467V16.6975H18.3577V14.7085Z" fill="#9CC8FF"/>
<path d="M16.3687 14.7085H18.3577V16.6975H16.3687V14.7085Z" fill="#9CC8FF"/>
<path d="M14.3797 14.7085H16.3687V16.6975H14.3797V14.7085Z" fill="#9CC8FF"/>
<path d="M12.3908 14.7085H14.3798V16.6975H12.3908V14.7085Z" fill="#80B8FF"/>
<path d="M10.4017 14.7085H12.3907V16.6975H10.4017V14.7085Z" fill="white"/>
<path d="M8.41273 14.7085H10.4017V16.6975H8.41273V14.7085Z" fill="white"/>
<path d="M6.42372 14.7085H8.41272V16.6975H6.42372V14.7085Z" fill="#80B8FF"/>
<path d="M4.4347 14.7085H6.42371V16.6975H4.4347V14.7085Z" fill="black"/>
<path d="M2.44557 14.7085H4.43457V16.6975H2.44557V14.7085Z" fill="white"/>
<path d="M46.2034 16.6973H48.1924V18.6863H46.2034V16.6973Z" fill="white"/>
<path d="M44.2144 16.6973H46.2034V18.6863H44.2144V16.6973Z" fill="black"/>
<path d="M42.2254 16.6973H44.2144V18.6863H42.2254V16.6973Z" fill="#508FDA"/>
<path d="M40.2365 16.6973H42.2255V18.6863H40.2365V16.6973Z" fill="#80B8FF"/>
<path d="M38.2475 16.6973H40.2365V18.6863H38.2475V16.6973Z" fill="#9CC8FF"/>
<path d="M36.2584 16.6973H38.2474V18.6863H36.2584V16.6973Z" fill="#9CC8FF"/>
<path d="M34.2698 16.6973H36.2588V18.6863H34.2698V16.6973Z" fill="#9CC8FF"/>
<path d="M32.2804 16.6973H34.2694V18.6863H32.2804V16.6973Z" fill="#9CC8FF"/>
<path d="M30.2918 16.6973H32.2808V18.6863H30.2918V16.6973Z" fill="#9CC8FF"/>
<path d="M28.3023 16.6973H30.2913V18.6863H28.3023V16.6973Z" fill="#9CC8FF"/>
<path d="M26.3138 16.6973H28.3027V18.6863H26.3138V16.6973Z" fill="#9CC8FF"/>
<path d="M24.3246 16.6973H26.3136V18.6863H24.3246V16.6973Z" fill="white"/>
<path d="M22.3358 16.6973H24.3248V18.6863H22.3358V16.6973Z" fill="white"/>
<path d="M20.3467 16.6973H22.3357V18.6863H20.3467V16.6973Z" fill="white"/>
<path d="M18.3577 16.6973H20.3467V18.6863H18.3577V16.6973Z" fill="#80B8FF"/>
<path d="M16.3687 16.6973H18.3577V18.6863H16.3687V16.6973Z" fill="#508FDA"/>
<path d="M14.3797 16.6973H16.3687V18.6863H14.3797V16.6973Z" fill="#80B8FF"/>
<path d="M12.3908 16.6973H14.3798V18.6863H12.3908V16.6973Z" fill="#9CC8FF"/>
<path d="M10.4017 16.6973H12.3907V18.6863H10.4017V16.6973Z" fill="#9CC8FF"/>
<path d="M8.41273 16.6973H10.4017V18.6863H8.41273V16.6973Z" fill="#9CC8FF"/>
<path d="M6.42372 16.6973H8.41272V18.6863H6.42372V16.6973Z" fill="white"/>
<path d="M4.4347 16.6973H6.42371V18.6863H4.4347V16.6973Z" fill="#80B8FF"/>
<path d="M2.44557 16.6973H4.43457V18.6863H2.44557V16.6973Z" fill="black"/>
<path d="M0.456894 16.6973H2.4458V18.6863H0.456894V16.6973Z" fill="white"/>
<path d="M46.2034 18.6865H48.1924V20.6755H46.2034V18.6865Z" fill="white"/>
<path d="M44.2144 18.6865H46.2034V20.6755H44.2144V18.6865Z" fill="white"/>
<path d="M42.2254 18.6865H44.2144V20.6755H42.2254V18.6865Z" fill="black"/>
<path d="M40.2365 18.6865H42.2255V20.6755H40.2365V18.6865Z" fill="#508FDA"/>
<path d="M38.2475 18.6865H40.2365V20.6755H38.2475V18.6865Z" fill="#508FDA"/>
<path d="M36.2584 18.6865H38.2474V20.6755H36.2584V18.6865Z" fill="#508FDA"/>
<path d="M34.2698 18.6865H36.2588V20.6755H34.2698V18.6865Z" fill="#508FDA"/>
<path d="M32.2804 18.6865H34.2694V20.6755H32.2804V18.6865Z" fill="#508FDA"/>
<path d="M30.2918 18.6865H32.2808V20.6755H30.2918V18.6865Z" fill="#508FDA"/>
<path d="M28.3023 18.6865H30.2913V20.6755H28.3023V18.6865Z" fill="#508FDA"/>
<path d="M26.3138 18.6865H28.3027V20.6755H26.3138V18.6865Z" fill="#508FDA"/>
<path d="M24.3246 18.6865H26.3136V20.6755H24.3246V18.6865Z" fill="#508FDA"/>
<path d="M22.3358 18.6865H24.3248V20.6755H22.3358V18.6865Z" fill="#508FDA"/>
<path d="M20.3467 18.6865H22.3357V20.6755H20.3467V18.6865Z" fill="#508FDA"/>
<path d="M18.3577 18.6865H20.3467V20.6755H18.3577V18.6865Z" fill="#508FDA"/>
<path d="M16.3687 18.6865H18.3577V20.6755H16.3687V18.6865Z" fill="black"/>
<path d="M14.3797 18.6865H16.3687V20.6755H14.3797V18.6865Z" fill="#508FDA"/>
<path d="M12.3908 18.6865H14.3798V20.6755H12.3908V18.6865Z" fill="#508FDA"/>
<path d="M10.4017 18.6865H12.3907V20.6755H10.4017V18.6865Z" fill="#508FDA"/>
<path d="M8.41273 18.6865H10.4017V20.6755H8.41273V18.6865Z" fill="#508FDA"/>
<path d="M6.42372 18.6865H8.41272V20.6755H6.42372V18.6865Z" fill="#508FDA"/>
<path d="M4.4347 18.6865H6.42371V20.6755H4.4347V18.6865Z" fill="#508FDA"/>
<path d="M2.44557 18.6865H4.43457V20.6755H2.44557V18.6865Z" fill="black"/>
<path d="M0.456894 18.6865H2.4458V20.6755H0.456894V18.6865Z" fill="white"/>
<path d="M44.2144 20.6753H46.2034V22.6643H44.2144V20.6753Z" fill="white"/>
<path d="M42.2254 20.6753H44.2144V22.6643H42.2254V20.6753Z" fill="white"/>
<path d="M40.2365 20.6753H42.2255V22.6643H40.2365V20.6753Z" fill="black"/>
<path d="M38.2475 20.6753H40.2365V22.6643H38.2475V20.6753Z" fill="black"/>
<path d="M36.2584 20.6753H38.2474V22.6643H36.2584V20.6753Z" fill="black"/>
<path d="M34.2698 20.6753H36.2588V22.6643H34.2698V20.6753Z" fill="black"/>
<path d="M32.2804 20.6753H34.2694V22.6643H32.2804V20.6753Z" fill="black"/>
<path d="M30.2918 20.6753H32.2808V22.6643H30.2918V20.6753Z" fill="black"/>
<path d="M28.3023 20.6753H30.2913V22.6643H28.3023V20.6753Z" fill="black"/>
<path d="M26.3138 20.6753H28.3027V22.6643H26.3138V20.6753Z" fill="black"/>
<path d="M24.3246 20.6753H26.3136V22.6643H24.3246V20.6753Z" fill="black"/>
<path d="M22.3358 20.6753H24.3248V22.6643H22.3358V20.6753Z" fill="black"/>
<path d="M20.3467 20.6753H22.3357V22.6643H20.3467V20.6753Z" fill="black"/>
<path d="M18.3577 20.6753H20.3467V22.6643H18.3577V20.6753Z" fill="black"/>
<path d="M16.3687 20.6753H18.3577V22.6643H16.3687V20.6753Z" fill="white"/>
<path d="M14.3797 20.6753H16.3687V22.6643H14.3797V20.6753Z" fill="black"/>
<path d="M12.3908 20.6753H14.3798V22.6643H12.3908V20.6753Z" fill="black"/>
<path d="M10.4017 20.6753H12.3907V22.6643H10.4017V20.6753Z" fill="black"/>
<path d="M8.41273 20.6753H10.4017V22.6643H8.41273V20.6753Z" fill="black"/>
<path d="M6.42372 20.6753H8.41272V22.6643H6.42372V20.6753Z" fill="black"/>
<path d="M4.4347 20.6753H6.42371V22.6643H4.4347V20.6753Z" fill="black"/>
<path d="M2.44557 20.6753H4.43457V22.6643H2.44557V20.6753Z" fill="white"/>
<path d="M0.456894 20.6753H2.4458V22.6643H0.456894V20.6753Z" fill="white"/>
<path d="M42.2254 22.6646H44.2144V24.6536H42.2254V22.6646Z" fill="white"/>
<path d="M40.2365 22.6646H42.2255V24.6536H40.2365V22.6646Z" fill="white"/>
<path d="M38.2475 22.6646H40.2365V24.6536H38.2475V22.6646Z" fill="white"/>
<path d="M36.2584 22.6646H38.2474V24.6536H36.2584V22.6646Z" fill="white"/>
<path d="M34.2698 22.6646H36.2588V24.6536H34.2698V22.6646Z" fill="white"/>
<path d="M32.2804 22.6646H34.2694V24.6536H32.2804V22.6646Z" fill="white"/>
<path d="M30.2918 22.6646H32.2808V24.6536H30.2918V22.6646Z" fill="white"/>
<path d="M28.3023 22.6646H30.2913V24.6536H28.3023V22.6646Z" fill="white"/>
<path d="M26.3138 22.6646H28.3027V24.6536H26.3138V22.6646Z" fill="white"/>
<path d="M24.3246 22.6646H26.3136V24.6536H24.3246V22.6646Z" fill="white"/>
<path d="M22.3358 22.6646H24.3248V24.6536H22.3358V22.6646Z" fill="white"/>
<path d="M20.3467 22.6646H22.3357V24.6536H20.3467V22.6646Z" fill="white"/>
<path d="M18.3577 22.6646H20.3467V24.6536H18.3577V22.6646Z" fill="white"/>
<path d="M16.3687 22.6646H18.3577V24.6536H16.3687V22.6646Z" fill="white"/>
<path d="M14.3797 22.6646H16.3687V24.6536H14.3797V22.6646Z" fill="white"/>
<path d="M12.3908 22.6646H14.3798V24.6536H12.3908V22.6646Z" fill="white"/>
<path d="M10.4017 22.6646H12.3907V24.6536H10.4017V22.6646Z" fill="white"/>
<path d="M8.41273 22.6646H10.4017V24.6536H8.41273V22.6646Z" fill="white"/>
<path d="M6.42372 22.6646H8.41272V24.6536H6.42372V22.6646Z" fill="white"/>
<path d="M4.4347 22.6646H6.42371V24.6536H4.4347V22.6646Z" fill="white"/>
<path d="M2.44557 22.6646H4.43457V24.6536H2.44557V22.6646Z" fill="white"/>
</svg>
