<svg width="60" height="31" viewBox="0 0 60 31" fill="none" xmlns="http://www.w3.org/2000/svg">
<path d="M25.0366 0.567383H22.5609V3.04309H25.0366V0.567383Z" fill="white"/>
<path d="M27.512 0.567383H25.0363V3.04309H27.512V0.567383Z" fill="white"/>
<path d="M29.9877 0.567383H27.512V3.04309H29.9877V0.567383Z" fill="white"/>
<path d="M32.4636 0.567383H29.9878V3.04309H32.4636V0.567383Z" fill="white"/>
<path d="M34.9392 0.567383H32.4635V3.04309H34.9392V0.567383Z" fill="white"/>
<path d="M37.4151 0.567383H34.9393V3.04309H37.4151V0.567383Z" fill="white"/>
<path d="M39.8907 0.567383H37.4149V3.04309H39.8907V0.567383Z" fill="white"/>
<path d="M22.5606 3.04297H20.0848V5.51873H22.5606V3.04297Z" fill="white"/>
<path d="M25.0366 3.04297H22.5609V5.51873H25.0366V3.04297Z" fill="white"/>
<path d="M27.512 3.04297H25.0363V5.51873H27.512V3.04297Z" fill="black"/>
<path d="M29.9877 3.04297H27.512V5.51873H29.9877V3.04297Z" fill="black"/>
<path d="M32.4636 3.04297H29.9878V5.51873H32.4636V3.04297Z" fill="black"/>
<path d="M34.9392 3.04297H32.4635V5.51873H34.9392V3.04297Z" fill="black"/>
<path d="M37.4151 3.04297H34.9393V5.51873H37.4151V3.04297Z" fill="black"/>
<path d="M39.8907 3.04297H37.4149V5.51873H39.8907V3.04297Z" fill="white"/>
<path d="M42.3664 3.04297H39.8908V5.51873H42.3664V3.04297Z" fill="white"/>
<path d="M20.0851 5.51855H17.6094V7.99432H20.0851V5.51855Z" fill="white"/>
<path d="M22.5606 5.51855H20.0848V7.99432H22.5606V5.51855Z" fill="white"/>
<path d="M25.0366 5.51855H22.5609V7.99432H25.0366V5.51855Z" fill="black"/>
<path d="M27.512 5.51855H25.0363V7.99432H27.512V5.51855Z" fill="white"/>
<path d="M29.9877 5.51855H27.512V7.99432H29.9877V5.51855Z" fill="white"/>
<path d="M32.4636 5.51855H29.9878V7.99432H32.4636V5.51855Z" fill="white"/>
<path d="M34.9392 5.51855H32.4635V7.99432H34.9392V5.51855Z" fill="white"/>
<path d="M37.4151 5.51855H34.9393V7.99432H37.4151V5.51855Z" fill="white"/>
<path d="M39.8907 5.51855H37.4149V7.99432H39.8907V5.51855Z" fill="black"/>
<path d="M42.3664 5.51855H39.8908V7.99432H42.3664V5.51855Z" fill="white"/>
<path d="M44.8422 5.51855H42.3664V7.99432H44.8422V5.51855Z" fill="white"/>
<path d="M12.6577 7.99512H10.182V10.4708H12.6577V7.99512Z" fill="white"/>
<path d="M15.1336 7.99512H12.6579V10.4708H15.1336V7.99512Z" fill="white"/>
<path d="M17.6091 7.99512H15.1333V10.4708H17.6091V7.99512Z" fill="white"/>
<path d="M20.0851 7.99512H17.6094V10.4708H20.0851V7.99512Z" fill="white"/>
<path d="M22.5606 7.99512H20.0848V10.4708H22.5606V7.99512Z" fill="black"/>
<path d="M25.0366 7.99512H22.5609V10.4708H25.0366V7.99512Z" fill="#9CC8FF"/>
<path d="M27.512 7.99512H25.0363V10.4708H27.512V7.99512Z" fill="#BDD7FF"/>
<path d="M29.9877 7.99512H27.512V10.4708H29.9877V7.99512Z" fill="#BDD7FF"/>
<path d="M32.4636 7.99512H29.9878V10.4708H32.4636V7.99512Z" fill="#BDD7FF"/>
<path d="M34.9392 7.99512H32.4635V10.4708H34.9392V7.99512Z" fill="#BDD7FF"/>
<path d="M37.4151 7.99512H34.9393V10.4708H37.4151V7.99512Z" fill="#BDD7FF"/>
<path d="M39.8907 7.99512H37.4149V10.4708H39.8907V7.99512Z" fill="white"/>
<path d="M42.3664 7.99512H39.8908V10.4708H42.3664V7.99512Z" fill="black"/>
<path d="M44.8422 7.99512H42.3664V10.4708H44.8422V7.99512Z" fill="white"/>
<path d="M47.318 7.99512H44.8423V10.4708H47.318V7.99512Z" fill="white"/>
<path d="M7.70631 10.4707H5.23055V12.9465H7.70631V10.4707Z" fill="white"/>
<path d="M10.1821 10.4707H7.70638V12.9465H10.1821V10.4707Z" fill="white"/>
<path d="M12.6577 10.4707H10.182V12.9465H12.6577V10.4707Z" fill="white"/>
<path d="M15.1336 10.4707H12.6579V12.9465H15.1336V10.4707Z" fill="black"/>
<path d="M17.6091 10.4707H15.1333V12.9465H17.6091V10.4707Z" fill="black"/>
<path d="M20.0851 10.4707H17.6094V12.9465H20.0851V10.4707Z" fill="black"/>
<path d="M22.5606 10.4707H20.0848V12.9465H22.5606V10.4707Z" fill="#80B8FF"/>
<path d="M25.0366 10.4707H22.5609V12.9465H25.0366V10.4707Z" fill="#9CC8FF"/>
<path d="M27.512 10.4707H25.0363V12.9465H27.512V10.4707Z" fill="#BDD7FF"/>
<path d="M29.9877 10.4707H27.512V12.9465H29.9877V10.4707Z" fill="#BDD7FF"/>
<path d="M32.4636 10.4707H29.9878V12.9465H32.4636V10.4707Z" fill="#BDD7FF"/>
<path d="M34.9392 10.4707H32.4635V12.9465H34.9392V10.4707Z" fill="#BDD7FF"/>
<path d="M37.4151 10.4707H34.9393V12.9465H37.4151V10.4707Z" fill="#BDD7FF"/>
<path d="M39.8907 10.4707H37.4149V12.9465H39.8907V10.4707Z" fill="#BDD7FF"/>
<path d="M42.3664 10.4707H39.8908V12.9465H42.3664V10.4707Z" fill="white"/>
<path d="M44.8422 10.4707H42.3664V12.9465H44.8422V10.4707Z" fill="black"/>
<path d="M47.318 10.4707H44.8423V12.9465H47.318V10.4707Z" fill="white"/>
<path d="M49.7939 10.4707H47.3181V12.9465H49.7939V10.4707Z" fill="white"/>
<path d="M5.23066 12.9463H2.7549V15.4221H5.23066V12.9463Z" fill="white"/>
<path d="M7.70631 12.9463H5.23055V15.4221H7.70631V12.9463Z" fill="white"/>
<path d="M10.1821 12.9463H7.70638V15.4221H10.1821V12.9463Z" fill="black"/>
<path d="M12.6577 12.9463H10.182V15.4221H12.6577V12.9463Z" fill="black"/>
<path d="M15.1336 12.9463H12.6579V15.4221H15.1336V12.9463Z" fill="white"/>
<path d="M17.6091 12.9463H15.1333V15.4221H17.6091V12.9463Z" fill="white"/>
<path d="M20.0851 12.9463H17.6094V15.4221H20.0851V12.9463Z" fill="#80B8FF"/>
<path d="M22.5606 12.9463H20.0848V15.4221H22.5606V12.9463Z" fill="#80B8FF"/>
<path d="M25.0366 12.9463H22.5609V15.4221H25.0366V12.9463Z" fill="#9CC8FF"/>
<path d="M27.512 12.9463H25.0363V15.4221H27.512V12.9463Z" fill="#9CC8FF"/>
<path d="M29.9877 12.9463H27.512V15.4221H29.9877V12.9463Z" fill="#BDD7FF"/>
<path d="M32.4636 12.9463H29.9878V15.4221H32.4636V12.9463Z" fill="#BDD7FF"/>
<path d="M34.9392 12.9463H32.4635V15.4221H34.9392V12.9463Z" fill="#BDD7FF"/>
<path d="M37.4151 12.9463H34.9393V15.4221H37.4151V12.9463Z" fill="#BDD7FF"/>
<path d="M39.8907 12.9463H37.4149V15.4221H39.8907V12.9463Z" fill="#BDD7FF"/>
<path d="M42.3664 12.9463H39.8908V15.4221H42.3664V12.9463Z" fill="#BDD7FF"/>
<path d="M44.8422 12.9463H42.3664V15.4221H44.8422V12.9463Z" fill="#80B8FF"/>
<path d="M47.318 12.9463H44.8423V15.4221H47.318V12.9463Z" fill="black"/>
<path d="M49.7939 12.9463H47.3181V15.4221H49.7939V12.9463Z" fill="white"/>
<path d="M52.2695 12.9463H49.7938V15.4221H52.2695V12.9463Z" fill="white"/>
<path d="M2.75482 15.4219H0.279053V17.8976H2.75482V15.4219Z" fill="white"/>
<path d="M5.23066 15.4219H2.7549V17.8976H5.23066V15.4219Z" fill="black"/>
<path d="M7.70631 15.4219H5.23055V17.8976H7.70631V15.4219Z" fill="black"/>
<path d="M10.1821 15.4219H7.70638V17.8976H10.1821V15.4219Z" fill="#80B8FF"/>
<path d="M12.6577 15.4219H10.182V17.8976H12.6577V15.4219Z" fill="#BDD7FF"/>
<path d="M15.1336 15.4219H12.6579V17.8976H15.1336V15.4219Z" fill="#BDD7FF"/>
<path d="M17.6091 15.4219H15.1333V17.8976H17.6091V15.4219Z" fill="#BDD7FF"/>
<path d="M20.0851 15.4219H17.6094V17.8976H20.0851V15.4219Z" fill="white"/>
<path d="M22.5606 15.4219H20.0848V17.8976H22.5606V15.4219Z" fill="white"/>
<path d="M25.0366 15.4219H22.5609V17.8976H25.0366V15.4219Z" fill="#80B8FF"/>
<path d="M27.512 15.4219H25.0363V17.8976H27.512V15.4219Z" fill="#80B8FF"/>
<path d="M29.9877 15.4219H27.512V17.8976H29.9877V15.4219Z" fill="#9CC8FF"/>
<path d="M32.4636 15.4219H29.9878V17.8976H32.4636V15.4219Z" fill="#9CC8FF"/>
<path d="M34.9392 15.4219H32.4635V17.8976H34.9392V15.4219Z" fill="#9CC8FF"/>
<path d="M37.4151 15.4219H34.9393V17.8976H37.4151V15.4219Z" fill="#BDD7FF"/>
<path d="M39.8907 15.4219H37.4149V17.8976H39.8907V15.4219Z" fill="#BDD7FF"/>
<path d="M42.3664 15.4219H39.8908V17.8976H42.3664V15.4219Z" fill="#BDD7FF"/>
<path d="M44.8422 15.4219H42.3664V17.8976H44.8422V15.4219Z" fill="#BDD7FF"/>
<path d="M47.318 15.4219H44.8423V17.8976H47.318V15.4219Z" fill="#80B8FF"/>
<path d="M49.7939 15.4219H47.3181V17.8976H49.7939V15.4219Z" fill="black"/>
<path d="M52.2695 15.4219H49.7938V17.8976H52.2695V15.4219Z" fill="black"/>
<path d="M54.7454 15.4219H52.2696V17.8976H54.7454V15.4219Z" fill="white"/>
<path d="M2.75482 17.8975H0.279053V20.3732H2.75482V17.8975Z" fill="white"/>
<path d="M5.23066 17.8975H2.7549V20.3732H5.23066V17.8975Z" fill="black"/>
<path d="M7.70631 17.8975H5.23055V20.3732H7.70631V17.8975Z" fill="#508FDA"/>
<path d="M10.1821 17.8975H7.70638V20.3732H10.1821V17.8975Z" fill="#BDD7FF"/>
<path d="M12.6577 17.8975H10.182V20.3732H12.6577V17.8975Z" fill="#BDD7FF"/>
<path d="M15.1336 17.8975H12.6579V20.3732H15.1336V17.8975Z" fill="#BDD7FF"/>
<path d="M17.6091 17.8975H15.1333V20.3732H17.6091V17.8975Z" fill="#BDD7FF"/>
<path d="M20.0851 17.8975H17.6094V20.3732H20.0851V17.8975Z" fill="#BDD7FF"/>
<path d="M22.5606 17.8975H20.0848V20.3732H22.5606V17.8975Z" fill="#BDD7FF"/>
<path d="M25.0366 17.8975H22.5609V20.3732H25.0366V17.8975Z" fill="white"/>
<path d="M27.512 17.8975H25.0363V20.3732H27.512V17.8975Z" fill="white"/>
<path d="M29.9877 17.8975H27.512V20.3732H29.9877V17.8975Z" fill="#80B8FF"/>
<path d="M32.4636 17.8975H29.9878V20.3732H32.4636V17.8975Z" fill="#80B8FF"/>
<path d="M34.9392 17.8975H32.4635V20.3732H34.9392V17.8975Z" fill="#80B8FF"/>
<path d="M37.4151 17.8975H34.9393V20.3732H37.4151V17.8975Z" fill="#9CC8FF"/>
<path d="M39.8907 17.8975H37.4149V20.3732H39.8907V17.8975Z" fill="#9CC8FF"/>
<path d="M42.3664 17.8975H39.8908V20.3732H42.3664V17.8975Z" fill="#9CC8FF"/>
<path d="M44.8422 17.8975H42.3664V20.3732H44.8422V17.8975Z" fill="#80B8FF"/>
<path d="M47.318 17.8975H44.8423V20.3732H47.318V17.8975Z" fill="white"/>
<path d="M49.7939 17.8975H47.3181V20.3732H49.7939V17.8975Z" fill="white"/>
<path d="M52.2695 17.8975H49.7938V20.3732H52.2695V17.8975Z" fill="#80B8FF"/>
<path d="M54.7454 17.8975H52.2696V20.3732H54.7454V17.8975Z" fill="black"/>
<path d="M57.2214 17.8975H54.7456V20.3732H57.2214V17.8975Z" fill="white"/>
<path d="M2.75482 20.373H0.279053V22.8488H2.75482V20.373Z" fill="white"/>
<path d="M5.23066 20.373H2.7549V22.8488H5.23066V20.373Z" fill="black"/>
<path d="M7.70631 20.373H5.23055V22.8488H7.70631V20.373Z" fill="#508FDA"/>
<path d="M10.1821 20.373H7.70638V22.8488H10.1821V20.373Z" fill="#80B8FF"/>
<path d="M12.6577 20.373H10.182V22.8488H12.6577V20.373Z" fill="#9CC8FF"/>
<path d="M15.1336 20.373H12.6579V22.8488H15.1336V20.373Z" fill="#9CC8FF"/>
<path d="M17.6091 20.373H15.1333V22.8488H17.6091V20.373Z" fill="#9CC8FF"/>
<path d="M20.0851 20.373H17.6094V22.8488H20.0851V20.373Z" fill="#9CC8FF"/>
<path d="M22.5606 20.373H20.0848V22.8488H22.5606V20.373Z" fill="#9CC8FF"/>
<path d="M25.0366 20.373H22.5609V22.8488H25.0366V20.373Z" fill="#9CC8FF"/>
<path d="M27.512 20.373H25.0363V22.8488H27.512V20.373Z" fill="#9CC8FF"/>
<path d="M29.9877 20.373H27.512V22.8488H29.9877V20.373Z" fill="white"/>
<path d="M32.4636 20.373H29.9878V22.8488H32.4636V20.373Z" fill="white"/>
<path d="M34.9392 20.373H32.4635V22.8488H34.9392V20.373Z" fill="white"/>
<path d="M37.4151 20.373H34.9393V22.8488H37.4151V20.373Z" fill="#80B8FF"/>
<path d="M39.8907 20.373H37.4149V22.8488H39.8907V20.373Z" fill="#508FDA"/>
<path d="M42.3664 20.373H39.8908V22.8488H42.3664V20.373Z" fill="#80B8FF"/>
<path d="M44.8422 20.373H42.3664V22.8488H44.8422V20.373Z" fill="#9CC8FF"/>
<path d="M47.318 20.373H44.8423V22.8488H47.318V20.373Z" fill="#9CC8FF"/>
<path d="M49.7939 20.373H47.3181V22.8488H49.7939V20.373Z" fill="#9CC8FF"/>
<path d="M52.2695 20.373H49.7938V22.8488H52.2695V20.373Z" fill="white"/>
<path d="M54.7454 20.373H52.2696V22.8488H54.7454V20.373Z" fill="#80B8FF"/>
<path d="M57.2214 20.373H54.7456V22.8488H57.2214V20.373Z" fill="black"/>
<path d="M59.6967 20.373H57.2211V22.8488H59.6967V20.373Z" fill="white"/>
<path d="M2.75482 22.8486H0.279053V25.3243H2.75482V22.8486Z" fill="white"/>
<path d="M5.23066 22.8486H2.7549V25.3243H5.23066V22.8486Z" fill="white"/>
<path d="M7.70631 22.8486H5.23055V25.3243H7.70631V22.8486Z" fill="black"/>
<path d="M10.1821 22.8486H7.70638V25.3243H10.1821V22.8486Z" fill="#508FDA"/>
<path d="M12.6577 22.8486H10.182V25.3243H12.6577V22.8486Z" fill="#508FDA"/>
<path d="M15.1336 22.8486H12.6579V25.3243H15.1336V22.8486Z" fill="#508FDA"/>
<path d="M17.6091 22.8486H15.1333V25.3243H17.6091V22.8486Z" fill="#508FDA"/>
<path d="M20.0851 22.8486H17.6094V25.3243H20.0851V22.8486Z" fill="#508FDA"/>
<path d="M22.5606 22.8486H20.0848V25.3243H22.5606V22.8486Z" fill="#508FDA"/>
<path d="M25.0366 22.8486H22.5609V25.3243H25.0366V22.8486Z" fill="#508FDA"/>
<path d="M27.512 22.8486H25.0363V25.3243H27.512V22.8486Z" fill="#508FDA"/>
<path d="M29.9877 22.8486H27.512V25.3243H29.9877V22.8486Z" fill="#508FDA"/>
<path d="M32.4636 22.8486H29.9878V25.3243H32.4636V22.8486Z" fill="#508FDA"/>
<path d="M34.9392 22.8486H32.4635V25.3243H34.9392V22.8486Z" fill="#508FDA"/>
<path d="M37.4151 22.8486H34.9393V25.3243H37.4151V22.8486Z" fill="#508FDA"/>
<path d="M39.8907 22.8486H37.4149V25.3243H39.8907V22.8486Z" fill="black"/>
<path d="M42.3664 22.8486H39.8908V25.3243H42.3664V22.8486Z" fill="#508FDA"/>
<path d="M44.8422 22.8486H42.3664V25.3243H44.8422V22.8486Z" fill="#508FDA"/>
<path d="M47.318 22.8486H44.8423V25.3243H47.318V22.8486Z" fill="#508FDA"/>
<path d="M49.7939 22.8486H47.3181V25.3243H49.7939V22.8486Z" fill="#508FDA"/>
<path d="M52.2695 22.8486H49.7938V25.3243H52.2695V22.8486Z" fill="#508FDA"/>
<path d="M54.7454 22.8486H52.2696V25.3243H54.7454V22.8486Z" fill="#508FDA"/>
<path d="M57.2214 22.8486H54.7456V25.3243H57.2214V22.8486Z" fill="black"/>
<path d="M59.6967 22.8486H57.2211V25.3243H59.6967V22.8486Z" fill="white"/>
<path d="M5.23066 25.3252H2.7549V27.801H5.23066V25.3252Z" fill="white"/>
<path d="M7.70631 25.3252H5.23055V27.801H7.70631V25.3252Z" fill="white"/>
<path d="M10.1821 25.3252H7.70638V27.801H10.1821V25.3252Z" fill="black"/>
<path d="M12.6577 25.3252H10.182V27.801H12.6577V25.3252Z" fill="black"/>
<path d="M15.1336 25.3252H12.6579V27.801H15.1336V25.3252Z" fill="black"/>
<path d="M17.6091 25.3252H15.1333V27.801H17.6091V25.3252Z" fill="black"/>
<path d="M20.0851 25.3252H17.6094V27.801H20.0851V25.3252Z" fill="black"/>
<path d="M22.5606 25.3252H20.0848V27.801H22.5606V25.3252Z" fill="black"/>
<path d="M25.0366 25.3252H22.5609V27.801H25.0366V25.3252Z" fill="black"/>
<path d="M27.512 25.3252H25.0363V27.801H27.512V25.3252Z" fill="black"/>
<path d="M29.9877 25.3252H27.512V27.801H29.9877V25.3252Z" fill="black"/>
<path d="M32.4636 25.3252H29.9878V27.801H32.4636V25.3252Z" fill="black"/>
<path d="M34.9392 25.3252H32.4635V27.801H34.9392V25.3252Z" fill="black"/>
<path d="M37.4151 25.3252H34.9393V27.801H37.4151V25.3252Z" fill="black"/>
<path d="M39.8907 25.3252H37.4149V27.801H39.8907V25.3252Z" fill="white"/>
<path d="M42.3664 25.3252H39.8908V27.801H42.3664V25.3252Z" fill="black"/>
<path d="M44.8422 25.3252H42.3664V27.801H44.8422V25.3252Z" fill="black"/>
<path d="M47.318 25.3252H44.8423V27.801H47.318V25.3252Z" fill="black"/>
<path d="M49.7939 25.3252H47.3181V27.801H49.7939V25.3252Z" fill="black"/>
<path d="M52.2695 25.3252H49.7938V27.801H52.2695V25.3252Z" fill="black"/>
<path d="M54.7454 25.3252H52.2696V27.801H54.7454V25.3252Z" fill="black"/>
<path d="M57.2214 25.3252H54.7456V27.801H57.2214V25.3252Z" fill="white"/>
<path d="M59.6967 25.3252H57.2211V27.801H59.6967V25.3252Z" fill="white"/>
<path d="M7.70631 27.8008H5.23055V30.2765H7.70631V27.8008Z" fill="white"/>
<path d="M10.1821 27.8008H7.70638V30.2765H10.1821V27.8008Z" fill="white"/>
<path d="M12.6577 27.8008H10.182V30.2765H12.6577V27.8008Z" fill="white"/>
<path d="M15.1336 27.8008H12.6579V30.2765H15.1336V27.8008Z" fill="white"/>
<path d="M17.6091 27.8008H15.1333V30.2765H17.6091V27.8008Z" fill="white"/>
<path d="M20.0851 27.8008H17.6094V30.2765H20.0851V27.8008Z" fill="white"/>
<path d="M22.5606 27.8008H20.0848V30.2765H22.5606V27.8008Z" fill="white"/>
<path d="M25.0366 27.8008H22.5609V30.2765H25.0366V27.8008Z" fill="white"/>
<path d="M27.512 27.8008H25.0363V30.2765H27.512V27.8008Z" fill="white"/>
<path d="M29.9877 27.8008H27.512V30.2765H29.9877V27.8008Z" fill="white"/>
<path d="M32.4636 27.8008H29.9878V30.2765H32.4636V27.8008Z" fill="white"/>
<path d="M34.9392 27.8008H32.4635V30.2765H34.9392V27.8008Z" fill="white"/>
<path d="M37.4151 27.8008H34.9393V30.2765H37.4151V27.8008Z" fill="white"/>
<path d="M39.8907 27.8008H37.4149V30.2765H39.8907V27.8008Z" fill="white"/>
<path d="M42.3664 27.8008H39.8908V30.2765H42.3664V27.8008Z" fill="white"/>
<path d="M44.8422 27.8008H42.3664V30.2765H44.8422V27.8008Z" fill="white"/>
<path d="M47.318 27.8008H44.8423V30.2765H47.318V27.8008Z" fill="white"/>
<path d="M49.7939 27.8008H47.3181V30.2765H49.7939V27.8008Z" fill="white"/>
<path d="M52.2695 27.8008H49.7938V30.2765H52.2695V27.8008Z" fill="white"/>
<path d="M54.7454 27.8008H52.2696V30.2765H54.7454V27.8008Z" fill="white"/>
<path d="M57.2214 27.8008H54.7456V30.2765H57.2214V27.8008Z" fill="white"/>
</svg>
