<svg width="68" height="38" viewBox="0 0 68 38" fill="none" xmlns="http://www.w3.org/2000/svg">
<path d="M31.7312 0.192871H28.5967V3.32734H31.7312V0.192871Z" fill="white"/>
<path d="M34.865 0.192871H31.7306V3.32734H34.865V0.192871Z" fill="white"/>
<path d="M37.9997 0.192871H34.8651V3.32734H37.9997V0.192871Z" fill="white"/>
<path d="M41.1342 0.192871H37.9996V3.32734H41.1342V0.192871Z" fill="white"/>
<path d="M44.2687 0.192871H41.1342V3.32734H44.2687V0.192871Z" fill="white"/>
<path d="M47.4033 0.192871H44.2688V3.32734H47.4033V0.192871Z" fill="white"/>
<path d="M50.5377 0.192871H47.4032V3.32734H50.5377V0.192871Z" fill="white"/>
<path d="M28.5961 3.32764H25.4615V6.46218H28.5961V3.32764Z" fill="white"/>
<path d="M31.7312 3.32764H28.5967V6.46218H31.7312V3.32764Z" fill="white"/>
<path d="M34.865 3.32764H31.7306V6.46218H34.865V3.32764Z" fill="black"/>
<path d="M37.9997 3.32764H34.8651V6.46218H37.9997V3.32764Z" fill="black"/>
<path d="M41.1342 3.32764H37.9996V6.46218H41.1342V3.32764Z" fill="black"/>
<path d="M44.2687 3.32764H41.1342V6.46218H44.2687V3.32764Z" fill="black"/>
<path d="M47.4033 3.32764H44.2688V6.46218H47.4033V3.32764Z" fill="black"/>
<path d="M50.5377 3.32764H47.4032V6.46218H50.5377V3.32764Z" fill="white"/>
<path d="M53.6722 3.32764H50.5378V6.46218H53.6722V3.32764Z" fill="white"/>
<path d="M25.4621 6.46191H22.3275V9.59646H25.4621V6.46191Z" fill="white"/>
<path d="M28.5961 6.46191H25.4615V9.59646H28.5961V6.46191Z" fill="white"/>
<path d="M31.7312 6.46191H28.5967V9.59646H31.7312V6.46191Z" fill="black"/>
<path d="M34.865 6.46191H31.7306V9.59646H34.865V6.46191Z" fill="white"/>
<path d="M37.9997 6.46191H34.8651V9.59646H37.9997V6.46191Z" fill="white"/>
<path d="M41.1342 6.46191H37.9996V9.59646H41.1342V6.46191Z" fill="white"/>
<path d="M44.2687 6.46191H41.1342V9.59646H44.2687V6.46191Z" fill="white"/>
<path d="M47.4033 6.46191H44.2688V9.59646H47.4033V6.46191Z" fill="white"/>
<path d="M50.5377 6.46191H47.4032V9.59646H50.5377V6.46191Z" fill="black"/>
<path d="M53.6722 6.46191H50.5378V9.59646H53.6722V6.46191Z" fill="white"/>
<path d="M56.8068 6.46191H53.6722V9.59646H56.8068V6.46191Z" fill="white"/>
<path d="M16.0582 9.59668H12.9238V12.7311H16.0582V9.59668Z" fill="white"/>
<path d="M19.193 9.59668H16.0585V12.7311H19.193V9.59668Z" fill="white"/>
<path d="M22.327 9.59668H19.1925V12.7311H22.327V9.59668Z" fill="white"/>
<path d="M25.4621 9.59668H22.3275V12.7311H25.4621V9.59668Z" fill="white"/>
<path d="M28.5961 9.59668H25.4615V12.7311H28.5961V9.59668Z" fill="black"/>
<path d="M31.7312 9.59668H28.5967V12.7311H31.7312V9.59668Z" fill="#9CC8FF"/>
<path d="M34.865 9.59668H31.7306V12.7311H34.865V9.59668Z" fill="#BDD7FF"/>
<path d="M37.9997 9.59668H34.8651V12.7311H37.9997V9.59668Z" fill="#BDD7FF"/>
<path d="M41.1342 9.59668H37.9996V12.7311H41.1342V9.59668Z" fill="#BDD7FF"/>
<path d="M44.2687 9.59668H41.1342V12.7311H44.2687V9.59668Z" fill="#BDD7FF"/>
<path d="M47.4033 9.59668H44.2688V12.7311H47.4033V9.59668Z" fill="#BDD7FF"/>
<path d="M50.5377 9.59668H47.4032V12.7311H50.5377V9.59668Z" fill="white"/>
<path d="M53.6722 9.59668H50.5378V12.7311H53.6722V9.59668Z" fill="black"/>
<path d="M56.8068 9.59668H53.6722V12.7311H56.8068V9.59668Z" fill="white"/>
<path d="M59.9414 9.59668H56.8069V12.7311H59.9414V9.59668Z" fill="white"/>
<path d="M9.78933 12.731H6.65479V15.8655H9.78933V12.731Z" fill="white"/>
<path d="M12.924 12.731H9.78943V15.8655H12.924V12.731Z" fill="white"/>
<path d="M16.0582 12.731H12.9238V15.8655H16.0582V12.731Z" fill="white"/>
<path d="M19.193 12.731H16.0585V15.8655H19.193V12.731Z" fill="black"/>
<path d="M22.327 12.731H19.1925V15.8655H22.327V12.731Z" fill="black"/>
<path d="M25.4621 12.731H22.3275V15.8655H25.4621V12.731Z" fill="black"/>
<path d="M28.5961 12.731H25.4615V15.8655H28.5961V12.731Z" fill="#80B8FF"/>
<path d="M31.7312 12.731H28.5967V15.8655H31.7312V12.731Z" fill="#9CC8FF"/>
<path d="M34.865 12.731H31.7306V15.8655H34.865V12.731Z" fill="#BDD7FF"/>
<path d="M37.9997 12.731H34.8651V15.8655H37.9997V12.731Z" fill="#BDD7FF"/>
<path d="M41.1342 12.731H37.9996V15.8655H41.1342V12.731Z" fill="#BDD7FF"/>
<path d="M44.2687 12.731H41.1342V15.8655H44.2687V12.731Z" fill="#BDD7FF"/>
<path d="M47.4033 12.731H44.2688V15.8655H47.4033V12.731Z" fill="#BDD7FF"/>
<path d="M50.5377 12.731H47.4032V15.8655H50.5377V12.731Z" fill="#BDD7FF"/>
<path d="M53.6722 12.731H50.5378V15.8655H53.6722V12.731Z" fill="white"/>
<path d="M56.8068 12.731H53.6722V15.8655H56.8068V12.731Z" fill="black"/>
<path d="M59.9414 12.731H56.8069V15.8655H59.9414V12.731Z" fill="white"/>
<path d="M63.0761 12.731H59.9415V15.8655H63.0761V12.731Z" fill="white"/>
<path d="M6.65493 15.8652H3.52039V18.9998H6.65493V15.8652Z" fill="white"/>
<path d="M9.78933 15.8652H6.65479V18.9998H9.78933V15.8652Z" fill="white"/>
<path d="M12.924 15.8652H9.78943V18.9998H12.924V15.8652Z" fill="black"/>
<path d="M16.0582 15.8652H12.9238V18.9998H16.0582V15.8652Z" fill="black"/>
<path d="M19.193 15.8652H16.0585V18.9998H19.193V15.8652Z" fill="white"/>
<path d="M22.327 15.8652H19.1925V18.9998H22.327V15.8652Z" fill="white"/>
<path d="M25.4621 15.8652H22.3275V18.9998H25.4621V15.8652Z" fill="#80B8FF"/>
<path d="M28.5961 15.8652H25.4615V18.9998H28.5961V15.8652Z" fill="#80B8FF"/>
<path d="M31.7312 15.8652H28.5967V18.9998H31.7312V15.8652Z" fill="#9CC8FF"/>
<path d="M34.865 15.8652H31.7306V18.9998H34.865V15.8652Z" fill="#9CC8FF"/>
<path d="M37.9997 15.8652H34.8651V18.9998H37.9997V15.8652Z" fill="#BDD7FF"/>
<path d="M41.1342 15.8652H37.9996V18.9998H41.1342V15.8652Z" fill="#BDD7FF"/>
<path d="M44.2687 15.8652H41.1342V18.9998H44.2687V15.8652Z" fill="#BDD7FF"/>
<path d="M47.4033 15.8652H44.2688V18.9998H47.4033V15.8652Z" fill="#BDD7FF"/>
<path d="M50.5377 15.8652H47.4032V18.9998H50.5377V15.8652Z" fill="#BDD7FF"/>
<path d="M53.6722 15.8652H50.5378V18.9998H53.6722V15.8652Z" fill="#BDD7FF"/>
<path d="M56.8068 15.8652H53.6722V18.9998H56.8068V15.8652Z" fill="#80B8FF"/>
<path d="M59.9414 15.8652H56.8069V18.9998H59.9414V15.8652Z" fill="black"/>
<path d="M63.0761 15.8652H59.9415V18.9998H63.0761V15.8652Z" fill="white"/>
<path d="M66.2105 15.8652H63.0759V18.9998H66.2105V15.8652Z" fill="white"/>
<path d="M3.52028 19H0.385742V22.1345H3.52028V19Z" fill="white"/>
<path d="M6.65493 19H3.52039V22.1345H6.65493V19Z" fill="black"/>
<path d="M9.78933 19H6.65479V22.1345H9.78933V19Z" fill="black"/>
<path d="M12.924 19H9.78943V22.1345H12.924V19Z" fill="#80B8FF"/>
<path d="M16.0582 19H12.9238V22.1345H16.0582V19Z" fill="#BDD7FF"/>
<path d="M19.193 19H16.0585V22.1345H19.193V19Z" fill="#BDD7FF"/>
<path d="M22.327 19H19.1925V22.1345H22.327V19Z" fill="#BDD7FF"/>
<path d="M25.4621 19H22.3275V22.1345H25.4621V19Z" fill="white"/>
<path d="M28.5961 19H25.4615V22.1345H28.5961V19Z" fill="white"/>
<path d="M31.7312 19H28.5967V22.1345H31.7312V19Z" fill="#80B8FF"/>
<path d="M34.865 19H31.7306V22.1345H34.865V19Z" fill="#80B8FF"/>
<path d="M37.9997 19H34.8651V22.1345H37.9997V19Z" fill="#9CC8FF"/>
<path d="M41.1342 19H37.9996V22.1345H41.1342V19Z" fill="#9CC8FF"/>
<path d="M44.2687 19H41.1342V22.1345H44.2687V19Z" fill="#9CC8FF"/>
<path d="M47.4033 19H44.2688V22.1345H47.4033V19Z" fill="#BDD7FF"/>
<path d="M50.5377 19H47.4032V22.1345H50.5377V19Z" fill="#BDD7FF"/>
<path d="M53.6722 19H50.5378V22.1345H53.6722V19Z" fill="#BDD7FF"/>
<path d="M56.8068 19H53.6722V22.1345H56.8068V19Z" fill="#BDD7FF"/>
<path d="M59.9414 19H56.8069V22.1345H59.9414V19Z" fill="#80B8FF"/>
<path d="M63.0761 19H59.9415V22.1345H63.0761V19Z" fill="black"/>
<path d="M66.2105 19H63.0759V22.1345H66.2105V19Z" fill="black"/>
<path d="M69.3451 19H66.2106V22.1345H69.3451V19Z" fill="white"/>
<path d="M3.52028 22.1343H0.385742V25.2688H3.52028V22.1343Z" fill="white"/>
<path d="M6.65493 22.1343H3.52039V25.2688H6.65493V22.1343Z" fill="black"/>
<path d="M9.78933 22.1343H6.65479V25.2688H9.78933V22.1343Z" fill="#508FDA"/>
<path d="M12.924 22.1343H9.78943V25.2688H12.924V22.1343Z" fill="#BDD7FF"/>
<path d="M16.0582 22.1343H12.9238V25.2688H16.0582V22.1343Z" fill="#BDD7FF"/>
<path d="M19.193 22.1343H16.0585V25.2688H19.193V22.1343Z" fill="#BDD7FF"/>
<path d="M22.327 22.1343H19.1925V25.2688H22.327V22.1343Z" fill="#BDD7FF"/>
<path d="M25.4621 22.1343H22.3275V25.2688H25.4621V22.1343Z" fill="#BDD7FF"/>
<path d="M28.5961 22.1343H25.4615V25.2688H28.5961V22.1343Z" fill="#BDD7FF"/>
<path d="M31.7312 22.1343H28.5967V25.2688H31.7312V22.1343Z" fill="white"/>
<path d="M34.865 22.1343H31.7306V25.2688H34.865V22.1343Z" fill="white"/>
<path d="M37.9997 22.1343H34.8651V25.2688H37.9997V22.1343Z" fill="#80B8FF"/>
<path d="M41.1342 22.1343H37.9996V25.2688H41.1342V22.1343Z" fill="#80B8FF"/>
<path d="M44.2687 22.1343H41.1342V25.2688H44.2687V22.1343Z" fill="#80B8FF"/>
<path d="M47.4033 22.1343H44.2688V25.2688H47.4033V22.1343Z" fill="#9CC8FF"/>
<path d="M50.5377 22.1343H47.4032V25.2688H50.5377V22.1343Z" fill="#9CC8FF"/>
<path d="M53.6722 22.1343H50.5378V25.2688H53.6722V22.1343Z" fill="#9CC8FF"/>
<path d="M56.8068 22.1343H53.6722V25.2688H56.8068V22.1343Z" fill="#80B8FF"/>
<path d="M59.9414 22.1343H56.8069V25.2688H59.9414V22.1343Z" fill="white"/>
<path d="M63.0761 22.1343H59.9415V25.2688H63.0761V22.1343Z" fill="white"/>
<path d="M66.2105 22.1343H63.0759V25.2688H66.2105V22.1343Z" fill="#80B8FF"/>
<path d="M69.3451 22.1343H66.2106V25.2688H69.3451V22.1343Z" fill="black"/>
<path d="M3.52028 25.269H0.385742V28.4036H3.52028V25.269Z" fill="white"/>
<path d="M6.65493 25.269H3.52039V28.4036H6.65493V25.269Z" fill="black"/>
<path d="M9.78933 25.269H6.65479V28.4036H9.78933V25.269Z" fill="#508FDA"/>
<path d="M12.924 25.269H9.78943V28.4036H12.924V25.269Z" fill="#80B8FF"/>
<path d="M16.0582 25.269H12.9238V28.4036H16.0582V25.269Z" fill="#9CC8FF"/>
<path d="M19.193 25.269H16.0585V28.4036H19.193V25.269Z" fill="#9CC8FF"/>
<path d="M22.327 25.269H19.1925V28.4036H22.327V25.269Z" fill="#9CC8FF"/>
<path d="M25.4621 25.269H22.3275V28.4036H25.4621V25.269Z" fill="#9CC8FF"/>
<path d="M28.5961 25.269H25.4615V28.4036H28.5961V25.269Z" fill="#9CC8FF"/>
<path d="M31.7312 25.269H28.5967V28.4036H31.7312V25.269Z" fill="#9CC8FF"/>
<path d="M34.865 25.269H31.7306V28.4036H34.865V25.269Z" fill="#9CC8FF"/>
<path d="M37.9997 25.269H34.8651V28.4036H37.9997V25.269Z" fill="white"/>
<path d="M41.1342 25.269H37.9996V28.4036H41.1342V25.269Z" fill="white"/>
<path d="M44.2687 25.269H41.1342V28.4036H44.2687V25.269Z" fill="white"/>
<path d="M47.4033 25.269H44.2688V28.4036H47.4033V25.269Z" fill="#80B8FF"/>
<path d="M50.5377 25.269H47.4032V28.4036H50.5377V25.269Z" fill="#508FDA"/>
<path d="M53.6722 25.269H50.5378V28.4036H53.6722V25.269Z" fill="#80B8FF"/>
<path d="M56.8068 25.269H53.6722V28.4036H56.8068V25.269Z" fill="#9CC8FF"/>
<path d="M59.9414 25.269H56.8069V28.4036H59.9414V25.269Z" fill="#9CC8FF"/>
<path d="M63.0761 25.269H59.9415V28.4036H63.0761V25.269Z" fill="#9CC8FF"/>
<path d="M66.2105 25.269H63.0759V28.4036H66.2105V25.269Z" fill="white"/>
<path d="M69.3451 25.269H66.2106V28.4036H69.3451V25.269Z" fill="#80B8FF"/>
<path d="M3.52028 28.4033H0.385742V31.5378H3.52028V28.4033Z" fill="white"/>
<path d="M6.65493 28.4033H3.52039V31.5378H6.65493V28.4033Z" fill="white"/>
<path d="M9.78933 28.4033H6.65479V31.5378H9.78933V28.4033Z" fill="black"/>
<path d="M12.924 28.4033H9.78943V31.5378H12.924V28.4033Z" fill="#508FDA"/>
<path d="M16.0582 28.4033H12.9238V31.5378H16.0582V28.4033Z" fill="#508FDA"/>
<path d="M19.193 28.4033H16.0585V31.5378H19.193V28.4033Z" fill="#508FDA"/>
<path d="M22.327 28.4033H19.1925V31.5378H22.327V28.4033Z" fill="#508FDA"/>
<path d="M25.4621 28.4033H22.3275V31.5378H25.4621V28.4033Z" fill="#508FDA"/>
<path d="M28.5961 28.4033H25.4615V31.5378H28.5961V28.4033Z" fill="#508FDA"/>
<path d="M31.7312 28.4033H28.5967V31.5378H31.7312V28.4033Z" fill="#508FDA"/>
<path d="M34.865 28.4033H31.7306V31.5378H34.865V28.4033Z" fill="#508FDA"/>
<path d="M37.9997 28.4033H34.8651V31.5378H37.9997V28.4033Z" fill="#508FDA"/>
<path d="M41.1342 28.4033H37.9996V31.5378H41.1342V28.4033Z" fill="#508FDA"/>
<path d="M44.2687 28.4033H41.1342V31.5378H44.2687V28.4033Z" fill="#508FDA"/>
<path d="M47.4033 28.4033H44.2688V31.5378H47.4033V28.4033Z" fill="#508FDA"/>
<path d="M50.5377 28.4033H47.4032V31.5378H50.5377V28.4033Z" fill="black"/>
<path d="M53.6722 28.4033H50.5378V31.5378H53.6722V28.4033Z" fill="#508FDA"/>
<path d="M56.8068 28.4033H53.6722V31.5378H56.8068V28.4033Z" fill="#508FDA"/>
<path d="M59.9414 28.4033H56.8069V31.5378H59.9414V28.4033Z" fill="#508FDA"/>
<path d="M63.0761 28.4033H59.9415V31.5378H63.0761V28.4033Z" fill="#508FDA"/>
<path d="M66.2105 28.4033H63.0759V31.5378H66.2105V28.4033Z" fill="#508FDA"/>
<path d="M69.3451 28.4033H66.2106V31.5378H69.3451V28.4033Z" fill="#508FDA"/>
<path d="M6.65493 31.5381H3.52039V34.6726H6.65493V31.5381Z" fill="white"/>
<path d="M9.78933 31.5381H6.65479V34.6726H9.78933V31.5381Z" fill="white"/>
<path d="M12.924 31.5381H9.78943V34.6726H12.924V31.5381Z" fill="black"/>
<path d="M16.0582 31.5381H12.9238V34.6726H16.0582V31.5381Z" fill="black"/>
<path d="M19.193 31.5381H16.0585V34.6726H19.193V31.5381Z" fill="black"/>
<path d="M22.327 31.5381H19.1925V34.6726H22.327V31.5381Z" fill="black"/>
<path d="M25.4621 31.5381H22.3275V34.6726H25.4621V31.5381Z" fill="black"/>
<path d="M28.5961 31.5381H25.4615V34.6726H28.5961V31.5381Z" fill="black"/>
<path d="M31.7312 31.5381H28.5967V34.6726H31.7312V31.5381Z" fill="black"/>
<path d="M34.865 31.5381H31.7306V34.6726H34.865V31.5381Z" fill="black"/>
<path d="M37.9997 31.5381H34.8651V34.6726H37.9997V31.5381Z" fill="black"/>
<path d="M41.1342 31.5381H37.9996V34.6726H41.1342V31.5381Z" fill="black"/>
<path d="M44.2687 31.5381H41.1342V34.6726H44.2687V31.5381Z" fill="black"/>
<path d="M47.4033 31.5381H44.2688V34.6726H47.4033V31.5381Z" fill="black"/>
<path d="M50.5377 31.5381H47.4032V34.6726H50.5377V31.5381Z" fill="white"/>
<path d="M53.6722 31.5381H50.5378V34.6726H53.6722V31.5381Z" fill="black"/>
<path d="M56.8068 31.5381H53.6722V34.6726H56.8068V31.5381Z" fill="black"/>
<path d="M59.9414 31.5381H56.8069V34.6726H59.9414V31.5381Z" fill="black"/>
<path d="M63.0761 31.5381H59.9415V34.6726H63.0761V31.5381Z" fill="black"/>
<path d="M66.2105 31.5381H63.0759V34.6726H66.2105V31.5381Z" fill="black"/>
<path d="M69.3451 31.5381H66.2106V34.6726H69.3451V31.5381Z" fill="black"/>
<path d="M9.78933 34.6724H6.65479V37.8069H9.78933V34.6724Z" fill="white"/>
<path d="M12.924 34.6724H9.78943V37.8069H12.924V34.6724Z" fill="white"/>
<path d="M16.0582 34.6724H12.9238V37.8069H16.0582V34.6724Z" fill="white"/>
<path d="M19.193 34.6724H16.0585V37.8069H19.193V34.6724Z" fill="white"/>
<path d="M22.327 34.6724H19.1925V37.8069H22.327V34.6724Z" fill="white"/>
<path d="M25.4621 34.6724H22.3275V37.8069H25.4621V34.6724Z" fill="white"/>
<path d="M28.5961 34.6724H25.4615V37.8069H28.5961V34.6724Z" fill="white"/>
<path d="M31.7312 34.6724H28.5967V37.8069H31.7312V34.6724Z" fill="white"/>
<path d="M34.865 34.6724H31.7306V37.8069H34.865V34.6724Z" fill="white"/>
<path d="M37.9997 34.6724H34.8651V37.8069H37.9997V34.6724Z" fill="white"/>
<path d="M41.1342 34.6724H37.9996V37.8069H41.1342V34.6724Z" fill="white"/>
<path d="M44.2687 34.6724H41.1342V37.8069H44.2687V34.6724Z" fill="white"/>
<path d="M47.4033 34.6724H44.2688V37.8069H47.4033V34.6724Z" fill="white"/>
<path d="M50.5377 34.6724H47.4032V37.8069H50.5377V34.6724Z" fill="white"/>
<path d="M53.6722 34.6724H50.5378V37.8069H53.6722V34.6724Z" fill="white"/>
<path d="M56.8068 34.6724H53.6722V37.8069H56.8068V34.6724Z" fill="white"/>
<path d="M59.9414 34.6724H56.8069V37.8069H59.9414V34.6724Z" fill="white"/>
<path d="M63.0761 34.6724H59.9415V37.8069H63.0761V34.6724Z" fill="white"/>
<path d="M66.2105 34.6724H63.0759V37.8069H66.2105V34.6724Z" fill="white"/>
<path d="M69.3451 34.6724H66.2106V37.8069H69.3451V34.6724Z" fill="white"/>
</svg>
