<svg width="401" height="384" viewBox="0 0 401 384" fill="none" xmlns="http://www.w3.org/2000/svg">
<path d="M78.1494 226.559C74.1631 232.841 71.4853 240.211 68.694 246.988C68.3834 247.732 69.4139 248.139 69.9178 247.729C73.6496 244.754 76.7991 238.756 78.9796 234.547C80.2815 232.04 81.3571 229.422 82.8085 227.006C84.8013 223.718 87.1914 221.692 90.1785 219.798C90.4497 220.32 90.9519 220.714 91.7199 220.732C101.079 220.886 110.584 220.925 119.913 221.865C122.286 222.524 124.646 223.098 126.726 222.89C127.448 222.816 128.154 222.452 128.348 221.689C128.976 219.157 128.323 215.913 127.973 213.35C127.935 213.097 127.803 212.915 127.621 212.793C127.608 212.772 127.61 212.747 127.603 212.717C127.325 212.165 126.682 212.045 126.117 212.072C126.068 212.068 126.042 212.09 125.997 212.102C124.315 210.725 122.079 210.43 119.711 209.953C115.429 209.095 111.089 208.521 106.752 207.962C98.7594 206.925 90.8469 205.923 82.8511 206.787C80.0924 206.175 78.2068 207.664 76.14 209.451C72.4163 212.687 68.5772 215.776 64.7677 218.922C64.2902 219.309 64.37 219.894 64.6961 220.283C60.081 223.873 55.9526 227.987 52.6205 232.917C52.0623 233.753 53.3073 234.776 54 234.034C55.519 232.412 57.1595 230.865 58.884 229.368C61.5543 228.355 63.7813 226.345 65.9979 224.585C66.4114 224.261 66.5145 223.838 66.4225 223.463C68.4522 222.01 70.4946 220.642 72.5238 219.318C72.7944 219.545 73.048 219.801 73.2904 220.076C68.247 226.459 64.4445 233.977 59.7358 240.524C59.0063 241.538 60.6508 242.892 61.4607 241.914C63.975 238.904 66.7696 236.063 69.1514 232.934C70.1727 231.585 71.1043 230.196 72.0322 228.791C73.2484 227.88 74.4923 227.05 75.66 226.072C75.9702 225.813 76.8325 224.854 77.3075 225.039C77.7302 225.206 77.8596 226.025 78.0283 226.421C78.0487 226.472 78.084 226.519 78.1101 226.56L78.1494 226.559Z" fill="#FFD130"/>
<path opacity="0.5" d="M125.62 222.334C126.104 222.947 127.172 222.892 127.631 222.199C128.53 220.841 128.22 218.992 128.259 217.432C128.293 216.111 128.772 214.077 127.908 212.889C127.083 211.763 124.729 211.537 123.4 211.179C123.249 211.113 123.105 211.077 122.974 211.061C120.278 210.283 117.485 209.727 114.832 208.835C114.035 208.569 113.6 209.71 114.264 210.152C117.664 212.403 125.459 216.655 124.06 221.619C123.779 222.611 125.128 223.083 125.629 222.34L125.62 222.334Z" fill="#B28736"/>
<path d="M127.595 211.614C114.54 208.032 101.104 205.817 87.5833 205.069C84.5922 204.904 81.4132 204.46 78.7233 206.074C76.4091 207.469 74.3862 209.5 72.3458 211.265C67.8173 215.175 63.3856 219.221 59.3214 223.63C57.3693 225.755 55.4879 227.974 53.8215 230.324C53.0523 231.403 49.9632 234.793 52.218 235.815C53.551 236.418 55.7536 233.985 56.6691 233.276C61.6735 229.36 66.6945 225.48 71.7175 221.575C71.9581 221.389 72.3318 221.194 72.5184 220.949C72.5467 220.903 72.7137 220.838 72.7177 220.789C72.8014 220.061 71.9278 221.038 71.8525 221.121C71.1205 221.865 70.6016 223.121 70.0208 223.996C69.2061 225.214 68.3633 226.414 67.5206 227.615C64.5211 231.89 61.2332 236.156 59.0614 240.92C58.7265 241.662 58.1454 242.6 58.6046 243.402C59.0637 244.204 60.0339 244.269 60.7198 243.79C62.4186 242.61 63.8546 240.683 65.2607 239.185C68.7429 235.483 72.1393 231.692 75.5711 227.947C75.9306 227.564 76.2863 227.167 76.6459 226.785C76.7908 226.63 77.0464 226.44 77.1447 226.257L77.2463 226.152C77.6053 225.897 77.5033 225.644 76.9368 225.377C76.7605 225.436 76.4236 226.624 76.3574 226.776C76.1151 227.344 75.8728 227.913 75.6305 228.481C74.5611 230.962 73.4543 233.421 72.3698 235.906C71.3649 238.196 70.3693 240.493 69.4355 242.813C68.8823 244.19 67.3028 246.796 68.3551 248.2C70.0276 250.415 71.4404 247.809 72.2497 246.537C73.8174 244.077 75.3851 241.616 76.9528 239.156L86.5494 224.101C87.1569 223.14 87.907 222.113 88.9694 221.646C90.3265 221.051 92.0615 221.412 93.4942 221.514C95.1611 221.63 96.828 221.746 98.4911 221.847C105.19 222.28 111.903 222.605 118.603 222.974C121.789 223.155 124.984 223.341 128.173 223.537C129.305 223.61 129.324 221.871 128.204 221.78C121.774 221.281 115.35 220.901 108.913 220.499C105.69 220.296 102.47 220.107 99.2509 219.919C96.2561 219.739 93.0755 219.191 90.0808 219.433C87.2884 219.656 85.7391 221.77 84.3619 223.937L80.0813 230.706C76.7967 235.894 73.5122 241.082 70.2277 246.27C70.1937 246.326 69.4939 247.396 69.5032 247.402C69.6788 247.533 70.421 245.339 70.4912 245.139C70.8855 244.088 71.3041 243.039 71.7321 241.995C73.6581 237.3 75.7974 232.695 77.7701 228.028C78.2074 226.99 79.7221 223.795 77.1956 224.065C76.3746 224.155 75.8087 225.025 75.2873 225.591C74.4967 226.453 73.7061 227.315 72.9154 228.177C69.557 231.864 66.2339 235.598 62.7933 239.209C62.0913 239.946 61.3799 240.678 60.6592 241.403C60.5576 241.508 59.768 242.115 59.7748 242.272L60.2499 242.458C60.3068 242.301 60.373 242.149 60.4449 241.989C60.6408 241.75 60.7381 241.336 60.878 241.063C61.965 238.848 63.3025 236.746 64.6661 234.686C67.5535 230.343 70.8783 226.227 73.4444 221.676C73.8446 220.974 74.1498 220.175 73.4876 219.519C72.9169 218.943 72.1931 219.104 71.6011 219.512C71.1652 219.81 70.7533 220.173 70.3247 220.501L63.4707 225.825C60.8652 227.848 58.2691 229.877 55.6543 231.894C54.8178 232.537 53.9756 233.189 53.1391 233.831C53.0338 233.921 52.6714 234.097 52.6315 234.226C52.6089 234.264 50.6247 235.577 53.2472 234.369C53.5833 234.215 54.1794 232.852 54.3812 232.54C57.6063 227.661 61.728 223.39 65.9478 219.356C70.1677 215.322 74.0881 211.657 78.4626 208.253C81.3143 206.035 84.6469 206.521 88.0482 206.705C91.2397 206.877 94.4347 207.127 97.618 207.459C104.417 208.169 111.181 209.254 117.866 210.7C120.992 211.381 124.106 212.144 127.195 212.969C128.073 213.207 128.463 211.846 127.576 211.603L127.595 211.614Z" fill="#1D1D1B"/>
<path d="M127.243 193.739C127.294 193.759 127.345 193.779 127.396 193.799C128.798 194.291 129.635 192.19 128.242 191.643C119.894 188.366 112.335 183.286 104.793 178.495C99.982 175.444 95.255 172.509 91.0608 168.844C91.1928 168.239 91.022 167.538 90.3632 166.974C85.0983 162.42 81.173 155.14 77.9027 149.092C76.4492 146.397 75.0847 143.655 73.706 140.92C72.9602 139.442 72.2568 137.945 71.5211 136.471C71.2374 135.878 70.9576 135.276 70.6637 134.679C70.2763 133.424 69.5158 132.492 68.4284 131.854C68.4608 131.831 68.5054 131.837 68.5417 131.804L68.6143 131.739C68.8725 131.5 68.9914 131.077 68.7339 130.777L68.6522 130.686C68.2904 130.262 67.5747 130.322 67.3592 130.871C66.657 132.719 68.3154 135.729 68.9724 137.583C70.5487 142.027 72.3657 146.367 74.4619 150.593C74.7558 151.189 75.0621 151.814 75.3745 152.453C75.2878 152.525 75.2112 152.6 75.1509 152.694C74.793 153.187 74.5684 153.909 74.1945 154.443C67.085 149.445 60.4088 143.703 54.687 137.173C53.747 136.1 52.0737 137.403 52.9411 138.542C54.3323 140.379 55.7656 142.138 57.2392 143.855C57.2686 144.019 57.3224 144.181 57.4593 144.341C59.9546 147.221 61.3212 150.915 63.6997 153.914C65.5688 156.267 67.6195 158.457 69.6157 160.696C69.3522 161.038 69.2151 161.477 69.318 162.022C69.1434 161.062 59.4813 158.172 58.0719 157.607C54.4313 156.119 50.6684 154.853 47.0979 153.217C45.804 152.627 45.0339 154.648 46.2916 155.271C47.2826 155.766 48.2861 156.289 49.2917 156.836C49.2728 157.063 49.3433 157.302 49.5776 157.453C54.8411 160.845 59.9034 164.511 65.2112 167.85C67.1806 169.081 69.0205 170.343 70.9877 171.221C72.2694 173.695 75.7941 175.15 78.9056 176.371C84.7476 180.143 90.9526 183.259 97.1074 186.474C97.3497 186.604 97.5868 186.568 97.7868 186.447C99.2773 187.314 100.768 188.181 102.262 189.037C107.554 192.089 112.886 195.367 118.462 197.873C123.058 199.947 123.976 197.01 127.249 193.753L127.243 193.739Z" fill="#FFD130"/>
<path opacity="0.5" d="M113.468 196.276C114.012 196.443 114.534 196.578 115.048 196.674C116.286 197.019 117.488 197.455 118.686 197.961C119.552 198.324 120.415 198.757 121.366 198.426C122.427 198.056 123.324 196.848 124.133 196.132C125.363 195.031 126.665 194.017 127.967 193.002C128.958 192.241 128.542 190.94 127.583 190.422C126.315 189.737 125.219 189.06 124.082 189.506C124.159 188.832 123.188 188.674 122.912 189.258C121.373 192.608 117.518 194.897 113.825 194.797C112.896 194.772 112.729 195.916 113.476 196.256L113.464 196.286L113.468 196.276Z" fill="#B28736"/>
<path d="M130.444 191.772C120.68 185.287 109.91 180.496 100.184 173.943C95.7671 170.965 91.3599 167.604 88.0164 163.416C84.6729 159.229 82.4996 154.691 80.2972 150.047C77.992 145.188 75.8545 140.23 73.248 135.51C72.0822 133.397 70.8276 131.332 69.379 129.402C68.8 128.635 68.2177 127.667 67.1487 127.67C66.2217 127.67 65.403 128.44 65.3096 129.366C65.2085 130.37 65.837 131.579 66.123 132.525C66.5497 133.889 66.9904 135.248 67.4352 136.596C68.3063 139.25 69.2198 141.885 70.1616 144.508C71.0435 146.955 71.9577 149.379 72.9489 151.786C73.0623 152.066 73.5843 153.127 73.5092 153.11C73.3425 153.056 73.1132 152.743 72.9948 152.626L60.6298 141.047L55.4196 136.174C54.9115 135.705 54.5767 135.362 53.8214 135.253C52.2316 135.028 51.0551 136.62 51.4157 138.123C51.6116 138.939 52.2879 139.697 52.7326 140.388C53.3882 141.408 54.0581 142.422 54.728 143.436C56.0941 145.487 57.4886 147.524 58.9154 149.54C60.4549 151.717 62.0164 153.867 63.6426 155.972C64.3484 156.895 65.0825 157.805 65.8206 158.705C66.162 159.121 66.5034 159.536 66.859 159.946C67.045 160.159 67.231 160.373 67.4169 160.587L67.6355 160.837C67.9287 161.316 68.1832 161.146 68.4132 160.321C68.3126 160.129 67.0725 160.029 66.8165 159.964C66.1581 159.788 65.5077 159.591 64.8653 159.374C63.6415 158.964 62.4417 158.493 61.2498 158.002C58.6261 156.913 56.0461 155.713 53.4264 154.614C51.0161 153.609 48.4839 152.556 45.8987 152.116C44.0061 151.796 42.5422 153.791 43.9722 155.35C44.9405 156.411 46.4589 157.206 47.6225 158.039C49.0632 159.062 50.4938 160.081 51.9487 161.098C54.6914 163.02 57.4744 164.899 60.2654 166.757C65.7007 170.369 71.2184 173.862 76.8083 177.23C88.0045 183.984 99.4917 190.265 111.217 196.03C114.147 197.474 117.094 198.877 120.052 200.249C121.45 200.904 122.314 198.673 120.926 198.022C97.6565 187.198 75.3377 174.399 54.2266 159.81C52.9878 158.96 51.7631 158.103 50.5323 157.233C49.2281 156.31 47.8647 155 46.4342 154.31C46.5359 154.35 44.6278 153.202 45.2639 154.332C45.2926 154.378 45.9241 154.473 46.0337 154.493C46.6696 154.637 47.2895 154.822 47.9054 155.016C49.2123 155.424 50.4913 155.903 51.7584 156.412C56.6028 158.36 61.2865 160.868 66.3762 162.162C67.2296 162.38 68.4966 162.889 69.3644 162.502C70.1573 162.156 70.4349 161.15 70.1399 160.377C69.8099 159.543 68.8801 158.803 68.2997 158.129C67.57 157.268 66.8584 156.39 66.161 155.506C63.0176 151.526 60.0903 147.384 57.2598 143.175C56.0495 141.385 54.8613 139.569 53.7014 137.741C53.3306 137.161 53.6168 137.508 53.9658 137.845L58.8189 142.402L71.2065 154.013C71.533 154.317 71.8458 154.686 72.2024 154.944C73.5556 155.921 75.5663 155.044 75.7707 153.387C75.8841 152.411 75.2364 151.37 74.884 150.504C74.4244 149.373 73.9829 148.226 73.5415 147.079C72.5902 144.569 71.6916 142.045 70.8213 139.509C69.951 136.973 69.1399 134.495 68.3447 131.977C68.1874 131.481 68.0572 130.468 67.7503 130.054C67.7114 130.003 67.3569 128.515 67.0178 130.036C67.0018 130.077 67.4943 130.646 67.478 130.628C68.2186 131.611 68.9128 132.623 69.5706 133.667C72.3045 138.003 74.4202 142.718 76.5779 147.355C78.7356 151.993 80.8791 156.636 83.6028 160.968C86.3265 165.3 89.5627 168.565 93.4121 171.614C102.204 178.574 112.507 183.299 122.192 188.85C124.617 190.236 126.997 191.675 129.332 193.202C130.322 193.848 131.426 192.381 130.44 191.724L130.444 191.772Z" fill="#1D1D1B"/>
<path d="M289.412 223.997C283.054 227.491 273.559 232.657 267.172 236.098L266.672 236.598C255.084 243.025 245.172 247.098 232.413 250.675C227.525 252.412 222.583 253.902 217.517 255.024C208.446 257.031 199.148 258.666 189.88 257.143C189.282 257.046 188.892 256.742 188.683 256.358C183.279 257.309 178.163 257.538 172.565 256.317C165.37 254.757 159.829 250.01 152.934 247.987C151.933 247.694 151.559 246.851 151.644 246.058C136.212 235.605 119.211 221.43 122.118 200.882C123.485 191.212 129.94 182.73 136.009 175.392C141.754 168.455 148.711 164.425 157.2 162.829C157.319 162.622 157.514 162.434 157.821 162.332C164.591 160.164 171.202 159.248 178.292 160.125C198.932 165.06 241.459 175.446 246.442 177.514C246.698 177.126 247.133 176.875 247.763 176.94C264.169 178.745 278.902 172.913 293.627 166.543C294.051 166.097 294.598 165.339 295.209 165.175C295.509 165.04 295.896 165.208 296.018 165.528C296.752 165.357 297.276 166.265 296.64 166.758C297.413 169.516 297.904 171.831 299.663 174.221C301.683 176.978 304.124 179.239 306.773 181.38C307.919 182.295 306.804 184.1 305.606 184.034C303.925 186.935 305.625 192.436 306.482 195.297C307.715 199.441 309.59 203.366 310.88 207.503C311.275 208.776 310.145 209.593 309.102 209.513C302.492 214.427 296.727 219.975 289.412 223.997Z" fill="#FF8C00"/>
<path opacity="0.5" d="M158.311 249.588C142.494 240.305 130.767 221.609 132.194 203.063C133.594 184.734 146.691 169.011 163.375 162.078C164.445 161.637 163.684 159.73 162.59 160.173C160.268 161.11 158.017 162.17 155.855 163.342C155.529 162.887 154.924 162.581 154.26 162.851C146.647 165.985 140.329 170.641 135.502 176.481C125.759 184.402 123.06 196.265 123.118 208.492C122.529 208.63 122.003 209.161 122.152 209.92C123.04 214.692 123.632 219.913 127.095 223.136C127.02 223.356 127.001 223.606 127.051 223.868C127.52 225.905 129.597 227.645 130.921 229.151C132.702 231.187 134.507 233.198 136.696 234.785C136.702 234.794 136.717 234.798 136.737 234.811C137.534 235.689 138.387 236.533 139.31 237.324C139.512 237.498 139.718 237.593 139.937 237.644C144.658 243.419 150.543 248.259 157.124 251.661C158.487 252.363 159.645 250.37 158.311 249.588V249.588Z" fill="#AA5B18"/>
<path d="M305.703 199.589C304.882 200.376 304.514 201.453 304.268 202.541C303.99 203.744 303.736 204.988 303.686 206.23C303.589 208.534 304.531 210.799 306.752 211.711C307.2 211.899 307.747 211.502 307.863 211.07C307.979 210.637 307.685 210.129 307.222 209.959C305.629 209.363 305.154 207.336 305.147 205.841C305.137 204.866 305.252 203.89 305.374 202.928C305.496 201.965 305.716 201.018 306.417 200.301C306.87 199.834 306.174 199.139 305.706 199.579L305.703 199.589Z" fill="#1D1D1B"/>
<path d="M315.514 149.163C309.615 145.395 302.963 142.992 296.015 142.107C294.89 141.965 294.89 143.745 296.015 143.876C302.657 144.696 309.058 146.957 314.738 150.474C315.569 150.988 316.322 149.688 315.503 149.163L315.514 149.163Z" fill="#1D1D1B"/>
<path d="M324.514 149.163C330.412 145.395 337.065 142.992 344.012 142.107C345.138 141.965 345.138 143.745 344.012 143.876C337.371 144.696 330.97 146.957 325.289 150.474C324.459 150.988 323.705 149.688 324.525 149.163L324.514 149.163Z" fill="#1D1D1B"/>
<path d="M310.789 207.847C295.994 218.357 280.652 228.16 264.424 236.318C248.196 244.477 231.759 250.46 214.271 253.619C204.491 255.381 194.557 256.134 184.628 255.736C182.715 255.655 182.708 258.636 184.616 258.708C202.472 259.334 220.295 256.209 237.203 250.584C254.112 244.959 270.631 236.43 286.072 226.885C294.868 221.454 303.454 215.702 311.852 209.667C312.951 208.882 311.906 207.051 310.793 207.832L310.789 207.847Z" fill="#1D1D1B"/>
<path d="M217.912 170.047C204.31 165.69 190.833 160 176.46 158.787C162.844 157.642 149.636 161.572 139.037 170.239C128.439 178.906 121.299 191.643 120.67 205.301C120.336 212.696 122.188 219.99 126.512 226.058C130.835 232.127 136.548 237.456 142.384 242.058C154.298 251.464 169.114 258.841 184.608 258.586C186.368 258.554 186.387 255.856 184.62 255.855C171.402 255.855 158.835 250.409 148.107 242.992C142.501 239.115 137.365 234.588 132.701 229.612C129.883 226.61 127.29 223.364 125.562 219.606C124.137 216.506 123.355 213.098 123.098 209.702C122.108 196.386 128.385 183.314 137.935 174.294C147.485 165.274 159.963 160.517 173.031 160.868C188.409 161.286 202.88 167.562 217.335 172.171C218.692 172.598 219.254 170.47 217.907 170.037L217.912 170.047Z" fill="#1D1D1B"/>
<path d="M295.745 163.657C280.525 172.229 262.726 176.464 245.279 175.5C243.875 175.428 243.87 177.625 245.269 177.688C263.14 178.47 281.03 173.868 296.504 164.972C297.356 164.48 296.602 163.175 295.745 163.657V163.657Z" fill="#1D1D1B"/>
<path d="M277.834 218.56C274.21 220.564 270.427 222.269 266.51 223.634C265.82 223.881 266.102 224.98 266.797 224.743C270.804 223.337 274.684 221.602 278.397 219.534C279.026 219.183 278.464 218.209 277.834 218.56V218.56Z" fill="#1D1D1B"/>
<path d="M171.761 181.934C167.096 182.483 162.509 183.605 158.128 185.302C157.458 185.563 157.833 186.495 158.501 186.21C162.778 184.421 167.259 183.247 171.854 182.663C172.267 182.613 172.18 181.894 171.767 181.944L171.761 181.934Z" fill="#1D1D1B"/>
<path d="M178.551 176.589C175.643 176.162 172.685 176.217 169.802 176.772C169.187 176.887 169.435 177.841 170.045 177.716C172.805 177.144 175.652 177.052 178.449 177.417C178.913 177.478 179.026 176.668 178.557 176.598L178.551 176.589Z" fill="#1D1D1B"/>
<path d="M353.784 191.211C353.833 191.111 353.872 191.009 353.9 190.903C355.78 183.762 354.831 177.175 350.721 172.002C349.822 170.166 348.416 168.659 346.466 167.707L346.445 167.701C342.107 163.926 336.774 164.16 331.333 164.545C330.861 164.577 330.596 164.891 330.514 165.242C327.564 165.91 324.738 167.087 322.319 168.644C319.262 162.114 312.321 158.264 305.37 156.39C297.858 154.377 290.904 156.822 285.818 162.211C285.63 162.24 285.451 162.316 285.289 162.499C278.865 170.096 276.938 181.002 281.938 189.987C286.678 198.506 297.045 203.036 306.046 199.534C310.537 198.475 315.62 196.852 318.16 193.156C324.664 198.088 332.817 199.82 339.312 204.829C339.613 205.056 339.911 205.17 340.207 205.204C340.251 205.25 340.285 205.293 340.329 205.339C341.051 206.063 342.086 205.956 342.825 205.351C347.309 201.701 352.259 198.086 353.875 192.265C353.985 191.853 353.943 191.503 353.802 191.227L353.784 191.211Z" fill="white"/>
<path d="M293.337 200.076C305.205 203.607 318.899 197.109 323.45 185.527C326.971 176.564 323.103 166.774 316.058 160.736C309.04 154.728 298.991 152.261 290.522 156.687C282.513 160.874 277.455 169.369 277.198 178.347C277.06 183.037 278.276 187.83 280.875 191.761C282.245 193.824 283.948 195.615 285.926 197.095C288.024 198.675 290.803 199.533 293.337 200.076C293.829 200.185 293.972 199.522 293.533 199.348C285.896 196.194 280.044 189.503 279.268 181.13C278.53 173.208 281.913 165.18 288.248 160.319C291.695 157.668 295.826 156.095 300.195 156.124C304.564 156.152 308.57 157.576 312.131 159.819C319.192 164.278 324.499 172.497 323.35 181.089C321.54 194.639 306.145 203.01 293.53 199.359C293.055 199.231 292.873 199.952 293.335 200.087L293.337 200.076Z" fill="#1D1D1B"/>
<path d="M380.547 235.171C380.431 234.8 380.156 234.478 379.639 234.339C379.164 234.212 378.732 234.051 378.319 233.861C377.307 232.787 376.075 231.937 374.934 230.964C373.058 229.353 371.347 227.594 369.776 225.691C369.283 225.084 368.626 225.089 368.101 225.401C361.534 219.649 354.075 214.269 346.776 209.814C337.436 204.111 328.718 198.45 318.677 193.973C318.332 193.824 318.003 193.826 317.726 193.933C317.53 193.948 317.33 194.019 317.17 194.191C315.402 196.149 313.189 197.569 310.697 198.428C309.338 198.901 307.252 198.964 306.781 200.636C306.322 202.265 307.533 204.75 308.53 205.798C309.96 207.3 312.162 207.608 313.856 208.797C316.72 212.165 321.983 213.666 325.855 215.382C332.354 218.265 338.961 220.873 345.471 223.714C355.675 228.178 365.089 233.856 375.914 236.169C376.878 236.54 377.88 236.808 378.908 236.982C379.265 237.044 379.557 236.964 379.817 236.841C379.914 236.856 380.012 236.871 380.11 236.886C381.051 237.002 381.301 235.52 380.526 235.165L380.547 235.171Z" fill="#FFD130"/>
<path opacity="0.5" d="M345.751 222.963C339.266 219.902 332.949 216.547 326.642 213.116C325.962 212.741 325.266 212.385 324.56 212.026C324.211 211.808 323.859 211.601 323.511 211.383C321.143 209.878 318.727 208.428 316.346 206.93C314.448 205.743 308.67 202.657 308.324 200.065C308.227 199.372 307.426 199.112 307.006 199.712C306.33 200.673 306.401 201.755 306.994 202.92C306.918 203.205 306.944 203.529 307.204 203.825C313.471 210.91 322.889 215.265 332.217 218.986C335.625 220.533 338.301 221.645 339.272 222.075C339.545 222.194 339.806 222.15 340.017 222.037C341.746 222.716 343.455 223.388 345.091 224.076C345.833 224.388 346.5 223.334 345.738 222.971L345.751 222.963Z" fill="#B28736"/>
<path d="M317.772 193.889C335.607 203.044 352.48 213.977 368.312 226.26C372.853 229.784 377.304 233.431 381.658 237.187L381.885 235.495C379.738 236.628 377.288 235.937 375.134 235.156C372.537 234.212 370.004 233.07 367.449 232.012C361.85 229.697 356.256 227.361 350.683 224.986C339.678 220.307 328.753 215.457 318.004 210.202C315.144 208.802 312.082 207.484 309.683 205.337C308.973 204.695 308.145 203.987 307.639 203.173C307.134 202.359 307.172 201.374 307.27 200.416C307.408 198.972 305.15 199 305.015 200.434C304.84 202.309 305.188 203.839 306.433 205.27C308.198 207.292 310.409 208.834 312.761 210.098C318.429 213.132 324.341 215.756 330.187 218.42C341.97 223.782 353.916 228.793 365.889 233.742C369.015 235.032 372.114 236.507 375.327 237.56C377.854 238.385 380.536 238.673 382.953 237.376C383.523 237.065 383.705 236.13 383.18 235.684C367.791 222.592 351.231 210.872 333.67 200.863C328.667 198.007 323.575 195.319 318.411 192.771C317.662 192.4 316.989 193.521 317.745 193.904L317.772 193.889Z" fill="#1D1D1B"/>
<path d="M322.761 169.611C329.007 163.9 339.189 162.534 346.297 167.492C350.042 170.102 352.548 174.256 353.683 178.632C355.076 183.981 353.896 188.935 351.857 193.93C350.815 196.467 349.835 198.647 347.829 200.563C345.822 202.48 343.672 203.837 341.223 204.832C339.939 205.359 340.439 207.461 341.815 206.97C346.189 205.416 350.746 201.831 352.571 197.469C354.898 191.906 356.988 186.258 355.83 180.157C354.905 175.295 352.448 170.577 348.62 167.391C345.105 164.47 340.627 163.078 336.073 163.147C330.863 163.221 325.752 165.199 321.927 168.754C321.357 169.28 322.206 170.118 322.764 169.6L322.761 169.611Z" fill="#1D1D1B"/>
<path d="M307.086 178.93C307.034 179.504 307.155 180.068 307.4 180.586C307.515 180.832 307.663 181.041 307.831 181.256C308.119 181.616 308.521 181.848 308.976 181.879C309.675 181.931 310.257 181.363 310.537 180.782C310.817 180.201 311.023 179.6 311.095 178.952C311.167 178.304 310.955 177.66 310.534 177.162C310.225 176.797 309.758 176.513 309.294 176.389C308.713 176.233 308.015 176.306 307.579 176.755C307.333 176.995 307.196 177.297 307.119 177.627C307.053 177.915 307.008 178.208 306.995 178.51C306.984 179.016 307.163 179.573 307.557 179.916C307.816 180.132 308.026 180.234 308.334 180.35C308.466 180.408 308.589 180.452 308.724 180.5L308.45 180.381L308.471 180.387C308.755 180.508 309.006 180.587 309.312 180.499C309.568 180.432 309.847 180.235 309.967 179.996C310.104 179.739 310.172 179.44 310.079 179.155C309.999 178.907 309.829 178.613 309.576 178.5C309.342 178.404 309.105 178.317 308.871 178.221L309.144 178.339C309.052 178.303 308.963 178.257 308.887 178.202L309.112 178.376C309.112 178.376 309.039 178.311 309.005 178.268L309.171 178.493C309.171 178.493 309.114 178.41 309.094 178.36L309.206 178.616C309.178 178.552 309.163 178.48 309.159 178.411L309.197 178.693C309.178 178.552 309.191 178.419 309.204 178.287L309.169 178.583C309.199 178.388 309.224 178.168 309.296 177.984L309.177 178.258C309.177 178.258 309.218 178.189 309.24 178.15L309.067 178.375C309.067 178.375 309.113 178.331 309.129 178.313L308.904 178.478C308.904 178.478 308.973 178.429 309.024 178.409L308.768 178.521C308.768 178.521 308.856 178.488 308.911 178.492L308.63 178.529C308.712 178.517 308.789 178.527 308.865 178.536L308.569 178.502C308.709 178.528 308.836 178.562 308.97 178.609L308.707 178.494C308.828 178.549 308.946 178.614 309.059 178.701L308.834 178.527C308.917 178.595 308.998 178.673 309.066 178.759L308.897 178.544C308.957 178.617 308.993 178.694 309.026 178.782L308.924 178.529C308.97 178.654 309.002 178.787 309.023 178.918L308.983 178.647C309.001 178.832 308.998 179.012 308.984 179.19L309.023 178.918C308.971 179.322 308.835 179.704 308.691 180.072L308.791 179.828C308.727 179.98 308.643 180.127 308.54 180.258L308.694 180.062C308.659 180.109 308.613 180.153 308.57 180.187L308.769 180.037C308.769 180.037 308.699 180.086 308.648 180.106L308.878 180.009C308.878 180.009 308.817 180.027 308.779 180.04L309.026 180.004C309.026 180.004 308.923 180.01 308.867 180.007L309.118 180.04C309.118 180.04 309.055 180.023 309.023 180.014L309.258 180.111C309.176 180.078 309.111 180.027 309.045 179.975L309.234 180.116C309.114 180.016 309.017 179.911 308.913 179.793C309.087 179.986 308.996 179.905 308.958 179.839C308.932 179.809 308.919 179.772 308.906 179.734C308.891 179.708 308.878 179.67 308.863 179.643C308.827 179.566 308.949 179.87 308.894 179.697C308.868 179.622 308.851 179.561 308.826 179.487C308.813 179.449 308.814 179.404 308.801 179.367C308.769 179.234 308.822 179.542 308.816 179.439C308.806 179.266 308.792 179.104 308.806 178.927C308.835 178.482 308.383 178.056 307.949 178.075C307.455 178.102 307.144 178.459 307.097 178.933L307.086 178.93Z" fill="#1D1D1B"/>
<path d="M349.167 185.512C349.243 186.494 349.526 187.588 350.578 187.926C351.63 188.265 352.753 187.322 352.937 186.297C353.051 185.705 352.97 185.118 352.832 184.538C352.693 183.958 352.515 183.356 351.975 183.008C351.338 182.6 350.571 182.802 350.034 183.246C349.626 183.588 349.36 184.117 349.277 184.637C349.175 185.311 349.275 185.994 349.679 186.554C349.951 186.933 350.274 187.245 350.722 187.388C351.086 187.508 351.516 187.465 351.871 187.323C352.127 187.21 352.328 187.095 352.483 186.853C352.657 186.583 352.649 186.231 352.532 185.951C352.42 185.694 352.253 185.514 351.988 185.409C351.672 185.279 351.401 185.32 351.091 185.463C351.347 185.35 351.134 185.429 351.07 185.457C350.988 185.469 351.033 185.47 351.2 185.435C351.169 185.427 351.131 185.439 351.11 185.434L351.382 185.473C351.319 185.456 351.266 185.442 351.203 185.425L351.458 185.527C351.458 185.527 351.398 185.5 351.38 185.483C351.293 185.426 351.322 185.445 351.463 185.551C351.432 185.498 351.346 185.44 351.304 185.384L351.229 185.285C351.32 185.411 351.338 185.427 351.289 185.357C351.258 185.304 351.233 185.229 351.189 185.183C351.25 185.335 351.262 185.373 351.232 185.274C351.219 185.237 351.215 185.213 351.202 185.176C351.189 185.138 351.184 185.114 351.182 185.08C351.163 184.984 351.165 185.019 351.199 185.186C351.212 185.054 351.193 184.913 351.206 184.781L351.17 185.043C351.19 184.924 351.221 184.808 351.26 184.705C351.303 184.547 351.164 184.894 351.246 184.758C351.284 184.7 351.322 184.642 351.347 184.593C351.218 184.818 351.279 184.676 351.341 184.614C351.489 184.484 351.194 184.699 351.338 184.624C351.362 184.619 351.379 184.601 351.405 184.586C351.499 184.532 351.216 184.659 351.314 184.629L351.376 184.612C351.376 184.612 351.142 184.639 351.269 184.628C351.01 184.627 351.087 184.591 351.158 184.621C351.169 184.624 350.948 184.52 351.034 184.577C351.134 184.626 350.891 184.437 350.959 184.522C350.969 184.525 350.992 184.565 351.013 184.571C350.992 184.565 350.895 184.381 350.961 184.512C350.977 184.539 350.985 184.552 351 184.579C351.09 184.75 350.945 184.406 351.005 184.603C351.093 184.864 351.182 185.125 351.246 185.391C351.261 185.463 351.275 185.535 351.293 185.596C351.33 185.753 351.287 185.447 351.29 185.606C351.294 185.675 351.298 185.744 351.302 185.813C351.294 185.845 351.304 185.893 351.303 185.938C351.295 185.97 351.285 186.091 351.305 185.972C351.339 185.846 351.285 186.046 351.277 186.078C351.266 186.12 351.196 186.294 351.257 186.152C351.318 186.01 351.235 186.191 351.216 186.22C351.208 186.252 351.091 186.39 351.172 186.299C351.27 186.189 351.14 186.335 351.11 186.361C351.081 186.387 350.949 186.499 351.048 186.424C351.148 186.349 351.011 186.436 350.971 186.46C350.944 186.475 350.87 186.5 350.971 186.46C351.099 186.403 350.96 186.457 350.937 186.462C350.822 186.51 351.082 186.467 350.958 186.467L350.868 186.466C350.87 186.455 351.026 186.508 350.955 186.478C350.934 186.472 350.902 186.464 350.891 186.461C350.773 186.44 350.934 186.472 350.952 186.488C350.952 186.488 350.902 186.464 350.891 186.461C350.781 186.409 350.897 186.44 350.918 186.491C350.905 186.453 350.829 186.399 350.792 186.367C350.771 186.361 350.722 186.291 350.792 186.367C350.868 186.466 350.787 186.343 350.769 186.326C350.738 186.273 350.707 186.219 350.687 186.169C350.664 186.129 350.683 186.1 350.687 186.169C350.699 186.251 350.687 186.169 350.682 186.145C350.637 186.019 350.601 185.897 350.58 185.767C350.562 185.705 350.558 185.637 350.541 185.575L350.526 185.504C350.502 185.339 350.542 185.655 350.526 185.504C350.476 185.14 350.231 184.791 349.82 184.805C349.464 184.823 349.091 185.119 349.121 185.512L349.167 185.512Z" fill="#1D1D1B"/><path d="M223.381 207.844C216.661 205.595 202.789 200.844 201.065 199.83C198.909 198.563 189.634 193.227 183.933 184.772C178.231 176.317 173.067 166.553 172.02 158.862C170.973 151.171 169.196 144.326 173.073 136.745C183.141 139.512 181.181 147.306 179.246 151.523C180.543 158.048 195.522 176.149 223.277 182.96C228.621 184.271 237.317 184.137 237.317 184.137L239.748 191.249L232.298 201.95L223.381 207.844Z" fill="#FF8C00"/>
<path opacity="0.5" d="M225.005 207.232C222.944 194.708 207.991 192.933 198.447 188.047C183.847 180.578 177.188 167.795 171.611 152.979C171.277 152.104 170.529 152.402 170.788 153.323C171.599 156.116 171.846 158.971 172.763 161.663C172.404 161.74 172.109 162.056 172.276 162.509C176.002 172.741 180.968 182.145 189.002 189.703C189.768 190.422 190.566 191.107 191.385 191.769C199.251 199.901 207.874 201.862 219.842 207.156C220.3 207.47 221.234 207.655 221.611 207.501C222.628 208.539 225.29 208.961 225.005 207.243L225.005 207.232Z" fill="#AA5B18"/>
<path d="M172.802 136.197C169.595 141.862 169.492 148.237 170.512 154.511C171.043 157.795 171.618 161.066 172.54 164.271C173.462 167.477 174.862 170.591 176.303 173.638C179.115 179.57 182.412 185.268 187.054 189.962C191.695 194.655 196.736 198.134 202.345 200.972C209.144 204.416 216.63 206.45 223.862 208.766C224.602 209.005 225.067 207.809 224.357 207.482C218.358 204.788 211.887 203.388 205.858 200.761C200.294 198.327 195.029 195.008 190.454 191.012C185.878 187.016 182.154 181.965 179.202 176.464C176.041 170.564 173.609 164.543 172.327 157.961C170.928 150.749 169.972 143.402 173.703 136.682C174.023 136.103 173.123 135.618 172.802 136.197V136.197Z" fill="#1D1D1B"/>
<path d="M173.831 137.224C177.496 138.364 180.127 141.723 180.196 145.578C180.234 147.457 179.658 149.29 178.593 150.843C177.528 152.396 176.357 153.712 176.855 155.62C177.153 156.758 178.896 156.21 178.597 155.083C178.337 154.108 179.148 153.153 179.682 152.415C180.267 151.587 180.765 150.752 181.117 149.8C181.822 147.909 181.975 145.85 181.551 143.874C180.744 140.151 177.71 137.199 174.062 136.266C173.434 136.1 173.224 137.036 173.831 137.224V137.224Z" fill="#1D1D1B"/>
<path d="M179.145 151.033C179.995 155.749 183.08 159.607 186.229 163.07C189.377 166.532 192.717 169.475 196.409 172.144C203.815 177.492 212.277 181.353 221.164 183.442C226.174 184.615 231.329 185.205 236.477 185.204C237.865 185.204 237.796 183.042 236.408 183.053C218.852 183.275 201.468 176.212 188.966 163.9C185.242 160.227 181.303 155.981 180.26 150.691C180.116 149.953 179.024 150.316 179.156 151.033L179.145 151.033Z" fill="#1D1D1B"/>
<path d="M211.802 169.099C220.302 172.099 240.802 177.099 247.302 176.599" stroke="#1D1D1B" stroke-width="2.2"/>
</svg>
