<svg width="356" height="342" viewBox="0 0 356 342" fill="none" xmlns="http://www.w3.org/2000/svg">
<path d="M253.859 172.238C258.627 168.066 268.431 159.365 269.503 157.935C270.844 156.147 276.655 148.548 278.443 139.609C280.231 130.669 281.125 120.836 279.337 114.131C277.549 107.426 276.655 101.169 270.844 96.2521C263.494 102.005 267.797 107.757 270.847 110.569C272.026 116.398 265.911 136.492 245.367 151.677C241.411 154.6 234.192 157.488 234.192 157.488L234.639 164.192L244.473 170.45L253.859 172.238Z" fill="#FF8C00"/>
<path opacity="0.5" d="M252.178 172.292C249.561 161.251 261.283 154.633 267.47 147.312C276.937 136.119 278.023 123.281 277.515 109.137C277.489 108.301 278.723 108.165 278.826 109.014C279.121 111.598 279.387 114.161 279.559 116.697C279.881 116.637 280.234 116.796 280.252 117.228C280.706 126.95 279.852 136.42 275.831 145.423C275.447 146.28 275.025 147.12 274.578 147.949C270.893 157.367 261.686 163.236 256.218 171.704C255.948 172.121 255.588 172.3 255.223 172.303C254.743 173.51 252.54 173.816 252.182 172.301L252.178 172.292Z" fill="#AA5B18"/>
<path d="M270.747 95.7062C275.346 99.2734 277.628 104.496 278.949 110.022C279.643 112.914 280.297 115.81 280.642 118.772C280.987 121.734 280.905 124.785 280.767 127.795C280.492 133.657 279.737 139.493 277.527 144.965C275.316 150.436 272.358 155.043 268.71 159.317C264.289 164.502 258.816 168.76 253.649 173.163C253.121 173.615 252.326 172.79 252.799 172.275C256.818 167.985 261.673 164.6 265.74 160.354C269.49 156.428 272.688 151.876 275.085 147.003C277.481 142.129 278.812 136.68 279.35 131.125C279.923 125.169 279.854 119.365 278.642 113.494C277.31 107.063 275.565 100.673 270.171 96.4166C269.708 96.0499 270.283 95.3395 270.747 95.7062Z" fill="#1D1D1B"/>
<path d="M270.254 96.9079C267.624 99.1115 266.611 102.789 267.884 105.993C268.5 107.556 269.606 108.869 271.02 109.783C272.434 110.696 273.854 111.378 274.101 113.123C274.247 114.165 272.621 114.314 272.479 113.282C272.357 112.387 271.359 111.879 270.664 111.454C269.896 110.974 269.197 110.456 268.579 109.793C267.346 108.476 266.51 106.83 266.178 105.054C265.561 101.705 267.045 98.2242 269.732 96.1975C270.193 95.8442 270.689 96.5433 270.254 96.9079Z" fill="#1D1D1B"/>
<path d="M270.631 110.13C271.555 114.313 270.341 118.558 268.937 122.499C267.534 126.441 265.793 130.019 263.668 133.493C259.404 140.458 253.755 146.56 247.146 151.345C243.418 154.04 239.369 156.304 235.123 158.078C233.978 158.556 233.289 156.75 234.438 156.281C248.995 150.411 260.898 138.593 266.966 124.128C268.771 119.814 270.556 114.954 269.593 110.232C269.457 109.573 270.483 109.496 270.622 110.133L270.631 110.13Z" fill="#1D1D1B"/>
<path d="M67.9446 201.082C63.8882 206.354 60.9089 212.698 57.8763 218.506C57.5397 219.144 58.4242 219.589 58.9059 219.265C62.4687 216.918 65.7572 211.832 68.0385 208.261C69.4 206.135 70.5691 203.891 72.0564 201.857C74.0962 199.091 76.3878 197.48 79.2001 196.035C79.3994 196.522 79.8147 196.913 80.497 196.991C88.8167 197.884 97.2763 198.686 105.506 200.277C107.565 201.055 109.62 201.757 111.489 201.74C112.137 201.733 112.795 201.466 113.03 200.802C113.793 198.598 113.474 195.657 113.369 193.348C113.356 193.119 113.253 192.946 113.101 192.823C113.091 192.803 113.095 192.782 113.091 192.754C112.887 192.24 112.326 192.081 111.82 192.06C111.777 192.052 111.751 192.07 111.71 192.076C110.324 190.714 108.358 190.271 106.288 189.656C102.545 188.546 98.7273 187.684 94.9119 186.837C87.8796 185.267 80.916 183.736 73.7277 183.859C71.321 183.092 69.522 184.265 67.5376 185.689C63.9611 188.269 60.2936 190.709 56.648 193.202C56.1915 193.508 56.2153 194.036 56.4742 194.408C52.0755 197.231 48.0676 200.561 44.7029 204.68C44.1383 205.38 45.1641 206.391 45.8408 205.786C47.3242 204.465 48.9096 203.22 50.5659 202.027C53.0251 201.341 55.1701 199.731 57.2857 198.343C57.6801 198.088 57.806 197.72 57.7544 197.378C59.6787 196.249 61.6076 195.197 63.5211 194.181C63.7437 194.406 63.9488 194.654 64.1424 194.918C59.1367 200.193 55.1441 206.579 50.4231 212.028C49.6917 212.872 51.0463 214.21 51.8464 213.405C54.3281 210.928 57.0455 208.624 59.4188 206.031C60.437 204.913 61.3786 203.751 62.3182 202.575C63.4745 201.863 64.649 201.224 65.7677 200.448C66.0648 200.242 66.9099 199.458 67.3178 199.661C67.6806 199.844 67.7297 200.584 67.8479 200.95C67.862 200.997 67.8896 201.042 67.9095 201.081L67.9446 201.082Z" fill="#FFD130"/>
<path opacity="0.5" d="M110.548 201.156C110.93 201.74 111.885 201.778 112.349 201.198C113.26 200.061 113.133 198.39 113.293 197.004C113.43 195.831 114.021 194.059 113.348 192.932C112.704 191.863 110.627 191.472 109.473 191.045C109.344 190.974 109.218 190.93 109.103 190.906C106.765 189.995 104.324 189.275 102.035 188.266C101.347 187.965 100.866 188.946 101.423 189.392C104.267 191.672 110.864 196.087 109.218 200.393C108.887 201.253 110.049 201.783 110.556 201.161L110.548 201.156Z" fill="#B28736"/>
<path d="M113.173 191.771C101.84 187.528 90.057 184.47 78.0799 182.712C75.4302 182.324 72.6359 181.671 70.1108 182.891C67.9378 183.946 65.9727 185.591 64.0135 186.997C59.666 190.113 55.3937 193.357 51.4192 196.954C49.5096 198.688 47.6554 200.512 45.9819 202.469C45.21 203.367 42.1859 206.136 44.1108 207.228C45.2489 207.873 47.4064 205.885 48.2787 205.327C53.0504 202.245 57.834 199.196 62.6213 196.126C62.8506 195.979 63.1991 195.836 63.3849 195.633C63.4139 195.594 63.5678 195.55 63.5753 195.507C63.7087 194.865 62.8519 195.665 62.7782 195.732C62.0664 196.335 61.503 197.412 60.9152 198.144C60.0915 199.162 59.2442 200.163 58.3969 201.164C55.3812 204.728 52.1093 208.26 49.791 212.326C49.4329 212.96 48.8398 213.748 49.1838 214.499C49.5278 215.25 50.3863 215.386 51.0356 215.015C52.6434 214.102 54.0775 212.502 55.4504 211.282C58.8495 208.268 62.1796 205.166 65.5374 202.11C65.8884 201.798 66.2372 201.473 66.5882 201.162C66.7297 201.035 66.9727 200.887 67.0749 200.732L67.1739 200.647C67.514 200.449 67.4437 200.215 66.9609 199.932C66.7991 199.97 66.4033 201.001 66.3321 201.13C66.0704 201.617 65.8088 202.103 65.5472 202.59C64.3946 204.713 63.2107 206.812 62.0444 208.937C60.9648 210.895 59.8929 212.859 58.874 214.849C58.2704 216.03 56.6536 218.223 57.477 219.558C58.7872 221.665 60.2554 219.459 61.0787 218.392C62.6732 216.328 64.2677 214.264 65.8621 212.201L75.622 199.572C76.2404 198.766 76.9912 197.913 77.9748 197.582C79.2311 197.162 80.7466 197.624 82.0139 197.83C83.4885 198.068 84.9631 198.306 86.4356 198.531C92.365 199.457 98.3151 200.289 104.25 201.158C107.072 201.577 109.901 202.001 112.725 202.433C113.726 202.589 113.884 201.043 112.894 200.871C107.21 199.908 101.522 199.05 95.8232 198.173C92.9701 197.731 90.1189 197.303 87.2678 196.875C84.6161 196.473 81.8288 195.728 79.143 195.702C76.639 195.675 75.0889 197.432 73.6877 199.25L69.33 204.93C65.9867 209.284 62.6434 213.637 59.3001 217.99C59.2653 218.038 58.5559 218.934 58.5637 218.94C58.7093 219.071 59.5474 217.178 59.626 217.005C60.062 216.101 60.5194 215.201 60.9848 214.307C63.0788 210.282 65.3553 206.355 67.4886 202.359C67.9618 201.471 69.5684 198.749 67.2973 198.785C66.5591 198.799 65.985 199.528 65.4751 199.989C64.7016 200.693 63.9281 201.396 63.1545 202.1C59.8667 205.111 56.6066 208.167 53.2517 211.104C52.5672 211.704 51.8748 212.297 51.1745 212.885C51.0756 212.97 50.3236 213.447 50.3169 213.587L50.7249 213.791C50.7882 213.656 50.8594 213.526 50.9364 213.389C51.1301 213.192 51.2502 212.832 51.3968 212.6C52.5434 210.716 53.904 208.953 55.2844 207.228C58.2058 203.595 61.4984 200.199 64.1506 196.355C64.5637 195.762 64.8998 195.076 64.3634 194.438C63.9018 193.879 63.2443 193.964 62.6844 194.279C62.2722 194.509 61.8761 194.8 61.4681 195.057L54.936 199.243C52.4529 200.834 49.9777 202.43 47.4868 204.015C46.6902 204.519 45.8877 205.032 45.091 205.536C44.9901 205.608 44.6532 205.735 44.6073 205.847C44.5841 205.878 42.7115 206.888 45.1439 206.024C45.4555 205.914 46.0963 204.749 46.3012 204.487C49.5667 200.404 53.5812 196.934 57.6639 193.684C61.7467 190.434 65.5331 187.487 69.7025 184.81C72.4207 183.065 75.3483 183.768 78.3616 184.206C81.1891 184.617 84.0134 185.097 86.8206 185.651C92.8165 186.832 98.7506 188.344 104.586 190.171C107.313 191.03 110.024 191.961 112.708 192.945C113.47 193.228 113.927 192.048 113.157 191.76L113.173 191.771Z" fill="#1D1D1B"/>
<path d="M113.334 170.883C113.381 170.899 113.427 170.914 113.473 170.929C114.751 171.295 115.388 169.377 114.116 168.961C106.496 166.471 99.486 162.331 92.5056 158.448C88.0534 155.976 83.6821 153.602 79.7483 150.55C79.8346 150.002 79.6457 149.386 79.0284 148.917C74.0929 145.126 70.2109 138.834 66.9776 133.607C65.5403 131.278 64.1798 128.902 62.807 126.532C62.0645 125.252 61.3589 123.953 60.6257 122.676C60.3416 122.162 60.0606 121.638 59.7672 121.121C59.3562 120.021 58.6289 119.229 57.6253 118.716C57.653 118.694 57.6931 118.697 57.7238 118.666L57.7853 118.604C58.0032 118.377 58.0873 117.994 57.8419 117.739L57.7642 117.662C57.4193 117.303 56.7837 117.393 56.6199 117.894C56.0895 119.58 57.7261 122.18 58.4089 123.8C60.047 127.685 61.8944 131.463 63.985 135.125C64.2784 135.642 64.5842 136.184 64.8963 136.738C64.8226 136.806 64.7582 136.878 64.7093 136.965C64.4156 137.423 64.2527 138.079 63.9468 138.575C57.3419 134.485 51.085 129.708 45.6389 124.179C44.7441 123.27 43.3186 124.52 44.152 125.491C45.4891 127.058 46.8598 128.553 48.2643 130.009C48.2991 130.154 48.3555 130.295 48.486 130.431C50.8628 132.871 52.2746 136.096 54.5533 138.649C56.3439 140.652 58.2879 142.499 60.1859 144.394C59.9686 144.713 59.869 145.112 59.9892 145.593C59.7835 144.745 51.0104 142.669 49.7232 142.238C46.3967 141.1 42.9727 140.166 39.7011 138.891C38.5156 138.432 37.9336 140.276 39.0884 140.766C39.9986 141.156 40.9213 141.571 41.8472 142.007C41.8423 142.211 41.9176 142.42 42.1345 142.543C47.0083 145.296 51.7169 148.304 56.6275 151.008C58.4492 152.004 60.1568 153.034 61.9581 153.715C63.2307 155.857 66.452 156.971 69.2924 157.899C74.7023 160.962 80.4019 163.42 86.062 165.968C86.285 166.072 86.4947 166.027 86.6669 165.909C88.0422 166.605 89.4174 167.301 90.7956 167.988C95.6769 170.435 100.606 173.083 105.713 175.03C109.922 176.641 110.589 173.972 113.34 170.896L113.334 170.883Z" fill="#FFD130"/>
<path opacity="0.5" d="M101.173 173.864C101.668 173.985 102.141 174.078 102.604 174.137C103.727 174.38 104.822 174.708 105.917 175.096C106.709 175.376 107.502 175.717 108.334 175.372C109.261 174.987 109.999 173.862 110.683 173.181C111.724 172.134 112.833 171.161 113.942 170.188C114.787 169.457 114.348 168.317 113.465 167.906C112.298 167.36 111.285 166.813 110.293 167.27C110.327 166.664 109.452 166.574 109.236 167.109C108.038 170.18 104.716 172.423 101.415 172.526C100.585 172.552 100.495 173.581 101.179 173.846L101.17 173.874L101.173 173.864Z" fill="#B28736"/>
<path d="M116.089 168.962C107.037 163.682 97.1767 159.967 88.1557 154.625C84.0588 152.198 79.9508 149.427 76.749 145.864C73.5472 142.301 71.3715 138.364 69.1644 134.335C66.8543 130.118 64.6886 125.804 62.1169 121.728C60.9666 119.903 59.7394 118.126 58.3462 116.479C57.7895 115.824 57.2195 114.991 56.2656 115.049C55.4383 115.097 54.7478 115.827 54.7126 116.658C54.6747 117.56 55.2985 118.606 55.603 119.435C56.0547 120.63 56.5188 121.82 56.9859 123C57.9013 125.323 58.8537 127.627 59.8308 129.919C60.7451 132.056 61.6872 134.172 62.697 136.269C62.8127 136.512 63.3339 137.433 63.2659 137.421C63.1143 137.382 62.8935 137.114 62.7817 137.016L51.1441 127.327L46.2408 123.249C45.7629 122.856 45.4463 122.568 44.7665 122.51C43.3361 122.392 42.369 123.874 42.769 125.196C42.9863 125.914 43.6294 126.556 44.0621 127.149C44.7003 128.026 45.351 128.896 46.0015 129.766C47.3274 131.524 48.678 133.27 50.0562 134.995C51.5433 136.857 53.0488 138.695 54.6096 140.489C55.2875 141.276 55.99 142.05 56.6955 142.814C57.0219 143.168 57.3482 143.521 57.6868 143.868C57.8639 144.049 58.041 144.23 58.2181 144.411L58.4262 144.623C58.7128 145.035 58.9311 144.87 59.0934 144.122C58.9936 143.956 57.8817 143.931 57.6499 143.886C57.0531 143.763 56.4625 143.622 55.8779 143.462C54.7644 143.159 53.6691 142.802 52.5799 142.425C50.1817 141.59 47.8168 140.653 45.4216 139.809C43.2184 139.037 40.9037 138.229 38.5738 137.972C36.868 137.784 35.6654 139.641 37.0227 140.958C37.9421 141.854 39.3385 142.485 40.4203 143.167C41.7593 144.005 43.0891 144.84 44.4404 145.672C46.9881 147.245 49.5695 148.776 52.157 150.29C57.1956 153.231 62.3016 156.06 67.4655 158.775C77.8088 164.22 88.3872 169.228 99.1513 173.762C101.842 174.898 104.544 175.997 107.255 177.068C108.537 177.579 109.192 175.543 107.92 175.035C86.5898 166.585 66.0057 156.325 46.4062 144.404C45.2564 143.71 44.1189 143.009 42.9752 142.297C41.7633 141.541 40.4783 140.443 39.1658 139.901C39.2586 139.931 37.496 139.006 38.1225 139.981C38.1505 140.021 38.719 140.074 38.8179 140.085C39.3929 140.181 39.9557 140.313 40.5155 140.455C41.7031 140.751 42.8694 141.111 44.0266 141.5C48.4514 142.987 52.7617 144.981 57.3713 145.871C58.1442 146.021 59.3015 146.409 60.0557 146.019C60.7454 145.669 60.9408 144.756 60.6372 144.082C60.2994 143.355 59.4311 142.743 58.878 142.172C58.182 141.441 57.5013 140.694 56.8329 139.942C53.8205 136.553 50.9924 133.01 48.2474 129.4C47.0741 127.866 45.9193 126.308 44.789 124.736C44.4278 124.238 44.7013 124.533 45.0303 124.815L49.5985 128.63L61.2579 138.347C61.5652 138.601 61.8635 138.915 62.1951 139.126C63.4537 139.927 65.2024 139.04 65.2986 137.551C65.349 136.674 64.7168 135.779 64.3572 135.024C63.8882 134.039 63.4345 133.038 62.9808 132.037C62.0013 129.847 61.068 127.641 60.1593 125.423C59.2506 123.205 58.3978 121.036 57.5572 118.83C57.3909 118.396 57.222 117.498 56.9265 117.145C56.8892 117.102 56.4954 115.792 56.272 117.167C56.2598 117.205 56.729 117.687 56.7134 117.671C57.4256 118.51 58.0977 119.377 58.7392 120.275C61.4046 124.002 63.5381 128.099 65.705 132.126C67.872 136.152 70.0266 140.185 72.6828 143.909C75.3389 147.633 78.3969 150.378 81.9909 152.899C90.1991 158.653 99.6396 162.333 108.572 166.783C110.808 167.894 113.007 169.054 115.17 170.295C116.087 170.821 116.997 169.454 116.082 168.919L116.089 168.962Z" fill="#1D1D1B"/>
<path d="M256.756 199.86C251.072 202.983 242.584 207.602 236.874 210.677L236.427 211.124C226.068 216.87 217.207 220.511 205.801 223.708C201.432 225.261 197.014 226.593 192.485 227.596C184.377 229.391 176.065 230.852 167.78 229.49C167.245 229.404 166.896 229.132 166.71 228.789C161.878 229.639 157.305 229.843 152.3 228.752C145.869 227.358 140.915 223.114 134.752 221.305C133.857 221.044 133.523 220.29 133.598 219.581C119.803 210.237 104.605 197.565 107.204 179.196C108.426 170.552 114.196 162.969 119.621 156.409C124.757 150.208 130.977 146.606 138.565 145.179C138.672 144.993 138.845 144.825 139.12 144.735C145.172 142.796 151.082 141.978 157.42 142.761C175.872 147.173 213.888 156.458 218.343 158.306C218.572 157.96 218.961 157.735 219.524 157.793C234.19 159.407 247.36 154.193 260.524 148.499C260.903 148.1 261.391 147.423 261.938 147.276C262.207 147.155 262.553 147.305 262.662 147.592C263.317 147.439 263.786 148.25 263.218 148.691C263.908 151.157 264.347 153.226 265.919 155.363C267.725 157.827 269.907 159.849 272.275 161.763C273.3 162.581 272.303 164.193 271.232 164.135C269.73 166.728 271.25 171.646 272.016 174.203C273.118 177.908 274.794 181.417 275.948 185.115C276.3 186.253 275.29 186.983 274.358 186.912C268.449 191.305 263.295 196.265 256.756 199.86Z" fill="#FF8C00"/>
<path opacity="0.5" d="M139.558 222.737C125.418 214.437 114.935 197.724 116.21 181.145C117.462 164.76 129.171 150.705 144.085 144.507C145.041 144.113 144.361 142.408 143.383 142.804C141.307 143.642 139.295 144.589 137.363 145.637C137.071 145.23 136.53 144.956 135.936 145.198C129.131 147.999 123.483 152.162 119.168 157.382C110.458 164.463 108.045 175.069 108.097 185.998C107.571 186.122 107.101 186.596 107.233 187.275C108.027 191.541 108.557 196.208 111.652 199.089C111.585 199.286 111.568 199.51 111.613 199.744C112.033 201.565 113.889 203.12 115.073 204.467C116.665 206.287 118.278 208.085 120.235 209.503C120.24 209.511 120.254 209.515 120.272 209.527C120.984 210.311 121.747 211.066 122.572 211.773C122.752 211.929 122.937 212.014 123.132 212.059C127.353 217.222 132.613 221.548 138.497 224.59C139.715 225.217 140.75 223.435 139.558 222.737Z" fill="#AA5B18"/>
<path d="M271.319 178.04C270.585 178.743 270.256 179.706 270.036 180.679C269.788 181.755 269.561 182.867 269.516 183.977C269.429 186.036 270.271 188.061 272.257 188.876C272.657 189.044 273.146 188.69 273.25 188.303C273.353 187.916 273.091 187.462 272.677 187.311C271.252 186.777 270.828 184.965 270.822 183.629C270.813 182.757 270.915 181.885 271.025 181.025C271.134 180.164 271.331 179.317 271.957 178.676C272.362 178.259 271.74 177.637 271.321 178.031L271.319 178.04Z" fill="#1D1D1B"/>
<path d="M280.09 132.962C274.816 129.593 268.869 127.444 262.659 126.654C261.653 126.527 261.653 128.118 262.659 128.235C268.596 128.968 274.318 130.989 279.396 134.134C280.138 134.593 280.812 133.431 280.08 132.962L280.09 132.962Z" fill="#1D1D1B"/>
<path d="M288.134 132.962C293.408 129.593 299.355 127.444 305.565 126.653C306.571 126.527 306.571 128.118 305.565 128.235C299.628 128.968 293.906 130.989 288.828 134.134C288.086 134.592 287.412 133.43 288.144 132.962L288.134 132.962Z" fill="#1D1D1B"/>
<path d="M275.865 185.422C262.639 194.817 248.925 203.581 234.417 210.874C219.91 218.167 205.216 223.516 189.583 226.34C180.84 227.915 171.96 228.588 163.084 228.232C161.373 228.16 161.367 230.825 163.073 230.889C179.036 231.449 194.968 228.655 210.084 223.626C225.199 218.598 239.966 210.974 253.769 202.441C261.633 197.586 269.308 192.444 276.816 187.049C277.798 186.347 276.864 184.71 275.869 185.409L275.865 185.422Z" fill="#1D1D1B"/>
<path d="M192.838 151.63C180.679 147.736 168.631 142.649 155.782 141.565C143.611 140.541 131.803 144.054 122.329 151.803C112.854 159.551 106.471 170.937 105.909 183.146C105.61 189.757 107.266 196.277 111.131 201.702C114.996 207.127 120.103 211.891 125.32 216.005C135.971 224.413 149.216 231.008 163.066 230.78C164.64 230.751 164.657 228.34 163.077 228.338C151.26 228.339 140.026 223.47 130.437 216.84C125.425 213.374 120.833 209.327 116.664 204.878C114.145 202.195 111.827 199.293 110.282 195.934C109.009 193.162 108.31 190.116 108.079 187.08C107.194 175.176 112.806 163.491 121.343 155.427C129.88 147.364 141.035 143.111 152.717 143.425C166.464 143.798 179.401 149.409 192.322 153.529C193.535 153.912 194.038 152.009 192.834 151.622L192.838 151.63Z" fill="#1D1D1B"/>
<path d="M262.417 145.919C248.812 153.582 232.9 157.368 217.304 156.506C216.049 156.441 216.044 158.406 217.294 158.462C233.27 159.161 249.263 155.047 263.096 147.094C263.857 146.655 263.183 145.488 262.417 145.919Z" fill="#1D1D1B"/>
<path d="M246.406 194.998C243.166 196.79 239.784 198.314 236.283 199.535C235.666 199.756 235.918 200.738 236.539 200.526C240.122 199.269 243.59 197.718 246.909 195.87C247.472 195.556 246.969 194.685 246.406 194.998Z" fill="#1D1D1B"/>
<path d="M151.582 162.258C147.411 162.749 143.311 163.752 139.394 165.269C138.796 165.501 139.13 166.334 139.727 166.08C143.551 164.481 147.557 163.431 151.664 162.909C152.034 162.865 151.956 162.222 151.587 162.266L151.582 162.258Z" fill="#1D1D1B"/>
<path d="M157.652 157.479C155.053 157.097 152.409 157.146 149.831 157.642C149.281 157.745 149.503 158.598 150.048 158.487C152.515 157.975 155.061 157.893 157.561 158.219C157.976 158.273 158.077 157.55 157.657 157.487L157.652 157.479Z" fill="#1D1D1B"/>
<path d="M314.3 170.551C314.344 170.462 314.379 170.37 314.404 170.276C316.085 163.892 315.236 158.003 311.562 153.379C310.758 151.738 309.502 150.39 307.758 149.539L307.739 149.534C303.862 146.16 299.095 146.369 294.231 146.713C293.808 146.742 293.572 147.022 293.498 147.336C290.861 147.933 288.334 148.985 286.172 150.377C283.44 144.539 277.235 141.097 271.021 139.422C264.305 137.623 258.089 139.809 253.542 144.626C253.374 144.652 253.214 144.72 253.069 144.884C247.327 151.675 245.604 161.425 250.074 169.456C254.311 177.072 263.578 181.122 271.625 177.991C275.64 177.045 280.184 175.593 282.454 172.289C288.269 176.698 295.557 178.247 301.363 182.724C301.632 182.928 301.898 183.029 302.163 183.06C302.203 183.101 302.233 183.139 302.272 183.18C302.918 183.828 303.843 183.732 304.504 183.192C308.512 179.929 312.937 176.696 314.381 171.493C314.48 171.125 314.443 170.812 314.317 170.565L314.3 170.551Z" fill="white"/>
<path d="M260.265 178.475C270.874 181.631 283.116 175.823 287.184 165.469C290.332 157.456 286.874 148.705 280.576 143.307C274.302 137.936 265.319 135.731 257.748 139.687C250.588 143.43 246.067 151.024 245.837 159.05C245.714 163.243 246.8 167.528 249.124 171.042C250.349 172.886 251.871 174.487 253.639 175.81C255.515 177.223 257.999 177.989 260.265 178.475C260.704 178.573 260.832 177.98 260.439 177.824C253.613 175.004 248.381 169.023 247.688 161.538C247.027 154.456 250.052 147.28 255.716 142.934C258.797 140.565 262.49 139.158 266.395 139.184C270.301 139.209 273.882 140.482 277.065 142.488C283.377 146.474 288.121 153.821 287.094 161.502C285.477 173.615 271.714 181.098 260.437 177.834C260.012 177.72 259.85 178.364 260.262 178.485L260.265 178.475Z" fill="#1D1D1B"/>
<path d="M338.225 209.848C338.122 209.517 337.876 209.229 337.414 209.105C336.989 208.991 336.603 208.848 336.234 208.678C335.329 207.717 334.228 206.958 333.208 206.088C331.531 204.648 330.001 203.075 328.597 201.374C328.156 200.832 327.569 200.836 327.1 201.115C321.229 195.973 314.561 191.164 308.036 187.181C299.687 182.083 291.893 177.022 282.917 173.02C282.609 172.887 282.315 172.889 282.067 172.984C281.891 172.998 281.713 173.061 281.57 173.215C279.989 174.965 278.012 176.234 275.784 177.002C274.569 177.425 272.704 177.481 272.283 178.976C271.872 180.433 272.955 182.654 273.847 183.59C275.124 184.934 277.093 185.208 278.608 186.271C281.167 189.282 285.873 190.624 289.334 192.158C295.144 194.736 301.05 197.067 306.87 199.607C315.991 203.597 324.407 208.673 334.084 210.74C334.946 211.072 335.842 211.312 336.76 211.468C337.079 211.523 337.341 211.451 337.573 211.341C337.66 211.355 337.748 211.368 337.835 211.381C338.676 211.486 338.9 210.16 338.207 209.843L338.225 209.848Z" fill="#FFD130"/>
<path opacity="0.5" d="M307.12 198.936C301.322 196.199 295.676 193.2 290.038 190.133C289.43 189.798 288.807 189.479 288.176 189.159C287.864 188.964 287.55 188.779 287.238 188.584C285.121 187.238 282.962 185.942 280.833 184.603C279.136 183.542 273.971 180.783 273.662 178.466C273.575 177.846 272.859 177.614 272.483 178.15C271.879 179.009 271.943 179.977 272.473 181.018C272.405 181.273 272.428 181.562 272.661 181.827C278.263 188.16 286.682 192.054 295.021 195.38C298.067 196.763 300.46 197.758 301.327 198.142C301.572 198.248 301.805 198.209 301.993 198.108C303.54 198.714 305.067 199.316 306.53 199.93C307.193 200.209 307.789 199.267 307.108 198.943L307.12 198.936Z" fill="#B28736"/>
<path d="M282.108 172.945C298.051 181.129 313.134 190.903 327.288 201.883C331.347 205.033 335.326 208.293 339.218 211.651L339.421 210.139C337.502 211.151 335.312 210.534 333.386 209.836C331.065 208.991 328.801 207.97 326.517 207.025C321.511 204.955 316.51 202.867 311.529 200.744C301.691 196.561 291.924 192.225 282.315 187.528C279.759 186.277 277.021 185.098 274.877 183.179C274.242 182.605 273.502 181.972 273.05 181.244C272.598 180.516 272.631 179.636 272.719 178.78C272.843 177.488 270.824 177.514 270.703 178.795C270.547 180.472 270.858 181.839 271.971 183.118C273.549 184.926 275.525 186.305 277.629 187.435C282.695 190.147 287.98 192.493 293.206 194.874C303.739 199.668 314.418 204.147 325.122 208.571C327.916 209.725 330.687 211.043 333.558 211.985C335.818 212.721 338.215 212.98 340.376 211.82C340.885 211.542 341.049 210.706 340.579 210.307C326.822 198.604 312.018 188.127 296.319 179.179C291.848 176.626 287.295 174.223 282.679 171.945C282.009 171.614 281.407 172.615 282.084 172.958L282.108 172.945Z" fill="#1D1D1B"/>
<path d="M286.568 151.241C292.152 146.136 301.254 144.915 307.608 149.347C310.956 151.68 313.196 155.394 314.21 159.305C315.456 164.087 314.401 168.515 312.578 172.981C311.647 175.248 310.771 177.197 308.977 178.911C307.184 180.624 305.261 181.838 303.072 182.727C301.924 183.198 302.371 185.077 303.601 184.638C307.512 183.249 311.585 180.044 313.217 176.144C315.297 171.172 317.166 166.122 316.13 160.669C315.303 156.322 313.107 152.104 309.685 149.257C306.543 146.645 302.539 145.401 298.468 145.463C293.81 145.529 289.242 147.297 285.823 150.475C285.313 150.945 286.072 151.695 286.57 151.232L286.568 151.241Z" fill="#1D1D1B"/>
<path d="M272.556 159.572C272.509 160.085 272.617 160.589 272.836 161.053C272.939 161.272 273.071 161.459 273.222 161.651C273.479 161.973 273.838 162.18 274.245 162.209C274.87 162.255 275.39 161.747 275.64 161.228C275.891 160.708 276.075 160.171 276.139 159.592C276.204 159.013 276.014 158.436 275.638 157.992C275.362 157.665 274.944 157.412 274.529 157.301C274.01 157.162 273.386 157.227 272.996 157.628C272.777 157.842 272.654 158.112 272.585 158.407C272.526 158.664 272.486 158.927 272.474 159.197C272.464 159.649 272.624 160.147 272.977 160.453C273.208 160.647 273.396 160.737 273.671 160.842C273.789 160.893 273.9 160.933 274.02 160.975L273.775 160.869L273.794 160.874C274.048 160.983 274.272 161.053 274.545 160.975C274.774 160.915 275.023 160.739 275.131 160.525C275.253 160.295 275.315 160.028 275.231 159.773C275.159 159.552 275.007 159.289 274.782 159.188C274.572 159.102 274.36 159.025 274.151 158.938L274.396 159.044C274.313 159.012 274.233 158.97 274.166 158.922L274.367 159.077C274.367 159.077 274.301 159.019 274.271 158.98L274.419 159.182C274.419 159.182 274.368 159.108 274.35 159.062L274.451 159.291C274.426 159.234 274.412 159.17 274.409 159.108L274.442 159.36C274.426 159.234 274.437 159.116 274.448 158.998L274.418 159.262C274.445 159.088 274.467 158.891 274.531 158.727L274.425 158.971C274.425 158.971 274.462 158.91 274.481 158.875L274.326 159.076C274.326 159.076 274.367 159.037 274.382 159.02L274.18 159.168C274.18 159.168 274.243 159.124 274.288 159.106L274.059 159.207C274.059 159.207 274.138 159.177 274.187 159.18L273.936 159.214C274.009 159.203 274.078 159.212 274.146 159.22L273.881 159.189C274.007 159.213 274.12 159.243 274.24 159.285L274.005 159.182C274.113 159.231 274.218 159.29 274.319 159.367L274.118 159.212C274.193 159.273 274.265 159.343 274.325 159.42L274.175 159.228C274.228 159.292 274.26 159.362 274.289 159.44L274.199 159.214C274.239 159.326 274.268 159.445 274.287 159.561L274.251 159.319C274.267 159.485 274.265 159.646 274.253 159.804L274.287 159.561C274.241 159.923 274.119 160.264 273.99 160.594L274.079 160.375C274.023 160.511 273.947 160.643 273.855 160.759L273.993 160.584C273.962 160.626 273.921 160.666 273.882 160.696L274.06 160.562C274.06 160.562 273.997 160.606 273.952 160.624L274.157 160.537C274.157 160.537 274.103 160.553 274.069 160.564L274.29 160.532C274.29 160.532 274.198 160.538 274.148 160.535L274.372 160.564C274.372 160.564 274.316 160.549 274.287 160.542L274.497 160.628C274.424 160.598 274.365 160.552 274.307 160.506L274.476 160.633C274.368 160.543 274.282 160.449 274.189 160.343C274.345 160.517 274.263 160.444 274.229 160.384C274.205 160.358 274.194 160.325 274.183 160.291C274.169 160.267 274.158 160.234 274.144 160.21C274.112 160.141 274.221 160.413 274.171 160.258C274.149 160.191 274.133 160.136 274.111 160.07C274.099 160.036 274.1 159.996 274.089 159.963C274.06 159.844 274.107 160.119 274.102 160.027C274.093 159.873 274.081 159.728 274.093 159.57C274.119 159.172 273.715 158.791 273.327 158.808C272.886 158.832 272.608 159.151 272.565 159.575L272.556 159.572Z" fill="#1D1D1B"/>
<path d="M310.173 165.456C310.241 166.334 310.495 167.312 311.435 167.614C312.375 167.917 313.379 167.074 313.544 166.157C313.645 165.628 313.573 165.104 313.449 164.585C313.325 164.067 313.166 163.529 312.684 163.217C312.114 162.853 311.429 163.033 310.948 163.43C310.583 163.736 310.346 164.209 310.271 164.674C310.181 165.276 310.27 165.887 310.631 166.388C310.874 166.726 311.163 167.005 311.564 167.133C311.889 167.24 312.273 167.202 312.59 167.074C312.819 166.974 312.999 166.871 313.137 166.655C313.293 166.414 313.287 166.098 313.182 165.848C313.081 165.619 312.933 165.458 312.695 165.364C312.413 165.248 312.17 165.284 311.893 165.412C312.122 165.311 311.932 165.382 311.875 165.407C311.801 165.417 311.841 165.418 311.991 165.387C311.963 165.38 311.929 165.391 311.91 165.386L312.154 165.421C312.097 165.406 312.05 165.393 311.994 165.378L312.222 165.469C312.222 165.469 312.168 165.445 312.151 165.43C312.074 165.379 312.1 165.396 312.226 165.491C312.199 165.443 312.121 165.392 312.084 165.342L312.017 165.253C312.098 165.365 312.114 165.38 312.07 165.318C312.043 165.27 312.02 165.203 311.981 165.162C312.035 165.298 312.046 165.331 312.019 165.243C312.008 165.21 312.004 165.189 311.992 165.155C311.981 165.122 311.977 165.1 311.975 165.07C311.957 164.984 311.959 165.015 311.99 165.165C312.001 165.046 311.985 164.921 311.996 164.802L311.964 165.036C311.982 164.93 312.01 164.826 312.045 164.734C312.083 164.593 311.959 164.904 312.032 164.782C312.066 164.73 312.1 164.679 312.122 164.634C312.007 164.836 312.062 164.709 312.117 164.653C312.249 164.537 311.985 164.729 312.114 164.662C312.136 164.658 312.15 164.642 312.174 164.628C312.258 164.579 312.005 164.694 312.093 164.667L312.148 164.651C312.148 164.651 311.939 164.676 312.053 164.666C311.821 164.664 311.89 164.632 311.953 164.66C311.963 164.662 311.765 164.569 311.843 164.62C311.932 164.664 311.715 164.494 311.775 164.571C311.784 164.574 311.805 164.61 311.824 164.615C311.805 164.61 311.718 164.445 311.777 164.562C311.791 164.586 311.798 164.598 311.812 164.622C311.892 164.775 311.763 164.467 311.816 164.643C311.895 164.877 311.974 165.11 312.032 165.348C312.045 165.412 312.058 165.476 312.074 165.531C312.107 165.671 312.069 165.398 312.071 165.54C312.075 165.602 312.079 165.664 312.082 165.725C312.075 165.754 312.084 165.796 312.083 165.837C312.075 165.865 312.066 165.974 312.085 165.867C312.115 165.754 312.067 165.933 312.059 165.962C312.049 165.999 311.988 166.155 312.042 166.028C312.096 165.901 312.022 166.063 312.005 166.089C311.998 166.117 311.894 166.241 311.966 166.159C312.053 166.061 311.937 166.192 311.911 166.215C311.884 166.238 311.767 166.338 311.855 166.271C311.944 166.204 311.822 166.282 311.786 166.303C311.695 166.339 311.762 166.317 311.786 166.303C311.901 166.253 311.777 166.3 311.755 166.305C311.653 166.348 311.885 166.309 311.774 166.31L311.694 166.309C311.696 166.299 311.835 166.346 311.772 166.319C311.753 166.314 311.724 166.307 311.715 166.304C311.609 166.286 311.753 166.314 311.769 166.329C311.769 166.329 311.724 166.307 311.715 166.304C311.616 166.257 311.72 166.285 311.738 166.331C311.727 166.297 311.659 166.249 311.626 166.22C311.564 166.152 311.608 166.215 311.626 166.22C311.694 166.309 311.622 166.198 311.606 166.184C311.578 166.136 311.55 166.088 311.532 166.043C311.512 166.007 311.529 165.981 311.532 166.043C311.543 166.116 311.532 166.043 311.528 166.022C311.487 165.91 311.456 165.8 311.436 165.684C311.421 165.629 311.417 165.567 311.401 165.512L311.388 165.448C311.367 165.301 311.403 165.584 311.388 165.448C311.344 165.123 311.124 164.811 310.757 164.824C310.439 164.84 310.105 165.105 310.133 165.456L310.173 165.456Z" fill="#1D1D1B"/>
<path d="M197.987 172.238C193.219 168.066 183.416 159.365 182.343 157.935C181.002 156.147 175.191 148.548 173.403 139.609C171.616 130.669 170.722 120.836 172.509 114.131C174.297 107.426 175.191 101.169 181.002 96.2521C188.353 102.005 184.049 107.757 180.999 110.569C179.82 116.398 185.935 136.492 206.479 151.677C210.435 154.6 217.654 157.488 217.654 157.488L217.207 164.192L207.373 170.45L197.987 172.238Z" fill="#FF8C00"/>
<path opacity="0.5" d="M199.537 172.292C202.155 161.251 190.433 154.633 184.246 147.312C174.779 136.119 173.693 123.281 174.201 109.137C174.227 108.301 173.507 108.288 173.403 109.137C173.109 111.721 172.329 114.161 172.157 116.697C171.835 116.637 171.482 116.795 171.464 117.227C171.009 126.95 171.864 136.42 175.885 145.423C176.269 146.28 176.691 147.12 177.138 147.948C180.823 157.367 187.26 161.957 195.305 170.45C195.575 170.866 196.281 171.341 196.646 171.344C197.127 172.551 199.176 173.816 199.534 172.301L199.537 172.292Z" fill="#AA5B18"/>
<path d="M180.969 95.7062C176.37 99.2734 174.088 104.496 172.767 110.022C172.073 112.914 171.419 115.81 171.074 118.772C170.729 121.734 170.811 124.785 170.949 127.795C171.224 133.657 171.979 139.493 174.189 144.965C176.4 150.436 179.357 155.043 183.006 159.317C187.426 164.502 192.9 168.76 198.067 173.163C198.595 173.615 199.39 172.79 198.917 172.275C194.898 167.985 190.043 164.6 185.976 160.354C182.226 156.428 179.028 151.876 176.631 147.003C174.235 142.129 172.904 136.68 172.366 131.125C171.793 125.169 171.862 119.365 173.074 113.494C174.406 107.063 176.15 100.673 181.544 96.4166C182.008 96.0499 181.432 95.3395 180.969 95.7062Z" fill="#1D1D1B"/>
<path d="M181.462 96.9079C184.092 99.1115 185.105 102.789 183.832 105.993C183.216 107.556 182.11 108.869 180.696 109.783C179.282 110.696 177.862 111.378 177.615 113.123C177.469 114.165 179.095 114.314 179.237 113.282C179.358 112.387 180.357 111.879 181.051 111.454C181.82 110.974 182.518 110.456 183.137 109.793C184.37 108.476 185.206 106.83 185.538 105.054C186.155 101.705 184.67 98.2242 181.984 96.1975C181.523 95.8442 181.026 96.5433 181.462 96.9079Z" fill="#1D1D1B"/>
<path d="M181.085 110.13C180.16 114.313 181.375 118.558 182.778 122.499C184.182 126.441 185.922 130.019 188.047 133.493C192.312 140.458 197.96 146.56 204.57 151.345C208.298 154.04 212.347 156.304 216.593 158.078C217.738 158.556 218.427 156.75 217.278 156.281C202.721 150.411 190.817 138.593 184.75 124.128C182.944 119.814 181.159 114.954 182.122 110.232C182.258 109.573 181.232 109.496 181.094 110.133L181.085 110.13Z" fill="#1D1D1B"/>
</svg>
