<svg width="181" height="173" viewBox="0 0 181 173" fill="none" xmlns="http://www.w3.org/2000/svg">
<path d="M129.329 86.9585C131.74 84.8488 136.698 80.4486 137.24 79.7252C137.918 78.8211 140.857 74.9784 141.761 70.4577C142.665 65.9369 143.117 60.9641 142.213 57.5735C141.309 54.1829 140.857 51.0184 137.918 48.532C134.201 51.4411 136.378 54.3503 137.92 55.7722C138.516 58.7198 135.424 68.8815 125.034 76.5607C123.034 78.0392 119.383 79.4992 119.383 79.4992L119.609 82.8898L124.582 86.0543L129.329 86.9585Z" fill="#FF8C00"/>
<path opacity="0.5" d="M128.479 86.986C127.155 81.4026 133.083 78.0557 136.212 74.3535C141 68.6931 141.549 62.2006 141.292 55.0481C141.279 54.625 141.903 54.5564 141.955 54.9856C142.104 56.2923 142.239 57.5886 142.326 58.8713C142.489 58.841 142.667 58.921 142.676 59.1394C142.906 64.0563 142.474 68.845 140.44 73.398C140.246 73.8314 140.033 74.2562 139.807 74.6752C137.943 79.4384 133.287 82.4064 130.522 86.6887C130.385 86.8993 130.203 86.9898 130.019 86.9913C129.776 87.6018 128.662 87.7567 128.481 86.9907L128.479 86.986Z" fill="#AA5B18"/>
<path d="M137.87 48.2559C140.195 50.0599 141.349 52.7011 142.017 55.4957C142.368 56.9579 142.699 58.4225 142.873 59.9204C143.048 61.4182 143.007 62.9611 142.937 64.4833C142.798 67.448 142.416 70.3995 141.298 73.1664C140.18 75.9333 138.684 78.2629 136.839 80.4244C134.604 83.0463 131.836 85.1999 129.223 87.4266C128.956 87.6552 128.554 87.2377 128.793 86.9775C130.825 84.8081 133.281 83.096 135.337 80.949C137.234 78.9635 138.851 76.6616 140.063 74.197C141.275 71.7325 141.948 68.9766 142.22 66.1673C142.51 63.1556 142.475 60.2201 141.862 57.2513C141.188 53.9989 140.306 50.7679 137.578 48.6152C137.344 48.4297 137.635 48.0705 137.87 48.2559Z" fill="#1D1D1B"/>
<path d="M137.62 48.8636C136.29 49.978 135.778 51.8378 136.421 53.458C136.733 54.2482 137.293 54.9123 138.008 55.3745C138.723 55.8366 139.441 56.1814 139.565 57.0639C139.639 57.5907 138.817 57.666 138.745 57.1439C138.684 56.6916 138.179 56.4348 137.828 56.2198C137.439 55.9768 137.086 55.7151 136.773 55.3798C136.149 54.7137 135.727 53.8813 135.559 52.9834C135.247 51.2897 135.997 49.5293 137.356 48.5044C137.589 48.3257 137.84 48.6793 137.62 48.8636Z" fill="#1D1D1B"/>
<path d="M137.811 55.55C138.278 57.6653 137.664 59.8123 136.954 61.8054C136.244 63.7986 135.364 65.6082 134.29 67.3652C132.133 70.8872 129.277 73.9729 125.934 76.3931C124.049 77.756 122.001 78.9007 119.854 79.798C119.275 80.0397 118.927 79.126 119.508 78.8889C126.869 75.9206 132.889 69.944 135.957 62.6291C136.87 60.4476 137.773 57.9899 137.286 55.6018C137.217 55.2687 137.736 55.2296 137.806 55.5517L137.811 55.55Z" fill="#1D1D1B"/>
<path d="M35.3108 101.545C33.2594 104.211 31.7527 107.42 30.2191 110.357C30.0489 110.679 30.4962 110.905 30.7398 110.741C32.5416 109.553 34.2046 106.982 35.3582 105.176C36.0468 104.1 36.638 102.966 37.3901 101.937C38.4217 100.538 39.5805 99.7237 41.0028 98.993C41.1036 99.2391 41.3136 99.4369 41.6586 99.4765C45.8659 99.9281 50.144 100.334 54.3058 101.138C55.3471 101.532 56.3861 101.887 57.3313 101.878C57.6592 101.874 57.9919 101.739 58.1106 101.403C58.4966 100.289 58.3353 98.802 58.2823 97.6339C58.2754 97.5184 58.2234 97.431 58.1468 97.3684C58.1418 97.3585 58.1437 97.3476 58.1416 97.3338C58.0387 97.0739 57.7546 96.9933 57.4987 96.9825C57.4769 96.9788 57.4642 96.9878 57.4434 96.9909C56.7425 96.3023 55.748 96.0783 54.7015 95.7668C52.8084 95.2055 50.8778 94.7699 48.9483 94.3412C45.392 93.5475 41.8705 92.7733 38.2353 92.8356C37.0183 92.4475 36.1085 93.0406 35.105 93.7609C33.2963 95.0657 31.4416 96.2997 29.598 97.5602C29.3671 97.7152 29.3792 97.9818 29.5101 98.1703C27.2856 99.598 25.2588 101.282 23.5573 103.365C23.2717 103.719 23.7905 104.23 24.1327 103.924C24.8829 103.256 25.6846 102.626 26.5222 102.023C27.7659 101.676 28.8506 100.862 29.9205 100.16C30.1199 100.031 30.1836 99.8449 30.1575 99.6723C31.1306 99.1014 32.1061 98.5689 33.0738 98.0553C33.1863 98.169 33.2901 98.2945 33.3879 98.428C30.8565 101.096 28.8375 104.325 26.45 107.081C26.0801 107.507 26.7652 108.184 27.1698 107.777C28.4248 106.524 29.799 105.359 30.9992 104.048C31.5141 103.483 31.9903 102.895 32.4655 102.3C33.0502 101.94 33.6442 101.617 34.2099 101.224C34.3601 101.12 34.7875 100.724 34.9938 100.827C35.1773 100.919 35.2021 101.293 35.2619 101.479C35.269 101.502 35.283 101.525 35.293 101.544L35.3108 101.545Z" fill="#FFD130"/>
<path opacity="0.5" d="M56.8558 101.582C57.0488 101.878 57.532 101.897 57.7666 101.604C58.2271 101.029 58.1629 100.184 58.2441 99.4831C58.3134 98.8899 58.6122 97.9936 58.2717 97.4235C57.9463 96.883 56.8957 96.6851 56.3122 96.4697C56.2467 96.4336 56.1834 96.4114 56.125 96.3991C54.9429 95.9386 53.7083 95.5743 52.5505 95.0643C52.2025 94.912 51.9596 95.4079 52.241 95.6338C53.6796 96.7865 57.0156 99.0191 56.183 101.197C56.0157 101.632 56.6036 101.9 56.8598 101.585L56.8558 101.582Z" fill="#B28736"/>
<path d="M58.1829 96.8367C52.4515 94.6908 46.493 93.1444 40.4361 92.2556C39.0961 92.0591 37.683 91.7289 36.406 92.3458C35.3071 92.8793 34.3134 93.7111 33.3226 94.4224C31.124 95.998 28.9635 97.6385 26.9536 99.4575C25.9879 100.335 25.0502 101.257 24.2039 102.246C23.8135 102.701 22.2842 104.101 23.2576 104.653C23.8332 104.979 24.9242 103.974 25.3654 103.692C27.7785 102.133 30.1976 100.592 32.6186 99.0388C32.7345 98.9648 32.9107 98.8922 33.0047 98.7897C33.0194 98.7698 33.0972 98.7475 33.101 98.7257C33.1684 98.4012 32.7352 98.8057 32.6979 98.8396C32.3379 99.1448 32.053 99.6894 31.7558 100.059C31.3392 100.574 30.9107 101.081 30.4822 101.587C28.9571 103.389 27.3026 105.175 26.1302 107.231C25.9491 107.552 25.6491 107.95 25.8231 108.33C25.9971 108.71 26.4312 108.779 26.7596 108.591C27.5726 108.129 28.2979 107.32 28.9922 106.703C30.7111 105.179 32.3952 103.611 34.0932 102.065C34.2707 101.907 34.4471 101.743 34.6246 101.585C34.6962 101.522 34.8191 101.447 34.8708 101.368L34.9208 101.325C35.0928 101.225 35.0573 101.107 34.8131 100.964C34.7313 100.983 34.5311 101.504 34.4951 101.57C34.3628 101.816 34.2305 102.062 34.0982 102.308C33.5153 103.381 32.9166 104.443 32.3268 105.518C31.7808 106.508 31.2388 107.501 30.7235 108.508C30.4183 109.105 29.6006 110.214 30.017 110.889C30.6796 111.954 31.4221 110.839 31.8385 110.299C32.6448 109.255 33.4511 108.212 34.2574 107.168L39.1931 100.782C39.5058 100.374 39.8855 99.9424 40.3829 99.7754C41.0183 99.5628 41.7846 99.7965 42.4255 99.9009C43.1712 100.021 43.917 100.142 44.6616 100.255C47.6602 100.723 50.6692 101.144 53.6704 101.584C55.0974 101.795 56.5283 102.01 57.9564 102.228C58.4627 102.307 58.5422 101.525 58.0418 101.439C55.1675 100.951 52.2908 100.518 49.409 100.074C47.9661 99.8507 46.5243 99.6343 45.0825 99.4179C43.7415 99.2145 42.3319 98.8379 40.9737 98.8243C39.7074 98.811 38.9235 99.6994 38.2149 100.619L36.0112 103.491C34.3204 105.693 32.6297 107.894 30.939 110.096C30.9214 110.12 30.5626 110.573 30.5666 110.576C30.6402 110.643 31.064 109.685 31.1038 109.598C31.3243 109.141 31.5556 108.685 31.7909 108.233C32.8499 106.198 34.0012 104.212 35.08 102.191C35.3193 101.742 36.1318 100.365 34.9832 100.383C34.6099 100.39 34.3196 100.759 34.0617 100.993C33.6706 101.348 33.2794 101.704 32.8882 102.06C31.2255 103.583 29.5769 105.128 27.8803 106.614C27.5341 106.917 27.184 107.217 26.8298 107.514C26.7798 107.557 26.3995 107.798 26.3961 107.869L26.6024 107.972C26.6345 107.904 26.6705 107.838 26.7094 107.769C26.8074 107.669 26.8681 107.487 26.9422 107.37C27.5221 106.417 28.2101 105.525 28.9082 104.654C30.3856 102.816 32.0507 101.099 33.3919 99.1549C33.6008 98.8549 33.7708 98.5079 33.4995 98.1851C33.2661 97.9026 32.9336 97.9458 32.6504 98.1052C32.442 98.2214 32.2417 98.3683 32.0353 98.4984L28.732 100.615C27.4763 101.42 26.2246 102.227 24.9649 103.028C24.562 103.284 24.1562 103.543 23.7534 103.798C23.7023 103.834 23.532 103.898 23.5087 103.955C23.497 103.971 22.55 104.481 23.7801 104.045C23.9377 103.989 24.2618 103.4 24.3654 103.267C26.0167 101.202 28.0469 99.4476 30.1116 97.804C32.1762 96.1603 34.091 94.67 36.1996 93.3165C37.5742 92.4341 39.0547 92.7894 40.5785 93.011C42.0084 93.2186 43.4367 93.4617 44.8563 93.7415C47.8885 94.339 50.8894 95.1036 53.8403 96.0277C55.2197 96.4619 56.5906 96.9327 57.9478 97.4302C58.3331 97.5733 58.5643 96.9768 58.175 96.8308L58.1829 96.8367Z" fill="#1D1D1B"/>
<path d="M58.2646 86.2736C58.2881 86.2813 58.3115 86.2889 58.335 86.2966C58.9811 86.4818 59.3033 85.5116 58.6602 85.3015C54.8064 84.0422 51.2615 81.9487 47.7314 79.9847C45.4799 78.7346 43.2693 77.5343 41.28 75.9906C41.3237 75.714 41.2281 75.4022 40.916 75.1651C38.42 73.2481 36.4569 70.0662 34.8218 67.4226C34.0949 66.2447 33.4069 65.0431 32.7127 63.8448C32.3372 63.1973 31.9804 62.5405 31.6095 61.8946C31.4659 61.6346 31.3238 61.37 31.1754 61.1085C30.9676 60.5522 30.5998 60.1515 30.0923 59.8921C30.1062 59.8811 30.1265 59.8825 30.1421 59.8668L30.1731 59.8354C30.2833 59.7207 30.3259 59.5268 30.2018 59.398L30.1625 59.3592C29.9881 59.1775 29.6667 59.2231 29.5838 59.4766C29.3156 60.3293 30.1432 61.644 30.4885 62.4634C31.3169 64.4277 32.2511 66.3383 33.3084 68.1905C33.4568 68.4519 33.6114 68.7259 33.7693 69.0061C33.732 69.0406 33.6994 69.0768 33.6747 69.1206C33.5261 69.3526 33.4437 69.6842 33.2891 69.935C29.9489 67.8668 26.7848 65.4509 24.0306 62.6546C23.5781 62.1951 22.8573 62.8271 23.2787 63.3181C23.9549 64.1106 24.6481 64.867 25.3583 65.603C25.3759 65.6763 25.4044 65.7479 25.4704 65.8163C26.6724 67.0507 27.3864 68.6815 28.5387 69.9725C29.4442 70.9853 30.4273 71.9196 31.3872 72.8775C31.2773 73.039 31.2269 73.2407 31.2877 73.484C31.1837 73.0552 26.747 72.0054 26.0961 71.7875C24.4139 71.2119 22.6823 70.7395 21.0278 70.095C20.4283 69.8627 20.134 70.7952 20.718 71.0432C21.1783 71.2404 21.6449 71.45 22.1132 71.6705C22.1106 71.7736 22.1487 71.8796 22.2584 71.9414C24.7232 73.3339 27.1043 74.8549 29.5877 76.2223C30.5089 76.7259 31.3725 77.2471 32.2834 77.5915C32.9269 78.6746 34.556 79.2381 35.9924 79.7075C38.7282 81.2561 41.6106 82.4993 44.4729 83.7879C44.5857 83.8403 44.6917 83.8178 44.7788 83.7579C45.4743 84.1099 46.1697 84.4619 46.8667 84.8091C49.3352 86.047 51.8278 87.3862 54.4103 88.3703C56.539 89.1854 56.8762 87.8357 58.2678 86.2798L58.2646 86.2736Z" fill="#FFD130"/>
<path opacity="0.5" d="M52.1144 87.7811C52.3646 87.8421 52.6038 87.8891 52.8382 87.9189C53.4058 88.0421 53.9596 88.2075 54.5136 88.4041C54.9142 88.5454 55.3151 88.7179 55.7357 88.5436C56.2046 88.3488 56.5776 87.7797 56.9238 87.4356C57.45 86.9062 58.0109 86.4141 58.5718 85.922C58.999 85.5525 58.777 84.976 58.3307 84.7678C57.7403 84.4918 57.228 84.2152 56.7265 84.4462C56.7434 84.14 56.3012 84.0942 56.1919 84.365C55.5858 85.9178 53.906 87.0521 52.2368 87.1042C51.8168 87.1176 51.7715 87.6379 52.1174 87.7717L52.1128 87.7858L52.1144 87.7811Z" fill="#B28736"/>
<path d="M59.6576 85.3018C55.0802 82.6318 50.0936 80.753 45.5316 78.0518C43.4598 76.8241 41.3824 75.4231 39.7632 73.6211C38.144 71.8192 37.0437 69.8284 35.9276 67.7908C34.7593 65.6582 33.6642 63.4768 32.3636 61.4153C31.7819 60.4926 31.1613 59.5937 30.4567 58.7608C30.1752 58.4298 29.887 58.0083 29.4046 58.0377C28.9862 58.0621 28.637 58.4312 28.6192 58.8513C28.6 59.3075 28.9155 59.8365 29.0695 60.2557C29.2979 60.8603 29.5326 61.4617 29.7688 62.0584C30.2318 63.2332 30.7134 64.3984 31.2075 65.5574C31.6699 66.6384 32.1463 67.7085 32.657 68.769C32.7155 68.892 32.9791 69.3574 32.9447 69.3513C32.868 69.3315 32.7563 69.1963 32.6998 69.1467L26.8146 64.2466L24.335 62.1843C24.0933 61.9858 23.9332 61.84 23.5894 61.8108C22.866 61.751 22.377 62.5004 22.5792 63.1692C22.6891 63.5324 23.0143 63.8568 23.2332 64.1569C23.5559 64.6001 23.885 65.0401 24.214 65.4801C24.8845 66.3694 25.5675 67.2524 26.2644 68.1244C27.0165 69.0663 27.7778 69.9957 28.5671 70.903C28.9099 71.3007 29.2652 71.6922 29.622 72.0789C29.787 72.2575 29.9521 72.4361 30.1233 72.6116C30.2129 72.7032 30.3024 72.7948 30.392 72.8864L30.4972 72.9935C30.6421 73.2019 30.7525 73.1185 30.8346 72.7401C30.7842 72.6561 30.2219 72.6438 30.1046 72.6211C29.8028 72.5588 29.5041 72.4872 29.2085 72.4062C28.6454 72.2534 28.0915 72.0724 27.5407 71.882C26.3279 71.4597 25.132 70.9858 23.9207 70.5588C22.8065 70.1687 21.636 69.7603 20.4577 69.6298C19.5951 69.535 18.9869 70.474 19.6733 71.1399C20.1382 71.5931 20.8444 71.9122 21.3915 72.2572C22.0687 72.6811 22.7411 73.1035 23.4245 73.5242C24.7129 74.3193 26.0183 75.0939 27.3268 75.8592C29.8749 77.3465 32.457 78.7773 35.0684 80.1501C40.2991 82.9036 45.6487 85.4362 51.0922 87.7293C52.4527 88.3038 53.8193 88.8595 55.1905 89.401C55.8386 89.6596 56.1698 88.63 55.5265 88.373C44.7398 84.1001 34.3302 78.9114 24.4186 72.8827C23.8372 72.5317 23.2619 72.1775 22.6835 71.817C22.0707 71.4349 21.4208 70.8797 20.7571 70.6056C20.804 70.621 19.9126 70.1531 20.2295 70.6462C20.2436 70.6665 20.5311 70.6929 20.5812 70.6988C20.8719 70.7471 21.1565 70.8141 21.4396 70.8858C22.0402 71.0353 22.63 71.2177 23.2152 71.4141C25.4529 72.1661 27.6326 73.1745 29.9637 73.6245C30.3546 73.7003 30.9398 73.8967 31.3213 73.6993C31.67 73.5223 31.7688 73.061 31.6153 72.7199C31.4445 72.3523 31.0054 72.0426 30.7257 71.7538C30.3737 71.3842 30.0295 71.0068 29.6915 70.6262C28.1681 68.9127 26.7379 67.1205 25.3497 65.2953C24.7564 64.5196 24.1724 63.7313 23.6008 62.9366C23.4181 62.6847 23.5564 62.8338 23.7228 62.9765L26.033 64.9055L31.9292 69.8196C32.0846 69.9483 32.2355 70.1067 32.4032 70.2135C33.0396 70.6189 33.924 70.1701 33.9726 69.4171C33.9981 68.9734 33.6784 68.5209 33.4966 68.1393C33.2594 67.641 33.03 67.1348 32.8005 66.6287C32.3052 65.5212 31.8332 64.4059 31.3737 63.2842C30.9141 62.1625 30.4829 61.0657 30.0577 59.95C29.9737 59.7303 29.8882 59.2764 29.7388 59.0977C29.72 59.0759 29.5208 58.4134 29.4078 59.109C29.4017 59.1278 29.6389 59.3716 29.6311 59.3638C29.9912 59.788 30.3311 60.2264 30.6555 60.6805C32.0034 62.5652 33.0823 64.6374 34.1782 66.6736C35.274 68.7097 36.3636 70.7491 37.7069 72.6323C39.0501 74.5155 40.5965 75.9041 42.4141 77.1786C46.565 80.0884 51.3391 81.9497 55.8563 84.1999C56.9871 84.7616 58.0993 85.3485 59.1931 85.9761C59.6569 86.2419 60.1167 85.5505 59.6544 85.28L59.6576 85.3018Z" fill="#1D1D1B"/>
<path d="M130.794 100.927C127.92 102.507 123.627 104.842 120.74 106.398L120.514 106.624C115.275 109.529 110.794 111.371 105.026 112.987C102.816 113.773 100.582 114.447 98.2919 114.954C94.1913 115.861 89.9878 116.6 85.7981 115.911C85.5277 115.868 85.3513 115.73 85.2569 115.557C82.8136 115.987 80.5011 116.09 77.9701 115.538C74.7175 114.833 72.2125 112.687 69.0956 111.772C68.6429 111.64 68.474 111.259 68.5122 110.9C61.5359 106.175 53.8501 99.7666 55.1643 90.4772C55.7825 86.1059 58.7006 82.2713 61.4441 78.9539C64.0413 75.8178 67.1865 73.9962 71.0239 73.2747C71.078 73.1808 71.1658 73.0959 71.3046 73.0499C74.3654 72.0697 77.3539 71.6558 80.5592 72.052C89.8902 74.2829 109.115 78.9785 111.368 79.9132C111.484 79.7381 111.681 79.6245 111.966 79.6539C119.382 80.4698 126.043 77.8332 132.7 74.9535C132.891 74.7517 133.138 74.4095 133.415 74.3353C133.55 74.2741 133.725 74.3499 133.781 74.4948C134.112 74.4174 134.349 74.8279 134.062 75.051C134.411 76.2977 134.633 77.3442 135.428 78.4248C136.341 79.6709 137.445 80.6932 138.642 81.6612C139.16 82.0748 138.656 82.8905 138.115 82.861C137.355 84.1722 138.124 86.6593 138.511 87.9525C139.068 89.8262 139.916 91.6006 140.499 93.4705C140.678 94.0461 140.167 94.4152 139.695 94.3794C136.707 96.6008 134.101 99.1091 130.794 100.927Z" fill="#FF8C00"/>
<path opacity="0.5" d="M71.5263 112.496C64.3759 108.299 59.0742 99.8472 59.7192 91.4631C60.3524 83.177 66.2734 76.0692 73.8156 72.935C74.2992 72.7356 73.9554 71.8735 73.4608 72.0735C72.4109 72.4972 71.3932 72.9765 70.4161 73.5064C70.2688 73.3006 69.995 73.1622 69.6948 73.2842C66.2532 74.701 63.3971 76.8061 61.2148 79.446C56.8101 83.0268 55.5899 88.3901 55.6164 93.9174C55.3502 93.9798 55.1124 94.2198 55.1795 94.5631C55.5811 96.7205 55.8489 99.0806 57.4143 100.538C57.3804 100.637 57.3717 100.75 57.3943 100.868C57.6066 101.789 58.5455 102.576 59.1439 103.257C59.9492 104.178 60.7649 105.087 61.7548 105.804C61.7573 105.808 61.764 105.81 61.7732 105.816C62.1333 106.212 62.5191 106.594 62.9366 106.952C63.0276 107.031 63.1209 107.074 63.2196 107.096C65.3543 109.707 68.0144 111.895 70.9896 113.433C71.606 113.75 72.1294 112.849 71.5263 112.496Z" fill="#AA5B18"/>
<path d="M138.159 89.8928C137.787 90.2483 137.621 90.7355 137.51 91.2271C137.384 91.7712 137.27 92.3335 137.247 92.895C137.203 93.9364 137.629 94.9606 138.633 95.3727C138.835 95.4576 139.083 95.2785 139.135 95.0829C139.188 94.8873 139.055 94.6575 138.845 94.5809C138.125 94.3112 137.91 93.3949 137.907 92.7192C137.903 92.2783 137.955 91.8371 138.01 91.402C138.065 90.9669 138.165 90.5386 138.482 90.2145C138.686 90.0035 138.372 89.6891 138.16 89.888L138.159 89.8928Z" fill="#1D1D1B"/>
<path d="M142.594 67.0963C139.927 65.3926 136.92 64.3062 133.779 63.9062C133.271 63.842 133.271 64.6469 133.779 64.7062C136.782 65.0766 139.676 66.0988 142.243 67.6889C142.619 67.921 142.96 67.3334 142.589 67.0963L142.594 67.0963Z" fill="#1D1D1B"/>
<path d="M146.663 67.0963C149.329 65.3926 152.337 64.3062 155.477 63.9062C155.986 63.842 155.986 64.6469 155.477 64.7062C152.475 65.0766 149.581 66.0988 147.013 67.6889C146.638 67.921 146.297 67.3334 146.668 67.0963L146.663 67.0963Z" fill="#1D1D1B"/>
<path d="M140.458 93.6258C133.769 98.377 126.834 102.809 119.497 106.497C112.161 110.185 104.73 112.89 96.8246 114.318C92.4032 115.115 87.9124 115.455 83.4236 115.275C82.5586 115.239 82.5554 116.586 83.418 116.619C91.4906 116.902 99.5476 115.489 107.192 112.946C114.836 110.403 122.304 106.548 129.284 102.233C133.261 99.777 137.142 97.1767 140.939 94.4488C141.435 94.0937 140.963 93.2658 140.46 93.619L140.458 93.6258Z" fill="#1D1D1B"/>
<path d="M98.4706 76.5371C92.3212 74.5677 86.2286 71.9952 79.7309 71.4471C73.5757 70.9294 67.6047 72.706 62.8132 76.6243C58.0217 80.5425 54.7942 86.3005 54.5099 92.4749C54.3588 95.8181 55.1961 99.1153 57.1506 101.859C59.1052 104.602 61.6879 107.011 64.3262 109.092C69.7121 113.344 76.4102 116.679 83.4146 116.564C84.2102 116.549 84.2189 115.33 83.4202 115.329C77.4443 115.329 71.7632 112.867 66.9135 109.514C64.379 107.761 62.057 105.715 59.9485 103.465C58.6745 102.108 57.5023 100.641 56.7211 98.9419C56.0772 97.5403 55.7237 95.9995 55.6072 94.4644C55.1596 88.4446 57.9975 82.5352 62.3148 78.4573C66.6321 74.3795 72.2731 72.2289 78.1811 72.3876C85.1329 72.5765 91.6751 75.414 98.2097 77.4975C98.8231 77.6908 99.0773 76.7286 98.4681 76.5329L98.4706 76.5371Z" fill="#1D1D1B"/>
<path d="M133.657 73.6487C126.777 77.5242 118.73 79.4386 110.843 79.0027C110.208 78.97 110.206 79.9635 110.838 79.9919C118.917 80.3455 127.005 78.2649 134 74.2431C134.385 74.0209 134.044 73.4307 133.657 73.6487Z" fill="#1D1D1B"/>
<path d="M125.56 98.4688C123.922 99.3746 122.211 100.145 120.441 100.763C120.129 100.874 120.256 101.371 120.57 101.264C122.382 100.629 124.136 99.8441 125.814 98.9093C126.099 98.7506 125.845 98.3101 125.56 98.4688Z" fill="#1D1D1B"/>
<path d="M77.6068 81.9115C75.4978 82.1598 73.4241 82.667 71.4436 83.4341C71.1409 83.5519 71.31 83.9731 71.612 83.8444C73.5458 83.0358 75.5716 82.5049 77.6487 82.2409C77.8355 82.2186 77.796 81.8935 77.6093 81.9158L77.6068 81.9115Z" fill="#1D1D1B"/>
<path d="M80.6765 79.4949C79.3617 79.3016 78.0247 79.3266 76.7211 79.5774C76.4432 79.6295 76.5554 80.0608 76.8308 80.0045C78.0786 79.7459 79.3659 79.704 80.6303 79.8693C80.8399 79.8966 80.891 79.5307 80.6789 79.4991L80.6765 79.4949Z" fill="#1D1D1B"/>
<path d="M159.895 86.1055C159.917 86.0604 159.935 86.0139 159.948 85.9662C160.797 82.7378 160.368 79.7598 158.51 77.4215C158.104 76.5917 157.468 75.9102 156.587 75.4797L156.577 75.4771C154.616 73.7707 152.205 73.8763 149.746 74.0505C149.532 74.0649 149.412 74.2066 149.375 74.3653C148.041 74.6675 146.764 75.1994 145.67 75.9034C144.289 72.9513 141.151 71.2107 138.008 70.3636C134.612 69.4536 131.468 70.5591 129.169 72.9952C129.084 73.0082 129.003 73.0427 128.93 73.1254C126.026 76.56 125.155 81.4902 127.415 85.5519C129.558 89.4032 134.244 91.4514 138.314 89.868C140.344 89.3894 142.642 88.6555 143.79 86.9846C146.731 89.2142 150.416 89.9973 153.353 92.2616C153.489 92.3645 153.623 92.4159 153.757 92.4313C153.777 92.452 153.792 92.4714 153.812 92.4921C154.139 92.8198 154.607 92.7714 154.941 92.4979C156.968 90.8478 159.205 89.2132 159.936 86.5818C159.986 86.3957 159.967 86.2373 159.903 86.1128L159.895 86.1055Z" fill="white"/>
<path d="M132.569 90.1128C137.933 91.7088 144.124 88.7715 146.182 83.5354C147.774 79.4834 146.025 75.0577 142.84 72.328C139.667 69.6117 135.124 68.4968 131.296 70.4975C127.675 72.3904 125.388 76.2307 125.272 80.2895C125.21 82.41 125.759 84.5766 126.935 86.3537C127.554 87.2865 128.324 88.096 129.218 88.7651C130.167 89.4794 131.423 89.8671 132.569 90.1128C132.791 90.1621 132.855 89.8625 132.657 89.7837C129.204 88.3576 126.559 85.3327 126.208 81.5475C125.874 77.9662 127.404 74.3372 130.268 72.1393C131.826 70.9413 133.694 70.23 135.669 70.2428C137.644 70.2557 139.455 70.8995 141.065 71.9136C144.257 73.9295 146.656 77.645 146.136 81.5294C145.318 87.6548 138.358 91.4392 132.656 89.7884C132.441 89.7309 132.359 90.0565 132.567 90.1175L132.569 90.1128Z" fill="#1D1D1B"/>
<path d="M171.994 105.978C171.942 105.811 171.817 105.665 171.583 105.603C171.369 105.545 171.173 105.472 170.987 105.387C170.529 104.901 169.972 104.517 169.456 104.077C168.609 103.348 167.835 102.553 167.125 101.693C166.902 101.419 166.605 101.421 166.367 101.562C163.398 98.9616 160.027 96.5294 156.727 94.5154C152.504 91.9371 148.563 89.3781 144.024 87.3539C143.868 87.2866 143.719 87.2877 143.594 87.3359C143.505 87.3428 143.415 87.3748 143.343 87.4527C142.543 88.3376 141.543 88.9797 140.417 89.368C139.802 89.5817 138.859 89.6101 138.646 90.366C138.438 91.1028 138.986 92.226 139.437 92.6996C140.083 93.3789 141.079 93.5178 141.845 94.0554C143.139 95.5781 145.519 96.2566 147.269 97.0323C150.207 98.336 153.194 99.5146 156.137 100.799C160.75 102.817 165.006 105.384 169.899 106.43C170.335 106.597 170.788 106.719 171.253 106.797C171.414 106.825 171.547 106.789 171.664 106.734C171.708 106.74 171.752 106.747 171.796 106.754C172.222 106.806 172.335 106.136 171.984 105.976L171.994 105.978Z" fill="#FFD130"/>
<path opacity="0.5" d="M156.264 100.46C153.332 99.076 150.476 97.5594 147.625 96.0081C147.318 95.8388 147.003 95.6778 146.683 95.5155C146.526 95.417 146.367 95.3233 146.209 95.2248C145.139 94.5444 144.047 93.8887 142.97 93.2118C142.112 92.6751 139.5 91.2799 139.344 90.1081C139.3 89.7947 138.938 89.6772 138.748 89.9483C138.442 90.3828 138.474 90.8721 138.742 91.3989C138.708 91.5277 138.72 91.674 138.837 91.8078C141.67 95.0107 145.928 96.9798 150.145 98.6619C151.686 99.361 152.895 99.8641 153.334 100.058C153.458 100.112 153.576 100.092 153.671 100.041C154.453 100.348 155.225 100.652 155.965 100.963C156.301 101.104 156.602 100.627 156.257 100.463L156.264 100.46Z" fill="#B28736"/>
<path d="M143.615 87.3159C151.678 91.4549 159.305 96.3975 166.463 101.95C168.515 103.543 170.528 105.192 172.496 106.89L172.599 106.125C171.628 106.637 170.521 106.325 169.547 105.972C168.373 105.545 167.228 105.029 166.073 104.55C163.541 103.504 161.012 102.448 158.493 101.374C153.518 99.2589 148.579 97.0664 143.72 94.6907C142.427 94.058 141.043 93.4621 139.958 92.4915C139.637 92.2011 139.263 91.8809 139.034 91.5129C138.806 91.1449 138.823 90.6996 138.867 90.2667C138.93 89.6137 137.909 89.6265 137.847 90.2747C137.768 91.1227 137.926 91.8141 138.489 92.4609C139.287 93.3751 140.286 94.0723 141.35 94.6436C143.912 96.0152 146.585 97.2017 149.227 98.4057C154.554 100.83 159.954 103.095 165.367 105.333C166.781 105.916 168.182 106.583 169.634 107.059C170.776 107.431 171.989 107.562 173.082 106.975C173.339 106.835 173.422 106.412 173.184 106.211C166.227 100.292 158.741 94.9937 150.802 90.4687C148.54 89.1776 146.238 87.9626 143.904 86.8105C143.565 86.643 143.261 87.1494 143.603 87.3229L143.615 87.3159Z" fill="#1D1D1B"/>
<path d="M145.87 76.3403C148.694 73.7585 153.297 73.1411 156.51 75.3825C158.203 76.5622 159.336 78.4404 159.849 80.4183C160.479 82.8367 159.946 85.0761 159.024 87.3342C158.553 88.481 158.11 89.4666 157.203 90.333C156.296 91.1994 155.324 91.8132 154.216 92.2629C153.636 92.5011 153.862 93.4513 154.484 93.2293C156.462 92.5271 158.522 90.9063 159.347 88.934C160.399 86.4194 161.344 83.8658 160.82 81.1078C160.402 78.9099 159.291 76.7769 157.56 75.3367C155.972 74.0163 153.947 73.3868 151.888 73.4181C149.533 73.4515 147.223 74.3458 145.493 75.9531C145.235 76.1907 145.62 76.5697 145.871 76.3355L145.87 76.3403Z" fill="#1D1D1B"/>
<path d="M138.784 80.5534C138.761 80.8129 138.815 81.0678 138.926 81.3021C138.978 81.4132 139.045 81.5077 139.121 81.6048C139.251 81.7675 139.433 81.8724 139.638 81.8867C139.954 81.9099 140.217 81.6532 140.344 81.3906C140.471 81.128 140.564 80.8565 140.596 80.5635C140.629 80.2706 140.533 79.9791 140.343 79.7543C140.203 79.589 139.992 79.4609 139.782 79.4047C139.52 79.3344 139.204 79.3674 139.007 79.5701C138.896 79.6784 138.834 79.8151 138.799 79.9643C138.769 80.0944 138.749 80.227 138.743 80.3634C138.738 80.5922 138.819 80.8439 138.997 80.999C139.114 81.0968 139.209 81.1427 139.348 81.1954C139.408 81.2215 139.464 81.2416 139.524 81.263L139.401 81.2095L139.41 81.212C139.539 81.2669 139.652 81.3023 139.79 81.2627C139.906 81.2323 140.032 81.1434 140.086 81.0353C140.148 80.919 140.179 80.7841 140.137 80.6552C140.101 80.5432 140.024 80.4102 139.91 80.3591C139.804 80.3154 139.697 80.2765 139.591 80.2328L139.715 80.2864C139.673 80.2701 139.633 80.249 139.598 80.2245L139.7 80.3029C139.7 80.3029 139.667 80.2736 139.652 80.2542L139.727 80.356C139.727 80.356 139.701 80.3185 139.692 80.2956L139.742 80.4114C139.73 80.3825 139.723 80.35 139.721 80.3188L139.738 80.4461C139.73 80.3825 139.735 80.3226 139.741 80.2628L139.726 80.3968C139.739 80.3083 139.751 80.2091 139.783 80.1258L139.729 80.2495C139.729 80.2495 139.748 80.2187 139.758 80.2009L139.679 80.3026C139.679 80.3026 139.7 80.2825 139.708 80.2743L139.606 80.3492C139.606 80.3492 139.637 80.327 139.66 80.3178L139.544 80.3685C139.544 80.3685 139.584 80.3536 139.609 80.3553L139.482 80.3723C139.519 80.3669 139.554 80.3711 139.588 80.3753L139.455 80.3598C139.518 80.3717 139.575 80.387 139.636 80.4084L139.517 80.3561C139.572 80.381 139.625 80.4106 139.676 80.4498L139.574 80.3714C139.612 80.402 139.648 80.4374 139.679 80.4762L139.603 80.3791C139.63 80.4119 139.646 80.4469 139.661 80.4867L139.615 80.3721C139.635 80.4288 139.65 80.4889 139.66 80.5478L139.641 80.4253C139.65 80.5093 139.648 80.5907 139.642 80.6709L139.66 80.5478C139.636 80.7307 139.575 80.9033 139.51 81.0699L139.555 80.9593C139.526 81.0283 139.488 81.0947 139.441 81.1538L139.511 81.0651C139.495 81.0864 139.474 81.1065 139.455 81.1217L139.545 81.0537C139.545 81.0537 139.513 81.076 139.49 81.0852L139.594 81.0414C139.594 81.0414 139.566 81.0493 139.549 81.055L139.661 81.0389C139.661 81.0389 139.614 81.0417 139.589 81.0401L139.703 81.0552C139.703 81.0552 139.674 81.0475 139.66 81.0437L139.766 81.0874C139.729 81.0724 139.699 81.0492 139.67 81.0259L139.755 81.0896C139.701 81.0444 139.657 80.9969 139.61 80.9434C139.689 81.031 139.647 80.9944 139.63 80.9642C139.618 80.9508 139.613 80.9339 139.607 80.917C139.6 80.9049 139.594 80.8881 139.587 80.876C139.571 80.841 139.626 80.9784 139.601 80.9002C139.59 80.8664 139.582 80.8388 139.57 80.805C139.565 80.7882 139.565 80.7678 139.559 80.7509C139.545 80.6908 139.569 80.8302 139.566 80.7834C139.561 80.7055 139.555 80.6323 139.562 80.5521C139.574 80.3511 139.371 80.1584 139.174 80.1671C138.951 80.1789 138.81 80.3406 138.789 80.5547L138.784 80.5534Z" fill="#1D1D1B"/>
<path d="M157.808 83.5291C157.842 83.9729 157.97 84.4673 158.446 84.6203C158.921 84.7732 159.429 84.3469 159.512 83.8836C159.563 83.6161 159.527 83.3507 159.464 83.0885C159.402 82.8263 159.321 82.5543 159.077 82.3968C158.789 82.2123 158.443 82.3035 158.2 82.5043C158.015 82.6593 157.895 82.898 157.857 83.1334C157.812 83.4381 157.857 83.7467 158.039 84.0001C158.162 84.1711 158.308 84.3125 158.511 84.377C158.675 84.4313 158.87 84.4118 159.03 84.3474C159.146 84.2966 159.237 84.2443 159.307 84.1352C159.385 84.0132 159.382 83.8538 159.329 83.7271C159.278 83.6113 159.203 83.5298 159.083 83.4822C158.94 83.4235 158.818 83.4418 158.678 83.5066C158.793 83.4558 158.697 83.4913 158.668 83.504C158.631 83.5094 158.651 83.5097 158.727 83.4942C158.713 83.4904 158.696 83.4961 158.686 83.4935L158.809 83.5112C158.781 83.5035 158.757 83.4971 158.728 83.4894L158.844 83.5357C158.844 83.5357 158.816 83.5233 158.808 83.5159C158.769 83.4901 158.782 83.4987 158.846 83.5465C158.832 83.5223 158.793 83.4965 158.774 83.471L158.74 83.4262C158.781 83.4831 158.789 83.4905 158.767 83.4589C158.753 83.4347 158.742 83.401 158.722 83.3803C158.749 83.4491 158.755 83.4659 158.741 83.4214C158.736 83.4045 158.733 83.3937 158.728 83.3768C158.722 83.3599 158.72 83.3491 158.719 83.3335C158.71 83.2903 158.711 83.3059 158.726 83.3816C158.732 83.3218 158.724 83.2582 158.73 83.1984L158.713 83.3167C158.722 83.2629 158.737 83.2105 158.754 83.164C158.773 83.0925 158.711 83.2496 158.748 83.1879C158.765 83.1618 158.782 83.1358 158.793 83.1132C158.735 83.2152 158.763 83.151 158.791 83.1227C158.858 83.064 158.724 83.1612 158.789 83.1275C158.8 83.1253 158.808 83.117 158.82 83.11C158.862 83.0856 158.734 83.1433 158.779 83.1297L158.806 83.1218C158.806 83.1218 158.701 83.1344 158.758 83.1294C158.641 83.1286 158.676 83.1124 158.708 83.1261C158.713 83.1274 158.613 83.0802 158.652 83.106C158.697 83.1283 158.587 83.0427 158.618 83.0815C158.622 83.0828 158.633 83.1009 158.642 83.1035C158.633 83.1009 158.589 83.0175 158.619 83.0767C158.626 83.0888 158.629 83.0949 158.636 83.107C158.677 83.1843 158.611 83.0287 158.639 83.1178C158.679 83.2359 158.718 83.3539 158.748 83.4742C158.754 83.5066 158.761 83.5391 158.769 83.5668C158.786 83.6378 158.766 83.4997 158.768 83.5715C158.769 83.6027 158.771 83.6339 158.773 83.6651C158.769 83.6794 158.774 83.701 158.773 83.7214C158.77 83.7357 158.765 83.7907 158.774 83.737C158.79 83.6797 158.765 83.7704 158.762 83.7847C158.756 83.8038 158.725 83.8823 158.753 83.8181C158.78 83.7539 158.743 83.8359 158.734 83.8489C158.73 83.8632 158.678 83.9258 158.714 83.8845C158.758 83.8349 158.7 83.901 158.686 83.9128C158.673 83.9245 158.613 83.975 158.658 83.9411C158.703 83.9071 158.641 83.9468 158.623 83.9572C158.611 83.9642 158.577 83.9756 158.623 83.9572C158.681 83.9319 158.619 83.956 158.608 83.9582C158.556 83.9801 158.674 83.9605 158.617 83.9607L158.577 83.9601C158.578 83.9553 158.648 83.9792 158.616 83.9655C158.606 83.9629 158.592 83.9591 158.587 83.9578C158.534 83.9486 158.606 83.963 158.615 83.9703C158.615 83.9703 158.592 83.9591 158.587 83.9578C158.537 83.9342 158.59 83.9483 158.599 83.9712C158.593 83.9544 158.559 83.9298 158.543 83.9152C158.533 83.9126 158.511 83.8811 158.543 83.9152C158.577 83.9601 158.54 83.9043 158.532 83.897C158.518 83.8728 158.504 83.8486 158.495 83.8257C158.484 83.8076 158.493 83.7945 158.495 83.8257C158.5 83.8629 158.495 83.8257 158.493 83.8149C158.472 83.7583 158.456 83.7029 158.446 83.644C158.439 83.6163 158.437 83.5852 158.429 83.5575L158.422 83.525C158.411 83.4506 158.429 83.5934 158.422 83.525C158.4 83.3605 158.289 83.2029 158.103 83.2094C157.942 83.2175 157.773 83.3512 157.787 83.5287L157.808 83.5291Z" fill="#1D1D1B"/>
<path d="M101.074 86.9585C98.6632 84.8488 93.7054 80.4486 93.1629 79.7252C92.4848 78.8211 89.5463 74.9784 88.6422 70.4577C87.738 65.9369 87.2859 60.9641 88.1901 57.5735C89.0942 54.1829 89.5463 51.0184 92.4848 48.532C96.2021 51.4411 94.0257 54.3503 92.4834 55.7722C91.8869 58.7198 94.9794 68.8815 105.369 76.5607C107.369 78.0392 111.02 79.4992 111.02 79.4992L110.794 82.8898L105.821 86.0543L101.074 86.9585Z" fill="#FF8C00"/>
<path opacity="0.5" d="M101.858 86.986C103.182 81.4026 97.2544 78.0557 94.1253 74.3535C89.3378 68.6931 88.7885 62.2005 89.0455 55.048C89.0587 54.625 88.6947 54.6189 88.6421 55.048C88.4931 56.3547 88.0987 57.5886 88.0117 58.8713C87.8489 58.8409 87.6704 58.9209 87.6612 59.1394C87.4315 64.0563 87.8638 68.845 89.8971 73.398C90.0914 73.8314 90.3047 74.2561 90.5309 74.6752C92.3943 79.4384 95.6493 81.7596 99.718 86.0543C99.8545 86.2648 100.212 86.5048 100.396 86.5064C100.639 87.1169 101.676 87.7567 101.857 86.9907L101.858 86.986Z" fill="#AA5B18"/>
<path d="M92.4679 48.2559C90.1424 50.0599 88.9883 52.7011 88.32 55.4957C87.969 56.9579 87.6383 58.4225 87.464 59.9204C87.2897 61.4182 87.3308 62.9611 87.4009 64.4833C87.5398 67.448 87.9215 70.3995 89.0394 73.1664C90.1572 75.9333 91.6531 78.2629 93.4983 80.4244C95.7336 83.0463 98.5014 85.1999 101.114 87.4266C101.381 87.6552 101.784 87.2377 101.545 86.9775C99.512 84.8081 97.057 83.096 95.0001 80.949C93.1037 78.9635 91.4863 76.6616 90.2744 74.197C89.0625 71.7325 88.3896 68.9766 88.1176 66.1673C87.8275 63.1556 87.8625 60.2201 88.4756 57.2513C89.1492 53.9989 90.0312 50.7679 92.759 48.6152C92.9935 48.4297 92.7024 48.0705 92.4679 48.2559Z" fill="#1D1D1B"/>
<path d="M92.7176 48.8636C94.0475 49.978 94.5597 51.8378 93.9161 53.458C93.6045 54.2482 93.045 54.9123 92.3299 55.3745C91.6148 55.8366 90.8969 56.1814 90.7721 57.0639C90.6982 57.5907 91.5203 57.666 91.5924 57.1439C91.6537 56.6916 92.1585 56.4348 92.5099 56.2198C92.8984 55.9768 93.2517 55.7151 93.5645 55.3798C94.1881 54.7137 94.611 53.8813 94.7786 52.9834C95.0909 51.2897 94.34 49.5293 92.9813 48.5044C92.7481 48.3257 92.4972 48.6793 92.7176 48.8636Z" fill="#1D1D1B"/>
<path d="M92.5269 55.55C92.0593 57.6653 92.6735 59.8123 93.3833 61.8054C94.0931 63.7986 94.9732 65.6082 96.0478 67.3652C98.2044 70.8872 101.061 73.9729 104.404 76.3931C106.289 77.756 108.336 78.9007 110.484 79.798C111.063 80.0397 111.411 79.126 110.83 78.8889C103.468 75.9206 97.4486 69.944 94.38 62.6291C93.4672 60.4476 92.5645 57.9899 93.0515 55.6018C93.1203 55.2687 92.6014 55.2296 92.5315 55.5517L92.5269 55.55Z" fill="#1D1D1B"/>
</svg>
