<svg width="108" height="288" viewBox="0 0 108 288" fill="none" xmlns="http://www.w3.org/2000/svg">
<path d="M104.111 3L3.00317 3L3.00317 47L104.111 47L104.111 3Z" fill="#FF8000"/>
<path d="M100.517 50L6.4126 50L6.4126 469.567L100.517 469.567L100.517 50Z" fill="#FF8000"/>
<path d="M100.517 50L77.468 50L77.468 469.567L100.517 469.567L100.517 50Z" fill="#FFA041"/>
<path d="M25.8462 50L6.41271 50L6.41271 469.567L25.8462 469.567L25.8462 50Z" fill="#D86C00"/>
<path d="M104.499 3L74.1283 3L74.1283 47L104.499 47L104.499 3Z" fill="#FFA041"/>
<path d="M22.1489 3L2.75208 3L2.75208 47L22.1489 47L22.1489 3Z" fill="#D86C00"/>
<path fill-rule="evenodd" clip-rule="evenodd" d="M3.00293 3H104.003V47H3.00293V3ZM107.003 0V50H0.00292969V0H107.003Z" fill="black"/>
<path fill-rule="evenodd" clip-rule="evenodd" d="M7.00289 50H100.003V474H7.00289V50ZM103.003 47V477H4.00289V47H103.003Z" fill="black"/>
</svg>
