<svg width="108" height="1198" viewBox="0 0 108 1198" fill="none" xmlns="http://www.w3.org/2000/svg">
<path d="M3.7146 3.05371L104.823 3.05373L104.823 47.0537L3.71459 47.0537L3.7146 3.05371Z" fill="#FF8000"/>
<path d="M7.30859 50.0537L101.413 50.0537L101.413 1196.98L7.3084 1196.98L7.30859 50.0537Z" fill="#FF8000"/>
<path d="M7.30859 50.0537L30.3577 50.0537L30.3575 1196.98L7.3084 1196.98L7.30859 50.0537Z" fill="#FFA041"/>
<path d="M81.9795 50.0537L101.413 50.0537L101.413 1196.98L81.9793 1196.98L81.9795 50.0537Z" fill="#D86C00"/>
<path d="M3.32666 3.05371L33.6974 3.05372L33.6974 47.0537L3.32665 47.0537L3.32666 3.05371Z" fill="#FFA041"/>
<path d="M85.677 3.05371L105.074 3.05371L105.074 47.0537L85.677 47.0537L85.677 3.05371Z" fill="#D86C00"/>
<path fill-rule="evenodd" clip-rule="evenodd" d="M104.823 3.05373L3.82275 3.05371L3.82275 47.0537L104.823 47.0537L104.823 3.05373ZM0.822754 0.0537109L0.822745 50.0537L107.823 50.0537L107.823 0.0537296L0.822754 0.0537109Z" fill="black"/>
<path fill-rule="evenodd" clip-rule="evenodd" d="M100.823 50.0537L7.82275 50.0537L7.82262 1194.85L100.823 1194.85L100.823 50.0537ZM4.82275 47.0537L4.82262 1197.85L103.823 1197.85L103.823 47.0537L4.82275 47.0537Z" fill="black"/>
</svg>
