<svg width="390" height="124" viewBox="0 0 390 124" fill="none" xmlns="http://www.w3.org/2000/svg">
<mask id="mask0_992_4444" style="mask-type:alpha" maskUnits="userSpaceOnUse" x="0" y="0" width="390" height="124">
<rect width="390" height="124" fill="#D9D9D9"/>
</mask>
<g mask="url(#mask0_992_4444)">
<path d="M440.448 0H-44.0487V58.125H440.448V0Z" fill="#39A84A"/>
<path d="M426.602 15.1679V24.0804H417.169V33.0482H395.545V40.5214H374.804V27.8447H365.371V24.0804H346.56V19.6518H329.625V30.8339H321.13V47.2197H311.697V30.8339H296.638V15.8875H286.267V36.7572H252.397V16.6625H221.285V31.5536H204.35V39.0268H182.671V29.3393H175.169V33.7679H153.49V9.96429H133.686V21.8661H104.505V30.0589H62.14V50.9286H43.2743V21.8661H18.8371V32.2732H-13.2126V47.2197H-44.0487V58.125H440.448V15.1679H426.602Z" fill="#185325"/>
<path d="M440.448 58.125H-44.0487V124H440.448V58.125Z" fill="#7F4D2E"/>
<path d="M-21.7077 124H-9.4615V97.8714H8.46645V111.268H21.6504V102.355H50.8316V114.257H64.9533V103.075H92.259V116.527H113V106.839H130.873V109.829H157.241V102.355H203.412V97.8714H260.837V114.257H269.332V105.345H315.503V124H333.376V92.6679H352.187V108.334H366.364V97.1518H399.296V119.516H421.913V109.829H424.726V92.6679H440.448V85.9696H430.353V65.1H403.985V77.0018H374.804V58.125H364.433V74.0125H351.249V79.9911H334.314V74.0125H308.884V82.9804H284.392V58.125H279.703V72.5179H250.522V88.1839H214.721V76.2821H191.166V69.5839H183.609V92.6679H157.241V77.7768H144.057V88.9589H120.502V76.2821H98.8785V65.8196H90.3834V74.0125H82.8813V85.9696H66.8289V74.0125H46.1428V88.9589H30.0903V69.5839H-0.0286369V77.7768H-25.4588V91.1732H-44.0487V104.57H-21.7077V124Z" fill="#945835"/>
<path d="M394.607 49.1572H379.548V58.8447H394.607V49.1572Z" fill="#7F4D2E"/>
<path d="M244.84 49.1572H229.78V58.8447H244.84V49.1572Z" fill="#7F4D2E"/>
<path d="M165.736 49.1572H150.677V58.8447H165.736V49.1572Z" fill="#7F4D2E"/>
<path d="M102.409 86.8H89.9421V96.4875H102.409V86.8Z" fill="#7F4D2E"/>
<path d="M130.377 94.3839H117.91V104.071H130.377V94.3839Z" fill="#7F4D2E"/>
<path d="M206.557 80.9875H194.09V90.675H206.557V80.9875Z" fill="#7F4D2E"/>
<path d="M194.2 95.2697H181.733V104.957H194.2V95.2697Z" fill="#7F4D2E"/>
<path d="M240.813 84.0875H228.346V93.775H240.813V84.0875Z" fill="#7F4D2E"/>
<path d="M278.489 86.8H266.022V96.4875H278.489V86.8Z" fill="#7F4D2E"/>
<path d="M299.672 91.6714H287.205V101.359H299.672V91.6714Z" fill="#7F4D2E"/>
<path d="M329.129 79.2161H316.662V88.9036H329.129V79.2161Z" fill="#7F4D2E"/>
<path d="M361.509 82.5928H349.043V92.2803H361.509V82.5928Z" fill="#7F4D2E"/>
<path d="M392.015 91.6714H379.548V101.359H392.015V91.6714Z" fill="#7F4D2E"/>
<path d="M337.955 107.448H325.488V117.136H337.955V107.448Z" fill="#7F4D2E"/>
<path d="M77.4202 96.4875H64.9533V106.175H77.4202V96.4875Z" fill="#7F4D2E"/>
<path d="M34.1172 97.2072H21.6504V106.895H34.1172V97.2072Z" fill="#7F4D2E"/>
<path d="M12.1072 77.1125H-0.359619V86.8H12.1072V77.1125Z" fill="#7F4D2E"/>
<path d="M100.754 49.1572H85.6946V58.8447H100.754V49.1572Z" fill="#7F4D2E"/>
<path d="M290.018 53.5303H274.959V63.2178H290.018V53.5303Z" fill="#7F4D2E"/>
<path d="M339.279 53.2535H324.219V62.941H339.279V53.2535Z" fill="#7F4D2E"/>
<path d="M28.2148 53.2535H13.1553V62.941H28.2148V53.2535Z" fill="#7F4D2E"/>
<path d="M400.951 99.4768H385.891V109.164H400.951V99.4768Z" fill="#533118"/>
<path d="M251.184 99.4768H236.124V109.164H251.184V99.4768Z" fill="#533118"/>
<path d="M172.08 99.4768H157.02V109.164H172.08V99.4768Z" fill="#533118"/>
<path d="M107.098 99.4768H92.0383V109.164H107.098V99.4768Z" fill="#533118"/>
<path d="M296.417 103.85H281.358V113.537H296.417V103.85Z" fill="#533118"/>
<path d="M345.622 103.629H330.563V113.316H345.622V103.629Z" fill="#533118"/>
<path d="M34.5585 103.629H19.4991V113.316H34.5585V103.629Z" fill="#533118"/>
<path d="M85.6946 54.0286H70.6351V63.7161H85.6946V54.0286Z" fill="#185325"/>
<path d="M130.432 53.5303H115.372V63.2178H130.432V53.5303Z" fill="#185325"/>
<path d="M189.291 56.0768H174.231V65.7643H189.291V56.0768Z" fill="#185325"/>
<path d="M219.851 53.5303H204.791V63.2178H219.851V53.5303Z" fill="#185325"/>
<path d="M274.959 56.0768H259.899V65.7643H274.959V56.0768Z" fill="#185325"/>
<path d="M316.662 56.0768H301.602V65.7643H316.662V56.0768Z" fill="#185325"/>
<path d="M362.778 56.0768H347.719V65.7643H362.778V56.0768Z" fill="#185325"/>
<path d="M54.1414 56.0768H39.0819V65.7643H54.1414V56.0768Z" fill="#185325"/>
</g>
</svg>
