<svg width="436" height="126" viewBox="0 0 436 126" fill="none" xmlns="http://www.w3.org/2000/svg">
<g clip-path="url(#clip0_578_5916)">
<path d="M174.253 3.37575H-82.3411V122.624H174.253V3.37575Z" fill="#929DC1"/>
<path d="M174.253 52.7461H151.449V15.3597H56.4294V31.1413H-23.7247V57.0502H-82.3411V82.8747H-11.8156V122.624H26.7834V69.9625H83.1193V95.787H124.674V78.5707H174.253V52.7461Z" fill="#7882A1"/>
<path d="M164.033 68.6122H124.674V87.2632H164.033V68.6122Z" fill="#9CA7CC"/>
<path d="M94.7751 29.9598H55.416V48.6108H94.7751V29.9598Z" fill="#9CA7CC"/>
<path d="M174.253 39.4963H-82.3411V46.2478H174.253V39.4963Z" fill="#4C5C8B"/>
<path d="M174.253 86.7569H-82.3411V93.5084H174.253V86.7569Z" fill="#4C5C8B"/>
<path d="M56.0073 3.37575H44.6895V42.8721H56.0073V3.37575Z" fill="#4C5C8B"/>
<path d="M56.0073 88.1916H44.6895V122.54H56.0073V88.1916Z" fill="#4C5C8B"/>
<path d="M132.952 43.5472H121.634V88.1916H132.952V43.5472Z" fill="#4C5C8B"/>
<path d="M179.912 126H-88V0H179.912V126ZM-76.6821 119.248H168.594V6.75151H-76.6821V119.248Z" fill="#4C5C8B"/>
<path d="M44.9427 6.75151H-76.2598V17.2163H44.9427V6.75151Z" fill="#C9D0E4"/>
<path d="M430.341 3.37575H173.747V122.624H430.341V3.37575Z" fill="#929DC1"/>
<path d="M430.341 52.7461H407.452V15.3597H312.517V31.1413H232.363V57.0502H173.747V82.8747H244.188V122.624H282.787V69.9625H339.207V95.787H380.762V78.5707H430.341V52.7461Z" fill="#7882A1"/>
<path d="M420.121 68.6122H380.762V87.2632H420.121V68.6122Z" fill="#9CA7CC"/>
<path d="M350.863 29.9598H311.503V48.6108H350.863V29.9598Z" fill="#9CA7CC"/>
<path d="M247.988 56.5439H208.629V75.1949H247.988V56.5439Z" fill="#9CA7CC"/>
<path d="M430.341 39.4963H173.747V46.2478H430.341V39.4963Z" fill="#4C5C8B"/>
<path d="M430.341 86.7569H173.747V93.5084H430.341V86.7569Z" fill="#4C5C8B"/>
<path d="M312.011 3.37575H300.693V42.8721H312.011V3.37575Z" fill="#4C5C8B"/>
<path d="M312.011 88.1916H300.693V122.54H312.011V88.1916Z" fill="#4C5C8B"/>
<path d="M229.576 43.5472H218.258V88.1916H229.576V43.5472Z" fill="#4C5C8B"/>
<path d="M388.955 43.5472H377.637V88.1916H388.955V43.5472Z" fill="#4C5C8B"/>
<path d="M436 126H168.088V0H436.085V126H436ZM179.406 119.248H424.682V6.75151H179.406V119.248Z" fill="#4C5C8B"/>
<path d="M302.044 6.75151H177.547V17.2163H302.044V6.75151Z" fill="#C9D0E4"/>
</g>
<defs>
<clipPath id="clip0_578_5916">
<rect width="524" height="126" fill="white" transform="translate(-88)"/>
</clipPath>
</defs>
</svg>
