<svg width="67" height="85" viewBox="0 0 67 85" fill="none" xmlns="http://www.w3.org/2000/svg">
<path d="M41.2871 0.304688H37.6143V3.97753H41.2871V0.304688Z" fill="white"/>
<path d="M37.6133 3.97748H33.9404V7.65032H37.6133V3.97748Z" fill="white"/>
<path d="M41.2871 3.97748H37.6143V7.65032H41.2871V3.97748Z" fill="black"/>
<path d="M44.959 3.97748H41.2861V7.65032H44.959V3.97748Z" fill="white"/>
<path d="M33.9419 7.65027H30.269V11.3231H33.9419V7.65027Z" fill="white"/>
<path d="M37.6133 7.65027H33.9404V11.3231H37.6133V7.65027Z" fill="black"/>
<path d="M41.2871 7.65027H37.6143V11.3231H41.2871V7.65027Z" fill="#BF4400"/>
<path d="M44.959 7.65027H41.2861V11.3231H44.959V7.65027Z" fill="black"/>
<path d="M48.6328 7.65027H44.96V11.3231H48.6328V7.65027Z" fill="white"/>
<path d="M30.2886 11.3024H26.6157V14.9752H30.2886V11.3024Z" fill="white"/>
<path d="M33.9419 11.3024H30.269V14.9752H33.9419V11.3024Z" fill="black"/>
<path d="M37.6133 11.3024H33.9404V14.9752H37.6133V11.3024Z" fill="#BF4400"/>
<path d="M41.2871 11.3024H37.6143V14.9752H41.2871V11.3024Z" fill="#BF4400"/>
<path d="M44.959 11.3024H41.2861V14.9752H44.959V11.3024Z" fill="black"/>
<path d="M48.6328 11.3024H44.96V14.9752H48.6328V11.3024Z" fill="white"/>
<path d="M26.6167 14.9752H22.9438V18.648H26.6167V14.9752Z" fill="white"/>
<path d="M30.2886 14.9752H26.6157V18.648H30.2886V14.9752Z" fill="black"/>
<path d="M33.9419 14.9752H30.269V18.648H33.9419V14.9752Z" fill="#BF4400"/>
<path d="M37.6133 14.9752H33.9404V18.648H37.6133V14.9752Z" fill="#FF8000"/>
<path d="M41.2871 14.9752H37.6143V18.648H41.2871V14.9752Z" fill="#BF4400"/>
<path d="M44.959 14.9752H41.2861V18.648H44.959V14.9752Z" fill="black"/>
<path d="M48.6328 14.9752H44.96V18.648H48.6328V14.9752Z" fill="white"/>
<path d="M22.9429 18.6479H19.27V22.3208H22.9429V18.6479Z" fill="white"/>
<path d="M26.6167 18.6479H22.9438V22.3208H26.6167V18.6479Z" fill="black"/>
<path d="M30.2886 18.6479H26.6157V22.3208H30.2886V18.6479Z" fill="#BF4400"/>
<path d="M33.9419 18.6479H30.269V22.3208H33.9419V18.6479Z" fill="#BF4400"/>
<path d="M37.6133 18.6479H33.9404V22.3208H37.6133V18.6479Z" fill="#BF4400"/>
<path d="M41.2871 18.6479H37.6143V22.3208H41.2871V18.6479Z" fill="black"/>
<path d="M44.959 18.6479H41.2861V22.3208H44.959V18.6479Z" fill="white"/>
<path d="M22.9429 22.3208H19.27V25.9936H22.9429V22.3208Z" fill="white"/>
<path d="M26.6167 22.3208H22.9438V25.9936H26.6167V22.3208Z" fill="black"/>
<path d="M30.2886 22.3208H26.6157V25.9936H30.2886V22.3208Z" fill="#BF4400"/>
<path d="M33.9419 22.3208H30.269V25.9936H33.9419V22.3208Z" fill="#FF8000"/>
<path d="M37.6133 22.3208H33.9404V25.9936H37.6133V22.3208Z" fill="#BF4400"/>
<path d="M41.2871 22.3208H37.6143V25.9936H41.2871V22.3208Z" fill="black"/>
<path d="M44.959 22.3208H41.2861V25.9936H44.959V22.3208Z" fill="white"/>
<path d="M19.271 25.9936H15.5981V29.6664H19.271V25.9936Z" fill="white"/>
<path d="M22.9429 25.9936H19.27V29.6664H22.9429V25.9936Z" fill="black"/>
<path d="M26.6167 25.9936H22.9438V29.6664H26.6167V25.9936Z" fill="#BF4400"/>
<path d="M30.2886 25.9936H26.6157V29.6664H30.2886V25.9936Z" fill="#BF4400"/>
<path d="M33.9419 25.9936H30.269V29.6664H33.9419V25.9936Z" fill="#FF8000"/>
<path d="M37.6133 25.9936H33.9404V29.6664H37.6133V25.9936Z" fill="#BF4400"/>
<path d="M41.2871 25.9936H37.6143V29.6664H41.2871V25.9936Z" fill="#BF4400"/>
<path d="M44.959 25.9936H41.2861V29.6664H44.959V25.9936Z" fill="black"/>
<path d="M48.6328 25.9936H44.96V29.6664H48.6328V25.9936Z" fill="white"/>
<path d="M19.271 29.6446H15.5981V33.3174H19.271V29.6446Z" fill="white"/>
<path d="M22.9429 29.6446H19.27V33.3174H22.9429V29.6446Z" fill="black"/>
<path d="M26.6167 29.6446H22.9438V33.3174H26.6167V29.6446Z" fill="#D95C17"/>
<path d="M30.2886 29.6446H26.6157V33.3174H30.2886V29.6446Z" fill="#BF4400"/>
<path d="M33.9419 29.6446H30.269V33.3174H33.9419V29.6446Z" fill="#D95C17"/>
<path d="M37.6133 29.6446H33.9404V33.3174H37.6133V29.6446Z" fill="#BF4400"/>
<path d="M41.2871 29.6446H37.6143V33.3174H41.2871V29.6446Z" fill="#D95C17"/>
<path d="M44.959 29.6446H41.2861V33.3174H44.959V29.6446Z" fill="black"/>
<path d="M48.6328 29.6446H44.96V33.3174H48.6328V29.6446Z" fill="white"/>
<path d="M8.27441 33.3174H4.60156V36.9903H8.27441V33.3174Z" fill="white"/>
<path d="M15.5972 33.3174H11.9243V36.9903H15.5972V33.3174Z" fill="white"/>
<path d="M19.271 33.3174H15.5981V36.9903H19.271V33.3174Z" fill="black"/>
<path d="M22.9429 33.3174H19.27V36.9903H22.9429V33.3174Z" fill="#BF4400"/>
<path d="M26.6167 33.3174H22.9438V36.9903H26.6167V33.3174Z" fill="#D95C17"/>
<path d="M30.2886 33.3174H26.6157V36.9903H30.2886V33.3174Z" fill="#D95C17"/>
<path d="M33.9419 33.3174H30.269V36.9903H33.9419V33.3174Z" fill="#FF8000"/>
<path d="M37.6133 33.3174H33.9404V36.9903H37.6133V33.3174Z" fill="#D95C17"/>
<path d="M41.2871 33.3174H37.6143V36.9903H41.2871V33.3174Z" fill="#BF4400"/>
<path d="M44.959 33.3174H41.2861V36.9903H44.959V33.3174Z" fill="#BF4400"/>
<path d="M48.6328 33.3174H44.96V36.9903H48.6328V33.3174Z" fill="black"/>
<path d="M52.2837 33.3174H48.6108V36.9903H52.2837V33.3174Z" fill="white"/>
<path d="M55.9575 33.3174H52.2847V36.9903H55.9575V33.3174Z" fill="white"/>
<path d="M4.60058 36.9913H0.927734V40.6641H4.60058V36.9913Z" fill="white"/>
<path d="M8.27441 36.9913H4.60156V40.6641H8.27441V36.9913Z" fill="black"/>
<path d="M11.9463 36.9913H8.27344V40.6641H11.9463V36.9913Z" fill="white"/>
<path d="M15.5972 36.9913H11.9243V40.6641H15.5972V36.9913Z" fill="white"/>
<path d="M19.271 36.9913H15.5981V40.6641H19.271V36.9913Z" fill="black"/>
<path d="M22.9429 36.9913H19.27V40.6641H22.9429V36.9913Z" fill="#D95C17"/>
<path d="M26.6167 36.9913H22.9438V40.6641H26.6167V36.9913Z" fill="#BF4400"/>
<path d="M30.2886 36.9913H26.6157V40.6641H30.2886V36.9913Z" fill="#D95C17"/>
<path d="M33.9419 36.9913H30.269V40.6641H33.9419V36.9913Z" fill="#FFAE33"/>
<path d="M37.6133 36.9913H33.9404V40.6641H37.6133V36.9913Z" fill="#FF8000"/>
<path d="M41.2871 36.9913H37.6143V40.6641H41.2871V36.9913Z" fill="#D95C17"/>
<path d="M44.959 36.9913H41.2861V40.6641H44.959V36.9913Z" fill="#BF4400"/>
<path d="M48.6328 36.9913H44.96V40.6641H48.6328V36.9913Z" fill="black"/>
<path d="M52.2837 36.9913H48.6108V40.6641H52.2837V36.9913Z" fill="white"/>
<path d="M55.9575 36.9913H52.2847V40.6641H55.9575V36.9913Z" fill="black"/>
<path d="M59.6294 36.9913H55.9565V40.6641H59.6294V36.9913Z" fill="white"/>
<path d="M4.60058 40.663H0.927734V44.3359H4.60058V40.663Z" fill="white"/>
<path d="M8.27441 40.663H4.60156V44.3359H8.27441V40.663Z" fill="black"/>
<path d="M11.9463 40.663H8.27344V44.3359H11.9463V40.663Z" fill="black"/>
<path d="M15.5972 40.663H11.9243V44.3359H15.5972V40.663Z" fill="white"/>
<path d="M19.271 40.663H15.5981V44.3359H19.271V40.663Z" fill="black"/>
<path d="M22.9429 40.663H19.27V44.3359H22.9429V40.663Z" fill="#FF8000"/>
<path d="M26.6167 40.663H22.9438V44.3359H26.6167V40.663Z" fill="#D95C17"/>
<path d="M30.2886 40.663H26.6157V44.3359H30.2886V40.663Z" fill="#D95C17"/>
<path d="M33.9419 40.663H30.269V44.3359H33.9419V40.663Z" fill="#D95C17"/>
<path d="M37.6133 40.663H33.9404V44.3359H37.6133V40.663Z" fill="#FFAE33"/>
<path d="M41.2871 40.663H37.6143V44.3359H41.2871V40.663Z" fill="#BF4400"/>
<path d="M44.959 40.663H41.2861V44.3359H44.959V40.663Z" fill="#D95C17"/>
<path d="M48.6328 40.663H44.96V44.3359H48.6328V40.663Z" fill="black"/>
<path d="M52.2837 40.663H48.6108V44.3359H52.2837V40.663Z" fill="white"/>
<path d="M55.9575 40.663H52.2847V44.3359H55.9575V40.663Z" fill="black"/>
<path d="M59.6294 40.663H55.9565V44.3359H59.6294V40.663Z" fill="white"/>
<path d="M4.60058 44.3369H0.927734V48.0097H4.60058V44.3369Z" fill="white"/>
<path d="M8.27441 44.3369H4.60156V48.0097H8.27441V44.3369Z" fill="black"/>
<path d="M11.9463 44.3369H8.27344V48.0097H11.9463V44.3369Z" fill="#BF4400"/>
<path d="M15.5972 44.3369H11.9243V48.0097H15.5972V44.3369Z" fill="black"/>
<path d="M19.271 44.3369H15.5981V48.0097H19.271V44.3369Z" fill="#BF4400"/>
<path d="M22.9429 44.3369H19.27V48.0097H22.9429V44.3369Z" fill="#D95C17"/>
<path d="M26.6167 44.3369H22.9438V48.0097H26.6167V44.3369Z" fill="#D95C17"/>
<path d="M30.2886 44.3369H26.6157V48.0097H30.2886V44.3369Z" fill="#D95C17"/>
<path d="M33.9419 44.3369H30.269V48.0097H33.9419V44.3369Z" fill="#D95C17"/>
<path d="M37.6133 44.3369H33.9404V48.0097H37.6133V44.3369Z" fill="#D95C17"/>
<path d="M41.2871 44.3369H37.6143V48.0097H41.2871V44.3369Z" fill="#D95C17"/>
<path d="M44.959 44.3369H41.2861V48.0097H44.959V44.3369Z" fill="#D95C17"/>
<path d="M48.6328 44.3369H44.96V48.0097H48.6328V44.3369Z" fill="#BF4400"/>
<path d="M52.2837 44.3369H48.6108V48.0097H52.2837V44.3369Z" fill="black"/>
<path d="M55.9575 44.3369H52.2847V48.0097H55.9575V44.3369Z" fill="#BF4400"/>
<path d="M59.6294 44.3369H55.9565V48.0097H59.6294V44.3369Z" fill="black"/>
<path d="M63.3032 44.3369H59.6304V48.0097H63.3032V44.3369Z" fill="white"/>
<path d="M4.60058 47.9879H0.927734V51.6608H4.60058V47.9879Z" fill="white"/>
<path d="M8.27441 47.9879H4.60156V51.6608H8.27441V47.9879Z" fill="black"/>
<path d="M11.9463 47.9879H8.27344V51.6608H11.9463V47.9879Z" fill="#D95C17"/>
<path d="M15.5972 47.9879H11.9243V51.6608H15.5972V47.9879Z" fill="#D95C17"/>
<path d="M19.271 47.9879H15.5981V51.6608H19.271V47.9879Z" fill="black"/>
<path d="M22.9429 47.9879H19.27V51.6608H22.9429V47.9879Z" fill="#D95C17"/>
<path d="M26.6167 47.9879H22.9438V51.6608H26.6167V47.9879Z" fill="#FF8000"/>
<path d="M30.2886 47.9879H26.6157V51.6608H30.2886V47.9879Z" fill="#D95C17"/>
<path d="M33.9419 47.9879H30.269V51.6608H33.9419V47.9879Z" fill="#D95C17"/>
<path d="M37.6133 47.9879H33.9404V51.6608H37.6133V47.9879Z" fill="#FF8000"/>
<path d="M41.2871 47.9879H37.6143V51.6608H41.2871V47.9879Z" fill="#D95C17"/>
<path d="M44.959 47.9879H41.2861V51.6608H44.959V47.9879Z" fill="#D95C17"/>
<path d="M48.6328 47.9879H44.96V51.6608H48.6328V47.9879Z" fill="black"/>
<path d="M52.2837 47.9879H48.6108V51.6608H52.2837V47.9879Z" fill="#D95C17"/>
<path d="M55.9575 47.9879H52.2847V51.6608H55.9575V47.9879Z" fill="#FF8000"/>
<path d="M59.6294 47.9879H55.9565V51.6608H59.6294V47.9879Z" fill="black"/>
<path d="M63.3032 47.9879H59.6304V51.6608H63.3032V47.9879Z" fill="white"/>
<path d="M4.60058 51.6607H0.927734V55.3335H4.60058V51.6607Z" fill="white"/>
<path d="M8.27441 51.6607H4.60156V55.3335H8.27441V51.6607Z" fill="black"/>
<path d="M11.9463 51.6607H8.27344V55.3335H11.9463V51.6607Z" fill="#D95C17"/>
<path d="M15.5972 51.6607H11.9243V55.3335H15.5972V51.6607Z" fill="#FF8000"/>
<path d="M19.271 51.6607H15.5981V55.3335H19.271V51.6607Z" fill="#D95C17"/>
<path d="M22.9429 51.6607H19.27V55.3335H22.9429V51.6607Z" fill="#D95C17"/>
<path d="M26.6167 51.6607H22.9438V55.3335H26.6167V51.6607Z" fill="#FFAE33"/>
<path d="M30.2886 51.6607H26.6157V55.3335H30.2886V51.6607Z" fill="#D95C17"/>
<path d="M33.9419 51.6607H30.269V55.3335H33.9419V51.6607Z" fill="#D95C17"/>
<path d="M37.6133 51.6607H33.9404V55.3335H37.6133V51.6607Z" fill="#FFAE33"/>
<path d="M41.2871 51.6607H37.6143V55.3335H41.2871V51.6607Z" fill="#FF8000"/>
<path d="M44.959 51.6607H41.2861V55.3335H44.959V51.6607Z" fill="#D95C17"/>
<path d="M48.6328 51.6607H44.96V55.3335H48.6328V51.6607Z" fill="#D95C17"/>
<path d="M52.2837 51.6607H48.6108V55.3335H52.2837V51.6607Z" fill="#FF8000"/>
<path d="M55.9575 51.6607H52.2847V55.3335H55.9575V51.6607Z" fill="#D95C17"/>
<path d="M59.6294 51.6607H55.9565V55.3335H59.6294V51.6607Z" fill="#D95C17"/>
<path d="M63.3032 51.6607H59.6304V55.3335H63.3032V51.6607Z" fill="black"/>
<path d="M66.9751 51.6607H63.3022V55.3335H66.9751V51.6607Z" fill="white"/>
<path d="M4.60058 55.3335H0.927734V59.0063H4.60058V55.3335Z" fill="white"/>
<path d="M8.27441 55.3335H4.60156V59.0063H8.27441V55.3335Z" fill="black"/>
<path d="M11.9463 55.3335H8.27344V59.0063H11.9463V55.3335Z" fill="#D95C17"/>
<path d="M15.5972 55.3335H11.9243V59.0063H15.5972V55.3335Z" fill="#FF8000"/>
<path d="M19.271 55.3335H15.5981V59.0063H19.271V55.3335Z" fill="#D95C17"/>
<path d="M22.9429 55.3335H19.27V59.0063H22.9429V55.3335Z" fill="#D95C17"/>
<path d="M26.6167 55.3335H22.9438V59.0063H26.6167V55.3335Z" fill="#D95C17"/>
<path d="M30.2886 55.3335H26.6157V59.0063H30.2886V55.3335Z" fill="#D95C17"/>
<path d="M33.9419 55.3335H30.269V59.0063H33.9419V55.3335Z" fill="#FF8000"/>
<path d="M37.6133 55.3335H33.9404V59.0063H37.6133V55.3335Z" fill="#FFBF66"/>
<path d="M41.2871 55.3335H37.6143V59.0063H41.2871V55.3335Z" fill="#FFAE33"/>
<path d="M44.959 55.3335H41.2861V59.0063H44.959V55.3335Z" fill="#D95C17"/>
<path d="M48.6328 55.3335H44.96V59.0063H48.6328V55.3335Z" fill="#FF8000"/>
<path d="M52.2837 55.3335H48.6108V59.0063H52.2837V55.3335Z" fill="#D95C17"/>
<path d="M55.9575 55.3335H52.2847V59.0063H55.9575V55.3335Z" fill="#D95C17"/>
<path d="M59.6294 55.3335H55.9565V59.0063H59.6294V55.3335Z" fill="#FF8000"/>
<path d="M63.3032 55.3335H59.6304V59.0063H63.3032V55.3335Z" fill="black"/>
<path d="M66.9751 55.3335H63.3022V59.0063H66.9751V55.3335Z" fill="white"/>
<path d="M4.60058 59.0063H0.927734V62.6791H4.60058V59.0063Z" fill="white"/>
<path d="M8.27441 59.0063H4.60156V62.6791H8.27441V59.0063Z" fill="black"/>
<path d="M11.9463 59.0063H8.27344V62.6791H11.9463V59.0063Z" fill="#D95C17"/>
<path d="M15.5972 59.0063H11.9243V62.6791H15.5972V59.0063Z" fill="#D95C17"/>
<path d="M19.271 59.0063H15.5981V62.6791H19.271V59.0063Z" fill="#FFAE33"/>
<path d="M22.9429 59.0063H19.27V62.6791H22.9429V59.0063Z" fill="#D95C17"/>
<path d="M26.6167 59.0063H22.9438V62.6791H26.6167V59.0063Z" fill="#D95C17"/>
<path d="M30.2886 59.0063H26.6157V62.6791H30.2886V59.0063Z" fill="#FF8000"/>
<path d="M33.9419 59.0063H30.269V62.6791H33.9419V59.0063Z" fill="#FFBF66"/>
<path d="M37.6133 59.0063H33.9404V62.6791H37.6133V59.0063Z" fill="#FFBF66"/>
<path d="M41.2871 59.0063H37.6143V62.6791H41.2871V59.0063Z" fill="#FFBF66"/>
<path d="M44.959 59.0063H41.2861V62.6791H44.959V59.0063Z" fill="#FFAE33"/>
<path d="M48.6328 59.0063H44.96V62.6791H48.6328V59.0063Z" fill="#FFBF66"/>
<path d="M52.2837 59.0063H48.6108V62.6791H52.2837V59.0063Z" fill="#FFAE33"/>
<path d="M55.9575 59.0063H52.2847V62.6791H55.9575V59.0063Z" fill="#FF8000"/>
<path d="M59.6294 59.0063H55.9565V62.6791H59.6294V59.0063Z" fill="#D95C17"/>
<path d="M63.3032 59.0063H59.6304V62.6791H63.3032V59.0063Z" fill="black"/>
<path d="M66.9751 59.0063H63.3022V62.6791H66.9751V59.0063Z" fill="white"/>
<path d="M4.60058 62.6791H0.927734V66.352H4.60058V62.6791Z" fill="white"/>
<path d="M8.27441 62.6791H4.60156V66.352H8.27441V62.6791Z" fill="black"/>
<path d="M11.9463 62.6791H8.27344V66.352H11.9463V62.6791Z" fill="#BF4400"/>
<path d="M15.5972 62.6791H11.9243V66.352H15.5972V62.6791Z" fill="#D95C17"/>
<path d="M19.271 62.6791H15.5981V66.352H19.271V62.6791Z" fill="#FF8000"/>
<path d="M22.9429 62.6791H19.27V66.352H22.9429V62.6791Z" fill="#FFAE33"/>
<path d="M26.6167 62.6791H22.9438V66.352H26.6167V62.6791Z" fill="#FFAE33"/>
<path d="M30.2886 62.6791H26.6157V66.352H30.2886V62.6791Z" fill="#FFBF66"/>
<path d="M33.9419 62.6791H30.269V66.352H33.9419V62.6791Z" fill="white"/>
<path d="M37.6133 62.6791H33.9404V66.352H37.6133V62.6791Z" fill="white"/>
<path d="M41.2871 62.6791H37.6143V66.352H41.2871V62.6791Z" fill="white"/>
<path d="M44.959 62.6791H41.2861V66.352H44.959V62.6791Z" fill="#FFBF66"/>
<path d="M48.6328 62.6791H44.96V66.352H48.6328V62.6791Z" fill="#FFAE33"/>
<path d="M52.2837 62.6791H48.6108V66.352H52.2837V62.6791Z" fill="#FF8000"/>
<path d="M55.9575 62.6791H52.2847V66.352H55.9575V62.6791Z" fill="#D95C17"/>
<path d="M59.6294 62.6791H55.9565V66.352H59.6294V62.6791Z" fill="#BF4400"/>
<path d="M63.3032 62.6791H59.6304V66.352H63.3032V62.6791Z" fill="black"/>
<path d="M66.9751 62.6791H63.3022V66.352H66.9751V62.6791Z" fill="white"/>
<path d="M8.27441 66.3312H4.60156V70.004H8.27441V66.3312Z" fill="white"/>
<path d="M11.9463 66.3312H8.27344V70.004H11.9463V66.3312Z" fill="black"/>
<path d="M15.5972 66.3312H11.9243V70.004H15.5972V66.3312Z" fill="#BF4400"/>
<path d="M19.271 66.3312H15.5981V70.004H19.271V66.3312Z" fill="#D95C17"/>
<path d="M22.9429 66.3312H19.27V70.004H22.9429V66.3312Z" fill="#FF8000"/>
<path d="M26.6167 66.3312H22.9438V70.004H26.6167V66.3312Z" fill="#FFBF66"/>
<path d="M30.2886 66.3312H26.6157V70.004H30.2886V66.3312Z" fill="white"/>
<path d="M33.9419 66.3312H30.269V70.004H33.9419V66.3312Z" fill="white"/>
<path d="M37.6133 66.3312H33.9404V70.004H37.6133V66.3312Z" fill="white"/>
<path d="M41.2871 66.3312H37.6143V70.004H41.2871V66.3312Z" fill="white"/>
<path d="M44.959 66.3312H41.2861V70.004H44.959V66.3312Z" fill="white"/>
<path d="M48.6328 66.3312H44.96V70.004H48.6328V66.3312Z" fill="#FFBF66"/>
<path d="M52.2837 66.3312H48.6108V70.004H52.2837V66.3312Z" fill="#FF8000"/>
<path d="M55.9575 66.3312H52.2847V70.004H55.9575V66.3312Z" fill="#D95C17"/>
<path d="M59.6294 66.3312H55.9565V70.004H59.6294V66.3312Z" fill="black"/>
<path d="M63.3032 66.3312H59.6304V70.004H63.3032V66.3312Z" fill="white"/>
<path d="M11.9463 70.004H8.27344V73.6768H11.9463V70.004Z" fill="white"/>
<path d="M15.5972 70.004H11.9243V73.6768H15.5972V70.004Z" fill="black"/>
<path d="M19.271 70.004H15.5981V73.6768H19.271V70.004Z" fill="#BF4400"/>
<path d="M22.9429 70.004H19.27V73.6768H22.9429V70.004Z" fill="#FF8000"/>
<path d="M26.6167 70.004H22.9438V73.6768H26.6167V70.004Z" fill="#FFAE33"/>
<path d="M30.2886 70.004H26.6157V73.6768H30.2886V70.004Z" fill="white"/>
<path d="M33.9419 70.004H30.269V73.6768H33.9419V70.004Z" fill="white"/>
<path d="M37.6133 70.004H33.9404V73.6768H37.6133V70.004Z" fill="white"/>
<path d="M41.2871 70.004H37.6143V73.6768H41.2871V70.004Z" fill="white"/>
<path d="M44.959 70.004H41.2861V73.6768H44.959V70.004Z" fill="#FFBF66"/>
<path d="M48.6328 70.004H44.96V73.6768H48.6328V70.004Z" fill="#FF8000"/>
<path d="M52.2837 70.004H48.6108V73.6768H52.2837V70.004Z" fill="#D95C17"/>
<path d="M55.9575 70.004H52.2847V73.6768H55.9575V70.004Z" fill="#BF4400"/>
<path d="M59.6294 70.004H55.9565V73.6768H59.6294V70.004Z" fill="black"/>
<path d="M63.3032 70.004H59.6304V73.6768H63.3032V70.004Z" fill="white"/>
<path d="M15.5972 73.6768H11.9243V77.3497H15.5972V73.6768Z" fill="white"/>
<path d="M19.271 73.6768H15.5981V77.3497H19.271V73.6768Z" fill="black"/>
<path d="M22.9429 73.6768H19.27V77.3497H22.9429V73.6768Z" fill="black"/>
<path d="M26.6167 73.6768H22.9438V77.3497H26.6167V73.6768Z" fill="#FFAE33"/>
<path d="M30.2886 73.6768H26.6157V77.3497H30.2886V73.6768Z" fill="#FFBF66"/>
<path d="M33.9419 73.6768H30.269V77.3497H33.9419V73.6768Z" fill="white"/>
<path d="M37.6133 73.6768H33.9404V77.3497H37.6133V73.6768Z" fill="white"/>
<path d="M41.2871 73.6768H37.6143V77.3497H41.2871V73.6768Z" fill="white"/>
<path d="M44.959 73.6768H41.2861V77.3497H44.959V73.6768Z" fill="#FFBF66"/>
<path d="M48.6328 73.6768H44.96V77.3497H48.6328V73.6768Z" fill="#BF4400"/>
<path d="M52.2837 73.6768H48.6108V77.3497H52.2837V73.6768Z" fill="#BF4400"/>
<path d="M55.9575 73.6768H52.2847V77.3497H55.9575V73.6768Z" fill="black"/>
<path d="M59.6294 73.6768H55.9565V77.3497H59.6294V73.6768Z" fill="white"/>
<path d="M63.3032 73.6768H59.6304V77.3497H63.3032V73.6768Z" fill="white"/>
<path d="M19.271 77.3496H15.5981V81.0225H19.271V77.3496Z" fill="white"/>
<path d="M22.9429 77.3496H19.27V81.0225H22.9429V77.3496Z" fill="white"/>
<path d="M26.6167 77.3496H22.9438V81.0225H26.6167V77.3496Z" fill="black"/>
<path d="M30.2886 77.3496H26.6157V81.0225H30.2886V77.3496Z" fill="black"/>
<path d="M33.9419 77.3496H30.269V81.0225H33.9419V77.3496Z" fill="black"/>
<path d="M37.6133 77.3496H33.9404V81.0225H37.6133V77.3496Z" fill="black"/>
<path d="M41.2871 77.3496H37.6143V81.0225H41.2871V77.3496Z" fill="black"/>
<path d="M44.959 77.3496H41.2861V81.0225H44.959V77.3496Z" fill="black"/>
<path d="M48.6328 77.3496H44.96V81.0225H48.6328V77.3496Z" fill="black"/>
<path d="M52.2837 77.3496H48.6108V81.0225H52.2837V77.3496Z" fill="black"/>
<path d="M55.9575 77.3496H52.2847V81.0225H55.9575V77.3496Z" fill="white"/>
<path d="M59.6294 77.3496H55.9565V81.0225H59.6294V77.3496Z" fill="white"/>
<path d="M22.9429 81.0224H19.27V84.6952H22.9429V81.0224Z" fill="white"/>
<path d="M26.6167 81.0224H22.9438V84.6952H26.6167V81.0224Z" fill="white"/>
<path d="M30.2886 81.0224H26.6157V84.6952H30.2886V81.0224Z" fill="white"/>
<path d="M33.9419 81.0224H30.269V84.6952H33.9419V81.0224Z" fill="white"/>
<path d="M37.6133 81.0224H33.9404V84.6952H37.6133V81.0224Z" fill="white"/>
<path d="M41.2871 81.0224H37.6143V84.6952H41.2871V81.0224Z" fill="white"/>
<path d="M44.959 81.0224H41.2861V84.6952H44.959V81.0224Z" fill="white"/>
<path d="M48.6328 81.0224H44.96V84.6952H48.6328V81.0224Z" fill="white"/>
<path d="M52.2837 81.0224H48.6108V84.6952H52.2837V81.0224Z" fill="white"/>
<path d="M55.9575 81.0224H52.2847V84.6952H55.9575V81.0224Z" fill="white"/>
</svg>
