<svg width="217" height="52" viewBox="0 0 217 52" fill="none" xmlns="http://www.w3.org/2000/svg">
<rect x="5.52539" y="6.45764" width="205.745" height="31.1633" fill="white"/>
<path d="M8.27356 34.8723H5.5249V37.621H8.27356V34.8723Z" fill="white" stroke="white" stroke-width="5.43327" stroke-miterlimit="10"/>
<path d="M211.27 6.45764H208.521V9.2063H211.27V6.45764Z" fill="white" stroke="white" stroke-width="5.43327" stroke-miterlimit="10"/>
<path d="M197.143 37.6211H8.27393V40.3698H197.143V37.6211Z" fill="white" stroke="white" stroke-width="5.43327" stroke-miterlimit="10"/>
<path d="M214.019 9.19382H211.271V34.8722H214.019V9.19382Z" fill="white" stroke="white" stroke-width="5.43327" stroke-miterlimit="10"/>
<path d="M208.522 3.69653H8.27393V6.4452H208.522V3.69653Z" fill="white" stroke="white" stroke-width="5.43327" stroke-miterlimit="10"/>
<path d="M5.52503 9.19385H2.77637V34.8723H5.52503V9.19385Z" fill="white" stroke="white" stroke-width="5.43327" stroke-miterlimit="10"/>
<path d="M201.846 6.44519H199.097V9.19385H201.846V6.44519Z" fill="white" stroke="white" stroke-width="5.43327" stroke-miterlimit="10"/>
<path d="M211.271 34.8722H208.521V37.6209H211.271V34.8722Z" fill="white" stroke="white" stroke-width="5.43327" stroke-miterlimit="10"/>
<path d="M8.27405 6.44519H5.52539V9.19385H8.27405V6.44519Z" fill="white" stroke="white" stroke-width="5.43327" stroke-miterlimit="10"/>
<path d="M202.634 43.1125H199.891V46.2514H202.634V49H205.383V40.3697H208.521V37.621H202.634V43.1125Z" fill="white" stroke="white" stroke-width="5.43327" stroke-miterlimit="10"/>
<path d="M8.27405 34.8723H5.52539V37.621H8.27405V34.8723Z" fill="black"/>
<path d="M199.891 40.3697H197.143V43.1183H199.891V40.3697Z" fill="black"/>
<path d="M197.143 37.6212H8.27344V40.3699H197.143V37.6212Z" fill="black"/>
<path d="M214.019 9.19382H211.271V34.8722H214.019V9.19382Z" fill="black"/>
<path d="M208.522 3.69653H8.27344V6.4452H208.522V3.69653Z" fill="black"/>
<path d="M5.52503 9.19385H2.77637V34.8723H5.52503V9.19385Z" fill="black"/>
<path d="M211.271 6.44519H208.522V9.19385H211.271V6.44519Z" fill="black"/>
<path d="M211.271 34.8723H208.522V37.6209H211.271V34.8723Z" fill="black"/>
<path d="M8.27405 6.44519H5.52539V9.19385H8.27405V6.44519Z" fill="black"/>
<path d="M202.634 43.1125H199.892V46.2514H202.634V49H205.383V40.3697H208.522V37.621H202.634V43.1125Z" fill="black"/>
<path d="M19.4085 13.6576V20.3776H16.0485V13.6576H12.6885V30.4576H16.0485V23.7376H19.4085V30.4576H22.7685V13.6576H19.4085ZM29.4782 17.0176H36.1982V13.6576H26.1182V30.4576H36.1982V27.0976H29.4782V23.7376H32.8382V20.3776H29.4782V17.0176ZM49.6279 13.6576H39.5479V17.0176H42.9079V30.4576H46.2679V17.0176H49.6279V13.6576ZM73.1441 20.3776H63.0641V17.0176H69.7841V13.6576H59.7041V30.4576H69.7841V27.0976H63.0641V23.7376H69.7841V27.0976H73.1441V20.3776ZM79.8688 20.3776V13.6576H76.5088V30.4576H79.8688V23.7376H83.2288V20.3776H79.8688ZM86.5888 13.6576V17.0176H83.2288V20.3776H86.5888V30.4576H89.9488V13.6576H86.5888ZM103.393 13.6576H93.3135V30.4576H96.6735V17.0176H103.393V13.6576ZM116.823 20.3776H106.743V23.7376H116.823V20.3776ZM133.613 20.3776H123.533V17.0176H130.253V13.6576H120.173V30.4576H130.253V27.0976H123.533V23.7376H130.253V27.0976H133.613V20.3776ZM147.058 13.6576H140.338V17.0176H143.698V27.0976H140.338V17.0176H136.978V30.4576H147.058V13.6576ZM160.487 17.0176V13.6576H153.767V17.0176H160.487ZM153.767 27.0976V17.0176H150.407V30.4576H160.487V27.0976H153.767ZM173.917 17.0176V13.6576H167.197V17.0176H173.917ZM167.197 27.0976V17.0176H163.837V30.4576H173.917V27.0976H167.197ZM187.347 13.6576H180.627V17.0176H183.987V27.0976H180.627V17.0176H177.267V30.4576H187.347V13.6576ZM200.776 20.3776H194.056V17.0176H200.776V13.6576H190.696V30.4576H200.776V27.0976H194.056V23.7376H200.776V20.3776ZM204.136 20.3776V17.0176H200.776V20.3776H204.136ZM204.136 27.0976V23.7376H200.776V27.0976H204.136Z" fill="black"/>
</svg>
