<svg width="204" height="52" viewBox="0 0 204 52" fill="none" xmlns="http://www.w3.org/2000/svg">
<rect width="191.873" height="31.1758" transform="matrix(-1 0 0 1 197.814 6.10449)" fill="white"/>
<path d="M195.579 34.5312H198.328V37.2799H195.579V34.5312Z" fill="white" stroke="white" stroke-width="5.43327" stroke-miterlimit="10"/>
<path d="M14.5707 40.0283H17.3193V42.777H14.5707V40.0283Z" fill="white" stroke="white" stroke-width="5.43327" stroke-miterlimit="10"/>
<path d="M5.93981 6.10449H8.68848V8.85316H5.93981V6.10449Z" fill="white" stroke="white" stroke-width="5.43327" stroke-miterlimit="10"/>
<path d="M3.19079 34.5312H5.93945V37.2799H3.19079V34.5312Z" fill="white" stroke="white" stroke-width="5.43327" stroke-miterlimit="10"/>
<path d="M17.3193 37.2803H195.579V40.0289H17.3193V37.2803Z" fill="white" stroke="white" stroke-width="5.43327" stroke-miterlimit="10"/>
<path d="M3.19177 8.85254H5.94043V34.5309H3.19177V8.85254Z" fill="white" stroke="white" stroke-width="5.43327" stroke-miterlimit="10"/>
<path d="M8.68852 3.35547H195.579V6.10413H8.68852V3.35547Z" fill="white" stroke="white" stroke-width="5.43327" stroke-miterlimit="10"/>
<path d="M198.328 8.85254H201.077V34.5309H198.328V8.85254Z" fill="white" stroke="white" stroke-width="5.43327" stroke-miterlimit="10"/>
<path d="M20.8124 6.10449H23.561V8.85315H20.8124V6.10449Z" fill="white" stroke="white" stroke-width="5.43327" stroke-miterlimit="10"/>
<path d="M195.579 6.10449H198.328V8.85315H195.579V6.10449Z" fill="white" stroke="white" stroke-width="5.43327" stroke-miterlimit="10"/>
<path d="M11.8275 42.7718H14.5703V45.9106H11.8275V48.6593H9.07882V40.0289H5.93997V37.2803H11.8275V42.7718Z" fill="white" stroke="white" stroke-width="5.43327" stroke-miterlimit="10"/>
<path d="M195.579 34.5312H198.328V37.2799H195.579V34.5312Z" fill="black"/>
<path d="M14.5707 40.0283H17.3193V42.777H14.5707V40.0283Z" fill="black"/>
<path d="M17.3193 37.2803H195.579V40.0289H17.3193V37.2803Z" fill="black"/>
<path d="M3.19177 8.85254H5.94043V37.2798H3.19177V8.85254Z" fill="black"/>
<path d="M8.68854 3.35547H195.579V6.10413H8.68854V3.35547Z" fill="black"/>
<path d="M198.328 8.85254H201.077V34.5309H198.328V8.85254Z" fill="black"/>
<path d="M5.93981 6.10449H8.68848V8.85315H5.93981V6.10449Z" fill="black"/>
<path d="M195.579 6.10449H198.328V8.85315H195.579V6.10449Z" fill="black"/>
<path d="M11.8275 42.7718H14.5703V45.9106H11.8275V48.6593H9.07882V40.0289H5.93997V37.2803H11.8275V42.7718Z" fill="black"/>
<path d="M23.1708 13.3045H13.0908V16.6645H16.4508V30.1045H19.8108V16.6645H23.1708V13.3045ZM29.8805 20.0245V13.3045H26.5205V30.1045H29.8805V23.3845H33.2405V20.0245H29.8805ZM36.6005 13.3045V16.6645H33.2405V20.0245H36.6005V30.1045H39.9605V13.3045H36.6005ZM46.6852 16.6645V13.3045H43.3252V30.1045H46.6852V20.0245H50.0452V16.6645H46.6852ZM56.7652 13.3045V16.6645H53.4052V20.0245H56.7652V30.1045H60.1252V13.3045H56.7652ZM50.0452 23.3845H53.4052V20.0245H50.0452V23.3845ZM76.9214 20.0245H66.8414V16.6645H73.5614V13.3045H63.4814V30.1045H73.5614V26.7445H66.8414V23.3845H73.5614V26.7445H76.9214V20.0245ZM83.6461 20.0245V13.3045H80.2861V30.1045H83.6461V23.3845H87.0061V20.0245H83.6461ZM90.3661 13.3045V16.6645H87.0061V20.0245H90.3661V30.1045H93.7261V13.3045H90.3661ZM110.531 13.3045H103.811V16.6645H107.171V30.1045H110.531V13.3045ZM100.451 16.6645V26.7445H97.0908V30.1045H103.811V16.6645H100.451ZM127.336 26.7445V13.3045H120.616V16.6645H123.976V26.7445H120.616V16.6645H117.256V26.7445H113.896V30.1045H130.696V26.7445H127.336ZM137.412 20.0245V13.3045H134.052V30.1045H137.412V23.3845H140.772V20.0245H137.412ZM144.132 13.3045V16.6645H140.772V20.0245H144.132V30.1045H147.492V13.3045H144.132ZM157.576 13.3045V20.0245H154.216V13.3045H150.856V30.1045H154.216V23.3845H157.576V30.1045H160.936V13.3045H157.576ZM174.366 13.3045H164.286V30.1045H167.646V16.6645H174.366V13.3045ZM181.076 20.0245V13.3045H177.716V30.1045H181.076V23.3845H184.436V20.0245H181.076ZM187.796 13.3045V16.6645H184.436V20.0245H187.796V30.1045H191.156V13.3045H187.796Z" fill="black"/>
</svg>
