<svg width="357" height="53" viewBox="0 0 357 53" fill="none" xmlns="http://www.w3.org/2000/svg">
<rect width="350" height="31" transform="matrix(-1 0 0 1 351 7)" fill="white"/>
<path d="M18 41H21V44H18V41Z" fill="black" stroke="white" stroke-width="5"/>
<path d="M15 44L18 43.9915V47H15V50H12V41H9V38H15V44Z" stroke="white" stroke-width="5"/>
<path d="M348 35H351V38H348V35Z" fill="white" stroke="white" stroke-width="5.43327" stroke-miterlimit="10"/>
<path d="M6 6H9V9H6V6Z" fill="white" stroke="white" stroke-width="5.43327" stroke-miterlimit="10"/>
<path d="M18 38H348V41H18V38Z" fill="white" stroke="white" stroke-width="5.43327" stroke-miterlimit="10"/>
<path d="M3 9H6V35H3V9Z" fill="white" stroke="white" stroke-width="5.43327" stroke-miterlimit="10"/>
<path d="M9 3H348V6H9V3Z" fill="white" stroke="white" stroke-width="5.43327" stroke-miterlimit="10"/>
<path d="M351 9H354V35H351V9Z" fill="white" stroke="white" stroke-width="5.43327" stroke-miterlimit="10"/>
<path d="M17.9308 6.74866H20.6794V9.49732H17.9308V6.74866Z" fill="white" stroke="white" stroke-width="5.43327" stroke-miterlimit="10"/>
<path d="M6 35H9V38H6V35Z" fill="white" stroke="white" stroke-width="5.43327" stroke-miterlimit="10"/>
<path d="M348 6H351V9H348V6Z" fill="white" stroke="white" stroke-width="5.43327" stroke-miterlimit="10"/>
<path d="M348 35H351V38H348V35Z" fill="black"/>
<path d="M21 38H348V41H21V38Z" fill="black"/>
<path d="M3 9H6V35H3V9Z" fill="black"/>
<path d="M9 3H348V6H9V3Z" fill="black"/>
<path d="M351 9H354V35H351V9Z" fill="black"/>
<path d="M6 6H9V9H6V6Z" fill="black"/>
<path d="M6 35H9V38H6V35Z" fill="black"/>
<path d="M348 6H351V9H348V6Z" fill="black"/>
<path d="M15 44L18 43.9915V47H15V50H12V41H9V38H15V44Z" fill="black"/>
<path d="M18 41H21V44H18V41Z" fill="black"/>
<path d="M17.2721 17.3211H20.6321V20.6811H17.2721V30.7611H13.9121V13.9611H17.2721V17.3211ZM27.3521 13.9611H30.7121V30.7611H27.3521V20.6811H23.9921V17.3211H27.3521V13.9611ZM20.6321 24.0411V20.6811H23.9921V24.0411H20.6321ZM47.5084 13.9611V30.7611H44.1484V25.7211H37.4284V30.7611H34.0684V17.3211H37.4284V22.3611H44.1484V17.3211H37.4284V13.9611H47.5084ZM60.953 17.3211H54.233V13.9611H60.953V17.3211ZM54.233 27.4011H60.953V30.7611H50.873V17.3211H54.233V27.4011ZM77.7427 13.9611H81.1027V30.7611H64.3027V13.9611H67.6627V27.4011H71.0227V13.9611H74.3827V27.4011H77.7427V13.9611ZM94.539 13.9611V17.3211H91.179V30.7611H87.819V17.3211H84.459V13.9611H94.539ZM111.329 13.9611V30.7611H107.969V25.7211H101.249V30.7611H97.8887V17.3211H101.249V22.3611H107.969V17.3211H101.249V13.9611H111.329ZM128.133 20.6811V27.4011H124.773V24.0411H118.053V27.4011H124.773V30.7611H114.693V13.9611H124.773V17.3211H118.053V20.6811H128.133ZM138.218 13.9611H141.578V30.7611H138.218V24.0411H134.858V30.7611H131.498V13.9611H134.858V20.6811H138.218V13.9611ZM148.288 20.6811H155.008V30.7611H144.928V13.9611H148.288V20.6811ZM158.368 13.9611H161.728V30.7611H158.368V13.9611ZM151.648 27.4011V24.0411H148.288V27.4011H151.648ZM168.444 17.3211V20.6811H171.804V24.0411H168.444V27.4011H175.164V30.7611H165.084V13.9611H175.164V17.3211H168.444ZM188.6 17.3211H191.96V20.6811H188.6V30.7611H185.24V13.9611H188.6V17.3211ZM198.68 13.9611H202.04V30.7611H198.68V20.6811H195.32V17.3211H198.68V13.9611ZM191.96 24.0411V20.6811H195.32V24.0411H191.96ZM208.756 17.3211V20.6811H212.116V24.0411H208.756V27.4011H215.476V30.7611H205.396V13.9611H215.476V17.3211H208.756ZM228.906 13.9611V24.0411H222.186V30.7611H218.826V13.9611H228.906ZM225.546 20.6811V17.3211H222.186V20.6811H225.546ZM242.336 13.9611V30.7611H232.256V17.3211H235.616V27.4011H238.976V17.3211H235.616V13.9611H242.336ZM255.766 13.9611V30.7611H252.406V17.3211H249.046V30.7611H245.686V13.9611H255.766ZM269.195 13.9611V24.0411H262.475V30.7611H259.115V13.9611H269.195ZM265.835 20.6811V17.3211H262.475V20.6811H265.835ZM275.905 20.6811H279.265V24.0411H275.905V30.7611H272.545V13.9611H275.905V20.6811ZM282.625 13.9611H285.985V30.7611H282.625V20.6811H279.265V17.3211H282.625V13.9611ZM299.43 13.9611V30.7611H296.07V24.0411H292.71V20.6811H296.07V17.3211H292.71V20.6811H289.35V13.9611H299.43ZM289.35 24.0411H292.71V30.7611H289.35V24.0411ZM312.859 13.9611V17.3211H309.499V30.7611H306.139V17.3211H302.779V13.9611H312.859ZM319.569 20.6811H322.929V24.0411H319.569V30.7611H316.209V13.9611H319.569V20.6811ZM326.289 13.9611H329.649V30.7611H326.289V20.6811H322.929V17.3211H326.289V13.9611ZM343.094 13.9611V30.7611H339.734V24.0411H336.374V20.6811H339.734V17.3211H336.374V20.6811H333.014V13.9611H343.094ZM333.014 24.0411H336.374V30.7611H333.014V24.0411Z" fill="black"/>
</svg>
