<svg width="445" height="53" viewBox="0 0 445 53" fill="none" xmlns="http://www.w3.org/2000/svg">
<rect width="431" height="31" transform="matrix(-1 0 0 1 439 7)" fill="white"/>
<path d="M18 41H21V44H18V41Z" fill="black" stroke="white" stroke-width="5"/>
<path d="M15 44L18 43.9915V47H15V50H12V41H9V38H15V44Z" stroke="white" stroke-width="5"/>
<path d="M436 35H439V38H436V35Z" fill="white" stroke="white" stroke-width="5.43327" stroke-miterlimit="10"/>
<path d="M6 6H9V9H6V6Z" fill="white" stroke="white" stroke-width="5.43327" stroke-miterlimit="10"/>
<path d="M19 38H436V41H19V38Z" fill="white" stroke="white" stroke-width="5.43327" stroke-miterlimit="10"/>
<path d="M3 9H6V35H3V9Z" fill="white" stroke="white" stroke-width="5.43327" stroke-miterlimit="10"/>
<path d="M9 3H436V6H9V3Z" fill="white" stroke="white" stroke-width="5.43327" stroke-miterlimit="10"/>
<path d="M439 9H442V35H439V9Z" fill="white" stroke="white" stroke-width="5.43327" stroke-miterlimit="10"/>
<path d="M17.9308 6.74866H20.6794V9.49732H17.9308V6.74866Z" fill="white" stroke="white" stroke-width="5.43327" stroke-miterlimit="10"/>
<path d="M6 35H9V38H6V35Z" fill="white" stroke="white" stroke-width="5.43327" stroke-miterlimit="10"/>
<path d="M436 6H439V9H436V6Z" fill="white" stroke="white" stroke-width="5.43327" stroke-miterlimit="10"/>
<path d="M436 35H439V38H436V35Z" fill="black"/>
<path d="M21 38H436V41H21V38Z" fill="black"/>
<path d="M3 9H6V35H3V9Z" fill="black"/>
<path d="M9 3H436V6H9V3Z" fill="black"/>
<path d="M439 9H442V35H439V9Z" fill="black"/>
<path d="M6 6H9V9H6V6Z" fill="black"/>
<path d="M6 35H9V38H6V35Z" fill="black"/>
<path d="M436 6H439V9H436V6Z" fill="black"/>
<path d="M15 44L18 43.9915V47H15V50H12V41H9V38H15V44Z" fill="black"/>
<path d="M18 41H21V44H18V41Z" fill="black"/>
<path d="M23.9921 13.9611V24.0411H17.2721V30.7611H13.9121V13.9611H23.9921ZM20.6321 20.6811V17.3211H17.2721V20.6811H20.6321ZM40.7818 13.9611V30.7611H37.4218V25.7211H30.7018V30.7611H27.3418V17.3211H30.7018V22.3611H37.4218V17.3211H30.7018V13.9611H40.7818ZM54.2265 13.9611V20.6811H50.8665V17.3211H44.1465V13.9611H54.2265ZM44.1465 20.6811H50.8665V24.0411H44.1465V20.6811ZM50.8665 27.4011V24.0411H54.2265V30.7611H44.1465V27.4011H50.8665ZM64.2962 13.9611H67.6562V30.7611H64.2962V24.0411H60.9362V30.7611H57.5762V13.9611H60.9362V20.6811H64.2962V13.9611ZM84.4459 13.9611V30.7611H81.0859V25.7211H74.3659V30.7611H71.0059V17.3211H74.3659V22.3611H81.0859V17.3211H74.3659V13.9611H84.4459ZM97.8905 13.9611V30.7611H94.5305V24.0411H91.1705V20.6811H94.5305V17.3211H91.1705V20.6811H87.8105V13.9611H97.8905ZM87.8105 24.0411H91.1705V30.7611H87.8105V24.0411ZM111.327 20.6811H114.687V24.0411H111.327V30.7611H107.967V13.9611H111.327V20.6811ZM114.687 13.9611H118.047V20.6811H114.687V13.9611ZM114.687 30.7611V24.0411H118.047V30.7611H114.687ZM134.836 13.9611V30.7611H131.476V25.7211H124.756V30.7611H121.396V17.3211H124.756V22.3611H131.476V17.3211H124.756V13.9611H134.836ZM148.281 13.9611V24.0411H141.561V30.7611H138.201V13.9611H148.281ZM144.921 20.6811V17.3211H141.561V20.6811H144.921ZM161.711 20.6811V30.7611H151.631V13.9611H154.991V20.6811H161.711ZM158.351 27.4011V24.0411H154.991V27.4011H158.351ZM168.421 17.3211V20.6811H171.781V24.0411H168.421V27.4011H175.141V30.7611H165.061V13.9611H175.141V17.3211H168.421ZM188.57 13.9611V24.0411H181.85V30.7611H178.49V13.9611H188.57ZM185.21 20.6811V17.3211H181.85V20.6811H185.21ZM205.36 13.9611V30.7611H202V25.7211H195.28V30.7611H191.92V17.3211H195.28V22.3611H202V17.3211H195.28V13.9611H205.36ZM228.891 27.4011H232.251V30.7611H215.451V27.4011H218.811V17.3211H222.171V27.4011H225.531V17.3211H222.171V13.9611H228.891V27.4011ZM249.047 13.9611V30.7611H245.687V17.3211H242.327V13.9611H249.047ZM238.967 17.3211H242.327V30.7611H235.607V27.4011H238.967V17.3211ZM262.492 13.9611V30.7611H259.132V24.0411H255.772V20.6811H259.132V17.3211H255.772V20.6811H252.412V13.9611H262.492ZM252.412 24.0411H255.772V30.7611H252.412V24.0411ZM282.648 13.9611V24.0411H275.928V30.7611H272.568V13.9611H282.648ZM279.288 20.6811V17.3211H275.928V20.6811H279.288ZM299.438 13.9611V30.7611H296.078V25.7211H289.358V30.7611H285.998V17.3211H289.358V22.3611H296.078V17.3211H289.358V13.9611H299.438ZM312.883 13.9611V20.6811H309.523V17.3211H302.803V13.9611H312.883ZM302.803 20.6811H309.523V24.0411H302.803V20.6811ZM309.523 27.4011V24.0411H312.883V30.7611H302.803V27.4011H309.523ZM322.952 13.9611H326.312V30.7611H322.952V24.0411H319.592V30.7611H316.232V13.9611H319.592V20.6811H322.952V13.9611ZM339.742 13.9611V30.7611H329.662V17.3211H333.022V27.4011H336.382V17.3211H333.022V13.9611H339.742ZM353.172 13.9611V17.3211H346.452V30.7611H343.092V13.9611H353.172ZM366.601 13.9611V30.7611H356.521V17.3211H359.881V27.4011H363.241V17.3211H359.881V13.9611H366.601ZM386.758 13.9611V17.3211H383.398V30.7611H380.038V17.3211H376.678V13.9611H386.758ZM393.467 17.3211V20.6811H396.827V24.0411H393.467V27.4011H400.187V30.7611H390.107V13.9611H400.187V17.3211H393.467ZM416.977 20.6811V27.4011H413.617V24.0411H406.897V27.4011H413.617V30.7611H403.537V13.9611H413.617V17.3211H406.897V20.6811H416.977ZM430.422 13.9611V30.7611H427.062V24.0411H423.702V20.6811H427.062V17.3211H423.702V20.6811H420.342V13.9611H430.422ZM420.342 24.0411H423.702V30.7611H420.342V24.0411Z" fill="black"/>
</svg>
