<svg width="312" height="52" viewBox="0 0 312 52" fill="none" xmlns="http://www.w3.org/2000/svg">
<rect width="299.927" height="31.1757" transform="matrix(-1 0 0 1 305.676 5.7487)" fill="white"/>
<path d="M302.927 34.1758H305.676V36.9244H302.927V34.1758Z" fill="white" stroke="white" stroke-width="5.43327" stroke-miterlimit="10"/>
<path d="M5.74841 5.74864H8.49707V8.4973H5.74841V5.74864Z" fill="white" stroke="white" stroke-width="5.43327" stroke-miterlimit="10"/>
<path d="M14.379 39.6732H17.1277V42.4218H14.379V39.6732Z" fill="white" stroke="white" stroke-width="5.43327" stroke-miterlimit="10"/>
<path d="M17.1278 36.9245H302.927V39.6732H17.1278V36.9245Z" fill="white" stroke="white" stroke-width="5.43327" stroke-miterlimit="10"/>
<path d="M3.00012 8.4973H5.74878V34.1757H3.00012V8.4973Z" fill="white" stroke="white" stroke-width="5.43327" stroke-miterlimit="10"/>
<path d="M8.49698 3.00003H302.927V5.74869H8.49698V3.00003Z" fill="white" stroke="white" stroke-width="5.43327" stroke-miterlimit="10"/>
<path d="M305.676 8.4973H308.425V34.1757H305.676V8.4973Z" fill="white" stroke="white" stroke-width="5.43327" stroke-miterlimit="10"/>
<path d="M20.6205 5.74867H23.3691V8.49733H20.6205V5.74867Z" fill="white" stroke="white" stroke-width="5.43327" stroke-miterlimit="10"/>
<path d="M17.1277 34.1757H23.3691V36.9244H17.1277V34.1757Z" fill="white" stroke="white" stroke-width="5.43327" stroke-miterlimit="10"/>
<path d="M302.927 5.74869H305.676V8.49735H302.927V5.74869Z" fill="white" stroke="white" stroke-width="5.43327" stroke-miterlimit="10"/>
<path d="M11.6361 42.416H14.3789V45.5548H11.6361V48.3035H8.88741V39.6732H5.74857V36.9245H11.6361V42.416Z" fill="white" stroke="white" stroke-width="5.43327" stroke-miterlimit="10"/>
<path d="M302.928 34.1758H305.676V36.9245H302.928V34.1758Z" fill="black"/>
<path d="M14.379 39.6732H17.1277V42.4218H14.379V39.6732Z" fill="black"/>
<path d="M17.1278 36.9245H302.927V39.6732H17.1278V36.9245Z" fill="black"/>
<path d="M3.00012 8.4973H5.74878V34.1757H3.00012V8.4973Z" fill="black"/>
<path d="M8.49695 3H302.927V5.74866H8.49695V3Z" fill="black"/>
<path d="M305.676 8.4973H308.425V34.1757H305.676V8.4973Z" fill="black"/>
<path d="M5.74841 5.74867H8.49707V8.49733H5.74841V5.74867Z" fill="black"/>
<path d="M3.00012 34.1757H5.74878V36.9244H3.00012V34.1757Z" fill="black"/>
<path d="M302.927 5.7487H305.676V8.49737H302.927V5.7487Z" fill="black"/>
<path d="M11.6361 42.416H14.3789V45.5548H11.6361V48.3035H8.88741V39.6732H5.74857V36.9245H11.6361V42.416Z" fill="black"/>
<path d="M22.9916 19.681H16.2716V16.321H22.9916V12.961H12.9116V29.761H22.9916V26.401H16.2716V23.041H22.9916V19.681ZM26.3516 19.681V16.321H22.9916V19.681H26.3516ZM26.3516 26.401V23.041H22.9916V26.401H26.3516ZM46.5229 16.321V12.961H39.8029V16.321H46.5229ZM39.8029 26.401V16.321H36.4429V26.401H39.8029ZM49.8829 26.401V16.321H46.5229V26.401H39.8029V29.761H53.2429V26.401H49.8829ZM56.5991 12.961V29.761H59.9591V12.961H56.5991ZM66.6857 23.041V12.961H63.3257V23.041H66.6857ZM76.7897 12.961V23.041H80.1497V12.961H76.7897ZM73.4057 19.681H70.0457V23.041H66.6857V29.761H70.0457V26.401H73.4057V29.761H76.7657V23.041H73.4057V19.681ZM83.5054 12.961V29.761H86.8654V12.961H83.5054ZM107.038 12.961H96.9585V29.761H100.318V23.041H107.038V12.961ZM103.678 19.681H100.318V16.321H103.678V19.681ZM113.748 16.321H120.468V12.961H110.388V29.761H120.468V26.401H113.748V23.041H117.108V19.681H113.748V16.321ZM137.258 12.961V26.401H133.898V12.961H130.538V26.401H127.178V12.961H123.818V29.761H140.618V12.961H137.258ZM157.414 12.961H147.334V16.321H154.054V21.361H147.334V16.321H143.974V29.761H147.334V24.721H154.054V29.761H157.414V12.961ZM164.139 16.321H170.859V12.961H160.779V29.761H170.859V26.401H164.139V23.041H167.499V19.681H164.139V16.321ZM184.288 12.961H174.208V16.321H177.568V29.761H180.928V16.321H184.288V12.961ZM197.725 19.681V12.961H194.365V29.761H197.725V23.041H201.085V19.681H197.725ZM201.085 12.961V19.681H204.445V12.961H201.085ZM201.085 29.761H204.445V23.041H201.085V29.761ZM221.234 12.961H211.154V16.321H217.874V21.361H211.154V16.321H207.794V29.761H211.154V24.721H217.874V29.761H221.234V12.961ZM227.959 12.961H224.599V19.681H227.959V12.961ZM234.679 19.681V12.961H231.319V19.681H227.959V23.041H231.319V29.761H234.679V23.041H238.039V19.681H234.679ZM238.039 12.961V19.681H241.399V12.961H238.039ZM224.599 23.041V29.761H227.959V23.041H224.599ZM238.039 29.761H241.399V23.041H238.039V29.761ZM258.195 26.401V12.961H251.475V16.321H254.835V26.401H251.475V16.321H248.115V26.401H244.755V29.761H261.555V26.401H258.195ZM268.272 19.681V12.961H264.912V29.761H274.992V19.681H268.272ZM278.352 12.961V29.761H281.712V12.961H278.352ZM271.632 26.401H268.272V23.041H271.632V26.401ZM293.468 9.60105H290.108V12.961H293.468V9.60105ZM288.428 19.681V12.961H285.068V29.761H288.428V23.041H291.788V19.681H288.428ZM295.148 12.961V16.321H291.788V19.681H295.148V29.761H298.508V12.961H295.148Z" fill="black"/>
</svg>
