<svg width="233" height="52" viewBox="0 0 233 52" fill="none" xmlns="http://www.w3.org/2000/svg">
<rect width="219.208" height="25.6784" transform="matrix(-1 0 0 1 225.467 9.14844)" fill="white"/>
<path d="M222.718 34.8271H225.467V37.5758H222.718V34.8271Z" fill="white" stroke="white" stroke-width="5.43327" stroke-miterlimit="10"/>
<path d="M14.889 40.3242H17.6377V43.0729H14.889V40.3242Z" fill="white" stroke="white" stroke-width="5.43327" stroke-miterlimit="10"/>
<path d="M19.5538 37.5762H222.718V40.3248H19.5538V37.5762Z" fill="white" stroke="white" stroke-width="5.43327" stroke-miterlimit="10"/>
<path d="M3.51013 9.14844H6.25879V34.8268H3.51013V9.14844Z" fill="white" stroke="white" stroke-width="5.43327" stroke-miterlimit="10"/>
<path d="M9.00681 3.65137H222.718V6.40003H9.00681V3.65137Z" fill="white" stroke="white" stroke-width="5.43327" stroke-miterlimit="10"/>
<path d="M226.841 9.14844H229.59V34.4466H226.841V9.14844Z" fill="white" stroke="white" stroke-width="5.43327" stroke-miterlimit="10"/>
<path d="M21.1307 6.40039H23.8794V9.14905H21.1307V6.40039Z" fill="white" stroke="white" stroke-width="5.43327" stroke-miterlimit="10"/>
<path d="M17.6379 34.8271H23.8794V37.5758H17.6379V34.8271Z" fill="white" stroke="white" stroke-width="5.43327" stroke-miterlimit="10"/>
<path d="M222.718 6.40039H225.467V9.14905H222.718V6.40039Z" fill="white" stroke="white" stroke-width="5.43327" stroke-miterlimit="10"/>
<path d="M12.1463 43.0677H14.8892V46.2065H12.1463V48.9552H9.39766V40.3248H6.25882V37.5762H12.1463V43.0677Z" fill="white" stroke="white" stroke-width="5.43327" stroke-miterlimit="10"/>
<path d="M222.718 34.8271H225.467V37.5758H222.718V34.8271Z" fill="black"/>
<path d="M14.889 40.3242H17.6377V43.0729H14.889V40.3242Z" fill="black"/>
<path d="M16.5153 37.5762H222.718V40.3248H16.5153V37.5762Z" fill="black"/>
<path d="M3.51013 9.14844H6.25879V34.8268H3.51013V9.14844Z" fill="black"/>
<path d="M9.00681 3.65137H222.718V6.40003H9.00681V3.65137Z" fill="black"/>
<path d="M225.467 9.14844H228.215V34.8268H225.467V9.14844Z" fill="black"/>
<path d="M6.25866 6.40039H9.00732V9.14905H6.25866V6.40039Z" fill="black"/>
<path d="M3.51013 34.8271H6.25879V37.5758H3.51013V34.8271Z" fill="black"/>
<path d="M222.718 6.40039H225.467V9.14905H222.718V6.40039Z" fill="black"/>
<path d="M12.1463 43.0677H14.8892V46.2065H12.1463V48.9552H9.39766V40.3248H6.25882V37.5762H12.1463V43.0677Z" fill="black"/>
<path d="M16.7824 13.6883H13.4224V20.4083H16.7824V13.6883ZM20.1424 13.6883V20.4083H23.5024V13.6883H20.1424ZM16.7824 23.7683H20.1424V20.4083H16.7824V23.7683ZM13.4224 23.7683V30.4883H16.7824V23.7683H13.4224ZM20.1424 30.4883H23.5024V23.7683H20.1424V30.4883ZM36.9321 13.6883H30.2121V17.0483H33.5721V27.1283H30.2121V17.0483H26.8521V30.4883H36.9321V13.6883ZM53.7217 20.4083H43.6417V17.0483H50.3617V13.6883H40.2817V30.4883H50.3617V27.1283H43.6417V23.7683H50.3617V27.1283H53.7217V20.4083ZM70.5264 20.4083H60.4464V17.0483H67.1664V13.6883H57.0864V30.4883H67.1664V27.1283H60.4464V23.7683H67.1664V27.1283H70.5264V20.4083ZM77.2511 20.4083V13.6883H73.8911V30.4883H77.2511V23.7683H80.6111V20.4083H77.2511ZM83.9711 13.6883V17.0483H80.6111V20.4083H83.9711V30.4883H87.3311V13.6883H83.9711ZM104.142 13.6883V20.4083H100.782V13.6883H97.4224V30.4883H100.782V23.7683H104.142V30.4883H107.502V13.6883H104.142ZM124.292 13.6883H114.212V17.0483H120.932V22.0883H114.212V17.0483H110.852V30.4883H114.212V25.4483H120.932V30.4883H124.292V13.6883ZM144.463 13.6883H134.383V30.4883H137.743V23.7683H144.463V13.6883ZM141.103 20.4083H137.743V17.0483H141.103V20.4083ZM161.253 13.6883H151.173V17.0483H157.893V22.0883H151.173V17.0483H147.813V30.4883H151.173V25.4483H157.893V30.4883H161.253V13.6883ZM178.058 20.4083H167.978V17.0483H174.698V13.6883H164.618V30.4883H174.698V27.1283H167.978V23.7683H174.698V27.1283H178.058V20.4083ZM191.502 13.6883H184.782V17.0483H188.142V27.1283H184.782V17.0483H181.422V30.4883H191.502V13.6883ZM204.932 13.6883H194.852V17.0483H198.212V30.4883H201.572V17.0483H204.932V13.6883ZM211.642 17.0483H218.362V13.6883H208.282V30.4883H218.362V27.1283H211.642V23.7683H215.002V20.4083H211.642V17.0483Z" fill="black"/>
</svg>
