<svg width="238" height="81" viewBox="0 0 238 81" fill="none" xmlns="http://www.w3.org/2000/svg">
<rect x="6.07999" y="5.52393" width="225.967" height="60.4728" fill="white"/>
<path d="M8.82868 63.248H6.08002V65.9967H8.82868V63.248Z" fill="white" stroke="white" stroke-width="5.43327" stroke-miterlimit="10"/>
<path d="M232.047 63.2482H229.299V65.9968H232.047V63.2482Z" fill="white" stroke="white" stroke-width="5.43327" stroke-miterlimit="10"/>
<path d="M217.92 65.9968H8.82867V68.7455H217.92V65.9968Z" fill="white" stroke="white" stroke-width="5.43327" stroke-miterlimit="10"/>
<path d="M234.796 8.27258H232.047V63.248H234.796V8.27258Z" fill="white" stroke="white" stroke-width="5.43327" stroke-miterlimit="10"/>
<path d="M229.299 2.77527H8.82864V5.52393H229.299V2.77527Z" fill="white" stroke="white" stroke-width="5.43327" stroke-miterlimit="10"/>
<path d="M6.07999 8.27258H3.33133V63.2481H6.07999V8.27258Z" fill="white" stroke="white" stroke-width="5.43327" stroke-miterlimit="10"/>
<path d="M224.512 34.821H221.763V37.5696H224.512V34.821Z" fill="white" stroke="white" stroke-width="5.43327" stroke-miterlimit="10"/>
<path d="M232.047 5.52393H229.299V8.27259H232.047V5.52393Z" fill="white" stroke="white" stroke-width="5.43327" stroke-miterlimit="10"/>
<path d="M8.82865 5.52393H6.07999V8.27259H8.82865V5.52393Z" fill="white" stroke="white" stroke-width="5.43327" stroke-miterlimit="10"/>
<path d="M223.411 71.4883H220.668V74.6272H223.411V77.3758H226.16V68.7455H229.299V65.9968H223.411V71.4883Z" fill="white" stroke="white" stroke-width="5.43327" stroke-miterlimit="10"/>
<path d="M8.82868 63.248H6.08002V65.9967H8.82868V63.248Z" fill="black"/>
<path d="M220.668 68.7455H217.92V71.4941H220.668V68.7455Z" fill="black"/>
<path d="M217.92 65.9968H8.82867V68.7455H217.92V65.9968Z" fill="black"/>
<path d="M234.796 8.27258H232.047V63.2481H234.796V8.27258Z" fill="black"/>
<path d="M229.299 2.77527H8.82867V5.52393H229.299V2.77527Z" fill="black"/>
<path d="M6.07999 8.27258H3.33133V63.2481H6.07999V8.27258Z" fill="black"/>
<path d="M232.047 5.52393H229.299V8.27259H232.047V5.52393Z" fill="black"/>
<path d="M232.047 63.248H229.299V65.9967H232.047V63.248Z" fill="black"/>
<path d="M8.82865 5.52393H6.07999V8.27259H8.82865V5.52393Z" fill="black"/>
<path d="M223.411 71.4883H220.668V74.6272H223.411V77.3758H226.16V68.7455H229.299V65.9968H223.411V71.4883Z" fill="black"/>
<path d="M16.6033 19.7534V13.0334H13.2433V29.8334H16.6033V23.1134H19.9633V19.7534H16.6033ZM19.9633 13.0334V19.7534H23.3233V13.0334H19.9633ZM19.9633 29.8334H23.3233V23.1134H19.9633V29.8334ZM40.113 13.0334H30.033V16.3934H36.753V21.4334H30.033V16.3934H26.673V29.8334H30.033V24.7934H36.753V29.8334H40.113V13.0334ZM46.8377 13.0334H43.4777V19.7534H46.8377V13.0334ZM53.5577 19.7534V13.0334H50.1977V19.7534H46.8377V23.1134H50.1977V29.8334H53.5577V23.1134H56.9177V19.7534H53.5577ZM56.9177 13.0334V19.7534H60.2777V13.0334H56.9177ZM43.4777 23.1134V29.8334H46.8377V23.1134H43.4777ZM56.9177 29.8334H60.2777V23.1134H56.9177V29.8334ZM77.074 26.4734V13.0334H70.354V16.3934H73.714V26.4734H70.354V16.3934H66.994V26.4734H63.634V29.8334H80.434V26.4734H77.074ZM87.1502 19.7534V13.0334H83.7902V29.8334H93.8702V19.7534H87.1502ZM97.2302 13.0334V29.8334H100.59V13.0334H97.2302ZM90.5102 26.4734H87.1502V23.1134H90.5102V26.4734ZM112.346 9.67343H108.986V13.0334H112.346V9.67343ZM107.306 19.7534V13.0334H103.946V29.8334H107.306V23.1134H110.666V19.7534H107.306ZM114.026 13.0334V16.3934H110.666V19.7534H114.026V29.8334H117.386V13.0334H114.026ZM137.558 13.0334H127.478V29.8334H130.838V23.1134H137.558V13.0334ZM134.198 19.7534H130.838V16.3934H134.198V19.7534ZM144.267 16.3934H150.987V13.0334H140.907V29.8334H150.987V26.4734H144.267V23.1134H147.627V19.7534H144.267V16.3934ZM167.777 13.0334V26.4734H164.417V13.0334H161.057V26.4734H157.697V13.0334H154.337V29.8334H171.137V13.0334H167.777ZM187.933 13.0334H177.853V16.3934H184.573V21.4334H177.853V16.3934H174.493V29.8334H177.853V24.7934H184.573V29.8334H187.933V13.0334ZM194.658 16.3934H201.378V13.0334H191.298V29.8334H201.378V26.4734H194.658V23.1134H198.018V19.7534H194.658V16.3934ZM214.808 13.0334H204.728V16.3934H208.088V29.8334H211.448V16.3934H214.808V13.0334ZM218.157 26.4734V33.1934H221.517V26.4734H218.157ZM16.6033 48.7534V42.0334H13.2433V58.8334H16.6033V52.1134H19.9633V48.7534H16.6033ZM19.9633 42.0334V48.7534H23.3233V42.0334H19.9633ZM19.9633 58.8334H23.3233V52.1134H19.9633V58.8334ZM40.113 42.0334H30.033V45.3934H36.753V50.4334H30.033V45.3934H26.673V58.8334H30.033V53.7934H36.753V58.8334H40.113V42.0334ZM46.8377 48.7534V42.0334H43.4777V58.8334H46.8377V52.1134H50.1977V48.7534H46.8377ZM50.1977 42.0334V48.7534H53.5577V42.0334H50.1977ZM50.1977 58.8334H53.5577V52.1134H50.1977V58.8334ZM73.714 42.0334H63.634V58.8334H66.994V52.1134H73.714V42.0334ZM70.354 48.7534H66.994V45.3934H70.354V48.7534ZM90.5037 42.0334H80.4237V45.3934H87.1437V50.4334H80.4237V45.3934H77.0637V58.8334H80.4237V53.7934H87.1437V58.8334H90.5037V42.0334ZM103.948 42.0334H93.8683V45.3934H100.588V48.7534H103.948V42.0334ZM93.8683 48.7534V52.1134H100.588V48.7534H93.8683ZM100.588 55.4734H93.8683V58.8334H103.948V52.1134H100.588V55.4734ZM117.378 48.7534H110.658V45.3934H117.378V42.0334H107.298V58.8334H117.378V55.4734H110.658V52.1134H117.378V48.7534ZM120.738 48.7534V45.3934H117.378V48.7534H120.738ZM120.738 55.4734V52.1134H117.378V55.4734H120.738ZM127.463 48.7534V42.0334H124.103V58.8334H127.463V52.1134H130.823V48.7534H127.463ZM134.183 42.0334V45.3934H130.823V48.7534H134.183V58.8334H137.543V42.0334H134.183ZM150.987 48.7534H144.267V45.3934H150.987V42.0334H140.907V58.8334H150.987V55.4734H144.267V52.1134H150.987V48.7534ZM154.347 48.7534V45.3934H150.987V48.7534H154.347ZM154.347 55.4734V52.1134H150.987V55.4734H154.347ZM171.152 42.0334H161.072V45.3934H167.792V50.4334H161.072V45.3934H157.712V58.8334H161.072V53.7934H167.792V58.8334H171.152V42.0334ZM184.597 42.0334H174.517V45.3934H177.877V58.8334H181.237V45.3934H184.597V42.0334ZM198.026 48.7534H191.306V42.0334H187.946V58.8334H198.026V48.7534ZM194.666 55.4734H191.306V52.1134H194.666V55.4734ZM211.456 45.3934V42.0334H204.736V45.3934H211.456ZM204.736 55.4734V45.3934H201.376V58.8334H211.456V55.4734H204.736ZM224.886 42.0334H214.806V48.7534H218.166V45.3934H221.526V48.7534H218.166V52.1134H221.526V58.8334H224.886V42.0334ZM214.806 52.1134V58.8334H218.166V52.1134H214.806Z" fill="black"/>
</svg>
