<svg width="311" height="52" viewBox="0 0 311 52" fill="none" xmlns="http://www.w3.org/2000/svg">
<rect width="299.927" height="31.1757" transform="matrix(-1 0 0 1 305.425 6.08714)" fill="white"/>
<path d="M302.676 34.5142H305.425V37.2629H302.676V34.5142Z" fill="white" stroke="white" stroke-width="5.43327" stroke-miterlimit="10"/>
<path d="M5.4967 6.08708H8.24536V8.83574H5.4967V6.08708Z" fill="white" stroke="white" stroke-width="5.43327" stroke-miterlimit="10"/>
<path d="M14.1275 40.0116H16.8761V42.7603H14.1275V40.0116Z" fill="white" stroke="white" stroke-width="5.43327" stroke-miterlimit="10"/>
<path d="M16.8762 37.2629H302.676V40.0116H16.8762V37.2629Z" fill="white" stroke="white" stroke-width="5.43327" stroke-miterlimit="10"/>
<path d="M2.7485 8.83574H5.49716V34.5141H2.7485V8.83574Z" fill="white" stroke="white" stroke-width="5.43327" stroke-miterlimit="10"/>
<path d="M8.24538 3.33847H302.676V6.08713H8.24538V3.33847Z" fill="white" stroke="white" stroke-width="5.43327" stroke-miterlimit="10"/>
<path d="M305.425 8.83574H308.173V34.5142H305.425V8.83574Z" fill="white" stroke="white" stroke-width="5.43327" stroke-miterlimit="10"/>
<path d="M20.369 6.08711H23.1177V8.83577H20.369V6.08711Z" fill="white" stroke="white" stroke-width="5.43327" stroke-miterlimit="10"/>
<path d="M16.8762 34.5142H23.1177V37.2628H16.8762V34.5142Z" fill="white" stroke="white" stroke-width="5.43327" stroke-miterlimit="10"/>
<path d="M302.676 6.08713H305.425V8.83579H302.676V6.08713Z" fill="white" stroke="white" stroke-width="5.43327" stroke-miterlimit="10"/>
<path d="M11.3845 42.7544H14.1274V45.8933H11.3845V48.6419H8.63588V40.0116H5.49704V37.2629H11.3845V42.7544Z" fill="white" stroke="white" stroke-width="5.43327" stroke-miterlimit="10"/>
<path d="M302.676 34.5143H305.425V37.2629H302.676V34.5143Z" fill="black"/>
<path d="M14.1275 40.0116H16.8761V42.7603H14.1275V40.0116Z" fill="black"/>
<path d="M16.8762 37.2629H302.676V40.0116H16.8762V37.2629Z" fill="black"/>
<path d="M2.7485 8.83574H5.49716V34.5141H2.7485V8.83574Z" fill="black"/>
<path d="M8.24535 3.33844H302.676V6.0871H8.24535V3.33844Z" fill="black"/>
<path d="M305.425 8.83574H308.173V34.5141H305.425V8.83574Z" fill="black"/>
<path d="M5.49676 6.08711H8.24542V8.83577H5.49676V6.08711Z" fill="black"/>
<path d="M2.7485 34.5142H5.49716V37.2628H2.7485V34.5142Z" fill="black"/>
<path d="M302.676 6.08714H305.425V8.83581H302.676V6.08714Z" fill="black"/>
<path d="M11.3845 42.7544H14.1274V45.8933H11.3845V48.6419H8.63588V40.0116H5.49704V37.2629H11.3845V42.7544Z" fill="black"/>
<path d="M22.7401 20.0195H16.0201V16.6595H22.7401V13.2995H12.6601V30.0995H22.7401V26.7395H16.0201V23.3795H22.7401V20.0195ZM26.1001 20.0195V16.6595H22.7401V20.0195H26.1001ZM26.1001 26.7395V23.3795H22.7401V26.7395H26.1001ZM46.2713 16.6595V13.2995H39.5513V16.6595H46.2713ZM39.5513 26.7395V16.6595H36.1913V26.7395H39.5513ZM49.6313 26.7395V16.6595H46.2713V26.7395H39.5513V30.0995H52.9913V26.7395H49.6313ZM56.3476 13.2995V30.0995H59.7076V13.2995H56.3476ZM66.4342 23.3795V13.2995H63.0742V23.3795H66.4342ZM76.5382 13.2995V23.3795H79.8982V13.2995H76.5382ZM73.1542 20.0195H69.7942V23.3795H66.4342V30.0995H69.7942V26.7395H73.1542V30.0995H76.5142V23.3795H73.1542V20.0195ZM83.2538 13.2995V30.0995H86.6138V13.2995H83.2538ZM106.787 13.2995H96.707V30.0995H100.067V23.3795H106.787V13.2995ZM103.427 20.0195H100.067V16.6595H103.427V20.0195ZM113.497 16.6595H120.217V13.2995H110.137V30.0995H120.217V26.7395H113.497V23.3795H116.857V20.0195H113.497V16.6595ZM137.006 13.2995V26.7395H133.646V13.2995H130.286V26.7395H126.926V13.2995H123.566V30.0995H140.366V13.2995H137.006ZM157.163 13.2995H147.083V16.6595H153.803V21.6995H147.083V16.6595H143.723V30.0995H147.083V25.0595H153.803V30.0995H157.163V13.2995ZM163.887 16.6595H170.607V13.2995H160.527V30.0995H170.607V26.7395H163.887V23.3795H167.247V20.0195H163.887V16.6595ZM184.037 13.2995H173.957V16.6595H177.317V30.0995H180.677V16.6595H184.037V13.2995ZM197.473 20.0195V13.2995H194.113V30.0995H197.473V23.3795H200.833V20.0195H197.473ZM200.833 13.2995V20.0195H204.193V13.2995H200.833ZM200.833 30.0995H204.193V23.3795H200.833V30.0995ZM220.983 13.2995H210.903V16.6595H217.623V21.6995H210.903V16.6595H207.543V30.0995H210.903V25.0595H217.623V30.0995H220.983V13.2995ZM227.708 13.2995H224.348V20.0195H227.708V13.2995ZM234.428 20.0195V13.2995H231.068V20.0195H227.708V23.3795H231.068V30.0995H234.428V23.3795H237.788V20.0195H234.428ZM237.788 13.2995V20.0195H241.148V13.2995H237.788ZM224.348 23.3795V30.0995H227.708V23.3795H224.348ZM237.788 30.0995H241.148V23.3795H237.788V30.0995ZM257.944 26.7395V13.2995H251.224V16.6595H254.584V26.7395H251.224V16.6595H247.864V26.7395H244.504V30.0995H261.304V26.7395H257.944ZM268.02 20.0195V13.2995H264.66V30.0995H274.74V20.0195H268.02ZM278.1 13.2995V30.0995H281.46V13.2995H278.1ZM271.38 26.7395H268.02V23.3795H271.38V26.7395ZM293.216 9.93949H289.856V13.2995H293.216V9.93949ZM288.176 20.0195V13.2995H284.816V30.0995H288.176V23.3795H291.536V20.0195H288.176ZM294.896 13.2995V16.6595H291.536V20.0195H294.896V30.0995H298.256V13.2995H294.896Z" fill="black"/>
</svg>
