<svg width="275" height="51" viewBox="0 0 275 51" fill="none" xmlns="http://www.w3.org/2000/svg">
<rect x="5.74878" y="5.53857" width="262.909" height="31.1624" fill="white"/>
<path d="M8.49744 33.9524H5.74878V36.7011H8.49744V33.9524Z" fill="white" stroke="white" stroke-width="5.43327" stroke-miterlimit="10"/>
<path d="M260.027 39.4498H257.279V42.1984H260.027V39.4498Z" fill="white" stroke="white" stroke-width="5.43327" stroke-miterlimit="10"/>
<path d="M253.786 36.7011H8.49756V39.4498H253.786V36.7011Z" fill="white" stroke="white" stroke-width="5.43327" stroke-miterlimit="10"/>
<path d="M271.406 8.27393H268.657V33.9523H271.406V8.27393Z" fill="white" stroke="white" stroke-width="5.43327" stroke-miterlimit="10"/>
<path d="M265.909 2.77667H8.49756V5.52533H265.909V2.77667Z" fill="white" stroke="white" stroke-width="5.43327" stroke-miterlimit="10"/>
<path d="M5.74866 8.27393H3V33.9524H5.74866V8.27393Z" fill="white" stroke="white" stroke-width="5.43327" stroke-miterlimit="10"/>
<path d="M253.786 5.52533H251.037V8.27399H253.786V5.52533Z" fill="white" stroke="white" stroke-width="5.43327" stroke-miterlimit="10"/>
<path d="M257.278 33.9523H251.037V36.701H257.278V33.9523Z" fill="white" stroke="white" stroke-width="5.43327" stroke-miterlimit="10"/>
<path d="M8.49744 5.52533H5.74878V8.27399H8.49744V5.52533Z" fill="white" stroke="white" stroke-width="5.43327" stroke-miterlimit="10"/>
<path d="M262.77 42.1926H260.027V45.3314H262.77V48.0801H265.519V39.4498H268.658V36.7011H262.77V42.1926Z" fill="white" stroke="white" stroke-width="5.43327" stroke-miterlimit="10"/>
<path d="M257.261 37.3457H260.01V40.0885H262.753V34.597H268.64V31.8484H271.406V2.73119H268.658V0H30.3742V2.74866H27.6255V31.8658H30.3742V34.6145H257.261V37.3457Z" fill="white"/>
<path d="M8.49744 33.9524H5.74878V36.7011H8.49744V33.9524Z" fill="black"/>
<path d="M260.027 39.4498H257.279V42.1984H260.027V39.4498Z" fill="black"/>
<path d="M257.279 36.7011H8.49756V39.4498H257.279V36.7011Z" fill="black"/>
<path d="M271.406 8.27393H268.657V33.9523H271.406V8.27393Z" fill="black"/>
<path d="M265.909 2.77667H8.49756V5.52533H265.909V2.77667Z" fill="black"/>
<path d="M5.74866 8.27393H3V33.9523H5.74866V8.27393Z" fill="black"/>
<path d="M268.658 5.52533H265.909V8.27399H268.658V5.52533Z" fill="black"/>
<path d="M271.406 33.9523H268.657V36.701H271.406V33.9523Z" fill="black"/>
<path d="M8.49744 5.52533H5.74878V8.27399H8.49744V5.52533Z" fill="black"/>
<path d="M262.77 42.1926H260.027V45.3314H262.77V48.0801H265.519V39.4498H268.658V36.7011H262.77V42.1926Z" fill="black"/>
<path d="M19.6316 12.7386V19.4586H16.2716V12.7386H12.9116V29.5386H16.2716V22.8186H19.6316V29.5386H22.9916V12.7386H19.6316ZM29.7013 16.0986H36.4213V12.7386H26.3413V29.5386H36.4213V26.1786H29.7013V22.8186H33.0613V19.4586H29.7013V16.0986ZM59.9376 19.4586H49.8576V16.0986H56.5776V12.7386H46.4976V29.5386H56.5776V26.1786H49.8576V22.8186H56.5776V26.1786H59.9376V19.4586ZM73.3822 12.7386H66.6622V16.0986H70.0222V26.1786H66.6622V16.0986H63.3022V29.5386H73.3822V12.7386ZM85.1319 9.37857H81.7719V12.7386H85.1319V9.37857ZM80.0919 19.4586V12.7386H76.7319V29.5386H80.0919V22.8186H83.4519V19.4586H80.0919ZM86.8119 12.7386V16.0986H83.4519V19.4586H86.8119V29.5386H90.1719V12.7386H86.8119ZM103.617 16.0986V12.7386H96.8966V16.0986H103.617ZM96.8966 26.1786V16.0986H93.5366V29.5386H103.617V26.1786H96.8966ZM117.046 12.7386H106.966V19.4586H110.326V16.0986H113.686V19.4586H110.326V22.8186H113.686V29.5386H117.046V12.7386ZM106.966 22.8186V29.5386H110.326V22.8186H106.966ZM137.203 12.7386H130.483V16.0986H133.843V26.1786H130.483V16.0986H127.123V29.5386H137.203V12.7386ZM153.992 12.7386V26.1786H150.632V12.7386H147.272V26.1786H143.912V12.7386H140.552V29.5386H157.352V12.7386H153.992ZM164.068 19.4586V12.7386H160.708V29.5386H164.068V22.8186H167.428V19.4586H164.068ZM170.788 12.7386V16.0986H167.428V19.4586H170.788V29.5386H174.148V12.7386H170.788ZM190.953 19.4586H180.873V16.0986H187.593V12.7386H177.513V29.5386H187.593V26.1786H180.873V22.8186H187.593V26.1786H190.953V19.4586ZM207.758 12.7386H197.678V16.0986H204.398V21.1386H197.678V16.0986H194.318V29.5386H197.678V24.4986H204.398V29.5386H207.758V12.7386ZM221.203 12.7386H211.123V16.0986H214.483V29.5386H217.843V16.0986H221.203V12.7386ZM234.632 19.4586H227.912V12.7386H224.552V29.5386H234.632V19.4586ZM231.272 26.1786H227.912V22.8186H231.272V26.1786ZM248.062 16.0986V12.7386H241.342V16.0986H248.062ZM241.342 26.1786V16.0986H237.982V29.5386H248.062V26.1786H241.342ZM261.492 12.7386H251.412V19.4586H254.772V16.0986H258.132V19.4586H254.772V22.8186H258.132V29.5386H261.492V12.7386ZM251.412 22.8186V29.5386H254.772V22.8186H251.412Z" fill="black"/>
</svg>
