<svg width="300" height="53" viewBox="0 0 300 53" fill="none" xmlns="http://www.w3.org/2000/svg">
<rect width="286" height="31" transform="matrix(-1 0 0 1 294 7)" fill="white"/>
<path d="M18 41H21V44H18V41Z" fill="black" stroke="white" stroke-width="5"/>
<path d="M15 44L18 43.9915V47H15V50H12V41H9V38H15V44Z" stroke="white" stroke-width="5"/>
<path d="M291 35H294V38H291V35Z" fill="white" stroke="white" stroke-width="5.43327" stroke-miterlimit="10"/>
<path d="M6 6H9V9H6V6Z" fill="white" stroke="white" stroke-width="5.43327" stroke-miterlimit="10"/>
<path d="M18 38H291V41H18V38Z" fill="white" stroke="white" stroke-width="5.43327" stroke-miterlimit="10"/>
<path d="M3 9H6V35H3V9Z" fill="white" stroke="white" stroke-width="5.43327" stroke-miterlimit="10"/>
<path d="M9 3H291V6H9V3Z" fill="white" stroke="white" stroke-width="5.43327" stroke-miterlimit="10"/>
<path d="M294 9H297V35H294V9Z" fill="white" stroke="white" stroke-width="5.43327" stroke-miterlimit="10"/>
<path d="M17.9308 6.74866H20.6794V9.49732H17.9308V6.74866Z" fill="white" stroke="white" stroke-width="5.43327" stroke-miterlimit="10"/>
<path d="M6 35H9V38H6V35Z" fill="white" stroke="white" stroke-width="5.43327" stroke-miterlimit="10"/>
<path d="M291 6H294V9H291V6Z" fill="white" stroke="white" stroke-width="5.43327" stroke-miterlimit="10"/>
<path d="M291 35H294V38H291V35Z" fill="black"/>
<path d="M21 38H291V41H21V38Z" fill="black"/>
<path d="M3 9H6V35H3V9Z" fill="black"/>
<path d="M9 3H291V6H9V3Z" fill="black"/>
<path d="M294 9H297V35H294V9Z" fill="black"/>
<path d="M6 6H9V9H6V6Z" fill="black"/>
<path d="M6 35H9V38H6V35Z" fill="black"/>
<path d="M291 6H294V9H291V6Z" fill="black"/>
<path d="M15 44L18 43.9915V47H15V50H12V41H9V38H15V44Z" fill="black"/>
<path d="M18 41H21V44H18V41Z" fill="black"/>
<path d="M27.3521 20.6811V27.4011H23.9921V24.0411H17.2721V27.4011H23.9921V30.7611H13.9121V13.9611H23.9921V17.3211H17.2721V20.6811H27.3521ZM44.1568 13.9611V30.7611H40.7968V25.7211H34.0768V30.7611H30.7168V17.3211H34.0768V22.3611H40.7968V17.3211H34.0768V13.9611H44.1568ZM60.9615 27.4011H64.3215V30.7611H47.5215V27.4011H50.8815V17.3211H54.2415V27.4011H57.6015V17.3211H54.2415V13.9611H60.9615V27.4011ZM81.1177 27.4011H84.4777V30.7611H67.6777V27.4011H71.0377V17.3211H74.3977V27.4011H77.7577V17.3211H74.3977V13.9611H81.1177V27.4011ZM91.194 20.6811H94.554V24.0411H91.194V30.7611H87.834V13.9611H91.194V20.6811ZM97.914 13.9611H101.274V30.7611H97.914V20.6811H94.554V17.3211H97.914V13.9611ZM121.445 20.6811V24.0411H114.725V27.4011H121.445V30.7611H111.365V13.9611H121.445V17.3211H114.725V20.6811H121.445ZM124.805 20.6811H121.445V17.3211H124.805V20.6811ZM124.805 27.4011H121.445V24.0411H124.805V27.4011ZM138.25 17.3211H131.53V13.9611H138.25V17.3211ZM131.53 27.4011H138.25V30.7611H128.17V17.3211H131.53V27.4011ZM144.96 17.3211V20.6811H148.32V24.0411H144.96V27.4011H151.68V30.7611H141.6V13.9611H151.68V17.3211H144.96ZM165.109 13.9611V17.3211H158.389V30.7611H155.029V13.9611H165.109ZM178.547 27.4011H181.907V30.7611H165.107V27.4011H168.467V17.3211H171.827V27.4011H175.187V17.3211H171.827V13.9611H178.547V27.4011ZM198.704 13.9611V30.7611H195.344V25.7211H188.624V30.7611H185.264V17.3211H188.624V22.3611H195.344V17.3211H188.624V13.9611H198.704ZM218.875 13.9611V24.0411H212.155V30.7611H208.795V13.9611H218.875ZM215.515 20.6811V17.3211H212.155V20.6811H215.515ZM232.305 13.9611V30.7611H228.945V24.0411H225.585V20.6811H228.945V17.3211H225.585V20.6811H222.225V13.9611H232.305ZM222.225 24.0411H225.585V30.7611H222.225V24.0411ZM249.094 27.4011H252.454V30.7611H235.654V27.4011H239.014V17.3211H242.374V27.4011H245.734V17.3211H242.374V13.9611H249.094V27.4011ZM265.891 13.9611V30.7611H255.811V17.3211H259.171V27.4011H262.531V17.3211H259.171V13.9611H265.891ZM272.6 17.3211H275.96V20.6811H272.6V30.7611H269.24V13.9611H272.6V17.3211ZM282.68 13.9611H286.04V30.7611H282.68V20.6811H279.32V17.3211H282.68V13.9611ZM275.96 24.0411V20.6811H279.32V24.0411H275.96Z" fill="black"/>
</svg>
