<svg width="233" height="52" viewBox="0 0 233 52" fill="none" xmlns="http://www.w3.org/2000/svg">
<rect width="219.208" height="25.6784" transform="matrix(-1 0 0 1 225.467 9.14902)" fill="white"/>
<path d="M222.718 34.8275H225.466V37.5761H222.718V34.8275Z" fill="white" stroke="white" stroke-width="5.43327" stroke-miterlimit="10"/>
<path d="M14.889 40.3249H17.6377V43.0735H14.889V40.3249Z" fill="white" stroke="white" stroke-width="5.43327" stroke-miterlimit="10"/>
<path d="M19.5538 37.5762H222.718V40.3249H19.5538V37.5762Z" fill="white" stroke="white" stroke-width="5.43327" stroke-miterlimit="10"/>
<path d="M3.51013 9.14902H6.25879V34.8274H3.51013V9.14902Z" fill="white" stroke="white" stroke-width="5.43327" stroke-miterlimit="10"/>
<path d="M9.00681 3.65173H222.718V6.4004H9.00681V3.65173Z" fill="white" stroke="white" stroke-width="5.43327" stroke-miterlimit="10"/>
<path d="M226.841 9.14905H229.589V34.4472H226.841V9.14905Z" fill="white" stroke="white" stroke-width="5.43327" stroke-miterlimit="10"/>
<path d="M21.1306 6.40039H23.8793V9.14905H21.1306V6.40039Z" fill="white" stroke="white" stroke-width="5.43327" stroke-miterlimit="10"/>
<path d="M17.6378 34.8275H23.8793V37.5761H17.6378V34.8275Z" fill="white" stroke="white" stroke-width="5.43327" stroke-miterlimit="10"/>
<path d="M222.718 6.40039H225.466V9.14905H222.718V6.40039Z" fill="white" stroke="white" stroke-width="5.43327" stroke-miterlimit="10"/>
<path d="M12.1461 43.0677H14.8889V46.2066H12.1461V48.9552H9.39742V40.3249H6.25858V37.5762H12.1461V43.0677Z" fill="white" stroke="white" stroke-width="5.43327" stroke-miterlimit="10"/>
<path d="M222.718 34.8275H225.466V37.5761H222.718V34.8275Z" fill="black"/>
<path d="M14.889 40.3249H17.6377V43.0735H14.889V40.3249Z" fill="black"/>
<path d="M16.5153 37.5764H222.718V40.3251H16.5153V37.5764Z" fill="black"/>
<path d="M3.51013 9.14902H6.25879V34.8274H3.51013V9.14902Z" fill="black"/>
<path d="M9.00681 3.65173H222.718V6.4004H9.00681V3.65173Z" fill="black"/>
<path d="M225.466 9.14905H228.215V34.8275H225.466V9.14905Z" fill="black"/>
<path d="M6.2583 6.40039H9.00696V9.14905H6.2583V6.40039Z" fill="black"/>
<path d="M3.51013 34.8275H6.25879V37.5761H3.51013V34.8275Z" fill="black"/>
<path d="M222.718 6.40039H225.466V9.14905H222.718V6.40039Z" fill="black"/>
<path d="M12.1461 43.0677H14.8889V46.2066H12.1461V48.9552H9.39742V40.3249H6.25858V37.5762H12.1461V43.0677Z" fill="black"/>
<path d="M16.782 13.6883H13.422V20.4083H16.782V13.6883ZM20.142 13.6883V20.4083H23.502V13.6883H20.142ZM16.782 23.7683H20.142V20.4083H16.782V23.7683ZM13.422 23.7683V30.4883H16.782V23.7683H13.422ZM20.142 30.4883H23.502V23.7683H20.142V30.4883ZM36.9317 13.6883H30.2117V17.0483H33.5717V27.1283H30.2117V17.0483H26.8517V30.4883H36.9317V13.6883ZM53.7214 20.4083H43.6414V17.0483H50.3614V13.6883H40.2814V30.4883H50.3614V27.1283H43.6414V23.7683H50.3614V27.1283H53.7214V20.4083ZM70.5261 20.4083H60.4461V17.0483H67.1661V13.6883H57.0861V30.4883H67.1661V27.1283H60.4461V23.7683H67.1661V27.1283H70.5261V20.4083ZM77.2507 20.4083V13.6883H73.8907V30.4883H77.2507V23.7683H80.6107V20.4083H77.2507ZM83.9707 13.6883V17.0483H80.6107V20.4083H83.9707V30.4883H87.3307V13.6883H83.9707ZM104.142 13.6883V20.4083H100.782V13.6883H97.422V30.4883H100.782V23.7683H104.142V30.4883H107.502V13.6883H104.142ZM124.292 13.6883H114.212V17.0483H120.932V22.0883H114.212V17.0483H110.852V30.4883H114.212V25.4483H120.932V30.4883H124.292V13.6883ZM144.463 13.6883H134.383V30.4883H137.743V23.7683H144.463V13.6883ZM141.103 20.4083H137.743V17.0483H141.103V20.4083ZM161.253 13.6883H151.173V17.0483H157.893V22.0883H151.173V17.0483H147.813V30.4883H151.173V25.4483H157.893V30.4883H161.253V13.6883ZM178.057 20.4083H167.977V17.0483H174.697V13.6883H164.617V30.4883H174.697V27.1283H167.977V23.7683H174.697V27.1283H178.057V20.4083ZM191.502 13.6883H184.782V17.0483H188.142V27.1283H184.782V17.0483H181.422V30.4883H191.502V13.6883ZM204.932 13.6883H194.852V17.0483H198.212V30.4883H201.572V17.0483H204.932V13.6883ZM211.641 17.0483H218.361V13.6883H208.281V30.4883H218.361V27.1283H211.641V23.7683H215.001V20.4083H211.641V17.0483Z" fill="black"/>
</svg>
