<svg width="374" height="53" viewBox="0 0 374 53" fill="none" xmlns="http://www.w3.org/2000/svg">
<rect width="360" height="31" transform="matrix(-1 0 0 1 368 7)" fill="white"/>
<path d="M18 41H21V44H18V41Z" fill="black" stroke="white" stroke-width="5"/>
<path d="M15 44L18 43.9915V47H15V50H12V41H9V38H15V44Z" stroke="white" stroke-width="5"/>
<path d="M365 35H368V38H365V35Z" fill="white" stroke="white" stroke-width="5.43327" stroke-miterlimit="10"/>
<path d="M6 6H9V9H6V6Z" fill="white" stroke="white" stroke-width="5.43327" stroke-miterlimit="10"/>
<path d="M18 38H365V41H18V38Z" fill="white" stroke="white" stroke-width="5.43327" stroke-miterlimit="10"/>
<path d="M3 9H6V35H3V9Z" fill="white" stroke="white" stroke-width="5.43327" stroke-miterlimit="10"/>
<path d="M9 3H365V6H9V3Z" fill="white" stroke="white" stroke-width="5.43327" stroke-miterlimit="10"/>
<path d="M368 9H371V35H368V9Z" fill="white" stroke="white" stroke-width="5.43327" stroke-miterlimit="10"/>
<path d="M17.9308 6.74866H20.6794V9.49732H17.9308V6.74866Z" fill="white" stroke="white" stroke-width="5.43327" stroke-miterlimit="10"/>
<path d="M6 35H9V38H6V35Z" fill="white" stroke="white" stroke-width="5.43327" stroke-miterlimit="10"/>
<path d="M365 6H368V9H365V6Z" fill="white" stroke="white" stroke-width="5.43327" stroke-miterlimit="10"/>
<path d="M365 35H368V38H365V35Z" fill="black"/>
<path d="M21 38H365V41H21V38Z" fill="black"/>
<path d="M3 9H6V35H3V9Z" fill="black"/>
<path d="M9 3H365V6H9V3Z" fill="black"/>
<path d="M368 9H371V35H368V9Z" fill="black"/>
<path d="M6 6H9V9H6V6Z" fill="black"/>
<path d="M6 35H9V38H6V35Z" fill="black"/>
<path d="M365 6H368V9H365V6Z" fill="black"/>
<path d="M15 44L18 43.9915V47H15V50H12V41H9V38H15V44Z" fill="black"/>
<path d="M18 41H21V44H18V41Z" fill="black"/>
<path d="M27.3521 27.4011H30.7121V30.7611H13.9121V27.4011H17.2721V17.3211H20.6321V27.4011H23.9921V17.3211H20.6321V13.9611H27.3521V27.4011ZM44.1484 13.9611V24.0411H37.4284V30.7611H34.0684V13.9611H44.1484ZM40.7884 20.6811V17.3211H37.4284V20.6811H40.7884ZM50.858 17.3211V20.6811H54.218V24.0411H50.858V27.4011H57.578V30.7611H47.498V13.9611H57.578V17.3211H50.858ZM71.0077 17.3211H64.2877V13.9611H71.0077V17.3211ZM64.2877 27.4011H71.0077V30.7611H60.9277V17.3211H64.2877V27.4011ZM84.4374 17.3211H77.7174V13.9611H84.4374V17.3211ZM77.7174 27.4011H84.4374V30.7611H74.3574V17.3211H77.7174V27.4011ZM97.8671 20.6811V24.0411H87.7871V20.6811H97.8671ZM104.577 20.6811H107.937V24.0411H104.577V30.7611H101.217V13.9611H104.577V20.6811ZM107.937 13.9611H111.297V20.6811H107.937V13.9611ZM107.937 30.7611V24.0411H111.297V30.7611H107.937ZM124.726 13.9611V30.7611H114.646V17.3211H118.006V27.4011H121.366V17.3211H118.006V13.9611H124.726ZM141.516 27.4011H144.876V30.7611H128.076V27.4011H131.436V17.3211H134.796V27.4011H138.156V17.3211H134.796V13.9611H141.516V27.4011ZM158.312 13.9611V24.0411H151.592V20.6811H154.952V17.3211H148.232V13.9611H158.312ZM151.592 30.7611V27.4011H154.952V30.7611H151.592ZM175.109 13.9611H178.469V30.7611H175.109V24.0411H171.749V30.7611H168.389V13.9611H171.749V20.6811H175.109V13.9611ZM185.178 17.3211V20.6811H188.538V24.0411H185.178V27.4011H191.898V30.7611H181.818V13.9611H191.898V17.3211H185.178ZM195.248 27.4011H198.608V34.1211H195.248V27.4011ZM215.421 13.9611H218.781V30.7611H215.421V24.0411H212.061V30.7611H208.701V13.9611H212.061V20.6811H215.421V13.9611ZM225.491 17.3211V20.6811H228.851V24.0411H225.491V27.4011H232.211V30.7611H222.131V13.9611H232.211V17.3211H225.491ZM252.367 17.3211H245.647V13.9611H252.367V17.3211ZM245.647 27.4011H252.367V30.7611H242.287V17.3211H245.647V27.4011ZM269.157 13.9611V30.7611H265.797V17.3211H262.437V13.9611H269.157ZM259.077 17.3211H262.437V30.7611H255.717V27.4011H259.077V17.3211ZM275.881 20.6811H282.601V30.7611H272.521V13.9611H275.881V20.6811ZM285.961 13.9611H289.321V30.7611H285.961V13.9611ZM279.241 27.4011V24.0411H275.881V27.4011H279.241ZM306.118 13.9611H309.478V30.7611H292.678V13.9611H296.038V27.4011H299.398V13.9611H302.758V27.4011H306.118V13.9611ZM326.274 13.9611V30.7611H322.914V25.7211H316.194V30.7611H312.834V17.3211H316.194V22.3611H322.914V17.3211H316.194V13.9611H326.274ZM343.079 13.9611V30.7611H339.719V17.3211H336.359V13.9611H343.079ZM332.999 17.3211H336.359V30.7611H329.639V27.4011H332.999V17.3211ZM349.803 20.6811H353.163V24.0411H349.803V30.7611H346.443V13.9611H349.803V20.6811ZM356.523 13.9611H359.883V30.7611H356.523V20.6811H353.163V17.3211H356.523V13.9611Z" fill="black"/>
</svg>
