<svg width="197" height="81" viewBox="0 0 197 81" fill="none" xmlns="http://www.w3.org/2000/svg">
<rect x="5.61084" y="6.31067" width="185.747" height="60.1634" fill="white"/>
<path d="M191.358 6.31067H188.609V9.05933H191.358V6.31067Z" fill="white" stroke="white" stroke-width="5.43327" stroke-miterlimit="10"/>
<path d="M8.3595 63.7254H5.61084V66.4741H8.3595V63.7254Z" fill="white" stroke="white" stroke-width="5.43327" stroke-miterlimit="10"/>
<path d="M182.727 69.2228H179.979V71.9715H182.727V69.2228Z" fill="white" stroke="white" stroke-width="5.43327" stroke-miterlimit="10"/>
<path d="M179.979 66.4742H8.36084V69.2228H179.979V66.4742Z" fill="white" stroke="white" stroke-width="5.43327" stroke-miterlimit="10"/>
<path d="M194.106 9.05951H191.357V66.4742H194.106V9.05951Z" fill="white" stroke="white" stroke-width="5.43327" stroke-miterlimit="10"/>
<path d="M188.61 3.56201H8.36084V6.31067H188.61V3.56201Z" fill="white" stroke="white" stroke-width="5.43327" stroke-miterlimit="10"/>
<path d="M5.61243 9.05939H2.86377V63.7254H5.61243V9.05939Z" fill="white" stroke="white" stroke-width="5.43327" stroke-miterlimit="10"/>
<path d="M176.486 35.2983H173.737V38.047H176.486V35.2983Z" fill="white" stroke="white" stroke-width="5.43327" stroke-miterlimit="10"/>
<path d="M176.486 4.62708H173.737V7.37574H176.486V4.62708Z" fill="white" stroke="white" stroke-width="5.43327" stroke-miterlimit="10"/>
<path d="M8.36097 6.31073H5.6123V9.05939H8.36097V6.31073Z" fill="white" stroke="white" stroke-width="5.43327" stroke-miterlimit="10"/>
<path d="M185.47 71.9657H182.728V75.1045H185.47V77.8532H188.219V69.2228H191.358V66.4742H185.47V71.9657Z" fill="white" stroke="white" stroke-width="5.43327" stroke-miterlimit="10"/>
<path d="M8.36097 63.7254H5.6123V66.4741H8.36097V63.7254Z" fill="black"/>
<path d="M182.727 69.2228H179.979V71.9715H182.727V69.2228Z" fill="black"/>
<path d="M179.979 66.4742H8.36084V69.2228H179.979V66.4742Z" fill="black"/>
<path d="M194.107 9.05945H191.358V66.4742H194.107V9.05945Z" fill="black"/>
<path d="M188.61 3.56207H8.36084V6.31073H188.61V3.56207Z" fill="black"/>
<path d="M5.61243 9.05939H2.86377V63.7254H5.61243V9.05939Z" fill="black"/>
<path d="M191.358 6.31073H188.609V9.05939H191.358V6.31073Z" fill="black"/>
<path d="M8.36097 6.31073H5.6123V9.05939H8.36097V6.31073Z" fill="black"/>
<path d="M185.47 71.9657H182.728V75.1045H185.47V77.8532H188.219V69.2228H191.358V66.4742H185.47V71.9657Z" fill="black"/>
<path d="M22.8559 13.5107H12.7759V30.3107H16.1359V23.5907H22.8559V13.5107ZM19.4959 20.2307H16.1359V16.8707H19.4959V20.2307ZM39.6456 13.5107H29.5656V16.8707H36.2856V21.9107H29.5656V16.8707H26.2056V30.3107H29.5656V25.2707H36.2856V30.3107H39.6456V13.5107ZM56.4503 20.2307H46.3703V16.8707H53.0903V13.5107H43.0103V30.3107H53.0903V26.9507H46.3703V23.5907H53.0903V26.9507H56.4503V20.2307ZM69.8949 13.5107H63.1749V16.8707H66.5349V26.9507H63.1749V16.8707H59.8149V30.3107H69.8949V13.5107ZM83.3246 13.5107H73.2446V16.8707H76.6046V30.3107H79.9646V16.8707H83.3246V13.5107ZM100.114 13.5107H90.0343V16.8707H96.7543V21.9107H90.0343V16.8707H86.6743V30.3107H90.0343V25.2707H96.7543V30.3107H100.114V13.5107ZM106.839 16.8707H113.559V13.5107H103.479V30.3107H113.559V26.9507H106.839V23.5907H110.199V20.2307H106.839V16.8707ZM120.269 16.8707V13.5107H116.909V30.3107H120.269V20.2307H123.629V16.8707H120.269ZM130.349 13.5107V16.8707H126.989V20.2307H130.349V30.3107H133.709V13.5107H130.349ZM123.629 23.5907H126.989V20.2307H123.629V23.5907ZM157.232 20.2307H147.152V16.8707H153.872V13.5107H143.792V30.3107H153.872V26.9507H147.152V23.5907H153.872V26.9507H157.232V20.2307ZM163.956 16.8707H170.676V13.5107H160.596V30.3107H170.676V26.9507H163.956V23.5907H167.316V20.2307H163.956V16.8707ZM184.106 13.5107H174.026V16.8707H180.746V20.2307H184.106V13.5107ZM174.026 20.2307V23.5907H180.746V20.2307H174.026ZM180.746 26.9507H174.026V30.3107H184.106V23.5907H180.746V26.9507ZM26.2159 49.2307H16.1359V45.8707H22.8559V42.5107H12.7759V59.3107H22.8559V55.9507H16.1359V52.5907H22.8559V55.9507H26.2159V49.2307ZM46.3806 42.5107H36.3006V49.2307H32.9406V42.5107H29.5806V59.3107H32.9406V52.5907H36.3006V59.3107H46.3806V42.5107ZM43.0206 45.8707V55.9507H39.6606V45.8707H43.0206ZM59.8168 42.5107H49.7368V59.3107H53.0968V52.5907H59.8168V42.5107ZM56.4568 49.2307H53.0968V45.8707H56.4568V49.2307ZM73.2465 42.5107H66.5265V45.8707H69.8865V55.9507H66.5265V45.8707H63.1665V59.3107H73.2465V42.5107ZM79.9562 49.2307V42.5107H76.5962V59.3107H79.9562V52.5907H83.3162V49.2307H79.9562ZM83.3162 42.5107V49.2307H86.6762V42.5107H83.3162ZM83.3162 59.3107H86.6762V52.5907H83.3162V59.3107ZM100.106 42.5107H90.0259V59.3107H93.3859V52.5907H100.106V42.5107ZM96.7459 49.2307H93.3859V45.8707H96.7459V49.2307ZM116.896 42.5107H106.816V45.8707H113.536V50.9107H106.816V45.8707H103.456V59.3107H106.816V54.2707H113.536V59.3107H116.896V42.5107ZM130.34 42.5107H120.26V45.8707H123.62V59.3107H126.98V45.8707H130.34V42.5107ZM137.05 49.2307V42.5107H133.69V59.3107H137.05V52.5907H140.41V49.2307H137.05ZM143.77 42.5107V45.8707H140.41V49.2307H143.77V59.3107H147.13V42.5107H143.77ZM153.855 49.2307V42.5107H150.495V59.3107H153.855V52.5907H157.215V49.2307H153.855ZM160.575 42.5107V45.8707H157.215V49.2307H160.575V59.3107H163.935V42.5107H160.575Z" fill="black"/>
</svg>
