<svg width="349" height="52" viewBox="0 0 349 52" fill="none" xmlns="http://www.w3.org/2000/svg">
<rect x="5.91113" y="5.77637" width="336.946" height="31.1757" fill="white"/>
<path d="M8.66028 34.2031H5.91162V36.9518H8.66028V34.2031Z" fill="white" stroke="white" stroke-width="5.43327" stroke-miterlimit="10"/>
<path d="M334.227 39.7002H331.478V42.4489H334.227V39.7002Z" fill="white" stroke="white" stroke-width="5.43327" stroke-miterlimit="10"/>
<path d="M342.857 5.77637H340.108V8.52503H342.857V5.77637Z" fill="white" stroke="white" stroke-width="5.43327" stroke-miterlimit="10"/>
<path d="M327.586 36.9521H8.65967V39.7008H327.586V36.9521Z" fill="white" stroke="white" stroke-width="5.43327" stroke-miterlimit="10"/>
<path d="M345.606 8.52441H342.857V36.9515H345.606V8.52441Z" fill="white" stroke="white" stroke-width="5.43327" stroke-miterlimit="10"/>
<path d="M340.109 3.02734H8.65967V5.77601H340.109V3.02734Z" fill="white" stroke="white" stroke-width="5.43327" stroke-miterlimit="10"/>
<path d="M5.91077 8.52441H3.16211V33.8226H5.91077V8.52441Z" fill="white" stroke="white" stroke-width="5.43327" stroke-miterlimit="10"/>
<path d="M327.587 5.77637H324.838V8.52503H327.587V5.77637Z" fill="white" stroke="white" stroke-width="5.43327" stroke-miterlimit="10"/>
<path d="M331.079 34.2031H324.838V36.9518H331.079V34.2031Z" fill="white" stroke="white" stroke-width="5.43327" stroke-miterlimit="10"/>
<path d="M8.6598 5.77637H5.91113V8.52503H8.6598V5.77637Z" fill="white" stroke="white" stroke-width="5.43327" stroke-miterlimit="10"/>
<path d="M336.969 42.4436H334.227V45.5825H336.969V48.3311H339.718V39.7008H342.857V36.9521H336.969V42.4436Z" fill="white" stroke="white" stroke-width="5.43327" stroke-miterlimit="10"/>
<path d="M8.6598 34.2031H5.91113V36.9518H8.6598V34.2031Z" fill="black"/>
<path d="M334.227 39.7002H331.478V42.4489H334.227V39.7002Z" fill="black"/>
<path d="M331.478 36.9521H8.65967V39.7008H331.478V36.9521Z" fill="black"/>
<path d="M345.606 8.52441H342.857V36.9515H345.606V8.52441Z" fill="black"/>
<path d="M340.109 3.02734H8.65967V5.77601H340.109V3.02734Z" fill="black"/>
<path d="M5.91126 8.52441H3.1626V34.2028H5.91126V8.52441Z" fill="black"/>
<path d="M342.857 5.77637H340.108V8.52503H342.857V5.77637Z" fill="black"/>
<path d="M8.6598 5.77637H5.91113V8.52503H8.6598V5.77637Z" fill="black"/>
<path d="M336.969 42.4436H334.227V45.5825H336.969V48.3311H339.718V39.7008H342.857V36.9521H336.969V42.4436Z" fill="black"/>
<path d="M23.1835 19.6964H16.4635V16.3364H23.1835V12.9764H13.1035V29.7764H23.1835V26.4164H16.4635V23.0564H23.1835V19.6964ZM26.5435 19.6964V16.3364H23.1835V19.6964H26.5435ZM26.5435 26.4164V23.0564H23.1835V26.4164H26.5435ZM46.7148 16.3364V12.9764H39.9948V16.3364H46.7148ZM39.9948 26.4164V16.3364H36.6348V26.4164H39.9948ZM50.0748 26.4164V16.3364H46.7148V26.4164H39.9948V29.7764H53.4348V26.4164H50.0748ZM56.791 12.9764V29.7764H60.151V12.9764H56.791ZM66.8776 23.0564V12.9764H63.5176V23.0564H66.8776ZM76.9816 12.9764V23.0564H80.3416V12.9764H76.9816ZM73.5976 19.6964H70.2376V23.0564H66.8776V29.7764H70.2376V26.4164H73.5976V29.7764H76.9576V23.0564H73.5976V19.6964ZM83.6973 12.9764V29.7764H87.0573V12.9764H83.6973ZM110.59 19.6964H100.51V16.3364H107.23V12.9764H97.1504V29.7764H107.23V26.4164H100.51V23.0564H107.23V26.4164H110.59V19.6964ZM117.315 19.6964V12.9764H113.955V29.7764H124.035V19.6964H117.315ZM127.395 12.9764V29.7764H130.755V12.9764H127.395ZM120.675 26.4164H117.315V23.0564H120.675V26.4164ZM144.191 19.6964H137.471V16.3364H144.191V12.9764H134.111V29.7764H144.191V26.4164H137.471V23.0564H144.191V19.6964ZM147.551 19.6964V16.3364H144.191V19.6964H147.551ZM147.551 26.4164V23.0564H144.191V26.4164H147.551ZM164.356 12.9764V26.4164H160.996V12.9764H157.636V26.4164H154.276V12.9764H150.916V29.7764H167.716V12.9764H164.356ZM174.432 19.6964V12.9764H171.072V29.7764H174.432V23.0564H177.792V19.6964H174.432ZM181.152 12.9764V16.3364H177.792V19.6964H181.152V29.7764H184.512V12.9764H181.152ZM191.237 12.9764H187.877V19.6964H191.237V12.9764ZM194.597 12.9764V19.6964H197.957V12.9764H194.597ZM191.237 23.0564H194.597V19.6964H191.237V23.0564ZM187.877 23.0564V29.7764H191.237V23.0564H187.877ZM194.597 29.7764H197.957V23.0564H194.597V29.7764ZM214.753 12.9764V19.6964H211.393V12.9764H208.033V29.7764H211.393V23.0564H214.753V29.7764H218.113V12.9764H214.753ZM224.823 16.3364H231.543V12.9764H221.463V29.7764H231.543V26.4164H224.823V23.0564H228.183V19.6964H224.823V16.3364ZM255.059 19.6964H244.979V16.3364H251.699V12.9764H241.619V29.7764H251.699V26.4164H244.979V23.0564H251.699V26.4164H255.059V19.6964ZM261.784 19.6964V12.9764H258.424V29.7764H268.504V19.6964H261.784ZM271.864 12.9764V29.7764H275.224V12.9764H271.864ZM265.144 26.4164H261.784V23.0564H265.144V26.4164ZM288.66 19.6964H281.94V16.3364H288.66V12.9764H278.58V29.7764H288.66V26.4164H281.94V23.0564H288.66V19.6964ZM292.02 19.6964V16.3364H288.66V19.6964H292.02ZM292.02 26.4164V23.0564H288.66V26.4164H292.02ZM308.825 12.9764H298.745V16.3364H305.465V21.3764H298.745V16.3364H295.385V29.7764H298.745V24.7364H305.465V29.7764H308.825V12.9764ZM315.549 16.3364H322.269V12.9764H312.189V29.7764H322.269V26.4164H315.549V23.0564H318.909V19.6964H315.549V16.3364ZM335.699 12.9764H325.619V16.3364H328.979V29.7764H332.339V16.3364H335.699V12.9764Z" fill="black"/>
</svg>
