<svg width="217" height="52" viewBox="0 0 217 52" fill="none" xmlns="http://www.w3.org/2000/svg">
<rect x="5.52539" y="6.45703" width="205.745" height="31.1633" fill="white"/>
<path d="M8.27405 34.8721H5.52539V37.6207H8.27405V34.8721Z" fill="white" stroke="white" stroke-width="5.43327" stroke-miterlimit="10"/>
<path d="M211.27 6.45703H208.521V9.20569H211.27V6.45703Z" fill="white" stroke="white" stroke-width="5.43327" stroke-miterlimit="10"/>
<path d="M197.142 37.6211H8.27344V40.3698H197.142V37.6211Z" fill="white" stroke="white" stroke-width="5.43327" stroke-miterlimit="10"/>
<path d="M214.019 9.19336H211.271V34.8718H214.019V9.19336Z" fill="white" stroke="white" stroke-width="5.43327" stroke-miterlimit="10"/>
<path d="M208.521 3.69629H8.27344V6.44495H208.521V3.69629Z" fill="white" stroke="white" stroke-width="5.43327" stroke-miterlimit="10"/>
<path d="M5.52503 9.19336H2.77637V34.8718H5.52503V9.19336Z" fill="white" stroke="white" stroke-width="5.43327" stroke-miterlimit="10"/>
<path d="M201.845 6.44531H199.097V9.19397H201.845V6.44531Z" fill="white" stroke="white" stroke-width="5.43327" stroke-miterlimit="10"/>
<path d="M211.271 34.8721H208.521V37.6207H211.271V34.8721Z" fill="white" stroke="white" stroke-width="5.43327" stroke-miterlimit="10"/>
<path d="M8.27405 6.44531H5.52539V9.19397H8.27405V6.44531Z" fill="white" stroke="white" stroke-width="5.43327" stroke-miterlimit="10"/>
<path d="M202.633 43.1126H199.891V46.2514H202.633V49.0001H205.382V40.3698H208.521V37.6211H202.633V43.1126Z" fill="white" stroke="white" stroke-width="5.43327" stroke-miterlimit="10"/>
<path d="M8.27405 34.8721H5.52539V37.6207H8.27405V34.8721Z" fill="black"/>
<path d="M199.891 40.3691H197.143V43.1178H199.891V40.3691Z" fill="black"/>
<path d="M197.143 37.6211H8.27344V40.3698H197.143V37.6211Z" fill="black"/>
<path d="M214.019 9.19336H211.271V34.8718H214.019V9.19336Z" fill="black"/>
<path d="M208.522 3.69629H8.27344V6.44495H208.522V3.69629Z" fill="black"/>
<path d="M5.52503 9.19336H2.77637V34.8718H5.52503V9.19336Z" fill="black"/>
<path d="M211.27 6.44531H208.521V9.19397H211.27V6.44531Z" fill="black"/>
<path d="M211.27 34.8721H208.521V37.6207H211.27V34.8721Z" fill="black"/>
<path d="M8.27405 6.44531H5.52539V9.19397H8.27405V6.44531Z" fill="black"/>
<path d="M202.634 43.1126H199.892V46.2514H202.634V49.0001H205.383V40.3698H208.522V37.6211H202.634V43.1126Z" fill="black"/>
<path d="M19.4085 13.657V20.377H16.0485V13.657H12.6885V30.457H16.0485V23.737H19.4085V30.457H22.7685V13.657H19.4085ZM29.4782 17.017H36.1982V13.657H26.1182V30.457H36.1982V27.097H29.4782V23.737H32.8382V20.377H29.4782V17.017ZM49.6279 13.657H39.5479V17.017H42.9079V30.457H46.2679V17.017H49.6279V13.657ZM73.1441 20.377H63.0641V17.017H69.7841V13.657H59.7041V30.457H69.7841V27.097H63.0641V23.737H69.7841V27.097H73.1441V20.377ZM79.8688 20.377V13.657H76.5088V30.457H79.8688V23.737H83.2288V20.377H79.8688ZM86.5888 13.657V17.017H83.2288V20.377H86.5888V30.457H89.9488V13.657H86.5888ZM103.393 13.657H93.3135V30.457H96.6735V17.017H103.393V13.657ZM116.823 20.377H106.743V23.737H116.823V20.377ZM133.613 20.377H123.533V17.017H130.253V13.657H120.173V30.457H130.253V27.097H123.533V23.737H130.253V27.097H133.613V20.377ZM147.058 13.657H140.338V17.017H143.698V27.097H140.338V17.017H136.978V30.457H147.058V13.657ZM160.487 17.017V13.657H153.767V17.017H160.487ZM153.767 27.097V17.017H150.407V30.457H160.487V27.097H153.767ZM173.917 17.017V13.657H167.197V17.017H173.917ZM167.197 27.097V17.017H163.837V30.457H173.917V27.097H167.197ZM187.347 13.657H180.627V17.017H183.987V27.097H180.627V17.017H177.267V30.457H187.347V13.657ZM200.776 20.377H194.056V17.017H200.776V13.657H190.696V30.457H200.776V27.097H194.056V23.737H200.776V20.377ZM204.136 20.377V17.017H200.776V20.377H204.136ZM204.136 27.097V23.737H200.776V27.097H204.136Z" fill="black"/>
</svg>
