<svg width="275" height="52" viewBox="0 0 275 52" fill="none" xmlns="http://www.w3.org/2000/svg">
<rect x="5.88745" y="6.4585" width="262.909" height="31.1624" fill="white"/>
<path d="M8.63611 34.8723H5.88745V37.6209H8.63611V34.8723Z" fill="white" stroke="white" stroke-width="5.43327" stroke-miterlimit="10"/>
<path d="M260.166 40.3697H257.417V43.1184H260.166V40.3697Z" fill="white" stroke="white" stroke-width="5.43327" stroke-miterlimit="10"/>
<path d="M253.924 37.621H8.63611V40.3697H253.924V37.621Z" fill="white" stroke="white" stroke-width="5.43327" stroke-miterlimit="10"/>
<path d="M271.545 9.19385H268.796V34.8723H271.545V9.19385Z" fill="white" stroke="white" stroke-width="5.43327" stroke-miterlimit="10"/>
<path d="M266.048 3.69659H8.63611V6.44526H266.048V3.69659Z" fill="white" stroke="white" stroke-width="5.43327" stroke-miterlimit="10"/>
<path d="M5.88746 9.19385H3.13879V34.8723H5.88746V9.19385Z" fill="white" stroke="white" stroke-width="5.43327" stroke-miterlimit="10"/>
<path d="M253.924 6.44525H251.176V9.19391H253.924V6.44525Z" fill="white" stroke="white" stroke-width="5.43327" stroke-miterlimit="10"/>
<path d="M257.417 34.8723H251.176V37.6209H257.417V34.8723Z" fill="white" stroke="white" stroke-width="5.43327" stroke-miterlimit="10"/>
<path d="M8.63611 6.44525H5.88745V9.19391H8.63611V6.44525Z" fill="white" stroke="white" stroke-width="5.43327" stroke-miterlimit="10"/>
<path d="M262.909 43.1125H260.166V46.2514H262.909V49H265.657V40.3697H268.796V37.621H262.909V43.1125Z" fill="white" stroke="white" stroke-width="5.43327" stroke-miterlimit="10"/>
<path d="M257.4 38.2656H260.148V41.0085H262.891V35.517H268.779V32.7683H271.545V3.65111H268.796V0.919922H30.5128V3.66858H27.7642V32.7858H30.5128V35.5344H257.4V38.2656Z" fill="white"/>
<path d="M8.63611 34.8723H5.88745V37.6209H8.63611V34.8723Z" fill="black"/>
<path d="M260.166 40.3697H257.417V43.1184H260.166V40.3697Z" fill="black"/>
<path d="M257.417 37.621H8.63611V40.3697H257.417V37.621Z" fill="black"/>
<path d="M271.545 9.19385H268.796V34.8723H271.545V9.19385Z" fill="black"/>
<path d="M266.048 3.69659H8.63611V6.44526H266.048V3.69659Z" fill="black"/>
<path d="M5.88733 9.19385H3.13867V34.8723H5.88733V9.19385Z" fill="black"/>
<path d="M268.797 6.44525H266.048V9.19391H268.797V6.44525Z" fill="black"/>
<path d="M271.545 34.8723H268.796V37.6209H271.545V34.8723Z" fill="black"/>
<path d="M8.63611 6.44525H5.88745V9.19391H8.63611V6.44525Z" fill="black"/>
<path d="M262.909 43.1125H260.166V46.2514H262.909V49H265.657V40.3697H268.796V37.621H262.909V43.1125Z" fill="black"/>
<path d="M19.7702 13.6585V20.3785H16.4102V13.6585H13.0502V30.4585H16.4102V23.7385H19.7702V30.4585H23.1302V13.6585H19.7702ZM29.8399 17.0185H36.5599V13.6585H26.4799V30.4585H36.5599V27.0985H29.8399V23.7385H33.1999V20.3785H29.8399V17.0185ZM60.0761 20.3785H49.9961V17.0185H56.7161V13.6585H46.6361V30.4585H56.7161V27.0985H49.9961V23.7385H56.7161V27.0985H60.0761V20.3785ZM73.5208 13.6585H66.8008V17.0185H70.1608V27.0985H66.8008V17.0185H63.4408V30.4585H73.5208V13.6585ZM85.2705 10.2985H81.9105V13.6585H85.2705V10.2985ZM80.2305 20.3785V13.6585H76.8705V30.4585H80.2305V23.7385H83.5905V20.3785H80.2305ZM86.9505 13.6585V17.0185H83.5905V20.3785H86.9505V30.4585H90.3105V13.6585H86.9505ZM103.755 17.0185V13.6585H97.0352V17.0185H103.755ZM97.0352 27.0985V17.0185H93.6752V30.4585H103.755V27.0985H97.0352ZM117.185 13.6585H107.105V20.3785H110.465V17.0185H113.825V20.3785H110.465V23.7385H113.825V30.4585H117.185V13.6585ZM107.105 23.7385V30.4585H110.465V23.7385H107.105ZM137.341 13.6585H130.621V17.0185H133.981V27.0985H130.621V17.0185H127.261V30.4585H137.341V13.6585ZM154.131 13.6585V27.0985H150.771V13.6585H147.411V27.0985H144.051V13.6585H140.691V30.4585H157.491V13.6585H154.131ZM164.207 20.3785V13.6585H160.847V30.4585H164.207V23.7385H167.567V20.3785H164.207ZM170.927 13.6585V17.0185H167.567V20.3785H170.927V30.4585H174.287V13.6585H170.927ZM191.092 20.3785H181.012V17.0185H187.732V13.6585H177.652V30.4585H187.732V27.0985H181.012V23.7385H187.732V27.0985H191.092V20.3785ZM207.896 13.6585H197.816V17.0185H204.536V22.0585H197.816V17.0185H194.456V30.4585H197.816V25.4185H204.536V30.4585H207.896V13.6585ZM221.341 13.6585H211.261V17.0185H214.621V30.4585H217.981V17.0185H221.341V13.6585ZM234.771 20.3785H228.051V13.6585H224.691V30.4585H234.771V20.3785ZM231.411 27.0985H228.051V23.7385H231.411V27.0985ZM248.2 17.0185V13.6585H241.48V17.0185H248.2ZM241.48 27.0985V17.0185H238.12V30.4585H248.2V27.0985H241.48ZM261.63 13.6585H251.55V20.3785H254.91V17.0185H258.27V20.3785H254.91V23.7385H258.27V30.4585H261.63V13.6585ZM251.55 23.7385V30.4585H254.91V23.7385H251.55Z" fill="black"/>
</svg>
