<svg width="367" height="53" viewBox="0 0 367 53" fill="none" xmlns="http://www.w3.org/2000/svg">
<rect width="360" height="31" transform="matrix(-1 0 0 1 361 7)" fill="white"/>
<path d="M18 41H21V44H18V41Z" fill="black" stroke="white" stroke-width="5"/>
<path d="M15 44L18 43.9915V47H15V50H12V41H9V38H15V44Z" stroke="white" stroke-width="5"/>
<path d="M358 35H361V38H358V35Z" fill="white" stroke="white" stroke-width="5.43327" stroke-miterlimit="10"/>
<path d="M6 6H9V9H6V6Z" fill="white" stroke="white" stroke-width="5.43327" stroke-miterlimit="10"/>
<path d="M18 38H358V41H18V38Z" fill="white" stroke="white" stroke-width="5.43327" stroke-miterlimit="10"/>
<path d="M3 9H6V35H3V9Z" fill="white" stroke="white" stroke-width="5.43327" stroke-miterlimit="10"/>
<path d="M9 3H358V6H9V3Z" fill="white" stroke="white" stroke-width="5.43327" stroke-miterlimit="10"/>
<path d="M361 9H364V35H361V9Z" fill="white" stroke="white" stroke-width="5.43327" stroke-miterlimit="10"/>
<path d="M17.9308 6.74866H20.6794V9.49732H17.9308V6.74866Z" fill="white" stroke="white" stroke-width="5.43327" stroke-miterlimit="10"/>
<path d="M6 35H9V38H6V35Z" fill="white" stroke="white" stroke-width="5.43327" stroke-miterlimit="10"/>
<path d="M358 6H361V9H358V6Z" fill="white" stroke="white" stroke-width="5.43327" stroke-miterlimit="10"/>
<path d="M358 35H361V38H358V35Z" fill="black"/>
<path d="M21 38H358V41H21V38Z" fill="black"/>
<path d="M3 9H6V35H3V9Z" fill="black"/>
<path d="M9 3H358V6H9V3Z" fill="black"/>
<path d="M361 9H364V35H361V9Z" fill="black"/>
<path d="M6 6H9V9H6V6Z" fill="black"/>
<path d="M6 35H9V38H6V35Z" fill="black"/>
<path d="M358 6H361V9H358V6Z" fill="black"/>
<path d="M15 44L18 43.9915V47H15V50H12V41H9V38H15V44Z" fill="black"/>
<path d="M18 41H21V44H18V41Z" fill="black"/>
<path d="M23.9921 17.3211H17.2721V13.9611H23.9921V17.3211ZM17.2721 27.4011H23.9921V30.7611H13.9121V17.3211H17.2721V27.4011ZM37.4218 13.9611V30.7611H27.3418V17.3211H30.7018V27.4011H34.0618V17.3211H30.7018V13.9611H37.4218ZM50.8515 27.4011H54.2115V30.7611H40.7715V13.9611H44.1315V27.4011H47.4915V13.9611H50.8515V27.4011ZM74.3827 13.9611V30.7611H71.0227V17.3211H67.6627V30.7611H64.3027V13.9611H74.3827ZM91.1724 13.9611V30.7611H87.8124V25.7211H81.0924V30.7611H77.7324V17.3211H81.0924V22.3611H87.8124V17.3211H81.0924V13.9611H91.1724ZM97.8971 20.6811H101.257V24.0411H97.8971V30.7611H94.5371V13.9611H97.8971V20.6811ZM101.257 13.9611H104.617V20.6811H101.257V13.9611ZM101.257 30.7611V24.0411H104.617V30.7611H101.257ZM111.327 17.3211V20.6811H114.687V24.0411H111.327V27.4011H118.047V30.7611H107.967V13.9611H118.047V17.3211H111.327ZM131.476 13.9611V17.3211H128.116V30.7611H124.756V17.3211H121.396V13.9611H131.476ZM148.273 13.9611H151.633V30.7611H148.273V24.0411H144.913V30.7611H141.553V13.9611H144.913V20.6811H148.273V13.9611ZM168.422 13.9611V30.7611H165.062V25.7211H158.342V30.7611H154.982V17.3211H158.342V22.3611H165.062V17.3211H158.342V13.9611H168.422ZM181.874 17.3211H185.234V20.6811H181.874V30.7611H178.514V13.9611H181.874V17.3211ZM191.954 13.9611H195.314V30.7611H191.954V20.6811H188.594V17.3211H191.954V13.9611ZM185.234 24.0411V20.6811H188.594V24.0411H185.234ZM212.11 13.9611V30.7611H208.75V25.7211H202.03V30.7611H198.67V17.3211H202.03V22.3611H208.75V17.3211H202.03V13.9611H212.11ZM218.835 20.6811H222.195V24.0411H218.835V30.7611H215.475V13.9611H218.835V20.6811ZM222.195 13.9611H225.555V20.6811H222.195V13.9611ZM222.195 30.7611V24.0411H225.555V30.7611H222.195ZM238.984 17.3211H232.264V13.9611H238.984V17.3211ZM232.264 27.4011H238.984V30.7611H228.904V17.3211H232.264V27.4011ZM245.694 20.6811H249.054V24.0411H245.694V30.7611H242.334V13.9611H245.694V20.6811ZM252.414 13.9611H255.774V30.7611H252.414V20.6811H249.054V17.3211H252.414V13.9611ZM262.499 17.3211H265.859V20.6811H262.499V30.7611H259.139V13.9611H262.499V17.3211ZM272.579 13.9611H275.939V30.7611H272.579V20.6811H269.219V17.3211H272.579V13.9611ZM265.859 24.0411V20.6811H269.219V24.0411H265.859ZM292.735 13.9611V30.7611H289.375V25.7211H282.655V30.7611H279.295V17.3211H282.655V22.3611H289.375V17.3211H282.655V13.9611H292.735ZM309.54 13.9611V30.7611H306.18V17.3211H302.82V13.9611H309.54ZM299.46 17.3211H302.82V30.7611H296.1V27.4011H299.46V17.3211ZM316.264 20.6811H319.624V24.0411H316.264V30.7611H312.904V13.9611H316.264V20.6811ZM319.624 13.9611H322.984V20.6811H319.624V13.9611ZM319.624 30.7611V24.0411H322.984V30.7611H319.624ZM339.774 13.9611V30.7611H336.414V25.7211H329.694V30.7611H326.334V17.3211H329.694V22.3611H336.414V17.3211H329.694V13.9611H339.774ZM346.499 13.9611V20.6811H343.139V13.9611H346.499ZM349.859 13.9611H353.219V20.6811H349.859V13.9611ZM346.499 24.0411V20.6811H349.859V24.0411H346.499ZM343.139 24.0411H346.499V30.7611H343.139V24.0411ZM349.859 30.7611V24.0411H353.219V30.7611H349.859Z" fill="black"/>
</svg>
