<svg width="238" height="81" viewBox="0 0 238 81" fill="none" xmlns="http://www.w3.org/2000/svg">
<rect x="6.08008" y="5.52441" width="225.967" height="60.4728" fill="white"/>
<path d="M8.82874 63.248H6.08008V65.9967H8.82874V63.248Z" fill="white" stroke="white" stroke-width="5.43327" stroke-miterlimit="10"/>
<path d="M232.047 63.248H229.299V65.9967H232.047V63.248Z" fill="white" stroke="white" stroke-width="5.43327" stroke-miterlimit="10"/>
<path d="M217.919 65.9971H8.82861V68.7457H217.919V65.9971Z" fill="white" stroke="white" stroke-width="5.43327" stroke-miterlimit="10"/>
<path d="M234.796 8.27246H232.047V63.2479H234.796V8.27246Z" fill="white" stroke="white" stroke-width="5.43327" stroke-miterlimit="10"/>
<path d="M229.299 2.77539H8.82861V5.52405H229.299V2.77539Z" fill="white" stroke="white" stroke-width="5.43327" stroke-miterlimit="10"/>
<path d="M6.07996 8.27246H3.3313V63.2479H6.07996V8.27246Z" fill="white" stroke="white" stroke-width="5.43327" stroke-miterlimit="10"/>
<path d="M224.512 34.8213H221.763V37.57H224.512V34.8213Z" fill="white" stroke="white" stroke-width="5.43327" stroke-miterlimit="10"/>
<path d="M232.047 5.52441H229.299V8.27308H232.047V5.52441Z" fill="white" stroke="white" stroke-width="5.43327" stroke-miterlimit="10"/>
<path d="M8.82874 5.52441H6.08008V8.27308H8.82874V5.52441Z" fill="white" stroke="white" stroke-width="5.43327" stroke-miterlimit="10"/>
<path d="M223.411 71.4886H220.668V74.6274H223.411V77.3761H226.16V68.7457H229.299V65.9971H223.411V71.4886Z" fill="white" stroke="white" stroke-width="5.43327" stroke-miterlimit="10"/>
<path d="M8.82874 63.248H6.08008V65.9967H8.82874V63.248Z" fill="black"/>
<path d="M220.668 68.7461H217.919V71.4948H220.668V68.7461Z" fill="black"/>
<path d="M217.919 65.9971H8.82861V68.7457H217.919V65.9971Z" fill="black"/>
<path d="M234.796 8.27246H232.047V63.2479H234.796V8.27246Z" fill="black"/>
<path d="M229.299 2.77539H8.82861V5.52405H229.299V2.77539Z" fill="black"/>
<path d="M6.07996 8.27246H3.3313V63.2479H6.07996V8.27246Z" fill="black"/>
<path d="M232.047 5.52441H229.299V8.27308H232.047V5.52441Z" fill="black"/>
<path d="M232.047 63.248H229.299V65.9967H232.047V63.248Z" fill="black"/>
<path d="M8.82874 5.52441H6.08008V8.27308H8.82874V5.52441Z" fill="black"/>
<path d="M223.411 71.4886H220.668V74.6274H223.411V77.3761H226.16V68.7457H229.299V65.9971H223.411V71.4886Z" fill="black"/>
<path d="M16.6034 19.754V13.034H13.2434V29.834H16.6034V23.114H19.9634V19.754H16.6034ZM19.9634 13.034V19.754H23.3234V13.034H19.9634ZM19.9634 29.834H23.3234V23.114H19.9634V29.834ZM40.1131 13.034H30.0331V16.394H36.7531V21.434H30.0331V16.394H26.6731V29.834H30.0331V24.794H36.7531V29.834H40.1131V13.034ZM46.8378 13.034H43.4778V19.754H46.8378V13.034ZM53.5578 19.754V13.034H50.1978V19.754H46.8378V23.114H50.1978V29.834H53.5578V23.114H56.9178V19.754H53.5578ZM56.9178 13.034V19.754H60.2778V13.034H56.9178ZM43.4778 23.114V29.834H46.8378V23.114H43.4778ZM56.9178 29.834H60.2778V23.114H56.9178V29.834ZM77.074 26.474V13.034H70.354V16.394H73.714V26.474H70.354V16.394H66.994V26.474H63.634V29.834H80.434V26.474H77.074ZM87.1503 19.754V13.034H83.7903V29.834H93.8703V19.754H87.1503ZM97.2303 13.034V29.834H100.59V13.034H97.2303ZM90.5103 26.474H87.1503V23.114H90.5103V26.474ZM112.347 9.67398H108.987V13.034H112.347V9.67398ZM107.307 19.754V13.034H103.947V29.834H107.307V23.114H110.667V19.754H107.307ZM114.027 13.034V16.394H110.667V19.754H114.027V29.834H117.387V13.034H114.027ZM137.558 13.034H127.478V29.834H130.838V23.114H137.558V13.034ZM134.198 19.754H130.838V16.394H134.198V19.754ZM144.267 16.394H150.987V13.034H140.907V29.834H150.987V26.474H144.267V23.114H147.627V19.754H144.267V16.394ZM167.777 13.034V26.474H164.417V13.034H161.057V26.474H157.697V13.034H154.337V29.834H171.137V13.034H167.777ZM187.933 13.034H177.853V16.394H184.573V21.434H177.853V16.394H174.493V29.834H177.853V24.794H184.573V29.834H187.933V13.034ZM194.658 16.394H201.378V13.034H191.298V29.834H201.378V26.474H194.658V23.114H198.018V19.754H194.658V16.394ZM214.808 13.034H204.728V16.394H208.088V29.834H211.448V16.394H214.808V13.034ZM218.157 26.474V33.194H221.517V26.474H218.157ZM16.6034 48.754V42.034H13.2434V58.834H16.6034V52.114H19.9634V48.754H16.6034ZM19.9634 42.034V48.754H23.3234V42.034H19.9634ZM19.9634 58.834H23.3234V52.114H19.9634V58.834ZM40.1131 42.034H30.0331V45.394H36.7531V50.434H30.0331V45.394H26.6731V58.834H30.0331V53.794H36.7531V58.834H40.1131V42.034ZM46.8378 48.754V42.034H43.4778V58.834H46.8378V52.114H50.1978V48.754H46.8378ZM50.1978 42.034V48.754H53.5578V42.034H50.1978ZM50.1978 58.834H53.5578V52.114H50.1978V58.834ZM73.714 42.034H63.634V58.834H66.994V52.114H73.714V42.034ZM70.354 48.754H66.994V45.394H70.354V48.754ZM90.5037 42.034H80.4237V45.394H87.1437V50.434H80.4237V45.394H77.0637V58.834H80.4237V53.794H87.1437V58.834H90.5037V42.034ZM103.948 42.034H93.8684V45.394H100.588V48.754H103.948V42.034ZM93.8684 48.754V52.114H100.588V48.754H93.8684ZM100.588 55.474H93.8684V58.834H103.948V52.114H100.588V55.474ZM117.378 48.754H110.658V45.394H117.378V42.034H107.298V58.834H117.378V55.474H110.658V52.114H117.378V48.754ZM120.738 48.754V45.394H117.378V48.754H120.738ZM120.738 55.474V52.114H117.378V55.474H120.738ZM127.463 48.754V42.034H124.103V58.834H127.463V52.114H130.823V48.754H127.463ZM134.183 42.034V45.394H130.823V48.754H134.183V58.834H137.543V42.034H134.183ZM150.987 48.754H144.267V45.394H150.987V42.034H140.907V58.834H150.987V55.474H144.267V52.114H150.987V48.754ZM154.347 48.754V45.394H150.987V48.754H154.347ZM154.347 55.474V52.114H150.987V55.474H154.347ZM171.152 42.034H161.072V45.394H167.792V50.434H161.072V45.394H157.712V58.834H161.072V53.794H167.792V58.834H171.152V42.034ZM184.597 42.034H174.517V45.394H177.877V58.834H181.237V45.394H184.597V42.034ZM198.027 48.754H191.307V42.034H187.947V58.834H198.027V48.754ZM194.667 55.474H191.307V52.114H194.667V55.474ZM211.456 45.394V42.034H204.736V45.394H211.456ZM204.736 55.474V45.394H201.376V58.834H211.456V55.474H204.736ZM224.886 42.034H214.806V48.754H218.166V45.394H221.526V48.754H218.166V52.114H221.526V58.834H224.886V42.034ZM214.806 52.114V58.834H218.166V52.114H214.806Z" fill="black"/>
</svg>
