<svg width="215" height="52" viewBox="0 0 215 52" fill="none" xmlns="http://www.w3.org/2000/svg">
<rect width="202.46" height="31.088" transform="matrix(-1 0 0 1 208.542 5.85315)" fill="white"/>
<path d="M205.792 34.1924H208.541V36.9411H205.792V34.1924Z" fill="white" stroke="white" stroke-width="5.43327" stroke-miterlimit="10"/>
<path d="M14.7264 39.6899H17.4751V42.4385H14.7264V39.6899Z" fill="white" stroke="white" stroke-width="5.43327" stroke-miterlimit="10"/>
<path d="M3.33288 34.1924H6.08154V36.9411H3.33288V34.1924Z" fill="white" stroke="white" stroke-width="5.43327" stroke-miterlimit="10"/>
<path d="M6.07995 5.85315H8.82861V8.60181H6.07995V5.85315Z" fill="white" stroke="white" stroke-width="5.43327" stroke-miterlimit="10"/>
<path d="M19.3757 36.9412H205.793V39.6899H19.3757V36.9412Z" fill="white" stroke="white" stroke-width="5.43327" stroke-miterlimit="10"/>
<path d="M3.34704 8.51404H6.0957V34.1924H3.34704V8.51404Z" fill="white" stroke="white" stroke-width="5.43327" stroke-miterlimit="10"/>
<path d="M8.8287 3.01672H205.793V5.76539H8.8287V3.01672Z" fill="white" stroke="white" stroke-width="5.43327" stroke-miterlimit="10"/>
<path d="M208.541 8.51404H211.29V34.1924H208.541V8.51404Z" fill="white" stroke="white" stroke-width="5.43327" stroke-miterlimit="10"/>
<path d="M20.9676 5.76538H23.7163V8.51404H20.9676V5.76538Z" fill="white" stroke="white" stroke-width="5.43327" stroke-miterlimit="10"/>
<path d="M17.4748 34.1924H23.7163V36.9411H17.4748V34.1924Z" fill="white" stroke="white" stroke-width="5.43327" stroke-miterlimit="10"/>
<path d="M205.792 5.76538H208.541V8.51404H205.792V5.76538Z" fill="white" stroke="white" stroke-width="5.43327" stroke-miterlimit="10"/>
<path d="M11.9832 42.4327H14.7261V45.5716H11.9832V48.3202H9.23458V39.6899H6.09574V36.9412H11.9832V42.4327Z" fill="white" stroke="white" stroke-width="5.43327" stroke-miterlimit="10"/>
<path d="M205.792 34.1924H208.541V36.9411H205.792V34.1924Z" fill="black"/>
<path d="M14.7264 39.6899H17.4751V42.4385H14.7264V39.6899Z" fill="black"/>
<path d="M17.459 36.9414H205.792V39.6901H17.459V36.9414Z" fill="black"/>
<path d="M3.34704 8.51404H6.0957V36.9411H3.34704V8.51404Z" fill="black"/>
<path d="M8.8287 3.01672H205.793V5.76539H8.8287V3.01672Z" fill="black"/>
<path d="M208.541 8.51404H211.29V34.1924H208.541V8.51404Z" fill="black"/>
<path d="M6.09558 5.76538H8.84424V8.51404H6.09558V5.76538Z" fill="black"/>
<path d="M205.793 5.76538H208.542V8.51404H205.793V5.76538Z" fill="black"/>
<path d="M11.9832 42.4327H14.7261V45.5716H11.9832V48.3202H9.23458V39.6899H6.09574V36.9412H11.9832V42.4327Z" fill="black"/>
<path d="M23.3393 16.4131V13.0531H16.6193V16.4131H23.3393ZM16.6193 26.4931V16.4131H13.2593V29.8531H23.3393V26.4931H16.6193ZM36.769 13.0531H30.049V16.4131H33.409V26.4931H30.049V16.4131H26.689V29.8531H36.769V13.0531ZM56.9252 19.7731H50.2052V16.4131H56.9252V13.0531H46.8452V29.8531H56.9252V26.4931H50.2052V23.1331H56.9252V19.7731ZM60.2852 19.7731V16.4131H56.9252V19.7731H60.2852ZM60.2852 26.4931V23.1331H56.9252V26.4931H60.2852ZM73.7299 16.4131V13.0531H67.0099V16.4131H73.7299ZM67.0099 26.4931V16.4131H63.6499V29.8531H73.7299V26.4931H67.0099ZM80.4396 16.4131H87.1596V13.0531H77.0796V29.8531H87.1596V26.4931H80.4396V23.1331H83.7996V19.7731H80.4396V16.4131ZM93.8693 16.4131V13.0531H90.5093V29.8531H93.8693V19.7731H97.2293V16.4131H93.8693ZM103.949 13.0531V16.4131H100.589V19.7731H103.949V29.8531H107.309V13.0531H103.949ZM97.2293 23.1331H100.589V19.7731H97.2293V23.1331ZM114.026 19.7731V13.0531H110.666V29.8531H114.026V23.1331H117.386V19.7731H114.026ZM120.746 13.0531V16.4131H117.386V19.7731H120.746V29.8531H124.106V13.0531H120.746ZM140.917 13.0531V19.7731H137.557V13.0531H134.197V29.8531H137.557V23.1331H140.917V29.8531H144.277V13.0531H140.917ZM161.066 13.0531H150.986V16.4131H157.706V21.4531H150.986V16.4131H147.626V29.8531H150.986V24.8131H157.706V29.8531H161.066V13.0531ZM181.238 13.0531H171.158V16.4131H174.518V29.8531H177.878V16.4131H181.238V13.0531ZM187.947 19.7731V13.0531H184.587V29.8531H194.667V19.7731H187.947ZM198.027 13.0531V29.8531H201.387V13.0531H198.027ZM191.307 26.4931H187.947V23.1331H191.307V26.4931Z" fill="black"/>
</svg>
