<svg width="212" height="80" viewBox="0 0 212 80" fill="none" xmlns="http://www.w3.org/2000/svg">
<rect width="200.165" height="61.8469" transform="matrix(-1 0 0 1 205.844 3.98181)" fill="white"/>
<path d="M203.096 63.0801H205.844V65.8287H203.096V63.0801Z" fill="white" stroke="white" stroke-width="5.43327" stroke-miterlimit="10"/>
<path d="M14.3099 68.5775H17.0586V71.3262H14.3099V68.5775Z" fill="white" stroke="white" stroke-width="5.43327" stroke-miterlimit="10"/>
<path d="M5.67907 5.66541H8.42773V8.41407H5.67907V5.66541Z" fill="white" stroke="white" stroke-width="5.43327" stroke-miterlimit="10"/>
<path d="M17.7506 65.8289H203.095V68.5775H17.7506V65.8289Z" fill="white" stroke="white" stroke-width="5.43327" stroke-miterlimit="10"/>
<path d="M2.93102 37.4017H5.67969V63.0801H2.93102V37.4017Z" fill="white" stroke="white" stroke-width="5.43327" stroke-miterlimit="10"/>
<path d="M2.93054 8.41406H5.6792V32.4088H2.93054V8.41406Z" fill="white" stroke="white" stroke-width="5.43327" stroke-miterlimit="10"/>
<path d="M8.42746 2.91675H203.095V5.66541H8.42746V2.91675Z" fill="white" stroke="white" stroke-width="5.43327" stroke-miterlimit="10"/>
<path d="M205.844 6.73047H208.593V63.0801H205.844V6.73047Z" fill="white" stroke="white" stroke-width="5.43327" stroke-miterlimit="10"/>
<path d="M20.5511 34.6531H23.2998V37.4017H20.5511V34.6531Z" fill="white" stroke="white" stroke-width="5.43327" stroke-miterlimit="10"/>
<path d="M20.5511 3.98175H23.2998V6.73041H20.5511V3.98175Z" fill="white" stroke="white" stroke-width="5.43327" stroke-miterlimit="10"/>
<path d="M17.0583 63.0801H23.2998V65.8288H17.0583V63.0801Z" fill="white" stroke="white" stroke-width="5.43327" stroke-miterlimit="10"/>
<path d="M203.096 3.98181H205.844V6.73047H203.096V3.98181Z" fill="white" stroke="white" stroke-width="5.43327" stroke-miterlimit="10"/>
<path d="M11.5667 71.3204H14.3096V74.4592H11.5667V77.2079H8.81807V68.5775H5.67923V65.8289H11.5667V71.3204Z" fill="white" stroke="white" stroke-width="5.43327" stroke-miterlimit="10"/>
<path d="M203.096 63.0801H205.844V65.8287H203.096V63.0801Z" fill="black"/>
<path d="M14.3099 68.5775H17.0586V71.3262H14.3099V68.5775Z" fill="black"/>
<path d="M17.0581 65.8289H203.095V68.5775H17.0581V65.8289Z" fill="black"/>
<path d="M2.93102 37.4017H5.67969V63.0801H2.93102V37.4017Z" fill="black"/>
<path d="M2.93054 8.41406H5.6792V65.8288H2.93054V8.41406Z" fill="black"/>
<path d="M8.42722 2.91675H203.095V5.66541H8.42722V2.91675Z" fill="black"/>
<path d="M205.844 6.73035H208.593V63.0801H205.844V6.73035Z" fill="black"/>
<path d="M5.67907 5.66541H8.42773V8.41407H5.67907V5.66541Z" fill="black"/>
<path d="M2.93102 63.0801H5.67969V65.8288H2.93102V63.0801Z" fill="black"/>
<path d="M2.93102 32.4088H5.67969V35.1575H2.93102V32.4088Z" fill="black"/>
<path d="M203.096 3.98181H205.844V6.73047H203.096V3.98181Z" fill="black"/>
<path d="M11.5667 71.3204H14.3096V74.4592H11.5667V77.2079H8.81807V68.5775H5.67923V65.8289H11.5667V71.3204Z" fill="black"/>
<path d="M19.5628 12.8654V19.5854H16.2028V12.8654H12.8428V29.6654H16.2028V22.9454H19.5628V29.6654H22.9228V12.8654H19.5628ZM29.6325 16.2254H36.3525V12.8654H26.2725V29.6654H36.3525V26.3054H29.6325V22.9454H32.9925V19.5854H29.6325V16.2254ZM59.8687 19.5854H49.7887V16.2254H56.5087V12.8654H46.4287V29.6654H56.5087V26.3054H49.7887V22.9454H56.5087V26.3054H59.8687V19.5854ZM73.3134 12.8654H66.5934V16.2254H69.9534V26.3054H66.5934V16.2254H63.2334V29.6654H73.3134V12.8654ZM85.0631 9.5054H81.7031V12.8654H85.0631V9.5054ZM80.0231 19.5854V12.8654H76.6631V29.6654H80.0231V22.9454H83.3831V19.5854H80.0231ZM86.7431 12.8654V16.2254H83.3831V19.5854H86.7431V29.6654H90.1031V12.8654H86.7431ZM103.548 16.2254V12.8654H96.8278V16.2254H103.548ZM96.8278 26.3054V16.2254H93.4678V29.6654H103.548V26.3054H96.8278ZM116.977 12.8654H106.897V19.5854H110.257V16.2254H113.617V19.5854H110.257V22.9454H113.617V29.6654H116.977V12.8654ZM106.897 22.9454V29.6654H110.257V22.9454H106.897ZM19.5628 41.8654H12.8428V45.2254H19.5628V41.8654ZM19.5628 45.2254V48.5854H16.2028V51.9454H19.5628V55.3054H22.9228V45.2254H19.5628ZM12.8428 55.3054V58.6654H19.5628V55.3054H12.8428ZM29.6325 48.5854V41.8654H26.2725V58.6654H29.6325V51.9454H32.9925V48.5854H29.6325ZM32.9925 41.8654V48.5854H36.3525V41.8654H32.9925ZM32.9925 58.6654H36.3525V51.9454H32.9925V58.6654ZM49.7821 45.2254V41.8654H43.0621V45.2254H49.7821ZM43.0621 55.3054V45.2254H39.7021V58.6654H49.7821V55.3054H43.0621ZM63.2118 41.8654H53.1318V58.6654H56.4918V45.2254H59.8518V58.6654H63.2118V41.8654ZM69.9215 45.2254H76.6415V41.8654H66.5615V58.6654H76.6415V55.3054H69.9215V51.9454H73.2815V48.5854H69.9215V45.2254ZM90.0712 41.8654H79.9912V58.6654H83.3512V51.9454H90.0712V41.8654ZM86.7112 48.5854H83.3512V45.2254H86.7112V48.5854ZM96.7809 48.5854V41.8654H93.4209V58.6654H96.7809V51.9454H100.141V48.5854H96.7809ZM103.501 41.8654V45.2254H100.141V48.5854H103.501V58.6654H106.861V41.8654H103.501ZM113.586 45.2254V41.8654H110.226V58.6654H113.586V48.5854H116.946V45.2254H113.586ZM123.666 41.8654V45.2254H120.306V48.5854H123.666V58.6654H127.026V41.8654H123.666ZM116.946 51.9454H120.306V48.5854H116.946V51.9454ZM133.742 45.2254H140.462V41.8654H130.382V58.6654H140.462V55.3054H133.742V51.9454H137.102V48.5854H133.742V45.2254ZM150.532 41.8654V48.5854H147.172V41.8654H143.812V58.6654H147.172V51.9454H150.532V58.6654H153.892V41.8654H150.532ZM167.321 41.8654H157.241V45.2254H160.601V58.6654H163.961V45.2254H167.321V41.8654ZM180.751 41.8654H174.031V45.2254H177.391V55.3054H174.031V45.2254H170.671V58.6654H180.751V41.8654ZM194.181 48.5854H187.461V45.2254H194.181V41.8654H184.101V58.6654H194.181V55.3054H187.461V51.9454H194.181V48.5854ZM197.541 48.5854V45.2254H194.181V48.5854H197.541ZM197.541 55.3054V51.9454H194.181V55.3054H197.541Z" fill="black"/>
</svg>
