<svg width="217" height="52" viewBox="0 0 217 52" fill="none" xmlns="http://www.w3.org/2000/svg">
<rect x="5.74902" y="5.76111" width="205.745" height="31.1633" fill="white"/>
<path d="M8.4972 34.1758H5.74854V36.9244H8.4972V34.1758Z" fill="white" stroke="white" stroke-width="5.43327" stroke-miterlimit="10"/>
<path d="M211.494 5.76111H208.745V8.50977H211.494V5.76111Z" fill="white" stroke="white" stroke-width="5.43327" stroke-miterlimit="10"/>
<path d="M197.366 36.9246H8.49756V39.6732H197.366V36.9246Z" fill="white" stroke="white" stroke-width="5.43327" stroke-miterlimit="10"/>
<path d="M214.243 8.49728H211.494V34.1757H214.243V8.49728Z" fill="white" stroke="white" stroke-width="5.43327" stroke-miterlimit="10"/>
<path d="M208.746 3H8.49756V5.74866H208.746V3Z" fill="white" stroke="white" stroke-width="5.43327" stroke-miterlimit="10"/>
<path d="M5.74866 8.49731H3V34.1758H5.74866V8.49731Z" fill="white" stroke="white" stroke-width="5.43327" stroke-miterlimit="10"/>
<path d="M202.069 5.74866H199.321V8.49733H202.069V5.74866Z" fill="white" stroke="white" stroke-width="5.43327" stroke-miterlimit="10"/>
<path d="M211.494 34.1757H208.745V36.9244H211.494V34.1757Z" fill="white" stroke="white" stroke-width="5.43327" stroke-miterlimit="10"/>
<path d="M8.49744 5.74866H5.74878V8.49732H8.49744V5.74866Z" fill="white" stroke="white" stroke-width="5.43327" stroke-miterlimit="10"/>
<path d="M202.858 42.416H200.115V45.5548H202.858V48.3035H205.606V39.6732H208.745V36.9245H202.858V42.416Z" fill="white" stroke="white" stroke-width="5.43327" stroke-miterlimit="10"/>
<path d="M8.49744 34.1758H5.74878V36.9244H8.49744V34.1758Z" fill="black"/>
<path d="M200.115 39.6731H197.366V42.4218H200.115V39.6731Z" fill="black"/>
<path d="M197.366 36.9247H8.49707V39.6733H197.366V36.9247Z" fill="black"/>
<path d="M214.243 8.49728H211.494V34.1757H214.243V8.49728Z" fill="black"/>
<path d="M208.746 3H8.49707V5.74866H208.746V3Z" fill="black"/>
<path d="M5.74866 8.49731H3V34.1757H5.74866V8.49731Z" fill="black"/>
<path d="M211.494 5.74866H208.746V8.49732H211.494V5.74866Z" fill="black"/>
<path d="M211.494 34.1757H208.746V36.9244H211.494V34.1757Z" fill="black"/>
<path d="M8.49744 5.74866H5.74878V8.49732H8.49744V5.74866Z" fill="black"/>
<path d="M202.858 42.416H200.115V45.5548H202.858V48.3035H205.607V39.6732H208.746V36.9245H202.858V42.416Z" fill="black"/>
<path d="M19.6321 12.9611V19.6811H16.2721V12.9611H12.9121V29.7611H16.2721V23.0411H19.6321V29.7611H22.9921V12.9611H19.6321ZM29.7018 16.3211H36.4218V12.9611H26.3418V29.7611H36.4218V26.4011H29.7018V23.0411H33.0618V19.6811H29.7018V16.3211ZM49.8515 12.9611H39.7715V16.3211H43.1315V29.7611H46.4915V16.3211H49.8515V12.9611ZM73.3677 19.6811H63.2877V16.3211H70.0077V12.9611H59.9277V29.7611H70.0077V26.4011H63.2877V23.0411H70.0077V26.4011H73.3677V19.6811ZM80.0924 19.6811V12.9611H76.7324V29.7611H80.0924V23.0411H83.4524V19.6811H80.0924ZM86.8124 12.9611V16.3211H83.4524V19.6811H86.8124V29.7611H90.1724V12.9611H86.8124ZM103.617 12.9611H93.5371V29.7611H96.8971V16.3211H103.617V12.9611ZM117.047 19.6811H106.967V23.0411H117.047V19.6811ZM133.836 19.6811H123.756V16.3211H130.476V12.9611H120.396V29.7611H130.476V26.4011H123.756V23.0411H130.476V26.4011H133.836V19.6811ZM147.281 12.9611H140.561V16.3211H143.921V26.4011H140.561V16.3211H137.201V29.7611H147.281V12.9611ZM160.711 16.3211V12.9611H153.991V16.3211H160.711ZM153.991 26.4011V16.3211H150.631V29.7611H160.711V26.4011H153.991ZM174.141 16.3211V12.9611H167.421V16.3211H174.141ZM167.421 26.4011V16.3211H164.061V29.7611H174.141V26.4011H167.421ZM187.57 12.9611H180.85V16.3211H184.21V26.4011H180.85V16.3211H177.49V29.7611H187.57V12.9611ZM201 19.6811H194.28V16.3211H201V12.9611H190.92V29.7611H201V26.4011H194.28V23.0411H201V19.6811ZM204.36 19.6811V16.3211H201V19.6811H204.36ZM204.36 26.4011V23.0411H201V26.4011H204.36Z" fill="black"/>
</svg>
