<svg width="273" height="53" viewBox="0 0 273 53" fill="none" xmlns="http://www.w3.org/2000/svg">
<rect width="259" height="31" transform="matrix(-1 0 0 1 267 7)" fill="white"/>
<path d="M18 41H21V44H18V41Z" fill="black" stroke="white" stroke-width="5"/>
<path d="M15 44L18 43.9915V47H15V50H12V41H9V38H15V44Z" stroke="white" stroke-width="5"/>
<path d="M264 35H267V38H264V35Z" fill="white" stroke="white" stroke-width="5.43327" stroke-miterlimit="10"/>
<path d="M6 6H9V9H6V6Z" fill="white" stroke="white" stroke-width="5.43327" stroke-miterlimit="10"/>
<path d="M18 38H264V41H18V38Z" fill="white" stroke="white" stroke-width="5.43327" stroke-miterlimit="10"/>
<path d="M3 9H6V35H3V9Z" fill="white" stroke="white" stroke-width="5.43327" stroke-miterlimit="10"/>
<path d="M9 3H264V6H9V3Z" fill="white" stroke="white" stroke-width="5.43327" stroke-miterlimit="10"/>
<path d="M267 9H270V35H267V9Z" fill="white" stroke="white" stroke-width="5.43327" stroke-miterlimit="10"/>
<path d="M17.9308 6.74866H20.6794V9.49732H17.9308V6.74866Z" fill="white" stroke="white" stroke-width="5.43327" stroke-miterlimit="10"/>
<path d="M6 35H9V38H6V35Z" fill="white" stroke="white" stroke-width="5.43327" stroke-miterlimit="10"/>
<path d="M264 6H267V9H264V6Z" fill="white" stroke="white" stroke-width="5.43327" stroke-miterlimit="10"/>
<path d="M264 35H267V38H264V35Z" fill="black"/>
<path d="M21 38H264V41H21V38Z" fill="black"/>
<path d="M3 9H6V35H3V9Z" fill="black"/>
<path d="M9 3H264V6H9V3Z" fill="black"/>
<path d="M267 9H270V35H267V9Z" fill="black"/>
<path d="M6 6H9V9H6V6Z" fill="black"/>
<path d="M6 35H9V38H6V35Z" fill="black"/>
<path d="M264 6H267V9H264V6Z" fill="black"/>
<path d="M15 44L18 43.9915V47H15V50H12V41H9V38H15V44Z" fill="black"/>
<path d="M18 41H21V44H18V41Z" fill="black"/>
<path d="M20.6321 13.9611H23.9921V30.7611H20.6321V24.0411H17.2721V30.7611H13.9121V13.9611H17.2721V20.6811H20.6321V13.9611ZM30.7018 17.3211V20.6811H34.0618V24.0411H30.7018V27.4011H37.4218V30.7611H27.3418V13.9611H37.4218V17.3211H30.7018ZM50.8515 13.9611V17.3211H47.4915V30.7611H44.1315V17.3211H40.7715V13.9611H50.8515ZM64.2812 20.6811V24.0411H57.5612V27.4011H64.2812V30.7611H54.2012V13.9611H64.2812V17.3211H57.5612V20.6811H64.2812ZM67.6412 20.6811H64.2812V17.3211H67.6412V20.6811ZM67.6412 27.4011H64.2812V24.0411H67.6412V27.4011ZM81.0859 13.9611V30.7611H71.0059V17.3211H74.3659V27.4011H77.7259V17.3211H74.3659V13.9611H81.0859ZM94.5155 13.9611V24.0411H87.7955V30.7611H84.4355V13.9611H94.5155ZM91.1555 20.6811V17.3211H87.7955V20.6811H91.1555ZM101.225 20.6811H104.585V24.0411H101.225V30.7611H97.8652V13.9611H101.225V20.6811ZM104.585 13.9611H107.945V20.6811H104.585V13.9611ZM104.585 30.7611V24.0411H107.945V30.7611H104.585ZM114.655 20.6811H118.015V24.0411H114.655V30.7611H111.295V13.9611H114.655V20.6811ZM121.375 13.9611H124.735V30.7611H121.375V20.6811H118.015V17.3211H121.375V13.9611ZM134.82 13.9611H138.18V30.7611H134.82V24.0411H131.46V30.7611H128.1V13.9611H131.46V20.6811H134.82V13.9611ZM151.609 13.9611V17.3211H144.889V30.7611H141.529V13.9611H151.609ZM171.766 13.9611V30.7611H168.406V17.3211H165.046V30.7611H161.686V13.9611H171.766ZM185.195 13.9611V30.7611H175.115V17.3211H178.475V27.4011H181.835V17.3211H178.475V13.9611H185.195ZM208.711 27.4011H212.071V30.7611H195.271V27.4011H198.631V17.3211H201.991V27.4011H205.351V17.3211H201.991V13.9611H208.711V27.4011ZM218.788 24.0411H215.428V13.9611H218.788V24.0411ZM222.148 13.9611H225.508V24.0411H222.148V13.9611ZM218.788 24.0411H222.148V30.7611H218.788V24.0411ZM242.297 13.9611H245.657V30.7611H228.857V13.9611H232.217V27.4011H235.577V13.9611H238.937V27.4011H242.297V13.9611ZM252.374 17.3211V20.6811H255.734V24.0411H252.374V27.4011H259.094V30.7611H249.014V13.9611H259.094V17.3211H252.374Z" fill="black"/>
</svg>
