<svg width="204" height="52" viewBox="0 0 204 52" fill="none" xmlns="http://www.w3.org/2000/svg">
<rect width="191.873" height="31.1758" transform="matrix(-1 0 0 1 197.814 6.10449)" fill="white"/>
<path d="M195.579 34.5316H198.328V37.2803H195.579V34.5316Z" fill="white" stroke="white" stroke-width="5.43327" stroke-miterlimit="10"/>
<path d="M14.5707 40.0289H17.3193V42.7776H14.5707V40.0289Z" fill="white" stroke="white" stroke-width="5.43327" stroke-miterlimit="10"/>
<path d="M5.93981 6.10443H8.68848V8.85309H5.93981V6.10443Z" fill="white" stroke="white" stroke-width="5.43327" stroke-miterlimit="10"/>
<path d="M3.19103 34.5317H5.9397V37.2803H3.19103V34.5317Z" fill="white" stroke="white" stroke-width="5.43327" stroke-miterlimit="10"/>
<path d="M17.3193 37.2803H195.579V40.0289H17.3193V37.2803Z" fill="white" stroke="white" stroke-width="5.43327" stroke-miterlimit="10"/>
<path d="M3.19177 8.85309H5.94043V34.5315H3.19177V8.85309Z" fill="white" stroke="white" stroke-width="5.43327" stroke-miterlimit="10"/>
<path d="M8.68852 3.35583H195.579V6.1045H8.68852V3.35583Z" fill="white" stroke="white" stroke-width="5.43327" stroke-miterlimit="10"/>
<path d="M198.328 8.85315H201.077V34.5315H198.328V8.85315Z" fill="white" stroke="white" stroke-width="5.43327" stroke-miterlimit="10"/>
<path d="M20.8121 6.10449H23.5608V8.85315H20.8121V6.10449Z" fill="white" stroke="white" stroke-width="5.43327" stroke-miterlimit="10"/>
<path d="M195.579 6.10449H198.328V8.85315H195.579V6.10449Z" fill="white" stroke="white" stroke-width="5.43327" stroke-miterlimit="10"/>
<path d="M11.8277 42.7718H14.5706V45.9106H11.8277V48.6593H9.07906V40.0289H5.94022V37.2803H11.8277V42.7718Z" fill="white" stroke="white" stroke-width="5.43327" stroke-miterlimit="10"/>
<path d="M195.579 34.5315H198.328V37.2802H195.579V34.5315Z" fill="black"/>
<path d="M14.5707 40.0289H17.3193V42.7776H14.5707V40.0289Z" fill="black"/>
<path d="M17.3193 37.2803H195.579V40.0289H17.3193V37.2803Z" fill="black"/>
<path d="M3.19177 8.85309H5.94043V37.2803H3.19177V8.85309Z" fill="black"/>
<path d="M8.68854 3.35583H195.579V6.1045H8.68854V3.35583Z" fill="black"/>
<path d="M198.328 8.85315H201.077V34.5316H198.328V8.85315Z" fill="black"/>
<path d="M5.93981 6.10449H8.68848V8.85315H5.93981V6.10449Z" fill="black"/>
<path d="M195.579 6.10449H198.328V8.85315H195.579V6.10449Z" fill="black"/>
<path d="M11.8277 42.7718H14.5706V45.9106H11.8277V48.6593H9.07906V40.0289H5.94022V37.2803H11.8277V42.7718Z" fill="black"/>
<path d="M23.1706 13.3044H13.0906V16.6644H16.4506V30.1044H19.8106V16.6644H23.1706V13.3044ZM29.8803 20.0244V13.3044H26.5203V30.1044H29.8803V23.3844H33.2403V20.0244H29.8803ZM36.6003 13.3044V16.6644H33.2403V20.0244H36.6003V30.1044H39.9603V13.3044H36.6003ZM46.685 16.6644V13.3044H43.325V30.1044H46.685V20.0244H50.045V16.6644H46.685ZM56.765 13.3044V16.6644H53.405V20.0244H56.765V30.1044H60.125V13.3044H56.765ZM50.045 23.3844H53.405V20.0244H50.045V23.3844ZM76.9212 20.0244H66.8412V16.6644H73.5612V13.3044H63.4812V30.1044H73.5612V26.7444H66.8412V23.3844H73.5612V26.7444H76.9212V20.0244ZM83.6459 20.0244V13.3044H80.2859V30.1044H83.6459V23.3844H87.0059V20.0244H83.6459ZM90.3659 13.3044V16.6644H87.0059V20.0244H90.3659V30.1044H93.7259V13.3044H90.3659ZM110.531 13.3044H103.811V16.6644H107.171V30.1044H110.531V13.3044ZM100.451 16.6644V26.7444H97.0906V30.1044H103.811V16.6644H100.451ZM127.335 26.7444V13.3044H120.615V16.6644H123.975V26.7444H120.615V16.6644H117.255V26.7444H113.895V30.1044H130.695V26.7444H127.335ZM137.412 20.0244V13.3044H134.052V30.1044H137.412V23.3844H140.772V20.0244H137.412ZM144.132 13.3044V16.6644H140.772V20.0244H144.132V30.1044H147.492V13.3044H144.132ZM157.576 13.3044V20.0244H154.216V13.3044H150.856V30.1044H154.216V23.3844H157.576V30.1044H160.936V13.3044H157.576ZM174.366 13.3044H164.286V30.1044H167.646V16.6644H174.366V13.3044ZM181.076 20.0244V13.3044H177.716V30.1044H181.076V23.3844H184.436V20.0244H181.076ZM187.796 13.3044V16.6644H184.436V20.0244H187.796V30.1044H191.156V13.3044H187.796Z" fill="black"/>
</svg>
