<svg width="212" height="80" viewBox="0 0 212 80" fill="none" xmlns="http://www.w3.org/2000/svg">
<rect width="200.165" height="61.8469" transform="matrix(-1 0 0 1 205.844 3.98242)" fill="white"/>
<path d="M203.096 63.0801H205.845V65.8287H203.096V63.0801Z" fill="white" stroke="white" stroke-width="5.43327" stroke-miterlimit="10"/>
<path d="M14.3099 68.5781H17.0586V71.3268H14.3099V68.5781Z" fill="white" stroke="white" stroke-width="5.43327" stroke-miterlimit="10"/>
<path d="M5.67907 5.66602H8.42773V8.41468H5.67907V5.66602Z" fill="white" stroke="white" stroke-width="5.43327" stroke-miterlimit="10"/>
<path d="M17.7511 65.8291H203.096V68.5778H17.7511V65.8291Z" fill="white" stroke="white" stroke-width="5.43327" stroke-miterlimit="10"/>
<path d="M2.93102 37.4023H5.67969V63.0808H2.93102V37.4023Z" fill="white" stroke="white" stroke-width="5.43327" stroke-miterlimit="10"/>
<path d="M2.93102 8.41406H5.67969V32.4088H2.93102V8.41406Z" fill="white" stroke="white" stroke-width="5.43327" stroke-miterlimit="10"/>
<path d="M8.42795 2.91699H203.096V5.66565H8.42795V2.91699Z" fill="white" stroke="white" stroke-width="5.43327" stroke-miterlimit="10"/>
<path d="M205.844 6.73047H208.593V63.0801H205.844V6.73047Z" fill="white" stroke="white" stroke-width="5.43327" stroke-miterlimit="10"/>
<path d="M20.5511 34.6533H23.2998V37.402H20.5511V34.6533Z" fill="white" stroke="white" stroke-width="5.43327" stroke-miterlimit="10"/>
<path d="M20.5511 3.98242H23.2998V6.73108H20.5511V3.98242Z" fill="white" stroke="white" stroke-width="5.43327" stroke-miterlimit="10"/>
<path d="M17.0583 63.0801H23.2998V65.8287H17.0583V63.0801Z" fill="white" stroke="white" stroke-width="5.43327" stroke-miterlimit="10"/>
<path d="M203.096 3.98242H205.845V6.73108H203.096V3.98242Z" fill="white" stroke="white" stroke-width="5.43327" stroke-miterlimit="10"/>
<path d="M11.5667 71.3206H14.3096V74.4594H11.5667V77.2081H8.81807V68.5778H5.67923V65.8291H11.5667V71.3206Z" fill="white" stroke="white" stroke-width="5.43327" stroke-miterlimit="10"/>
<path d="M203.095 63.0801H205.844V65.8287H203.095V63.0801Z" fill="black"/>
<path d="M14.3099 68.5781H17.0586V71.3268H14.3099V68.5781Z" fill="black"/>
<path d="M17.0586 65.8291H203.096V68.5778H17.0586V65.8291Z" fill="black"/>
<path d="M2.93102 37.4023H5.67969V63.0808H2.93102V37.4023Z" fill="black"/>
<path d="M2.93102 8.41406H5.67969V65.8288H2.93102V8.41406Z" fill="black"/>
<path d="M8.4277 2.91699H203.096V5.66565H8.4277V2.91699Z" fill="black"/>
<path d="M205.844 6.73047H208.593V63.0802H205.844V6.73047Z" fill="black"/>
<path d="M5.67907 5.66602H8.42773V8.41468H5.67907V5.66602Z" fill="black"/>
<path d="M2.93102 63.0801H5.67969V65.8287H2.93102V63.0801Z" fill="black"/>
<path d="M2.93102 32.4092H5.67969V35.1578H2.93102V32.4092Z" fill="black"/>
<path d="M203.095 3.98242H205.844V6.73108H203.095V3.98242Z" fill="black"/>
<path d="M11.5667 71.3206H14.3096V74.4594H11.5667V77.2081H8.81807V68.5778H5.67923V65.8291H11.5667V71.3206Z" fill="black"/>
<path d="M19.5628 12.866V19.586H16.2028V12.866H12.8428V29.666H16.2028V22.946H19.5628V29.666H22.9228V12.866H19.5628ZM29.6325 16.226H36.3525V12.866H26.2725V29.666H36.3525V26.306H29.6325V22.946H32.9925V19.586H29.6325V16.226ZM59.8687 19.586H49.7887V16.226H56.5087V12.866H46.4287V29.666H56.5087V26.306H49.7887V22.946H56.5087V26.306H59.8687V19.586ZM73.3134 12.866H66.5934V16.226H69.9534V26.306H66.5934V16.226H63.2334V29.666H73.3134V12.866ZM85.0631 9.50601H81.7031V12.866H85.0631V9.50601ZM80.0231 19.586V12.866H76.6631V29.666H80.0231V22.946H83.3831V19.586H80.0231ZM86.7431 12.866V16.226H83.3831V19.586H86.7431V29.666H90.1031V12.866H86.7431ZM103.548 16.226V12.866H96.8278V16.226H103.548ZM96.8278 26.306V16.226H93.4678V29.666H103.548V26.306H96.8278ZM116.977 12.866H106.897V19.586H110.257V16.226H113.617V19.586H110.257V22.946H113.617V29.666H116.977V12.866ZM106.897 22.946V29.666H110.257V22.946H106.897ZM19.5628 41.866H12.8428V45.226H19.5628V41.866ZM19.5628 45.226V48.586H16.2028V51.946H19.5628V55.306H22.9228V45.226H19.5628ZM12.8428 55.306V58.666H19.5628V55.306H12.8428ZM29.6325 48.586V41.866H26.2725V58.666H29.6325V51.946H32.9925V48.586H29.6325ZM32.9925 41.866V48.586H36.3525V41.866H32.9925ZM32.9925 58.666H36.3525V51.946H32.9925V58.666ZM49.7821 45.226V41.866H43.0621V45.226H49.7821ZM43.0621 55.306V45.226H39.7021V58.666H49.7821V55.306H43.0621ZM63.2118 41.866H53.1318V58.666H56.4918V45.226H59.8518V58.666H63.2118V41.866ZM69.9215 45.226H76.6415V41.866H66.5615V58.666H76.6415V55.306H69.9215V51.946H73.2815V48.586H69.9215V45.226ZM90.0712 41.866H79.9912V58.666H83.3512V51.946H90.0712V41.866ZM86.7112 48.586H83.3512V45.226H86.7112V48.586ZM96.7809 48.586V41.866H93.4209V58.666H96.7809V51.946H100.141V48.586H96.7809ZM103.501 41.866V45.226H100.141V48.586H103.501V58.666H106.861V41.866H103.501ZM113.586 45.226V41.866H110.226V58.666H113.586V48.586H116.946V45.226H113.586ZM123.666 41.866V45.226H120.306V48.586H123.666V58.666H127.026V41.866H123.666ZM116.946 51.946H120.306V48.586H116.946V51.946ZM133.742 45.226H140.462V41.866H130.382V58.666H140.462V55.306H133.742V51.946H137.102V48.586H133.742V45.226ZM150.532 41.866V48.586H147.172V41.866H143.812V58.666H147.172V51.946H150.532V58.666H153.892V41.866H150.532ZM167.321 41.866H157.241V45.226H160.601V58.666H163.961V45.226H167.321V41.866ZM180.751 41.866H174.031V45.226H177.391V55.306H174.031V45.226H170.671V58.666H180.751V41.866ZM194.181 48.586H187.461V45.226H194.181V41.866H184.101V58.666H194.181V55.306H187.461V51.946H194.181V48.586ZM197.541 48.586V45.226H194.181V48.586H197.541ZM197.541 55.306V51.946H194.181V55.306H197.541Z" fill="black"/>
</svg>
