<svg width="275" height="52" viewBox="0 0 275 52" fill="none" xmlns="http://www.w3.org/2000/svg">
<rect x="5.88745" y="6.45898" width="262.909" height="31.1624" fill="white"/>
<path d="M8.63611 34.8721H5.88745V37.6207H8.63611V34.8721Z" fill="white" stroke="white" stroke-width="5.43327" stroke-miterlimit="10"/>
<path d="M260.166 40.3701H257.417V43.1188H260.166V40.3701Z" fill="white" stroke="white" stroke-width="5.43327" stroke-miterlimit="10"/>
<path d="M253.924 37.6211H8.63611V40.3698H253.924V37.6211Z" fill="white" stroke="white" stroke-width="5.43327" stroke-miterlimit="10"/>
<path d="M271.545 9.19434H268.796V34.8727H271.545V9.19434Z" fill="white" stroke="white" stroke-width="5.43327" stroke-miterlimit="10"/>
<path d="M266.048 3.69629H8.63611V6.44495H266.048V3.69629Z" fill="white" stroke="white" stroke-width="5.43327" stroke-miterlimit="10"/>
<path d="M5.88746 9.19336H3.13879V34.8718H5.88746V9.19336Z" fill="white" stroke="white" stroke-width="5.43327" stroke-miterlimit="10"/>
<path d="M253.924 6.44531H251.176V9.19397H253.924V6.44531Z" fill="white" stroke="white" stroke-width="5.43327" stroke-miterlimit="10"/>
<path d="M257.417 34.8721H251.176V37.6207H257.417V34.8721Z" fill="white" stroke="white" stroke-width="5.43327" stroke-miterlimit="10"/>
<path d="M8.63611 6.44531H5.88745V9.19397H8.63611V6.44531Z" fill="white" stroke="white" stroke-width="5.43327" stroke-miterlimit="10"/>
<path d="M262.909 43.1126H260.166V46.2514H262.909V49.0001H265.657V40.3698H268.796V37.6211H262.909V43.1126Z" fill="white" stroke="white" stroke-width="5.43327" stroke-miterlimit="10"/>
<path d="M257.4 38.2656H260.148V41.0085H262.891V35.517H268.779V32.7683H271.545V3.65111H268.796V0.919922H30.5128V3.66858H27.7642V32.7858H30.5128V35.5344H257.4V38.2656Z" fill="white"/>
<path d="M8.63611 34.8721H5.88745V37.6207H8.63611V34.8721Z" fill="black"/>
<path d="M260.166 40.3701H257.417V43.1188H260.166V40.3701Z" fill="black"/>
<path d="M257.417 37.6211H8.63611V40.3698H257.417V37.6211Z" fill="black"/>
<path d="M271.545 9.19434H268.796V34.8727H271.545V9.19434Z" fill="black"/>
<path d="M266.048 3.69629H8.63611V6.44495H266.048V3.69629Z" fill="black"/>
<path d="M5.88733 9.19336H3.13867V34.8718H5.88733V9.19336Z" fill="black"/>
<path d="M268.797 6.44531H266.048V9.19397H268.797V6.44531Z" fill="black"/>
<path d="M271.545 34.8721H268.796V37.6207H271.545V34.8721Z" fill="black"/>
<path d="M8.63611 6.44531H5.88745V9.19397H8.63611V6.44531Z" fill="black"/>
<path d="M262.909 43.1126H260.166V46.2514H262.909V49.0001H265.657V40.3698H268.796V37.6211H262.909V43.1126Z" fill="black"/>
<path d="M19.7702 13.659V20.379H16.4102V13.659H13.0502V30.459H16.4102V23.739H19.7702V30.459H23.1302V13.659H19.7702ZM29.8399 17.019H36.5599V13.659H26.4799V30.459H36.5599V27.099H29.8399V23.739H33.1999V20.379H29.8399V17.019ZM60.0761 20.379H49.9961V17.019H56.7161V13.659H46.6361V30.459H56.7161V27.099H49.9961V23.739H56.7161V27.099H60.0761V20.379ZM73.5208 13.659H66.8008V17.019H70.1608V27.099H66.8008V17.019H63.4408V30.459H73.5208V13.659ZM85.2705 10.299H81.9105V13.659H85.2705V10.299ZM80.2305 20.379V13.659H76.8705V30.459H80.2305V23.739H83.5905V20.379H80.2305ZM86.9505 13.659V17.019H83.5905V20.379H86.9505V30.459H90.3105V13.659H86.9505ZM103.755 17.019V13.659H97.0352V17.019H103.755ZM97.0352 27.099V17.019H93.6752V30.459H103.755V27.099H97.0352ZM117.185 13.659H107.105V20.379H110.465V17.019H113.825V20.379H110.465V23.739H113.825V30.459H117.185V13.659ZM107.105 23.739V30.459H110.465V23.739H107.105ZM137.341 13.659H130.621V17.019H133.981V27.099H130.621V17.019H127.261V30.459H137.341V13.659ZM154.131 13.659V27.099H150.771V13.659H147.411V27.099H144.051V13.659H140.691V30.459H157.491V13.659H154.131ZM164.207 20.379V13.659H160.847V30.459H164.207V23.739H167.567V20.379H164.207ZM170.927 13.659V17.019H167.567V20.379H170.927V30.459H174.287V13.659H170.927ZM191.092 20.379H181.012V17.019H187.732V13.659H177.652V30.459H187.732V27.099H181.012V23.739H187.732V27.099H191.092V20.379ZM207.896 13.659H197.816V17.019H204.536V22.059H197.816V17.019H194.456V30.459H197.816V25.419H204.536V30.459H207.896V13.659ZM221.341 13.659H211.261V17.019H214.621V30.459H217.981V17.019H221.341V13.659ZM234.771 20.379H228.051V13.659H224.691V30.459H234.771V20.379ZM231.411 27.099H228.051V23.739H231.411V27.099ZM248.2 17.019V13.659H241.48V17.019H248.2ZM241.48 27.099V17.019H238.12V30.459H248.2V27.099H241.48ZM261.63 13.659H251.55V20.379H254.91V17.019H258.27V20.379H254.91V23.739H258.27V30.459H261.63V13.659ZM251.55 23.739V30.459H254.91V23.739H251.55Z" fill="black"/>
</svg>
