<svg width="311" height="52" viewBox="0 0 311 52" fill="none" xmlns="http://www.w3.org/2000/svg">
<rect width="299.927" height="31.1757" transform="matrix(-1 0 0 1 305.425 6.08789)" fill="white"/>
<path d="M302.676 34.5146H305.425V37.2633H302.676V34.5146Z" fill="white" stroke="white" stroke-width="5.43327" stroke-miterlimit="10"/>
<path d="M5.49694 6.08789H8.24561V8.83655H5.49694V6.08789Z" fill="white" stroke="white" stroke-width="5.43327" stroke-miterlimit="10"/>
<path d="M14.1276 40.0117H16.8762V42.7604H14.1276V40.0117Z" fill="white" stroke="white" stroke-width="5.43327" stroke-miterlimit="10"/>
<path d="M16.8763 37.2637H302.676V40.0123H16.8763V37.2637Z" fill="white" stroke="white" stroke-width="5.43327" stroke-miterlimit="10"/>
<path d="M2.74865 8.83594H5.49731V34.5143H2.74865V8.83594Z" fill="white" stroke="white" stroke-width="5.43327" stroke-miterlimit="10"/>
<path d="M8.24551 3.33887H302.676V6.08753H8.24551V3.33887Z" fill="white" stroke="white" stroke-width="5.43327" stroke-miterlimit="10"/>
<path d="M305.425 8.83594H308.173V34.5144H305.425V8.83594Z" fill="white" stroke="white" stroke-width="5.43327" stroke-miterlimit="10"/>
<path d="M20.369 6.08789H23.1177V8.83655H20.369V6.08789Z" fill="white" stroke="white" stroke-width="5.43327" stroke-miterlimit="10"/>
<path d="M16.8762 34.5146H23.1177V37.2633H16.8762V34.5146Z" fill="white" stroke="white" stroke-width="5.43327" stroke-miterlimit="10"/>
<path d="M302.676 6.08789H305.425V8.83655H302.676V6.08789Z" fill="white" stroke="white" stroke-width="5.43327" stroke-miterlimit="10"/>
<path d="M11.3846 42.7552H14.1274V45.894H11.3846V48.6427H8.63594V40.0123H5.4971V37.2637H11.3846V42.7552Z" fill="white" stroke="white" stroke-width="5.43327" stroke-miterlimit="10"/>
<path d="M302.676 34.5146H305.425V37.2633H302.676V34.5146Z" fill="black"/>
<path d="M14.1276 40.0117H16.8762V42.7604H14.1276V40.0117Z" fill="black"/>
<path d="M16.8763 37.2637H302.676V40.0123H16.8763V37.2637Z" fill="black"/>
<path d="M2.74865 8.83594H5.49731V34.5143H2.74865V8.83594Z" fill="black"/>
<path d="M8.24548 3.33887H302.676V6.08753H8.24548V3.33887Z" fill="black"/>
<path d="M305.425 8.83594H308.173V34.5143H305.425V8.83594Z" fill="black"/>
<path d="M5.49694 6.08789H8.24561V8.83655H5.49694V6.08789Z" fill="black"/>
<path d="M2.74865 34.5146H5.49731V37.2633H2.74865V34.5146Z" fill="black"/>
<path d="M302.676 6.08789H305.425V8.83655H302.676V6.08789Z" fill="black"/>
<path d="M11.3846 42.7552H14.1274V45.894H11.3846V48.6427H8.63594V40.0123H5.4971V37.2637H11.3846V42.7552Z" fill="black"/>
<path d="M22.7402 20.0196H16.0202V16.6596H22.7402V13.2996H12.6602V30.0996H22.7402V26.7396H16.0202V23.3796H22.7402V20.0196ZM26.1002 20.0196V16.6596H22.7402V20.0196H26.1002ZM26.1002 26.7396V23.3796H22.7402V26.7396H26.1002ZM46.2714 16.6596V13.2996H39.5514V16.6596H46.2714ZM39.5514 26.7396V16.6596H36.1914V26.7396H39.5514ZM49.6314 26.7396V16.6596H46.2714V26.7396H39.5514V30.0996H52.9914V26.7396H49.6314ZM56.3477 13.2996V30.0996H59.7077V13.2996H56.3477ZM66.4342 23.3796V13.2996H63.0742V23.3796H66.4342ZM76.5382 13.2996V23.3796H79.8982V13.2996H76.5382ZM73.1542 20.0196H69.7942V23.3796H66.4342V30.0996H69.7942V26.7396H73.1542V30.0996H76.5142V23.3796H73.1542V20.0196ZM83.2539 13.2996V30.0996H86.6139V13.2996H83.2539ZM106.787 13.2996H96.707V30.0996H100.067V23.3796H106.787V13.2996ZM103.427 20.0196H100.067V16.6596H103.427V20.0196ZM113.497 16.6596H120.217V13.2996H110.137V30.0996H120.217V26.7396H113.497V23.3796H116.857V20.0196H113.497V16.6596ZM137.006 13.2996V26.7396H133.646V13.2996H130.286V26.7396H126.926V13.2996H123.566V30.0996H140.366V13.2996H137.006ZM157.163 13.2996H147.083V16.6596H153.803V21.6996H147.083V16.6596H143.723V30.0996H147.083V25.0596H153.803V30.0996H157.163V13.2996ZM163.887 16.6596H170.607V13.2996H160.527V30.0996H170.607V26.7396H163.887V23.3796H167.247V20.0196H163.887V16.6596ZM184.037 13.2996H173.957V16.6596H177.317V30.0996H180.677V16.6596H184.037V13.2996ZM197.473 20.0196V13.2996H194.113V30.0996H197.473V23.3796H200.833V20.0196H197.473ZM200.833 13.2996V20.0196H204.193V13.2996H200.833ZM200.833 30.0996H204.193V23.3796H200.833V30.0996ZM220.983 13.2996H210.903V16.6596H217.623V21.6996H210.903V16.6596H207.543V30.0996H210.903V25.0596H217.623V30.0996H220.983V13.2996ZM227.708 13.2996H224.348V20.0196H227.708V13.2996ZM234.428 20.0196V13.2996H231.068V20.0196H227.708V23.3796H231.068V30.0996H234.428V23.3796H237.788V20.0196H234.428ZM237.788 13.2996V20.0196H241.148V13.2996H237.788ZM224.348 23.3796V30.0996H227.708V23.3796H224.348ZM237.788 30.0996H241.148V23.3796H237.788V30.0996ZM257.944 26.7396V13.2996H251.224V16.6596H254.584V26.7396H251.224V16.6596H247.864V26.7396H244.504V30.0996H261.304V26.7396H257.944ZM268.02 20.0196V13.2996H264.66V30.0996H274.74V20.0196H268.02ZM278.1 13.2996V30.0996H281.46V13.2996H278.1ZM271.38 26.7396H268.02V23.3796H271.38V26.7396ZM293.216 9.93961H289.856V13.2996H293.216V9.93961ZM288.176 20.0196V13.2996H284.816V30.0996H288.176V23.3796H291.536V20.0196H288.176ZM294.896 13.2996V16.6596H291.536V20.0196H294.896V30.0996H298.256V13.2996H294.896Z" fill="black"/>
</svg>
