<svg width="257" height="52" viewBox="0 0 257 52" fill="none" xmlns="http://www.w3.org/2000/svg">
<rect width="245" height="31" transform="matrix(-1 0 0 1 251 6)" fill="white"/>
<path d="M248.711 34.1757H251.459V36.9244H248.711V34.1757Z" fill="white" stroke="white" stroke-width="5.43327" stroke-miterlimit="10"/>
<path d="M14.3934 39.6732H17.1421V42.4218H14.3934V39.6732Z" fill="white" stroke="white" stroke-width="5.43327" stroke-miterlimit="10"/>
<path d="M2.99987 34.1757H5.74854V36.9244H2.99987V34.1757Z" fill="white" stroke="white" stroke-width="5.43327" stroke-miterlimit="10"/>
<path d="M5.74694 5.83643H8.49561V8.58509H5.74694V5.83643Z" fill="white" stroke="white" stroke-width="5.43327" stroke-miterlimit="10"/>
<path d="M19 37H249V40H19V37Z" fill="white" stroke="white" stroke-width="5.43327" stroke-miterlimit="10"/>
<path d="M3.01428 8.49728H5.76294V34.1757H3.01428V8.49728Z" fill="white" stroke="white" stroke-width="5.43327" stroke-miterlimit="10"/>
<path d="M8 3H249V6H8V3Z" fill="white" stroke="white" stroke-width="5.43327" stroke-miterlimit="10"/>
<path d="M251.46 8.49731H254.208V34.1757H251.46V8.49731Z" fill="white" stroke="white" stroke-width="5.43327" stroke-miterlimit="10"/>
<path d="M20.6349 5.74866H23.3835V8.49732H20.6349V5.74866Z" fill="white" stroke="white" stroke-width="5.43327" stroke-miterlimit="10"/>
<path d="M17.1421 34.1757H23.3835V36.9244H17.1421V34.1757Z" fill="white" stroke="white" stroke-width="5.43327" stroke-miterlimit="10"/>
<path d="M248.711 5.74866H251.46V8.49732H248.711V5.74866Z" fill="white" stroke="white" stroke-width="5.43327" stroke-miterlimit="10"/>
<path d="M11.6505 42.416H14.3933V45.5548H11.6505V48.3035H8.90181V39.6732H5.76297V36.9245H11.6505V42.416Z" fill="white" stroke="white" stroke-width="5.43327" stroke-miterlimit="10"/>
<path d="M248.711 34.1757H251.46V36.9244H248.711V34.1757Z" fill="black"/>
<path d="M14.3934 39.6731H17.1421V42.4218H14.3934V39.6731Z" fill="black"/>
<path d="M17 37H249V40H17V37Z" fill="black"/>
<path d="M3.01428 8.49731H5.76294V36.9244H3.01428V8.49731Z" fill="black"/>
<path d="M8 3H249V6H8V3Z" fill="black"/>
<path d="M251.46 8.49731H254.209V34.1757H251.46V8.49731Z" fill="black"/>
<path d="M5.76257 5.74866H8.51123V8.49732H5.76257V5.74866Z" fill="black"/>
<path d="M248.712 5.74866H251.46V8.49732H248.712V5.74866Z" fill="black"/>
<path d="M11.6505 42.416H14.3933V45.5548H11.6505V48.3035H8.90181V39.6732H5.76297V36.9245H11.6505V42.416Z" fill="black"/>
<path d="M23.0063 16.56H16.2863V13.2H23.0063V16.56ZM16.2863 26.64H23.0063V30H12.9263V16.56H16.2863V26.64ZM36.436 13.2V30H26.356V16.56H29.716V26.64H33.076V16.56H29.716V13.2H36.436ZM56.5922 19.92V23.28H49.8722V26.64H56.5922V30H46.5122V13.2H56.5922V16.56H49.8722V19.92H56.5922ZM59.9522 19.92H56.5922V16.56H59.9522V19.92ZM59.9522 26.64H56.5922V23.28H59.9522V26.64ZM73.3969 16.56H66.6769V13.2H73.3969V16.56ZM66.6769 26.64H73.3969V30H63.3169V16.56H66.6769V26.64ZM80.1066 16.56V19.92H83.4666V23.28H80.1066V26.64H86.8266V30H76.7466V13.2H86.8266V16.56H80.1066ZM93.5363 16.56H96.8963V19.92H93.5363V30H90.1763V13.2H93.5363V16.56ZM103.616 13.2H106.976V30H103.616V19.92H100.256V16.56H103.616V13.2ZM96.8963 23.28V19.92H100.256V23.28H96.8963ZM113.693 19.92H117.053V23.28H113.693V30H110.333V13.2H113.693V19.92ZM120.413 13.2H123.773V30H120.413V19.92H117.053V16.56H120.413V13.2ZM140.584 13.2H143.944V30H140.584V23.28H137.224V30H133.864V13.2H137.224V19.92H140.584V13.2ZM160.733 13.2V30H157.373V24.96H150.653V30H147.293V16.56H150.653V21.6H157.373V16.56H150.653V13.2H160.733ZM180.905 13.2V16.56H177.545V13.2H180.905ZM189.305 13.2V16.56H185.945V13.2H189.305ZM177.545 16.56V19.92H174.185V16.56H177.545ZM185.945 16.56V19.92H182.585V16.56H185.945ZM170.825 19.92H174.185V23.28H170.825V19.92ZM179.225 19.92H182.585V23.28H179.225V19.92ZM174.185 23.28H177.545V26.64H174.185V23.28ZM185.945 26.64H182.585V23.28H185.945V26.64ZM177.545 30V26.64H180.905V30H177.545ZM189.305 30H185.945V26.64H189.305V30ZM202.748 13.2V16.56H199.388V30H196.028V16.56H192.668V13.2H202.748ZM209.458 19.92H216.178V30H206.098V13.2H209.458V19.92ZM219.538 13.2H222.898V30H219.538V13.2ZM212.818 26.64V23.28H209.458V26.64H212.818ZM226.254 13.2H229.614V16.56H226.254V13.2ZM234.654 13.2H238.014V16.56H234.654V13.2ZM229.614 16.56H232.974V19.92H229.614V16.56ZM238.014 16.56H241.374V19.92H238.014V16.56ZM236.334 19.92V23.28H232.974V19.92H236.334ZM241.374 19.92H244.734V23.28H241.374V19.92ZM229.614 26.64V23.28H232.974V26.64H229.614ZM238.014 26.64V23.28H241.374V26.64H238.014ZM226.254 30V26.64H229.614V30H226.254ZM234.654 30V26.64H238.014V30H234.654Z" fill="black"/>
</svg>
