<svg width="349" height="52" viewBox="0 0 349 52" fill="none" xmlns="http://www.w3.org/2000/svg">
<rect x="5.91113" y="5.7764" width="336.946" height="31.1757" fill="white"/>
<path d="M8.66041 34.2034H5.91174V36.9521H8.66041V34.2034Z" fill="white" stroke="white" stroke-width="5.43327" stroke-miterlimit="10"/>
<path d="M334.227 39.7008H331.478V42.4495H334.227V39.7008Z" fill="white" stroke="white" stroke-width="5.43327" stroke-miterlimit="10"/>
<path d="M342.858 5.77646H340.109V8.52512H342.858V5.77646Z" fill="white" stroke="white" stroke-width="5.43327" stroke-miterlimit="10"/>
<path d="M327.586 36.9521H8.65991V39.7008H327.586V36.9521Z" fill="white" stroke="white" stroke-width="5.43327" stroke-miterlimit="10"/>
<path d="M345.606 8.52499H342.857V36.9521H345.606V8.52499Z" fill="white" stroke="white" stroke-width="5.43327" stroke-miterlimit="10"/>
<path d="M340.109 3.02765H8.65991V5.77631H340.109V3.02765Z" fill="white" stroke="white" stroke-width="5.43327" stroke-miterlimit="10"/>
<path d="M5.91102 8.52499H3.16235V33.8231H5.91102V8.52499Z" fill="white" stroke="white" stroke-width="5.43327" stroke-miterlimit="10"/>
<path d="M327.587 5.77637H324.838V8.52503H327.587V5.77637Z" fill="white" stroke="white" stroke-width="5.43327" stroke-miterlimit="10"/>
<path d="M331.079 34.2034H324.838V36.9521H331.079V34.2034Z" fill="white" stroke="white" stroke-width="5.43327" stroke-miterlimit="10"/>
<path d="M8.66028 5.77634H5.91162V8.525H8.66028V5.77634Z" fill="white" stroke="white" stroke-width="5.43327" stroke-miterlimit="10"/>
<path d="M336.97 42.4437H334.227V45.5825H336.97V48.3312H339.719V39.7008H342.857V36.9522H336.97V42.4437Z" fill="white" stroke="white" stroke-width="5.43327" stroke-miterlimit="10"/>
<path d="M8.6598 34.2034H5.91113V36.9521H8.6598V34.2034Z" fill="black"/>
<path d="M334.227 39.7008H331.478V42.4495H334.227V39.7008Z" fill="black"/>
<path d="M331.478 36.9521H8.65991V39.7008H331.478V36.9521Z" fill="black"/>
<path d="M345.606 8.52499H342.857V36.9521H345.606V8.52499Z" fill="black"/>
<path d="M340.109 3.02774H8.65991V5.7764H340.109V3.02774Z" fill="black"/>
<path d="M5.9115 8.52499H3.16284V34.2034H5.9115V8.52499Z" fill="black"/>
<path d="M342.858 5.77631H340.109V8.52497H342.858V5.77631Z" fill="black"/>
<path d="M8.6598 5.7764H5.91113V8.52506H8.6598V5.7764Z" fill="black"/>
<path d="M336.97 42.4437H334.227V45.5825H336.97V48.3312H339.719V39.7008H342.857V36.9522H336.97V42.4437Z" fill="black"/>
<path d="M23.1838 19.6965H16.4638V16.3365H23.1838V12.9765H13.1038V29.7765H23.1838V26.4165H16.4638V23.0565H23.1838V19.6965ZM26.5438 19.6965V16.3365H23.1838V19.6965H26.5438ZM26.5438 26.4165V23.0565H23.1838V26.4165H26.5438ZM46.715 16.3365V12.9765H39.995V16.3365H46.715ZM39.995 26.4165V16.3365H36.635V26.4165H39.995ZM50.075 26.4165V16.3365H46.715V26.4165H39.995V29.7765H53.435V26.4165H50.075ZM56.7913 12.9765V29.7765H60.1513V12.9765H56.7913ZM66.8778 23.0565V12.9765H63.5178V23.0565H66.8778ZM76.9818 12.9765V23.0565H80.3418V12.9765H76.9818ZM73.5978 19.6965H70.2378V23.0565H66.8778V29.7765H70.2378V26.4165H73.5978V29.7765H76.9578V23.0565H73.5978V19.6965ZM83.6975 12.9765V29.7765H87.0575V12.9765H83.6975ZM110.591 19.6965H100.511V16.3365H107.231V12.9765H97.1506V29.7765H107.231V26.4165H100.511V23.0565H107.231V26.4165H110.591V19.6965ZM117.315 19.6965V12.9765H113.955V29.7765H124.035V19.6965H117.315ZM127.395 12.9765V29.7765H130.755V12.9765H127.395ZM120.675 26.4165H117.315V23.0565H120.675V26.4165ZM144.192 19.6965H137.472V16.3365H144.192V12.9765H134.112V29.7765H144.192V26.4165H137.472V23.0565H144.192V19.6965ZM147.552 19.6965V16.3365H144.192V19.6965H147.552ZM147.552 26.4165V23.0565H144.192V26.4165H147.552ZM164.356 12.9765V26.4165H160.996V12.9765H157.636V26.4165H154.276V12.9765H150.916V29.7765H167.716V12.9765H164.356ZM174.433 19.6965V12.9765H171.073V29.7765H174.433V23.0565H177.793V19.6965H174.433ZM181.153 12.9765V16.3365H177.793V19.6965H181.153V29.7765H184.513V12.9765H181.153ZM191.237 12.9765H187.877V19.6965H191.237V12.9765ZM194.597 12.9765V19.6965H197.957V12.9765H194.597ZM191.237 23.0565H194.597V19.6965H191.237V23.0565ZM187.877 23.0565V29.7765H191.237V23.0565H187.877ZM194.597 29.7765H197.957V23.0565H194.597V29.7765ZM214.753 12.9765V19.6965H211.393V12.9765H208.033V29.7765H211.393V23.0565H214.753V29.7765H218.113V12.9765H214.753ZM224.823 16.3365H231.543V12.9765H221.463V29.7765H231.543V26.4165H224.823V23.0565H228.183V19.6965H224.823V16.3365ZM255.059 19.6965H244.979V16.3365H251.699V12.9765H241.619V29.7765H251.699V26.4165H244.979V23.0565H251.699V26.4165H255.059V19.6965ZM261.784 19.6965V12.9765H258.424V29.7765H268.504V19.6965H261.784ZM271.864 12.9765V29.7765H275.224V12.9765H271.864ZM265.144 26.4165H261.784V23.0565H265.144V26.4165ZM288.66 19.6965H281.94V16.3365H288.66V12.9765H278.58V29.7765H288.66V26.4165H281.94V23.0565H288.66V19.6965ZM292.02 19.6965V16.3365H288.66V19.6965H292.02ZM292.02 26.4165V23.0565H288.66V26.4165H292.02ZM308.825 12.9765H298.745V16.3365H305.465V21.3765H298.745V16.3365H295.385V29.7765H298.745V24.7365H305.465V29.7765H308.825V12.9765ZM315.55 16.3365H322.27V12.9765H312.19V29.7765H322.27V26.4165H315.55V23.0565H318.91V19.6965H315.55V16.3365ZM335.699 12.9765H325.619V16.3365H328.979V29.7765H332.339V16.3365H335.699V12.9765Z" fill="black"/>
</svg>
