<svg width="91" height="51" viewBox="0 0 91 51" fill="none" xmlns="http://www.w3.org/2000/svg">
<rect x="3.65625" y="5.59961" width="83.7092" height="31.1756" fill="white"/>
<path d="M9.15394 34.0264H6.40527V36.775H9.15394V34.0264Z" fill="white" stroke="white" stroke-width="5.43327" stroke-miterlimit="10"/>
<path d="M75.9865 39.5234H73.2378V42.2721H75.9865V39.5234Z" fill="white" stroke="white" stroke-width="5.43327" stroke-miterlimit="10"/>
<path d="M84.6178 5.59961H81.8691V8.34827H84.6178V5.59961Z" fill="white" stroke="white" stroke-width="5.43327" stroke-miterlimit="10"/>
<path d="M87.3654 34.0264H84.6167V36.775H87.3654V34.0264Z" fill="white" stroke="white" stroke-width="5.43327" stroke-miterlimit="10"/>
<path d="M77.7835 36.7754H9.15381V39.5241H77.7835V36.7754Z" fill="white" stroke="white" stroke-width="5.43327" stroke-miterlimit="10"/>
<path d="M87.3654 8.34766H84.6167V34.0261H87.3654V8.34766Z" fill="white" stroke="white" stroke-width="5.43327" stroke-miterlimit="10"/>
<path d="M81.8691 2.85059H9.15381V5.59925H81.8691V2.85059Z" fill="white" stroke="white" stroke-width="5.43327" stroke-miterlimit="10"/>
<path d="M6.40491 8.34766H3.65625V34.026H6.40491V8.34766Z" fill="white" stroke="white" stroke-width="5.43327" stroke-miterlimit="10"/>
<path d="M69.7448 5.59961H66.9961V8.34827H69.7448V5.59961Z" fill="white" stroke="white" stroke-width="5.43327" stroke-miterlimit="10"/>
<path d="M9.15394 5.59961H6.40527V8.34827H9.15394V5.59961Z" fill="white" stroke="white" stroke-width="5.43327" stroke-miterlimit="10"/>
<path d="M78.7292 42.2669H75.9863V45.4057H78.7292V48.1544H81.4778V39.5241H84.6167V36.7754H78.7292V42.2669Z" fill="white" stroke="white" stroke-width="5.43327" stroke-miterlimit="10"/>
<path d="M9.15345 34.0264H6.40479V36.775H9.15345V34.0264Z" fill="black"/>
<path d="M75.9865 39.5234H73.2378V42.2721H75.9865V39.5234Z" fill="black"/>
<path d="M73.2378 36.7754H9.15381V39.5241H73.2378V36.7754Z" fill="black"/>
<path d="M87.3654 8.34766H84.6167V34.0261H87.3654V8.34766Z" fill="black"/>
<path d="M81.8686 2.85059H9.15381V5.59925H81.8686V2.85059Z" fill="black"/>
<path d="M6.40491 8.34766H3.65625V34.0261H6.40491V8.34766Z" fill="black"/>
<path d="M84.6173 5.59961H81.8687V8.34827H84.6173V5.59961Z" fill="black"/>
<path d="M87.3654 34.0264H84.6167V36.775H87.3654V34.0264Z" fill="black"/>
<path d="M9.15345 5.59961H6.40479V8.34827H9.15345V5.59961Z" fill="black"/>
<path d="M78.7292 42.2669H75.9863V45.4057H78.7292V48.1544H81.4778V39.5241H84.6167V36.7754H78.7292V42.2669Z" fill="black"/>
<path d="M27.0084 12.7996H16.9284V16.1596H23.6484V21.1996H16.9284V16.1596H13.5684V29.5996H16.9284V24.5596H23.6484V29.5996H27.0084V12.7996ZM40.453 16.1596V12.7996H33.733V16.1596H40.453ZM33.733 26.2396V16.1596H30.373V26.2396H33.733ZM43.813 19.5196H37.093V22.8796H40.453V26.2396H43.813V19.5196ZM33.733 26.2396V29.5996H40.453V26.2396H33.733ZM47.1777 12.7996V29.5996H50.5377V12.7996H47.1777ZM63.9843 26.2396H57.2643V12.7996H53.9043V29.5996H63.9843V26.2396ZM70.694 16.1596H77.414V12.7996H67.334V29.5996H77.414V26.2396H70.694V22.8796H74.054V19.5196H70.694V16.1596Z" fill="black"/>
</svg>
