<svg width="357" height="53" viewBox="0 0 357 53" fill="none" xmlns="http://www.w3.org/2000/svg">
<rect width="350" height="31" transform="matrix(-1 0 0 1 351 7)" fill="white"/>
<path d="M18 41H21V44H18V41Z" fill="black" stroke="white" stroke-width="5"/>
<path d="M15 44L18 43.9915V47H15V50H12V41H9V38H15V44Z" stroke="white" stroke-width="5"/>
<path d="M348 35H351V38H348V35Z" fill="white" stroke="white" stroke-width="5.43327" stroke-miterlimit="10"/>
<path d="M6 6H9V9H6V6Z" fill="white" stroke="white" stroke-width="5.43327" stroke-miterlimit="10"/>
<path d="M18 38H348V41H18V38Z" fill="white" stroke="white" stroke-width="5.43327" stroke-miterlimit="10"/>
<path d="M3 9H6V35H3V9Z" fill="white" stroke="white" stroke-width="5.43327" stroke-miterlimit="10"/>
<path d="M9 3H348V6H9V3Z" fill="white" stroke="white" stroke-width="5.43327" stroke-miterlimit="10"/>
<path d="M351 9H354V35H351V9Z" fill="white" stroke="white" stroke-width="5.43327" stroke-miterlimit="10"/>
<path d="M17.9308 6.74866H20.6794V9.49732H17.9308V6.74866Z" fill="white" stroke="white" stroke-width="5.43327" stroke-miterlimit="10"/>
<path d="M6 35H9V38H6V35Z" fill="white" stroke="white" stroke-width="5.43327" stroke-miterlimit="10"/>
<path d="M348 6H351V9H348V6Z" fill="white" stroke="white" stroke-width="5.43327" stroke-miterlimit="10"/>
<path d="M348 35H351V38H348V35Z" fill="black"/>
<path d="M21 38H348V41H21V38Z" fill="black"/>
<path d="M3 9H6V35H3V9Z" fill="black"/>
<path d="M9 3H348V6H9V3Z" fill="black"/>
<path d="M351 9H354V35H351V9Z" fill="black"/>
<path d="M6 6H9V9H6V6Z" fill="black"/>
<path d="M6 35H9V38H6V35Z" fill="black"/>
<path d="M348 6H351V9H348V6Z" fill="black"/>
<path d="M15 44L18 43.9915V47H15V50H12V41H9V38H15V44Z" fill="black"/>
<path d="M18 41H21V44H18V41Z" fill="black"/>
<path d="M17.2721 20.6811H20.6321V24.0411H17.2721V30.7611H13.9121V13.9611H17.2721V20.6811ZM20.6321 13.9611H23.9921V20.6811H20.6321V13.9611ZM20.6321 30.7611V24.0411H23.9921V30.7611H20.6321ZM37.4218 13.9611V30.7611H27.3418V17.3211H30.7018V27.4011H34.0618V17.3211H30.7018V13.9611H37.4218ZM44.1315 17.3211H47.4915V20.6811H44.1315V30.7611H40.7715V13.9611H44.1315V17.3211ZM54.2115 13.9611H57.5715V30.7611H54.2115V20.6811H50.8515V17.3211H54.2115V13.9611ZM47.4915 24.0411V20.6811H50.8515V24.0411H47.4915ZM71.0077 20.6811V30.7611H60.9277V13.9611H64.2877V20.6811H71.0077ZM67.6477 27.4011V24.0411H64.2877V27.4011H67.6477ZM91.1574 13.9611V30.7611H81.0774V24.0411H77.7174V30.7611H74.3574V13.9611H77.7174V20.6811H81.0774V13.9611H91.1574ZM87.7974 17.3211H84.4374V27.4011H87.7974V17.3211ZM101.234 13.9611H104.594V30.7611H101.234V24.0411H97.8737V30.7611H94.5137V13.9611H97.8737V20.6811H101.234V13.9611ZM111.303 20.6811H114.663V24.0411H111.303V30.7611H107.943V13.9611H111.303V20.6811ZM118.023 13.9611H121.383V30.7611H118.023V20.6811H114.663V17.3211H118.023V13.9611ZM134.828 13.9611V17.3211H131.468V30.7611H128.108V17.3211H124.748V13.9611H134.828ZM141.538 20.6811H144.898V24.0411H141.538V30.7611H138.178V13.9611H141.538V20.6811ZM148.258 13.9611H151.618V30.7611H148.258V20.6811H144.898V17.3211H148.258V13.9611ZM168.429 13.9611H171.789V30.7611H168.429V24.0411H165.069V30.7611H161.709V13.9611H165.069V20.6811H168.429V13.9611ZM188.579 13.9611V30.7611H185.219V25.7211H178.499V30.7611H175.139V17.3211H178.499V22.3611H185.219V17.3211H178.499V13.9611H188.579ZM212.11 13.9611V30.7611H208.75V17.3211H205.39V13.9611H212.11ZM202.03 17.3211H205.39V30.7611H198.67V27.4011H202.03V17.3211ZM232.275 13.9611V30.7611H222.195V24.0411H218.835V30.7611H215.475V13.9611H218.835V20.6811H222.195V13.9611H232.275ZM228.915 17.3211H225.555V27.4011H228.915V17.3211ZM249.071 20.6811V27.4011H245.711V24.0411H238.991V27.4011H245.711V30.7611H235.631V13.9611H245.711V17.3211H238.991V20.6811H249.071ZM262.516 13.9611V30.7611H252.436V17.3211H255.796V27.4011H259.156V17.3211H255.796V13.9611H262.516ZM274.265 10.6011V13.9611H270.905V10.6011H274.265ZM269.225 20.6811H272.585V24.0411H269.225V30.7611H265.865V13.9611H269.225V20.6811ZM275.945 13.9611H279.305V30.7611H275.945V20.6811H272.585V17.3211H275.945V13.9611ZM299.476 20.6811V24.0411H292.756V27.4011H299.476V30.7611H289.396V13.9611H299.476V17.3211H292.756V20.6811H299.476ZM302.836 20.6811H299.476V17.3211H302.836V20.6811ZM302.836 27.4011H299.476V24.0411H302.836V27.4011ZM309.561 20.6811H312.921V24.0411H309.561V30.7611H306.201V13.9611H309.561V20.6811ZM312.921 13.9611H316.281V20.6811H312.921V13.9611ZM312.921 30.7611V24.0411H316.281V30.7611H312.921ZM322.991 24.0411H319.631V13.9611H322.991V24.0411ZM326.351 13.9611H329.711V24.0411H326.351V13.9611ZM322.991 24.0411H326.351V30.7611H322.991V24.0411ZM343.141 17.3211H336.421V13.9611H343.141V17.3211ZM336.421 27.4011H343.141V30.7611H333.061V17.3211H336.421V27.4011Z" fill="black"/>
</svg>
