<svg width="197" height="81" viewBox="0 0 197 81" fill="none" xmlns="http://www.w3.org/2000/svg">
<rect x="5.61084" y="6.31055" width="185.747" height="60.1634" fill="white"/>
<path d="M191.358 6.31055H188.609V9.05921H191.358V6.31055Z" fill="white" stroke="white" stroke-width="5.43327" stroke-miterlimit="10"/>
<path d="M8.3595 63.7246H5.61084V66.4733H8.3595V63.7246Z" fill="white" stroke="white" stroke-width="5.43327" stroke-miterlimit="10"/>
<path d="M182.727 69.2227H179.979V71.9713H182.727V69.2227Z" fill="white" stroke="white" stroke-width="5.43327" stroke-miterlimit="10"/>
<path d="M179.979 66.4736H8.36084V69.2223H179.979V66.4736Z" fill="white" stroke="white" stroke-width="5.43327" stroke-miterlimit="10"/>
<path d="M194.106 9.05859H191.357V66.4733H194.106V9.05859Z" fill="white" stroke="white" stroke-width="5.43327" stroke-miterlimit="10"/>
<path d="M188.61 3.56152H8.36084V6.31019H188.61V3.56152Z" fill="white" stroke="white" stroke-width="5.43327" stroke-miterlimit="10"/>
<path d="M5.61243 9.05859H2.86377V63.7246H5.61243V9.05859Z" fill="white" stroke="white" stroke-width="5.43327" stroke-miterlimit="10"/>
<path d="M176.486 35.2979H173.737V38.0465H176.486V35.2979Z" fill="white" stroke="white" stroke-width="5.43327" stroke-miterlimit="10"/>
<path d="M176.486 4.62695H173.737V7.37562H176.486V4.62695Z" fill="white" stroke="white" stroke-width="5.43327" stroke-miterlimit="10"/>
<path d="M8.36097 6.31055H5.6123V9.05921H8.36097V6.31055Z" fill="white" stroke="white" stroke-width="5.43327" stroke-miterlimit="10"/>
<path d="M185.47 71.9651H182.728V75.104H185.47V77.8526H188.219V69.2223H191.358V66.4736H185.47V71.9651Z" fill="white" stroke="white" stroke-width="5.43327" stroke-miterlimit="10"/>
<path d="M8.36097 63.7246H5.6123V66.4733H8.36097V63.7246Z" fill="black"/>
<path d="M182.727 69.2227H179.979V71.9713H182.727V69.2227Z" fill="black"/>
<path d="M179.979 66.4736H8.36084V69.2223H179.979V66.4736Z" fill="black"/>
<path d="M194.107 9.05859H191.358V66.4733H194.107V9.05859Z" fill="black"/>
<path d="M188.61 3.56152H8.36084V6.31019H188.61V3.56152Z" fill="black"/>
<path d="M5.61243 9.05859H2.86377V63.7246H5.61243V9.05859Z" fill="black"/>
<path d="M191.358 6.31055H188.609V9.05921H191.358V6.31055Z" fill="black"/>
<path d="M8.36097 6.31055H5.6123V9.05921H8.36097V6.31055Z" fill="black"/>
<path d="M185.47 71.9651H182.728V75.104H185.47V77.8526H188.219V69.2223H191.358V66.4736H185.47V71.9651Z" fill="black"/>
<path d="M22.8559 13.5105H12.7759V30.3105H16.1359V23.5905H22.8559V13.5105ZM19.4959 20.2305H16.1359V16.8705H19.4959V20.2305ZM39.6456 13.5105H29.5656V16.8705H36.2856V21.9105H29.5656V16.8705H26.2056V30.3105H29.5656V25.2705H36.2856V30.3105H39.6456V13.5105ZM56.4503 20.2305H46.3703V16.8705H53.0903V13.5105H43.0103V30.3105H53.0903V26.9505H46.3703V23.5905H53.0903V26.9505H56.4503V20.2305ZM69.8949 13.5105H63.1749V16.8705H66.5349V26.9505H63.1749V16.8705H59.8149V30.3105H69.8949V13.5105ZM83.3246 13.5105H73.2446V16.8705H76.6046V30.3105H79.9646V16.8705H83.3246V13.5105ZM100.114 13.5105H90.0343V16.8705H96.7543V21.9105H90.0343V16.8705H86.6743V30.3105H90.0343V25.2705H96.7543V30.3105H100.114V13.5105ZM106.839 16.8705H113.559V13.5105H103.479V30.3105H113.559V26.9505H106.839V23.5905H110.199V20.2305H106.839V16.8705ZM120.269 16.8705V13.5105H116.909V30.3105H120.269V20.2305H123.629V16.8705H120.269ZM130.349 13.5105V16.8705H126.989V20.2305H130.349V30.3105H133.709V13.5105H130.349ZM123.629 23.5905H126.989V20.2305H123.629V23.5905ZM157.232 20.2305H147.152V16.8705H153.872V13.5105H143.792V30.3105H153.872V26.9505H147.152V23.5905H153.872V26.9505H157.232V20.2305ZM163.956 16.8705H170.676V13.5105H160.596V30.3105H170.676V26.9505H163.956V23.5905H167.316V20.2305H163.956V16.8705ZM184.106 13.5105H174.026V16.8705H180.746V20.2305H184.106V13.5105ZM174.026 20.2305V23.5905H180.746V20.2305H174.026ZM180.746 26.9505H174.026V30.3105H184.106V23.5905H180.746V26.9505ZM26.2159 49.2305H16.1359V45.8705H22.8559V42.5105H12.7759V59.3105H22.8559V55.9505H16.1359V52.5905H22.8559V55.9505H26.2159V49.2305ZM46.3806 42.5105H36.3006V49.2305H32.9406V42.5105H29.5806V59.3105H32.9406V52.5905H36.3006V59.3105H46.3806V42.5105ZM43.0206 45.8705V55.9505H39.6606V45.8705H43.0206ZM59.8168 42.5105H49.7368V59.3105H53.0968V52.5905H59.8168V42.5105ZM56.4568 49.2305H53.0968V45.8705H56.4568V49.2305ZM73.2465 42.5105H66.5265V45.8705H69.8865V55.9505H66.5265V45.8705H63.1665V59.3105H73.2465V42.5105ZM79.9562 49.2305V42.5105H76.5962V59.3105H79.9562V52.5905H83.3162V49.2305H79.9562ZM83.3162 42.5105V49.2305H86.6762V42.5105H83.3162ZM83.3162 59.3105H86.6762V52.5905H83.3162V59.3105ZM100.106 42.5105H90.0259V59.3105H93.3859V52.5905H100.106V42.5105ZM96.7459 49.2305H93.3859V45.8705H96.7459V49.2305ZM116.896 42.5105H106.816V45.8705H113.536V50.9105H106.816V45.8705H103.456V59.3105H106.816V54.2705H113.536V59.3105H116.896V42.5105ZM130.34 42.5105H120.26V45.8705H123.62V59.3105H126.98V45.8705H130.34V42.5105ZM137.05 49.2305V42.5105H133.69V59.3105H137.05V52.5905H140.41V49.2305H137.05ZM143.77 42.5105V45.8705H140.41V49.2305H143.77V59.3105H147.13V42.5105H143.77ZM153.855 49.2305V42.5105H150.495V59.3105H153.855V52.5905H157.215V49.2305H153.855ZM160.575 42.5105V45.8705H157.215V49.2305H160.575V59.3105H163.935V42.5105H160.575Z" fill="black"/>
</svg>
