<svg width="215" height="52" viewBox="0 0 215 52" fill="none" xmlns="http://www.w3.org/2000/svg">
<rect width="202.46" height="31.088" transform="matrix(-1 0 0 1 208.541 5.85352)" fill="white"/>
<path d="M205.792 34.1924H208.541V36.941H205.792V34.1924Z" fill="white" stroke="white" stroke-width="5.43327" stroke-miterlimit="10"/>
<path d="M14.7264 39.6895H17.4751V42.4381H14.7264V39.6895Z" fill="white" stroke="white" stroke-width="5.43327" stroke-miterlimit="10"/>
<path d="M3.33288 34.1924H6.08154V36.941H3.33288V34.1924Z" fill="white" stroke="white" stroke-width="5.43327" stroke-miterlimit="10"/>
<path d="M6.07995 5.85352H8.82861V8.60218H6.07995V5.85352Z" fill="white" stroke="white" stroke-width="5.43327" stroke-miterlimit="10"/>
<path d="M19.3757 36.9414H205.793V39.6901H19.3757V36.9414Z" fill="white" stroke="white" stroke-width="5.43327" stroke-miterlimit="10"/>
<path d="M3.34704 8.51367H6.0957V34.1921H3.34704V8.51367Z" fill="white" stroke="white" stroke-width="5.43327" stroke-miterlimit="10"/>
<path d="M8.8287 3.0166H205.793V5.76526H8.8287V3.0166Z" fill="white" stroke="white" stroke-width="5.43327" stroke-miterlimit="10"/>
<path d="M208.54 8.51367H211.289V34.1921H208.54V8.51367Z" fill="white" stroke="white" stroke-width="5.43327" stroke-miterlimit="10"/>
<path d="M20.9676 5.76562H23.7163V8.51429H20.9676V5.76562Z" fill="white" stroke="white" stroke-width="5.43327" stroke-miterlimit="10"/>
<path d="M17.4748 34.1924H23.7163V36.941H17.4748V34.1924Z" fill="white" stroke="white" stroke-width="5.43327" stroke-miterlimit="10"/>
<path d="M205.792 5.76562H208.541V8.51429H205.792V5.76562Z" fill="white" stroke="white" stroke-width="5.43327" stroke-miterlimit="10"/>
<path d="M11.9832 42.4329H14.7261V45.5717H11.9832V48.3204H9.23458V39.6901H6.09574V36.9414H11.9832V42.4329Z" fill="white" stroke="white" stroke-width="5.43327" stroke-miterlimit="10"/>
<path d="M205.792 34.1924H208.541V36.941H205.792V34.1924Z" fill="black"/>
<path d="M14.7264 39.6895H17.4751V42.4381H14.7264V39.6895Z" fill="black"/>
<path d="M17.4585 36.9414H205.792V39.6901H17.4585V36.9414Z" fill="black"/>
<path d="M3.34704 8.51367H6.0957V36.9407H3.34704V8.51367Z" fill="black"/>
<path d="M8.8287 3.0166H205.793V5.76526H8.8287V3.0166Z" fill="black"/>
<path d="M208.541 8.51367H211.29V34.1921H208.541V8.51367Z" fill="black"/>
<path d="M6.09558 5.76562H8.84424V8.51429H6.09558V5.76562Z" fill="black"/>
<path d="M205.792 5.76562H208.541V8.51429H205.792V5.76562Z" fill="black"/>
<path d="M11.9832 42.4329H14.7261V45.5717H11.9832V48.3204H9.23458V39.6901H6.09574V36.9414H11.9832V42.4329Z" fill="black"/>
<path d="M23.3393 16.4135V13.0535H16.6193V16.4135H23.3393ZM16.6193 26.4935V16.4135H13.2593V29.8535H23.3393V26.4935H16.6193ZM36.769 13.0535H30.049V16.4135H33.409V26.4935H30.049V16.4135H26.689V29.8535H36.769V13.0535ZM56.9252 19.7735H50.2052V16.4135H56.9252V13.0535H46.8452V29.8535H56.9252V26.4935H50.2052V23.1335H56.9252V19.7735ZM60.2852 19.7735V16.4135H56.9252V19.7735H60.2852ZM60.2852 26.4935V23.1335H56.9252V26.4935H60.2852ZM73.7299 16.4135V13.0535H67.0099V16.4135H73.7299ZM67.0099 26.4935V16.4135H63.6499V29.8535H73.7299V26.4935H67.0099ZM80.4396 16.4135H87.1596V13.0535H77.0796V29.8535H87.1596V26.4935H80.4396V23.1335H83.7996V19.7735H80.4396V16.4135ZM93.8693 16.4135V13.0535H90.5093V29.8535H93.8693V19.7735H97.2293V16.4135H93.8693ZM103.949 13.0535V16.4135H100.589V19.7735H103.949V29.8535H107.309V13.0535H103.949ZM97.2293 23.1335H100.589V19.7735H97.2293V23.1335ZM114.026 19.7735V13.0535H110.666V29.8535H114.026V23.1335H117.386V19.7735H114.026ZM120.746 13.0535V16.4135H117.386V19.7735H120.746V29.8535H124.106V13.0535H120.746ZM140.917 13.0535V19.7735H137.557V13.0535H134.197V29.8535H137.557V23.1335H140.917V29.8535H144.277V13.0535H140.917ZM161.066 13.0535H150.986V16.4135H157.706V21.4535H150.986V16.4135H147.626V29.8535H150.986V24.8135H157.706V29.8535H161.066V13.0535ZM181.238 13.0535H171.158V16.4135H174.518V29.8535H177.878V16.4135H181.238V13.0535ZM187.947 19.7735V13.0535H184.587V29.8535H194.667V19.7735H187.947ZM198.027 13.0535V29.8535H201.387V13.0535H198.027ZM191.307 26.4935H187.947V23.1335H191.307V26.4935Z" fill="black"/>
</svg>
