<svg width="91" height="51" viewBox="0 0 91 51" fill="none" xmlns="http://www.w3.org/2000/svg">
<rect x="3.65625" y="5.59918" width="83.7092" height="31.1756" fill="white"/>
<path d="M9.15369 34.0261H6.40503V36.7748H9.15369V34.0261Z" fill="white" stroke="white" stroke-width="5.43327" stroke-miterlimit="10"/>
<path d="M75.9865 39.5236H73.2378V42.2723H75.9865V39.5236Z" fill="white" stroke="white" stroke-width="5.43327" stroke-miterlimit="10"/>
<path d="M84.6178 5.59912H81.8691V8.34778H84.6178V5.59912Z" fill="white" stroke="white" stroke-width="5.43327" stroke-miterlimit="10"/>
<path d="M87.3654 34.0261H84.6167V36.7748H87.3654V34.0261Z" fill="white" stroke="white" stroke-width="5.43327" stroke-miterlimit="10"/>
<path d="M77.7835 36.7749H9.15381V39.5236H77.7835V36.7749Z" fill="white" stroke="white" stroke-width="5.43327" stroke-miterlimit="10"/>
<path d="M87.3654 8.34778H84.6167V34.0262H87.3654V8.34778Z" fill="white" stroke="white" stroke-width="5.43327" stroke-miterlimit="10"/>
<path d="M81.8691 2.85052H9.15381V5.59919H81.8691V2.85052Z" fill="white" stroke="white" stroke-width="5.43327" stroke-miterlimit="10"/>
<path d="M6.40491 8.34778H3.65625V34.0261H6.40491V8.34778Z" fill="white" stroke="white" stroke-width="5.43327" stroke-miterlimit="10"/>
<path d="M69.745 5.59912H66.9963V8.34778H69.745V5.59912Z" fill="white" stroke="white" stroke-width="5.43327" stroke-miterlimit="10"/>
<path d="M9.15369 5.59912H6.40503V8.34778H9.15369V5.59912Z" fill="white" stroke="white" stroke-width="5.43327" stroke-miterlimit="10"/>
<path d="M78.7294 42.2665H75.9866V45.4053H78.7294V48.154H81.4781V39.5236H84.6169V36.775H78.7294V42.2665Z" fill="white" stroke="white" stroke-width="5.43327" stroke-miterlimit="10"/>
<path d="M9.15369 34.0261H6.40503V36.7748H9.15369V34.0261Z" fill="black"/>
<path d="M75.9865 39.5236H73.2378V42.2723H75.9865V39.5236Z" fill="black"/>
<path d="M73.2378 36.7749H9.15381V39.5236H73.2378V36.7749Z" fill="black"/>
<path d="M87.3654 8.34778H84.6167V34.0262H87.3654V8.34778Z" fill="black"/>
<path d="M81.8686 2.85046H9.15381V5.59913H81.8686V2.85046Z" fill="black"/>
<path d="M6.40491 8.34778H3.65625V34.0262H6.40491V8.34778Z" fill="black"/>
<path d="M84.6171 5.59912H81.8684V8.34778H84.6171V5.59912Z" fill="black"/>
<path d="M87.3654 34.0262H84.6167V36.7748H87.3654V34.0262Z" fill="black"/>
<path d="M9.15369 5.59912H6.40503V8.34778H9.15369V5.59912Z" fill="black"/>
<path d="M78.7294 42.2665H75.9866V45.4053H78.7294V48.154H81.4781V39.5236H84.6169V36.775H78.7294V42.2665Z" fill="black"/>
<path d="M27.0084 12.7991H16.9284V16.1591H23.6484V21.1991H16.9284V16.1591H13.5684V29.5991H16.9284V24.5591H23.6484V29.5991H27.0084V12.7991ZM40.453 16.1591V12.7991H33.733V16.1591H40.453ZM33.733 26.2391V16.1591H30.373V26.2391H33.733ZM43.813 19.5191H37.093V22.8791H40.453V26.2391H43.813V19.5191ZM33.733 26.2391V29.5991H40.453V26.2391H33.733ZM47.1777 12.7991V29.5991H50.5377V12.7991H47.1777ZM63.9843 26.2391H57.2643V12.7991H53.9043V29.5991H63.9843V26.2391ZM70.694 16.1591H77.414V12.7991H67.334V29.5991H77.414V26.2391H70.694V22.8791H74.054V19.5191H70.694V16.1591Z" fill="black"/>
</svg>
