<svg width="54" height="76" viewBox="0 0 54 76" fill="none" xmlns="http://www.w3.org/2000/svg">
<path d="M15.4151 0.98407H12.4453V3.9539H15.4151V0.98407Z" fill="white"/>
<path d="M18.3844 0.98407H15.4146V3.9539H18.3844V0.98407Z" fill="white"/>
<path d="M21.3551 0.98407H18.3853V3.9539H21.3551V0.98407Z" fill="white"/>
<path d="M24.3238 0.98407H21.354V3.9539H24.3238V0.98407Z" fill="white"/>
<path d="M27.2779 0.98407H24.3081V3.9539H27.2779V0.98407Z" fill="white"/>
<path d="M30.2462 0.98407H27.2764V3.9539H30.2462V0.98407Z" fill="white"/>
<path d="M33.2169 0.98407H30.2471V3.9539H33.2169V0.98407Z" fill="white"/>
<path d="M36.1861 0.98407H33.2163V3.9539H36.1861V0.98407Z" fill="white"/>
<path d="M39.1564 0.98407H36.1865V3.9539H39.1564V0.98407Z" fill="white"/>
<path d="M42.109 0.98407H39.1392V3.9539H42.109V0.98407Z" fill="white"/>
<path d="M45.0797 0.98407H42.1099V3.9539H45.0797V0.98407Z" fill="white"/>
<path d="M48.0484 0.98407H45.0786V3.9539H48.0484V0.98407Z" fill="white"/>
<path d="M51.0191 0.98407H48.0493V3.9539H51.0191V0.98407Z" fill="white"/>
<path d="M12.4444 3.95392H9.47461V6.92375H12.4444V3.95392Z" fill="white"/>
<path d="M15.4151 3.95392H12.4453V6.92375H15.4151V3.95392Z" fill="black"/>
<path d="M18.3844 3.95392H15.4146V6.92375H18.3844V3.95392Z" fill="black"/>
<path d="M21.3551 3.95392H18.3853V6.92375H21.3551V3.95392Z" fill="black"/>
<path d="M24.3238 3.95392H21.354V6.92375H24.3238V3.95392Z" fill="black"/>
<path d="M27.2779 3.95392H24.3081V6.92375H27.2779V3.95392Z" fill="black"/>
<path d="M30.2462 3.95392H27.2764V6.92375H30.2462V3.95392Z" fill="black"/>
<path d="M33.2169 3.95392H30.2471V6.92375H33.2169V3.95392Z" fill="black"/>
<path d="M36.1861 3.95392H33.2163V6.92375H36.1861V3.95392Z" fill="black"/>
<path d="M39.1564 3.95392H36.1865V6.92375H39.1564V3.95392Z" fill="black"/>
<path d="M42.109 3.95392H39.1392V6.92375H42.109V3.95392Z" fill="black"/>
<path d="M45.0797 3.95392H42.1099V6.92375H45.0797V3.95392Z" fill="black"/>
<path d="M48.0484 3.95392H45.0786V6.92375H48.0484V3.95392Z" fill="black"/>
<path d="M51.0191 3.95392H48.0493V6.92375H51.0191V3.95392Z" fill="black"/>
<path d="M53.9884 3.95392H51.0186V6.92375H53.9884V3.95392Z" fill="white"/>
<path d="M12.4444 6.92365H9.47461V9.89347H12.4444V6.92365Z" fill="white"/>
<path d="M15.4151 6.92365H12.4453V9.89347H15.4151V6.92365Z" fill="black"/>
<path d="M18.3844 6.92365H15.4146V9.89347H18.3844V6.92365Z" fill="#D98100"/>
<path d="M21.3551 6.92365H18.3853V9.89347H21.3551V6.92365Z" fill="#FFBF66"/>
<path d="M24.3238 6.92365H21.354V9.89347H24.3238V6.92365Z" fill="#FFBF66"/>
<path d="M27.2779 6.92365H24.3081V9.89347H27.2779V6.92365Z" fill="#FFBF66"/>
<path d="M30.2462 6.92365H27.2764V9.89347H30.2462V6.92365Z" fill="#FFBF66"/>
<path d="M33.2169 6.92365H30.2471V9.89347H33.2169V6.92365Z" fill="#FFBF66"/>
<path d="M36.1861 6.92365H33.2163V9.89347H36.1861V6.92365Z" fill="#FFBF66"/>
<path d="M39.1564 6.92365H36.1865V9.89347H39.1564V6.92365Z" fill="#FFBF66"/>
<path d="M42.109 6.92365H39.1392V9.89347H42.109V6.92365Z" fill="#FFBF66"/>
<path d="M45.0797 6.92365H42.1099V9.89347H45.0797V6.92365Z" fill="#FFBF66"/>
<path d="M48.0484 6.92365H45.0786V9.89347H48.0484V6.92365Z" fill="#FFBF66"/>
<path d="M51.0191 6.92365H48.0493V9.89347H51.0191V6.92365Z" fill="black"/>
<path d="M53.9884 6.92365H51.0186V9.89347H53.9884V6.92365Z" fill="white"/>
<path d="M12.4444 9.87671H9.47461V12.8465H12.4444V9.87671Z" fill="white"/>
<path d="M15.4151 9.87671H12.4453V12.8465H15.4151V9.87671Z" fill="black"/>
<path d="M18.3844 9.87671H15.4146V12.8465H18.3844V9.87671Z" fill="#D98100"/>
<path d="M21.3551 9.87671H18.3853V12.8465H21.3551V9.87671Z" fill="#FFA219"/>
<path d="M24.3238 9.87671H21.354V12.8465H24.3238V9.87671Z" fill="#FFA219"/>
<path d="M27.2779 9.87671H24.3081V12.8465H27.2779V9.87671Z" fill="#FFA219"/>
<path d="M30.2462 9.87671H27.2764V12.8465H30.2462V9.87671Z" fill="#FFA219"/>
<path d="M33.2169 9.87671H30.2471V12.8465H33.2169V9.87671Z" fill="#FFA219"/>
<path d="M36.1861 9.87671H33.2163V12.8465H36.1861V9.87671Z" fill="#FFA219"/>
<path d="M39.1564 9.87671H36.1865V12.8465H39.1564V9.87671Z" fill="#FFA219"/>
<path d="M42.109 9.87671H39.1392V12.8465H42.109V9.87671Z" fill="#FFA219"/>
<path d="M45.0797 9.87671H42.1099V12.8465H45.0797V9.87671Z" fill="#FFBF66"/>
<path d="M48.0484 9.87671H45.0786V12.8465H48.0484V9.87671Z" fill="black"/>
<path d="M51.0191 9.87671H48.0493V12.8465H51.0191V9.87671Z" fill="white"/>
<path d="M9.49229 12.8466H6.52246V15.8164H9.49229V12.8466Z" fill="white"/>
<path d="M12.4444 12.8466H9.47461V15.8164H12.4444V12.8466Z" fill="black"/>
<path d="M15.4151 12.8466H12.4453V15.8164H15.4151V12.8466Z" fill="#D98100"/>
<path d="M18.3844 12.8466H15.4146V15.8164H18.3844V12.8466Z" fill="#FFA219"/>
<path d="M21.3551 12.8466H18.3853V15.8164H21.3551V12.8466Z" fill="#FFA219"/>
<path d="M24.3238 12.8466H21.354V15.8164H24.3238V12.8466Z" fill="#FFA219"/>
<path d="M27.2779 12.8466H24.3081V15.8164H27.2779V12.8466Z" fill="#FFA219"/>
<path d="M30.2462 12.8466H27.2764V15.8164H30.2462V12.8466Z" fill="#FFA219"/>
<path d="M33.2169 12.8466H30.2471V15.8164H33.2169V12.8466Z" fill="white"/>
<path d="M36.1861 12.8466H33.2163V15.8164H36.1861V12.8466Z" fill="#FFA219"/>
<path d="M39.1564 12.8466H36.1865V15.8164H39.1564V12.8466Z" fill="#FFA219"/>
<path d="M42.109 12.8466H39.1392V15.8164H42.109V12.8466Z" fill="#FFBF66"/>
<path d="M45.0797 12.8466H42.1099V15.8164H45.0797V12.8466Z" fill="black"/>
<path d="M48.0484 12.8466H45.0786V15.8164H48.0484V12.8466Z" fill="white"/>
<path d="M9.49229 15.8163H6.52246V18.7861H9.49229V15.8163Z" fill="white"/>
<path d="M12.4444 15.8163H9.47461V18.7861H12.4444V15.8163Z" fill="black"/>
<path d="M15.4151 15.8163H12.4453V18.7861H15.4151V15.8163Z" fill="#D98100"/>
<path d="M18.3844 15.8163H15.4146V18.7861H18.3844V15.8163Z" fill="#FFA219"/>
<path d="M21.3551 15.8163H18.3853V18.7861H21.3551V15.8163Z" fill="#FFA219"/>
<path d="M24.3238 15.8163H21.354V18.7861H24.3238V15.8163Z" fill="#FFA219"/>
<path d="M27.2779 15.8163H24.3081V18.7861H27.2779V15.8163Z" fill="#FFA219"/>
<path d="M30.2462 15.8163H27.2764V18.7861H30.2462V15.8163Z" fill="white"/>
<path d="M33.2169 15.8163H30.2471V18.7861H33.2169V15.8163Z" fill="#FFA219"/>
<path d="M36.1861 15.8163H33.2163V18.7861H36.1861V15.8163Z" fill="#FFA219"/>
<path d="M39.1564 15.8163H36.1865V18.7861H39.1564V15.8163Z" fill="#FFBF66"/>
<path d="M42.109 15.8163H39.1392V18.7861H42.109V15.8163Z" fill="black"/>
<path d="M45.0797 15.8163H42.1099V18.7861H45.0797V15.8163Z" fill="white"/>
<path d="M9.49229 18.7861H6.52246V21.7559H9.49229V18.7861Z" fill="white"/>
<path d="M12.4444 18.7861H9.47461V21.7559H12.4444V18.7861Z" fill="black"/>
<path d="M15.4151 18.7861H12.4453V21.7559H15.4151V18.7861Z" fill="#D98100"/>
<path d="M18.3844 18.7861H15.4146V21.7559H18.3844V18.7861Z" fill="#FFA219"/>
<path d="M21.3551 18.7861H18.3853V21.7559H21.3551V18.7861Z" fill="#FFA219"/>
<path d="M24.3238 18.7861H21.354V21.7559H24.3238V18.7861Z" fill="#FFA219"/>
<path d="M27.2779 18.7861H24.3081V21.7559H27.2779V18.7861Z" fill="#FFA219"/>
<path d="M30.2462 18.7861H27.2764V21.7559H30.2462V18.7861Z" fill="#FFA219"/>
<path d="M33.2169 18.7861H30.2471V21.7559H33.2169V18.7861Z" fill="#FFA219"/>
<path d="M36.1861 18.7861H33.2163V21.7559H36.1861V18.7861Z" fill="#FFBF66"/>
<path d="M39.1564 18.7861H36.1865V21.7559H39.1564V18.7861Z" fill="black"/>
<path d="M42.109 18.7861H39.1392V21.7559H42.109V18.7861Z" fill="white"/>
<path d="M6.52305 21.7559H3.55322V24.7257H6.52305V21.7559Z" fill="white"/>
<path d="M9.49229 21.7559H6.52246V24.7257H9.49229V21.7559Z" fill="black"/>
<path d="M12.4444 21.7559H9.47461V24.7257H12.4444V21.7559Z" fill="#D98100"/>
<path d="M15.4151 21.7559H12.4453V24.7257H15.4151V21.7559Z" fill="#FFA219"/>
<path d="M18.3844 21.7559H15.4146V24.7257H18.3844V21.7559Z" fill="#FFA219"/>
<path d="M21.3551 21.7559H18.3853V24.7257H21.3551V21.7559Z" fill="#FFA219"/>
<path d="M24.3238 21.7559H21.354V24.7257H24.3238V21.7559Z" fill="#FFA219"/>
<path d="M27.2779 21.7559H24.3081V24.7257H27.2779V21.7559Z" fill="#FFA219"/>
<path d="M30.2462 21.7559H27.2764V24.7257H30.2462V21.7559Z" fill="#FFA219"/>
<path d="M33.2169 21.7559H30.2471V24.7257H33.2169V21.7559Z" fill="#FFBF66"/>
<path d="M36.1861 21.7559H33.2163V24.7257H36.1861V21.7559Z" fill="black"/>
<path d="M39.1564 21.7559H36.1865V24.7257H39.1564V21.7559Z" fill="white"/>
<path d="M6.52305 24.7081H3.55322V27.6779H6.52305V24.7081Z" fill="white"/>
<path d="M9.49229 24.7081H6.52246V27.6779H9.49229V24.7081Z" fill="black"/>
<path d="M12.4444 24.7081H9.47461V27.6779H12.4444V24.7081Z" fill="#D98100"/>
<path d="M15.4151 24.7081H12.4453V27.6779H15.4151V24.7081Z" fill="#FFA219"/>
<path d="M18.3844 24.7081H15.4146V27.6779H18.3844V24.7081Z" fill="#FFA219"/>
<path d="M21.3551 24.7081H18.3853V27.6779H21.3551V24.7081Z" fill="#FFA219"/>
<path d="M24.3238 24.7081H21.354V27.6779H24.3238V24.7081Z" fill="#FFA219"/>
<path d="M27.2779 24.7081H24.3081V27.6779H27.2779V24.7081Z" fill="#FFA219"/>
<path d="M30.2462 24.7081H27.2764V27.6779H30.2462V24.7081Z" fill="#FFBF66"/>
<path d="M33.2169 24.7081H30.2471V27.6779H33.2169V24.7081Z" fill="black"/>
<path d="M36.1861 24.7081H33.2163V27.6779H36.1861V24.7081Z" fill="white"/>
<path d="M39.1564 24.7081H36.1865V27.6779H39.1564V24.7081Z" fill="white"/>
<path d="M42.109 24.7081H39.1392V27.6779H42.109V24.7081Z" fill="white"/>
<path d="M45.0797 24.7081H42.1099V27.6779H45.0797V24.7081Z" fill="white"/>
<path d="M6.52305 27.6779H3.55322V30.6477H6.52305V27.6779Z" fill="white"/>
<path d="M9.49229 27.6779H6.52246V30.6477H9.49229V27.6779Z" fill="black"/>
<path d="M12.4444 27.6779H9.47461V30.6477H12.4444V27.6779Z" fill="#D98100"/>
<path d="M15.4151 27.6779H12.4453V30.6477H15.4151V27.6779Z" fill="#FFA219"/>
<path d="M18.3844 27.6779H15.4146V30.6477H18.3844V27.6779Z" fill="#FFA219"/>
<path d="M21.3551 27.6779H18.3853V30.6477H21.3551V27.6779Z" fill="#FFA219"/>
<path d="M24.3238 27.6779H21.354V30.6477H24.3238V27.6779Z" fill="#FFA219"/>
<path d="M27.2779 27.6779H24.3081V30.6477H27.2779V27.6779Z" fill="#FFBF66"/>
<path d="M30.2462 27.6779H27.2764V30.6477H30.2462V27.6779Z" fill="black"/>
<path d="M33.2169 27.6779H30.2471V30.6477H33.2169V27.6779Z" fill="black"/>
<path d="M36.1861 27.6779H33.2163V30.6477H36.1861V27.6779Z" fill="black"/>
<path d="M39.1564 27.6779H36.1865V30.6477H39.1564V27.6779Z" fill="black"/>
<path d="M42.109 27.6779H39.1392V30.6477H42.109V27.6779Z" fill="black"/>
<path d="M45.0797 27.6779H42.1099V30.6477H45.0797V27.6779Z" fill="black"/>
<path d="M48.0484 27.6779H45.0786V30.6477H48.0484V27.6779Z" fill="white"/>
<path d="M3.55235 30.6476H0.58252V33.6175H3.55235V30.6476Z" fill="white"/>
<path d="M6.52305 30.6476H3.55322V33.6175H6.52305V30.6476Z" fill="black"/>
<path d="M9.49229 30.6476H6.52246V33.6175H9.49229V30.6476Z" fill="#D98100"/>
<path d="M12.4444 30.6476H9.47461V33.6175H12.4444V30.6476Z" fill="#FFA219"/>
<path d="M15.4151 30.6476H12.4453V33.6175H15.4151V30.6476Z" fill="#FFA219"/>
<path d="M18.3844 30.6476H15.4146V33.6175H18.3844V30.6476Z" fill="#FFA219"/>
<path d="M21.3551 30.6476H18.3853V33.6175H21.3551V30.6476Z" fill="#FFA219"/>
<path d="M24.3238 30.6476H21.354V33.6175H24.3238V30.6476Z" fill="#FFA219"/>
<path d="M27.2779 30.6476H24.3081V33.6175H27.2779V30.6476Z" fill="#FFA219"/>
<path d="M30.2462 30.6476H27.2764V33.6175H30.2462V30.6476Z" fill="#FFA219"/>
<path d="M33.2169 30.6476H30.2471V33.6175H33.2169V30.6476Z" fill="#FFA219"/>
<path d="M36.1861 30.6476H33.2163V33.6175H36.1861V30.6476Z" fill="#FFA219"/>
<path d="M39.1564 30.6476H36.1865V33.6175H39.1564V30.6476Z" fill="#FFA219"/>
<path d="M42.109 30.6476H39.1392V33.6175H42.109V30.6476Z" fill="#FFA219"/>
<path d="M45.0797 30.6476H42.1099V33.6175H45.0797V30.6476Z" fill="#FFBF66"/>
<path d="M48.0484 30.6476H45.0786V33.6175H48.0484V30.6476Z" fill="black"/>
<path d="M51.0191 30.6476H48.0493V33.6175H51.0191V30.6476Z" fill="white"/>
<path d="M3.55235 33.6175H0.58252V36.5873H3.55235V33.6175Z" fill="white"/>
<path d="M6.52305 33.6175H3.55322V36.5873H6.52305V33.6175Z" fill="black"/>
<path d="M9.49229 33.6175H6.52246V36.5873H9.49229V33.6175Z" fill="#D98100"/>
<path d="M12.4444 33.6175H9.47461V36.5873H12.4444V33.6175Z" fill="#D98100"/>
<path d="M15.4151 33.6175H12.4453V36.5873H15.4151V33.6175Z" fill="#D98100"/>
<path d="M18.3844 33.6175H15.4146V36.5873H18.3844V33.6175Z" fill="#D98100"/>
<path d="M21.3551 33.6175H18.3853V36.5873H21.3551V33.6175Z" fill="#D98100"/>
<path d="M24.3238 33.6175H21.354V36.5873H24.3238V33.6175Z" fill="#FFA219"/>
<path d="M27.2779 33.6175H24.3081V36.5873H27.2779V33.6175Z" fill="#FFA219"/>
<path d="M30.2462 33.6175H27.2764V36.5873H30.2462V33.6175Z" fill="#FFA219"/>
<path d="M33.2169 33.6175H30.2471V36.5873H33.2169V33.6175Z" fill="#FFA219"/>
<path d="M36.1861 33.6175H33.2163V36.5873H36.1861V33.6175Z" fill="white"/>
<path d="M39.1564 33.6175H36.1865V36.5873H39.1564V33.6175Z" fill="#FFA219"/>
<path d="M42.109 33.6175H39.1392V36.5873H42.109V33.6175Z" fill="#FFA219"/>
<path d="M45.0797 33.6175H42.1099V36.5873H45.0797V33.6175Z" fill="#FFBF66"/>
<path d="M48.0484 33.6175H45.0786V36.5873H48.0484V33.6175Z" fill="black"/>
<path d="M51.0191 33.6175H48.0493V36.5873H51.0191V33.6175Z" fill="white"/>
<path d="M3.55235 36.5881H0.58252V39.558H3.55235V36.5881Z" fill="white"/>
<path d="M6.52305 36.5881H3.55322V39.558H6.52305V36.5881Z" fill="black"/>
<path d="M9.49229 36.5881H6.52246V39.558H9.49229V36.5881Z" fill="black"/>
<path d="M12.4444 36.5881H9.47461V39.558H12.4444V36.5881Z" fill="black"/>
<path d="M15.4151 36.5881H12.4453V39.558H15.4151V36.5881Z" fill="black"/>
<path d="M18.3844 36.5881H15.4146V39.558H18.3844V36.5881Z" fill="black"/>
<path d="M21.3551 36.5881H18.3853V39.558H21.3551V36.5881Z" fill="#D98100"/>
<path d="M24.3238 36.5881H21.354V39.558H24.3238V36.5881Z" fill="#FFA219"/>
<path d="M27.2779 36.5881H24.3081V39.558H27.2779V36.5881Z" fill="#FFA219"/>
<path d="M30.2462 36.5881H27.2764V39.558H30.2462V36.5881Z" fill="#FFA219"/>
<path d="M33.2169 36.5881H30.2471V39.558H33.2169V36.5881Z" fill="white"/>
<path d="M36.1861 36.5881H33.2163V39.558H36.1861V36.5881Z" fill="#FFA219"/>
<path d="M39.1564 36.5881H36.1865V39.558H39.1564V36.5881Z" fill="#FFA219"/>
<path d="M42.109 36.5881H39.1392V39.558H42.109V36.5881Z" fill="#FFBF66"/>
<path d="M45.0797 36.5881H42.1099V39.558H45.0797V36.5881Z" fill="black"/>
<path d="M48.0484 36.5881H45.0786V39.558H48.0484V36.5881Z" fill="white"/>
<path d="M51.0191 36.5881H48.0493V39.558H51.0191V36.5881Z" fill="white"/>
<path d="M6.52305 39.5403H3.55322V42.5101H6.52305V39.5403Z" fill="white"/>
<path d="M9.49229 39.5403H6.52246V42.5101H9.49229V39.5403Z" fill="white"/>
<path d="M12.4444 39.5403H9.47461V42.5101H12.4444V39.5403Z" fill="white"/>
<path d="M15.4151 39.5403H12.4453V42.5101H15.4151V39.5403Z" fill="white"/>
<path d="M18.3844 39.5403H15.4146V42.5101H18.3844V39.5403Z" fill="black"/>
<path d="M21.3551 39.5403H18.3853V42.5101H21.3551V39.5403Z" fill="#D98100"/>
<path d="M24.3238 39.5403H21.354V42.5101H24.3238V39.5403Z" fill="#FFA219"/>
<path d="M27.2779 39.5403H24.3081V42.5101H27.2779V39.5403Z" fill="#FFA219"/>
<path d="M30.2462 39.5403H27.2764V42.5101H30.2462V39.5403Z" fill="#FFA219"/>
<path d="M33.2169 39.5403H30.2471V42.5101H33.2169V39.5403Z" fill="#FFA219"/>
<path d="M36.1861 39.5403H33.2163V42.5101H36.1861V39.5403Z" fill="#FFA219"/>
<path d="M39.1564 39.5403H36.1865V42.5101H39.1564V39.5403Z" fill="#FFBF66"/>
<path d="M42.109 39.5403H39.1392V42.5101H42.109V39.5403Z" fill="black"/>
<path d="M45.0797 39.5403H42.1099V42.5101H45.0797V39.5403Z" fill="white"/>
<path d="M48.0484 39.5403H45.0786V42.5101H48.0484V39.5403Z" fill="white"/>
<path d="M15.4151 42.5101H12.4453V45.48H15.4151V42.5101Z" fill="white"/>
<path d="M18.3844 42.5101H15.4146V45.48H18.3844V42.5101Z" fill="black"/>
<path d="M21.3551 42.5101H18.3853V45.48H21.3551V42.5101Z" fill="#D98100"/>
<path d="M24.3238 42.5101H21.354V45.48H24.3238V42.5101Z" fill="#FFA219"/>
<path d="M27.2779 42.5101H24.3081V45.48H27.2779V42.5101Z" fill="#FFA219"/>
<path d="M30.2462 42.5101H27.2764V45.48H30.2462V42.5101Z" fill="#FFA219"/>
<path d="M33.2169 42.5101H30.2471V45.48H33.2169V42.5101Z" fill="#FFA219"/>
<path d="M36.1861 42.5101H33.2163V45.48H36.1861V42.5101Z" fill="#FFBF66"/>
<path d="M39.1564 42.5101H36.1865V45.48H39.1564V42.5101Z" fill="black"/>
<path d="M42.109 42.5101H39.1392V45.48H42.109V42.5101Z" fill="white"/>
<path d="M45.0797 42.5101H42.1099V45.48H45.0797V42.5101Z" fill="white"/>
<path d="M12.4444 45.4799H9.47461V48.4497H12.4444V45.4799Z" fill="white"/>
<path d="M15.4151 45.4799H12.4453V48.4497H15.4151V45.4799Z" fill="black"/>
<path d="M18.3844 45.4799H15.4146V48.4497H18.3844V45.4799Z" fill="#D98100"/>
<path d="M21.3551 45.4799H18.3853V48.4497H21.3551V45.4799Z" fill="#D98100"/>
<path d="M24.3238 45.4799H21.354V48.4497H24.3238V45.4799Z" fill="#FFA219"/>
<path d="M27.2779 45.4799H24.3081V48.4497H27.2779V45.4799Z" fill="#FFA219"/>
<path d="M30.2462 45.4799H27.2764V48.4497H30.2462V45.4799Z" fill="#FFA219"/>
<path d="M33.2169 45.4799H30.2471V48.4497H33.2169V45.4799Z" fill="#FFBF66"/>
<path d="M36.1861 45.4799H33.2163V48.4497H36.1861V45.4799Z" fill="black"/>
<path d="M39.1564 45.4799H36.1865V48.4497H39.1564V45.4799Z" fill="white"/>
<path d="M42.109 45.4799H39.1392V48.4497H42.109V45.4799Z" fill="white"/>
<path d="M12.4444 48.4497H9.47461V51.4195H12.4444V48.4497Z" fill="white"/>
<path d="M15.4151 48.4497H12.4453V51.4195H15.4151V48.4497Z" fill="black"/>
<path d="M18.3844 48.4497H15.4146V51.4195H18.3844V48.4497Z" fill="#D98100"/>
<path d="M21.3551 48.4497H18.3853V51.4195H21.3551V48.4497Z" fill="#FFA219"/>
<path d="M24.3238 48.4497H21.354V51.4195H24.3238V48.4497Z" fill="#FFA219"/>
<path d="M27.2779 48.4497H24.3081V51.4195H27.2779V48.4497Z" fill="#FFA219"/>
<path d="M30.2462 48.4497H27.2764V51.4195H30.2462V48.4497Z" fill="#FFBF66"/>
<path d="M33.2169 48.4497H30.2471V51.4195H33.2169V48.4497Z" fill="black"/>
<path d="M36.1861 48.4497H33.2163V51.4195H36.1861V48.4497Z" fill="white"/>
<path d="M39.1564 48.4497H36.1865V51.4195H39.1564V48.4497Z" fill="white"/>
<path d="M12.4444 51.4194H9.47461V54.3893H12.4444V51.4194Z" fill="white"/>
<path d="M15.4151 51.4194H12.4453V54.3893H15.4151V51.4194Z" fill="black"/>
<path d="M18.3844 51.4194H15.4146V54.3893H18.3844V51.4194Z" fill="#D98100"/>
<path d="M21.3551 51.4194H18.3853V54.3893H21.3551V51.4194Z" fill="#FFA219"/>
<path d="M24.3238 51.4194H21.354V54.3893H24.3238V51.4194Z" fill="#FFA219"/>
<path d="M27.2779 51.4194H24.3081V54.3893H27.2779V51.4194Z" fill="#FFBF66"/>
<path d="M30.2462 51.4194H27.2764V54.3893H30.2462V51.4194Z" fill="black"/>
<path d="M33.2169 51.4194H30.2471V54.3893H33.2169V51.4194Z" fill="white"/>
<path d="M36.1861 51.4194H33.2163V54.3893H36.1861V51.4194Z" fill="white"/>
<path d="M9.49229 54.3725H6.52246V57.3423H9.49229V54.3725Z" fill="white"/>
<path d="M12.4444 54.3725H9.47461V57.3423H12.4444V54.3725Z" fill="black"/>
<path d="M15.4151 54.3725H12.4453V57.3423H15.4151V54.3725Z" fill="#D98100"/>
<path d="M18.3844 54.3725H15.4146V57.3423H18.3844V54.3725Z" fill="#D98100"/>
<path d="M21.3551 54.3725H18.3853V57.3423H21.3551V54.3725Z" fill="#FFA219"/>
<path d="M24.3238 54.3725H21.354V57.3423H24.3238V54.3725Z" fill="#FFBF66"/>
<path d="M27.2779 54.3725H24.3081V57.3423H27.2779V54.3725Z" fill="black"/>
<path d="M30.2462 54.3725H27.2764V57.3423H30.2462V54.3725Z" fill="white"/>
<path d="M33.2169 54.3725H30.2471V57.3423H33.2169V54.3725Z" fill="white"/>
<path d="M9.49229 57.3423H6.52246V60.3122H9.49229V57.3423Z" fill="white"/>
<path d="M12.4444 57.3423H9.47461V60.3122H12.4444V57.3423Z" fill="black"/>
<path d="M15.4151 57.3423H12.4453V60.3122H15.4151V57.3423Z" fill="#D98100"/>
<path d="M18.3844 57.3423H15.4146V60.3122H18.3844V57.3423Z" fill="#FFA219"/>
<path d="M21.3551 57.3423H18.3853V60.3122H21.3551V57.3423Z" fill="#FFBF66"/>
<path d="M24.3238 57.3423H21.354V60.3122H24.3238V57.3423Z" fill="black"/>
<path d="M27.2779 57.3423H24.3081V60.3122H27.2779V57.3423Z" fill="white"/>
<path d="M30.2462 57.3423H27.2764V60.3122H30.2462V57.3423Z" fill="white"/>
<path d="M9.49229 60.3121H6.52246V63.2819H9.49229V60.3121Z" fill="white"/>
<path d="M12.4444 60.3121H9.47461V63.2819H12.4444V60.3121Z" fill="black"/>
<path d="M15.4151 60.3121H12.4453V63.2819H15.4151V60.3121Z" fill="#D98100"/>
<path d="M18.3844 60.3121H15.4146V63.2819H18.3844V60.3121Z" fill="#FFBF66"/>
<path d="M21.3551 60.3121H18.3853V63.2819H21.3551V60.3121Z" fill="black"/>
<path d="M24.3238 60.3121H21.354V63.2819H24.3238V60.3121Z" fill="white"/>
<path d="M27.2779 60.3121H24.3081V63.2819H27.2779V60.3121Z" fill="white"/>
<path d="M6.52305 63.2819H3.55322V66.2517H6.52305V63.2819Z" fill="white"/>
<path d="M9.49229 63.2819H6.52246V66.2517H9.49229V63.2819Z" fill="black"/>
<path d="M12.4444 63.2819H9.47461V66.2517H12.4444V63.2819Z" fill="#D98100"/>
<path d="M15.4151 63.2819H12.4453V66.2517H15.4151V63.2819Z" fill="#D98100"/>
<path d="M18.3844 63.2819H15.4146V66.2517H18.3844V63.2819Z" fill="black"/>
<path d="M21.3551 63.2819H18.3853V66.2517H21.3551V63.2819Z" fill="white"/>
<path d="M24.3238 63.2819H21.354V66.2517H24.3238V63.2819Z" fill="white"/>
<path d="M6.52305 66.2517H3.55322V69.2215H6.52305V66.2517Z" fill="white"/>
<path d="M9.49229 66.2517H6.52246V69.2215H9.49229V66.2517Z" fill="black"/>
<path d="M12.4444 66.2517H9.47461V69.2215H12.4444V66.2517Z" fill="#D98100"/>
<path d="M15.4151 66.2517H12.4453V69.2215H15.4151V66.2517Z" fill="black"/>
<path d="M18.3844 66.2517H15.4146V69.2215H18.3844V66.2517Z" fill="white"/>
<path d="M21.3551 66.2517H18.3853V69.2215H21.3551V66.2517Z" fill="white"/>
<path d="M6.52305 69.2047H3.55322V72.1745H6.52305V69.2047Z" fill="white"/>
<path d="M9.49229 69.2047H6.52246V72.1745H9.49229V69.2047Z" fill="black"/>
<path d="M12.4444 69.2047H9.47461V72.1745H12.4444V69.2047Z" fill="black"/>
<path d="M15.4151 69.2047H12.4453V72.1745H15.4151V69.2047Z" fill="white"/>
<path d="M18.3844 69.2047H15.4146V72.1745H18.3844V69.2047Z" fill="white"/>
<path d="M6.52305 72.1745H3.55322V75.1443H6.52305V72.1745Z" fill="white"/>
<path d="M9.49229 72.1745H6.52246V75.1443H9.49229V72.1745Z" fill="white"/>
<path d="M12.4444 72.1745H9.47461V75.1443H12.4444V72.1745Z" fill="white"/>
<path d="M15.4151 72.1745H12.4453V75.1443H15.4151V72.1745Z" fill="white"/>
</svg>
