<svg width="107" height="305" viewBox="0 0 107 305" fill="none" xmlns="http://www.w3.org/2000/svg">
<path d="M2.89185 301.088L104 301.088L104 257.088L2.89184 257.088L2.89185 301.088Z" fill="#8044C7"/>
<path d="M6.48572 254.088L100.59 254.088L100.59 -88.6119L6.48569 -88.6119L6.48572 254.088Z" fill="#8044C7"/>
<path d="M6.48572 254.088L29.5348 254.088L29.5348 -88.6119L6.48569 -88.6119L6.48572 254.088Z" fill="#6D35B0"/>
<path d="M81.1567 254.088L100.59 254.088L100.59 -88.6119L81.1567 -88.6119L81.1567 254.088Z" fill="#9256DA"/>
<path d="M2.50391 301.088L32.8746 301.088L32.8746 257.088L2.5039 257.088L2.50391 301.088Z" fill="#6D35B0"/>
<path d="M84.8542 301.088L104.251 301.088L104.251 257.088L84.8542 257.088L84.8542 301.088Z" fill="#9256DA"/>
<path fill-rule="evenodd" clip-rule="evenodd" d="M104 301.088L3 301.088L3 257.088L104 257.088L104 301.088ZM0 304.088L-4.37114e-06 254.088L107 254.088L107 304.088L0 304.088Z" fill="black"/>
<path fill-rule="evenodd" clip-rule="evenodd" d="M100 254.088L7 254.088L6.99996 -169.912L100 -169.912L100 254.088ZM4 257.088L3.99996 -172.912L103 -172.912L103 257.088L4 257.088Z" fill="black"/>
</svg>
