<svg width="108" height="314" viewBox="0 0 108 314" fill="none" xmlns="http://www.w3.org/2000/svg">
<path d="M104.231 3.65723L3.12271 3.65723L3.12271 47.6572L104.231 47.6572L104.231 3.65723Z" fill="#8044C7"/>
<path d="M100.637 50.6572L6.5325 50.6572L6.5325 475.069L100.637 475.069L100.637 50.6572Z" fill="#8044C7"/>
<path d="M100.637 50.6572L77.5879 50.6572L77.5879 475.069L100.637 475.069L100.637 50.6572Z" fill="#6D35B0"/>
<path d="M25.966 50.6572L6.53249 50.6572L6.53249 475.069L25.966 475.069L25.966 50.6572Z" fill="#9256DA"/>
<path d="M104.619 3.65723L74.2481 3.65723L74.2481 47.6572L104.619 47.6572L104.619 3.65723Z" fill="#6D35B0"/>
<path d="M22.2685 3.65723L2.87162 3.65723L2.87162 47.6572L22.2685 47.6572L22.2685 3.65723Z" fill="#9256DA"/>
<path fill-rule="evenodd" clip-rule="evenodd" d="M3.12271 3.65723H104.123V47.6572H3.12271V3.65723ZM107.123 0.657227V50.6572H0.122711V0.657227H107.123Z" fill="black"/>
<path fill-rule="evenodd" clip-rule="evenodd" d="M7.12267 50.6572H100.123V474.657H7.12267V50.6572ZM103.123 47.6572V477.657H4.12267V47.6572H103.123Z" fill="black"/>
</svg>
