<svg width="108" height="1202" viewBox="0 0 108 1202" fill="none" xmlns="http://www.w3.org/2000/svg">
<path d="M104.484 3.05371L3.37549 3.05371L3.37549 47.0537L104.484 47.0537L104.484 3.05371Z" fill="#8044C7"/>
<path d="M100.89 50.0537L6.7854 50.0537L6.7854 1199.98L100.89 1199.98L100.89 50.0537Z" fill="#8044C7"/>
<path d="M100.89 50.0537L77.8408 50.0537L77.8408 1199.98L100.89 1199.98L100.89 50.0537Z" fill="#6D35B0"/>
<path d="M26.219 50.0537L6.78551 50.0537L6.78551 1199.98L26.219 1199.98L26.219 50.0537Z" fill="#9256DA"/>
<path d="M104.872 3.05371L74.5009 3.05371L74.5009 47.0537L104.872 47.0537L104.872 3.05371Z" fill="#6D35B0"/>
<path d="M22.5212 3.05371L3.12439 3.05371L3.12439 47.0537L22.5212 47.0537L22.5212 3.05371Z" fill="#9256DA"/>
<path fill-rule="evenodd" clip-rule="evenodd" d="M3.37549 3.05371H104.375V47.0537H3.37549V3.05371ZM107.375 0.0537109V50.0537H0.375488V0.0537109H107.375Z" fill="black"/>
<path fill-rule="evenodd" clip-rule="evenodd" d="M7.37545 50.0537H100.375L100.375 1198.53H7.37539L7.37545 50.0537ZM103.375 47.0537L103.375 1201.53H4.37539L4.37545 47.0537H103.375Z" fill="black"/>
</svg>
