<svg width="244" height="81" viewBox="0 0 244 81" fill="none" xmlns="http://www.w3.org/2000/svg">
<path d="M123.907 0.855469H120.094V4.6686H123.907V0.855469Z" fill="white"/>
<path d="M120.095 4.66846H116.281V8.48159H120.095V4.66846Z" fill="white"/>
<path d="M123.907 4.66846H120.094V8.48159H123.907V4.66846Z" fill="black"/>
<path d="M127.721 4.66846H123.908V8.48159H127.721V4.66846Z" fill="white"/>
<path d="M116.281 8.48145H112.468V12.2946H116.281V8.48145Z" fill="white"/>
<path d="M120.095 8.48145H116.281V12.2946H120.095V8.48145Z" fill="black"/>
<path d="M123.907 8.48145H120.094V12.2946H123.907V8.48145Z" fill="#EEB81D"/>
<path d="M127.721 8.48145H123.908V12.2946H127.721V8.48145Z" fill="black"/>
<path d="M131.511 8.48145H127.698V12.2946H131.511V8.48145Z" fill="white"/>
<path d="M112.468 12.2734H108.655V16.0866H112.468V12.2734Z" fill="white"/>
<path d="M116.281 12.2734H112.468V16.0866H116.281V12.2734Z" fill="black"/>
<path d="M120.095 12.2734H116.281V16.0866H120.095V12.2734Z" fill="#EEB81D"/>
<path d="M123.907 12.2734H120.094V16.0866H123.907V12.2734Z" fill="#F0C915"/>
<path d="M127.721 12.2734H123.908V16.0866H127.721V12.2734Z" fill="#F0C915"/>
<path d="M131.511 12.2734H127.698V16.0866H131.511V12.2734Z" fill="black"/>
<path d="M135.326 12.2734H131.512V16.0866H135.326V12.2734Z" fill="white"/>
<path d="M112.468 16.0864H108.655V19.8996H112.468V16.0864Z" fill="white"/>
<path d="M116.281 16.0864H112.468V19.8996H116.281V16.0864Z" fill="black"/>
<path d="M120.095 16.0864H116.281V19.8996H120.095V16.0864Z" fill="#EEB81D"/>
<path d="M123.907 16.0864H120.094V19.8996H123.907V16.0864Z" fill="#F0C915"/>
<path d="M127.721 16.0864H123.908V19.8996H127.721V16.0864Z" fill="#F0C915"/>
<path d="M131.511 16.0864H127.698V19.8996H131.511V16.0864Z" fill="black"/>
<path d="M135.326 16.0864H131.512V19.8996H135.326V16.0864Z" fill="white"/>
<path d="M108.676 19.8994H104.863V23.7125H108.676V19.8994Z" fill="white"/>
<path d="M112.468 19.8994H108.655V23.7125H112.468V19.8994Z" fill="black"/>
<path d="M116.281 19.8994H112.468V23.7125H116.281V19.8994Z" fill="#EEB81D"/>
<path d="M120.095 19.8994H116.281V23.7125H120.095V19.8994Z" fill="#F0C915"/>
<path d="M123.907 19.8994H120.094V23.7125H123.907V19.8994Z" fill="#F0C915"/>
<path d="M127.721 19.8994H123.908V23.7125H127.721V19.8994Z" fill="#F0C915"/>
<path d="M131.511 19.8994H127.698V23.7125H131.511V19.8994Z" fill="#F0C915"/>
<path d="M135.326 19.8994H131.512V23.7125H135.326V19.8994Z" fill="black"/>
<path d="M139.138 19.8994H135.324V23.7125H139.138V19.8994Z" fill="white"/>
<path d="M89.6332 23.7119H85.8201V27.525H89.6332V23.7119Z" fill="white"/>
<path d="M93.4237 23.7119H89.6106V27.525H93.4237V23.7119Z" fill="white"/>
<path d="M97.2377 23.7119H93.4246V27.525H97.2377V23.7119Z" fill="white"/>
<path d="M101.05 23.7119H97.2368V27.525H101.05V23.7119Z" fill="white"/>
<path d="M104.864 23.7119H101.051V27.525H104.864V23.7119Z" fill="white"/>
<path d="M108.676 23.7119H104.863V27.525H108.676V23.7119Z" fill="white"/>
<path d="M112.468 23.7119H108.655V27.525H112.468V23.7119Z" fill="black"/>
<path d="M116.281 23.7119H112.468V27.525H116.281V23.7119Z" fill="#EEB81D"/>
<path d="M120.095 23.7119H116.281V27.525H120.095V23.7119Z" fill="#F0C915"/>
<path d="M123.907 23.7119H120.094V27.525H123.907V23.7119Z" fill="#F0C915"/>
<path d="M127.721 23.7119H123.908V27.525H127.721V23.7119Z" fill="white"/>
<path d="M131.511 23.7119H127.698V27.525H131.511V23.7119Z" fill="#F0C915"/>
<path d="M135.326 23.7119H131.512V27.525H135.326V23.7119Z" fill="black"/>
<path d="M139.138 23.7119H135.324V27.525H139.138V23.7119Z" fill="white"/>
<path d="M142.952 23.7119H139.139V27.525H142.952V23.7119Z" fill="white"/>
<path d="M146.764 23.7119H142.95V27.525H146.764V23.7119Z" fill="white"/>
<path d="M150.554 23.7119H146.741V27.525H150.554V23.7119Z" fill="white"/>
<path d="M154.369 23.7119H150.555V27.525H154.369V23.7119Z" fill="white"/>
<path d="M158.18 23.7119H154.367V27.525H158.18V23.7119Z" fill="white"/>
<path d="M85.8209 27.5259H82.0078V31.339H85.8209V27.5259Z" fill="white"/>
<path d="M89.6332 27.5259H85.8201V31.339H89.6332V27.5259Z" fill="black"/>
<path d="M93.4237 27.5259H89.6106V31.339H93.4237V27.5259Z" fill="black"/>
<path d="M97.2377 27.5259H93.4246V31.339H97.2377V27.5259Z" fill="black"/>
<path d="M101.05 27.5259H97.2368V31.339H101.05V27.5259Z" fill="black"/>
<path d="M104.864 27.5259H101.051V31.339H104.864V27.5259Z" fill="black"/>
<path d="M108.676 27.5259H104.863V31.339H108.676V27.5259Z" fill="black"/>
<path d="M112.468 27.5259H108.655V31.339H112.468V27.5259Z" fill="#EEB81D"/>
<path d="M116.281 27.5259H112.468V31.339H116.281V27.5259Z" fill="#F0C915"/>
<path d="M120.095 27.5259H116.281V31.339H120.095V27.5259Z" fill="#F0C915"/>
<path d="M123.907 27.5259H120.094V31.339H123.907V27.5259Z" fill="#F0C915"/>
<path d="M127.721 27.5259H123.908V31.339H127.721V27.5259Z" fill="white"/>
<path d="M131.511 27.5259H127.698V31.339H131.511V27.5259Z" fill="#F0C915"/>
<path d="M135.326 27.5259H131.512V31.339H135.326V27.5259Z" fill="#F0C915"/>
<path d="M139.138 27.5259H135.324V31.339H139.138V27.5259Z" fill="black"/>
<path d="M142.952 27.5259H139.139V31.339H142.952V27.5259Z" fill="black"/>
<path d="M146.764 27.5259H142.95V31.339H146.764V27.5259Z" fill="black"/>
<path d="M150.554 27.5259H146.741V31.339H150.554V27.5259Z" fill="black"/>
<path d="M154.369 27.5259H150.555V31.339H154.369V27.5259Z" fill="black"/>
<path d="M158.18 27.5259H154.367V31.339H158.18V27.5259Z" fill="black"/>
<path d="M161.994 27.5259H158.181V31.339H161.994V27.5259Z" fill="white"/>
<path d="M82.007 31.3164H78.1938V35.1295H82.007V31.3164Z" fill="white"/>
<path d="M85.8209 31.3164H82.0078V35.1295H85.8209V31.3164Z" fill="black"/>
<path d="M89.6332 31.3164H85.8201V35.1295H89.6332V31.3164Z" fill="#BB891A"/>
<path d="M93.4237 31.3164H89.6106V35.1295H93.4237V31.3164Z" fill="#D2991E"/>
<path d="M97.2377 31.3164H93.4246V35.1295H97.2377V31.3164Z" fill="#D2991E"/>
<path d="M101.05 31.3164H97.2368V35.1295H101.05V31.3164Z" fill="#EEB81D"/>
<path d="M104.864 31.3164H101.051V35.1295H104.864V31.3164Z" fill="#EEB81D"/>
<path d="M108.676 31.3164H104.863V35.1295H108.676V31.3164Z" fill="#EEB81D"/>
<path d="M112.468 31.3164H108.655V35.1295H112.468V31.3164Z" fill="#F0C915"/>
<path d="M116.281 31.3164H112.468V35.1295H116.281V31.3164Z" fill="#F0C915"/>
<path d="M120.095 31.3164H116.281V35.1295H120.095V31.3164Z" fill="#F0C915"/>
<path d="M123.907 31.3164H120.094V35.1295H123.907V31.3164Z" fill="#F0C915"/>
<path d="M127.721 31.3164H123.908V35.1295H127.721V31.3164Z" fill="#F0C915"/>
<path d="M131.511 31.3164H127.698V35.1295H131.511V31.3164Z" fill="white"/>
<path d="M135.326 31.3164H131.512V35.1295H135.326V31.3164Z" fill="#F0C915"/>
<path d="M139.138 31.3164H135.324V35.1295H139.138V31.3164Z" fill="#F0C915"/>
<path d="M142.952 31.3164H139.139V35.1295H142.952V31.3164Z" fill="#F0C915"/>
<path d="M146.764 31.3164H142.95V35.1295H146.764V31.3164Z" fill="#F0C915"/>
<path d="M150.554 31.3164H146.741V35.1295H150.554V31.3164Z" fill="#F0C915"/>
<path d="M154.369 31.3164H150.555V35.1295H154.369V31.3164Z" fill="#F0C915"/>
<path d="M158.18 31.3164H154.367V35.1295H158.18V31.3164Z" fill="#F0C915"/>
<path d="M161.994 31.3164H158.181V35.1295H161.994V31.3164Z" fill="black"/>
<path d="M165.807 31.3164H161.993V35.1295H165.807V31.3164Z" fill="white"/>
<path d="M85.8209 35.1294H82.0078V38.9425H85.8209V35.1294Z" fill="white"/>
<path d="M89.6332 35.1294H85.8201V38.9425H89.6332V35.1294Z" fill="black"/>
<path d="M93.4237 35.1294H89.6106V38.9425H93.4237V35.1294Z" fill="black"/>
<path d="M97.2377 35.1294H93.4246V38.9425H97.2377V35.1294Z" fill="#BB891A"/>
<path d="M101.05 35.1294H97.2368V38.9425H101.05V35.1294Z" fill="#F0C915"/>
<path d="M104.864 35.1294H101.051V38.9425H104.864V35.1294Z" fill="#F0C915"/>
<path d="M108.676 35.1294H104.863V38.9425H108.676V35.1294Z" fill="#F0C915"/>
<path d="M112.468 35.1294H108.655V38.9425H112.468V35.1294Z" fill="#F0C915"/>
<path d="M116.281 35.1294H112.468V38.9425H116.281V35.1294Z" fill="#F0C915"/>
<path d="M120.095 35.1294H116.281V38.9425H120.095V35.1294Z" fill="#F0C915"/>
<path d="M123.907 35.1294H120.094V38.9425H123.907V35.1294Z" fill="#F0C915"/>
<path d="M127.721 35.1294H123.908V38.9425H127.721V35.1294Z" fill="#F0C915"/>
<path d="M131.511 35.1294H127.698V38.9425H131.511V35.1294Z" fill="#F0C915"/>
<path d="M135.326 35.1294H131.512V38.9425H135.326V35.1294Z" fill="white"/>
<path d="M139.138 35.1294H135.324V38.9425H139.138V35.1294Z" fill="#F0C915"/>
<path d="M142.952 35.1294H139.139V38.9425H142.952V35.1294Z" fill="#F0C915"/>
<path d="M146.764 35.1294H142.95V38.9425H146.764V35.1294Z" fill="#F0C915"/>
<path d="M150.554 35.1294H146.741V38.9425H150.554V35.1294Z" fill="#F0C915"/>
<path d="M154.369 35.1294H150.555V38.9425H154.369V35.1294Z" fill="black"/>
<path d="M158.18 35.1294H154.367V38.9425H158.18V35.1294Z" fill="black"/>
<path d="M161.994 35.1294H158.181V38.9425H161.994V35.1294Z" fill="white"/>
<path d="M89.6332 38.9424H85.8201V42.7555H89.6332V38.9424Z" fill="white"/>
<path d="M93.4237 38.9424H89.6106V42.7555H93.4237V38.9424Z" fill="white"/>
<path d="M97.2377 38.9424H93.4246V42.7555H97.2377V38.9424Z" fill="black"/>
<path d="M101.05 38.9424H97.2368V42.7555H101.05V38.9424Z" fill="#BB891A"/>
<path d="M104.864 38.9424H101.051V42.7555H104.864V38.9424Z" fill="#BB891A"/>
<path d="M108.676 38.9424H104.863V42.7555H108.676V38.9424Z" fill="#F0C915"/>
<path d="M112.468 38.9424H108.655V42.7555H112.468V38.9424Z" fill="#F0C915"/>
<path d="M116.281 38.9424H112.468V42.7555H116.281V38.9424Z" fill="#F0C915"/>
<path d="M120.095 38.9424H116.281V42.7555H120.095V38.9424Z" fill="#F0C915"/>
<path d="M123.907 38.9424H120.094V42.7555H123.907V38.9424Z" fill="#F0C915"/>
<path d="M127.721 38.9424H123.908V42.7555H127.721V38.9424Z" fill="#F0C915"/>
<path d="M131.511 38.9424H127.698V42.7555H131.511V38.9424Z" fill="#F0C915"/>
<path d="M135.326 38.9424H131.512V42.7555H135.326V38.9424Z" fill="#F0C915"/>
<path d="M139.138 38.9424H135.324V42.7555H139.138V38.9424Z" fill="#F0C915"/>
<path d="M142.952 38.9424H139.139V42.7555H142.952V38.9424Z" fill="#F0C915"/>
<path d="M146.764 38.9424H142.95V42.7555H146.764V38.9424Z" fill="#F0C915"/>
<path d="M150.554 38.9424H146.741V42.7555H150.554V38.9424Z" fill="black"/>
<path d="M154.369 38.9424H150.555V42.7555H154.369V38.9424Z" fill="white"/>
<path d="M158.18 38.9424H154.367V42.7555H158.18V38.9424Z" fill="white"/>
<path d="M97.2377 42.7549H93.4246V46.568H97.2377V42.7549Z" fill="white"/>
<path d="M101.05 42.7549H97.2368V46.568H101.05V42.7549Z" fill="black"/>
<path d="M104.864 42.7549H101.051V46.568H104.864V42.7549Z" fill="black"/>
<path d="M108.676 42.7549H104.863V46.568H108.676V42.7549Z" fill="#BB891A"/>
<path d="M112.468 42.7549H108.655V46.568H112.468V42.7549Z" fill="#F0C915"/>
<path d="M116.281 42.7549H112.468V46.568H116.281V42.7549Z" fill="#F0C915"/>
<path d="M120.095 42.7549H116.281V46.568H120.095V42.7549Z" fill="#F0C915"/>
<path d="M123.907 42.7549H120.094V46.568H123.907V42.7549Z" fill="#F0C915"/>
<path d="M127.721 42.7549H123.908V46.568H127.721V42.7549Z" fill="#F0C915"/>
<path d="M131.511 42.7549H127.698V46.568H131.511V42.7549Z" fill="#F0C915"/>
<path d="M135.326 42.7549H131.512V46.568H135.326V42.7549Z" fill="#F0C915"/>
<path d="M139.138 42.7549H135.324V46.568H139.138V42.7549Z" fill="#F0C915"/>
<path d="M142.952 42.7549H139.139V46.568H142.952V42.7549Z" fill="black"/>
<path d="M146.764 42.7549H142.95V46.568H146.764V42.7549Z" fill="black"/>
<path d="M150.554 42.7549H146.741V46.568H150.554V42.7549Z" fill="white"/>
<path d="M104.864 46.5693H101.051V50.3825H104.864V46.5693Z" fill="white"/>
<path d="M108.676 46.5693H104.863V50.3825H108.676V46.5693Z" fill="black"/>
<path d="M112.468 46.5693H108.655V50.3825H112.468V46.5693Z" fill="#D2991E"/>
<path d="M116.281 46.5693H112.468V50.3825H116.281V46.5693Z" fill="#F0C915"/>
<path d="M120.095 46.5693H116.281V50.3825H120.095V46.5693Z" fill="#F0C915"/>
<path d="M123.907 46.5693H120.094V50.3825H123.907V46.5693Z" fill="#F0C915"/>
<path d="M127.721 46.5693H123.908V50.3825H127.721V46.5693Z" fill="#F0C915"/>
<path d="M131.511 46.5693H127.698V50.3825H131.511V46.5693Z" fill="#F0C915"/>
<path d="M135.326 46.5693H131.512V50.3825H135.326V46.5693Z" fill="#F0C915"/>
<path d="M139.138 46.5693H135.324V50.3825H139.138V46.5693Z" fill="black"/>
<path d="M142.952 46.5693H139.139V50.3825H142.952V46.5693Z" fill="white"/>
<path d="M101.05 50.3599H97.2368V54.173H101.05V50.3599Z" fill="white"/>
<path d="M104.864 50.3599H101.051V54.173H104.864V50.3599Z" fill="black"/>
<path d="M108.676 50.3599H104.863V54.173H108.676V50.3599Z" fill="#BB891A"/>
<path d="M112.468 50.3599H108.655V54.173H112.468V50.3599Z" fill="#EEB81D"/>
<path d="M116.281 50.3599H112.468V54.173H116.281V50.3599Z" fill="#F0C915"/>
<path d="M120.095 50.3599H116.281V54.173H120.095V50.3599Z" fill="#F0C915"/>
<path d="M123.907 50.3599H120.094V54.173H123.907V50.3599Z" fill="#F0C915"/>
<path d="M127.721 50.3599H123.908V54.173H127.721V50.3599Z" fill="#F0C915"/>
<path d="M131.511 50.3599H127.698V54.173H131.511V50.3599Z" fill="#F0C915"/>
<path d="M135.326 50.3599H131.512V54.173H135.326V50.3599Z" fill="#F0C915"/>
<path d="M139.138 50.3599H135.324V54.173H139.138V50.3599Z" fill="#F0C915"/>
<path d="M142.952 50.3599H139.139V54.173H142.952V50.3599Z" fill="black"/>
<path d="M146.764 50.3599H142.95V54.173H146.764V50.3599Z" fill="white"/>
<path d="M101.05 54.1729H97.2368V57.986H101.05V54.1729Z" fill="white"/>
<path d="M104.864 54.1729H101.051V57.986H104.864V54.1729Z" fill="black"/>
<path d="M108.676 54.1729H104.863V57.986H108.676V54.1729Z" fill="#BB891A"/>
<path d="M112.468 54.1729H108.655V57.986H112.468V54.1729Z" fill="#F0C915"/>
<path d="M116.281 54.1729H112.468V57.986H116.281V54.1729Z" fill="#F0C915"/>
<path d="M120.095 54.1729H116.281V57.986H120.095V54.1729Z" fill="#F0C915"/>
<path d="M123.907 54.1729H120.094V57.986H123.907V54.1729Z" fill="#F0C915"/>
<path d="M127.721 54.1729H123.908V57.986H127.721V54.1729Z" fill="#F0C915"/>
<path d="M131.511 54.1729H127.698V57.986H131.511V54.1729Z" fill="#F0C915"/>
<path d="M135.326 54.1729H131.512V57.986H135.326V54.1729Z" fill="#F0C915"/>
<path d="M139.138 54.1729H135.324V57.986H139.138V54.1729Z" fill="#F0C915"/>
<path d="M142.952 54.1729H139.139V57.986H142.952V54.1729Z" fill="black"/>
<path d="M146.764 54.1729H142.95V57.986H146.764V54.1729Z" fill="white"/>
<path d="M101.05 57.9858H97.2368V61.799H101.05V57.9858Z" fill="white"/>
<path d="M104.864 57.9858H101.051V61.799H104.864V57.9858Z" fill="black"/>
<path d="M108.676 57.9858H104.863V61.799H108.676V57.9858Z" fill="#BB891A"/>
<path d="M112.468 57.9858H108.655V61.799H112.468V57.9858Z" fill="#F0C915"/>
<path d="M116.281 57.9858H112.468V61.799H116.281V57.9858Z" fill="#F0C915"/>
<path d="M120.095 57.9858H116.281V61.799H120.095V57.9858Z" fill="#EEB81D"/>
<path d="M123.907 57.9858H120.094V61.799H123.907V57.9858Z" fill="#EEB81D"/>
<path d="M127.721 57.9858H123.908V61.799H127.721V57.9858Z" fill="#EEB81D"/>
<path d="M131.511 57.9858H127.698V61.799H131.511V57.9858Z" fill="#F0C915"/>
<path d="M135.326 57.9858H131.512V61.799H135.326V57.9858Z" fill="#F0C915"/>
<path d="M139.138 57.9858H135.324V61.799H139.138V57.9858Z" fill="#F0C915"/>
<path d="M142.952 57.9858H139.139V61.799H142.952V57.9858Z" fill="black"/>
<path d="M146.764 57.9858H142.95V61.799H146.764V57.9858Z" fill="white"/>
<path d="M97.2377 61.7998H93.4246V65.6129H97.2377V61.7998Z" fill="white"/>
<path d="M101.05 61.7998H97.2368V65.6129H101.05V61.7998Z" fill="black"/>
<path d="M104.864 61.7998H101.051V65.6129H104.864V61.7998Z" fill="#BB891A"/>
<path d="M108.676 61.7998H104.863V65.6129H108.676V61.7998Z" fill="#EEB81D"/>
<path d="M112.468 61.7998H108.655V65.6129H112.468V61.7998Z" fill="#F0C915"/>
<path d="M116.281 61.7998H112.468V65.6129H116.281V61.7998Z" fill="#EEB81D"/>
<path d="M120.095 61.7998H116.281V65.6129H120.095V61.7998Z" fill="#BB891A"/>
<path d="M123.907 61.7998H120.094V65.6129H123.907V61.7998Z" fill="black"/>
<path d="M127.721 61.7998H123.908V65.6129H127.721V61.7998Z" fill="#D2991E"/>
<path d="M131.511 61.7998H127.698V65.6129H131.511V61.7998Z" fill="#EEB81D"/>
<path d="M135.326 61.7998H131.512V65.6129H135.326V61.7998Z" fill="#F0C915"/>
<path d="M139.138 61.7998H135.324V65.6129H139.138V61.7998Z" fill="#F0C915"/>
<path d="M142.952 61.7998H139.139V65.6129H142.952V61.7998Z" fill="#F0C915"/>
<path d="M146.764 61.7998H142.95V65.6129H146.764V61.7998Z" fill="black"/>
<path d="M150.554 61.7998H146.741V65.6129H150.554V61.7998Z" fill="white"/>
<path d="M97.2377 65.6123H93.4246V69.4254H97.2377V65.6123Z" fill="white"/>
<path d="M101.05 65.6123H97.2368V69.4254H101.05V65.6123Z" fill="black"/>
<path d="M104.864 65.6123H101.051V69.4254H104.864V65.6123Z" fill="#BB891A"/>
<path d="M108.676 65.6123H104.863V69.4254H108.676V65.6123Z" fill="#EEB81D"/>
<path d="M112.468 65.6123H108.655V69.4254H112.468V65.6123Z" fill="#EEB81D"/>
<path d="M116.281 65.6123H112.468V69.4254H116.281V65.6123Z" fill="#BB891A"/>
<path d="M120.095 65.6123H116.281V69.4254H120.095V65.6123Z" fill="black"/>
<path d="M123.907 65.6123H120.094V69.4254H123.907V65.6123Z" fill="white"/>
<path d="M127.721 65.6123H123.908V69.4254H127.721V65.6123Z" fill="black"/>
<path d="M131.511 65.6123H127.698V69.4254H131.511V65.6123Z" fill="#D2991E"/>
<path d="M135.326 65.6123H131.512V69.4254H135.326V65.6123Z" fill="#EEB81D"/>
<path d="M139.138 65.6123H135.324V69.4254H139.138V65.6123Z" fill="#EEB81D"/>
<path d="M142.952 65.6123H139.139V69.4254H142.952V65.6123Z" fill="#F0C915"/>
<path d="M146.764 65.6123H142.95V69.4254H146.764V65.6123Z" fill="black"/>
<path d="M150.554 65.6123H146.741V69.4254H150.554V65.6123Z" fill="white"/>
<path d="M93.4237 69.4038H89.6106V73.2169H93.4237V69.4038Z" fill="white"/>
<path d="M97.2377 69.4038H93.4246V73.2169H97.2377V69.4038Z" fill="black"/>
<path d="M101.05 69.4038H97.2368V73.2169H101.05V69.4038Z" fill="#BB891A"/>
<path d="M104.864 69.4038H101.051V73.2169H104.864V69.4038Z" fill="#D2991E"/>
<path d="M108.676 69.4038H104.863V73.2169H108.676V69.4038Z" fill="#D2991E"/>
<path d="M112.468 69.4038H108.655V73.2169H112.468V69.4038Z" fill="black"/>
<path d="M116.281 69.4038H112.468V73.2169H116.281V69.4038Z" fill="black"/>
<path d="M120.095 69.4038H116.281V73.2169H120.095V69.4038Z" fill="white"/>
<path d="M127.721 69.4038H123.908V73.2169H127.721V69.4038Z" fill="white"/>
<path d="M131.511 69.4038H127.698V73.2169H131.511V69.4038Z" fill="black"/>
<path d="M135.326 69.4038H131.512V73.2169H135.326V69.4038Z" fill="black"/>
<path d="M139.138 69.4038H135.324V73.2169H139.138V69.4038Z" fill="#D2991E"/>
<path d="M142.952 69.4038H139.139V73.2169H142.952V69.4038Z" fill="#EEB81D"/>
<path d="M146.764 69.4038H142.95V73.2169H146.764V69.4038Z" fill="#F0C915"/>
<path d="M150.554 69.4038H146.741V73.2169H150.554V69.4038Z" fill="black"/>
<path d="M154.369 69.4038H150.555V73.2169H154.369V69.4038Z" fill="white"/>
<path d="M97.2377 73.2168H93.4246V77.0299H97.2377V73.2168Z" fill="white"/>
<path d="M101.05 73.2168H97.2368V77.0299H101.05V73.2168Z" fill="black"/>
<path d="M104.864 73.2168H101.051V77.0299H104.864V73.2168Z" fill="black"/>
<path d="M108.676 73.2168H104.863V77.0299H108.676V73.2168Z" fill="black"/>
<path d="M112.468 73.2168H108.655V77.0299H112.468V73.2168Z" fill="white"/>
<path d="M116.281 73.2168H112.468V77.0299H116.281V73.2168Z" fill="white"/>
<path d="M131.511 73.2168H127.698V77.0299H131.511V73.2168Z" fill="white"/>
<path d="M135.326 73.2168H131.512V77.0299H135.326V73.2168Z" fill="white"/>
<path d="M139.138 73.2168H135.324V77.0299H139.138V73.2168Z" fill="black"/>
<path d="M142.952 73.2168H139.139V77.0299H142.952V73.2168Z" fill="black"/>
<path d="M146.764 73.2168H142.95V77.0299H146.764V73.2168Z" fill="black"/>
<path d="M150.554 73.2168H146.741V77.0299H150.554V73.2168Z" fill="white"/>
<path d="M101.05 77.0303H97.2368V80.8434H101.05V77.0303Z" fill="white"/>
<path d="M104.864 77.0303H101.051V80.8434H104.864V77.0303Z" fill="white"/>
<path d="M108.676 77.0303H104.863V80.8434H108.676V77.0303Z" fill="white"/>
<path d="M139.138 77.0303H135.324V80.8434H139.138V77.0303Z" fill="white"/>
<path d="M142.952 77.0303H139.139V80.8434H142.952V77.0303Z" fill="white"/>
<path d="M146.764 77.0303H142.95V80.8434H146.764V77.0303Z" fill="white"/>
<path d="M33.0292 23.7119H30.3057V26.4354H33.0292V23.7119Z" fill="white"/>
<path d="M30.3065 26.4355H27.583V29.1591H30.3065V26.4355Z" fill="white"/>
<path d="M33.0292 26.4355H30.3057V29.1591H33.0292V26.4355Z" fill="black"/>
<path d="M35.7535 26.4355H33.03V29.1591H35.7535V26.4355Z" fill="white"/>
<path d="M27.5821 29.1592H24.8586V31.8827H27.5821V29.1592Z" fill="white"/>
<path d="M30.3065 29.1592H27.583V31.8827H30.3065V29.1592Z" fill="black"/>
<path d="M33.0292 29.1592H30.3057V31.8827H33.0292V29.1592Z" fill="#EEB81D"/>
<path d="M35.7535 29.1592H33.03V31.8827H35.7535V29.1592Z" fill="black"/>
<path d="M38.4611 29.1592H35.7375V31.8827H38.4611V29.1592Z" fill="white"/>
<path d="M24.8592 31.8672H22.1357V34.5907H24.8592V31.8672Z" fill="white"/>
<path d="M27.5821 31.8672H24.8586V34.5907H27.5821V31.8672Z" fill="black"/>
<path d="M30.3065 31.8672H27.583V34.5907H30.3065V31.8672Z" fill="#EEB81D"/>
<path d="M33.0292 31.8672H30.3057V34.5907H33.0292V31.8672Z" fill="#F0C915"/>
<path d="M35.7535 31.8672H33.03V34.5907H35.7535V31.8672Z" fill="#F0C915"/>
<path d="M38.4611 31.8672H35.7375V34.5907H38.4611V31.8672Z" fill="black"/>
<path d="M41.1849 31.8672H38.4614V34.5907H41.1849V31.8672Z" fill="white"/>
<path d="M24.8592 34.5908H22.1357V37.3143H24.8592V34.5908Z" fill="white"/>
<path d="M27.5821 34.5908H24.8586V37.3143H27.5821V34.5908Z" fill="black"/>
<path d="M30.3065 34.5908H27.583V37.3143H30.3065V34.5908Z" fill="#EEB81D"/>
<path d="M33.0292 34.5908H30.3057V37.3143H33.0292V34.5908Z" fill="#F0C915"/>
<path d="M35.7535 34.5908H33.03V37.3143H35.7535V34.5908Z" fill="#F0C915"/>
<path d="M38.4611 34.5908H35.7375V37.3143H38.4611V34.5908Z" fill="black"/>
<path d="M41.1849 34.5908H38.4614V37.3143H41.1849V34.5908Z" fill="white"/>
<path d="M22.1503 37.314H19.4268V40.0375H22.1503V37.314Z" fill="white"/>
<path d="M24.8592 37.314H22.1357V40.0375H24.8592V37.314Z" fill="black"/>
<path d="M27.5821 37.314H24.8586V40.0375H27.5821V37.314Z" fill="#EEB81D"/>
<path d="M30.3065 37.314H27.583V40.0375H30.3065V37.314Z" fill="#F0C915"/>
<path d="M33.0292 37.314H30.3057V40.0375H33.0292V37.314Z" fill="#F0C915"/>
<path d="M35.7535 37.314H33.03V40.0375H35.7535V37.314Z" fill="#F0C915"/>
<path d="M38.4611 37.314H35.7375V40.0375H38.4611V37.314Z" fill="#F0C915"/>
<path d="M41.1849 37.314H38.4614V40.0375H41.1849V37.314Z" fill="black"/>
<path d="M43.9076 37.314H41.1841V40.0375H43.9076V37.314Z" fill="white"/>
<path d="M8.54943 40.0376H5.82593V42.7611H8.54943V40.0376Z" fill="white"/>
<path d="M11.257 40.0376H8.53345V42.7611H11.257V40.0376Z" fill="white"/>
<path d="M13.9808 40.0376H11.2573V42.7611H13.9808V40.0376Z" fill="white"/>
<path d="M16.7037 40.0376H13.9802V42.7611H16.7037V40.0376Z" fill="white"/>
<path d="M19.4279 40.0376H16.7043V42.7611H19.4279V40.0376Z" fill="white"/>
<path d="M22.1503 40.0376H19.4268V42.7611H22.1503V40.0376Z" fill="white"/>
<path d="M24.8592 40.0376H22.1357V42.7611H24.8592V40.0376Z" fill="black"/>
<path d="M27.5821 40.0376H24.8586V42.7611H27.5821V40.0376Z" fill="#EEB81D"/>
<path d="M30.3065 40.0376H27.583V42.7611H30.3065V40.0376Z" fill="#F0C915"/>
<path d="M33.0292 40.0376H30.3057V42.7611H33.0292V40.0376Z" fill="#F0C915"/>
<path d="M35.7535 40.0376H33.03V42.7611H35.7535V40.0376Z" fill="white"/>
<path d="M38.4611 40.0376H35.7375V42.7611H38.4611V40.0376Z" fill="#F0C915"/>
<path d="M41.1849 40.0376H38.4614V42.7611H41.1849V40.0376Z" fill="black"/>
<path d="M43.9076 40.0376H41.1841V42.7611H43.9076V40.0376Z" fill="white"/>
<path d="M46.632 40.0376H43.9084V42.7611H46.632V40.0376Z" fill="white"/>
<path d="M49.3544 40.0376H46.6309V42.7611H49.3544V40.0376Z" fill="white"/>
<path d="M52.0619 40.0376H49.3384V42.7611H52.0619V40.0376Z" fill="white"/>
<path d="M54.7862 40.0376H52.0627V42.7611H54.7862V40.0376Z" fill="white"/>
<path d="M57.5089 40.0376H54.7854V42.7611H57.5089V40.0376Z" fill="white"/>
<path d="M5.82653 42.7612H3.10303V45.4847H5.82653V42.7612Z" fill="white"/>
<path d="M8.54943 42.7612H5.82593V45.4847H8.54943V42.7612Z" fill="black"/>
<path d="M11.257 42.7612H8.53345V45.4847H11.257V42.7612Z" fill="black"/>
<path d="M13.9808 42.7612H11.2573V45.4847H13.9808V42.7612Z" fill="black"/>
<path d="M16.7037 42.7612H13.9802V45.4847H16.7037V42.7612Z" fill="black"/>
<path d="M19.4279 42.7612H16.7043V45.4847H19.4279V42.7612Z" fill="black"/>
<path d="M22.1503 42.7612H19.4268V45.4847H22.1503V42.7612Z" fill="black"/>
<path d="M24.8592 42.7612H22.1357V45.4847H24.8592V42.7612Z" fill="#EEB81D"/>
<path d="M27.5821 42.7612H24.8586V45.4847H27.5821V42.7612Z" fill="#F0C915"/>
<path d="M30.3065 42.7612H27.583V45.4847H30.3065V42.7612Z" fill="#F0C915"/>
<path d="M33.0292 42.7612H30.3057V45.4847H33.0292V42.7612Z" fill="#F0C915"/>
<path d="M35.7535 42.7612H33.03V45.4847H35.7535V42.7612Z" fill="white"/>
<path d="M38.4611 42.7612H35.7375V45.4847H38.4611V42.7612Z" fill="#F0C915"/>
<path d="M41.1849 42.7612H38.4614V45.4847H41.1849V42.7612Z" fill="#F0C915"/>
<path d="M43.9076 42.7612H41.1841V45.4847H43.9076V42.7612Z" fill="black"/>
<path d="M46.632 42.7612H43.9084V45.4847H46.632V42.7612Z" fill="black"/>
<path d="M49.3544 42.7612H46.6309V45.4847H49.3544V42.7612Z" fill="black"/>
<path d="M52.0619 42.7612H49.3384V45.4847H52.0619V42.7612Z" fill="black"/>
<path d="M54.7862 42.7612H52.0627V45.4847H54.7862V42.7612Z" fill="black"/>
<path d="M57.5089 42.7612H54.7854V45.4847H57.5089V42.7612Z" fill="black"/>
<path d="M60.2333 42.7612H57.5098V45.4847H60.2333V42.7612Z" fill="white"/>
<path d="M3.10241 45.4683H0.378906V48.1918H3.10241V45.4683Z" fill="white"/>
<path d="M5.82653 45.4683H3.10303V48.1918H5.82653V45.4683Z" fill="black"/>
<path d="M8.54943 45.4683H5.82593V48.1918H8.54943V45.4683Z" fill="#BB891A"/>
<path d="M11.257 45.4683H8.53345V48.1918H11.257V45.4683Z" fill="#D2991E"/>
<path d="M13.9808 45.4683H11.2573V48.1918H13.9808V45.4683Z" fill="#D2991E"/>
<path d="M16.7037 45.4683H13.9802V48.1918H16.7037V45.4683Z" fill="#EEB81D"/>
<path d="M19.4279 45.4683H16.7043V48.1918H19.4279V45.4683Z" fill="#EEB81D"/>
<path d="M22.1503 45.4683H19.4268V48.1918H22.1503V45.4683Z" fill="#EEB81D"/>
<path d="M24.8592 45.4683H22.1357V48.1918H24.8592V45.4683Z" fill="#F0C915"/>
<path d="M27.5821 45.4683H24.8586V48.1918H27.5821V45.4683Z" fill="#F0C915"/>
<path d="M30.3065 45.4683H27.583V48.1918H30.3065V45.4683Z" fill="#F0C915"/>
<path d="M33.0292 45.4683H30.3057V48.1918H33.0292V45.4683Z" fill="#F0C915"/>
<path d="M35.7535 45.4683H33.03V48.1918H35.7535V45.4683Z" fill="#F0C915"/>
<path d="M38.4611 45.4683H35.7375V48.1918H38.4611V45.4683Z" fill="white"/>
<path d="M41.1849 45.4683H38.4614V48.1918H41.1849V45.4683Z" fill="#F0C915"/>
<path d="M43.9076 45.4683H41.1841V48.1918H43.9076V45.4683Z" fill="#F0C915"/>
<path d="M46.632 45.4683H43.9084V48.1918H46.632V45.4683Z" fill="#F0C915"/>
<path d="M49.3544 45.4683H46.6309V48.1918H49.3544V45.4683Z" fill="#F0C915"/>
<path d="M52.0619 45.4683H49.3384V48.1918H52.0619V45.4683Z" fill="#F0C915"/>
<path d="M54.7862 45.4683H52.0627V48.1918H54.7862V45.4683Z" fill="#F0C915"/>
<path d="M57.5089 45.4683H54.7854V48.1918H57.5089V45.4683Z" fill="#F0C915"/>
<path d="M60.2333 45.4683H57.5098V48.1918H60.2333V45.4683Z" fill="black"/>
<path d="M62.9557 45.4683H60.2322V48.1918H62.9557V45.4683Z" fill="white"/>
<path d="M5.82653 48.1919H3.10303V50.9154H5.82653V48.1919Z" fill="white"/>
<path d="M8.54943 48.1919H5.82593V50.9154H8.54943V48.1919Z" fill="black"/>
<path d="M11.257 48.1919H8.53345V50.9154H11.257V48.1919Z" fill="black"/>
<path d="M13.9808 48.1919H11.2573V50.9154H13.9808V48.1919Z" fill="#BB891A"/>
<path d="M16.7037 48.1919H13.9802V50.9154H16.7037V48.1919Z" fill="#F0C915"/>
<path d="M19.4279 48.1919H16.7043V50.9154H19.4279V48.1919Z" fill="#F0C915"/>
<path d="M22.1503 48.1919H19.4268V50.9154H22.1503V48.1919Z" fill="#F0C915"/>
<path d="M24.8592 48.1919H22.1357V50.9154H24.8592V48.1919Z" fill="#F0C915"/>
<path d="M27.5821 48.1919H24.8586V50.9154H27.5821V48.1919Z" fill="#F0C915"/>
<path d="M30.3065 48.1919H27.583V50.9154H30.3065V48.1919Z" fill="#F0C915"/>
<path d="M33.0292 48.1919H30.3057V50.9154H33.0292V48.1919Z" fill="#F0C915"/>
<path d="M35.7535 48.1919H33.03V50.9154H35.7535V48.1919Z" fill="#F0C915"/>
<path d="M38.4611 48.1919H35.7375V50.9154H38.4611V48.1919Z" fill="#F0C915"/>
<path d="M41.1849 48.1919H38.4614V50.9154H41.1849V48.1919Z" fill="white"/>
<path d="M43.9076 48.1919H41.1841V50.9154H43.9076V48.1919Z" fill="#F0C915"/>
<path d="M46.632 48.1919H43.9084V50.9154H46.632V48.1919Z" fill="#F0C915"/>
<path d="M49.3544 48.1919H46.6309V50.9154H49.3544V48.1919Z" fill="#F0C915"/>
<path d="M52.0619 48.1919H49.3384V50.9154H52.0619V48.1919Z" fill="#F0C915"/>
<path d="M54.7862 48.1919H52.0627V50.9154H54.7862V48.1919Z" fill="black"/>
<path d="M57.5089 48.1919H54.7854V50.9154H57.5089V48.1919Z" fill="black"/>
<path d="M60.2333 48.1919H57.5098V50.9154H60.2333V48.1919Z" fill="white"/>
<path d="M8.54943 50.9155H5.82593V53.639H8.54943V50.9155Z" fill="white"/>
<path d="M11.257 50.9155H8.53345V53.639H11.257V50.9155Z" fill="white"/>
<path d="M13.9808 50.9155H11.2573V53.639H13.9808V50.9155Z" fill="black"/>
<path d="M16.7037 50.9155H13.9802V53.639H16.7037V50.9155Z" fill="#BB891A"/>
<path d="M19.4279 50.9155H16.7043V53.639H19.4279V50.9155Z" fill="#BB891A"/>
<path d="M22.1503 50.9155H19.4268V53.639H22.1503V50.9155Z" fill="#F0C915"/>
<path d="M24.8592 50.9155H22.1357V53.639H24.8592V50.9155Z" fill="#F0C915"/>
<path d="M27.5821 50.9155H24.8586V53.639H27.5821V50.9155Z" fill="#F0C915"/>
<path d="M30.3065 50.9155H27.583V53.639H30.3065V50.9155Z" fill="#F0C915"/>
<path d="M33.0292 50.9155H30.3057V53.639H33.0292V50.9155Z" fill="#F0C915"/>
<path d="M35.7535 50.9155H33.03V53.639H35.7535V50.9155Z" fill="#F0C915"/>
<path d="M38.4611 50.9155H35.7375V53.639H38.4611V50.9155Z" fill="#F0C915"/>
<path d="M41.1849 50.9155H38.4614V53.639H41.1849V50.9155Z" fill="#F0C915"/>
<path d="M43.9076 50.9155H41.1841V53.639H43.9076V50.9155Z" fill="#F0C915"/>
<path d="M46.632 50.9155H43.9084V53.639H46.632V50.9155Z" fill="#F0C915"/>
<path d="M49.3544 50.9155H46.6309V53.639H49.3544V50.9155Z" fill="#F0C915"/>
<path d="M52.0619 50.9155H49.3384V53.639H52.0619V50.9155Z" fill="black"/>
<path d="M54.7862 50.9155H52.0627V53.639H54.7862V50.9155Z" fill="white"/>
<path d="M57.5089 50.9155H54.7854V53.639H57.5089V50.9155Z" fill="white"/>
<path d="M13.9808 53.6392H11.2573V56.3627H13.9808V53.6392Z" fill="white"/>
<path d="M16.7037 53.6392H13.9802V56.3627H16.7037V53.6392Z" fill="black"/>
<path d="M19.4279 53.6392H16.7043V56.3627H19.4279V53.6392Z" fill="black"/>
<path d="M22.1503 53.6392H19.4268V56.3627H22.1503V53.6392Z" fill="#BB891A"/>
<path d="M24.8592 53.6392H22.1357V56.3627H24.8592V53.6392Z" fill="#F0C915"/>
<path d="M27.5821 53.6392H24.8586V56.3627H27.5821V53.6392Z" fill="#F0C915"/>
<path d="M30.3065 53.6392H27.583V56.3627H30.3065V53.6392Z" fill="#F0C915"/>
<path d="M33.0292 53.6392H30.3057V56.3627H33.0292V53.6392Z" fill="#F0C915"/>
<path d="M35.7535 53.6392H33.03V56.3627H35.7535V53.6392Z" fill="#F0C915"/>
<path d="M38.4611 53.6392H35.7375V56.3627H38.4611V53.6392Z" fill="#F0C915"/>
<path d="M41.1849 53.6392H38.4614V56.3627H41.1849V53.6392Z" fill="#F0C915"/>
<path d="M43.9076 53.6392H41.1841V56.3627H43.9076V53.6392Z" fill="#F0C915"/>
<path d="M46.632 53.6392H43.9084V56.3627H46.632V53.6392Z" fill="black"/>
<path d="M49.3544 53.6392H46.6309V56.3627H49.3544V53.6392Z" fill="black"/>
<path d="M52.0619 53.6392H49.3384V56.3627H52.0619V53.6392Z" fill="white"/>
<path d="M19.4279 56.3628H16.7043V59.0863H19.4279V56.3628Z" fill="white"/>
<path d="M22.1503 56.3628H19.4268V59.0863H22.1503V56.3628Z" fill="black"/>
<path d="M24.8592 56.3628H22.1357V59.0863H24.8592V56.3628Z" fill="#D2991E"/>
<path d="M27.5821 56.3628H24.8586V59.0863H27.5821V56.3628Z" fill="#F0C915"/>
<path d="M30.3065 56.3628H27.583V59.0863H30.3065V56.3628Z" fill="#F0C915"/>
<path d="M33.0292 56.3628H30.3057V59.0863H33.0292V56.3628Z" fill="#F0C915"/>
<path d="M35.7535 56.3628H33.03V59.0863H35.7535V56.3628Z" fill="#F0C915"/>
<path d="M38.4611 56.3628H35.7375V59.0863H38.4611V56.3628Z" fill="#F0C915"/>
<path d="M41.1849 56.3628H38.4614V59.0863H41.1849V56.3628Z" fill="#F0C915"/>
<path d="M43.9076 56.3628H41.1841V59.0863H43.9076V56.3628Z" fill="black"/>
<path d="M46.632 56.3628H43.9084V59.0863H46.632V56.3628Z" fill="white"/>
<path d="M16.7037 59.0708H13.9802V61.7943H16.7037V59.0708Z" fill="white"/>
<path d="M19.4279 59.0708H16.7043V61.7943H19.4279V59.0708Z" fill="black"/>
<path d="M22.1503 59.0708H19.4268V61.7943H22.1503V59.0708Z" fill="#BB891A"/>
<path d="M24.8592 59.0708H22.1357V61.7943H24.8592V59.0708Z" fill="#EEB81D"/>
<path d="M27.5821 59.0708H24.8586V61.7943H27.5821V59.0708Z" fill="#F0C915"/>
<path d="M30.3065 59.0708H27.583V61.7943H30.3065V59.0708Z" fill="#F0C915"/>
<path d="M33.0292 59.0708H30.3057V61.7943H33.0292V59.0708Z" fill="#F0C915"/>
<path d="M35.7535 59.0708H33.03V61.7943H35.7535V59.0708Z" fill="#F0C915"/>
<path d="M38.4611 59.0708H35.7375V61.7943H38.4611V59.0708Z" fill="#F0C915"/>
<path d="M41.1849 59.0708H38.4614V61.7943H41.1849V59.0708Z" fill="#F0C915"/>
<path d="M43.9076 59.0708H41.1841V61.7943H43.9076V59.0708Z" fill="#F0C915"/>
<path d="M46.632 59.0708H43.9084V61.7943H46.632V59.0708Z" fill="black"/>
<path d="M49.3544 59.0708H46.6309V61.7943H49.3544V59.0708Z" fill="white"/>
<path d="M16.7037 61.7935H13.9802V64.517H16.7037V61.7935Z" fill="white"/>
<path d="M19.4279 61.7935H16.7043V64.517H19.4279V61.7935Z" fill="black"/>
<path d="M22.1503 61.7935H19.4268V64.517H22.1503V61.7935Z" fill="#BB891A"/>
<path d="M24.8592 61.7935H22.1357V64.517H24.8592V61.7935Z" fill="#F0C915"/>
<path d="M27.5821 61.7935H24.8586V64.517H27.5821V61.7935Z" fill="#F0C915"/>
<path d="M30.3065 61.7935H27.583V64.517H30.3065V61.7935Z" fill="#F0C915"/>
<path d="M33.0292 61.7935H30.3057V64.517H33.0292V61.7935Z" fill="#F0C915"/>
<path d="M35.7535 61.7935H33.03V64.517H35.7535V61.7935Z" fill="#F0C915"/>
<path d="M38.4611 61.7935H35.7375V64.517H38.4611V61.7935Z" fill="#F0C915"/>
<path d="M41.1849 61.7935H38.4614V64.517H41.1849V61.7935Z" fill="#F0C915"/>
<path d="M43.9076 61.7935H41.1841V64.517H43.9076V61.7935Z" fill="#F0C915"/>
<path d="M46.632 61.7935H43.9084V64.517H46.632V61.7935Z" fill="black"/>
<path d="M49.3544 61.7935H46.6309V64.517H49.3544V61.7935Z" fill="white"/>
<path d="M16.7037 64.5171H13.9802V67.2406H16.7037V64.5171Z" fill="white"/>
<path d="M19.4279 64.5171H16.7043V67.2406H19.4279V64.5171Z" fill="black"/>
<path d="M22.1503 64.5171H19.4268V67.2406H22.1503V64.5171Z" fill="#BB891A"/>
<path d="M24.8592 64.5171H22.1357V67.2406H24.8592V64.5171Z" fill="#F0C915"/>
<path d="M27.5821 64.5171H24.8586V67.2406H27.5821V64.5171Z" fill="#F0C915"/>
<path d="M30.3065 64.5171H27.583V67.2406H30.3065V64.5171Z" fill="#EEB81D"/>
<path d="M33.0292 64.5171H30.3057V67.2406H33.0292V64.5171Z" fill="#EEB81D"/>
<path d="M35.7535 64.5171H33.03V67.2406H35.7535V64.5171Z" fill="#EEB81D"/>
<path d="M38.4611 64.5171H35.7375V67.2406H38.4611V64.5171Z" fill="#F0C915"/>
<path d="M41.1849 64.5171H38.4614V67.2406H41.1849V64.5171Z" fill="#F0C915"/>
<path d="M43.9076 64.5171H41.1841V67.2406H43.9076V64.5171Z" fill="#F0C915"/>
<path d="M46.632 64.5171H43.9084V67.2406H46.632V64.5171Z" fill="black"/>
<path d="M49.3544 64.5171H46.6309V67.2406H49.3544V64.5171Z" fill="white"/>
<path d="M13.9808 67.2407H11.2573V69.9642H13.9808V67.2407Z" fill="white"/>
<path d="M16.7037 67.2407H13.9802V69.9642H16.7037V67.2407Z" fill="black"/>
<path d="M19.4279 67.2407H16.7043V69.9642H19.4279V67.2407Z" fill="#BB891A"/>
<path d="M22.1503 67.2407H19.4268V69.9642H22.1503V67.2407Z" fill="#EEB81D"/>
<path d="M24.8592 67.2407H22.1357V69.9642H24.8592V67.2407Z" fill="#F0C915"/>
<path d="M27.5821 67.2407H24.8586V69.9642H27.5821V67.2407Z" fill="#EEB81D"/>
<path d="M30.3065 67.2407H27.583V69.9642H30.3065V67.2407Z" fill="#BB891A"/>
<path d="M33.0292 67.2407H30.3057V69.9642H33.0292V67.2407Z" fill="black"/>
<path d="M35.7535 67.2407H33.03V69.9642H35.7535V67.2407Z" fill="#D2991E"/>
<path d="M38.4611 67.2407H35.7375V69.9642H38.4611V67.2407Z" fill="#EEB81D"/>
<path d="M41.1849 67.2407H38.4614V69.9642H41.1849V67.2407Z" fill="#F0C915"/>
<path d="M43.9076 67.2407H41.1841V69.9642H43.9076V67.2407Z" fill="#F0C915"/>
<path d="M46.632 67.2407H43.9084V69.9642H46.632V67.2407Z" fill="#F0C915"/>
<path d="M49.3544 67.2407H46.6309V69.9642H49.3544V67.2407Z" fill="black"/>
<path d="M52.0619 67.2407H49.3384V69.9642H52.0619V67.2407Z" fill="white"/>
<path d="M13.9808 69.9644H11.2573V72.6879H13.9808V69.9644Z" fill="white"/>
<path d="M16.7037 69.9644H13.9802V72.6879H16.7037V69.9644Z" fill="black"/>
<path d="M19.4279 69.9644H16.7043V72.6879H19.4279V69.9644Z" fill="#BB891A"/>
<path d="M22.1503 69.9644H19.4268V72.6879H22.1503V69.9644Z" fill="#EEB81D"/>
<path d="M24.8592 69.9644H22.1357V72.6879H24.8592V69.9644Z" fill="#EEB81D"/>
<path d="M27.5821 69.9644H24.8586V72.6879H27.5821V69.9644Z" fill="#BB891A"/>
<path d="M30.3065 69.9644H27.583V72.6879H30.3065V69.9644Z" fill="black"/>
<path d="M33.0292 69.9644H30.3057V72.6879H33.0292V69.9644Z" fill="white"/>
<path d="M35.7535 69.9644H33.03V72.6879H35.7535V69.9644Z" fill="black"/>
<path d="M38.4611 69.9644H35.7375V72.6879H38.4611V69.9644Z" fill="#D2991E"/>
<path d="M41.1849 69.9644H38.4614V72.6879H41.1849V69.9644Z" fill="#EEB81D"/>
<path d="M43.9076 69.9644H41.1841V72.6879H43.9076V69.9644Z" fill="#EEB81D"/>
<path d="M46.632 69.9644H43.9084V72.6879H46.632V69.9644Z" fill="#F0C915"/>
<path d="M49.3544 69.9644H46.6309V72.6879H49.3544V69.9644Z" fill="black"/>
<path d="M52.0619 69.9644H49.3384V72.6879H52.0619V69.9644Z" fill="white"/>
<path d="M11.257 72.6724H8.53345V75.3959H11.257V72.6724Z" fill="white"/>
<path d="M13.9808 72.6724H11.2573V75.3959H13.9808V72.6724Z" fill="black"/>
<path d="M16.7037 72.6724H13.9802V75.3959H16.7037V72.6724Z" fill="#BB891A"/>
<path d="M19.4279 72.6724H16.7043V75.3959H19.4279V72.6724Z" fill="#D2991E"/>
<path d="M22.1503 72.6724H19.4268V75.3959H22.1503V72.6724Z" fill="#D2991E"/>
<path d="M24.8592 72.6724H22.1357V75.3959H24.8592V72.6724Z" fill="black"/>
<path d="M27.5821 72.6724H24.8586V75.3959H27.5821V72.6724Z" fill="black"/>
<path d="M30.3065 72.6724H27.583V75.3959H30.3065V72.6724Z" fill="white"/>
<path d="M35.7535 72.6724H33.03V75.3959H35.7535V72.6724Z" fill="white"/>
<path d="M38.4611 72.6724H35.7375V75.3959H38.4611V72.6724Z" fill="black"/>
<path d="M41.1849 72.6724H38.4614V75.3959H41.1849V72.6724Z" fill="black"/>
<path d="M43.9076 72.6724H41.1841V75.3959H43.9076V72.6724Z" fill="#D2991E"/>
<path d="M46.632 72.6724H43.9084V75.3959H46.632V72.6724Z" fill="#EEB81D"/>
<path d="M49.3544 72.6724H46.6309V75.3959H49.3544V72.6724Z" fill="#F0C915"/>
<path d="M52.0619 72.6724H49.3384V75.3959H52.0619V72.6724Z" fill="black"/>
<path d="M54.7862 72.6724H52.0627V75.3959H54.7862V72.6724Z" fill="white"/>
<path d="M13.9808 75.396H11.2573V78.1195H13.9808V75.396Z" fill="white"/>
<path d="M16.7037 75.396H13.9802V78.1195H16.7037V75.396Z" fill="black"/>
<path d="M19.4279 75.396H16.7043V78.1195H19.4279V75.396Z" fill="black"/>
<path d="M22.1503 75.396H19.4268V78.1195H22.1503V75.396Z" fill="black"/>
<path d="M24.8592 75.396H22.1357V78.1195H24.8592V75.396Z" fill="white"/>
<path d="M27.5821 75.396H24.8586V78.1195H27.5821V75.396Z" fill="white"/>
<path d="M38.4611 75.396H35.7375V78.1195H38.4611V75.396Z" fill="white"/>
<path d="M41.1849 75.396H38.4614V78.1195H41.1849V75.396Z" fill="white"/>
<path d="M43.9076 75.396H41.1841V78.1195H43.9076V75.396Z" fill="black"/>
<path d="M46.632 75.396H43.9084V78.1195H46.632V75.396Z" fill="black"/>
<path d="M49.3544 75.396H46.6309V78.1195H49.3544V75.396Z" fill="black"/>
<path d="M52.0619 75.396H49.3384V78.1195H52.0619V75.396Z" fill="white"/>
<path d="M16.7037 78.1196H13.9802V80.8431H16.7037V78.1196Z" fill="white"/>
<path d="M19.4279 78.1196H16.7043V80.8431H19.4279V78.1196Z" fill="white"/>
<path d="M22.1503 78.1196H19.4268V80.8431H22.1503V78.1196Z" fill="white"/>
<path d="M43.9076 78.1196H41.1841V80.8431H43.9076V78.1196Z" fill="white"/>
<path d="M46.632 78.1196H43.9084V80.8431H46.632V78.1196Z" fill="white"/>
<path d="M49.3544 78.1196H46.6309V80.8431H49.3544V78.1196Z" fill="white"/>
<path d="M213.695 23.7119H210.971V26.4354H213.695V23.7119Z" fill="white"/>
<path d="M210.972 26.4355H208.249V29.1591H210.972V26.4355Z" fill="white"/>
<path d="M213.695 26.4355H210.971V29.1591H213.695V26.4355Z" fill="black"/>
<path d="M216.419 26.4355H213.696V29.1591H216.419V26.4355Z" fill="white"/>
<path d="M208.248 29.1592H205.524V31.8827H208.248V29.1592Z" fill="white"/>
<path d="M210.972 29.1592H208.249V31.8827H210.972V29.1592Z" fill="black"/>
<path d="M213.695 29.1592H210.971V31.8827H213.695V29.1592Z" fill="#EEB81D"/>
<path d="M216.419 29.1592H213.696V31.8827H216.419V29.1592Z" fill="black"/>
<path d="M219.127 29.1592H216.403V31.8827H219.127V29.1592Z" fill="white"/>
<path d="M205.525 31.8672H202.802V34.5907H205.525V31.8672Z" fill="white"/>
<path d="M208.248 31.8672H205.524V34.5907H208.248V31.8672Z" fill="black"/>
<path d="M210.972 31.8672H208.249V34.5907H210.972V31.8672Z" fill="#EEB81D"/>
<path d="M213.695 31.8672H210.971V34.5907H213.695V31.8672Z" fill="#F0C915"/>
<path d="M216.419 31.8672H213.696V34.5907H216.419V31.8672Z" fill="#F0C915"/>
<path d="M219.127 31.8672H216.403V34.5907H219.127V31.8672Z" fill="black"/>
<path d="M221.851 31.8672H219.127V34.5907H221.851V31.8672Z" fill="white"/>
<path d="M205.525 34.5908H202.802V37.3143H205.525V34.5908Z" fill="white"/>
<path d="M208.248 34.5908H205.524V37.3143H208.248V34.5908Z" fill="black"/>
<path d="M210.972 34.5908H208.249V37.3143H210.972V34.5908Z" fill="#EEB81D"/>
<path d="M213.695 34.5908H210.971V37.3143H213.695V34.5908Z" fill="#F0C915"/>
<path d="M216.419 34.5908H213.696V37.3143H216.419V34.5908Z" fill="#F0C915"/>
<path d="M219.127 34.5908H216.403V37.3143H219.127V34.5908Z" fill="black"/>
<path d="M221.851 34.5908H219.127V37.3143H221.851V34.5908Z" fill="white"/>
<path d="M202.816 37.314H200.093V40.0375H202.816V37.314Z" fill="white"/>
<path d="M205.525 37.314H202.802V40.0375H205.525V37.314Z" fill="black"/>
<path d="M208.248 37.314H205.524V40.0375H208.248V37.314Z" fill="#EEB81D"/>
<path d="M210.972 37.314H208.249V40.0375H210.972V37.314Z" fill="#F0C915"/>
<path d="M213.695 37.314H210.971V40.0375H213.695V37.314Z" fill="#F0C915"/>
<path d="M216.419 37.314H213.696V40.0375H216.419V37.314Z" fill="#F0C915"/>
<path d="M219.127 37.314H216.403V40.0375H219.127V37.314Z" fill="#F0C915"/>
<path d="M221.851 37.314H219.127V40.0375H221.851V37.314Z" fill="black"/>
<path d="M224.573 37.314H221.85V40.0375H224.573V37.314Z" fill="white"/>
<path d="M189.215 40.0376H186.492V42.7611H189.215V40.0376Z" fill="white"/>
<path d="M191.922 40.0376H189.199V42.7611H191.922V40.0376Z" fill="white"/>
<path d="M194.647 40.0376H191.923V42.7611H194.647V40.0376Z" fill="white"/>
<path d="M197.369 40.0376H194.646V42.7611H197.369V40.0376Z" fill="white"/>
<path d="M200.094 40.0376H197.37V42.7611H200.094V40.0376Z" fill="white"/>
<path d="M202.816 40.0376H200.093V42.7611H202.816V40.0376Z" fill="white"/>
<path d="M205.525 40.0376H202.802V42.7611H205.525V40.0376Z" fill="black"/>
<path d="M208.248 40.0376H205.524V42.7611H208.248V40.0376Z" fill="#EEB81D"/>
<path d="M210.972 40.0376H208.249V42.7611H210.972V40.0376Z" fill="#F0C915"/>
<path d="M213.695 40.0376H210.971V42.7611H213.695V40.0376Z" fill="#F0C915"/>
<path d="M216.419 40.0376H213.696V42.7611H216.419V40.0376Z" fill="white"/>
<path d="M219.127 40.0376H216.403V42.7611H219.127V40.0376Z" fill="#F0C915"/>
<path d="M221.851 40.0376H219.127V42.7611H221.851V40.0376Z" fill="black"/>
<path d="M224.573 40.0376H221.85V42.7611H224.573V40.0376Z" fill="white"/>
<path d="M227.298 40.0376H224.574V42.7611H227.298V40.0376Z" fill="white"/>
<path d="M230.02 40.0376H227.297V42.7611H230.02V40.0376Z" fill="white"/>
<path d="M232.728 40.0376H230.004V42.7611H232.728V40.0376Z" fill="white"/>
<path d="M235.452 40.0376H232.729V42.7611H235.452V40.0376Z" fill="white"/>
<path d="M238.175 40.0376H235.451V42.7611H238.175V40.0376Z" fill="white"/>
<path d="M186.492 42.7612H183.769V45.4847H186.492V42.7612Z" fill="white"/>
<path d="M189.215 42.7612H186.492V45.4847H189.215V42.7612Z" fill="black"/>
<path d="M191.922 42.7612H189.199V45.4847H191.922V42.7612Z" fill="black"/>
<path d="M194.647 42.7612H191.923V45.4847H194.647V42.7612Z" fill="black"/>
<path d="M197.369 42.7612H194.646V45.4847H197.369V42.7612Z" fill="black"/>
<path d="M200.094 42.7612H197.37V45.4847H200.094V42.7612Z" fill="black"/>
<path d="M202.816 42.7612H200.093V45.4847H202.816V42.7612Z" fill="black"/>
<path d="M205.525 42.7612H202.802V45.4847H205.525V42.7612Z" fill="#EEB81D"/>
<path d="M208.248 42.7612H205.524V45.4847H208.248V42.7612Z" fill="#F0C915"/>
<path d="M210.972 42.7612H208.249V45.4847H210.972V42.7612Z" fill="#F0C915"/>
<path d="M213.695 42.7612H210.971V45.4847H213.695V42.7612Z" fill="#F0C915"/>
<path d="M216.419 42.7612H213.696V45.4847H216.419V42.7612Z" fill="white"/>
<path d="M219.127 42.7612H216.403V45.4847H219.127V42.7612Z" fill="#F0C915"/>
<path d="M221.851 42.7612H219.127V45.4847H221.851V42.7612Z" fill="#F0C915"/>
<path d="M224.573 42.7612H221.85V45.4847H224.573V42.7612Z" fill="black"/>
<path d="M227.298 42.7612H224.574V45.4847H227.298V42.7612Z" fill="black"/>
<path d="M230.02 42.7612H227.297V45.4847H230.02V42.7612Z" fill="black"/>
<path d="M232.728 42.7612H230.004V45.4847H232.728V42.7612Z" fill="black"/>
<path d="M235.452 42.7612H232.729V45.4847H235.452V42.7612Z" fill="black"/>
<path d="M238.175 42.7612H235.451V45.4847H238.175V42.7612Z" fill="black"/>
<path d="M240.899 42.7612H238.176V45.4847H240.899V42.7612Z" fill="white"/>
<path d="M183.768 45.4683H181.045V48.1918H183.768V45.4683Z" fill="white"/>
<path d="M186.492 45.4683H183.769V48.1918H186.492V45.4683Z" fill="black"/>
<path d="M189.215 45.4683H186.492V48.1918H189.215V45.4683Z" fill="#BB891A"/>
<path d="M191.922 45.4683H189.199V48.1918H191.922V45.4683Z" fill="#D2991E"/>
<path d="M194.647 45.4683H191.923V48.1918H194.647V45.4683Z" fill="#D2991E"/>
<path d="M197.369 45.4683H194.646V48.1918H197.369V45.4683Z" fill="#EEB81D"/>
<path d="M200.094 45.4683H197.37V48.1918H200.094V45.4683Z" fill="#EEB81D"/>
<path d="M202.816 45.4683H200.093V48.1918H202.816V45.4683Z" fill="#EEB81D"/>
<path d="M205.525 45.4683H202.802V48.1918H205.525V45.4683Z" fill="#F0C915"/>
<path d="M208.248 45.4683H205.524V48.1918H208.248V45.4683Z" fill="#F0C915"/>
<path d="M210.972 45.4683H208.249V48.1918H210.972V45.4683Z" fill="#F0C915"/>
<path d="M213.695 45.4683H210.971V48.1918H213.695V45.4683Z" fill="#F0C915"/>
<path d="M216.419 45.4683H213.696V48.1918H216.419V45.4683Z" fill="#F0C915"/>
<path d="M219.127 45.4683H216.403V48.1918H219.127V45.4683Z" fill="white"/>
<path d="M221.851 45.4683H219.127V48.1918H221.851V45.4683Z" fill="#F0C915"/>
<path d="M224.573 45.4683H221.85V48.1918H224.573V45.4683Z" fill="#F0C915"/>
<path d="M227.298 45.4683H224.574V48.1918H227.298V45.4683Z" fill="#F0C915"/>
<path d="M230.02 45.4683H227.297V48.1918H230.02V45.4683Z" fill="#F0C915"/>
<path d="M232.728 45.4683H230.004V48.1918H232.728V45.4683Z" fill="#F0C915"/>
<path d="M235.452 45.4683H232.729V48.1918H235.452V45.4683Z" fill="#F0C915"/>
<path d="M238.175 45.4683H235.451V48.1918H238.175V45.4683Z" fill="#F0C915"/>
<path d="M240.899 45.4683H238.176V48.1918H240.899V45.4683Z" fill="black"/>
<path d="M243.621 45.4683H240.898V48.1918H243.621V45.4683Z" fill="white"/>
<path d="M186.492 48.1919H183.769V50.9154H186.492V48.1919Z" fill="white"/>
<path d="M189.215 48.1919H186.492V50.9154H189.215V48.1919Z" fill="black"/>
<path d="M191.922 48.1919H189.199V50.9154H191.922V48.1919Z" fill="black"/>
<path d="M194.647 48.1919H191.923V50.9154H194.647V48.1919Z" fill="#BB891A"/>
<path d="M197.369 48.1919H194.646V50.9154H197.369V48.1919Z" fill="#F0C915"/>
<path d="M200.094 48.1919H197.37V50.9154H200.094V48.1919Z" fill="#F0C915"/>
<path d="M202.816 48.1919H200.093V50.9154H202.816V48.1919Z" fill="#F0C915"/>
<path d="M205.525 48.1919H202.802V50.9154H205.525V48.1919Z" fill="#F0C915"/>
<path d="M208.248 48.1919H205.524V50.9154H208.248V48.1919Z" fill="#F0C915"/>
<path d="M210.972 48.1919H208.249V50.9154H210.972V48.1919Z" fill="#F0C915"/>
<path d="M213.695 48.1919H210.971V50.9154H213.695V48.1919Z" fill="#F0C915"/>
<path d="M216.419 48.1919H213.696V50.9154H216.419V48.1919Z" fill="#F0C915"/>
<path d="M219.127 48.1919H216.403V50.9154H219.127V48.1919Z" fill="#F0C915"/>
<path d="M221.851 48.1919H219.127V50.9154H221.851V48.1919Z" fill="white"/>
<path d="M224.573 48.1919H221.85V50.9154H224.573V48.1919Z" fill="#F0C915"/>
<path d="M227.298 48.1919H224.574V50.9154H227.298V48.1919Z" fill="#F0C915"/>
<path d="M230.02 48.1919H227.297V50.9154H230.02V48.1919Z" fill="#F0C915"/>
<path d="M232.728 48.1919H230.004V50.9154H232.728V48.1919Z" fill="#F0C915"/>
<path d="M235.452 48.1919H232.729V50.9154H235.452V48.1919Z" fill="black"/>
<path d="M238.175 48.1919H235.451V50.9154H238.175V48.1919Z" fill="black"/>
<path d="M240.899 48.1919H238.176V50.9154H240.899V48.1919Z" fill="white"/>
<path d="M189.215 50.9155H186.492V53.639H189.215V50.9155Z" fill="white"/>
<path d="M191.922 50.9155H189.199V53.639H191.922V50.9155Z" fill="white"/>
<path d="M194.647 50.9155H191.923V53.639H194.647V50.9155Z" fill="black"/>
<path d="M197.369 50.9155H194.646V53.639H197.369V50.9155Z" fill="#BB891A"/>
<path d="M200.094 50.9155H197.37V53.639H200.094V50.9155Z" fill="#BB891A"/>
<path d="M202.816 50.9155H200.093V53.639H202.816V50.9155Z" fill="#F0C915"/>
<path d="M205.525 50.9155H202.802V53.639H205.525V50.9155Z" fill="#F0C915"/>
<path d="M208.248 50.9155H205.524V53.639H208.248V50.9155Z" fill="#F0C915"/>
<path d="M210.972 50.9155H208.249V53.639H210.972V50.9155Z" fill="#F0C915"/>
<path d="M213.695 50.9155H210.971V53.639H213.695V50.9155Z" fill="#F0C915"/>
<path d="M216.419 50.9155H213.696V53.639H216.419V50.9155Z" fill="#F0C915"/>
<path d="M219.127 50.9155H216.403V53.639H219.127V50.9155Z" fill="#F0C915"/>
<path d="M221.851 50.9155H219.127V53.639H221.851V50.9155Z" fill="#F0C915"/>
<path d="M224.573 50.9155H221.85V53.639H224.573V50.9155Z" fill="#F0C915"/>
<path d="M227.298 50.9155H224.574V53.639H227.298V50.9155Z" fill="#F0C915"/>
<path d="M230.02 50.9155H227.297V53.639H230.02V50.9155Z" fill="#F0C915"/>
<path d="M232.728 50.9155H230.004V53.639H232.728V50.9155Z" fill="black"/>
<path d="M235.452 50.9155H232.729V53.639H235.452V50.9155Z" fill="white"/>
<path d="M238.175 50.9155H235.451V53.639H238.175V50.9155Z" fill="white"/>
<path d="M194.647 53.6392H191.923V56.3627H194.647V53.6392Z" fill="white"/>
<path d="M197.369 53.6392H194.646V56.3627H197.369V53.6392Z" fill="black"/>
<path d="M200.094 53.6392H197.37V56.3627H200.094V53.6392Z" fill="black"/>
<path d="M202.816 53.6392H200.093V56.3627H202.816V53.6392Z" fill="#BB891A"/>
<path d="M205.525 53.6392H202.802V56.3627H205.525V53.6392Z" fill="#F0C915"/>
<path d="M208.248 53.6392H205.524V56.3627H208.248V53.6392Z" fill="#F0C915"/>
<path d="M210.972 53.6392H208.249V56.3627H210.972V53.6392Z" fill="#F0C915"/>
<path d="M213.695 53.6392H210.971V56.3627H213.695V53.6392Z" fill="#F0C915"/>
<path d="M216.419 53.6392H213.696V56.3627H216.419V53.6392Z" fill="#F0C915"/>
<path d="M219.127 53.6392H216.403V56.3627H219.127V53.6392Z" fill="#F0C915"/>
<path d="M221.851 53.6392H219.127V56.3627H221.851V53.6392Z" fill="#F0C915"/>
<path d="M224.573 53.6392H221.85V56.3627H224.573V53.6392Z" fill="#F0C915"/>
<path d="M227.298 53.6392H224.574V56.3627H227.298V53.6392Z" fill="black"/>
<path d="M230.02 53.6392H227.297V56.3627H230.02V53.6392Z" fill="black"/>
<path d="M232.728 53.6392H230.004V56.3627H232.728V53.6392Z" fill="white"/>
<path d="M200.094 56.3628H197.37V59.0863H200.094V56.3628Z" fill="white"/>
<path d="M202.816 56.3628H200.093V59.0863H202.816V56.3628Z" fill="black"/>
<path d="M205.525 56.3628H202.802V59.0863H205.525V56.3628Z" fill="#D2991E"/>
<path d="M208.248 56.3628H205.524V59.0863H208.248V56.3628Z" fill="#F0C915"/>
<path d="M210.972 56.3628H208.249V59.0863H210.972V56.3628Z" fill="#F0C915"/>
<path d="M213.695 56.3628H210.971V59.0863H213.695V56.3628Z" fill="#F0C915"/>
<path d="M216.419 56.3628H213.696V59.0863H216.419V56.3628Z" fill="#F0C915"/>
<path d="M219.127 56.3628H216.403V59.0863H219.127V56.3628Z" fill="#F0C915"/>
<path d="M221.851 56.3628H219.127V59.0863H221.851V56.3628Z" fill="#F0C915"/>
<path d="M224.573 56.3628H221.85V59.0863H224.573V56.3628Z" fill="black"/>
<path d="M227.298 56.3628H224.574V59.0863H227.298V56.3628Z" fill="white"/>
<path d="M197.369 59.0708H194.646V61.7943H197.369V59.0708Z" fill="white"/>
<path d="M200.094 59.0708H197.37V61.7943H200.094V59.0708Z" fill="black"/>
<path d="M202.816 59.0708H200.093V61.7943H202.816V59.0708Z" fill="#BB891A"/>
<path d="M205.525 59.0708H202.802V61.7943H205.525V59.0708Z" fill="#EEB81D"/>
<path d="M208.248 59.0708H205.524V61.7943H208.248V59.0708Z" fill="#F0C915"/>
<path d="M210.972 59.0708H208.249V61.7943H210.972V59.0708Z" fill="#F0C915"/>
<path d="M213.695 59.0708H210.971V61.7943H213.695V59.0708Z" fill="#F0C915"/>
<path d="M216.419 59.0708H213.696V61.7943H216.419V59.0708Z" fill="#F0C915"/>
<path d="M219.127 59.0708H216.403V61.7943H219.127V59.0708Z" fill="#F0C915"/>
<path d="M221.851 59.0708H219.127V61.7943H221.851V59.0708Z" fill="#F0C915"/>
<path d="M224.573 59.0708H221.85V61.7943H224.573V59.0708Z" fill="#F0C915"/>
<path d="M227.298 59.0708H224.574V61.7943H227.298V59.0708Z" fill="black"/>
<path d="M230.02 59.0708H227.297V61.7943H230.02V59.0708Z" fill="white"/>
<path d="M197.369 61.7935H194.646V64.517H197.369V61.7935Z" fill="white"/>
<path d="M200.094 61.7935H197.37V64.517H200.094V61.7935Z" fill="black"/>
<path d="M202.816 61.7935H200.093V64.517H202.816V61.7935Z" fill="#BB891A"/>
<path d="M205.525 61.7935H202.802V64.517H205.525V61.7935Z" fill="#F0C915"/>
<path d="M208.248 61.7935H205.524V64.517H208.248V61.7935Z" fill="#F0C915"/>
<path d="M210.972 61.7935H208.249V64.517H210.972V61.7935Z" fill="#F0C915"/>
<path d="M213.695 61.7935H210.971V64.517H213.695V61.7935Z" fill="#F0C915"/>
<path d="M216.419 61.7935H213.696V64.517H216.419V61.7935Z" fill="#F0C915"/>
<path d="M219.127 61.7935H216.403V64.517H219.127V61.7935Z" fill="#F0C915"/>
<path d="M221.851 61.7935H219.127V64.517H221.851V61.7935Z" fill="#F0C915"/>
<path d="M224.573 61.7935H221.85V64.517H224.573V61.7935Z" fill="#F0C915"/>
<path d="M227.298 61.7935H224.574V64.517H227.298V61.7935Z" fill="black"/>
<path d="M230.02 61.7935H227.297V64.517H230.02V61.7935Z" fill="white"/>
<path d="M197.369 64.5171H194.646V67.2406H197.369V64.5171Z" fill="white"/>
<path d="M200.094 64.5171H197.37V67.2406H200.094V64.5171Z" fill="black"/>
<path d="M202.816 64.5171H200.093V67.2406H202.816V64.5171Z" fill="#BB891A"/>
<path d="M205.525 64.5171H202.802V67.2406H205.525V64.5171Z" fill="#F0C915"/>
<path d="M208.248 64.5171H205.524V67.2406H208.248V64.5171Z" fill="#F0C915"/>
<path d="M210.972 64.5171H208.249V67.2406H210.972V64.5171Z" fill="#EEB81D"/>
<path d="M213.695 64.5171H210.971V67.2406H213.695V64.5171Z" fill="#EEB81D"/>
<path d="M216.419 64.5171H213.696V67.2406H216.419V64.5171Z" fill="#EEB81D"/>
<path d="M219.127 64.5171H216.403V67.2406H219.127V64.5171Z" fill="#F0C915"/>
<path d="M221.851 64.5171H219.127V67.2406H221.851V64.5171Z" fill="#F0C915"/>
<path d="M224.573 64.5171H221.85V67.2406H224.573V64.5171Z" fill="#F0C915"/>
<path d="M227.298 64.5171H224.574V67.2406H227.298V64.5171Z" fill="black"/>
<path d="M230.02 64.5171H227.297V67.2406H230.02V64.5171Z" fill="white"/>
<path d="M194.647 67.2407H191.923V69.9642H194.647V67.2407Z" fill="white"/>
<path d="M197.369 67.2407H194.646V69.9642H197.369V67.2407Z" fill="black"/>
<path d="M200.094 67.2407H197.37V69.9642H200.094V67.2407Z" fill="#BB891A"/>
<path d="M202.816 67.2407H200.093V69.9642H202.816V67.2407Z" fill="#EEB81D"/>
<path d="M205.525 67.2407H202.802V69.9642H205.525V67.2407Z" fill="#F0C915"/>
<path d="M208.248 67.2407H205.524V69.9642H208.248V67.2407Z" fill="#EEB81D"/>
<path d="M210.972 67.2407H208.249V69.9642H210.972V67.2407Z" fill="#BB891A"/>
<path d="M213.695 67.2407H210.971V69.9642H213.695V67.2407Z" fill="black"/>
<path d="M216.419 67.2407H213.696V69.9642H216.419V67.2407Z" fill="#D2991E"/>
<path d="M219.127 67.2407H216.403V69.9642H219.127V67.2407Z" fill="#EEB81D"/>
<path d="M221.851 67.2407H219.127V69.9642H221.851V67.2407Z" fill="#F0C915"/>
<path d="M224.573 67.2407H221.85V69.9642H224.573V67.2407Z" fill="#F0C915"/>
<path d="M227.298 67.2407H224.574V69.9642H227.298V67.2407Z" fill="#F0C915"/>
<path d="M230.02 67.2407H227.297V69.9642H230.02V67.2407Z" fill="black"/>
<path d="M232.728 67.2407H230.004V69.9642H232.728V67.2407Z" fill="white"/>
<path d="M194.647 69.9644H191.923V72.6879H194.647V69.9644Z" fill="white"/>
<path d="M197.369 69.9644H194.646V72.6879H197.369V69.9644Z" fill="black"/>
<path d="M200.094 69.9644H197.37V72.6879H200.094V69.9644Z" fill="#BB891A"/>
<path d="M202.816 69.9644H200.093V72.6879H202.816V69.9644Z" fill="#EEB81D"/>
<path d="M205.525 69.9644H202.802V72.6879H205.525V69.9644Z" fill="#EEB81D"/>
<path d="M208.248 69.9644H205.524V72.6879H208.248V69.9644Z" fill="#BB891A"/>
<path d="M210.972 69.9644H208.249V72.6879H210.972V69.9644Z" fill="black"/>
<path d="M213.695 69.9644H210.971V72.6879H213.695V69.9644Z" fill="white"/>
<path d="M216.419 69.9644H213.696V72.6879H216.419V69.9644Z" fill="black"/>
<path d="M219.127 69.9644H216.403V72.6879H219.127V69.9644Z" fill="#D2991E"/>
<path d="M221.851 69.9644H219.127V72.6879H221.851V69.9644Z" fill="#EEB81D"/>
<path d="M224.573 69.9644H221.85V72.6879H224.573V69.9644Z" fill="#EEB81D"/>
<path d="M227.298 69.9644H224.574V72.6879H227.298V69.9644Z" fill="#F0C915"/>
<path d="M230.02 69.9644H227.297V72.6879H230.02V69.9644Z" fill="black"/>
<path d="M232.728 69.9644H230.004V72.6879H232.728V69.9644Z" fill="white"/>
<path d="M191.922 72.6724H189.199V75.3959H191.922V72.6724Z" fill="white"/>
<path d="M194.647 72.6724H191.923V75.3959H194.647V72.6724Z" fill="black"/>
<path d="M197.369 72.6724H194.646V75.3959H197.369V72.6724Z" fill="#BB891A"/>
<path d="M200.094 72.6724H197.37V75.3959H200.094V72.6724Z" fill="#D2991E"/>
<path d="M202.816 72.6724H200.093V75.3959H202.816V72.6724Z" fill="#D2991E"/>
<path d="M205.525 72.6724H202.802V75.3959H205.525V72.6724Z" fill="black"/>
<path d="M208.248 72.6724H205.524V75.3959H208.248V72.6724Z" fill="black"/>
<path d="M210.972 72.6724H208.249V75.3959H210.972V72.6724Z" fill="white"/>
<path d="M216.419 72.6724H213.696V75.3959H216.419V72.6724Z" fill="white"/>
<path d="M219.127 72.6724H216.403V75.3959H219.127V72.6724Z" fill="black"/>
<path d="M221.851 72.6724H219.127V75.3959H221.851V72.6724Z" fill="black"/>
<path d="M224.573 72.6724H221.85V75.3959H224.573V72.6724Z" fill="#D2991E"/>
<path d="M227.298 72.6724H224.574V75.3959H227.298V72.6724Z" fill="#EEB81D"/>
<path d="M230.02 72.6724H227.297V75.3959H230.02V72.6724Z" fill="#F0C915"/>
<path d="M232.728 72.6724H230.004V75.3959H232.728V72.6724Z" fill="black"/>
<path d="M235.452 72.6724H232.729V75.3959H235.452V72.6724Z" fill="white"/>
<path d="M194.647 75.396H191.923V78.1195H194.647V75.396Z" fill="white"/>
<path d="M197.369 75.396H194.646V78.1195H197.369V75.396Z" fill="black"/>
<path d="M200.094 75.396H197.37V78.1195H200.094V75.396Z" fill="black"/>
<path d="M202.816 75.396H200.093V78.1195H202.816V75.396Z" fill="black"/>
<path d="M205.525 75.396H202.802V78.1195H205.525V75.396Z" fill="white"/>
<path d="M208.248 75.396H205.524V78.1195H208.248V75.396Z" fill="white"/>
<path d="M219.127 75.396H216.403V78.1195H219.127V75.396Z" fill="white"/>
<path d="M221.851 75.396H219.127V78.1195H221.851V75.396Z" fill="white"/>
<path d="M224.573 75.396H221.85V78.1195H224.573V75.396Z" fill="black"/>
<path d="M227.298 75.396H224.574V78.1195H227.298V75.396Z" fill="black"/>
<path d="M230.02 75.396H227.297V78.1195H230.02V75.396Z" fill="black"/>
<path d="M232.728 75.396H230.004V78.1195H232.728V75.396Z" fill="white"/>
<path d="M197.369 78.1196H194.646V80.8431H197.369V78.1196Z" fill="white"/>
<path d="M200.094 78.1196H197.37V80.8431H200.094V78.1196Z" fill="white"/>
<path d="M202.816 78.1196H200.093V80.8431H202.816V78.1196Z" fill="white"/>
<path d="M224.573 78.1196H221.85V80.8431H224.573V78.1196Z" fill="white"/>
<path d="M227.298 78.1196H224.574V80.8431H227.298V78.1196Z" fill="white"/>
<path d="M230.02 78.1196H227.297V80.8431H230.02V78.1196Z" fill="white"/>
</svg>
