<svg width="63" height="57" viewBox="0 0 63 57" fill="none" xmlns="http://www.w3.org/2000/svg">
<path d="M32.7176 0H30.0004V2.71727H32.7176V0Z" fill="white"/>
<path d="M30.0011 2.71722H27.2838V5.4345H30.0011V2.71722Z" fill="white"/>
<path d="M32.7176 2.71722H30.0004V5.4345H32.7176V2.71722Z" fill="black"/>
<path d="M35.4355 2.71722H32.7183V5.4345H35.4355V2.71722Z" fill="white"/>
<path d="M27.2831 5.43451H24.5658V8.15178H27.2831V5.43451Z" fill="white"/>
<path d="M30.0011 5.43451H27.2838V8.15178H30.0011V5.43451Z" fill="black"/>
<path d="M32.7176 5.43451H30.0004V8.15178H32.7176V5.43451Z" fill="#EEB81D"/>
<path d="M35.4355 5.43451H32.7183V8.15178H35.4355V5.43451Z" fill="black"/>
<path d="M38.1366 5.43451H35.4193V8.15178H38.1366V5.43451Z" fill="white"/>
<path d="M24.5665 8.13635H21.8492V10.8536H24.5665V8.13635Z" fill="white"/>
<path d="M27.2831 8.13635H24.5658V10.8536H27.2831V8.13635Z" fill="black"/>
<path d="M30.0011 8.13635H27.2838V10.8536H30.0011V8.13635Z" fill="#EEB81D"/>
<path d="M32.7176 8.13635H30.0004V10.8536H32.7176V8.13635Z" fill="#F0C915"/>
<path d="M35.4355 8.13635H32.7183V10.8536H35.4355V8.13635Z" fill="#F0C915"/>
<path d="M38.1366 8.13635H35.4193V10.8536H38.1366V8.13635Z" fill="black"/>
<path d="M40.8547 8.13635H38.1375V10.8536H40.8547V8.13635Z" fill="white"/>
<path d="M24.5665 10.8536H21.8492V13.5709H24.5665V10.8536Z" fill="white"/>
<path d="M27.2831 10.8536H24.5658V13.5709H27.2831V10.8536Z" fill="black"/>
<path d="M30.0011 10.8536H27.2838V13.5709H30.0011V10.8536Z" fill="#EEB81D"/>
<path d="M32.7176 10.8536H30.0004V13.5709H32.7176V10.8536Z" fill="#F0C915"/>
<path d="M35.4355 10.8536H32.7183V13.5709H35.4355V10.8536Z" fill="#F0C915"/>
<path d="M38.1366 10.8536H35.4193V13.5709H38.1366V10.8536Z" fill="black"/>
<path d="M40.8547 10.8536H38.1375V13.5709H40.8547V10.8536Z" fill="white"/>
<path d="M21.864 13.5709H19.1467V16.2881H21.864V13.5709Z" fill="white"/>
<path d="M24.5665 13.5709H21.8492V16.2881H24.5665V13.5709Z" fill="black"/>
<path d="M27.2831 13.5709H24.5658V16.2881H27.2831V13.5709Z" fill="#EEB81D"/>
<path d="M30.0011 13.5709H27.2838V16.2881H30.0011V13.5709Z" fill="#F0C915"/>
<path d="M32.7176 13.5709H30.0004V16.2881H32.7176V13.5709Z" fill="#F0C915"/>
<path d="M35.4355 13.5709H32.7183V16.2881H35.4355V13.5709Z" fill="#F0C915"/>
<path d="M38.1366 13.5709H35.4193V16.2881H38.1366V13.5709Z" fill="#F0C915"/>
<path d="M40.8547 13.5709H38.1375V16.2881H40.8547V13.5709Z" fill="black"/>
<path d="M43.5714 13.5709H40.8541V16.2881H43.5714V13.5709Z" fill="white"/>
<path d="M8.29369 16.2881H5.57642V19.0054H8.29369V16.2881Z" fill="white"/>
<path d="M10.9951 16.2881H8.27783V19.0054H10.9951V16.2881Z" fill="white"/>
<path d="M13.7131 16.2881H10.9958V19.0054H13.7131V16.2881Z" fill="white"/>
<path d="M16.4294 16.2881H13.7122V19.0054H16.4294V16.2881Z" fill="white"/>
<path d="M19.1476 16.2881H16.4303V19.0054H19.1476V16.2881Z" fill="white"/>
<path d="M21.864 16.2881H19.1467V19.0054H21.864V16.2881Z" fill="white"/>
<path d="M24.5665 16.2881H21.8492V19.0054H24.5665V16.2881Z" fill="black"/>
<path d="M27.2831 16.2881H24.5658V19.0054H27.2831V16.2881Z" fill="#EEB81D"/>
<path d="M30.0011 16.2881H27.2838V19.0054H30.0011V16.2881Z" fill="#F0C915"/>
<path d="M32.7176 16.2881H30.0004V19.0054H32.7176V16.2881Z" fill="#F0C915"/>
<path d="M35.4355 16.2881H32.7183V19.0054H35.4355V16.2881Z" fill="white"/>
<path d="M38.1366 16.2881H35.4193V19.0054H38.1366V16.2881Z" fill="#F0C915"/>
<path d="M40.8547 16.2881H38.1375V19.0054H40.8547V16.2881Z" fill="black"/>
<path d="M43.5714 16.2881H40.8541V19.0054H43.5714V16.2881Z" fill="white"/>
<path d="M46.2893 16.2881H43.572V19.0054H46.2893V16.2881Z" fill="white"/>
<path d="M49.0056 16.2881H46.2883V19.0054H49.0056V16.2881Z" fill="white"/>
<path d="M51.7068 16.2881H48.9895V19.0054H51.7068V16.2881Z" fill="white"/>
<path d="M54.4248 16.2881H51.7075V19.0054H54.4248V16.2881Z" fill="white"/>
<path d="M57.1412 16.2881H54.424V19.0054H57.1412V16.2881Z" fill="white"/>
<path d="M5.57726 19.0054H2.85999V21.7226H5.57726V19.0054Z" fill="white"/>
<path d="M8.29369 19.0054H5.57642V21.7226H8.29369V19.0054Z" fill="black"/>
<path d="M10.9951 19.0054H8.27783V21.7226H10.9951V19.0054Z" fill="black"/>
<path d="M13.7131 19.0054H10.9958V21.7226H13.7131V19.0054Z" fill="black"/>
<path d="M16.4294 19.0054H13.7122V21.7226H16.4294V19.0054Z" fill="black"/>
<path d="M19.1476 19.0054H16.4303V21.7226H19.1476V19.0054Z" fill="black"/>
<path d="M21.864 19.0054H19.1467V21.7226H21.864V19.0054Z" fill="black"/>
<path d="M24.5665 19.0054H21.8492V21.7226H24.5665V19.0054Z" fill="#EEB81D"/>
<path d="M27.2831 19.0054H24.5658V21.7226H27.2831V19.0054Z" fill="#F0C915"/>
<path d="M30.0011 19.0054H27.2838V21.7226H30.0011V19.0054Z" fill="#F0C915"/>
<path d="M32.7176 19.0054H30.0004V21.7226H32.7176V19.0054Z" fill="#F0C915"/>
<path d="M35.4355 19.0054H32.7183V21.7226H35.4355V19.0054Z" fill="white"/>
<path d="M38.1366 19.0054H35.4193V21.7226H38.1366V19.0054Z" fill="#F0C915"/>
<path d="M40.8547 19.0054H38.1375V21.7226H40.8547V19.0054Z" fill="#F0C915"/>
<path d="M43.5714 19.0054H40.8541V21.7226H43.5714V19.0054Z" fill="black"/>
<path d="M46.2893 19.0054H43.572V21.7226H46.2893V19.0054Z" fill="black"/>
<path d="M49.0056 19.0054H46.2883V21.7226H49.0056V19.0054Z" fill="black"/>
<path d="M51.7068 19.0054H48.9895V21.7226H51.7068V19.0054Z" fill="black"/>
<path d="M54.4248 19.0054H51.7075V21.7226H54.4248V19.0054Z" fill="black"/>
<path d="M57.1412 19.0054H54.424V21.7226H57.1412V19.0054Z" fill="black"/>
<path d="M59.8594 19.0054H57.1421V21.7226H59.8594V19.0054Z" fill="white"/>
<path d="M2.85936 21.7065H0.14209V24.4238H2.85936V21.7065Z" fill="white"/>
<path d="M5.57726 21.7065H2.85999V24.4238H5.57726V21.7065Z" fill="black"/>
<path d="M8.29369 21.7065H5.57642V24.4238H8.29369V21.7065Z" fill="#BB891A"/>
<path d="M10.9951 21.7065H8.27783V24.4238H10.9951V21.7065Z" fill="#D2991E"/>
<path d="M13.7131 21.7065H10.9958V24.4238H13.7131V21.7065Z" fill="#D2991E"/>
<path d="M16.4294 21.7065H13.7122V24.4238H16.4294V21.7065Z" fill="#EEB81D"/>
<path d="M19.1476 21.7065H16.4303V24.4238H19.1476V21.7065Z" fill="#EEB81D"/>
<path d="M21.864 21.7065H19.1467V24.4238H21.864V21.7065Z" fill="#EEB81D"/>
<path d="M24.5665 21.7065H21.8492V24.4238H24.5665V21.7065Z" fill="#F0C915"/>
<path d="M27.2831 21.7065H24.5658V24.4238H27.2831V21.7065Z" fill="#F0C915"/>
<path d="M30.0011 21.7065H27.2838V24.4238H30.0011V21.7065Z" fill="#F0C915"/>
<path d="M32.7176 21.7065H30.0004V24.4238H32.7176V21.7065Z" fill="#F0C915"/>
<path d="M35.4355 21.7065H32.7183V24.4238H35.4355V21.7065Z" fill="#F0C915"/>
<path d="M38.1366 21.7065H35.4193V24.4238H38.1366V21.7065Z" fill="white"/>
<path d="M40.8547 21.7065H38.1375V24.4238H40.8547V21.7065Z" fill="#F0C915"/>
<path d="M43.5714 21.7065H40.8541V24.4238H43.5714V21.7065Z" fill="#F0C915"/>
<path d="M46.2893 21.7065H43.572V24.4238H46.2893V21.7065Z" fill="#F0C915"/>
<path d="M49.0056 21.7065H46.2883V24.4238H49.0056V21.7065Z" fill="#F0C915"/>
<path d="M51.7068 21.7065H48.9895V24.4238H51.7068V21.7065Z" fill="#F0C915"/>
<path d="M54.4248 21.7065H51.7075V24.4238H54.4248V21.7065Z" fill="#F0C915"/>
<path d="M57.1412 21.7065H54.424V24.4238H57.1412V21.7065Z" fill="#F0C915"/>
<path d="M59.8594 21.7065H57.1421V24.4238H59.8594V21.7065Z" fill="black"/>
<path d="M62.5758 21.7065H59.8585V24.4238H62.5758V21.7065Z" fill="white"/>
<path d="M5.57726 24.4238H2.85999V27.141H5.57726V24.4238Z" fill="white"/>
<path d="M8.29369 24.4238H5.57642V27.141H8.29369V24.4238Z" fill="black"/>
<path d="M10.9951 24.4238H8.27783V27.141H10.9951V24.4238Z" fill="black"/>
<path d="M13.7131 24.4238H10.9958V27.141H13.7131V24.4238Z" fill="#BB891A"/>
<path d="M16.4294 24.4238H13.7122V27.141H16.4294V24.4238Z" fill="#F0C915"/>
<path d="M19.1476 24.4238H16.4303V27.141H19.1476V24.4238Z" fill="#F0C915"/>
<path d="M21.864 24.4238H19.1467V27.141H21.864V24.4238Z" fill="#F0C915"/>
<path d="M24.5665 24.4238H21.8492V27.141H24.5665V24.4238Z" fill="#F0C915"/>
<path d="M27.2831 24.4238H24.5658V27.141H27.2831V24.4238Z" fill="#F0C915"/>
<path d="M30.0011 24.4238H27.2838V27.141H30.0011V24.4238Z" fill="#F0C915"/>
<path d="M32.7176 24.4238H30.0004V27.141H32.7176V24.4238Z" fill="#F0C915"/>
<path d="M35.4355 24.4238H32.7183V27.141H35.4355V24.4238Z" fill="#F0C915"/>
<path d="M38.1366 24.4238H35.4193V27.141H38.1366V24.4238Z" fill="#F0C915"/>
<path d="M40.8547 24.4238H38.1375V27.141H40.8547V24.4238Z" fill="white"/>
<path d="M43.5714 24.4238H40.8541V27.141H43.5714V24.4238Z" fill="#F0C915"/>
<path d="M46.2893 24.4238H43.572V27.141H46.2893V24.4238Z" fill="#F0C915"/>
<path d="M49.0056 24.4238H46.2883V27.141H49.0056V24.4238Z" fill="#F0C915"/>
<path d="M51.7068 24.4238H48.9895V27.141H51.7068V24.4238Z" fill="#F0C915"/>
<path d="M54.4248 24.4238H51.7075V27.141H54.4248V24.4238Z" fill="black"/>
<path d="M57.1412 24.4238H54.424V27.141H57.1412V24.4238Z" fill="black"/>
<path d="M59.8594 24.4238H57.1421V27.141H59.8594V24.4238Z" fill="white"/>
<path d="M8.29369 27.141H5.57642V29.8583H8.29369V27.141Z" fill="white"/>
<path d="M10.9951 27.141H8.27783V29.8583H10.9951V27.141Z" fill="white"/>
<path d="M13.7131 27.141H10.9958V29.8583H13.7131V27.141Z" fill="black"/>
<path d="M16.4294 27.141H13.7122V29.8583H16.4294V27.141Z" fill="#BB891A"/>
<path d="M19.1476 27.141H16.4303V29.8583H19.1476V27.141Z" fill="#BB891A"/>
<path d="M21.864 27.141H19.1467V29.8583H21.864V27.141Z" fill="#F0C915"/>
<path d="M24.5665 27.141H21.8492V29.8583H24.5665V27.141Z" fill="#F0C915"/>
<path d="M27.2831 27.141H24.5658V29.8583H27.2831V27.141Z" fill="#F0C915"/>
<path d="M30.0011 27.141H27.2838V29.8583H30.0011V27.141Z" fill="#F0C915"/>
<path d="M32.7176 27.141H30.0004V29.8583H32.7176V27.141Z" fill="#F0C915"/>
<path d="M35.4355 27.141H32.7183V29.8583H35.4355V27.141Z" fill="#F0C915"/>
<path d="M38.1366 27.141H35.4193V29.8583H38.1366V27.141Z" fill="#F0C915"/>
<path d="M40.8547 27.141H38.1375V29.8583H40.8547V27.141Z" fill="#F0C915"/>
<path d="M43.5714 27.141H40.8541V29.8583H43.5714V27.141Z" fill="#F0C915"/>
<path d="M46.2893 27.141H43.572V29.8583H46.2893V27.141Z" fill="#F0C915"/>
<path d="M49.0056 27.141H46.2883V29.8583H49.0056V27.141Z" fill="#F0C915"/>
<path d="M51.7068 27.141H48.9895V29.8583H51.7068V27.141Z" fill="black"/>
<path d="M54.4248 27.141H51.7075V29.8583H54.4248V27.141Z" fill="white"/>
<path d="M57.1412 27.141H54.424V29.8583H57.1412V27.141Z" fill="white"/>
<path d="M13.7131 29.8582H10.9958V32.5755H13.7131V29.8582Z" fill="white"/>
<path d="M16.4294 29.8582H13.7122V32.5755H16.4294V29.8582Z" fill="black"/>
<path d="M19.1476 29.8582H16.4303V32.5755H19.1476V29.8582Z" fill="black"/>
<path d="M21.864 29.8582H19.1467V32.5755H21.864V29.8582Z" fill="#BB891A"/>
<path d="M24.5665 29.8582H21.8492V32.5755H24.5665V29.8582Z" fill="#F0C915"/>
<path d="M27.2831 29.8582H24.5658V32.5755H27.2831V29.8582Z" fill="#F0C915"/>
<path d="M30.0011 29.8582H27.2838V32.5755H30.0011V29.8582Z" fill="#F0C915"/>
<path d="M32.7176 29.8582H30.0004V32.5755H32.7176V29.8582Z" fill="#F0C915"/>
<path d="M35.4355 29.8582H32.7183V32.5755H35.4355V29.8582Z" fill="#F0C915"/>
<path d="M38.1366 29.8582H35.4193V32.5755H38.1366V29.8582Z" fill="#F0C915"/>
<path d="M40.8547 29.8582H38.1375V32.5755H40.8547V29.8582Z" fill="#F0C915"/>
<path d="M43.5714 29.8582H40.8541V32.5755H43.5714V29.8582Z" fill="#F0C915"/>
<path d="M46.2893 29.8582H43.572V32.5755H46.2893V29.8582Z" fill="black"/>
<path d="M49.0056 29.8582H46.2883V32.5755H49.0056V29.8582Z" fill="black"/>
<path d="M51.7068 29.8582H48.9895V32.5755H51.7068V29.8582Z" fill="white"/>
<path d="M19.1476 32.5762H16.4303V35.2934H19.1476V32.5762Z" fill="white"/>
<path d="M21.864 32.5762H19.1467V35.2934H21.864V32.5762Z" fill="black"/>
<path d="M24.5665 32.5762H21.8492V35.2934H24.5665V32.5762Z" fill="#D2991E"/>
<path d="M27.2831 32.5762H24.5658V35.2934H27.2831V32.5762Z" fill="#F0C915"/>
<path d="M30.0011 32.5762H27.2838V35.2934H30.0011V32.5762Z" fill="#F0C915"/>
<path d="M32.7176 32.5762H30.0004V35.2934H32.7176V32.5762Z" fill="#F0C915"/>
<path d="M35.4355 32.5762H32.7183V35.2934H35.4355V32.5762Z" fill="#F0C915"/>
<path d="M38.1366 32.5762H35.4193V35.2934H38.1366V32.5762Z" fill="#F0C915"/>
<path d="M40.8547 32.5762H38.1375V35.2934H40.8547V32.5762Z" fill="#F0C915"/>
<path d="M43.5714 32.5762H40.8541V35.2934H43.5714V32.5762Z" fill="black"/>
<path d="M46.2893 32.5762H43.572V35.2934H46.2893V32.5762Z" fill="white"/>
<path d="M16.4294 35.2773H13.7122V37.9946H16.4294V35.2773Z" fill="white"/>
<path d="M19.1476 35.2773H16.4303V37.9946H19.1476V35.2773Z" fill="black"/>
<path d="M21.864 35.2773H19.1467V37.9946H21.864V35.2773Z" fill="#BB891A"/>
<path d="M24.5665 35.2773H21.8492V37.9946H24.5665V35.2773Z" fill="#EEB81D"/>
<path d="M27.2831 35.2773H24.5658V37.9946H27.2831V35.2773Z" fill="#F0C915"/>
<path d="M30.0011 35.2773H27.2838V37.9946H30.0011V35.2773Z" fill="#F0C915"/>
<path d="M32.7176 35.2773H30.0004V37.9946H32.7176V35.2773Z" fill="#F0C915"/>
<path d="M35.4355 35.2773H32.7183V37.9946H35.4355V35.2773Z" fill="#F0C915"/>
<path d="M38.1366 35.2773H35.4193V37.9946H38.1366V35.2773Z" fill="#F0C915"/>
<path d="M40.8547 35.2773H38.1375V37.9946H40.8547V35.2773Z" fill="#F0C915"/>
<path d="M43.5714 35.2773H40.8541V37.9946H43.5714V35.2773Z" fill="#F0C915"/>
<path d="M46.2893 35.2773H43.572V37.9946H46.2893V35.2773Z" fill="black"/>
<path d="M49.0056 35.2773H46.2883V37.9946H49.0056V35.2773Z" fill="white"/>
<path d="M16.4294 37.9946H13.7122V40.7119H16.4294V37.9946Z" fill="white"/>
<path d="M19.1476 37.9946H16.4303V40.7119H19.1476V37.9946Z" fill="black"/>
<path d="M21.864 37.9946H19.1467V40.7119H21.864V37.9946Z" fill="#BB891A"/>
<path d="M24.5665 37.9946H21.8492V40.7119H24.5665V37.9946Z" fill="#F0C915"/>
<path d="M27.2831 37.9946H24.5658V40.7119H27.2831V37.9946Z" fill="#F0C915"/>
<path d="M30.0011 37.9946H27.2838V40.7119H30.0011V37.9946Z" fill="#F0C915"/>
<path d="M32.7176 37.9946H30.0004V40.7119H32.7176V37.9946Z" fill="#F0C915"/>
<path d="M35.4355 37.9946H32.7183V40.7119H35.4355V37.9946Z" fill="#F0C915"/>
<path d="M38.1366 37.9946H35.4193V40.7119H38.1366V37.9946Z" fill="#F0C915"/>
<path d="M40.8547 37.9946H38.1375V40.7119H40.8547V37.9946Z" fill="#F0C915"/>
<path d="M43.5714 37.9946H40.8541V40.7119H43.5714V37.9946Z" fill="#F0C915"/>
<path d="M46.2893 37.9946H43.572V40.7119H46.2893V37.9946Z" fill="black"/>
<path d="M49.0056 37.9946H46.2883V40.7119H49.0056V37.9946Z" fill="white"/>
<path d="M16.4294 40.7119H13.7122V43.4291H16.4294V40.7119Z" fill="white"/>
<path d="M19.1476 40.7119H16.4303V43.4291H19.1476V40.7119Z" fill="black"/>
<path d="M21.864 40.7119H19.1467V43.4291H21.864V40.7119Z" fill="#BB891A"/>
<path d="M24.5665 40.7119H21.8492V43.4291H24.5665V40.7119Z" fill="#F0C915"/>
<path d="M27.2831 40.7119H24.5658V43.4291H27.2831V40.7119Z" fill="#F0C915"/>
<path d="M30.0011 40.7119H27.2838V43.4291H30.0011V40.7119Z" fill="#EEB81D"/>
<path d="M32.7176 40.7119H30.0004V43.4291H32.7176V40.7119Z" fill="#EEB81D"/>
<path d="M35.4355 40.7119H32.7183V43.4291H35.4355V40.7119Z" fill="#EEB81D"/>
<path d="M38.1366 40.7119H35.4193V43.4291H38.1366V40.7119Z" fill="#F0C915"/>
<path d="M40.8547 40.7119H38.1375V43.4291H40.8547V40.7119Z" fill="#F0C915"/>
<path d="M43.5714 40.7119H40.8541V43.4291H43.5714V40.7119Z" fill="#F0C915"/>
<path d="M46.2893 40.7119H43.572V43.4291H46.2893V40.7119Z" fill="black"/>
<path d="M49.0056 40.7119H46.2883V43.4291H49.0056V40.7119Z" fill="white"/>
<path d="M13.7131 43.4291H10.9958V46.1463H13.7131V43.4291Z" fill="white"/>
<path d="M16.4294 43.4291H13.7122V46.1463H16.4294V43.4291Z" fill="black"/>
<path d="M19.1476 43.4291H16.4303V46.1463H19.1476V43.4291Z" fill="#BB891A"/>
<path d="M21.864 43.4291H19.1467V46.1463H21.864V43.4291Z" fill="#EEB81D"/>
<path d="M24.5665 43.4291H21.8492V46.1463H24.5665V43.4291Z" fill="#F0C915"/>
<path d="M27.2831 43.4291H24.5658V46.1463H27.2831V43.4291Z" fill="#EEB81D"/>
<path d="M30.0011 43.4291H27.2838V46.1463H30.0011V43.4291Z" fill="#BB891A"/>
<path d="M32.7176 43.4291H30.0004V46.1463H32.7176V43.4291Z" fill="black"/>
<path d="M35.4355 43.4291H32.7183V46.1463H35.4355V43.4291Z" fill="#D2991E"/>
<path d="M38.1366 43.4291H35.4193V46.1463H38.1366V43.4291Z" fill="#EEB81D"/>
<path d="M40.8547 43.4291H38.1375V46.1463H40.8547V43.4291Z" fill="#F0C915"/>
<path d="M43.5714 43.4291H40.8541V46.1463H43.5714V43.4291Z" fill="#F0C915"/>
<path d="M46.2893 43.4291H43.572V46.1463H46.2893V43.4291Z" fill="#F0C915"/>
<path d="M49.0056 43.4291H46.2883V46.1463H49.0056V43.4291Z" fill="black"/>
<path d="M51.7068 43.4291H48.9895V46.1463H51.7068V43.4291Z" fill="white"/>
<path d="M13.7131 46.1463H10.9958V48.8636H13.7131V46.1463Z" fill="white"/>
<path d="M16.4294 46.1463H13.7122V48.8636H16.4294V46.1463Z" fill="black"/>
<path d="M19.1476 46.1463H16.4303V48.8636H19.1476V46.1463Z" fill="#BB891A"/>
<path d="M21.864 46.1463H19.1467V48.8636H21.864V46.1463Z" fill="#EEB81D"/>
<path d="M24.5665 46.1463H21.8492V48.8636H24.5665V46.1463Z" fill="#EEB81D"/>
<path d="M27.2831 46.1463H24.5658V48.8636H27.2831V46.1463Z" fill="#BB891A"/>
<path d="M30.0011 46.1463H27.2838V48.8636H30.0011V46.1463Z" fill="black"/>
<path d="M32.7176 46.1463H30.0004V48.8636H32.7176V46.1463Z" fill="white"/>
<path d="M35.4355 46.1463H32.7183V48.8636H35.4355V46.1463Z" fill="black"/>
<path d="M38.1366 46.1463H35.4193V48.8636H38.1366V46.1463Z" fill="#D2991E"/>
<path d="M40.8547 46.1463H38.1375V48.8636H40.8547V46.1463Z" fill="#EEB81D"/>
<path d="M43.5714 46.1463H40.8541V48.8636H43.5714V46.1463Z" fill="#EEB81D"/>
<path d="M46.2893 46.1463H43.572V48.8636H46.2893V46.1463Z" fill="#F0C915"/>
<path d="M49.0056 46.1463H46.2883V48.8636H49.0056V46.1463Z" fill="black"/>
<path d="M51.7068 46.1463H48.9895V48.8636H51.7068V46.1463Z" fill="white"/>
<path d="M10.9951 48.8483H8.27783V51.5655H10.9951V48.8483Z" fill="white"/>
<path d="M13.7131 48.8483H10.9958V51.5655H13.7131V48.8483Z" fill="black"/>
<path d="M16.4294 48.8483H13.7122V51.5655H16.4294V48.8483Z" fill="#BB891A"/>
<path d="M19.1476 48.8483H16.4303V51.5655H19.1476V48.8483Z" fill="#D2991E"/>
<path d="M21.864 48.8483H19.1467V51.5655H21.864V48.8483Z" fill="#D2991E"/>
<path d="M24.5665 48.8483H21.8492V51.5655H24.5665V48.8483Z" fill="black"/>
<path d="M27.2831 48.8483H24.5658V51.5655H27.2831V48.8483Z" fill="black"/>
<path d="M30.0011 48.8483H27.2838V51.5655H30.0011V48.8483Z" fill="white"/>
<path d="M35.4355 48.8483H32.7183V51.5655H35.4355V48.8483Z" fill="white"/>
<path d="M38.1366 48.8483H35.4193V51.5655H38.1366V48.8483Z" fill="black"/>
<path d="M40.8547 48.8483H38.1375V51.5655H40.8547V48.8483Z" fill="black"/>
<path d="M43.5714 48.8483H40.8541V51.5655H43.5714V48.8483Z" fill="#D2991E"/>
<path d="M46.2893 48.8483H43.572V51.5655H46.2893V48.8483Z" fill="#EEB81D"/>
<path d="M49.0056 48.8483H46.2883V51.5655H49.0056V48.8483Z" fill="#F0C915"/>
<path d="M51.7068 48.8483H48.9895V51.5655H51.7068V48.8483Z" fill="black"/>
<path d="M54.4248 48.8483H51.7075V51.5655H54.4248V48.8483Z" fill="white"/>
<path d="M13.7131 51.5654H10.9958V54.2827H13.7131V51.5654Z" fill="white"/>
<path d="M16.4294 51.5654H13.7122V54.2827H16.4294V51.5654Z" fill="black"/>
<path d="M19.1476 51.5654H16.4303V54.2827H19.1476V51.5654Z" fill="black"/>
<path d="M21.864 51.5654H19.1467V54.2827H21.864V51.5654Z" fill="black"/>
<path d="M24.5665 51.5654H21.8492V54.2827H24.5665V51.5654Z" fill="white"/>
<path d="M27.2831 51.5654H24.5658V54.2827H27.2831V51.5654Z" fill="white"/>
<path d="M38.1366 51.5654H35.4193V54.2827H38.1366V51.5654Z" fill="white"/>
<path d="M40.8547 51.5654H38.1375V54.2827H40.8547V51.5654Z" fill="white"/>
<path d="M43.5714 51.5654H40.8541V54.2827H43.5714V51.5654Z" fill="black"/>
<path d="M46.2893 51.5654H43.572V54.2827H46.2893V51.5654Z" fill="black"/>
<path d="M49.0056 51.5654H46.2883V54.2827H49.0056V51.5654Z" fill="black"/>
<path d="M51.7068 51.5654H48.9895V54.2827H51.7068V51.5654Z" fill="white"/>
<path d="M16.4294 54.2827H13.7122V57H16.4294V54.2827Z" fill="white"/>
<path d="M19.1476 54.2827H16.4303V57H19.1476V54.2827Z" fill="white"/>
<path d="M21.864 54.2827H19.1467V57H21.864V54.2827Z" fill="white"/>
<path d="M43.5714 54.2827H40.8541V57H43.5714V54.2827Z" fill="white"/>
<path d="M46.2893 54.2827H43.572V57H46.2893V54.2827Z" fill="white"/>
<path d="M49.0056 54.2827H46.2883V57H49.0056V54.2827Z" fill="white"/>
</svg>
