<svg width="108" height="328" viewBox="0 0 108 328" fill="none" xmlns="http://www.w3.org/2000/svg">
<path d="M104.111 325L3.00317 325L3.00318 281L104.111 281L104.111 325Z" fill="#FF8000"/>
<path d="M100.517 278L6.4126 278L6.41263 -141.567L100.517 -141.567L100.517 278Z" fill="#FF8000"/>
<path d="M100.517 278L77.468 278L77.468 -141.567L100.517 -141.567L100.517 278Z" fill="#FFA041"/>
<path d="M25.8462 278L6.41271 278L6.41274 -141.567L25.8462 -141.567L25.8462 278Z" fill="#D86C00"/>
<path d="M104.499 325L74.1283 325L74.1283 281L104.499 281L104.499 325Z" fill="#FFA041"/>
<path d="M22.1484 325L2.75159 325L2.75159 281L22.1484 281L22.1484 325Z" fill="#D86C00"/>
<path fill-rule="evenodd" clip-rule="evenodd" d="M3.00293 325L104.003 325L104.003 281L3.00293 281L3.00293 325ZM107.003 328L107.003 278L0.00293406 278L0.00292969 328L107.003 328Z" fill="black"/>
<path fill-rule="evenodd" clip-rule="evenodd" d="M7.00289 278L100.003 278L100.003 -146L7.00293 -146L7.00289 278ZM103.003 281L103.003 -149L4.00293 -149L4.00289 281L103.003 281Z" fill="black"/>
</svg>
