<svg width="400" height="385" viewBox="0 0 400 385" fill="none" xmlns="http://www.w3.org/2000/svg">
<path d="M273.854 201.544C279.188 206.211 290.154 215.944 291.354 217.544C292.854 219.544 299.354 228.044 301.354 238.044C303.354 248.044 304.354 259.044 302.354 266.544C300.354 274.044 299.354 281.044 292.854 286.544C284.632 280.109 289.446 273.674 292.858 270.528C294.177 264.008 287.336 241.53 264.354 224.544C259.93 221.274 251.854 218.044 251.854 218.044L252.354 210.544L263.354 203.544L273.854 201.544Z" fill="#FF8C00"/>
<path opacity="0.5" d="M272.12 201.483C269.192 213.834 282.304 221.237 289.226 229.426C299.816 241.947 301.031 256.309 300.462 272.13C300.433 273.066 301.238 273.08 301.355 272.13C301.684 269.24 302.557 266.511 302.749 263.673C303.109 263.74 303.504 263.563 303.524 263.08C304.032 252.204 303.076 241.611 298.579 231.54C298.149 230.581 297.677 229.642 297.177 228.715C293.055 218.178 285.855 213.044 276.855 203.544C276.553 203.078 275.762 202.547 275.355 202.544C274.817 201.194 272.524 199.778 272.124 201.473L272.12 201.483Z" fill="#AA5B18"/>
<path d="M292.892 287.155C298.036 283.164 300.589 277.322 302.067 271.14C302.843 267.906 303.575 264.666 303.961 261.353C304.346 258.039 304.255 254.627 304.1 251.259C303.793 244.701 302.949 238.173 300.476 232.052C298.003 225.932 294.694 220.779 290.613 215.997C285.668 210.198 279.546 205.434 273.766 200.508C273.175 200.003 272.285 200.926 272.814 201.502C277.31 206.301 282.741 210.088 287.291 214.837C291.486 219.229 295.063 224.321 297.744 229.772C300.425 235.224 301.913 241.32 302.515 247.534C303.156 254.196 303.079 260.69 301.723 267.257C300.233 274.451 298.282 281.598 292.248 286.36C291.729 286.77 292.373 287.565 292.892 287.155Z" fill="#1D1D1B"/>
<path d="M292.339 285.81C289.398 283.345 288.265 279.231 289.688 275.647C290.378 273.899 291.615 272.43 293.197 271.408C294.779 270.386 296.367 269.623 296.643 267.671C296.806 266.506 294.988 266.339 294.828 267.494C294.693 268.495 293.576 269.063 292.799 269.538C291.94 270.076 291.158 270.655 290.466 271.397C289.087 272.87 288.151 274.711 287.78 276.697C287.09 280.444 288.751 284.338 291.756 286.605C292.272 287 292.827 286.218 292.339 285.81Z" fill="#1D1D1B"/>
<path d="M292.761 271.02C293.796 266.341 292.437 261.592 290.867 257.183C289.297 252.774 287.35 248.771 284.973 244.885C280.203 237.094 273.884 230.268 266.49 224.915C262.32 221.9 257.79 219.368 253.041 217.383C251.76 216.848 250.99 218.87 252.275 219.394C268.558 225.96 281.874 239.18 288.662 255.361C290.681 260.186 292.678 265.623 291.601 270.905C291.449 271.642 292.597 271.729 292.751 271.016L292.761 271.02Z" fill="#1D1D1B"/>
<path d="M75.9001 224.43C71.3624 230.327 68.0297 237.424 64.6373 243.921C64.2608 244.634 65.2502 245.133 65.7891 244.77C69.7746 242.144 73.4531 236.455 76.0051 232.46C77.5281 230.082 78.8359 227.572 80.4996 225.297C82.7815 222.202 85.3449 220.4 88.4909 218.784C88.7138 219.328 89.1784 219.766 89.9416 219.854C99.2483 220.853 108.711 221.75 117.917 223.529C120.221 224.4 122.519 225.185 124.61 225.166C125.335 225.158 126.071 224.859 126.334 224.116C127.188 221.651 126.831 218.362 126.713 215.778C126.698 215.522 126.583 215.329 126.414 215.19C126.403 215.169 126.407 215.145 126.402 215.114C126.175 214.539 125.546 214.361 124.98 214.337C124.932 214.329 124.904 214.348 124.858 214.355C123.307 212.832 121.108 212.337 118.793 211.648C114.605 210.406 110.335 209.442 106.067 208.494C98.2 206.739 90.4103 205.026 82.3692 205.164C79.6771 204.305 77.6647 205.617 75.4448 207.211C71.444 210.097 67.3414 212.826 63.2633 215.615C62.7527 215.958 62.7793 216.547 63.0689 216.964C58.1484 220.122 53.665 223.847 49.9011 228.455C49.2696 229.238 50.4171 230.369 51.1741 229.692C52.8334 228.215 54.6069 226.821 56.4597 225.487C59.2106 224.719 61.6101 222.919 63.9767 221.366C64.4178 221.08 64.5587 220.669 64.5009 220.287C66.6536 219.024 68.8113 217.846 70.9518 216.71C71.2008 216.961 71.4302 217.239 71.6468 217.534C66.0473 223.435 61.581 230.579 56.2999 236.674C55.4818 237.618 56.9971 239.115 57.8921 238.215C60.6682 235.443 63.708 232.867 66.3629 229.965C67.5018 228.715 68.5552 227.415 69.6063 226.1C70.8997 225.303 72.2135 224.589 73.4649 223.72C73.7973 223.49 74.7426 222.613 75.1989 222.841C75.6048 223.045 75.6597 223.872 75.7919 224.282C75.8076 224.334 75.8386 224.385 75.8608 224.428L75.9001 224.43Z" fill="#FFD130"/>
<path opacity="0.5" d="M123.558 224.512C123.985 225.166 125.054 225.208 125.573 224.559C126.591 223.288 126.449 221.419 126.629 219.868C126.782 218.556 127.443 216.573 126.69 215.312C125.97 214.117 123.646 213.679 122.356 213.202C122.211 213.123 122.071 213.074 121.941 213.046C119.327 212.028 116.596 211.222 114.035 210.094C113.265 209.757 112.728 210.854 113.35 211.353C116.532 213.903 123.911 218.842 122.07 223.659C121.7 224.621 123 225.214 123.567 224.518L123.558 224.512Z" fill="#B28736"/>
<path d="M126.494 214.014C113.816 209.268 100.635 205.847 87.2373 203.881C84.2733 203.446 81.1475 202.716 78.3228 204.08C75.892 205.26 73.6938 207.1 71.5022 208.674C66.6389 212.159 61.8598 215.788 57.4138 219.812C55.2776 221.752 53.2035 223.792 51.3315 225.981C50.468 226.986 47.0851 230.084 49.2383 231.305C50.5114 232.026 52.9249 229.802 53.9008 229.178C59.2385 225.73 64.5896 222.32 69.9449 218.885C70.2013 218.722 70.5911 218.561 70.799 218.334C70.8314 218.29 71.0036 218.241 71.012 218.193C71.1612 217.475 70.2028 218.37 70.1204 218.445C69.3241 219.12 68.6938 220.324 68.0363 221.143C67.1149 222.282 66.1671 223.402 65.2193 224.521C61.8458 228.508 58.1858 232.46 55.5925 237.008C55.1919 237.717 54.5283 238.598 54.9132 239.438C55.298 240.279 56.2584 240.43 56.9847 240.016C58.7832 238.994 60.3875 237.204 61.9232 235.84C65.7256 232.468 69.4508 228.998 73.2069 225.579C73.5995 225.231 73.9897 224.867 74.3823 224.519C74.5407 224.378 74.8124 224.211 74.9268 224.038L75.0375 223.943C75.418 223.722 75.3393 223.46 74.7993 223.143C74.6183 223.186 74.1755 224.339 74.0958 224.484C73.8032 225.028 73.5105 225.572 73.2178 226.117C71.9285 228.491 70.6041 230.84 69.2995 233.216C68.0918 235.407 66.8927 237.604 65.753 239.83C65.0778 241.151 63.2692 243.604 64.1903 245.098C65.6558 247.454 67.2983 244.987 68.2193 243.793C70.0029 241.484 71.7865 239.176 73.5701 236.867L84.4879 222.741C85.1796 221.839 86.0195 220.884 87.1198 220.515C88.5251 220.044 90.2204 220.561 91.638 220.792C93.2875 221.059 94.9371 221.325 96.5843 221.576C103.217 222.612 109.873 223.543 116.512 224.515C119.668 224.983 122.834 225.458 125.992 225.941C127.113 226.115 127.288 224.386 126.181 224.194C119.824 223.116 113.46 222.156 107.086 221.175C103.894 220.681 100.705 220.203 97.5152 219.724C94.549 219.274 91.4309 218.441 88.4266 218.411C85.6254 218.381 83.8915 220.347 82.3241 222.38L77.4494 228.734C73.7095 233.604 69.9695 238.474 66.2296 243.344C66.1907 243.397 65.3971 244.399 65.4059 244.406C65.5688 244.553 66.5062 242.435 66.5942 242.242C67.0819 241.231 67.5936 240.224 68.1141 239.223C70.4566 234.721 73.0032 230.328 75.3896 225.858C75.9189 224.864 77.7161 221.819 75.1755 221.86C74.3498 221.875 73.7076 222.691 73.1372 223.207C72.2719 223.994 71.4066 224.781 70.5413 225.568C66.8634 228.937 63.2166 232.355 59.4637 235.641C58.698 236.312 57.9234 236.975 57.1401 237.633C57.0294 237.728 56.1882 238.261 56.1807 238.419L56.6371 238.646C56.708 238.495 56.7876 238.35 56.8737 238.197C57.0904 237.976 57.2248 237.573 57.3887 237.314C58.6714 235.206 60.1933 233.234 61.7375 231.305C65.0055 227.241 68.6887 223.442 71.6555 219.142C72.1176 218.479 72.4937 217.711 71.8936 216.997C71.3772 216.372 70.6417 216.468 70.0154 216.82C69.5543 217.077 69.1112 217.402 68.6548 217.69L61.3478 222.373C58.5701 224.152 55.8013 225.938 53.0149 227.711C52.1237 228.275 51.2261 228.848 50.3349 229.413C50.222 229.492 49.8452 229.635 49.7937 229.76C49.7678 229.795 47.6731 230.924 50.394 229.958C50.7426 229.835 51.4595 228.532 51.6887 228.239C55.3415 223.671 59.8322 219.79 64.3993 216.154C68.9664 212.518 73.202 209.222 77.8661 206.227C80.9067 204.276 84.1816 205.062 87.5524 205.552C90.7154 206.011 93.8747 206.549 97.0149 207.168C103.722 208.489 110.36 210.181 116.888 212.225C119.939 213.185 122.971 214.227 125.973 215.327C126.826 215.644 127.337 214.324 126.476 214.001L126.494 214.014Z" fill="#1D1D1B"/>
<path d="M126.674 190.649C126.726 190.666 126.778 190.683 126.83 190.7C128.259 191.109 128.972 188.963 127.549 188.498C119.025 185.713 111.183 181.082 103.375 176.737C98.3944 173.972 93.5045 171.317 89.1041 167.903C89.2007 167.291 88.9894 166.601 88.2988 166.076C82.7778 161.836 78.4353 154.797 74.8184 148.95C73.2105 146.344 71.6887 143.686 70.1531 141.036C69.3224 139.604 68.5331 138.15 67.7129 136.722C67.3951 136.147 67.0808 135.561 66.7526 134.983C66.2928 133.752 65.4793 132.866 64.3566 132.292C64.3876 132.268 64.4324 132.271 64.4668 132.236L64.5355 132.167C64.7793 131.913 64.8734 131.484 64.5989 131.199L64.512 131.113C64.1262 130.712 63.4152 130.813 63.232 131.373C62.6386 133.259 64.4694 136.167 65.2332 137.98C67.0656 142.325 69.1321 146.551 71.4708 150.648C71.799 151.227 72.1411 151.833 72.4902 152.453C72.4078 152.529 72.3357 152.609 72.281 152.706C71.9524 153.219 71.7702 153.953 71.428 154.507C64.0396 149.932 57.0404 144.588 50.9482 138.403C49.9473 137.387 48.3527 138.785 49.2849 139.871C50.7807 141.624 52.314 143.297 53.885 144.925C53.924 145.087 53.9871 145.246 54.1331 145.397C56.7919 148.127 58.3712 151.735 60.9201 154.59C62.9232 156.831 65.0978 158.897 67.221 161.016C66.9779 161.373 66.8665 161.82 67.001 162.358C66.7708 161.409 56.9569 159.087 55.517 158.605C51.796 157.332 47.9658 156.287 44.306 154.861C42.9799 154.347 42.3289 156.41 43.6206 156.959C44.6388 157.395 45.671 157.858 46.7067 158.346C46.7012 158.574 46.7855 158.809 47.0281 158.946C52.4801 162.026 57.7473 165.39 63.2404 168.415C65.2782 169.529 67.1885 170.682 69.2034 171.444C70.627 173.839 74.2304 175.086 77.4078 176.124C83.4594 179.55 89.8353 182.3 96.1669 185.15C96.4163 185.266 96.6509 185.216 96.8435 185.084C98.3819 185.862 99.9202 186.641 101.462 187.409C106.922 190.147 112.436 193.11 118.149 195.287C122.857 197.09 123.603 194.104 126.681 190.662L126.674 190.649Z" fill="#FFD130"/>
<path opacity="0.5" d="M113.07 193.983C113.623 194.118 114.152 194.222 114.671 194.288C115.927 194.56 117.152 194.926 118.377 195.361C119.263 195.674 120.15 196.055 121.08 195.67C122.118 195.239 122.943 193.98 123.708 193.219C124.873 192.048 126.113 190.959 127.354 189.871C128.299 189.053 127.808 187.778 126.82 187.318C125.515 186.707 124.381 186.095 123.272 186.606C123.309 185.929 122.331 185.828 122.09 186.427C120.749 189.861 117.033 192.371 113.341 192.486C112.412 192.515 112.312 193.666 113.077 193.962L113.066 193.993L113.07 193.983Z" fill="#B28736"/>
<path d="M129.756 188.499C119.63 182.593 108.6 178.437 98.5087 172.462C93.9259 169.746 89.3305 166.647 85.7489 162.661C82.1672 158.675 79.7334 154.272 77.2645 149.764C74.6803 145.047 72.2578 140.222 69.3809 135.662C68.0941 133.621 66.7214 131.632 65.1629 129.79C64.5402 129.058 63.9025 128.125 62.8355 128.19C61.91 128.244 61.1376 129.061 61.0982 129.99C61.0558 130.999 61.7536 132.169 62.0942 133.097C62.5996 134.434 63.1187 135.764 63.6412 137.084C64.6652 139.683 65.7306 142.26 66.8236 144.824C67.8464 147.215 68.9002 149.582 70.0299 151.928C70.1593 152.2 70.7423 153.23 70.6662 153.216C70.4967 153.172 70.2496 152.873 70.1246 152.764L57.1064 141.924L51.6214 137.363C51.0868 136.924 50.7326 136.601 49.9722 136.536C48.3721 136.404 47.2902 138.062 47.7377 139.541C47.9808 140.345 48.7001 141.062 49.1842 141.726C49.8982 142.706 50.626 143.68 51.3537 144.653C52.8369 146.62 54.3477 148.573 55.8894 150.502C57.553 152.586 59.2371 154.642 60.983 156.649C61.7413 157.528 62.5272 158.394 63.3164 159.25C63.6814 159.645 64.0465 160.04 64.4253 160.428C64.6234 160.631 64.8215 160.833 65.0196 161.036L65.2524 161.273C65.573 161.734 65.8172 161.549 65.9988 160.712C65.8871 160.526 64.6433 160.499 64.384 160.449C63.7164 160.311 63.0557 160.153 62.4018 159.974C61.1562 159.636 59.9309 159.235 58.7125 158.814C56.0298 157.88 53.3844 156.832 50.7051 155.887C48.2404 155.024 45.6511 154.121 43.0448 153.832C41.1367 153.623 39.7914 155.7 41.3097 157.173C42.3382 158.175 43.9003 158.881 45.1104 159.644C46.6083 160.582 48.0958 161.516 49.6074 162.447C52.4573 164.206 55.345 165.919 58.2395 167.612C63.8758 170.902 69.5875 174.067 75.364 177.103C86.9344 183.194 98.7678 188.796 110.809 193.869C113.818 195.139 116.841 196.369 119.874 197.567C121.308 198.138 122.041 195.861 120.617 195.293C96.7571 185.841 73.7311 174.363 51.8064 161.028C50.5202 160.251 49.2478 159.468 47.9684 158.67C46.6127 157.825 45.1753 156.597 43.707 155.991C43.8109 156.025 41.8392 154.99 42.54 156.081C42.5713 156.125 43.2073 156.184 43.3179 156.197C43.9611 156.304 44.5907 156.452 45.2169 156.611C46.5453 156.941 47.85 157.345 49.1446 157.779C54.0942 159.442 58.9159 161.673 64.0724 162.669C64.937 162.836 66.2315 163.271 67.0752 162.834C67.8467 162.442 68.0653 161.422 67.7257 160.668C67.3478 159.855 66.3765 159.169 65.7578 158.531C64.9792 157.713 64.2177 156.878 63.4701 156.036C60.1003 152.246 56.9367 148.282 53.866 144.244C52.5536 142.528 51.2617 140.785 49.9973 139.027C49.5933 138.47 49.8993 138.799 50.2673 139.115L55.3775 143.382L68.4201 154.252C68.7637 154.537 69.0974 154.887 69.4685 155.123C70.8763 156.02 72.8325 155.027 72.9401 153.362C72.9964 152.38 72.2893 151.379 71.887 150.535C71.3624 149.433 70.8549 148.313 70.3473 147.194C69.2516 144.744 68.2076 142.277 67.1911 139.796C66.1746 137.314 65.2206 134.888 64.2803 132.42C64.0943 131.934 63.9053 130.93 63.5748 130.535C63.5331 130.487 63.0926 129.021 62.8426 130.56C62.829 130.602 63.3538 131.141 63.3364 131.124C64.133 132.062 64.8849 133.032 65.6025 134.036C68.5841 138.205 70.9707 142.789 73.3947 147.293C75.8188 151.797 78.229 156.308 81.2003 160.474C84.1715 164.64 87.5923 167.711 91.6126 170.53C100.795 176.967 111.355 181.084 121.347 186.061C123.848 187.304 126.309 188.602 128.728 189.99C129.754 190.579 130.771 189.049 129.748 188.451L129.756 188.499Z" fill="#1D1D1B"/>
<path d="M287.11 223.062C280.752 226.557 271.257 231.723 264.87 235.163L264.37 235.663C252.782 242.091 242.87 246.163 230.111 249.74C225.223 251.477 220.282 252.968 215.215 254.089C206.145 256.097 196.847 257.732 187.579 256.208C186.981 256.112 186.591 255.807 186.382 255.423C180.977 256.374 175.862 256.603 170.263 255.383C163.068 253.823 157.527 249.075 150.633 247.052C149.631 246.76 149.258 245.916 149.342 245.123C133.911 234.671 116.909 220.495 119.816 199.947C121.184 190.278 127.639 181.795 133.707 174.457C139.453 167.52 146.41 163.491 154.898 161.895C155.018 161.687 155.212 161.499 155.519 161.398C162.29 159.229 168.9 158.314 175.99 159.19C196.631 164.125 239.157 174.512 244.141 176.579C244.396 176.192 244.831 175.941 245.462 176.006C261.867 177.811 276.6 171.978 291.326 165.608C291.749 165.162 292.296 164.405 292.908 164.241C293.208 164.105 293.595 164.273 293.717 164.594C294.45 164.422 294.975 165.331 294.339 165.824C295.111 168.582 295.602 170.896 297.361 173.287C299.381 176.043 301.822 178.305 304.471 180.446C305.617 181.361 304.502 183.165 303.304 183.1C301.623 186 303.324 191.502 304.181 194.362C305.413 198.507 307.288 202.432 308.579 206.568C308.973 207.841 307.843 208.658 306.801 208.579C300.19 213.493 294.425 219.041 287.11 223.062Z" fill="#FF8C00"/>
<path opacity="0.5" d="M156.009 248.654C140.193 239.37 128.465 220.674 129.892 202.128C131.293 183.799 144.39 168.076 161.073 161.143C162.143 160.702 161.383 158.795 160.289 159.238C157.966 160.175 155.715 161.235 153.554 162.407C153.228 161.952 152.622 161.646 151.958 161.916C144.345 165.05 138.028 169.706 133.2 175.546C123.457 183.467 120.758 195.33 120.816 207.557C120.228 207.695 119.702 208.226 119.85 208.985C120.738 213.757 121.331 218.978 124.793 222.201C124.719 222.421 124.699 222.671 124.749 222.933C125.219 224.97 127.296 226.71 128.619 228.216C130.401 230.253 132.205 232.263 134.395 233.85C134.4 233.859 134.415 233.863 134.436 233.877C135.232 234.754 136.085 235.598 137.009 236.389C137.21 236.563 137.417 236.659 137.635 236.709C142.357 242.484 148.241 247.324 154.822 250.726C156.186 251.428 157.343 249.435 156.009 248.654Z" fill="#AA5B18"/>
<path d="M303.401 198.654C302.58 199.441 302.212 200.518 301.966 201.606C301.689 202.809 301.435 204.053 301.384 205.295C301.287 207.599 302.23 209.864 304.451 210.776C304.898 210.964 305.445 210.568 305.561 210.135C305.677 209.702 305.384 209.194 304.92 209.024C303.327 208.428 302.852 206.401 302.846 204.906C302.836 203.931 302.95 202.955 303.072 201.993C303.194 201.03 303.414 200.083 304.115 199.366C304.568 198.899 303.873 198.204 303.404 198.644L303.401 198.654Z" fill="#1D1D1B"/>
<path d="M313.213 148.228C307.314 144.459 300.661 142.056 293.714 141.172C292.589 141.03 292.589 142.81 293.714 142.941C300.355 143.76 306.757 146.022 312.437 149.539C313.267 150.052 314.021 148.752 313.202 148.228L313.213 148.228Z" fill="#1D1D1B"/>
<path d="M322.212 148.228C328.111 144.459 334.763 142.056 341.711 141.172C342.836 141.03 342.836 142.81 341.711 142.941C335.069 143.76 328.668 146.022 322.988 149.539C322.157 150.052 321.404 148.752 322.223 148.228L322.212 148.228Z" fill="#1D1D1B"/>
<path d="M308.487 206.912C293.692 217.421 278.351 227.225 262.122 235.383C245.894 243.542 229.457 249.525 211.97 252.684C202.19 254.446 192.256 255.199 182.326 254.801C180.413 254.72 180.406 257.701 182.314 257.773C200.171 258.399 217.993 255.274 234.902 249.649C251.811 244.024 268.33 235.495 283.77 225.95C292.566 220.518 301.153 214.766 309.551 208.732C310.649 207.947 309.604 206.116 308.491 206.897L308.487 206.912Z" fill="#1D1D1B"/>
<path d="M215.611 169.111C202.008 164.755 188.531 159.065 174.158 157.852C160.543 156.707 147.335 160.637 136.736 169.304C126.137 177.971 118.998 190.708 118.369 204.366C118.035 211.761 119.887 219.055 124.21 225.123C128.534 231.191 134.247 236.521 140.083 241.123C151.996 250.529 166.813 257.905 182.307 257.651C184.066 257.619 184.086 254.921 182.319 254.919C169.1 254.92 156.533 249.474 145.806 242.057C140.2 238.18 135.063 233.653 130.399 228.677C127.581 225.674 124.988 222.429 123.26 218.671C121.836 215.571 121.054 212.162 120.796 208.767C119.806 195.451 126.083 182.379 135.633 173.359C145.183 164.339 157.661 159.581 170.73 159.932C186.107 160.35 200.579 166.627 215.033 171.236C216.39 171.663 216.953 169.535 215.605 169.102L215.611 169.111Z" fill="#1D1D1B"/>
<path d="M293.443 162.722C278.224 171.295 260.424 175.529 242.978 174.565C241.574 174.493 241.569 176.69 242.967 176.753C260.838 177.536 278.728 172.933 294.203 164.037C295.054 163.545 294.3 162.24 293.443 162.722Z" fill="#1D1D1B"/>
<path d="M275.532 217.625C271.909 219.628 268.125 221.333 264.209 222.699C263.519 222.946 263.8 224.045 264.496 223.807C268.503 222.402 272.382 220.667 276.095 218.599C276.725 218.248 276.162 217.274 275.532 217.625Z" fill="#1D1D1B"/>
<path d="M169.46 181C164.794 181.549 160.207 182.671 155.826 184.368C155.157 184.628 155.531 185.56 156.199 185.275C160.477 183.486 164.958 182.312 169.552 181.728C169.965 181.679 169.878 180.96 169.465 181.009L169.46 181Z" fill="#1D1D1B"/>
<path d="M176.25 175.654C173.341 175.226 170.384 175.282 167.5 175.836C166.886 175.952 167.134 176.906 167.743 176.781C170.503 176.209 173.351 176.117 176.148 176.482C176.611 176.542 176.724 175.733 176.255 175.663L176.25 175.654Z" fill="#1D1D1B"/>
<path d="M351.482 190.277C351.532 190.177 351.571 190.074 351.599 189.969C353.478 182.827 352.529 176.24 348.419 171.067C347.52 169.232 346.114 167.724 344.164 166.772L344.143 166.766C339.805 162.992 334.473 163.225 329.032 163.611C328.56 163.643 328.295 163.956 328.212 164.307C325.262 164.976 322.436 166.152 320.017 167.709C316.961 161.179 310.019 157.329 303.069 155.455C295.556 153.442 288.602 155.888 283.517 161.277C283.328 161.305 283.149 161.382 282.987 161.564C276.563 169.162 274.636 180.067 279.636 189.052C284.377 197.571 294.743 202.102 303.745 198.599C308.236 197.541 313.318 195.917 315.858 192.221C322.362 197.153 330.516 198.885 337.011 203.894C337.312 204.122 337.609 204.235 337.905 204.269C337.95 204.315 337.983 204.358 338.028 204.404C338.75 205.129 339.785 205.022 340.524 204.417C345.007 200.767 349.957 197.151 351.573 191.33C351.683 190.919 351.642 190.568 351.501 190.293L351.482 190.277Z" fill="white"/>
<path d="M291.036 199.141C302.903 202.671 316.598 196.174 321.149 184.592C324.67 175.628 320.802 165.839 313.757 159.801C306.738 153.792 296.689 151.326 288.22 155.752C280.211 159.939 275.153 168.433 274.896 177.412C274.759 182.102 275.974 186.895 278.574 190.826C279.943 192.889 281.646 194.68 283.624 196.16C285.723 197.74 288.501 198.597 291.036 199.141C291.527 199.25 291.671 198.587 291.231 198.413C283.594 195.258 277.742 188.567 276.966 180.194C276.228 172.272 279.612 164.245 285.947 159.383C289.394 156.733 293.525 155.16 297.894 155.188C302.263 155.217 306.269 156.641 309.829 158.884C316.89 163.343 322.197 171.562 321.048 180.154C319.238 193.704 303.843 202.075 291.228 198.423C290.753 198.296 290.572 199.016 291.033 199.151L291.036 199.141Z" fill="#1D1D1B"/>
<path d="M378.245 234.236C378.13 233.866 377.854 233.543 377.337 233.405C376.862 233.277 376.43 233.116 376.018 232.927C375.005 231.852 373.774 231.002 372.632 230.029C370.757 228.418 369.045 226.659 367.474 224.757C366.981 224.15 366.324 224.155 365.799 224.466C359.232 218.715 351.773 213.335 344.474 208.879C335.134 203.176 326.416 197.516 316.375 193.038C316.03 192.889 315.702 192.892 315.424 192.998C315.228 193.014 315.028 193.084 314.869 193.257C313.1 195.214 310.888 196.634 308.396 197.493C307.037 197.966 304.95 198.029 304.48 199.701C304.02 201.331 305.232 203.815 306.229 204.863C307.658 206.366 309.86 206.673 311.555 207.862C314.418 211.23 319.682 212.731 323.553 214.447C330.052 217.331 336.659 219.938 343.17 222.779C353.373 227.244 362.787 232.921 373.613 235.234C374.576 235.605 375.578 235.874 376.606 236.047C376.963 236.109 377.256 236.029 377.515 235.906C377.613 235.921 377.71 235.936 377.808 235.951C378.75 236.067 379 234.585 378.224 234.23L378.245 234.236Z" fill="#FFD130"/>
<path opacity="0.5" d="M343.45 222.029C336.964 218.968 330.648 215.613 324.341 212.181C323.661 211.807 322.965 211.451 322.258 211.092C321.909 210.874 321.558 210.667 321.209 210.449C318.842 208.944 316.426 207.493 314.045 205.996C312.146 204.809 306.369 201.723 306.023 199.131C305.926 198.437 305.125 198.177 304.704 198.777C304.028 199.738 304.1 200.821 304.692 201.986C304.616 202.271 304.642 202.594 304.902 202.89C311.169 209.975 320.587 214.331 329.915 218.052C333.323 219.598 335.999 220.711 336.97 221.141C337.244 221.259 337.504 221.216 337.715 221.103C339.445 221.781 341.153 222.454 342.79 223.141C343.532 223.453 344.199 222.399 343.436 222.036L343.45 222.029Z" fill="#B28736"/>
<path d="M315.47 192.954C333.306 202.11 350.178 213.043 366.01 225.326C370.551 228.849 375.002 232.496 379.356 236.253L379.583 234.561C377.436 235.693 374.987 235.003 372.832 234.222C370.235 233.277 367.703 232.135 365.148 231.077C359.548 228.762 353.954 226.427 348.382 224.051C337.377 219.372 326.451 214.522 315.702 209.267C312.843 207.868 309.78 206.55 307.381 204.403C306.672 203.76 305.844 203.052 305.338 202.238C304.832 201.424 304.87 200.439 304.968 199.481C305.106 198.037 302.848 198.065 302.713 199.499C302.538 201.375 302.886 202.904 304.131 204.335C305.896 206.357 308.107 207.899 310.46 209.163C316.127 212.197 322.039 214.822 327.885 217.485C339.668 222.848 351.614 227.858 363.587 232.808C366.713 234.098 369.813 235.573 373.025 236.626C375.552 237.45 378.234 237.739 380.651 236.441C381.221 236.13 381.404 235.195 380.879 234.749C365.489 221.658 348.929 209.937 331.368 199.928C326.366 197.072 321.273 194.385 316.109 191.836C315.36 191.466 314.687 192.586 315.444 192.97L315.47 192.954Z" fill="#1D1D1B"/>
<path d="M320.459 168.676C326.705 162.965 336.888 161.599 343.996 166.557C347.741 169.167 350.246 173.321 351.381 177.697C352.775 183.046 351.595 188 349.555 192.995C348.513 195.531 347.533 197.712 345.527 199.628C343.521 201.545 341.37 202.902 338.921 203.897C337.638 204.424 338.138 206.526 339.513 206.035C343.888 204.481 348.445 200.896 350.269 196.534C352.597 190.971 354.687 185.323 353.528 179.222C352.603 174.36 350.147 169.642 346.318 166.456C342.804 163.535 338.325 162.143 333.772 162.212C328.561 162.286 323.451 164.264 319.626 167.819C319.055 168.345 319.905 169.183 320.462 168.665L320.459 168.676Z" fill="#1D1D1B"/>
<path d="M304.785 177.995C304.733 178.57 304.853 179.133 305.099 179.651C305.214 179.897 305.361 180.106 305.53 180.321C305.818 180.681 306.219 180.913 306.675 180.945C307.373 180.996 307.955 180.428 308.235 179.847C308.515 179.266 308.722 178.666 308.793 178.018C308.865 177.37 308.653 176.725 308.233 176.228C307.923 175.862 307.456 175.579 306.992 175.454C306.412 175.299 305.714 175.372 305.277 175.82C305.032 176.06 304.894 176.362 304.817 176.692C304.751 176.98 304.707 177.273 304.694 177.575C304.682 178.081 304.861 178.638 305.256 178.981C305.514 179.197 305.725 179.299 306.033 179.415C306.164 179.473 306.288 179.518 306.422 179.565L306.149 179.447L306.17 179.452C306.454 179.574 306.704 179.652 307.01 179.564C307.266 179.497 307.545 179.3 307.666 179.061C307.802 178.804 307.871 178.506 307.778 178.221C307.697 177.973 307.527 177.679 307.275 177.566C307.04 177.469 306.803 177.383 306.569 177.286L306.843 177.405C306.751 177.369 306.661 177.322 306.586 177.268L306.81 177.441C306.81 177.441 306.737 177.376 306.704 177.333L306.869 177.559C306.869 177.559 306.813 177.476 306.792 177.425L306.904 177.681C306.876 177.617 306.862 177.545 306.857 177.476L306.895 177.758C306.876 177.617 306.889 177.485 306.902 177.353L306.868 177.649C306.898 177.453 306.923 177.234 306.995 177.05L306.876 177.323C306.876 177.323 306.917 177.255 306.939 177.216L306.765 177.441C306.765 177.441 306.811 177.396 306.827 177.378L306.602 177.544C306.602 177.544 306.672 177.495 306.722 177.474L306.466 177.586C306.466 177.586 306.554 177.553 306.61 177.557L306.328 177.595C306.411 177.583 306.487 177.592 306.564 177.601L306.268 177.567C306.408 177.593 306.534 177.627 306.669 177.675L306.406 177.559C306.527 177.614 306.645 177.68 306.757 177.766L306.532 177.593C306.616 177.661 306.697 177.739 306.764 177.825L306.596 177.61C306.655 177.682 306.691 177.76 306.724 177.848L306.622 177.594C306.668 177.72 306.7 177.853 306.722 177.983L306.681 177.712C306.699 177.898 306.696 178.078 306.683 178.255L306.722 177.983C306.67 178.387 306.534 178.769 306.39 179.138L306.489 178.893C306.426 179.046 306.341 179.193 306.238 179.324L306.392 179.127C306.357 179.174 306.312 179.219 306.269 179.252L306.467 179.102C306.467 179.102 306.397 179.151 306.347 179.172L306.576 179.075C306.576 179.075 306.515 179.092 306.478 179.105L306.725 179.069C306.725 179.069 306.621 179.076 306.566 179.072L306.817 179.105C306.817 179.105 306.754 179.088 306.722 179.08L306.956 179.177C306.874 179.143 306.809 179.092 306.744 179.041L306.932 179.182C306.812 179.081 306.716 178.976 306.612 178.858C306.786 179.052 306.695 178.971 306.656 178.904C306.63 178.874 306.617 178.837 306.605 178.8C306.589 178.773 306.577 178.736 306.561 178.709C306.525 178.631 306.648 178.936 306.592 178.762C306.567 178.688 306.549 178.627 306.524 178.552C306.512 178.515 306.512 178.47 306.5 178.432C306.467 178.299 306.521 178.608 306.514 178.504C306.504 178.332 306.491 178.17 306.504 177.993C306.533 177.548 306.082 177.122 305.647 177.141C305.154 177.167 304.843 177.525 304.795 177.998L304.785 177.995Z" fill="#1D1D1B"/>
<path d="M346.865 184.578C346.941 185.559 347.225 186.653 348.276 186.991C349.328 187.33 350.451 186.387 350.636 185.362C350.749 184.77 350.669 184.183 350.53 183.603C350.391 183.023 350.213 182.421 349.673 182.073C349.036 181.665 348.27 181.867 347.732 182.311C347.324 182.654 347.058 183.182 346.975 183.702C346.874 184.376 346.973 185.059 347.377 185.62C347.649 185.998 347.973 186.311 348.421 186.453C348.784 186.573 349.214 186.53 349.569 186.388C349.825 186.275 350.026 186.16 350.181 185.918C350.355 185.648 350.348 185.296 350.231 185.016C350.118 184.759 349.952 184.579 349.686 184.474C349.37 184.344 349.099 184.385 348.789 184.528C349.046 184.415 348.832 184.494 348.768 184.522C348.686 184.534 348.731 184.535 348.899 184.5C348.867 184.492 348.83 184.505 348.809 184.499L349.081 184.538C349.017 184.521 348.965 184.507 348.902 184.49L349.157 184.592C349.157 184.592 349.096 184.565 349.078 184.549C348.991 184.491 349.02 184.51 349.162 184.616C349.131 184.563 349.044 184.506 349.003 184.449L348.928 184.35C349.018 184.476 349.037 184.492 348.987 184.422C348.956 184.369 348.931 184.294 348.887 184.248C348.948 184.401 348.961 184.438 348.931 184.339C348.918 184.302 348.913 184.278 348.9 184.241C348.888 184.203 348.883 184.179 348.881 184.145C348.861 184.049 348.863 184.084 348.898 184.251C348.91 184.119 348.892 183.978 348.904 183.846L348.868 184.108C348.889 183.989 348.92 183.873 348.959 183.77C349.001 183.612 348.863 183.959 348.945 183.823C348.983 183.765 349.021 183.708 349.045 183.658C348.917 183.883 348.978 183.741 349.04 183.679C349.188 183.549 348.892 183.764 349.037 183.689C349.061 183.684 349.077 183.666 349.104 183.651C349.197 183.597 348.914 183.724 349.013 183.694L349.074 183.677C349.074 183.677 348.841 183.705 348.968 183.693C348.708 183.692 348.786 183.656 348.857 183.686C348.867 183.689 348.646 183.585 348.733 183.642C348.833 183.691 348.59 183.502 348.657 183.588C348.668 183.59 348.691 183.63 348.712 183.636C348.691 183.63 348.593 183.446 348.66 183.577C348.675 183.604 348.683 183.617 348.698 183.644C348.788 183.815 348.643 183.471 348.703 183.668C348.792 183.929 348.88 184.19 348.944 184.456C348.959 184.528 348.974 184.6 348.991 184.661C349.028 184.818 348.986 184.512 348.989 184.672C348.993 184.74 348.997 184.809 349.001 184.878C348.992 184.91 349.002 184.958 349.001 185.003C348.993 185.035 348.983 185.156 349.004 185.037C349.037 184.911 348.984 185.111 348.975 185.143C348.964 185.185 348.895 185.359 348.955 185.217C349.016 185.075 348.934 185.256 348.915 185.285C348.906 185.317 348.79 185.455 348.871 185.364C348.968 185.254 348.838 185.4 348.809 185.426C348.779 185.452 348.648 185.564 348.747 185.489C348.846 185.414 348.71 185.501 348.669 185.525C348.643 185.54 348.568 185.565 348.669 185.525C348.798 185.469 348.659 185.522 348.635 185.527C348.52 185.575 348.781 185.532 348.656 185.532L348.566 185.531C348.569 185.52 348.724 185.573 348.653 185.543C348.632 185.537 348.6 185.529 348.59 185.526C348.471 185.505 348.632 185.537 348.65 185.554C348.65 185.554 348.6 185.529 348.59 185.526C348.48 185.474 348.596 185.505 348.616 185.556C348.603 185.518 348.527 185.464 348.491 185.432C348.47 185.426 348.421 185.356 348.491 185.432C348.566 185.531 348.486 185.408 348.468 185.391C348.437 185.338 348.406 185.284 348.386 185.234C348.362 185.194 348.381 185.165 348.386 185.234C348.397 185.316 348.386 185.234 348.381 185.21C348.335 185.085 348.3 184.962 348.278 184.832C348.261 184.771 348.257 184.702 348.239 184.64L348.224 184.569C348.201 184.404 348.24 184.72 348.224 184.569C348.175 184.205 347.929 183.856 347.518 183.87C347.163 183.888 346.789 184.184 346.82 184.577L346.865 184.578Z" fill="#1D1D1B"/>
<path d="M205.493 201.544C200.16 206.211 189.193 215.944 187.993 217.544C186.493 219.544 179.993 228.044 177.993 238.044C175.993 248.044 174.993 259.044 176.993 266.544C178.993 274.044 179.993 281.044 186.493 286.544C194.716 280.109 189.901 273.674 186.49 270.528C185.17 264.008 192.011 241.53 214.993 224.544C219.418 221.274 227.493 218.044 227.493 218.044L226.993 210.544L215.993 203.544L205.493 201.544Z" fill="#FF8C00"/>
<path opacity="0.5" d="M207.227 201.483C210.156 213.834 197.043 221.237 190.122 229.426C179.532 241.947 178.317 256.309 178.885 272.13C178.914 273.066 178.109 273.08 177.993 272.13C177.663 269.24 176.791 266.511 176.598 263.673C176.238 263.74 175.843 263.563 175.823 263.08C175.315 252.204 176.271 241.611 180.769 231.54C181.199 230.581 181.671 229.642 182.171 228.715C186.293 218.178 193.493 213.044 202.493 203.544C202.795 203.078 203.585 202.547 203.993 202.544C204.53 201.194 206.823 199.778 207.223 201.473L207.227 201.483Z" fill="#AA5B18"/>
<path d="M186.455 287.155C181.312 283.164 178.759 277.322 177.28 271.14C176.504 267.906 175.772 264.666 175.387 261.353C175.001 258.039 175.092 254.627 175.247 251.259C175.554 244.701 176.399 238.173 178.872 232.052C181.344 225.932 184.653 220.779 188.735 215.997C193.679 210.198 199.802 205.434 205.582 200.508C206.172 200.003 207.062 200.926 206.533 201.502C202.037 206.301 196.607 210.088 192.057 214.837C187.862 219.229 184.284 224.321 181.603 229.772C178.923 235.224 177.434 241.32 176.833 247.534C176.191 254.196 176.268 260.69 177.624 267.257C179.114 274.451 181.066 281.598 187.099 286.36C187.618 286.77 186.974 287.565 186.455 287.155Z" fill="#1D1D1B"/>
<path d="M187.008 285.81C189.95 283.345 191.083 279.231 189.659 275.647C188.97 273.899 187.732 272.43 186.15 271.408C184.569 270.386 182.98 269.623 182.704 267.671C182.541 266.506 184.36 266.339 184.519 267.494C184.655 268.495 185.771 269.063 186.548 269.538C187.408 270.076 188.189 270.655 188.881 271.397C190.261 272.87 191.196 274.711 191.567 276.697C192.258 280.444 190.597 284.338 187.591 286.605C187.075 287 186.52 286.218 187.008 285.81Z" fill="#1D1D1B"/>
<path d="M186.586 271.02C185.552 266.341 186.91 261.592 188.48 257.183C190.05 252.774 191.997 248.771 194.374 244.885C199.145 237.094 205.463 230.268 212.857 224.915C217.028 221.9 221.557 219.368 226.307 217.383C227.587 216.848 228.357 218.87 227.073 219.394C210.789 225.96 197.473 239.18 190.685 255.361C188.666 260.186 186.669 265.623 187.746 270.905C187.899 271.642 186.751 271.729 186.596 271.016L186.586 271.02Z" fill="#1D1D1B"/>
<path d="M209.5 168.163C218 171.163 238.5 176.163 245 175.663" stroke="#1D1D1B" stroke-width="2.2"/>
</svg>
