<svg width="50" height="33" viewBox="0 0 50 33" fill="none" xmlns="http://www.w3.org/2000/svg">
<path d="M12.8725 0.415527H10.2205V3.06747H12.8725V0.415527Z" fill="white"/>
<path d="M15.5238 0.415527H12.8719V3.06747H15.5238V0.415527Z" fill="white"/>
<path d="M18.1761 0.415527H15.524V3.06747H18.1761V0.415527Z" fill="white"/>
<path d="M20.8282 0.415527H18.1761V3.06747H20.8282V0.415527Z" fill="white"/>
<path d="M23.4801 0.415527H20.8281V3.06747H23.4801V0.415527Z" fill="white"/>
<path d="M26.1322 0.415527H23.4802V3.06747H26.1322V0.415527Z" fill="white"/>
<path d="M28.784 0.415527H26.132V3.06747H28.784V0.415527Z" fill="white"/>
<path d="M10.2201 3.06738H7.56812V5.71939H10.2201V3.06738Z" fill="white"/>
<path d="M12.8725 3.06738H10.2205V5.71939H12.8725V3.06738Z" fill="white"/>
<path d="M15.5238 3.06738H12.8719V5.71939H15.5238V3.06738Z" fill="black"/>
<path d="M18.1761 3.06738H15.524V5.71939H18.1761V3.06738Z" fill="black"/>
<path d="M20.8282 3.06738H18.1761V5.71939H20.8282V3.06738Z" fill="black"/>
<path d="M23.4801 3.06738H20.8281V5.71939H23.4801V3.06738Z" fill="black"/>
<path d="M26.1322 3.06738H23.4802V5.71939H26.1322V3.06738Z" fill="black"/>
<path d="M28.784 3.06738H26.132V5.71939H28.784V3.06738Z" fill="white"/>
<path d="M31.4359 3.06738H28.7841V5.71939H31.4359V3.06738Z" fill="white"/>
<path d="M7.56839 5.71973H4.91638V8.37173H7.56839V5.71973Z" fill="white"/>
<path d="M10.2201 5.71973H7.56812V8.37173H10.2201V5.71973Z" fill="white"/>
<path d="M12.8725 5.71973H10.2205V8.37173H12.8725V5.71973Z" fill="black"/>
<path d="M15.5238 5.71973H12.8719V8.37173H15.5238V5.71973Z" fill="white"/>
<path d="M18.1761 5.71973H15.524V8.37173H18.1761V5.71973Z" fill="white"/>
<path d="M20.8282 5.71973H18.1761V8.37173H20.8282V5.71973Z" fill="white"/>
<path d="M23.4801 5.71973H20.8281V8.37173H23.4801V5.71973Z" fill="white"/>
<path d="M26.1322 5.71973H23.4802V8.37173H26.1322V5.71973Z" fill="white"/>
<path d="M28.784 5.71973H26.132V8.37173H28.784V5.71973Z" fill="black"/>
<path d="M31.4359 5.71973H28.7841V8.37173H31.4359V5.71973Z" fill="white"/>
<path d="M34.0882 5.71973H31.4362V8.37173H34.0882V5.71973Z" fill="white"/>
<path d="M2.26455 8.37158H-0.387451V11.0235H2.26455V8.37158Z" fill="white"/>
<path d="M4.91604 8.37158H2.26404V11.0235H4.91604V8.37158Z" fill="white"/>
<path d="M7.56839 8.37158H4.91638V11.0235H7.56839V8.37158Z" fill="white"/>
<path d="M10.2201 8.37158H7.56812V11.0235H10.2201V8.37158Z" fill="black"/>
<path d="M12.8725 8.37158H10.2205V11.0235H12.8725V8.37158Z" fill="#9CC8FF"/>
<path d="M15.5238 8.37158H12.8719V11.0235H15.5238V8.37158Z" fill="#BDD7FF"/>
<path d="M18.1761 8.37158H15.524V11.0235H18.1761V8.37158Z" fill="#BDD7FF"/>
<path d="M20.8282 8.37158H18.1761V11.0235H20.8282V8.37158Z" fill="#BDD7FF"/>
<path d="M23.4801 8.37158H20.8281V11.0235H23.4801V8.37158Z" fill="#BDD7FF"/>
<path d="M26.1322 8.37158H23.4802V11.0235H26.1322V8.37158Z" fill="#BDD7FF"/>
<path d="M28.784 8.37158H26.132V11.0235H28.784V8.37158Z" fill="white"/>
<path d="M31.4359 8.37158H28.7841V11.0235H31.4359V8.37158Z" fill="black"/>
<path d="M34.0882 8.37158H31.4362V11.0235H34.0882V8.37158Z" fill="white"/>
<path d="M36.7403 8.37158H34.0883V11.0235H36.7403V8.37158Z" fill="white"/>
<path d="M2.26455 11.0234H-0.387451V13.6754H2.26455V11.0234Z" fill="black"/>
<path d="M4.91604 11.0234H2.26404V13.6754H4.91604V11.0234Z" fill="black"/>
<path d="M7.56839 11.0234H4.91638V13.6754H7.56839V11.0234Z" fill="black"/>
<path d="M10.2201 11.0234H7.56812V13.6754H10.2201V11.0234Z" fill="#80B8FF"/>
<path d="M12.8725 11.0234H10.2205V13.6754H12.8725V11.0234Z" fill="#9CC8FF"/>
<path d="M15.5238 11.0234H12.8719V13.6754H15.5238V11.0234Z" fill="#BDD7FF"/>
<path d="M18.1761 11.0234H15.524V13.6754H18.1761V11.0234Z" fill="#BDD7FF"/>
<path d="M20.8282 11.0234H18.1761V13.6754H20.8282V11.0234Z" fill="#BDD7FF"/>
<path d="M23.4801 11.0234H20.8281V13.6754H23.4801V11.0234Z" fill="#BDD7FF"/>
<path d="M26.1322 11.0234H23.4802V13.6754H26.1322V11.0234Z" fill="#BDD7FF"/>
<path d="M28.784 11.0234H26.132V13.6754H28.784V11.0234Z" fill="#BDD7FF"/>
<path d="M31.4359 11.0234H28.7841V13.6754H31.4359V11.0234Z" fill="white"/>
<path d="M34.0882 11.0234H31.4362V13.6754H34.0882V11.0234Z" fill="black"/>
<path d="M36.7403 11.0234H34.0883V13.6754H36.7403V11.0234Z" fill="white"/>
<path d="M39.3922 11.0234H36.7402V13.6754H39.3922V11.0234Z" fill="white"/>
<path d="M2.26455 13.6753H-0.387451V16.3273H2.26455V13.6753Z" fill="white"/>
<path d="M4.91604 13.6753H2.26404V16.3273H4.91604V13.6753Z" fill="white"/>
<path d="M7.56839 13.6753H4.91638V16.3273H7.56839V13.6753Z" fill="#80B8FF"/>
<path d="M10.2201 13.6753H7.56812V16.3273H10.2201V13.6753Z" fill="#80B8FF"/>
<path d="M12.8725 13.6753H10.2205V16.3273H12.8725V13.6753Z" fill="#9CC8FF"/>
<path d="M15.5238 13.6753H12.8719V16.3273H15.5238V13.6753Z" fill="#9CC8FF"/>
<path d="M18.1761 13.6753H15.524V16.3273H18.1761V13.6753Z" fill="#BDD7FF"/>
<path d="M20.8282 13.6753H18.1761V16.3273H20.8282V13.6753Z" fill="#BDD7FF"/>
<path d="M23.4801 13.6753H20.8281V16.3273H23.4801V13.6753Z" fill="#BDD7FF"/>
<path d="M26.1322 13.6753H23.4802V16.3273H26.1322V13.6753Z" fill="#BDD7FF"/>
<path d="M28.784 13.6753H26.132V16.3273H28.784V13.6753Z" fill="#BDD7FF"/>
<path d="M31.4359 13.6753H28.7841V16.3273H31.4359V13.6753Z" fill="#BDD7FF"/>
<path d="M34.0882 13.6753H31.4362V16.3273H34.0882V13.6753Z" fill="#80B8FF"/>
<path d="M36.7403 13.6753H34.0883V16.3273H36.7403V13.6753Z" fill="black"/>
<path d="M39.3922 13.6753H36.7402V16.3273H39.3922V13.6753Z" fill="white"/>
<path d="M42.0441 13.6753H39.3921V16.3273H42.0441V13.6753Z" fill="white"/>
<path d="M2.26455 16.3276H-0.387451V18.9796H2.26455V16.3276Z" fill="#BDD7FF"/>
<path d="M4.91604 16.3276H2.26404V18.9796H4.91604V16.3276Z" fill="#BDD7FF"/>
<path d="M7.56839 16.3276H4.91638V18.9796H7.56839V16.3276Z" fill="white"/>
<path d="M10.2201 16.3276H7.56812V18.9796H10.2201V16.3276Z" fill="white"/>
<path d="M12.8725 16.3276H10.2205V18.9796H12.8725V16.3276Z" fill="#80B8FF"/>
<path d="M15.5238 16.3276H12.8719V18.9796H15.5238V16.3276Z" fill="#80B8FF"/>
<path d="M18.1761 16.3276H15.524V18.9796H18.1761V16.3276Z" fill="#9CC8FF"/>
<path d="M20.8282 16.3276H18.1761V18.9796H20.8282V16.3276Z" fill="#9CC8FF"/>
<path d="M23.4801 16.3276H20.8281V18.9796H23.4801V16.3276Z" fill="#9CC8FF"/>
<path d="M26.1322 16.3276H23.4802V18.9796H26.1322V16.3276Z" fill="#BDD7FF"/>
<path d="M28.784 16.3276H26.132V18.9796H28.784V16.3276Z" fill="#BDD7FF"/>
<path d="M31.4359 16.3276H28.7841V18.9796H31.4359V16.3276Z" fill="#BDD7FF"/>
<path d="M34.0882 16.3276H31.4362V18.9796H34.0882V16.3276Z" fill="#BDD7FF"/>
<path d="M36.7403 16.3276H34.0883V18.9796H36.7403V16.3276Z" fill="#80B8FF"/>
<path d="M39.3922 16.3276H36.7402V18.9796H39.3922V16.3276Z" fill="black"/>
<path d="M42.0441 16.3276H39.3921V18.9796H42.0441V16.3276Z" fill="black"/>
<path d="M44.6961 16.3276H42.0441V18.9796H44.6961V16.3276Z" fill="white"/>
<path d="M2.26455 18.9795H-0.387451V21.6315H2.26455V18.9795Z" fill="#BDD7FF"/>
<path d="M4.91604 18.9795H2.26404V21.6315H4.91604V18.9795Z" fill="#BDD7FF"/>
<path d="M7.56839 18.9795H4.91638V21.6315H7.56839V18.9795Z" fill="#BDD7FF"/>
<path d="M10.2201 18.9795H7.56812V21.6315H10.2201V18.9795Z" fill="#BDD7FF"/>
<path d="M12.8725 18.9795H10.2205V21.6315H12.8725V18.9795Z" fill="white"/>
<path d="M15.5238 18.9795H12.8719V21.6315H15.5238V18.9795Z" fill="white"/>
<path d="M18.1761 18.9795H15.524V21.6315H18.1761V18.9795Z" fill="#80B8FF"/>
<path d="M20.8282 18.9795H18.1761V21.6315H20.8282V18.9795Z" fill="#80B8FF"/>
<path d="M23.4801 18.9795H20.8281V21.6315H23.4801V18.9795Z" fill="#80B8FF"/>
<path d="M26.1322 18.9795H23.4802V21.6315H26.1322V18.9795Z" fill="#9CC8FF"/>
<path d="M28.784 18.9795H26.132V21.6315H28.784V18.9795Z" fill="#9CC8FF"/>
<path d="M31.4359 18.9795H28.7841V21.6315H31.4359V18.9795Z" fill="#9CC8FF"/>
<path d="M34.0882 18.9795H31.4362V21.6315H34.0882V18.9795Z" fill="#80B8FF"/>
<path d="M36.7403 18.9795H34.0883V21.6315H36.7403V18.9795Z" fill="white"/>
<path d="M39.3922 18.9795H36.7402V21.6315H39.3922V18.9795Z" fill="white"/>
<path d="M42.0441 18.9795H39.3921V21.6315H42.0441V18.9795Z" fill="#80B8FF"/>
<path d="M44.6961 18.9795H42.0441V21.6315H44.6961V18.9795Z" fill="black"/>
<path d="M47.3482 18.9795H44.6962V21.6315H47.3482V18.9795Z" fill="white"/>
<path d="M2.26455 21.6313H-0.387451V24.2834H2.26455V21.6313Z" fill="#9CC8FF"/>
<path d="M4.91604 21.6313H2.26404V24.2834H4.91604V21.6313Z" fill="#9CC8FF"/>
<path d="M7.56839 21.6313H4.91638V24.2834H7.56839V21.6313Z" fill="#9CC8FF"/>
<path d="M10.2201 21.6313H7.56812V24.2834H10.2201V21.6313Z" fill="#9CC8FF"/>
<path d="M12.8725 21.6313H10.2205V24.2834H12.8725V21.6313Z" fill="#9CC8FF"/>
<path d="M15.5238 21.6313H12.8719V24.2834H15.5238V21.6313Z" fill="#9CC8FF"/>
<path d="M18.1761 21.6313H15.524V24.2834H18.1761V21.6313Z" fill="white"/>
<path d="M20.8282 21.6313H18.1761V24.2834H20.8282V21.6313Z" fill="white"/>
<path d="M23.4801 21.6313H20.8281V24.2834H23.4801V21.6313Z" fill="white"/>
<path d="M26.1322 21.6313H23.4802V24.2834H26.1322V21.6313Z" fill="#80B8FF"/>
<path d="M28.784 21.6313H26.132V24.2834H28.784V21.6313Z" fill="#508FDA"/>
<path d="M31.4359 21.6313H28.7841V24.2834H31.4359V21.6313Z" fill="#80B8FF"/>
<path d="M34.0882 21.6313H31.4362V24.2834H34.0882V21.6313Z" fill="#9CC8FF"/>
<path d="M36.7403 21.6313H34.0883V24.2834H36.7403V21.6313Z" fill="#9CC8FF"/>
<path d="M39.3922 21.6313H36.7402V24.2834H39.3922V21.6313Z" fill="#9CC8FF"/>
<path d="M42.0441 21.6313H39.3921V24.2834H42.0441V21.6313Z" fill="white"/>
<path d="M44.6961 21.6313H42.0441V24.2834H44.6961V21.6313Z" fill="#80B8FF"/>
<path d="M47.3482 21.6313H44.6962V24.2834H47.3482V21.6313Z" fill="black"/>
<path d="M50.0001 21.6313H47.3483V24.2834H50.0001V21.6313Z" fill="white"/>
<path d="M2.26455 24.2832H-0.387451V26.9351H2.26455V24.2832Z" fill="#508FDA"/>
<path d="M4.91604 24.2832H2.26404V26.9351H4.91604V24.2832Z" fill="#508FDA"/>
<path d="M7.56839 24.2832H4.91638V26.9351H7.56839V24.2832Z" fill="#508FDA"/>
<path d="M10.2201 24.2832H7.56812V26.9351H10.2201V24.2832Z" fill="#508FDA"/>
<path d="M12.8725 24.2832H10.2205V26.9351H12.8725V24.2832Z" fill="#508FDA"/>
<path d="M15.5238 24.2832H12.8719V26.9351H15.5238V24.2832Z" fill="#508FDA"/>
<path d="M18.1761 24.2832H15.524V26.9351H18.1761V24.2832Z" fill="#508FDA"/>
<path d="M20.8282 24.2832H18.1761V26.9351H20.8282V24.2832Z" fill="#508FDA"/>
<path d="M23.4801 24.2832H20.8281V26.9351H23.4801V24.2832Z" fill="#508FDA"/>
<path d="M26.1322 24.2832H23.4802V26.9351H26.1322V24.2832Z" fill="#508FDA"/>
<path d="M28.784 24.2832H26.132V26.9351H28.784V24.2832Z" fill="black"/>
<path d="M31.4359 24.2832H28.7841V26.9351H31.4359V24.2832Z" fill="#508FDA"/>
<path d="M34.0882 24.2832H31.4362V26.9351H34.0882V24.2832Z" fill="#508FDA"/>
<path d="M36.7403 24.2832H34.0883V26.9351H36.7403V24.2832Z" fill="#508FDA"/>
<path d="M39.3922 24.2832H36.7402V26.9351H39.3922V24.2832Z" fill="#508FDA"/>
<path d="M42.0441 24.2832H39.3921V26.9351H42.0441V24.2832Z" fill="#508FDA"/>
<path d="M44.6961 24.2832H42.0441V26.9351H44.6961V24.2832Z" fill="#508FDA"/>
<path d="M47.3482 24.2832H44.6962V26.9351H47.3482V24.2832Z" fill="black"/>
<path d="M50.0001 24.2832H47.3483V26.9351H50.0001V24.2832Z" fill="white"/>
<path d="M2.26455 26.9355H-0.387451V29.5876H2.26455V26.9355Z" fill="black"/>
<path d="M4.91604 26.9355H2.26404V29.5876H4.91604V26.9355Z" fill="black"/>
<path d="M7.56839 26.9355H4.91638V29.5876H7.56839V26.9355Z" fill="black"/>
<path d="M10.2201 26.9355H7.56812V29.5876H10.2201V26.9355Z" fill="black"/>
<path d="M12.8725 26.9355H10.2205V29.5876H12.8725V26.9355Z" fill="black"/>
<path d="M15.5238 26.9355H12.8719V29.5876H15.5238V26.9355Z" fill="black"/>
<path d="M18.1761 26.9355H15.524V29.5876H18.1761V26.9355Z" fill="black"/>
<path d="M20.8282 26.9355H18.1761V29.5876H20.8282V26.9355Z" fill="black"/>
<path d="M23.4801 26.9355H20.8281V29.5876H23.4801V26.9355Z" fill="black"/>
<path d="M26.1322 26.9355H23.4802V29.5876H26.1322V26.9355Z" fill="black"/>
<path d="M28.784 26.9355H26.132V29.5876H28.784V26.9355Z" fill="white"/>
<path d="M31.4359 26.9355H28.7841V29.5876H31.4359V26.9355Z" fill="black"/>
<path d="M34.0882 26.9355H31.4362V29.5876H34.0882V26.9355Z" fill="black"/>
<path d="M36.7403 26.9355H34.0883V29.5876H36.7403V26.9355Z" fill="black"/>
<path d="M39.3922 26.9355H36.7402V29.5876H39.3922V26.9355Z" fill="black"/>
<path d="M42.0441 26.9355H39.3921V29.5876H42.0441V26.9355Z" fill="black"/>
<path d="M44.6961 26.9355H42.0441V29.5876H44.6961V26.9355Z" fill="black"/>
<path d="M47.3482 26.9355H44.6962V29.5876H47.3482V26.9355Z" fill="white"/>
<path d="M50.0001 26.9355H47.3483V29.5876H50.0001V26.9355Z" fill="white"/>
<path d="M2.26455 29.5874H-0.387451V32.2394H2.26455V29.5874Z" fill="white"/>
<path d="M4.91604 29.5874H2.26404V32.2394H4.91604V29.5874Z" fill="white"/>
<path d="M7.56839 29.5874H4.91638V32.2394H7.56839V29.5874Z" fill="white"/>
<path d="M10.2201 29.5874H7.56812V32.2394H10.2201V29.5874Z" fill="white"/>
<path d="M12.8725 29.5874H10.2205V32.2394H12.8725V29.5874Z" fill="white"/>
<path d="M15.5238 29.5874H12.8719V32.2394H15.5238V29.5874Z" fill="white"/>
<path d="M18.1761 29.5874H15.524V32.2394H18.1761V29.5874Z" fill="white"/>
<path d="M20.8282 29.5874H18.1761V32.2394H20.8282V29.5874Z" fill="white"/>
<path d="M23.4801 29.5874H20.8281V32.2394H23.4801V29.5874Z" fill="white"/>
<path d="M26.1322 29.5874H23.4802V32.2394H26.1322V29.5874Z" fill="white"/>
<path d="M28.784 29.5874H26.132V32.2394H28.784V29.5874Z" fill="white"/>
<path d="M31.4359 29.5874H28.7841V32.2394H31.4359V29.5874Z" fill="white"/>
<path d="M34.0882 29.5874H31.4362V32.2394H34.0882V29.5874Z" fill="white"/>
<path d="M36.7403 29.5874H34.0883V32.2394H36.7403V29.5874Z" fill="white"/>
<path d="M39.3922 29.5874H36.7402V32.2394H39.3922V29.5874Z" fill="white"/>
<path d="M42.0441 29.5874H39.3921V32.2394H42.0441V29.5874Z" fill="white"/>
<path d="M44.6961 29.5874H42.0441V32.2394H44.6961V29.5874Z" fill="white"/>
<path d="M47.3482 29.5874H44.6962V32.2394H47.3482V29.5874Z" fill="white"/>
</svg>
