<svg width="61" height="49" viewBox="0 0 61 49" fill="none" xmlns="http://www.w3.org/2000/svg">
<path d="M4.78912 0.979492H0.83242V4.93609H4.78912V0.979492Z" fill="white"/>
<path d="M8.74485 0.979492H4.78835V4.93609H8.74485V0.979492Z" fill="white"/>
<path d="M12.7017 0.979492H8.74504V4.93609H12.7017V0.979492Z" fill="white"/>
<path d="M16.6584 0.979492H12.7017V4.93609H16.6584V0.979492Z" fill="white"/>
<path d="M20.6151 0.979492H16.6584V4.93609H20.6151V0.979492Z" fill="white"/>
<path d="M24.5718 0.979492H20.6151V4.93609H24.5718V0.979492Z" fill="white"/>
<path d="M28.5285 0.979492H24.5718V4.93609H28.5285V0.979492Z" fill="white"/>
<path d="M0.831657 4.93652H-3.12504V8.89322H0.831657V4.93652Z" fill="white"/>
<path d="M4.78912 4.93652H0.83242V8.89322H4.78912V4.93652Z" fill="white"/>
<path d="M8.74485 4.93652H4.78835V8.89322H8.74485V4.93652Z" fill="black"/>
<path d="M12.7017 4.93652H8.74504V8.89322H12.7017V4.93652Z" fill="black"/>
<path d="M16.6584 4.93652H12.7017V8.89322H16.6584V4.93652Z" fill="black"/>
<path d="M20.6151 4.93652H16.6584V8.89322H20.6151V4.93652Z" fill="black"/>
<path d="M24.5718 4.93652H20.6151V8.89322H24.5718V4.93652Z" fill="black"/>
<path d="M28.5285 4.93652H24.5718V8.89322H28.5285V4.93652Z" fill="white"/>
<path d="M32.485 4.93652H28.5285V8.89322H32.485V4.93652Z" fill="white"/>
<path d="M0.831657 8.89258H-3.12504V12.8493H0.831657V8.89258Z" fill="white"/>
<path d="M4.78912 8.89258H0.83242V12.8493H4.78912V8.89258Z" fill="black"/>
<path d="M8.74485 8.89258H4.78835V12.8493H8.74485V8.89258Z" fill="white"/>
<path d="M12.7017 8.89258H8.74504V12.8493H12.7017V8.89258Z" fill="white"/>
<path d="M16.6584 8.89258H12.7017V12.8493H16.6584V8.89258Z" fill="white"/>
<path d="M20.6151 8.89258H16.6584V12.8493H20.6151V8.89258Z" fill="white"/>
<path d="M24.5718 8.89258H20.6151V12.8493H24.5718V8.89258Z" fill="white"/>
<path d="M28.5285 8.89258H24.5718V12.8493H28.5285V8.89258Z" fill="black"/>
<path d="M32.485 8.89258H28.5285V12.8493H32.485V8.89258Z" fill="white"/>
<path d="M36.4419 8.89258H32.4852V12.8493H36.4419V8.89258Z" fill="white"/>
<path d="M0.831657 12.8496H-3.12504V16.8062H0.831657V12.8496Z" fill="black"/>
<path d="M4.78912 12.8496H0.83242V16.8062H4.78912V12.8496Z" fill="#9CC8FF"/>
<path d="M8.74485 12.8496H4.78835V16.8062H8.74485V12.8496Z" fill="#BDD7FF"/>
<path d="M12.7017 12.8496H8.74504V16.8062H12.7017V12.8496Z" fill="#BDD7FF"/>
<path d="M16.6584 12.8496H12.7017V16.8062H16.6584V12.8496Z" fill="#BDD7FF"/>
<path d="M20.6151 12.8496H16.6584V16.8062H20.6151V12.8496Z" fill="#BDD7FF"/>
<path d="M24.5718 12.8496H20.6151V16.8062H24.5718V12.8496Z" fill="#BDD7FF"/>
<path d="M28.5285 12.8496H24.5718V16.8062H28.5285V12.8496Z" fill="white"/>
<path d="M32.485 12.8496H28.5285V16.8062H32.485V12.8496Z" fill="black"/>
<path d="M36.4419 12.8496H32.4852V16.8062H36.4419V12.8496Z" fill="white"/>
<path d="M40.3986 12.8496H36.4419V16.8062H40.3986V12.8496Z" fill="white"/>
<path d="M0.831657 16.8057H-3.12504V20.7624H0.831657V16.8057Z" fill="#80B8FF"/>
<path d="M4.78912 16.8057H0.83242V20.7624H4.78912V16.8057Z" fill="#9CC8FF"/>
<path d="M8.74485 16.8057H4.78835V20.7624H8.74485V16.8057Z" fill="#BDD7FF"/>
<path d="M12.7017 16.8057H8.74504V20.7624H12.7017V16.8057Z" fill="#BDD7FF"/>
<path d="M16.6584 16.8057H12.7017V20.7624H16.6584V16.8057Z" fill="#BDD7FF"/>
<path d="M20.6151 16.8057H16.6584V20.7624H20.6151V16.8057Z" fill="#BDD7FF"/>
<path d="M24.5718 16.8057H20.6151V20.7624H24.5718V16.8057Z" fill="#BDD7FF"/>
<path d="M28.5285 16.8057H24.5718V20.7624H28.5285V16.8057Z" fill="#BDD7FF"/>
<path d="M32.485 16.8057H28.5285V20.7624H32.485V16.8057Z" fill="white"/>
<path d="M36.4419 16.8057H32.4852V20.7624H36.4419V16.8057Z" fill="black"/>
<path d="M40.3986 16.8057H36.4419V20.7624H40.3986V16.8057Z" fill="white"/>
<path d="M44.3553 16.8057H40.3986V20.7624H44.3553V16.8057Z" fill="white"/>
<path d="M0.831657 20.7627H-3.12504V24.7194H0.831657V20.7627Z" fill="#80B8FF"/>
<path d="M4.78912 20.7627H0.83242V24.7194H4.78912V20.7627Z" fill="#9CC8FF"/>
<path d="M8.74485 20.7627H4.78835V24.7194H8.74485V20.7627Z" fill="#9CC8FF"/>
<path d="M12.7017 20.7627H8.74504V24.7194H12.7017V20.7627Z" fill="#BDD7FF"/>
<path d="M16.6584 20.7627H12.7017V24.7194H16.6584V20.7627Z" fill="#BDD7FF"/>
<path d="M20.6151 20.7627H16.6584V24.7194H20.6151V20.7627Z" fill="#BDD7FF"/>
<path d="M24.5718 20.7627H20.6151V24.7194H24.5718V20.7627Z" fill="#BDD7FF"/>
<path d="M28.5285 20.7627H24.5718V24.7194H28.5285V20.7627Z" fill="#BDD7FF"/>
<path d="M32.485 20.7627H28.5285V24.7194H32.485V20.7627Z" fill="#BDD7FF"/>
<path d="M36.4419 20.7627H32.4852V24.7194H36.4419V20.7627Z" fill="#80B8FF"/>
<path d="M40.3986 20.7627H36.4419V24.7194H40.3986V20.7627Z" fill="black"/>
<path d="M44.3553 20.7627H40.3986V24.7194H44.3553V20.7627Z" fill="white"/>
<path d="M48.312 20.7627H44.3553V24.7194H48.312V20.7627Z" fill="white"/>
<path d="M0.831657 24.7197H-3.12504V28.6763H0.831657V24.7197Z" fill="white"/>
<path d="M4.78912 24.7197H0.83242V28.6763H4.78912V24.7197Z" fill="#80B8FF"/>
<path d="M8.74485 24.7197H4.78835V28.6763H8.74485V24.7197Z" fill="#80B8FF"/>
<path d="M12.7017 24.7197H8.74504V28.6763H12.7017V24.7197Z" fill="#9CC8FF"/>
<path d="M16.6584 24.7197H12.7017V28.6763H16.6584V24.7197Z" fill="#9CC8FF"/>
<path d="M20.6151 24.7197H16.6584V28.6763H20.6151V24.7197Z" fill="#9CC8FF"/>
<path d="M24.5718 24.7197H20.6151V28.6763H24.5718V24.7197Z" fill="#BDD7FF"/>
<path d="M28.5285 24.7197H24.5718V28.6763H28.5285V24.7197Z" fill="#BDD7FF"/>
<path d="M32.485 24.7197H28.5285V28.6763H32.485V24.7197Z" fill="#BDD7FF"/>
<path d="M36.4419 24.7197H32.4852V28.6763H36.4419V24.7197Z" fill="#BDD7FF"/>
<path d="M40.3986 24.7197H36.4419V28.6763H40.3986V24.7197Z" fill="#80B8FF"/>
<path d="M44.3553 24.7197H40.3986V28.6763H44.3553V24.7197Z" fill="black"/>
<path d="M48.312 24.7197H44.3553V28.6763H48.312V24.7197Z" fill="black"/>
<path d="M52.2687 24.7197H48.312V28.6763H52.2687V24.7197Z" fill="white"/>
<path d="M0.831657 28.6758H-3.12504V32.6325H0.831657V28.6758Z" fill="#BDD7FF"/>
<path d="M4.78912 28.6758H0.83242V32.6325H4.78912V28.6758Z" fill="white"/>
<path d="M8.74485 28.6758H4.78835V32.6325H8.74485V28.6758Z" fill="white"/>
<path d="M12.7017 28.6758H8.74504V32.6325H12.7017V28.6758Z" fill="#80B8FF"/>
<path d="M16.6584 28.6758H12.7017V32.6325H16.6584V28.6758Z" fill="#80B8FF"/>
<path d="M20.6151 28.6758H16.6584V32.6325H20.6151V28.6758Z" fill="#80B8FF"/>
<path d="M24.5718 28.6758H20.6151V32.6325H24.5718V28.6758Z" fill="#9CC8FF"/>
<path d="M28.5285 28.6758H24.5718V32.6325H28.5285V28.6758Z" fill="#9CC8FF"/>
<path d="M32.485 28.6758H28.5285V32.6325H32.485V28.6758Z" fill="#9CC8FF"/>
<path d="M36.4419 28.6758H32.4852V32.6325H36.4419V28.6758Z" fill="#80B8FF"/>
<path d="M40.3986 28.6758H36.4419V32.6325H40.3986V28.6758Z" fill="white"/>
<path d="M44.3553 28.6758H40.3986V32.6325H44.3553V28.6758Z" fill="white"/>
<path d="M48.312 28.6758H44.3553V32.6325H48.312V28.6758Z" fill="#80B8FF"/>
<path d="M52.2687 28.6758H48.312V32.6325H52.2687V28.6758Z" fill="black"/>
<path d="M56.2254 28.6758H52.2687V32.6325H56.2254V28.6758Z" fill="white"/>
<path d="M0.831657 32.6328H-3.12504V36.5895H0.831657V32.6328Z" fill="#9CC8FF"/>
<path d="M4.78912 32.6328H0.83242V36.5895H4.78912V32.6328Z" fill="#9CC8FF"/>
<path d="M8.74485 32.6328H4.78835V36.5895H8.74485V32.6328Z" fill="#9CC8FF"/>
<path d="M12.7017 32.6328H8.74504V36.5895H12.7017V32.6328Z" fill="white"/>
<path d="M16.6584 32.6328H12.7017V36.5895H16.6584V32.6328Z" fill="white"/>
<path d="M20.6151 32.6328H16.6584V36.5895H20.6151V32.6328Z" fill="white"/>
<path d="M24.5718 32.6328H20.6151V36.5895H24.5718V32.6328Z" fill="#80B8FF"/>
<path d="M28.5285 32.6328H24.5718V36.5895H28.5285V32.6328Z" fill="#508FDA"/>
<path d="M32.485 32.6328H28.5285V36.5895H32.485V32.6328Z" fill="#80B8FF"/>
<path d="M36.4419 32.6328H32.4852V36.5895H36.4419V32.6328Z" fill="#9CC8FF"/>
<path d="M40.3986 32.6328H36.4419V36.5895H40.3986V32.6328Z" fill="#9CC8FF"/>
<path d="M44.3553 32.6328H40.3986V36.5895H44.3553V32.6328Z" fill="#9CC8FF"/>
<path d="M48.312 32.6328H44.3553V36.5895H48.312V32.6328Z" fill="white"/>
<path d="M52.2687 32.6328H48.312V36.5895H52.2687V32.6328Z" fill="#80B8FF"/>
<path d="M56.2254 32.6328H52.2687V36.5895H56.2254V32.6328Z" fill="black"/>
<path d="M60.1819 32.6328H56.2254V36.5895H60.1819V32.6328Z" fill="white"/>
<path d="M0.831657 36.5898H-3.12504V40.5464H0.831657V36.5898Z" fill="#508FDA"/>
<path d="M4.78912 36.5898H0.83242V40.5464H4.78912V36.5898Z" fill="#508FDA"/>
<path d="M8.74485 36.5898H4.78835V40.5464H8.74485V36.5898Z" fill="#508FDA"/>
<path d="M12.7017 36.5898H8.74504V40.5464H12.7017V36.5898Z" fill="#508FDA"/>
<path d="M16.6584 36.5898H12.7017V40.5464H16.6584V36.5898Z" fill="#508FDA"/>
<path d="M20.6151 36.5898H16.6584V40.5464H20.6151V36.5898Z" fill="#508FDA"/>
<path d="M24.5718 36.5898H20.6151V40.5464H24.5718V36.5898Z" fill="#508FDA"/>
<path d="M28.5285 36.5898H24.5718V40.5464H28.5285V36.5898Z" fill="black"/>
<path d="M32.485 36.5898H28.5285V40.5464H32.485V36.5898Z" fill="#508FDA"/>
<path d="M36.4419 36.5898H32.4852V40.5464H36.4419V36.5898Z" fill="#508FDA"/>
<path d="M40.3986 36.5898H36.4419V40.5464H40.3986V36.5898Z" fill="#508FDA"/>
<path d="M44.3553 36.5898H40.3986V40.5464H44.3553V36.5898Z" fill="#508FDA"/>
<path d="M48.312 36.5898H44.3553V40.5464H48.312V36.5898Z" fill="#508FDA"/>
<path d="M52.2687 36.5898H48.312V40.5464H52.2687V36.5898Z" fill="#508FDA"/>
<path d="M56.2254 36.5898H52.2687V40.5464H56.2254V36.5898Z" fill="black"/>
<path d="M60.1819 36.5898H56.2254V40.5464H60.1819V36.5898Z" fill="white"/>
<path d="M0.831657 40.5459H-3.12504V44.5026H0.831657V40.5459Z" fill="black"/>
<path d="M4.78912 40.5459H0.83242V44.5026H4.78912V40.5459Z" fill="black"/>
<path d="M8.74485 40.5459H4.78835V44.5026H8.74485V40.5459Z" fill="black"/>
<path d="M12.7017 40.5459H8.74504V44.5026H12.7017V40.5459Z" fill="black"/>
<path d="M16.6584 40.5459H12.7017V44.5026H16.6584V40.5459Z" fill="black"/>
<path d="M20.6151 40.5459H16.6584V44.5026H20.6151V40.5459Z" fill="black"/>
<path d="M24.5718 40.5459H20.6151V44.5026H24.5718V40.5459Z" fill="black"/>
<path d="M28.5285 40.5459H24.5718V44.5026H28.5285V40.5459Z" fill="white"/>
<path d="M32.485 40.5459H28.5285V44.5026H32.485V40.5459Z" fill="black"/>
<path d="M36.4419 40.5459H32.4852V44.5026H36.4419V40.5459Z" fill="black"/>
<path d="M40.3986 40.5459H36.4419V44.5026H40.3986V40.5459Z" fill="black"/>
<path d="M44.3553 40.5459H40.3986V44.5026H44.3553V40.5459Z" fill="black"/>
<path d="M48.312 40.5459H44.3553V44.5026H48.312V40.5459Z" fill="black"/>
<path d="M52.2687 40.5459H48.312V44.5026H52.2687V40.5459Z" fill="black"/>
<path d="M56.2254 40.5459H52.2687V44.5026H56.2254V40.5459Z" fill="white"/>
<path d="M60.1819 40.5459H56.2254V44.5026H60.1819V40.5459Z" fill="white"/>
<path d="M0.831657 44.5029H-3.12504V48.4596H0.831657V44.5029Z" fill="white"/>
<path d="M4.78912 44.5029H0.83242V48.4596H4.78912V44.5029Z" fill="white"/>
<path d="M8.74485 44.5029H4.78835V48.4596H8.74485V44.5029Z" fill="white"/>
<path d="M12.7017 44.5029H8.74504V48.4596H12.7017V44.5029Z" fill="white"/>
<path d="M16.6584 44.5029H12.7017V48.4596H16.6584V44.5029Z" fill="white"/>
<path d="M20.6151 44.5029H16.6584V48.4596H20.6151V44.5029Z" fill="white"/>
<path d="M24.5718 44.5029H20.6151V48.4596H24.5718V44.5029Z" fill="white"/>
<path d="M28.5285 44.5029H24.5718V48.4596H28.5285V44.5029Z" fill="white"/>
<path d="M32.485 44.5029H28.5285V48.4596H32.485V44.5029Z" fill="white"/>
<path d="M36.4419 44.5029H32.4852V48.4596H36.4419V44.5029Z" fill="white"/>
<path d="M40.3986 44.5029H36.4419V48.4596H40.3986V44.5029Z" fill="white"/>
<path d="M44.3553 44.5029H40.3986V48.4596H44.3553V44.5029Z" fill="white"/>
<path d="M48.312 44.5029H44.3553V48.4596H48.312V44.5029Z" fill="white"/>
<path d="M52.2687 44.5029H48.312V48.4596H52.2687V44.5029Z" fill="white"/>
<path d="M56.2254 44.5029H52.2687V48.4596H56.2254V44.5029Z" fill="white"/>
</svg>
