<svg width="47" height="24" viewBox="0 0 47 24" fill="none" xmlns="http://www.w3.org/2000/svg">
<path d="M27.3335 0.0839844H29.2745V2.02494H27.3335V0.0839844Z" fill="white"/>
<path d="M25.3931 0.0839844H27.334V2.02494H25.3931V0.0839844Z" fill="white"/>
<path d="M23.4518 0.0839844H25.3928V2.02494H23.4518V0.0839844Z" fill="white"/>
<path d="M21.511 0.0839844H23.452V2.02494H21.511V0.0839844Z" fill="white"/>
<path d="M19.5698 0.0839844H21.5108V2.02494H19.5698V0.0839844Z" fill="white"/>
<path d="M17.6289 0.0839844H19.5699V2.02494H17.6289V0.0839844Z" fill="white"/>
<path d="M15.6881 0.0839844H17.6291V2.02494H15.6881V0.0839844Z" fill="white"/>
<path d="M29.2747 2.02539H31.2157V3.9664H29.2747V2.02539Z" fill="white"/>
<path d="M27.3335 2.02539H29.2745V3.9664H27.3335V2.02539Z" fill="white"/>
<path d="M25.3931 2.02539H27.334V3.9664H25.3931V2.02539Z" fill="black"/>
<path d="M23.4518 2.02539H25.3928V3.9664H23.4518V2.02539Z" fill="black"/>
<path d="M21.511 2.02539H23.452V3.9664H21.511V2.02539Z" fill="black"/>
<path d="M19.5698 2.02539H21.5108V3.9664H19.5698V2.02539Z" fill="black"/>
<path d="M17.6289 2.02539H19.5699V3.9664H17.6289V2.02539Z" fill="black"/>
<path d="M15.6881 2.02539H17.6291V3.9664H15.6881V2.02539Z" fill="white"/>
<path d="M13.747 2.02539H15.6879V3.9664H13.747V2.02539Z" fill="white"/>
<path d="M31.2155 3.96582H33.1565V5.90683H31.2155V3.96582Z" fill="white"/>
<path d="M29.2747 3.96582H31.2157V5.90683H29.2747V3.96582Z" fill="white"/>
<path d="M27.3335 3.96582H29.2745V5.90683H27.3335V3.96582Z" fill="black"/>
<path d="M25.3931 3.96582H27.334V5.90683H25.3931V3.96582Z" fill="white"/>
<path d="M23.4518 3.96582H25.3928V5.90683H23.4518V3.96582Z" fill="white"/>
<path d="M21.511 3.96582H23.452V5.90683H21.511V3.96582Z" fill="white"/>
<path d="M19.5698 3.96582H21.5108V5.90683H19.5698V3.96582Z" fill="white"/>
<path d="M17.6289 3.96582H19.5699V5.90683H17.6289V3.96582Z" fill="white"/>
<path d="M15.6881 3.96582H17.6291V5.90683H15.6881V3.96582Z" fill="black"/>
<path d="M13.747 3.96582H15.6879V5.90683H13.747V3.96582Z" fill="white"/>
<path d="M11.806 3.96582H13.7471V5.90683H11.806V3.96582Z" fill="white"/>
<path d="M37.0389 5.90723H38.9798V7.84819H37.0389V5.90723Z" fill="white"/>
<path d="M35.0976 5.90723H37.0386V7.84819H35.0976V5.90723Z" fill="white"/>
<path d="M33.1567 5.90723H35.0977V7.84819H33.1567V5.90723Z" fill="white"/>
<path d="M31.2155 5.90723H33.1565V7.84819H31.2155V5.90723Z" fill="white"/>
<path d="M29.2747 5.90723H31.2157V7.84819H29.2747V5.90723Z" fill="black"/>
<path d="M27.3335 5.90723H29.2745V7.84819H27.3335V5.90723Z" fill="#9CC8FF"/>
<path d="M25.3931 5.90723H27.334V7.84819H25.3931V5.90723Z" fill="#BDD7FF"/>
<path d="M23.4518 5.90723H25.3928V7.84819H23.4518V5.90723Z" fill="#BDD7FF"/>
<path d="M21.511 5.90723H23.452V7.84819H21.511V5.90723Z" fill="#BDD7FF"/>
<path d="M19.5698 5.90723H21.5108V7.84819H19.5698V5.90723Z" fill="#BDD7FF"/>
<path d="M17.6289 5.90723H19.5699V7.84819H17.6289V5.90723Z" fill="#BDD7FF"/>
<path d="M15.6881 5.90723H17.6291V7.84819H15.6881V5.90723Z" fill="white"/>
<path d="M13.747 5.90723H15.6879V7.84819H13.747V5.90723Z" fill="black"/>
<path d="M11.806 5.90723H13.7471V7.84819H11.806V5.90723Z" fill="white"/>
<path d="M9.86484 5.90723H11.8058V7.84819H9.86484V5.90723Z" fill="white"/>
<path d="M40.9205 7.84766H42.8615V9.78866H40.9205V7.84766Z" fill="white"/>
<path d="M38.9796 7.84766H40.9206V9.78866H38.9796V7.84766Z" fill="white"/>
<path d="M37.0389 7.84766H38.9798V9.78866H37.0389V7.84766Z" fill="white"/>
<path d="M35.0976 7.84766H37.0386V9.78866H35.0976V7.84766Z" fill="black"/>
<path d="M33.1567 7.84766H35.0977V9.78866H33.1567V7.84766Z" fill="black"/>
<path d="M31.2155 7.84766H33.1565V9.78866H31.2155V7.84766Z" fill="black"/>
<path d="M29.2747 7.84766H31.2157V9.78866H29.2747V7.84766Z" fill="#80B8FF"/>
<path d="M27.3335 7.84766H29.2745V9.78866H27.3335V7.84766Z" fill="#9CC8FF"/>
<path d="M25.3931 7.84766H27.334V9.78866H25.3931V7.84766Z" fill="#BDD7FF"/>
<path d="M23.4518 7.84766H25.3928V9.78866H23.4518V7.84766Z" fill="#BDD7FF"/>
<path d="M21.511 7.84766H23.452V9.78866H21.511V7.84766Z" fill="#BDD7FF"/>
<path d="M19.5698 7.84766H21.5108V9.78866H19.5698V7.84766Z" fill="#BDD7FF"/>
<path d="M17.6289 7.84766H19.5699V9.78866H17.6289V7.84766Z" fill="#BDD7FF"/>
<path d="M15.6881 7.84766H17.6291V9.78866H15.6881V7.84766Z" fill="#BDD7FF"/>
<path d="M13.747 7.84766H15.6879V9.78866H13.747V7.84766Z" fill="white"/>
<path d="M11.806 7.84766H13.7471V9.78866H11.806V7.84766Z" fill="black"/>
<path d="M9.86484 7.84766H11.8058V9.78866H9.86484V7.84766Z" fill="white"/>
<path d="M7.924 7.84766H9.86501V9.78866H7.924V7.84766Z" fill="white"/>
<path d="M42.8617 9.78906H44.8027V11.7301H42.8617V9.78906Z" fill="white"/>
<path d="M40.9205 9.78906H42.8615V11.7301H40.9205V9.78906Z" fill="white"/>
<path d="M38.9796 9.78906H40.9206V11.7301H38.9796V9.78906Z" fill="black"/>
<path d="M37.0389 9.78906H38.9798V11.7301H37.0389V9.78906Z" fill="black"/>
<path d="M35.0976 9.78906H37.0386V11.7301H35.0976V9.78906Z" fill="white"/>
<path d="M33.1567 9.78906H35.0977V11.7301H33.1567V9.78906Z" fill="white"/>
<path d="M31.2155 9.78906H33.1565V11.7301H31.2155V9.78906Z" fill="#80B8FF"/>
<path d="M29.2747 9.78906H31.2157V11.7301H29.2747V9.78906Z" fill="#80B8FF"/>
<path d="M27.3335 9.78906H29.2745V11.7301H27.3335V9.78906Z" fill="#9CC8FF"/>
<path d="M25.3931 9.78906H27.334V11.7301H25.3931V9.78906Z" fill="#9CC8FF"/>
<path d="M23.4518 9.78906H25.3928V11.7301H23.4518V9.78906Z" fill="#BDD7FF"/>
<path d="M21.511 9.78906H23.452V11.7301H21.511V9.78906Z" fill="#BDD7FF"/>
<path d="M19.5698 9.78906H21.5108V11.7301H19.5698V9.78906Z" fill="#BDD7FF"/>
<path d="M17.6289 9.78906H19.5699V11.7301H17.6289V9.78906Z" fill="#BDD7FF"/>
<path d="M15.6881 9.78906H17.6291V11.7301H15.6881V9.78906Z" fill="#BDD7FF"/>
<path d="M13.747 9.78906H15.6879V11.7301H13.747V9.78906Z" fill="#BDD7FF"/>
<path d="M11.806 9.78906H13.7471V11.7301H11.806V9.78906Z" fill="#80B8FF"/>
<path d="M9.86484 9.78906H11.8058V11.7301H9.86484V9.78906Z" fill="black"/>
<path d="M7.924 9.78906H9.86501V11.7301H7.924V9.78906Z" fill="white"/>
<path d="M5.98279 9.78906H7.9238V11.7301H5.98279V9.78906Z" fill="white"/>
<path d="M44.8025 11.7295H46.7435V13.6705H44.8025V11.7295Z" fill="white"/>
<path d="M42.8617 11.7295H44.8027V13.6705H42.8617V11.7295Z" fill="black"/>
<path d="M40.9205 11.7295H42.8615V13.6705H40.9205V11.7295Z" fill="black"/>
<path d="M38.9796 11.7295H40.9206V13.6705H38.9796V11.7295Z" fill="#80B8FF"/>
<path d="M37.0389 11.7295H38.9798V13.6705H37.0389V11.7295Z" fill="#BDD7FF"/>
<path d="M35.0976 11.7295H37.0386V13.6705H35.0976V11.7295Z" fill="#BDD7FF"/>
<path d="M33.1567 11.7295H35.0977V13.6705H33.1567V11.7295Z" fill="#BDD7FF"/>
<path d="M31.2155 11.7295H33.1565V13.6705H31.2155V11.7295Z" fill="white"/>
<path d="M29.2747 11.7295H31.2157V13.6705H29.2747V11.7295Z" fill="white"/>
<path d="M27.3335 11.7295H29.2745V13.6705H27.3335V11.7295Z" fill="#80B8FF"/>
<path d="M25.3931 11.7295H27.334V13.6705H25.3931V11.7295Z" fill="#80B8FF"/>
<path d="M23.4518 11.7295H25.3928V13.6705H23.4518V11.7295Z" fill="#9CC8FF"/>
<path d="M21.511 11.7295H23.452V13.6705H21.511V11.7295Z" fill="#9CC8FF"/>
<path d="M19.5698 11.7295H21.5108V13.6705H19.5698V11.7295Z" fill="#9CC8FF"/>
<path d="M17.6289 11.7295H19.5699V13.6705H17.6289V11.7295Z" fill="#BDD7FF"/>
<path d="M15.6881 11.7295H17.6291V13.6705H15.6881V11.7295Z" fill="#BDD7FF"/>
<path d="M13.747 11.7295H15.6879V13.6705H13.747V11.7295Z" fill="#BDD7FF"/>
<path d="M11.806 11.7295H13.7471V13.6705H11.806V11.7295Z" fill="#BDD7FF"/>
<path d="M9.86484 11.7295H11.8058V13.6705H9.86484V11.7295Z" fill="#80B8FF"/>
<path d="M7.924 11.7295H9.86501V13.6705H7.924V11.7295Z" fill="black"/>
<path d="M5.98279 11.7295H7.9238V13.6705H5.98279V11.7295Z" fill="black"/>
<path d="M4.04196 11.7295H5.98296V13.6705H4.04196V11.7295Z" fill="white"/>
<path d="M44.8025 13.6709H46.7435V15.6119H44.8025V13.6709Z" fill="white"/>
<path d="M42.8617 13.6709H44.8027V15.6119H42.8617V13.6709Z" fill="black"/>
<path d="M40.9205 13.6709H42.8615V15.6119H40.9205V13.6709Z" fill="#508FDA"/>
<path d="M38.9796 13.6709H40.9206V15.6119H38.9796V13.6709Z" fill="#BDD7FF"/>
<path d="M37.0389 13.6709H38.9798V15.6119H37.0389V13.6709Z" fill="#BDD7FF"/>
<path d="M35.0976 13.6709H37.0386V15.6119H35.0976V13.6709Z" fill="#BDD7FF"/>
<path d="M33.1567 13.6709H35.0977V15.6119H33.1567V13.6709Z" fill="#BDD7FF"/>
<path d="M31.2155 13.6709H33.1565V15.6119H31.2155V13.6709Z" fill="#BDD7FF"/>
<path d="M29.2747 13.6709H31.2157V15.6119H29.2747V13.6709Z" fill="#BDD7FF"/>
<path d="M27.3335 13.6709H29.2745V15.6119H27.3335V13.6709Z" fill="white"/>
<path d="M25.3931 13.6709H27.334V15.6119H25.3931V13.6709Z" fill="white"/>
<path d="M23.4518 13.6709H25.3928V15.6119H23.4518V13.6709Z" fill="#80B8FF"/>
<path d="M21.511 13.6709H23.452V15.6119H21.511V13.6709Z" fill="#80B8FF"/>
<path d="M19.5698 13.6709H21.5108V15.6119H19.5698V13.6709Z" fill="#80B8FF"/>
<path d="M17.6289 13.6709H19.5699V15.6119H17.6289V13.6709Z" fill="#9CC8FF"/>
<path d="M15.6881 13.6709H17.6291V15.6119H15.6881V13.6709Z" fill="#9CC8FF"/>
<path d="M13.747 13.6709H15.6879V15.6119H13.747V13.6709Z" fill="#9CC8FF"/>
<path d="M11.806 13.6709H13.7471V15.6119H11.806V13.6709Z" fill="#80B8FF"/>
<path d="M9.86484 13.6709H11.8058V15.6119H9.86484V13.6709Z" fill="white"/>
<path d="M7.924 13.6709H9.86501V15.6119H7.924V13.6709Z" fill="white"/>
<path d="M5.98279 13.6709H7.9238V15.6119H5.98279V13.6709Z" fill="#80B8FF"/>
<path d="M4.04196 13.6709H5.98296V15.6119H4.04196V13.6709Z" fill="black"/>
<path d="M2.10076 13.6709H4.04176V15.6119H2.10076V13.6709Z" fill="white"/>
<path d="M44.8025 15.6123H46.7435V17.5533H44.8025V15.6123Z" fill="white"/>
<path d="M42.8617 15.6123H44.8027V17.5533H42.8617V15.6123Z" fill="black"/>
<path d="M40.9205 15.6123H42.8615V17.5533H40.9205V15.6123Z" fill="#508FDA"/>
<path d="M38.9796 15.6123H40.9206V17.5533H38.9796V15.6123Z" fill="#80B8FF"/>
<path d="M37.0389 15.6123H38.9798V17.5533H37.0389V15.6123Z" fill="#9CC8FF"/>
<path d="M35.0976 15.6123H37.0386V17.5533H35.0976V15.6123Z" fill="#9CC8FF"/>
<path d="M33.1567 15.6123H35.0977V17.5533H33.1567V15.6123Z" fill="#9CC8FF"/>
<path d="M31.2155 15.6123H33.1565V17.5533H31.2155V15.6123Z" fill="#9CC8FF"/>
<path d="M29.2747 15.6123H31.2157V17.5533H29.2747V15.6123Z" fill="#9CC8FF"/>
<path d="M27.3335 15.6123H29.2745V17.5533H27.3335V15.6123Z" fill="#9CC8FF"/>
<path d="M25.3931 15.6123H27.334V17.5533H25.3931V15.6123Z" fill="#9CC8FF"/>
<path d="M23.4518 15.6123H25.3928V17.5533H23.4518V15.6123Z" fill="white"/>
<path d="M21.511 15.6123H23.452V17.5533H21.511V15.6123Z" fill="white"/>
<path d="M19.5698 15.6123H21.5108V17.5533H19.5698V15.6123Z" fill="white"/>
<path d="M17.6289 15.6123H19.5699V17.5533H17.6289V15.6123Z" fill="#80B8FF"/>
<path d="M15.6881 15.6123H17.6291V17.5533H15.6881V15.6123Z" fill="#508FDA"/>
<path d="M13.747 15.6123H15.6879V17.5533H13.747V15.6123Z" fill="#80B8FF"/>
<path d="M11.806 15.6123H13.7471V17.5533H11.806V15.6123Z" fill="#9CC8FF"/>
<path d="M9.86484 15.6123H11.8058V17.5533H9.86484V15.6123Z" fill="#9CC8FF"/>
<path d="M7.924 15.6123H9.86501V17.5533H7.924V15.6123Z" fill="#9CC8FF"/>
<path d="M5.98279 15.6123H7.9238V17.5533H5.98279V15.6123Z" fill="white"/>
<path d="M4.04196 15.6123H5.98296V17.5533H4.04196V15.6123Z" fill="#80B8FF"/>
<path d="M2.10076 15.6123H4.04176V17.5533H2.10076V15.6123Z" fill="black"/>
<path d="M0.160008 15.6123H2.10092V17.5533H0.160008V15.6123Z" fill="white"/>
<path d="M44.8025 17.5527H46.7435V19.4937H44.8025V17.5527Z" fill="white"/>
<path d="M42.8617 17.5527H44.8027V19.4937H42.8617V17.5527Z" fill="white"/>
<path d="M40.9205 17.5527H42.8615V19.4937H40.9205V17.5527Z" fill="black"/>
<path d="M38.9796 17.5527H40.9206V19.4937H38.9796V17.5527Z" fill="#508FDA"/>
<path d="M37.0389 17.5527H38.9798V19.4937H37.0389V17.5527Z" fill="#508FDA"/>
<path d="M35.0976 17.5527H37.0386V19.4937H35.0976V17.5527Z" fill="#508FDA"/>
<path d="M33.1567 17.5527H35.0977V19.4937H33.1567V17.5527Z" fill="#508FDA"/>
<path d="M31.2155 17.5527H33.1565V19.4937H31.2155V17.5527Z" fill="#508FDA"/>
<path d="M29.2747 17.5527H31.2157V19.4937H29.2747V17.5527Z" fill="#508FDA"/>
<path d="M27.3335 17.5527H29.2745V19.4937H27.3335V17.5527Z" fill="#508FDA"/>
<path d="M25.3931 17.5527H27.334V19.4937H25.3931V17.5527Z" fill="#508FDA"/>
<path d="M23.4518 17.5527H25.3928V19.4937H23.4518V17.5527Z" fill="#508FDA"/>
<path d="M21.511 17.5527H23.452V19.4937H21.511V17.5527Z" fill="#508FDA"/>
<path d="M19.5698 17.5527H21.5108V19.4937H19.5698V17.5527Z" fill="#508FDA"/>
<path d="M17.6289 17.5527H19.5699V19.4937H17.6289V17.5527Z" fill="#508FDA"/>
<path d="M15.6881 17.5527H17.6291V19.4937H15.6881V17.5527Z" fill="black"/>
<path d="M13.747 17.5527H15.6879V19.4937H13.747V17.5527Z" fill="#508FDA"/>
<path d="M11.806 17.5527H13.7471V19.4937H11.806V17.5527Z" fill="#508FDA"/>
<path d="M9.86484 17.5527H11.8058V19.4937H9.86484V17.5527Z" fill="#508FDA"/>
<path d="M7.924 17.5527H9.86501V19.4937H7.924V17.5527Z" fill="#508FDA"/>
<path d="M5.98279 17.5527H7.9238V19.4937H5.98279V17.5527Z" fill="#508FDA"/>
<path d="M4.04196 17.5527H5.98296V19.4937H4.04196V17.5527Z" fill="#508FDA"/>
<path d="M2.10076 17.5527H4.04176V19.4937H2.10076V17.5527Z" fill="black"/>
<path d="M0.160008 17.5527H2.10092V19.4937H0.160008V17.5527Z" fill="white"/>
<path d="M42.8617 19.4941H44.8027V21.4351H42.8617V19.4941Z" fill="white"/>
<path d="M40.9205 19.4941H42.8615V21.4351H40.9205V19.4941Z" fill="white"/>
<path d="M38.9796 19.4941H40.9206V21.4351H38.9796V19.4941Z" fill="black"/>
<path d="M37.0389 19.4941H38.9798V21.4351H37.0389V19.4941Z" fill="black"/>
<path d="M35.0976 19.4941H37.0386V21.4351H35.0976V19.4941Z" fill="black"/>
<path d="M33.1567 19.4941H35.0977V21.4351H33.1567V19.4941Z" fill="black"/>
<path d="M31.2155 19.4941H33.1565V21.4351H31.2155V19.4941Z" fill="black"/>
<path d="M29.2747 19.4941H31.2157V21.4351H29.2747V19.4941Z" fill="black"/>
<path d="M27.3335 19.4941H29.2745V21.4351H27.3335V19.4941Z" fill="black"/>
<path d="M25.3931 19.4941H27.334V21.4351H25.3931V19.4941Z" fill="black"/>
<path d="M23.4518 19.4941H25.3928V21.4351H23.4518V19.4941Z" fill="black"/>
<path d="M21.511 19.4941H23.452V21.4351H21.511V19.4941Z" fill="black"/>
<path d="M19.5698 19.4941H21.5108V21.4351H19.5698V19.4941Z" fill="black"/>
<path d="M17.6289 19.4941H19.5699V21.4351H17.6289V19.4941Z" fill="black"/>
<path d="M15.6881 19.4941H17.6291V21.4351H15.6881V19.4941Z" fill="white"/>
<path d="M13.747 19.4941H15.6879V21.4351H13.747V19.4941Z" fill="black"/>
<path d="M11.806 19.4941H13.7471V21.4351H11.806V19.4941Z" fill="black"/>
<path d="M9.86484 19.4941H11.8058V21.4351H9.86484V19.4941Z" fill="black"/>
<path d="M7.924 19.4941H9.86501V21.4351H7.924V19.4941Z" fill="black"/>
<path d="M5.98279 19.4941H7.9238V21.4351H5.98279V19.4941Z" fill="black"/>
<path d="M4.04196 19.4941H5.98296V21.4351H4.04196V19.4941Z" fill="black"/>
<path d="M2.10076 19.4941H4.04176V21.4351H2.10076V19.4941Z" fill="white"/>
<path d="M0.160008 19.4941H2.10092V21.4351H0.160008V19.4941Z" fill="white"/>
<path d="M40.9205 21.4346H42.8615V23.3756H40.9205V21.4346Z" fill="white"/>
<path d="M38.9796 21.4346H40.9206V23.3756H38.9796V21.4346Z" fill="white"/>
<path d="M37.0389 21.4346H38.9798V23.3756H37.0389V21.4346Z" fill="white"/>
<path d="M35.0976 21.4346H37.0386V23.3756H35.0976V21.4346Z" fill="white"/>
<path d="M33.1567 21.4346H35.0977V23.3756H33.1567V21.4346Z" fill="white"/>
<path d="M31.2155 21.4346H33.1565V23.3756H31.2155V21.4346Z" fill="white"/>
<path d="M29.2747 21.4346H31.2157V23.3756H29.2747V21.4346Z" fill="white"/>
<path d="M27.3335 21.4346H29.2745V23.3756H27.3335V21.4346Z" fill="white"/>
<path d="M25.3931 21.4346H27.334V23.3756H25.3931V21.4346Z" fill="white"/>
<path d="M23.4518 21.4346H25.3928V23.3756H23.4518V21.4346Z" fill="white"/>
<path d="M21.511 21.4346H23.452V23.3756H21.511V21.4346Z" fill="white"/>
<path d="M19.5698 21.4346H21.5108V23.3756H19.5698V21.4346Z" fill="white"/>
<path d="M17.6289 21.4346H19.5699V23.3756H17.6289V21.4346Z" fill="white"/>
<path d="M15.6881 21.4346H17.6291V23.3756H15.6881V21.4346Z" fill="white"/>
<path d="M13.747 21.4346H15.6879V23.3756H13.747V21.4346Z" fill="white"/>
<path d="M11.806 21.4346H13.7471V23.3756H11.806V21.4346Z" fill="white"/>
<path d="M9.86484 21.4346H11.8058V23.3756H9.86484V21.4346Z" fill="white"/>
<path d="M7.924 21.4346H9.86501V23.3756H7.924V21.4346Z" fill="white"/>
<path d="M5.98279 21.4346H7.9238V23.3756H5.98279V21.4346Z" fill="white"/>
<path d="M4.04196 21.4346H5.98296V23.3756H4.04196V21.4346Z" fill="white"/>
<path d="M2.10076 21.4346H4.04176V23.3756H2.10076V21.4346Z" fill="white"/>
</svg>
