<svg width="352" height="339" viewBox="0 0 352 339" fill="none" xmlns="http://www.w3.org/2000/svg">
<path d="M94.4007 81.8142C61.8856 79.3743 33.5801 87.4055 18.7018 108.246C-11.7808 150.943 -2.45794 213.207 28.3544 232.78C60.3616 253.112 42.072 292.251 79.1593 303.434C136.392 320.691 146.73 294.284 193.978 272.427C241.227 250.57 253.928 303.434 311.846 258.195C376.964 207.331 344.257 124.498 340.296 98.0798C337.248 77.7477 337.756 46.7413 290.507 21.3262C243.259 -4.08886 189.936 19.3644 165.019 32.5089C137.077 47.2496 135.045 84.864 94.4007 81.8142Z" fill="#34B6EE"/>
<path d="M140.184 211.5C145.684 216 146.684 223.5 142.684 230.5" stroke="white" stroke-width="4" stroke-linecap="round"/>
<path d="M143.684 203.5C140.017 203.667 136.184 203.5 132.184 206.5C128.184 209.5 125.684 235.5 141.684 237C154.484 238.2 169.684 232.5 175.684 229.5" stroke="white" stroke-width="4"/>
<path d="M154.184 132C175.184 128 218.284 120.7 222.684 123.5C228.184 127 214.684 137 203.684 143.5" stroke="white" stroke-width="4"/>
<path d="M28.1833 163L26.3133 162.291L26.2382 162.489L26.2063 162.698L28.1833 163ZM88.6833 125L88.328 123.032L88.3256 123.032L88.6833 125ZM256.183 158.5L255.601 160.413L255.678 160.437L255.756 160.454L256.183 158.5ZM313.683 162L312.229 163.373L313.683 162ZM288.183 174L287.954 172.013L287.868 172.023L287.783 172.041L288.183 174ZM190.173 178.199C190.283 177.1 189.481 176.12 188.382 176.01C187.283 175.9 186.303 176.702 186.193 177.801L190.173 178.199ZM323.488 172.623L324.984 171.297L323.488 172.623ZM323.392 175.291L324.806 176.706L323.392 175.291ZM319.766 124.227L319.157 126.131L319.766 124.227ZM320.903 127.184L319.163 126.198L320.903 127.184ZM296.387 118.498L298.153 119.437L296.387 118.498ZM298.775 117.509L299.385 115.605L298.775 117.509ZM138.175 196.5C119.005 196.583 90.5725 194.912 67.5402 189.662C56.0005 187.033 46.0009 183.544 39.2032 179.052C32.4296 174.575 29.2276 169.408 30.1604 163.302L26.2063 162.698C24.9391 170.992 29.5745 177.483 36.9978 182.389C44.397 187.279 54.9536 190.897 66.6514 193.562C90.0942 198.905 118.861 200.584 138.192 200.5L138.175 196.5ZM30.0533 163.709C33.4257 154.819 49.9941 134.067 89.0411 126.968L88.3256 123.032C48.1726 130.333 30.2743 151.848 26.3133 162.291L30.0533 163.709ZM89.0387 126.968C91.7897 126.471 96.984 126.279 104.99 126.816C112.954 127.349 123.584 128.595 137.147 130.909C164.271 135.538 203.062 144.432 255.601 160.413L256.765 156.587C204.105 140.568 165.146 131.629 137.82 126.966C124.157 124.635 113.388 123.369 105.258 122.825C97.1702 122.283 91.577 122.445 88.328 123.032L89.0387 126.968ZM255.756 160.454C259.824 161.344 263.417 161.658 266.806 160.868C270.241 160.067 273.248 158.186 276.246 155.088C279.213 152.022 282.235 147.699 285.718 141.905C289.208 136.096 293.222 128.703 298.153 119.437L294.621 117.558C289.688 126.829 285.719 134.137 282.289 139.844C278.851 145.565 276.016 149.574 273.372 152.306C270.759 155.006 268.4 156.389 265.898 156.973C263.352 157.566 260.438 157.383 256.611 156.546L255.756 160.454ZM298.166 119.414L319.157 126.131L320.376 122.322L299.385 115.605L298.166 119.414ZM319.163 126.198C316.274 131.291 312.811 138.478 310.87 145.302C309.9 148.71 309.28 152.127 309.35 155.198C309.419 158.258 310.183 161.206 312.229 163.373L315.137 160.627C314.029 159.453 313.406 157.633 313.349 155.107C313.292 152.591 313.804 149.603 314.717 146.397C316.54 139.991 319.841 133.11 322.642 128.171L319.163 126.198ZM312.229 163.373C317.235 168.674 320.368 172.118 321.991 173.95L324.984 171.297C323.325 169.424 320.162 165.947 315.137 160.627L312.229 163.373ZM321.978 173.877L310.269 185.586L313.098 188.414L324.806 176.706L321.978 173.877ZM313.293 185.814C310.759 182.374 307.948 178.465 304.033 175.682C300.009 172.822 294.925 171.209 287.954 172.013L288.413 175.987C294.441 175.291 298.529 176.678 301.715 178.943C305.011 181.285 307.45 184.626 310.073 188.186L313.293 185.814ZM287.783 172.041C284.265 172.76 280.064 173.425 276.887 174.326C275.29 174.779 273.74 175.345 272.554 176.126C271.364 176.907 270.183 178.158 270.183 180H274.183C274.183 179.994 274.184 179.992 274.184 179.993C274.184 179.994 274.183 179.994 274.184 179.993C274.184 179.992 274.19 179.972 274.218 179.933C274.279 179.844 274.428 179.68 274.751 179.468C275.418 179.03 276.493 178.596 277.979 178.174C280.97 177.325 284.768 176.74 288.584 175.959L287.783 172.041ZM313.683 208C316.522 208 318.79 207.023 319.875 204.798C320.837 202.825 320.55 200.431 319.958 198.332C318.743 194.024 315.673 189.042 313.293 185.814L310.073 188.186C312.361 191.291 315.09 195.809 316.108 199.418C316.633 201.277 316.572 202.445 316.279 203.046C316.11 203.393 315.645 204 313.683 204V208ZM270.183 180C270.183 181.205 270.382 182.292 270.909 183.349C271.416 184.367 272.165 185.228 273.04 186.077C273.907 186.919 275.032 187.873 276.361 189.02C277.712 190.187 279.344 191.611 281.315 193.459L284.051 190.541C282.022 188.639 280.343 187.173 278.975 185.993C277.585 184.793 276.585 183.944 275.826 183.207C275.077 182.48 274.7 181.989 274.489 181.565C274.297 181.181 274.183 180.735 274.183 180H270.183ZM281.458 193.581C285.763 196.916 291.728 200.49 297.588 203.234C303.368 205.94 309.378 208 313.683 208V204C310.325 204 305.005 202.29 299.285 199.611C293.646 196.971 287.942 193.544 283.908 190.419L281.458 193.581ZM282.469 190.012C269.957 191.362 251.454 193.435 233.774 195.071C216.045 196.711 199.31 197.895 190.27 197.502L190.096 201.498C199.457 201.905 216.472 200.689 234.143 199.054C251.862 197.414 270.409 195.337 282.898 193.988L282.469 190.012ZM192.119 198.995C191.145 195.263 189.407 185.86 190.173 178.199L186.193 177.801C185.359 186.14 187.222 196.07 188.248 200.005L192.119 198.995ZM188.233 199.944C189.717 206.456 191.145 215.841 190.712 222.966C190.492 226.592 189.806 229.251 188.737 230.716C188.243 231.393 187.713 231.754 187.129 231.91C186.523 232.072 185.637 232.071 184.352 231.615L183.015 235.385C184.83 236.029 186.566 236.201 188.163 235.774C189.782 235.341 191.036 234.351 191.968 233.074C193.748 230.635 194.475 226.987 194.705 223.209C195.172 215.526 193.65 205.71 192.133 199.056L188.233 199.944ZM184.352 231.615C181.59 230.635 176.971 227.645 171.119 223.179C165.344 218.772 158.583 213.1 151.603 206.972C137.647 194.72 122.9 180.722 113.585 171.573L110.782 174.427C120.134 183.612 134.937 197.664 148.964 209.978C155.976 216.134 162.814 221.873 168.692 226.359C174.491 230.784 179.577 234.165 183.015 235.385L184.352 231.615ZM321.991 173.95C321.988 173.947 321.982 173.938 321.977 173.925C321.973 173.914 321.972 173.904 321.973 173.897C321.973 173.89 321.974 173.885 321.976 173.881C321.978 173.876 321.98 173.875 321.978 173.877L324.806 176.706C326.265 175.247 326.391 172.884 324.984 171.297L321.991 173.95ZM319.157 126.131C319.162 126.133 319.164 126.134 319.163 126.134C319.162 126.133 319.161 126.132 319.16 126.132C319.16 126.131 319.164 126.135 319.168 126.145C319.171 126.155 319.173 126.165 319.172 126.172C319.172 126.175 319.171 126.178 319.17 126.182C319.169 126.185 319.168 126.19 319.163 126.198L322.642 128.171C323.891 125.97 322.848 123.113 320.376 122.322L319.157 126.131ZM298.153 119.437C298.154 119.435 298.156 119.432 298.16 119.429C298.164 119.425 298.17 119.421 298.176 119.419C298.181 119.416 298.184 119.416 298.182 119.417C298.18 119.417 298.178 119.417 298.175 119.416C298.171 119.416 298.168 119.415 298.166 119.414L299.385 115.605C297.513 115.005 295.516 115.878 294.621 117.558L298.153 119.437Z" fill="white"/>
<path d="M56.1836 136C63.5169 139.667 80.8836 147 91.6836 147C105.184 147 91.6836 172 71.1836 166.5C50.6836 161 39.6836 154 36.6836 151.5" stroke="white" stroke-width="4"/>
<circle cx="116.684" cy="160.5" r="6.5" stroke="white" stroke-width="4"/>
<circle cx="146.684" cy="163.5" r="6.5" stroke="white" stroke-width="4"/>
<circle cx="176.684" cy="166.5" r="6.5" stroke="white" stroke-width="4"/>
<circle cx="206.684" cy="169.5" r="6.5" stroke="white" stroke-width="4"/>
<circle cx="236.684" cy="171.5" r="6.5" stroke="white" stroke-width="4"/>
<path d="M332.679 35.5175C332.355 35.5175 332.035 35.5332 331.718 35.5565C331.719 35.4619 331.722 35.3677 331.722 35.2729C331.721 30.8894 330.053 26.6546 327.027 23.3532C324.001 20.0519 319.822 17.9078 315.263 17.3184C315.266 17.2639 315.272 17.2104 315.272 17.1551C315.272 16.5351 315.111 15.9248 314.803 15.3784C314.495 14.8321 314.051 14.3668 313.509 14.0238C312.967 13.6808 312.344 13.4707 311.696 13.4124C311.049 13.3541 310.396 13.4492 309.796 13.6894C307.369 9.18615 303.574 5.48377 298.908 3.06445C294.241 0.645134 288.918 -0.378989 283.632 0.125463C278.346 0.629916 273.341 2.63956 269.271 5.89267C265.2 9.14578 262.252 13.4916 260.81 18.3641C258.871 17.7903 256.796 17.7776 254.85 18.3276C252.903 18.8776 251.171 19.9657 249.873 21.454C248.576 22.9424 247.77 24.7641 247.56 26.6887C247.349 28.6133 247.742 30.5542 248.689 32.2658C245 32.3511 241.494 33.8184 238.932 36.3499C236.369 38.8813 234.957 42.273 235.001 45.7899C235.045 49.3067 236.541 52.6654 239.166 55.1382C241.791 57.6109 245.332 58.9984 249.023 59H332.679C335.947 59 339.081 57.763 341.391 55.5611C343.702 53.3591 345 50.3727 345 47.2587C345 44.1448 343.702 41.1583 341.391 38.9564C339.081 36.7545 335.947 35.5175 332.679 35.5175Z" fill="white"/>
<path d="M110.273 278.838C110.228 278.838 110.184 278.84 110.14 278.841C110.462 276.985 110.195 275.077 109.375 273.377C108.556 271.677 107.224 270.268 105.562 269.342C103.9 268.417 101.989 268.021 100.09 268.208C98.1907 268.394 96.3964 269.155 94.9523 270.386C94.3755 266.3 92.4667 262.51 89.5141 259.588C86.5614 256.667 82.7252 254.772 78.5846 254.19C74.4441 253.608 70.224 254.371 66.5617 256.363C62.8993 258.355 59.9934 261.468 58.2829 265.233C55.1852 265.534 52.2969 266.911 50.1342 269.119C48.4336 267.623 46.2685 266.741 43.9934 266.617C41.7182 266.494 39.4679 267.135 37.6107 268.437C35.7535 269.739 34.3995 271.625 33.7703 273.785C33.1411 275.945 33.274 278.252 34.1473 280.328C33.075 280.218 31.9913 280.34 30.9723 280.688C29.9533 281.035 29.0237 281.598 28.2489 282.337C27.4742 283.077 26.873 283.975 26.4877 284.968C26.1023 285.961 25.9422 287.025 26.0185 288.086C26.0948 289.147 26.4057 290.178 26.9294 291.108C27.4531 292.037 28.1768 292.842 29.0496 293.466C29.9225 294.09 30.9234 294.518 31.9819 294.72C33.0404 294.922 34.1308 294.893 35.1766 294.634C35.3708 296.547 36.1305 298.361 37.3612 299.852C38.592 301.342 40.2396 302.443 42.0994 303.018C43.9591 303.592 45.9491 303.615 47.822 303.084C49.6949 302.553 51.3682 301.49 52.6341 300.028C53.4449 301.089 54.4945 301.95 55.7002 302.542C56.9058 303.134 58.2344 303.442 59.5812 303.441C59.9762 303.44 60.3707 303.413 60.762 303.36C61.3939 306.499 63.1595 309.305 65.7309 311.258C68.3022 313.21 71.5045 314.175 74.7429 313.974C77.9814 313.773 81.0357 312.419 83.3387 310.165C85.6416 307.91 87.0365 304.907 87.2644 301.715C89.032 302.44 90.9538 302.724 92.8594 302.542C94.7649 302.359 96.5954 301.716 98.1883 300.668C99.7813 299.62 101.088 298.201 101.991 296.536C102.895 294.872 103.368 293.013 103.369 291.124C103.368 290.645 103.336 290.167 103.275 289.692C103.862 290.929 104.776 291.987 105.919 292.756C107.063 293.526 108.396 293.978 109.777 294.065C111.159 294.153 112.539 293.873 113.773 293.254C115.007 292.636 116.05 291.701 116.793 290.549C117.536 289.397 117.952 288.069 117.996 286.704C118.04 285.339 117.712 283.988 117.046 282.791C116.38 281.594 115.399 280.595 114.208 279.9C113.016 279.205 111.657 278.838 110.273 278.838Z" fill="white"/>
<path d="M274.844 332.872C275.435 331.837 275.704 330.647 275.617 329.456C275.529 328.265 275.089 327.128 274.353 326.192C273.618 325.255 272.62 324.563 271.489 324.203C270.359 323.843 269.147 323.833 268.011 324.174C268.346 321.71 267.91 319.202 266.762 316.999C265.615 314.796 263.814 313.009 261.61 311.886C262.106 310.803 262.385 309.632 262.432 308.44C262.478 307.249 262.291 306.059 261.882 304.94C261.472 303.821 260.847 302.794 260.043 301.918C259.239 301.042 258.272 300.334 257.196 299.835C256.121 299.335 254.958 299.054 253.775 299.007C252.591 298.96 251.41 299.148 250.299 299.561C249.188 299.974 248.168 300.603 247.298 301.412C246.428 302.222 245.725 303.196 245.229 304.279C244.381 303.424 243.325 302.808 242.167 302.49C241.009 302.173 239.789 302.166 238.627 302.47C237.466 302.774 236.403 303.378 235.545 304.223C234.687 305.068 234.064 306.125 233.736 307.288C231.507 306.85 229.205 306.977 227.036 307.657C224.868 308.337 222.901 309.549 221.312 311.184C219.724 312.818 218.563 314.825 217.935 317.023C217.307 319.221 217.231 321.541 217.713 323.776C216.647 323.566 215.545 323.649 214.521 324.015C213.498 324.381 212.591 325.018 211.895 325.858C211.2 326.698 210.741 327.711 210.568 328.791C210.395 329.871 210.513 330.978 210.91 331.996C210.438 331.938 209.958 331.979 209.502 332.115C209.045 332.25 208.621 332.479 208.255 332.786C207.89 333.093 207.59 333.472 207.375 333.9C207.161 334.327 207.035 334.795 207.006 335.274C206.978 335.752 207.047 336.232 207.209 336.682C207.371 337.133 207.623 337.546 207.949 337.895C208.275 338.244 208.669 338.522 209.106 338.712C209.543 338.902 210.014 339 210.491 339H272.51C273.216 339 273.905 338.784 274.487 338.382C275.069 337.979 275.515 337.408 275.768 336.744C276.021 336.08 276.068 335.355 275.903 334.664C275.738 333.972 275.369 333.348 274.844 332.872Z" fill="white"/>
</svg>
