<svg width="329" height="89" viewBox="0 0 329 89" fill="none" xmlns="http://www.w3.org/2000/svg">
<path d="M164.086 88.4142C164.867 89.1953 166.133 89.1953 166.914 88.4142L179.642 75.6863C180.423 74.9052 180.423 73.6389 179.642 72.8579C178.861 72.0768 177.595 72.0768 176.814 72.8579L165.5 84.1716L154.186 72.8579C153.405 72.0768 152.139 72.0768 151.358 72.8579C150.577 73.6389 150.577 74.9053 151.358 75.6863L164.086 88.4142ZM165.5 64H163.5H165.5ZM9.89437e-06 18L5.36442e-06 32L4.00001 32L4.00001 18L9.89437e-06 18ZM18 50H149.5V46H18V50ZM163.5 64L163.5 87H167.5L167.5 64H163.5ZM18 4H329V0H18V4ZM149.5 50C157.232 50 163.5 56.268 163.5 64H167.5C167.5 54.0589 159.441 46 149.5 46V50ZM5.36442e-06 32C2.02656e-06 41.9411 8.05888 50 18 50V46C10.268 46 4 39.732 4.00001 32L5.36442e-06 32ZM4.00001 18C4.00001 10.268 10.268 4 18 4V0C8.05889 0 1.32322e-05 8.05887 9.89437e-06 18L4.00001 18Z" fill="white"/>
</svg>
