<svg width="946" height="1438" viewBox="0 0 946 1438" fill="none" xmlns="http://www.w3.org/2000/svg">
<mask id="mask0_237_1314" style="mask-type:alpha" maskUnits="userSpaceOnUse" x="0" y="0" width="946" height="1438">
<rect width="946" height="1438" fill="#D9D9D9"/>
</mask>
<g mask="url(#mask0_237_1314)">
<path d="M-394.802 589.259L1017.06 130.516L1192.6 928.464L-219.267 1387.21L-394.802 589.259Z" fill="#008C95"/>
<path d="M224.026 1303.73L114.113 1339.45L113.236 1336.75L222.033 1301.4L230.628 1284.5L270.001 1271.71L298.257 1216.25L500.376 1150.58L534.84 1082.94L537.367 1084.23L502.369 1152.91L300.25 1218.59L271.994 1274.04L232.621 1286.84L224.026 1303.73Z" fill="#008C95"/>
<path d="M531.232 1081.39C531.713 1080.45 532.461 1079.67 533.382 1079.16C534.302 1078.65 535.354 1078.42 536.405 1078.5C537.456 1078.59 538.458 1078.98 539.285 1079.63C540.112 1080.29 540.727 1081.17 541.053 1082.17C541.379 1083.18 541.4 1084.25 541.115 1085.27C540.83 1086.28 540.25 1087.19 539.45 1087.87C538.649 1088.56 537.664 1088.99 536.617 1089.12C535.571 1089.25 534.511 1089.06 533.57 1088.58C532.943 1088.27 532.384 1087.83 531.926 1087.29C531.469 1086.76 531.121 1086.14 530.904 1085.47C530.687 1084.8 530.604 1084.1 530.66 1083.4C530.716 1082.69 530.91 1082.01 531.232 1081.39Z" fill="#008C95"/>
<path d="M751.294 1244.4L334.406 1379.86L216.991 1320.05L149.456 1341.99L134.691 1370.94L132.164 1369.65L147.464 1339.65L217.23 1316.98L334.645 1376.79L749.301 1242.06L804.526 1133.68L939.83 1089.72L940.707 1092.42L806.537 1136.01L751.294 1244.4Z" fill="#008C95"/>
<path d="M941.665 1096.22C944.468 1095.31 946.002 1092.3 945.091 1089.5C944.18 1086.7 941.17 1085.16 938.368 1086.07C935.565 1086.98 934.031 1089.99 934.942 1092.8C935.853 1095.6 938.863 1097.13 941.665 1096.22Z" fill="#008C95"/>
<path d="M420.473 1351.45L417.946 1350.17L450.715 1285.88L675.921 1212.71L715.56 1134.91L893.188 1077.2L894.065 1079.9L717.553 1137.25L677.914 1215.05L452.708 1288.22L420.473 1351.45Z" fill="#008C95"/>
<path d="M386.635 1307.56L268.642 1345.9L267.765 1343.2L384.642 1305.22L420.363 1235.09L621.528 1169.72L673.182 1068.35L960.056 975.137L960.933 977.836L675.174 1070.68L623.521 1172.06L422.356 1237.42L386.635 1307.56Z" fill="#008C95"/>
<path d="M362.752 1289.77L238.047 1330.29L237.17 1327.59L360.759 1287.44L392.271 1225.59L573.282 1166.78L574.159 1169.48L394.264 1227.93L362.752 1289.77Z" fill="#008C95"/>
<path d="M575.117 1173.28C576.121 1172.96 577.005 1172.34 577.659 1171.51C578.312 1170.68 578.705 1169.68 578.788 1168.63C578.87 1167.58 578.639 1166.52 578.124 1165.6C577.608 1164.68 576.831 1163.93 575.891 1163.46C574.95 1162.98 573.889 1162.79 572.841 1162.91C571.793 1163.04 570.805 1163.47 570.003 1164.15C569.201 1164.84 568.619 1165.75 568.333 1166.76C568.046 1167.78 568.068 1168.86 568.394 1169.86C568.831 1171.2 569.785 1172.32 571.046 1172.96C572.307 1173.61 573.771 1173.72 575.117 1173.28Z" fill="#008C95"/>
<path d="M360.856 1198.95L358.329 1197.67L396.911 1121.95L496.531 1089.58L519.758 1043.99L802.548 952.107L803.425 954.807L521.751 1046.33L498.524 1091.91L398.904 1124.28L360.856 1198.95Z" fill="#008C95"/>
<path d="M804.383 958.614C807.186 957.703 808.72 954.693 807.809 951.89C806.899 949.088 803.888 947.554 801.086 948.464C798.283 949.375 796.749 952.385 797.66 955.188C798.571 957.99 801.581 959.524 804.383 958.614Z" fill="#008C95"/>
<path d="M420.916 1178.8L418.389 1177.52L434.479 1145.91L472.088 1133.69L472.965 1136.39L436.472 1148.24L420.916 1178.8Z" fill="#008C95"/>
<path d="M473.924 1140.19C474.928 1139.87 475.812 1139.25 476.465 1138.42C477.119 1137.59 477.512 1136.59 477.594 1135.54C477.677 1134.49 477.446 1133.43 476.931 1132.51C476.415 1131.59 475.638 1130.84 474.698 1130.36C473.757 1129.89 472.696 1129.7 471.648 1129.82C470.6 1129.94 469.612 1130.38 468.81 1131.06C468.007 1131.75 467.426 1132.65 467.14 1133.67C466.853 1134.69 466.874 1135.76 467.201 1136.77C467.638 1138.11 468.592 1139.23 469.853 1139.87C471.114 1140.52 472.578 1140.63 473.924 1140.19Z" fill="#008C95"/>
<path d="M647.166 1125.01L590.608 1143.38L559.542 1127.55L560.83 1125.03L590.865 1140.32L646.289 1122.31L647.166 1125.01Z" fill="#008C95"/>
<path d="M562.836 1121.65C561.896 1121.17 560.835 1120.99 559.789 1121.11C558.743 1121.24 557.757 1121.67 556.957 1122.36C556.156 1123.04 555.577 1123.95 555.292 1124.97C555.006 1125.98 555.028 1127.06 555.353 1128.06C555.679 1129.06 556.294 1129.95 557.122 1130.6C557.949 1131.25 558.951 1131.64 560.001 1131.73C561.052 1131.81 562.104 1131.58 563.025 1131.07C563.945 1130.56 564.694 1129.78 565.175 1128.85C565.496 1128.22 565.69 1127.54 565.747 1126.84C565.803 1126.14 565.72 1125.43 565.503 1124.76C565.285 1124.09 564.938 1123.47 564.48 1122.94C564.022 1122.41 563.464 1121.97 562.836 1121.65Z" fill="#008C95"/>
<path d="M659.582 1184.83L542.004 1223.04L512.672 1208.08L513.96 1205.55L542.242 1219.98L657.59 1182.5L706.971 1085.58L813.393 1051L814.27 1053.7L708.964 1087.92L659.582 1184.83Z" fill="#008C95"/>
<path d="M731.56 1229.53L534.102 1293.68L495.359 1273.94L496.646 1271.42L534.34 1290.62L729.567 1227.19L763.721 1160.19L766.248 1161.48L731.56 1229.53Z" fill="#008C95"/>
<path d="M769.589 1163.49C770.065 1162.55 770.252 1161.49 770.125 1160.45C769.999 1159.4 769.566 1158.41 768.88 1157.61C768.194 1156.81 767.287 1156.23 766.272 1155.95C765.258 1155.66 764.182 1155.69 763.179 1156.01C762.177 1156.34 761.293 1156.95 760.64 1157.78C759.987 1158.61 759.594 1159.61 759.509 1160.66C759.425 1161.71 759.654 1162.76 760.167 1163.68C760.68 1164.6 761.454 1165.35 762.391 1165.83C763.017 1166.15 763.7 1166.35 764.401 1166.4C765.103 1166.46 765.808 1166.38 766.477 1166.16C767.146 1165.94 767.765 1165.6 768.299 1165.14C768.833 1164.68 769.272 1164.12 769.589 1163.49Z" fill="#008C95"/>
<path d="M748.063 1007.11L597.356 1056.08L556.032 1035.01L557.32 1032.48L597.613 1053.01L747.186 1004.41L748.063 1007.11Z" fill="#008C95"/>
<path d="M749.022 1010.92C751.824 1010.01 753.358 1007 752.447 1004.2C751.537 1001.39 748.527 999.86 745.724 1000.77C742.921 1001.68 741.388 1004.69 742.298 1007.49C743.209 1010.3 746.219 1011.83 749.022 1010.92Z" fill="#008C95"/>
<path d="M775.863 1037.01L773.33 1035.71L787.901 1007.14L903.932 969.439L904.809 972.138L789.894 1009.48L775.863 1037.01Z" fill="#008C95"/>
<path d="M905.768 975.945C906.771 975.619 907.656 975.003 908.309 974.174C908.962 973.345 909.355 972.341 909.438 971.289C909.521 970.237 909.29 969.184 908.774 968.263C908.259 967.343 907.481 966.596 906.541 966.116C905.601 965.637 904.54 965.448 903.492 965.572C902.444 965.696 901.456 966.128 900.654 966.813C899.851 967.499 899.27 968.407 898.983 969.422C898.697 970.438 898.718 971.516 899.044 972.519C899.482 973.865 900.436 974.982 901.696 975.625C902.957 976.267 904.422 976.382 905.768 975.945Z" fill="#008C95"/>
<path d="M401.683 1338.32L311.618 1367.58L310.741 1364.89L399.672 1335.99L443.296 1250.37L492.8 1234.29L493.677 1236.99L445.288 1252.71L401.683 1338.32Z" fill="#008C95"/>
<path d="M494.635 1240.8C495.639 1240.47 496.523 1239.85 497.177 1239.02C497.83 1238.2 498.223 1237.19 498.306 1236.14C498.388 1235.09 498.157 1234.03 497.642 1233.11C497.126 1232.19 496.349 1231.45 495.409 1230.97C494.468 1230.49 493.407 1230.3 492.359 1230.42C491.311 1230.55 490.324 1230.98 489.521 1231.66C488.719 1232.35 488.137 1233.26 487.851 1234.27C487.565 1235.29 487.586 1236.37 487.912 1237.37C488.349 1238.72 489.303 1239.83 490.564 1240.48C491.825 1241.12 493.289 1241.23 494.635 1240.8Z" fill="#008C95"/>
<path d="M973.913 1059.6L939.724 1042.18L769.852 1097.38L734.28 1079.25L735.568 1076.73L770.091 1094.32L939.962 1039.12L975.201 1057.08L973.913 1059.6Z" fill="#008C95"/>
<path d="M171.888 1306.57L125.083 1321.78L93.2307 1305.55L94.5183 1303.02L125.34 1318.71L169.895 1304.23L231.309 1183.73L297.711 1162.16L345.464 1068.43L438.894 1038.08L439.771 1040.78L347.457 1070.77L299.703 1164.49L233.302 1186.07L171.888 1306.57Z" fill="#008C95"/>
<path d="M437.432 1034.43C438.435 1034.11 439.513 1034.09 440.529 1034.37C441.544 1034.66 442.452 1035.24 443.138 1036.04C443.823 1036.84 444.255 1037.83 444.379 1038.88C444.503 1039.93 444.314 1040.99 443.835 1041.93C443.356 1042.87 442.608 1043.65 441.688 1044.16C440.767 1044.68 439.714 1044.91 438.662 1044.83C437.61 1044.74 436.606 1044.35 435.777 1043.7C434.948 1043.04 434.332 1042.16 434.006 1041.16C433.569 1039.81 433.684 1038.35 434.326 1037.09C434.969 1035.82 436.086 1034.87 437.432 1034.43Z" fill="#008C95"/>
<path d="M232.883 1260.15L187.572 1274.87L186.695 1272.17L230.89 1257.82L257.859 1204.89L297.394 1192.04L298.271 1194.74L259.852 1207.22L232.883 1260.15Z" fill="#008C95"/>
<path d="M299.211 1198.55C300.211 1198.22 301.09 1197.6 301.737 1196.77C302.384 1195.94 302.771 1194.93 302.848 1193.88C302.925 1192.83 302.689 1191.78 302.17 1190.86C301.651 1189.94 300.872 1189.2 299.932 1188.73C298.991 1188.25 297.931 1188.07 296.885 1188.19C295.839 1188.32 294.854 1188.75 294.054 1189.44C293.254 1190.12 292.675 1191.03 292.39 1192.05C292.105 1193.06 292.126 1194.14 292.452 1195.14C292.669 1195.81 293.017 1196.43 293.475 1196.96C293.933 1197.5 294.492 1197.94 295.121 1198.25C295.749 1198.57 296.434 1198.76 297.136 1198.81C297.838 1198.86 298.543 1198.77 299.211 1198.55Z" fill="#008C95"/>
<path d="M419.118 1094.83L317.987 1127.69L317.11 1125L417.126 1092.5L431.272 1064.76L488.766 1046.08L495.058 1033.73L497.585 1035.02L490.758 1048.42L433.265 1067.1L419.118 1094.83Z" fill="#008C95"/>
<path d="M500.933 1037C501.409 1036.06 501.595 1035 501.469 1033.95C501.343 1032.9 500.909 1031.92 500.224 1031.12C499.538 1030.32 498.631 1029.74 497.616 1029.45C496.602 1029.17 495.525 1029.19 494.523 1029.51C493.52 1029.84 492.637 1030.46 491.984 1031.28C491.331 1032.11 490.937 1033.11 490.853 1034.16C490.769 1035.21 490.997 1036.27 491.51 1037.19C492.023 1038.11 492.797 1038.85 493.735 1039.34C494.361 1039.66 495.044 1039.85 495.745 1039.91C496.446 1039.96 497.151 1039.88 497.82 1039.66C498.489 1039.45 499.109 1039.1 499.643 1038.64C500.177 1038.18 500.616 1037.63 500.933 1037Z" fill="#008C95"/>
<path d="M604.385 993.953C604.861 993.013 605.048 991.953 604.921 990.906C604.795 989.86 604.362 988.874 603.676 988.074C602.991 987.274 602.083 986.694 601.069 986.409C600.054 986.124 598.978 986.145 597.975 986.471C596.973 986.796 596.089 987.412 595.436 988.239C594.783 989.066 594.39 990.068 594.306 991.119C594.221 992.169 594.45 993.221 594.963 994.142C595.476 995.063 596.25 995.811 597.188 996.292C597.813 996.613 598.496 996.808 599.198 996.864C599.899 996.92 600.604 996.837 601.273 996.62C601.942 996.403 602.561 996.055 603.095 995.597C603.63 995.14 604.068 994.581 604.385 993.953Z" fill="#008C95"/>
<path d="M818.74 1053.62C819.216 1052.68 819.402 1051.62 819.276 1050.57C819.15 1049.53 818.717 1048.54 818.031 1047.74C817.345 1046.94 816.438 1046.36 815.423 1046.08C814.409 1045.79 813.332 1045.81 812.33 1046.14C811.328 1046.46 810.444 1047.08 809.791 1047.91C809.138 1048.73 808.745 1049.74 808.66 1050.79C808.576 1051.84 808.805 1052.89 809.318 1053.81C809.831 1054.73 810.605 1055.48 811.542 1055.96C812.168 1056.28 812.851 1056.47 813.552 1056.53C814.253 1056.59 814.959 1056.5 815.628 1056.29C816.297 1056.07 816.916 1055.72 817.45 1055.26C817.984 1054.81 818.423 1054.25 818.74 1053.62Z" fill="#008C95"/>
<path d="M897.509 1081.74C897.985 1080.8 898.171 1079.74 898.045 1078.7C897.919 1077.65 897.486 1076.66 896.8 1075.86C896.114 1075.06 895.207 1074.48 894.192 1074.2C893.178 1073.91 892.101 1073.93 891.099 1074.26C890.097 1074.59 889.213 1075.2 888.56 1076.03C887.907 1076.86 887.514 1077.86 887.429 1078.91C887.345 1079.96 887.574 1081.01 888.087 1081.93C888.6 1082.85 889.374 1083.6 890.311 1084.08C890.937 1084.4 891.62 1084.6 892.321 1084.65C893.022 1084.71 893.728 1084.63 894.397 1084.41C895.066 1084.19 895.685 1083.84 896.219 1083.39C896.753 1082.93 897.192 1082.37 897.509 1081.74Z" fill="#008C95"/>
<path d="M377.877 1164.64L345.072 1175.3L324.83 1164.98L326.136 1162.45L345.311 1172.23L377 1161.94L377.877 1164.64Z" fill="#008C95"/>
<path d="M328.142 1159.07C327.202 1158.6 326.141 1158.41 325.095 1158.54C324.049 1158.66 323.063 1159.09 322.263 1159.78C321.462 1160.47 320.883 1161.37 320.597 1162.39C320.312 1163.4 320.334 1164.48 320.659 1165.48C320.985 1166.48 321.6 1167.37 322.427 1168.02C323.255 1168.67 324.257 1169.07 325.307 1169.15C326.358 1169.24 327.41 1169.01 328.331 1168.49C329.251 1167.98 330 1167.21 330.481 1166.27C330.802 1165.64 330.996 1164.96 331.053 1164.26C331.109 1163.56 331.026 1162.85 330.808 1162.18C330.591 1161.51 330.244 1160.9 329.786 1160.36C329.328 1159.83 328.77 1159.39 328.142 1159.07Z" fill="#008C95"/>
<path d="M838.292 934.883L816.072 923.561L630.077 983.995L595.959 966.611L485.92 1002.36L457.257 1058.59L454.73 1057.3L483.909 1000.03L596.198 963.549L630.315 980.933L816.311 920.499L839.58 932.356L838.292 934.883Z" fill="#008C95"/>
<path d="M836.262 938.248C837.203 938.724 838.263 938.911 839.31 938.784C840.356 938.658 841.341 938.225 842.142 937.539C842.942 936.853 843.522 935.946 843.807 934.932C844.092 933.917 844.071 932.841 843.745 931.838C843.419 930.836 842.804 929.952 841.977 929.299C841.15 928.646 840.148 928.253 839.097 928.168C838.047 928.084 836.995 928.313 836.074 928.826C835.153 929.339 834.405 930.113 833.924 931.05C833.602 931.676 833.408 932.359 833.352 933.06C833.296 933.762 833.379 934.467 833.596 935.136C833.813 935.805 834.161 936.424 834.618 936.958C835.076 937.493 835.635 937.931 836.262 938.248Z" fill="#008C95"/>
<path d="M346.113 1270.65L267.835 1296.09L242.635 1283.24L243.94 1280.71L268.092 1293.02L344.12 1268.31L371.162 1215.24L479.977 1179.89L480.854 1182.59L373.155 1217.58L346.113 1270.65Z" fill="#008C95"/>
<path d="M481.83 1186.45C482.834 1186.12 483.718 1185.5 484.371 1184.67C485.025 1183.85 485.418 1182.84 485.5 1181.79C485.583 1180.74 485.352 1179.68 484.837 1178.76C484.321 1177.84 483.544 1177.1 482.604 1176.62C481.663 1176.14 480.602 1175.95 479.554 1176.07C478.506 1176.2 477.518 1176.63 476.716 1177.31C475.913 1178 475.332 1178.91 475.046 1179.92C474.759 1180.94 474.78 1182.02 475.107 1183.02C475.548 1184.36 476.503 1185.48 477.762 1186.12C479.022 1186.76 480.484 1186.88 481.83 1186.45Z" fill="#008C95"/>
<path d="M329.996 1233.35L282.201 1248.88L283.078 1251.58L330.873 1236.05L329.996 1233.35Z" fill="#008C95"/>
<path d="M331.849 1239.85C332.853 1239.53 333.737 1238.91 334.39 1238.08C335.044 1237.25 335.437 1236.25 335.519 1235.2C335.602 1234.15 335.371 1233.09 334.855 1232.17C334.34 1231.25 333.563 1230.5 332.622 1230.02C331.682 1229.55 330.621 1229.36 329.573 1229.48C328.525 1229.6 327.537 1230.04 326.735 1230.72C325.932 1231.41 325.351 1232.31 325.065 1233.33C324.778 1234.35 324.799 1235.42 325.125 1236.43C325.567 1237.77 326.522 1238.88 327.781 1239.53C329.041 1240.17 330.503 1240.29 331.849 1239.85Z" fill="#008C95"/>
<path d="M656.95 1202.88L580.418 1227.74L558.841 1216.75L560.129 1214.22L580.657 1224.68L656.073 1200.18L656.95 1202.88Z" fill="#008C95"/>
<path d="M657.908 1206.68C658.912 1206.36 659.797 1205.74 660.45 1204.91C661.103 1204.08 661.496 1203.08 661.579 1202.03C661.662 1200.98 661.431 1199.92 660.915 1199C660.399 1198.08 659.622 1197.33 658.682 1196.86C657.742 1196.38 656.681 1196.19 655.633 1196.31C654.585 1196.44 653.597 1196.87 652.794 1197.55C651.992 1198.24 651.411 1199.15 651.124 1200.16C650.838 1201.18 650.859 1202.26 651.185 1203.26C651.622 1204.6 652.576 1205.72 653.837 1206.36C655.098 1207.01 656.563 1207.12 657.908 1206.68Z" fill="#008C95"/>
<path d="M601.68 992.485L548.001 1009.93L514.337 992.773L515.624 990.246L548.24 1006.86L600.803 989.786L601.68 992.485Z" fill="#008C95"/>
<path d="M720.258 1183.6L688.767 1193.83L687.89 1191.13L718.266 1181.26L736.372 1145.76L782.943 1130.63L783.82 1133.32L738.365 1148.09L720.258 1183.6Z" fill="#008C95"/>
<path d="M784.778 1137.13C787.581 1136.22 789.115 1133.21 788.204 1130.41C787.293 1127.61 784.283 1126.07 781.481 1126.98C778.678 1127.89 777.144 1130.9 778.055 1133.71C778.966 1136.51 781.976 1138.04 784.778 1137.13Z" fill="#008C95"/>
<path d="M733.889 1029.92L666.606 1051.78L644.743 1040.64L646.03 1038.12L666.844 1048.72L733.012 1027.22L733.889 1029.92Z" fill="#008C95"/>
<path d="M734.847 1033.73C735.851 1033.4 736.735 1032.79 737.389 1031.96C738.042 1031.13 738.435 1030.13 738.518 1029.07C738.601 1028.02 738.37 1026.97 737.854 1026.05C737.338 1025.13 736.561 1024.38 735.621 1023.9C734.681 1023.42 733.619 1023.23 732.571 1023.36C731.523 1023.48 730.536 1023.91 729.733 1024.6C728.931 1025.28 728.35 1026.19 728.063 1027.21C727.777 1028.22 727.798 1029.3 728.124 1030.3C728.561 1031.65 729.515 1032.77 730.776 1033.41C732.037 1034.05 733.502 1034.17 734.847 1033.73Z" fill="#008C95"/>
<path d="M821.578 1304.94L482.266 1415.19L382.517 1364.38L383.823 1361.85L482.504 1412.13L819.567 1302.61L854.972 1233.16L1032.28 1175.55L1057.79 1188.54L1056.5 1191.07L1032.04 1178.61L856.965 1235.49L821.578 1304.94Z" fill="#008C95"/>
<path d="M819.729 1253.7L662.525 1304.78L624.539 1285.41L625.827 1282.88L662.782 1301.71L817.736 1251.36L856.282 1175.71L858.809 1177L819.729 1253.7Z" fill="#008C95"/>
<path d="M862.168 1179.01C862.638 1178.07 862.82 1177.02 862.692 1175.98C862.564 1174.94 862.13 1173.96 861.447 1173.16C860.763 1172.37 859.86 1171.79 858.85 1171.51C857.84 1171.23 856.77 1171.25 855.772 1171.57C854.775 1171.9 853.896 1172.51 853.245 1173.33C852.595 1174.15 852.202 1175.15 852.116 1176.19C852.031 1177.24 852.256 1178.29 852.764 1179.2C853.271 1180.12 854.039 1180.87 854.97 1181.35C855.596 1181.67 856.279 1181.87 856.981 1181.93C857.682 1181.99 858.389 1181.9 859.058 1181.69C859.728 1181.47 860.348 1181.12 860.881 1180.66C861.415 1180.2 861.853 1179.64 862.168 1179.01Z" fill="#008C95"/>
<path d="M821.771 1193.55L768.002 1211.02L767.125 1208.32L819.778 1191.21L839.525 1152.43L897.037 1133.74L897.914 1136.44L841.518 1154.77L821.771 1193.55Z" fill="#008C95"/>
<path d="M898.878 1140.27C901.681 1139.36 903.214 1136.35 902.304 1133.54C901.393 1130.74 898.383 1129.21 895.58 1130.12C892.778 1131.03 891.244 1134.04 892.155 1136.84C893.065 1139.64 896.075 1141.18 898.878 1140.27Z" fill="#008C95"/>
<path d="M909.319 1218.26L906.792 1216.98L930.408 1170.63L966.056 1159.04L966.933 1161.74L932.4 1172.96L909.319 1218.26Z" fill="#008C95"/>
<path d="M593.259 1355.31L567.492 1342.2L429.309 1387.1L428.432 1384.4L567.731 1339.14L594.547 1352.79L593.259 1355.31Z" fill="#008C95"/>
<path d="M595.314 1359C598.116 1358.09 599.65 1355.08 598.74 1352.28C597.829 1349.48 594.819 1347.94 592.016 1348.86C589.214 1349.77 587.68 1352.78 588.59 1355.58C589.501 1358.38 592.511 1359.92 595.314 1359Z" fill="#008C95"/>
<path d="M743.815 1301.9L636.332 1336.82L570.022 1303.02L571.309 1300.49L636.57 1333.76L742.938 1299.2L743.815 1301.9Z" fill="#008C95"/>
<path d="M744.773 1305.71C745.777 1305.38 746.661 1304.76 747.315 1303.94C747.968 1303.11 748.361 1302.1 748.444 1301.05C748.527 1300 748.296 1298.95 747.78 1298.03C747.264 1297.1 746.487 1296.36 745.547 1295.88C744.607 1295.4 743.545 1295.21 742.497 1295.33C741.449 1295.46 740.462 1295.89 739.659 1296.58C738.857 1297.26 738.276 1298.17 737.989 1299.18C737.703 1300.2 737.724 1301.28 738.05 1302.28C738.487 1303.63 739.441 1304.74 740.702 1305.39C741.963 1306.03 743.427 1306.14 744.773 1305.71Z" fill="#008C95"/>
<path d="M673.641 969.163L671.114 967.875L699.073 912.973L873.3 856.364L894.413 814.927L896.94 816.214L875.292 858.7L701.066 915.31L673.641 969.163Z" fill="#008C95"/>
<path d="M900.299 818.226C900.775 817.286 900.961 816.226 900.835 815.179C900.709 814.133 900.276 813.147 899.59 812.347C898.904 811.547 897.997 810.967 896.982 810.682C895.968 810.397 894.891 810.418 893.889 810.744C892.887 811.069 892.003 811.685 891.35 812.512C890.697 813.339 890.304 814.341 890.219 815.392C890.135 816.442 890.364 817.494 890.877 818.415C891.39 819.336 892.164 820.084 893.101 820.565C893.727 820.889 894.41 821.085 895.112 821.143C895.813 821.2 896.52 821.118 897.189 820.9C897.859 820.683 898.479 820.334 899.012 819.875C899.546 819.416 899.984 818.856 900.299 818.226Z" fill="#008C95"/>
<mask id="mask1_237_1314" style="mask-type:alpha" maskUnits="userSpaceOnUse" x="-126" y="368" width="1144" height="925">
<rect x="-125.885" y="674.89" width="991.512" height="649.436" transform="rotate(-18 -125.885 674.89)" fill="#008C95"/>
</mask>
<g mask="url(#mask1_237_1314)">
<path d="M224.026 1303.73L114.113 1339.45L113.236 1336.75L222.033 1301.4L230.628 1284.5L270.001 1271.71L298.257 1216.25L500.376 1150.58L534.84 1082.94L537.367 1084.23L502.369 1152.91L300.25 1218.59L271.994 1274.04L232.621 1286.84L224.026 1303.73Z" fill="#46A9AF"/>
<path d="M531.232 1081.39C531.713 1080.45 532.461 1079.67 533.382 1079.16C534.302 1078.65 535.354 1078.42 536.405 1078.5C537.456 1078.59 538.458 1078.98 539.285 1079.63C540.112 1080.29 540.727 1081.17 541.053 1082.17C541.379 1083.18 541.4 1084.25 541.115 1085.27C540.83 1086.28 540.25 1087.19 539.45 1087.87C538.649 1088.56 537.664 1088.99 536.617 1089.12C535.571 1089.25 534.511 1089.06 533.57 1088.58C532.943 1088.27 532.384 1087.83 531.926 1087.29C531.469 1086.76 531.121 1086.14 530.904 1085.47C530.686 1084.8 530.604 1084.1 530.66 1083.4C530.716 1082.69 530.91 1082.01 531.232 1081.39Z" fill="#46A9AF"/>
<path d="M751.294 1244.4L334.406 1379.86L216.991 1320.05L149.456 1341.99L134.691 1370.94L132.163 1369.65L147.464 1339.65L217.23 1316.98L334.645 1376.79L749.301 1242.06L804.526 1133.68L939.83 1089.72L940.707 1092.42L806.537 1136.01L751.294 1244.4Z" fill="#46A9AF"/>
<path d="M941.665 1096.22C944.468 1095.31 946.002 1092.3 945.091 1089.5C944.18 1086.7 941.17 1085.16 938.368 1086.07C935.565 1086.98 934.031 1089.99 934.942 1092.8C935.853 1095.6 938.863 1097.13 941.665 1096.22Z" fill="#46A9AF"/>
<path d="M420.473 1351.45L417.946 1350.17L450.715 1285.88L675.921 1212.71L715.56 1134.91L893.188 1077.2L894.065 1079.9L717.553 1137.25L677.914 1215.05L452.708 1288.22L420.473 1351.45Z" fill="#46A9AF"/>
<path d="M386.635 1307.56L268.642 1345.9L267.765 1343.2L384.642 1305.22L420.363 1235.09L621.528 1169.72L673.182 1068.35L960.056 975.137L960.933 977.836L675.174 1070.68L623.521 1172.06L422.356 1237.42L386.635 1307.56Z" fill="#46A9AF"/>
<path d="M362.752 1289.78L238.047 1330.29L237.17 1327.59L360.759 1287.44L392.271 1225.59L573.282 1166.78L574.159 1169.48L394.264 1227.93L362.752 1289.78Z" fill="#46A9AF"/>
<path d="M575.117 1173.28C576.121 1172.96 577.005 1172.34 577.658 1171.51C578.312 1170.68 578.705 1169.68 578.787 1168.63C578.87 1167.58 578.639 1166.52 578.124 1165.6C577.608 1164.68 576.831 1163.93 575.891 1163.46C574.95 1162.98 573.889 1162.79 572.841 1162.91C571.793 1163.04 570.805 1163.47 570.003 1164.15C569.2 1164.84 568.619 1165.75 568.333 1166.76C568.046 1167.78 568.068 1168.86 568.394 1169.86C568.831 1171.2 569.785 1172.32 571.046 1172.96C572.307 1173.61 573.771 1173.72 575.117 1173.28Z" fill="#46A9AF"/>
<path d="M360.856 1198.95L358.329 1197.67L396.911 1121.95L496.531 1089.58L519.758 1043.99L802.548 952.108L803.425 954.807L521.751 1046.33L498.524 1091.91L398.904 1124.28L360.856 1198.95Z" fill="#46A9AF"/>
<path d="M804.383 958.614C807.186 957.703 808.72 954.693 807.809 951.89C806.899 949.088 803.888 947.554 801.086 948.464C798.283 949.375 796.749 952.385 797.66 955.188C798.571 957.99 801.581 959.524 804.383 958.614Z" fill="#46A9AF"/>
<path d="M420.916 1178.8L418.389 1177.52L434.479 1145.91L472.088 1133.69L472.965 1136.39L436.472 1148.24L420.916 1178.8Z" fill="#46A9AF"/>
<path d="M473.924 1140.19C474.928 1139.87 475.812 1139.25 476.465 1138.42C477.119 1137.59 477.512 1136.59 477.594 1135.54C477.677 1134.49 477.446 1133.43 476.93 1132.51C476.415 1131.59 475.638 1130.84 474.697 1130.36C473.757 1129.89 472.696 1129.7 471.648 1129.82C470.6 1129.94 469.612 1130.38 468.81 1131.06C468.007 1131.75 467.426 1132.65 467.14 1133.67C466.853 1134.69 466.874 1135.76 467.201 1136.77C467.638 1138.11 468.592 1139.23 469.853 1139.87C471.114 1140.52 472.578 1140.63 473.924 1140.19Z" fill="#46A9AF"/>
<path d="M647.166 1125.01L590.608 1143.38L559.542 1127.55L560.83 1125.03L590.865 1140.32L646.289 1122.31L647.166 1125.01Z" fill="#46A9AF"/>
<path d="M562.836 1121.65C561.896 1121.17 560.835 1120.99 559.789 1121.11C558.743 1121.24 557.757 1121.67 556.957 1122.36C556.156 1123.04 555.577 1123.95 555.291 1124.97C555.006 1125.98 555.028 1127.06 555.353 1128.06C555.679 1129.06 556.294 1129.95 557.121 1130.6C557.949 1131.25 558.951 1131.65 560.001 1131.73C561.052 1131.81 562.104 1131.58 563.025 1131.07C563.945 1130.56 564.694 1129.79 565.175 1128.85C565.496 1128.22 565.69 1127.54 565.747 1126.84C565.803 1126.14 565.72 1125.43 565.502 1124.76C565.285 1124.09 564.938 1123.47 564.48 1122.94C564.022 1122.41 563.464 1121.97 562.836 1121.65Z" fill="#46A9AF"/>
<path d="M659.582 1184.83L542.004 1223.04L512.672 1208.08L513.96 1205.55L542.242 1219.98L657.59 1182.5L706.971 1085.58L813.393 1051L814.27 1053.7L708.964 1087.92L659.582 1184.83Z" fill="#46A9AF"/>
<path d="M731.56 1229.53L534.102 1293.68L495.359 1273.94L496.646 1271.42L534.34 1290.62L729.567 1227.19L763.721 1160.19L766.248 1161.48L731.56 1229.53Z" fill="#46A9AF"/>
<path d="M769.589 1163.49C770.065 1162.55 770.251 1161.49 770.125 1160.45C769.999 1159.4 769.566 1158.41 768.88 1157.61C768.194 1156.81 767.287 1156.23 766.272 1155.95C765.258 1155.66 764.181 1155.69 763.179 1156.01C762.177 1156.34 761.293 1156.95 760.64 1157.78C759.987 1158.61 759.594 1159.61 759.509 1160.66C759.425 1161.71 759.654 1162.76 760.167 1163.68C760.68 1164.6 761.454 1165.35 762.391 1165.83C763.017 1166.15 763.7 1166.35 764.401 1166.4C765.102 1166.46 765.808 1166.38 766.477 1166.16C767.146 1165.94 767.765 1165.6 768.299 1165.14C768.833 1164.68 769.272 1164.12 769.589 1163.49Z" fill="#46A9AF"/>
<path d="M748.063 1007.11L597.356 1056.08L556.032 1035.01L557.32 1032.48L597.613 1053.01L747.186 1004.41L748.063 1007.11Z" fill="#46A9AF"/>
<path d="M749.021 1010.92C751.824 1010.01 753.358 1007 752.447 1004.2C751.537 1001.39 748.526 999.86 745.724 1000.77C742.921 1001.68 741.387 1004.69 742.298 1007.49C743.209 1010.3 746.219 1011.83 749.021 1010.92Z" fill="#46A9AF"/>
<path d="M775.863 1037.01L773.33 1035.71L787.901 1007.14L903.932 969.439L904.809 972.138L789.894 1009.48L775.863 1037.01Z" fill="#46A9AF"/>
<path d="M905.767 975.945C906.771 975.619 907.656 975.003 908.309 974.174C908.962 973.345 909.355 972.342 909.438 971.289C909.521 970.237 909.29 969.184 908.774 968.264C908.258 967.343 907.481 966.596 906.541 966.117C905.601 965.638 904.54 965.448 903.492 965.572C902.444 965.696 901.456 966.128 900.653 966.814C899.851 967.499 899.27 968.407 898.983 969.422C898.697 970.438 898.718 971.516 899.044 972.52C899.481 973.865 900.435 974.983 901.696 975.625C902.957 976.267 904.422 976.383 905.767 975.945Z" fill="#46A9AF"/>
<path d="M401.683 1338.32L311.618 1367.58L310.741 1364.89L399.672 1335.99L443.296 1250.37L492.8 1234.29L493.677 1236.99L445.288 1252.71L401.683 1338.32Z" fill="#46A9AF"/>
<path d="M494.635 1240.8C495.639 1240.47 496.523 1239.85 497.177 1239.02C497.83 1238.2 498.223 1237.19 498.306 1236.14C498.388 1235.09 498.157 1234.03 497.642 1233.11C497.126 1232.19 496.349 1231.45 495.409 1230.97C494.468 1230.49 493.407 1230.3 492.359 1230.42C491.311 1230.55 490.323 1230.98 489.521 1231.66C488.719 1232.35 488.137 1233.26 487.851 1234.27C487.564 1235.29 487.586 1236.37 487.912 1237.37C488.349 1238.72 489.303 1239.83 490.564 1240.48C491.825 1241.12 493.289 1241.23 494.635 1240.8Z" fill="#46A9AF"/>
<path d="M973.913 1059.6L939.724 1042.18L769.852 1097.38L734.28 1079.25L735.568 1076.73L770.091 1094.32L939.962 1039.12L975.201 1057.08L973.913 1059.6Z" fill="#46A9AF"/>
<path d="M171.888 1306.57L125.083 1321.78L93.2306 1305.55L94.5183 1303.02L125.34 1318.71L169.895 1304.23L231.309 1183.73L297.71 1162.16L345.464 1068.43L438.894 1038.08L439.771 1040.78L347.457 1070.77L299.703 1164.49L233.302 1186.07L171.888 1306.57Z" fill="#46A9AF"/>
<path d="M437.432 1034.43C438.435 1034.11 439.513 1034.09 440.529 1034.37C441.544 1034.66 442.452 1035.24 443.138 1036.04C443.823 1036.84 444.255 1037.83 444.379 1038.88C444.503 1039.93 444.314 1040.99 443.835 1041.93C443.355 1042.87 442.608 1043.65 441.688 1044.16C440.767 1044.68 439.714 1044.91 438.662 1044.83C437.61 1044.74 436.606 1044.35 435.777 1043.7C434.948 1043.04 434.332 1042.16 434.006 1041.16C433.569 1039.81 433.684 1038.35 434.326 1037.09C434.969 1035.82 436.086 1034.87 437.432 1034.43Z" fill="#46A9AF"/>
<path d="M232.883 1260.15L187.572 1274.87L186.695 1272.17L230.89 1257.82L257.859 1204.89L297.394 1192.04L298.271 1194.74L259.852 1207.22L232.883 1260.15Z" fill="#46A9AF"/>
<path d="M299.211 1198.55C300.211 1198.22 301.09 1197.6 301.737 1196.77C302.384 1195.94 302.771 1194.93 302.848 1193.88C302.925 1192.83 302.689 1191.78 302.17 1190.86C301.651 1189.94 300.872 1189.2 299.932 1188.73C298.991 1188.25 297.931 1188.07 296.885 1188.19C295.839 1188.32 294.854 1188.75 294.054 1189.44C293.254 1190.12 292.675 1191.03 292.39 1192.05C292.104 1193.06 292.126 1194.14 292.452 1195.14C292.669 1195.81 293.017 1196.43 293.475 1196.96C293.933 1197.5 294.492 1197.94 295.121 1198.25C295.749 1198.57 296.434 1198.76 297.136 1198.81C297.838 1198.86 298.543 1198.77 299.211 1198.55Z" fill="#46A9AF"/>
<path d="M419.118 1094.84L317.987 1127.69L317.11 1125L417.126 1092.5L431.272 1064.76L488.765 1046.08L495.058 1033.73L497.585 1035.02L490.758 1048.42L433.264 1067.1L419.118 1094.84Z" fill="#46A9AF"/>
<path d="M500.933 1037C501.409 1036.06 501.595 1035 501.469 1033.95C501.343 1032.9 500.909 1031.92 500.224 1031.12C499.538 1030.32 498.631 1029.74 497.616 1029.45C496.601 1029.17 495.525 1029.19 494.523 1029.51C493.52 1029.84 492.637 1030.46 491.984 1031.28C491.331 1032.11 490.937 1033.11 490.853 1034.16C490.769 1035.21 490.997 1036.27 491.51 1037.19C492.023 1038.11 492.797 1038.85 493.735 1039.34C494.361 1039.66 495.044 1039.85 495.745 1039.91C496.446 1039.96 497.151 1039.88 497.82 1039.66C498.489 1039.45 499.109 1039.1 499.643 1038.64C500.177 1038.18 500.615 1037.63 500.933 1037Z" fill="#46A9AF"/>
<path d="M818.74 1053.62C819.216 1052.68 819.402 1051.62 819.276 1050.57C819.15 1049.53 818.717 1048.54 818.031 1047.74C817.345 1046.94 816.438 1046.36 815.423 1046.08C814.409 1045.79 813.332 1045.81 812.33 1046.14C811.328 1046.46 810.444 1047.08 809.791 1047.91C809.138 1048.73 808.745 1049.74 808.66 1050.79C808.576 1051.84 808.805 1052.89 809.318 1053.81C809.831 1054.73 810.605 1055.48 811.542 1055.96C812.168 1056.28 812.851 1056.48 813.552 1056.53C814.253 1056.59 814.959 1056.5 815.628 1056.29C816.297 1056.07 816.916 1055.72 817.45 1055.26C817.984 1054.81 818.423 1054.25 818.74 1053.62Z" fill="#46A9AF"/>
<path d="M897.509 1081.74C897.985 1080.8 898.171 1079.74 898.045 1078.7C897.919 1077.65 897.486 1076.66 896.8 1075.86C896.114 1075.06 895.207 1074.48 894.192 1074.2C893.178 1073.91 892.101 1073.93 891.099 1074.26C890.097 1074.59 889.213 1075.2 888.56 1076.03C887.907 1076.86 887.513 1077.86 887.429 1078.91C887.345 1079.96 887.574 1081.01 888.087 1081.93C888.599 1082.85 889.374 1083.6 890.311 1084.08C890.937 1084.4 891.62 1084.6 892.321 1084.65C893.022 1084.71 893.728 1084.63 894.397 1084.41C895.066 1084.19 895.685 1083.84 896.219 1083.39C896.753 1082.93 897.192 1082.37 897.509 1081.74Z" fill="#46A9AF"/>
<path d="M377.877 1164.64L345.072 1175.3L324.83 1164.98L326.136 1162.45L345.311 1172.23L377 1161.94L377.877 1164.64Z" fill="#46A9AF"/>
<path d="M328.142 1159.07C327.201 1158.6 326.141 1158.41 325.095 1158.54C324.048 1158.66 323.063 1159.1 322.263 1159.78C321.462 1160.47 320.883 1161.37 320.597 1162.39C320.312 1163.4 320.334 1164.48 320.659 1165.48C320.985 1166.48 321.6 1167.37 322.427 1168.02C323.255 1168.67 324.257 1169.07 325.307 1169.15C326.358 1169.24 327.41 1169.01 328.331 1168.49C329.251 1167.98 329.999 1167.21 330.481 1166.27C330.802 1165.64 330.996 1164.96 331.052 1164.26C331.109 1163.56 331.026 1162.85 330.808 1162.18C330.591 1161.52 330.244 1160.9 329.786 1160.36C329.328 1159.83 328.77 1159.39 328.142 1159.07Z" fill="#46A9AF"/>
<path d="M836.262 938.248C837.203 938.724 838.263 938.911 839.309 938.784C840.356 938.658 841.341 938.225 842.142 937.539C842.942 936.853 843.522 935.946 843.807 934.932C844.092 933.917 844.071 932.841 843.745 931.838C843.419 930.836 842.804 929.952 841.977 929.299C841.15 928.646 840.148 928.253 839.097 928.168C838.046 928.084 836.994 928.313 836.074 928.826C835.153 929.339 834.405 930.113 833.924 931.05C833.602 931.676 833.408 932.359 833.352 933.06C833.296 933.762 833.379 934.467 833.596 935.136C833.813 935.805 834.161 936.424 834.618 936.958C835.076 937.493 835.635 937.931 836.262 938.248Z" fill="#46A9AF"/>
<path d="M346.113 1270.65L267.835 1296.09L242.635 1283.24L243.94 1280.71L268.092 1293.02L344.12 1268.31L371.162 1215.24L479.977 1179.89L480.854 1182.59L373.155 1217.58L346.113 1270.65Z" fill="#46A9AF"/>
<path d="M481.83 1186.45C482.834 1186.12 483.718 1185.5 484.371 1184.67C485.025 1183.85 485.418 1182.84 485.5 1181.79C485.583 1180.74 485.352 1179.69 484.836 1178.76C484.321 1177.84 483.544 1177.1 482.603 1176.62C481.663 1176.14 480.602 1175.95 479.554 1176.07C478.506 1176.2 477.518 1176.63 476.716 1177.31C475.913 1178 475.332 1178.91 475.046 1179.92C474.759 1180.94 474.78 1182.02 475.107 1183.02C475.548 1184.36 476.503 1185.48 477.762 1186.12C479.022 1186.76 480.484 1186.88 481.83 1186.45Z" fill="#46A9AF"/>
<path d="M329.996 1233.35L282.201 1248.88L283.078 1251.58L330.873 1236.05L329.996 1233.35Z" fill="#46A9AF"/>
<path d="M331.849 1239.85C332.852 1239.53 333.737 1238.91 334.39 1238.08C335.044 1237.25 335.436 1236.25 335.519 1235.2C335.602 1234.15 335.371 1233.09 334.855 1232.17C334.34 1231.25 333.563 1230.5 332.622 1230.02C331.682 1229.55 330.621 1229.36 329.573 1229.48C328.525 1229.6 327.537 1230.04 326.735 1230.72C325.932 1231.41 325.351 1232.31 325.065 1233.33C324.778 1234.35 324.799 1235.42 325.125 1236.43C325.567 1237.77 326.522 1238.88 327.781 1239.53C329.041 1240.17 330.503 1240.29 331.849 1239.85Z" fill="#46A9AF"/>
<path d="M656.95 1202.88L580.418 1227.74L558.841 1216.75L560.129 1214.22L580.657 1224.68L656.073 1200.18L656.95 1202.88Z" fill="#46A9AF"/>
<path d="M657.908 1206.68C658.912 1206.36 659.796 1205.74 660.45 1204.91C661.103 1204.08 661.496 1203.08 661.579 1202.03C661.662 1200.98 661.431 1199.92 660.915 1199C660.399 1198.08 659.622 1197.33 658.682 1196.86C657.742 1196.38 656.68 1196.19 655.632 1196.31C654.584 1196.44 653.597 1196.87 652.794 1197.55C651.992 1198.24 651.411 1199.15 651.124 1200.16C650.838 1201.18 650.859 1202.26 651.185 1203.26C651.622 1204.6 652.576 1205.72 653.837 1206.36C655.098 1207.01 656.563 1207.12 657.908 1206.68Z" fill="#46A9AF"/>
<path d="M720.258 1183.6L688.767 1193.83L687.89 1191.13L718.266 1181.26L736.372 1145.76L782.943 1130.63L783.82 1133.33L738.365 1148.09L720.258 1183.6Z" fill="#46A9AF"/>
<path d="M784.778 1137.13C787.581 1136.22 789.115 1133.21 788.204 1130.41C787.293 1127.61 784.283 1126.07 781.481 1126.98C778.678 1127.89 777.144 1130.9 778.055 1133.71C778.965 1136.51 781.976 1138.04 784.778 1137.13Z" fill="#46A9AF"/>
<path d="M733.889 1029.92L666.606 1051.78L644.743 1040.64L646.03 1038.12L666.844 1048.72L733.011 1027.22L733.889 1029.92Z" fill="#46A9AF"/>
<path d="M734.847 1033.73C735.851 1033.4 736.735 1032.79 737.389 1031.96C738.042 1031.13 738.435 1030.13 738.518 1029.07C738.6 1028.02 738.369 1026.97 737.854 1026.05C737.338 1025.13 736.561 1024.38 735.621 1023.9C734.681 1023.42 733.619 1023.23 732.571 1023.36C731.523 1023.48 730.536 1023.91 729.733 1024.6C728.931 1025.28 728.35 1026.19 728.063 1027.21C727.777 1028.22 727.798 1029.3 728.124 1030.3C728.561 1031.65 729.515 1032.77 730.776 1033.41C732.037 1034.05 733.501 1034.17 734.847 1033.73Z" fill="#46A9AF"/>
<path d="M821.577 1304.94L482.266 1415.19L382.517 1364.38L383.823 1361.85L482.504 1412.13L819.567 1302.61L854.972 1233.16L1032.28 1175.55L1057.79 1188.54L1056.5 1191.07L1032.04 1178.61L856.965 1235.49L821.577 1304.94Z" fill="#46A9AF"/>
<path d="M819.729 1253.7L662.525 1304.78L624.539 1285.41L625.827 1282.88L662.782 1301.71L817.736 1251.36L856.282 1175.71L858.809 1177L819.729 1253.7Z" fill="#46A9AF"/>
<path d="M862.168 1179.01C862.638 1178.07 862.82 1177.02 862.692 1175.98C862.564 1174.94 862.13 1173.96 861.447 1173.16C860.763 1172.37 859.86 1171.79 858.85 1171.51C857.84 1171.23 856.77 1171.25 855.772 1171.57C854.775 1171.9 853.896 1172.51 853.245 1173.33C852.595 1174.15 852.202 1175.15 852.116 1176.19C852.031 1177.24 852.256 1178.29 852.764 1179.2C853.271 1180.12 854.039 1180.87 854.97 1181.35C855.596 1181.67 856.279 1181.87 856.981 1181.93C857.682 1181.99 858.389 1181.9 859.058 1181.69C859.728 1181.47 860.348 1181.12 860.881 1180.66C861.415 1180.2 861.853 1179.64 862.168 1179.01Z" fill="#46A9AF"/>
<path d="M821.771 1193.55L768.002 1211.02L767.125 1208.32L819.778 1191.21L839.525 1152.43L897.037 1133.74L897.914 1136.44L841.518 1154.77L821.771 1193.55Z" fill="#46A9AF"/>
<path d="M898.878 1140.27C901.68 1139.36 903.214 1136.35 902.304 1133.54C901.393 1130.74 898.383 1129.21 895.58 1130.12C892.778 1131.03 891.244 1134.04 892.154 1136.84C893.065 1139.64 896.075 1141.18 898.878 1140.27Z" fill="#46A9AF"/>
<path d="M909.319 1218.26L906.792 1216.98L930.408 1170.63L966.056 1159.04L966.933 1161.74L932.4 1172.96L909.319 1218.26Z" fill="#46A9AF"/>
<path d="M743.815 1301.9L636.331 1336.82L570.022 1303.02L571.309 1300.49L636.57 1333.76L742.938 1299.2L743.815 1301.9Z" fill="#46A9AF"/>
<path d="M673.641 969.163L671.114 967.875L699.073 912.974L873.299 856.364L894.413 814.927L896.94 816.215L875.292 858.701L701.066 915.31L673.641 969.163Z" fill="#46A9AF"/>
<path d="M900.299 818.227C900.775 817.286 900.961 816.226 900.835 815.18C900.709 814.133 900.276 813.148 899.59 812.347C898.904 811.547 897.997 810.967 896.982 810.682C895.968 810.397 894.891 810.418 893.889 810.744C892.887 811.07 892.003 811.685 891.35 812.512C890.697 813.339 890.303 814.341 890.219 815.392C890.135 816.443 890.364 817.495 890.877 818.415C891.39 819.336 892.164 820.084 893.101 820.565C893.726 820.889 894.41 821.086 895.112 821.143C895.813 821.201 896.519 821.118 897.189 820.901C897.859 820.683 898.479 820.335 899.012 819.876C899.546 819.417 899.984 818.856 900.299 818.227Z" fill="#46A9AF"/>
</g>
<path d="M337.587 414.63L227.674 450.343L226.797 447.644L335.594 412.294L344.189 395.396L383.562 382.603L411.818 327.147L613.937 261.474L648.401 193.835L650.928 195.123L615.93 263.811L413.811 329.483L385.555 384.939L346.182 397.732L337.587 414.63Z" fill="#008C95"/>
<path d="M644.793 192.282C645.274 191.344 646.022 190.57 646.943 190.057C647.864 189.544 648.916 189.316 649.966 189.4C651.017 189.484 652.019 189.878 652.846 190.531C653.673 191.184 654.289 192.067 654.614 193.07C654.94 194.072 654.961 195.148 654.676 196.163C654.391 197.178 653.811 198.085 653.011 198.771C652.211 199.456 651.225 199.89 650.179 200.016C649.132 200.142 648.072 199.956 647.132 199.48C646.504 199.163 645.945 198.724 645.488 198.19C645.03 197.656 644.682 197.036 644.465 196.367C644.248 195.698 644.165 194.993 644.221 194.292C644.277 193.591 644.472 192.908 644.793 192.282Z" fill="#008C95"/>
<path d="M864.855 355.298L447.967 490.753L330.552 430.942L263.017 452.885L248.252 481.835L245.725 480.547L261.025 450.549L330.791 427.88L448.206 487.691L862.862 352.961L918.087 244.576L1053.39 200.613L1054.27 203.313L920.098 246.907L864.855 355.298Z" fill="#008C95"/>
<path d="M534.034 462.351L531.507 461.063L564.276 396.78L789.482 323.606L829.121 245.81L1006.75 188.095L1007.63 190.795L831.114 248.147L791.475 325.942L566.268 399.116L534.034 462.351Z" fill="#008C95"/>
<path d="M500.196 418.456L382.203 456.794L381.326 454.095L498.203 416.119L533.924 345.982L735.089 280.62L786.743 179.244L1073.62 86.0332L1074.49 88.7325L788.735 181.581L737.082 282.957L535.917 348.319L500.196 418.456Z" fill="#008C95"/>
<path d="M476.313 400.671L351.608 441.19L350.731 438.491L474.32 398.334L505.832 336.489L686.843 277.675L687.72 280.374L507.825 338.826L476.313 400.671Z" fill="#008C95"/>
<path d="M688.678 284.181C689.682 283.855 690.566 283.238 691.22 282.41C691.873 281.581 692.266 280.577 692.349 279.525C692.432 278.473 692.201 277.42 691.685 276.499C691.169 275.578 690.392 274.831 689.452 274.352C688.512 273.873 687.45 273.684 686.402 273.808C685.354 273.932 684.367 274.364 683.564 275.049C682.762 275.734 682.181 276.642 681.894 277.658C681.608 278.674 681.629 279.751 681.955 280.755C682.392 282.101 683.346 283.218 684.607 283.86C685.868 284.503 687.332 284.618 688.678 284.181Z" fill="#008C95"/>
<path d="M474.417 309.851L471.89 308.563L510.472 232.842L610.092 200.473L633.319 154.888L916.109 63.0038L916.986 65.703L635.312 157.225L612.085 202.81L512.465 235.178L474.417 309.851Z" fill="#008C95"/>
<path d="M917.944 69.5099C920.747 68.5993 922.281 65.5891 921.37 62.7865C920.459 59.9839 917.449 58.4502 914.647 59.3608C911.844 60.2714 910.31 63.2816 911.221 66.0842C912.131 68.8868 915.142 70.4206 917.944 69.5099Z" fill="#008C95"/>
<path d="M534.477 289.7L531.95 288.412L548.04 256.804L585.65 244.583L586.527 247.283L550.033 259.14L534.477 289.7Z" fill="#008C95"/>
<path d="M587.485 251.09C588.489 250.763 589.373 250.147 590.027 249.318C590.68 248.49 591.073 247.486 591.156 246.434C591.239 245.382 591.008 244.329 590.492 243.408C589.976 242.487 589.199 241.74 588.259 241.261C587.319 240.782 586.257 240.592 585.209 240.716C584.161 240.84 583.174 241.272 582.371 241.958C581.569 242.643 580.988 243.551 580.701 244.567C580.415 245.582 580.436 246.66 580.762 247.664C581.199 249.01 582.153 250.127 583.414 250.769C584.675 251.412 586.139 251.527 587.485 251.09Z" fill="#008C95"/>
<path d="M782.658 193.625L726.1 212.002L695.035 196.173L696.322 193.645L726.357 208.934L781.781 190.926L782.658 193.625Z" fill="#008C95"/>
<path d="M698.329 190.268C697.388 189.792 696.328 189.606 695.282 189.732C694.235 189.858 693.25 190.291 692.449 190.977C691.649 191.663 691.069 192.57 690.784 193.585C690.499 194.599 690.52 195.676 690.846 196.678C691.172 197.68 691.787 198.564 692.614 199.217C693.441 199.87 694.443 200.264 695.494 200.348C696.545 200.432 697.597 200.203 698.517 199.69C699.438 199.177 700.186 198.403 700.667 197.466C700.989 196.84 701.183 196.157 701.239 195.456C701.295 194.755 701.212 194.049 700.995 193.38C700.778 192.711 700.43 192.092 699.973 191.558C699.515 191.024 698.956 190.585 698.329 190.268Z" fill="#008C95"/>
<path d="M773.144 295.73L655.565 333.934L626.234 318.974L627.521 316.447L655.804 330.872L771.151 293.393L820.533 196.477L926.954 161.898L927.831 164.597L822.525 198.813L773.144 295.73Z" fill="#008C95"/>
<path d="M845.121 340.423L647.663 404.581L608.92 384.84L610.208 382.313L647.902 401.519L843.128 338.086L877.282 271.085L879.809 272.372L845.121 340.423Z" fill="#008C95"/>
<path d="M883.151 274.39C883.626 273.45 883.813 272.389 883.687 271.343C883.56 270.297 883.127 269.311 882.441 268.511C881.756 267.71 880.848 267.131 879.834 266.846C878.819 266.56 877.743 266.582 876.74 266.907C875.738 267.233 874.855 267.848 874.202 268.676C873.548 269.503 873.155 270.505 873.071 271.555C872.986 272.606 873.215 273.658 873.728 274.579C874.241 275.499 875.015 276.248 875.953 276.729C876.578 277.05 877.262 277.244 877.963 277.301C878.664 277.357 879.369 277.274 880.038 277.057C880.707 276.839 881.326 276.492 881.861 276.034C882.395 275.577 882.833 275.018 883.151 274.39Z" fill="#008C95"/>
<path d="M861.625 118.009L710.917 166.977L669.594 145.906L670.881 143.379L711.174 163.909L860.748 115.31L861.625 118.009Z" fill="#008C95"/>
<path d="M862.583 121.816C865.385 120.905 866.919 117.895 866.008 115.093C865.098 112.29 862.088 110.756 859.285 111.667C856.482 112.577 854.949 115.588 855.859 118.39C856.77 121.193 859.78 122.727 862.583 121.816Z" fill="#008C95"/>
<path d="M889.424 147.91L886.891 146.605L901.462 118.036L1017.49 80.3354L1018.37 83.0346L903.455 120.373L889.424 147.91Z" fill="#008C95"/>
<path d="M515.244 449.218L425.18 478.481L424.303 475.782L513.233 446.887L556.857 361.271L606.361 345.186L607.238 347.885L558.85 363.608L515.244 449.218Z" fill="#008C95"/>
<path d="M608.196 351.692C609.2 351.366 610.084 350.75 610.738 349.921C611.391 349.092 611.784 348.088 611.867 347.036C611.949 345.984 611.718 344.931 611.203 344.01C610.687 343.09 609.91 342.342 608.97 341.863C608.03 341.384 606.968 341.195 605.92 341.319C604.872 341.443 603.885 341.875 603.082 342.56C602.28 343.246 601.698 344.153 601.412 345.169C601.126 346.185 601.147 347.263 601.473 348.266C601.91 349.612 602.864 350.729 604.125 351.372C605.386 352.014 606.85 352.129 608.196 351.692Z" fill="#008C95"/>
<path d="M1087.47 170.5L1053.28 153.08L883.413 208.274L847.841 190.15L849.129 187.622L883.652 205.213L1053.52 150.018L1088.76 167.973L1087.47 170.5Z" fill="#008C95"/>
<path d="M285.449 417.466L238.644 432.674L206.792 416.444L208.079 413.917L238.901 429.606L283.456 415.129L344.87 294.627L411.272 273.052L459.025 179.33L552.455 148.972L553.332 151.672L461.018 181.666L413.264 275.388L346.863 296.963L285.449 417.466Z" fill="#008C95"/>
<path d="M550.993 145.329C551.996 145.003 553.074 144.982 554.09 145.269C555.106 145.555 556.014 146.136 556.699 146.939C557.384 147.741 557.816 148.729 557.94 149.777C558.064 150.825 557.875 151.886 557.396 152.826C556.917 153.767 556.17 154.544 555.249 155.059C554.328 155.575 553.275 155.806 552.223 155.723C551.171 155.64 550.167 155.248 549.338 154.594C548.51 153.941 547.893 153.056 547.567 152.053C547.13 150.707 547.245 149.243 547.887 147.982C548.53 146.721 549.647 145.767 550.993 145.329Z" fill="#008C95"/>
<path d="M346.444 371.048L301.133 385.771L300.256 383.071L344.451 368.711L371.42 315.783L410.955 302.937L411.832 305.636L373.412 318.119L346.444 371.048Z" fill="#008C95"/>
<path d="M412.772 309.449C413.772 309.116 414.651 308.495 415.298 307.663C415.945 306.832 416.332 305.827 416.409 304.776C416.486 303.726 416.25 302.675 415.731 301.758C415.212 300.841 414.434 300.098 413.493 299.623C412.553 299.148 411.492 298.962 410.446 299.089C409.4 299.216 408.415 299.649 407.615 300.335C406.815 301.021 406.236 301.928 405.951 302.942C405.666 303.957 405.687 305.033 406.013 306.035C406.23 306.704 406.578 307.324 407.036 307.858C407.494 308.393 408.054 308.831 408.682 309.149C409.31 309.466 409.995 309.656 410.697 309.707C411.399 309.759 412.104 309.671 412.772 309.449Z" fill="#008C95"/>
<path d="M262.055 359.363C263.055 359.03 263.934 358.409 264.581 357.577C265.229 356.746 265.615 355.741 265.692 354.69C265.769 353.64 265.533 352.589 265.015 351.672C264.496 350.755 263.717 350.012 262.776 349.537C261.836 349.062 260.776 348.876 259.73 349.003C258.684 349.13 257.698 349.563 256.898 350.249C256.098 350.935 255.519 351.842 255.234 352.856C254.949 353.871 254.971 354.947 255.296 355.949C255.514 356.618 255.861 357.238 256.319 357.773C256.778 358.307 257.337 358.745 257.965 359.063C258.593 359.38 259.278 359.57 259.98 359.622C260.682 359.673 261.388 359.585 262.055 359.363Z" fill="#008C95"/>
<path d="M215.735 345.915C216.734 345.582 217.613 344.961 218.26 344.129C218.908 343.298 219.294 342.293 219.371 341.242C219.448 340.192 219.213 339.141 218.694 338.224C218.175 337.307 217.396 336.564 216.455 336.089C215.515 335.614 214.455 335.428 213.409 335.555C212.363 335.682 211.377 336.115 210.577 336.801C209.777 337.487 209.198 338.394 208.913 339.408C208.628 340.423 208.65 341.499 208.975 342.501C209.193 343.17 209.541 343.79 209.999 344.325C210.457 344.859 211.016 345.297 211.644 345.615C212.273 345.932 212.957 346.122 213.659 346.174C214.361 346.225 215.067 346.137 215.735 345.915Z" fill="#008C95"/>
<path d="M532.679 205.731L431.548 238.591L430.671 235.892L530.687 203.395L544.833 175.661L602.327 156.98L608.619 144.63L611.146 145.918L604.319 159.317L546.826 177.998L532.679 205.731Z" fill="#008C95"/>
<path d="M614.494 147.894C614.97 146.953 615.157 145.893 615.03 144.846C614.904 143.8 614.471 142.814 613.785 142.014C613.099 141.214 612.192 140.634 611.177 140.349C610.163 140.064 609.087 140.085 608.084 140.411C607.082 140.737 606.198 141.352 605.545 142.179C604.892 143.006 604.499 144.008 604.414 145.059C604.33 146.109 604.559 147.161 605.072 148.082C605.585 149.003 606.359 149.751 607.296 150.232C607.922 150.554 608.605 150.748 609.306 150.804C610.008 150.86 610.713 150.777 611.382 150.56C612.051 150.343 612.67 149.995 613.204 149.538C613.738 149.08 614.177 148.521 614.494 147.894Z" fill="#008C95"/>
<path d="M717.947 104.85C718.423 103.909 718.609 102.849 718.483 101.803C718.357 100.756 717.923 99.7709 717.238 98.9705C716.552 98.1701 715.645 97.5907 714.63 97.3054C713.615 97.0201 712.539 97.0416 711.537 97.3673C710.534 97.693 709.651 98.3082 708.998 99.1354C708.345 99.9626 707.951 100.965 707.867 102.015C707.783 103.066 708.011 104.118 708.524 105.039C709.037 105.959 709.811 106.707 710.749 107.189C711.375 107.51 712.058 107.704 712.759 107.76C713.46 107.817 714.165 107.734 714.834 107.516C715.503 107.299 716.123 106.952 716.657 106.494C717.191 106.036 717.629 105.478 717.947 104.85Z" fill="#008C95"/>
<path d="M932.301 164.517C932.777 163.577 932.963 162.517 932.837 161.47C932.711 160.424 932.278 159.438 931.592 158.638C930.906 157.837 929.999 157.258 928.984 156.973C927.97 156.687 926.893 156.709 925.891 157.035C924.889 157.36 924.005 157.976 923.352 158.803C922.699 159.63 922.306 160.632 922.221 161.683C922.137 162.733 922.366 163.785 922.879 164.706C923.392 165.627 924.166 166.375 925.103 166.856C925.729 167.177 926.412 167.372 927.113 167.428C927.814 167.484 928.52 167.401 929.189 167.184C929.858 166.966 930.477 166.619 931.011 166.161C931.545 165.704 931.984 165.145 932.301 164.517Z" fill="#008C95"/>
<path d="M491.438 275.533L458.633 286.192L438.391 275.879L439.697 273.345L458.872 283.13L490.561 272.834L491.438 275.533Z" fill="#008C95"/>
<path d="M441.703 269.968C440.763 269.492 439.702 269.306 438.656 269.432C437.61 269.558 436.624 269.992 435.824 270.677C435.023 271.363 434.444 272.27 434.159 273.285C433.873 274.299 433.895 275.376 434.221 276.378C434.546 277.381 435.162 278.264 435.989 278.917C436.816 279.57 437.818 279.964 438.869 280.048C439.919 280.132 440.971 279.903 441.892 279.391C442.813 278.878 443.561 278.104 444.042 277.166C444.363 276.54 444.558 275.857 444.614 275.156C444.67 274.455 444.587 273.749 444.37 273.081C444.152 272.412 443.805 271.792 443.347 271.258C442.89 270.724 442.331 270.285 441.703 269.968Z" fill="#008C95"/>
<path d="M951.854 45.7793L929.633 34.4573L743.638 94.8909L709.52 77.5071L599.481 113.261L570.818 169.486L568.291 168.198L597.471 110.93L709.759 74.4454L743.877 91.8291L929.872 31.3956L953.141 43.2521L951.854 45.7793Z" fill="#008C95"/>
<path d="M949.823 49.145C950.764 49.6207 951.824 49.8072 952.87 49.6809C953.917 49.5547 954.902 49.1214 955.703 48.4357C956.503 47.7501 957.082 46.8427 957.368 45.8281C957.653 44.8135 957.631 43.7372 957.306 42.7348C956.98 41.7324 956.365 40.849 955.538 40.1959C954.71 39.5428 953.708 39.1493 952.658 39.065C951.607 38.9807 950.555 39.2095 949.635 39.7224C948.714 40.2353 947.966 41.0094 947.484 41.9471C947.163 42.5728 946.969 43.2559 946.913 43.957C946.856 44.6582 946.939 45.3635 947.157 46.0324C947.374 46.7014 947.722 47.3208 948.179 47.855C948.637 48.3891 949.195 48.8276 949.823 49.145Z" fill="#008C95"/>
<path d="M459.674 381.547L381.396 406.981L356.196 394.141L357.501 391.608L381.653 403.914L457.682 379.211L484.723 326.139L593.538 290.782L594.415 293.482L486.716 328.475L459.674 381.547Z" fill="#008C95"/>
<path d="M595.391 297.342C596.395 297.016 597.279 296.4 597.933 295.571C598.586 294.742 598.979 293.738 599.062 292.686C599.144 291.634 598.913 290.581 598.398 289.661C597.882 288.74 597.105 287.993 596.165 287.514C595.224 287.035 594.163 286.845 593.115 286.969C592.067 287.093 591.08 287.525 590.277 288.21C589.475 288.896 588.893 289.804 588.607 290.819C588.321 291.835 588.342 292.913 588.668 293.917C589.109 295.259 590.064 296.373 591.324 297.015C592.583 297.657 594.045 297.774 595.391 297.342Z" fill="#008C95"/>
<path d="M443.557 344.249L395.762 359.778L396.639 362.478L444.434 346.948L443.557 344.249Z" fill="#008C95"/>
<path d="M445.41 350.749C446.414 350.423 447.298 349.807 447.951 348.978C448.605 348.149 448.998 347.146 449.08 346.094C449.163 345.041 448.932 343.988 448.417 343.068C447.901 342.147 447.124 341.4 446.184 340.921C445.243 340.442 444.182 340.252 443.134 340.376C442.086 340.5 441.098 340.932 440.296 341.618C439.493 342.303 438.912 343.211 438.626 344.227C438.339 345.242 438.361 346.32 438.687 347.324C439.128 348.667 440.083 349.78 441.342 350.422C442.602 351.064 444.064 351.182 445.41 350.749Z" fill="#008C95"/>
<path d="M770.512 313.774L693.979 338.641L672.402 327.647L673.69 325.12L694.218 335.579L769.635 311.075L770.512 313.774Z" fill="#008C95"/>
<path d="M771.47 317.581C772.474 317.255 773.358 316.638 774.011 315.81C774.665 314.981 775.058 313.977 775.14 312.925C775.223 311.873 774.992 310.82 774.476 309.899C773.961 308.979 773.184 308.231 772.243 307.752C771.303 307.273 770.242 307.084 769.194 307.208C768.146 307.332 767.158 307.764 766.356 308.449C765.553 309.134 764.972 310.042 764.686 311.058C764.399 312.074 764.42 313.152 764.746 314.155C765.184 315.501 766.138 316.618 767.399 317.261C768.66 317.903 770.124 318.018 771.47 317.581Z" fill="#008C95"/>
<path d="M715.241 103.381L661.563 120.823L627.898 103.67L629.186 101.143L661.801 117.761L714.364 100.682L715.241 103.381Z" fill="#008C95"/>
<path d="M833.82 294.497L802.329 304.729L801.452 302.03L831.827 292.16L849.934 256.654L896.504 241.522L897.381 244.221L851.926 258.991L833.82 294.497Z" fill="#008C95"/>
<path d="M898.34 248.028C901.142 247.118 902.676 244.108 901.765 241.305C900.855 238.502 897.845 236.969 895.042 237.879C892.239 238.79 890.706 241.8 891.616 244.603C892.527 247.405 895.537 248.939 898.34 248.028Z" fill="#008C95"/>
<path d="M847.45 140.819L780.167 162.68L758.304 151.54L759.592 149.013L780.406 159.618L846.573 138.119L847.45 140.819Z" fill="#008C95"/>
<path d="M848.408 144.625C849.412 144.299 850.296 143.683 850.95 142.854C851.603 142.025 851.996 141.022 852.079 139.97C852.162 138.917 851.931 137.864 851.415 136.944C850.899 136.023 850.122 135.276 849.182 134.797C848.242 134.318 847.18 134.128 846.132 134.252C845.084 134.376 844.097 134.808 843.294 135.494C842.492 136.179 841.911 137.087 841.624 138.103C841.338 139.118 841.359 140.196 841.685 141.2C842.122 142.546 843.076 143.663 844.337 144.305C845.598 144.947 847.063 145.063 848.408 144.625Z" fill="#008C95"/>
<path d="M935.139 415.84L595.827 526.089L496.078 475.28L497.384 472.747L596.065 523.027L933.128 413.509L968.533 344.052L1145.84 286.443L1171.35 299.441L1170.06 301.968L1145.6 289.504L970.526 346.389L935.139 415.84Z" fill="#008C95"/>
<path d="M933.29 364.595L776.087 415.673L738.101 396.304L739.389 393.776L776.343 412.606L931.297 362.258L969.843 286.608L972.37 287.896L933.29 364.595Z" fill="#008C95"/>
<path d="M935.332 304.446L881.564 321.917L880.686 319.218L933.34 302.11L953.086 263.325L1010.6 244.638L1011.48 247.338L955.079 265.662L935.332 304.446Z" fill="#008C95"/>
<path d="M706.82 466.211L681.053 453.097L542.87 497.995L541.993 495.296L681.292 450.035L708.108 463.684L706.82 466.211Z" fill="#008C95"/>
<path d="M708.875 469.9C711.678 468.99 713.212 465.98 712.301 463.177C711.39 460.374 708.38 458.841 705.578 459.751C702.775 460.662 701.241 463.672 702.152 466.475C703.062 469.277 706.073 470.811 708.875 469.9Z" fill="#008C95"/>
<path d="M857.376 412.796L749.893 447.72L683.583 413.918L684.871 411.391L750.132 444.658L856.499 410.097L857.376 412.796Z" fill="#008C95"/>
<path d="M858.335 416.603C859.339 416.277 860.223 415.66 860.876 414.832C861.53 414.003 861.922 412.999 862.005 411.947C862.088 410.895 861.857 409.842 861.341 408.921C860.826 408.001 860.049 407.253 859.108 406.774C858.168 406.295 857.107 406.106 856.059 406.23C855.011 406.354 854.023 406.786 853.221 407.471C852.418 408.156 851.837 409.064 851.551 410.08C851.264 411.096 851.285 412.174 851.611 413.177C852.049 414.523 853.003 415.64 854.264 416.283C855.525 416.925 856.989 417.04 858.335 416.603Z" fill="#008C95"/>
<path d="M73.2532 507.308L-343.635 642.763L-461.05 582.952L-528.585 604.896L-543.35 633.846L-545.877 632.558L-530.577 602.559L-460.811 579.891L-343.396 639.702L71.2604 504.972L126.485 396.587L261.789 352.624L262.666 355.323L128.496 398.918L73.2532 507.308Z" fill="#008C95"/>
<path d="M-257.568 614.361L-260.095 613.073L-227.326 548.79L-2.11981 475.616L37.5191 397.82L215.147 340.106L216.024 342.805L39.5118 400.157L-0.127098 477.953L-225.333 551.127L-257.568 614.361Z" fill="#008C95"/>
<mask id="mask2_237_1314" style="mask-type:alpha" maskUnits="userSpaceOnUse" x="77" y="129" width="1144" height="925">
<rect x="77.329" y="435.773" width="991.512" height="649.436" transform="rotate(-18 77.329 435.773)" fill="#008C95"/>
</mask>
<g mask="url(#mask2_237_1314)">
<path d="M337.587 414.63L252.153 442.46L251.276 439.761L335.595 412.294L344.189 395.396L383.562 382.603L411.818 327.147L613.937 261.474L648.401 193.835L650.928 195.123L615.93 263.811L413.811 329.483L385.555 384.939L346.182 397.732L337.587 414.63Z" fill="#46A9AF"/>
<path d="M644.793 192.282C645.274 191.344 646.022 190.57 646.943 190.057C647.864 189.544 648.916 189.316 649.966 189.4C651.017 189.484 652.019 189.878 652.846 190.531C653.673 191.184 654.289 192.067 654.614 193.07C654.94 194.072 654.962 195.148 654.676 196.163C654.391 197.178 653.811 198.085 653.011 198.771C652.211 199.456 651.225 199.89 650.179 200.016C649.132 200.142 648.072 199.956 647.132 199.48C646.504 199.163 645.945 198.724 645.488 198.19C645.03 197.656 644.683 197.036 644.465 196.367C644.248 195.698 644.165 194.993 644.221 194.292C644.277 193.591 644.472 192.908 644.793 192.282Z" fill="#46A9AF"/>
<path d="M500.196 418.456L441.2 437.625L409.03 423.035L409.777 420.794L441.2 434.989L498.203 416.119L533.925 345.982L735.09 280.62L786.743 179.244L1073.62 86.033L1074.5 88.7323L788.736 181.581L737.083 282.956L535.918 348.319L500.196 418.456Z" fill="#46A9AF"/>
<path d="M470.336 403.66L347.036 443.954L346.159 441.255L468.343 401.323L499.855 339.477L680.866 280.663L681.743 283.363L501.848 341.814L470.336 403.66Z" fill="#46A9AF"/>
<path d="M682.702 287.169C683.705 286.843 684.59 286.227 685.243 285.398C685.896 284.569 686.289 283.565 686.372 282.513C686.455 281.461 686.224 280.408 685.708 279.488C685.193 278.567 684.415 277.82 683.475 277.341C682.535 276.861 681.474 276.672 680.426 276.796C679.378 276.92 678.39 277.352 677.588 278.037C676.785 278.723 676.204 279.631 675.917 280.646C675.631 281.662 675.652 282.74 675.978 283.744C676.416 285.089 677.37 286.206 678.63 286.849C679.891 287.491 681.356 287.607 682.702 287.169Z" fill="#46A9AF"/>
<path d="M474.418 309.851L471.89 308.563L510.473 232.842L610.092 200.473L633.319 154.888L916.109 63.0038L916.986 65.703L635.312 157.225L612.085 202.81L512.465 235.178L474.418 309.851Z" fill="#46A9AF"/>
<path d="M534.478 289.7L531.95 288.412L548.041 256.804L585.65 244.583L586.527 247.283L550.033 259.14L534.478 289.7Z" fill="#46A9AF"/>
<path d="M587.485 251.09C588.489 250.763 589.373 250.147 590.027 249.318C590.68 248.49 591.073 247.486 591.156 246.434C591.238 245.382 591.007 244.329 590.492 243.408C589.976 242.487 589.199 241.74 588.259 241.261C587.319 240.782 586.257 240.592 585.209 240.716C584.161 240.84 583.174 241.272 582.371 241.958C581.569 242.643 580.988 243.551 580.701 244.567C580.415 245.582 580.436 246.66 580.762 247.664C581.199 249.01 582.153 250.127 583.414 250.769C584.675 251.412 586.139 251.527 587.485 251.09Z" fill="#46A9AF"/>
<path d="M782.659 193.625L726.101 212.002L695.035 196.173L696.322 193.646L726.357 208.934L781.781 190.926L782.659 193.625Z" fill="#46A9AF"/>
<path d="M698.329 190.268C697.388 189.792 696.328 189.606 695.282 189.732C694.235 189.858 693.25 190.292 692.449 190.977C691.649 191.663 691.069 192.57 690.784 193.585C690.499 194.6 690.52 195.676 690.846 196.678C691.172 197.681 691.787 198.564 692.614 199.217C693.441 199.87 694.443 200.264 695.494 200.348C696.545 200.432 697.597 200.204 698.517 199.691C699.438 199.178 700.186 198.404 700.667 197.466C700.989 196.84 701.183 196.157 701.239 195.456C701.295 194.755 701.212 194.05 700.995 193.381C700.778 192.712 700.43 192.092 699.973 191.558C699.515 191.024 698.956 190.586 698.329 190.268Z" fill="#46A9AF"/>
<path d="M773.144 295.73L655.565 333.934L626.234 318.974L627.522 316.446L655.804 330.872L771.151 293.393L820.533 196.476L926.955 161.898L927.832 164.597L822.525 198.813L773.144 295.73Z" fill="#46A9AF"/>
<path d="M861.625 118.009L710.918 166.977L669.594 145.907L670.882 143.379L711.174 163.909L860.748 115.31L861.625 118.009Z" fill="#46A9AF"/>
<path d="M889.424 147.911L886.891 146.605L901.462 118.037L1017.49 80.3358L1018.37 83.035L903.455 120.373L889.424 147.911Z" fill="#46A9AF"/>
<path d="M1087.47 170.5L1053.29 153.08L883.413 208.274L847.841 190.15L849.129 187.622L883.652 205.213L1053.52 150.018L1088.76 167.973L1087.47 170.5Z" fill="#46A9AF"/>
<path d="M285.449 417.466L238.645 432.673L203.591 415.395L203.591 412.576L238.901 429.606L283.457 415.129L344.871 294.627L411.272 273.052L459.026 179.33L552.455 148.972L553.332 151.672L461.018 181.666L413.265 275.388L346.863 296.963L285.449 417.466Z" fill="#46A9AF"/>
<path d="M550.993 145.329C551.997 145.003 553.074 144.982 554.09 145.269C555.106 145.555 556.014 146.136 556.699 146.939C557.384 147.741 557.816 148.729 557.941 149.777C558.065 150.825 557.875 151.886 557.396 152.826C556.917 153.767 556.17 154.544 555.249 155.059C554.328 155.575 553.275 155.806 552.223 155.723C551.171 155.64 550.167 155.248 549.338 154.594C548.51 153.941 547.893 153.056 547.567 152.053C547.13 150.707 547.245 149.243 547.888 147.982C548.53 146.721 549.647 145.767 550.993 145.329Z" fill="#46A9AF"/>
<path d="M346.445 371.048L301.133 385.77L300.256 383.071L344.452 368.711L371.42 315.782L410.955 302.937L411.832 305.636L373.413 318.119L346.445 371.048Z" fill="#46A9AF"/>
<path d="M412.773 309.449C413.772 309.116 414.651 308.495 415.298 307.663C415.946 306.832 416.332 305.827 416.409 304.776C416.486 303.726 416.251 302.675 415.732 301.758C415.213 300.841 414.434 300.098 413.493 299.623C412.553 299.148 411.493 298.962 410.447 299.089C409.401 299.216 408.415 299.649 407.615 300.335C406.815 301.021 406.236 301.928 405.951 302.942C405.666 303.957 405.688 305.033 406.013 306.035C406.231 306.704 406.578 307.324 407.037 307.858C407.495 308.393 408.054 308.831 408.682 309.149C409.311 309.466 409.995 309.656 410.697 309.707C411.399 309.759 412.105 309.671 412.773 309.449Z" fill="#46A9AF"/>
<path d="M532.68 205.731L431.548 238.591L430.671 235.892L530.687 203.395L544.833 175.661L602.327 156.98L608.619 144.63L611.147 145.918L604.32 159.317L546.826 177.998L532.68 205.731Z" fill="#46A9AF"/>
<path d="M614.494 147.894C614.97 146.953 615.157 145.893 615.03 144.847C614.904 143.8 614.471 142.815 613.785 142.014C613.1 141.214 612.192 140.635 611.178 140.349C610.163 140.064 609.087 140.086 608.084 140.411C607.082 140.737 606.198 141.352 605.545 142.179C604.892 143.007 604.499 144.009 604.414 145.059C604.33 146.11 604.559 147.162 605.072 148.082C605.585 149.003 606.359 149.751 607.297 150.233C607.922 150.554 608.605 150.748 609.307 150.804C610.008 150.861 610.713 150.778 611.382 150.56C612.051 150.343 612.67 149.996 613.204 149.538C613.739 149.08 614.177 148.522 614.494 147.894Z" fill="#46A9AF"/>
<path d="M932.302 164.517C932.777 163.577 932.964 162.517 932.838 161.47C932.711 160.424 932.278 159.438 931.592 158.638C930.907 157.837 929.999 157.258 928.985 156.973C927.97 156.687 926.894 156.709 925.891 157.035C924.889 157.36 924.006 157.976 923.352 158.803C922.699 159.63 922.306 160.632 922.222 161.683C922.137 162.733 922.366 163.785 922.879 164.706C923.392 165.627 924.166 166.375 925.104 166.856C925.729 167.177 926.413 167.372 927.114 167.428C927.815 167.484 928.52 167.401 929.189 167.184C929.858 166.966 930.477 166.619 931.012 166.161C931.546 165.704 931.984 165.145 932.302 164.517Z" fill="#46A9AF"/>
<path d="M491.438 275.533L458.633 286.192L438.392 275.879L439.697 273.345L458.872 283.13L490.561 272.834L491.438 275.533Z" fill="#46A9AF"/>
<path d="M441.704 269.968C440.763 269.492 439.703 269.306 438.656 269.432C437.61 269.558 436.624 269.991 435.824 270.677C435.024 271.363 434.444 272.27 434.159 273.285C433.874 274.299 433.895 275.376 434.221 276.378C434.547 277.38 435.162 278.264 435.989 278.917C436.816 279.57 437.818 279.964 438.869 280.048C439.919 280.132 440.971 279.903 441.892 279.39C442.813 278.878 443.561 278.103 444.042 277.166C444.363 276.54 444.558 275.857 444.614 275.156C444.67 274.455 444.587 273.749 444.37 273.08C444.153 272.411 443.805 271.792 443.348 271.258C442.89 270.724 442.331 270.285 441.704 269.968Z" fill="#46A9AF"/>
<path d="M951.854 45.7795L929.633 34.4576L743.638 94.8911L709.52 77.5073L599.482 113.261L570.819 169.486L568.291 168.198L597.471 110.93L709.759 74.4456L743.877 91.8294L929.872 31.3959L953.142 43.2523L951.854 45.7795Z" fill="#46A9AF"/>
<path d="M459.675 381.547L381.397 406.981L356.196 394.141L357.502 391.608L381.653 403.914L457.682 379.211L484.723 326.139L593.539 290.782L594.416 293.482L486.716 328.475L459.675 381.547Z" fill="#46A9AF"/>
<path d="M595.391 297.342C596.395 297.016 597.279 296.4 597.933 295.571C598.586 294.742 598.979 293.739 599.062 292.687C599.145 291.634 598.914 290.582 598.398 289.661C597.882 288.74 597.105 287.993 596.165 287.514C595.225 287.035 594.163 286.845 593.115 286.969C592.067 287.093 591.08 287.525 590.277 288.211C589.475 288.896 588.894 289.804 588.607 290.82C588.321 291.835 588.342 292.913 588.668 293.917C589.109 295.26 590.064 296.373 591.324 297.015C592.583 297.657 594.045 297.775 595.391 297.342Z" fill="#46A9AF"/>
<path d="M443.557 344.249L395.762 359.778L396.64 362.478L444.434 346.948L443.557 344.249Z" fill="#46A9AF"/>
<path d="M203.591 412.576L162.5 426.023L163.377 428.563L205.832 414.817L203.591 412.576Z" fill="#46A9AF"/>
<path d="M445.41 350.749C446.414 350.423 447.298 349.807 447.952 348.978C448.605 348.149 448.998 347.146 449.081 346.094C449.164 345.041 448.933 343.988 448.417 343.068C447.901 342.147 447.124 341.4 446.184 340.921C445.244 340.442 444.182 340.252 443.134 340.376C442.086 340.5 441.099 340.932 440.296 341.618C439.494 342.303 438.913 343.211 438.626 344.227C438.34 345.242 438.361 346.32 438.687 347.324C439.129 348.667 440.083 349.78 441.343 350.422C442.602 351.064 444.064 351.182 445.41 350.749Z" fill="#46A9AF"/>
<path d="M787.926 319.449L711.393 344.316L676.702 326.197L677.99 323.669L711.632 341.254L787.049 316.75L787.926 319.449Z" fill="#46A9AF"/>
<path d="M788.884 323.256C789.887 322.93 790.772 322.313 791.425 321.485C792.079 320.656 792.471 319.652 792.554 318.6C792.637 317.548 792.406 316.495 791.89 315.574C791.375 314.653 790.598 313.906 789.657 313.427C788.717 312.948 787.656 312.758 786.608 312.883C785.56 313.007 784.572 313.439 783.77 314.124C782.967 314.809 782.386 315.717 782.1 316.733C781.813 317.749 781.834 318.826 782.16 319.83C782.598 321.176 783.552 322.293 784.813 322.935C786.074 323.578 787.538 323.693 788.884 323.256Z" fill="#46A9AF"/>
<path d="M858.46 265.908L889.664 255.769L888.795 253.095L858.697 262.874L823.502 244.957L789.935 255.996L790.804 258.67L823.266 247.991L858.46 265.908Z" fill="#46A9AF"/>
<path d="M890.324 259.262C893.126 258.351 894.66 255.341 893.749 252.539C892.839 249.736 889.829 248.202 887.026 249.113C884.223 250.023 882.69 253.034 883.6 255.836C884.511 258.639 887.521 260.173 890.324 259.262Z" fill="#46A9AF"/>
<path d="M847.45 140.819L780.167 162.68L758.304 151.54L759.592 149.013L780.406 159.618L846.573 138.119L847.45 140.819Z" fill="#46A9AF"/>
<path d="M848.409 144.625C849.412 144.299 850.297 143.683 850.95 142.854C851.603 142.025 851.996 141.022 852.079 139.97C852.162 138.917 851.931 137.864 851.415 136.944C850.899 136.023 850.122 135.276 849.182 134.797C848.242 134.318 847.181 134.128 846.133 134.252C845.085 134.376 844.097 134.808 843.294 135.494C842.492 136.179 841.911 137.087 841.624 138.103C841.338 139.118 841.359 140.196 841.685 141.2C842.122 142.546 843.076 143.663 844.337 144.305C845.598 144.947 847.063 145.063 848.409 144.625Z" fill="#46A9AF"/>
<path d="M461.647 1097.49L351.735 1133.2L350.857 1130.5L459.655 1095.15L468.25 1078.26L507.622 1065.46L535.879 1010.01L737.997 944.334L772.461 876.695L774.989 877.983L739.99 946.671L537.871 1012.34L509.615 1067.8L470.242 1080.59L461.647 1097.49Z" fill="#008C95"/>
<path d="M768.853 875.142C769.334 874.204 770.082 873.43 771.003 872.917C771.924 872.404 772.976 872.176 774.026 872.26C775.077 872.344 776.079 872.738 776.906 873.391C777.733 874.044 778.349 874.927 778.674 875.93C779 876.932 779.022 878.008 778.736 879.023C778.451 880.038 777.872 880.945 777.071 881.631C776.271 882.316 775.285 882.75 774.239 882.876C773.193 883.002 772.132 882.816 771.192 882.34C770.564 882.022 770.005 881.584 769.548 881.05C769.09 880.516 768.743 879.896 768.525 879.227C768.308 878.558 768.225 877.853 768.281 877.152C768.337 876.451 768.532 875.768 768.853 875.142Z" fill="#008C95"/>
<path d="M988.916 1038.16L572.028 1173.61L454.613 1113.8L387.078 1135.75L372.312 1164.69L369.785 1163.41L385.085 1133.41L454.851 1110.74L572.266 1170.55L986.923 1035.82L1042.15 927.436L1177.45 883.473L1178.33 886.172L1044.16 929.767L988.916 1038.16Z" fill="#008C95"/>
<path d="M624.256 1101.32L506.264 1139.65L505.387 1136.95L622.264 1098.98L657.985 1028.84L859.15 963.48L910.803 862.104L1197.68 768.893L1198.55 771.592L912.796 864.441L861.143 965.816L659.978 1031.18L624.256 1101.32Z" fill="#008C95"/>
<path d="M600.373 1083.53L475.669 1124.05L474.792 1121.35L598.381 1081.19L629.893 1019.35L810.903 960.535L811.78 963.234L631.885 1021.69L600.373 1083.53Z" fill="#008C95"/>
<path d="M812.738 967.041C813.742 966.715 814.626 966.098 815.28 965.27C815.933 964.441 816.326 963.437 816.409 962.385C816.492 961.333 816.261 960.28 815.745 959.359C815.229 958.438 814.452 957.691 813.512 957.212C812.572 956.733 811.51 956.544 810.462 956.668C809.414 956.792 808.427 957.224 807.624 957.909C806.822 958.594 806.241 959.502 805.954 960.518C805.668 961.534 805.689 962.611 806.015 963.615C806.452 964.961 807.406 966.078 808.667 966.72C809.928 967.363 811.392 967.478 812.738 967.041Z" fill="#008C95"/>
<path d="M598.478 992.711L595.951 991.423L634.533 915.701L734.153 883.333L757.38 837.748L1040.17 745.864L1041.05 748.563L759.372 840.084L736.145 885.67L636.526 918.038L598.478 992.711Z" fill="#008C95"/>
<path d="M658.538 972.559L656.01 971.272L672.101 939.663L709.71 927.443L710.587 930.142L674.093 942L658.538 972.559Z" fill="#008C95"/>
<path d="M711.546 933.95C712.549 933.623 713.434 933.007 714.087 932.178C714.74 931.35 715.133 930.346 715.216 929.294C715.299 928.242 715.068 927.189 714.552 926.268C714.036 925.347 713.259 924.6 712.319 924.121C711.379 923.642 710.318 923.452 709.27 923.576C708.222 923.7 707.234 924.132 706.431 924.818C705.629 925.503 705.048 926.411 704.761 927.427C704.475 928.442 704.496 929.52 704.822 930.524C705.259 931.87 706.213 932.987 707.474 933.629C708.735 934.272 710.2 934.387 711.546 933.95Z" fill="#008C95"/>
<path d="M884.787 918.762L828.229 937.139L797.164 921.31L798.451 918.783L828.486 934.072L883.91 916.063L884.787 918.762Z" fill="#008C95"/>
<path d="M800.457 915.405C799.517 914.93 798.456 914.743 797.41 914.869C796.364 914.996 795.378 915.429 794.578 916.115C793.777 916.8 793.198 917.708 792.913 918.722C792.627 919.737 792.649 920.813 792.975 921.816C793.3 922.818 793.916 923.701 794.743 924.354C795.57 925.008 796.572 925.401 797.623 925.485C798.673 925.57 799.725 925.341 800.646 924.828C801.567 924.315 802.315 923.541 802.796 922.603C803.117 921.978 803.312 921.294 803.368 920.593C803.424 919.892 803.341 919.187 803.124 918.518C802.906 917.849 802.559 917.23 802.101 916.695C801.644 916.161 801.085 915.723 800.457 915.405Z" fill="#008C95"/>
<path d="M897.204 978.59L779.625 1016.79L750.294 1001.83L751.582 999.307L779.864 1013.73L895.211 976.253L944.593 879.337L1051.01 844.758L1051.89 847.457L946.586 881.673L897.204 978.59Z" fill="#008C95"/>
<path d="M969.181 1023.28L771.723 1087.44L732.98 1067.7L734.268 1065.17L771.962 1084.38L967.188 1020.95L1001.34 953.945L1003.87 955.232L969.181 1023.28Z" fill="#008C95"/>
<path d="M985.685 800.869L834.978 849.837L793.654 828.767L794.942 826.239L835.234 846.769L984.808 798.17L985.685 800.869Z" fill="#008C95"/>
<path d="M639.304 1132.08L549.24 1161.34L548.363 1158.64L637.294 1129.75L680.917 1044.13L730.421 1028.05L731.298 1030.75L682.91 1046.47L639.304 1132.08Z" fill="#008C95"/>
<path d="M732.257 1034.55C733.26 1034.23 734.145 1033.61 734.798 1032.78C735.451 1031.95 735.844 1030.95 735.927 1029.9C736.01 1028.84 735.779 1027.79 735.263 1026.87C734.747 1025.95 733.97 1025.2 733.03 1024.72C732.09 1024.24 731.029 1024.05 729.981 1024.18C728.933 1024.3 727.945 1024.73 727.142 1025.42C726.34 1026.11 725.759 1027.01 725.472 1028.03C725.186 1029.04 725.207 1030.12 725.533 1031.13C725.97 1032.47 726.924 1033.59 728.185 1034.23C729.446 1034.87 730.911 1034.99 732.257 1034.55Z" fill="#008C95"/>
<path d="M675.053 828.189C676.057 827.863 677.134 827.842 678.15 828.128C679.166 828.415 680.074 828.996 680.759 829.798C681.445 830.601 681.877 831.588 682.001 832.636C682.125 833.684 681.935 834.746 681.456 835.686C680.977 836.626 680.23 837.403 679.309 837.919C678.388 838.435 677.335 838.666 676.283 838.583C675.231 838.5 674.227 838.107 673.399 837.454C672.57 836.801 671.953 835.916 671.627 834.912C671.19 833.567 671.305 832.102 671.948 830.841C672.59 829.58 673.707 828.626 675.053 828.189Z" fill="#008C95"/>
<path d="M470.505 1053.91L425.194 1068.63L424.316 1065.93L468.512 1051.57L495.481 998.643L535.015 985.797L535.892 988.496L497.473 1000.98L470.505 1053.91Z" fill="#008C95"/>
<path d="M536.833 992.309C537.833 991.976 538.712 991.355 539.359 990.523C540.006 989.692 540.392 988.687 540.47 987.636C540.547 986.585 540.311 985.535 539.792 984.618C539.273 983.701 538.494 982.958 537.554 982.483C536.613 982.008 535.553 981.822 534.507 981.949C533.461 982.075 532.476 982.509 531.676 983.195C530.876 983.88 530.297 984.788 530.012 985.802C529.726 986.816 529.748 987.892 530.074 988.895C530.291 989.564 530.639 990.184 531.097 990.718C531.555 991.253 532.114 991.691 532.743 992.008C533.371 992.326 534.056 992.516 534.758 992.567C535.46 992.619 536.165 992.531 536.833 992.309Z" fill="#008C95"/>
<path d="M656.74 888.591L555.609 921.451L554.732 918.752L654.747 886.255L668.893 858.521L726.387 839.84L732.68 827.49L735.207 828.778L728.38 842.177L670.886 860.857L656.74 888.591Z" fill="#008C95"/>
<path d="M738.555 830.754C739.03 829.813 739.217 828.753 739.09 827.706C738.964 826.66 738.531 825.674 737.845 824.874C737.16 824.074 736.252 823.494 735.238 823.209C734.223 822.924 733.147 822.945 732.144 823.271C731.142 823.597 730.259 824.212 729.605 825.039C728.952 825.866 728.559 826.868 728.475 827.919C728.39 828.969 728.619 830.021 729.132 830.942C729.645 831.863 730.419 832.611 731.357 833.092C731.982 833.414 732.665 833.608 733.367 833.664C734.068 833.72 734.773 833.637 735.442 833.42C736.111 833.203 736.73 832.855 737.265 832.398C737.799 831.94 738.237 831.381 738.555 830.754Z" fill="#008C95"/>
<path d="M842.007 787.71C842.483 786.769 842.669 785.709 842.543 784.662C842.417 783.616 841.983 782.631 841.298 781.83C840.612 781.03 839.705 780.45 838.69 780.165C837.675 779.88 836.599 779.901 835.597 780.227C834.594 780.553 833.711 781.168 833.058 781.995C832.405 782.822 832.011 783.824 831.927 784.875C831.843 785.925 832.071 786.977 832.584 787.898C833.097 788.819 833.871 789.567 834.809 790.048C835.435 790.37 836.118 790.564 836.819 790.62C837.52 790.676 838.225 790.593 838.894 790.376C839.563 790.159 840.183 789.811 840.717 789.354C841.251 788.896 841.689 788.337 842.007 787.71Z" fill="#008C95"/>
<path d="M565.764 952.828C564.823 952.352 563.763 952.166 562.717 952.292C561.67 952.418 560.685 952.852 559.884 953.537C559.084 954.223 558.504 955.13 558.219 956.145C557.934 957.159 557.955 958.236 558.281 959.238C558.607 960.241 559.222 961.124 560.049 961.777C560.876 962.43 561.878 962.824 562.929 962.908C563.98 962.992 565.032 962.763 565.952 962.251C566.873 961.738 567.621 960.964 568.102 960.026C568.424 959.4 568.618 958.717 568.674 958.016C568.73 957.315 568.648 956.609 568.43 955.94C568.213 955.272 567.865 954.652 567.408 954.118C566.95 953.584 566.391 953.145 565.764 952.828Z" fill="#008C95"/>
<path d="M1075.91 728.639L1053.69 717.317L867.698 777.75L833.58 760.367L723.541 796.12L694.879 852.345L692.351 851.058L721.531 793.789L833.819 757.305L867.937 774.689L1053.93 714.255L1077.2 726.112L1075.91 728.639Z" fill="#008C95"/>
<path d="M583.735 1064.41L505.457 1089.84L480.256 1077L481.562 1074.47L505.714 1086.77L581.742 1062.07L608.784 1009L717.599 973.642L718.476 976.342L610.776 1011.34L583.735 1064.41Z" fill="#008C95"/>
<path d="M719.451 980.202C720.455 979.876 721.339 979.26 721.993 978.431C722.646 977.602 723.039 976.599 723.122 975.547C723.205 974.494 722.974 973.442 722.458 972.521C721.942 971.6 721.165 970.853 720.225 970.374C719.285 969.895 718.223 969.705 717.175 969.829C716.127 969.953 715.14 970.385 714.337 971.071C713.535 971.756 712.954 972.664 712.667 973.68C712.381 974.695 712.402 975.773 712.728 976.777C713.17 978.12 714.124 979.233 715.384 979.875C716.643 980.517 718.105 980.635 719.451 980.202Z" fill="#008C95"/>
<path d="M567.617 1027.11L519.822 1042.64L520.7 1045.34L568.494 1029.81L567.617 1027.11Z" fill="#008C95"/>
<path d="M569.471 1033.61C570.474 1033.28 571.359 1032.67 572.012 1031.84C572.665 1031.01 573.058 1030.01 573.141 1028.95C573.224 1027.9 572.993 1026.85 572.477 1025.93C571.961 1025.01 571.184 1024.26 570.244 1023.78C569.304 1023.3 568.243 1023.11 567.195 1023.24C566.147 1023.36 565.159 1023.79 564.356 1024.48C563.554 1025.16 562.973 1026.07 562.686 1027.09C562.4 1028.1 562.421 1029.18 562.747 1030.18C563.189 1031.53 564.143 1032.64 565.403 1033.28C566.662 1033.92 568.125 1034.04 569.471 1033.61Z" fill="#008C95"/>
<path d="M839.302 786.241L785.623 803.682L751.958 786.529L753.246 784.002L785.861 800.621L838.425 783.542L839.302 786.241Z" fill="#008C95"/>
<path d="M971.51 823.679L904.227 845.54L882.364 834.4L883.652 831.873L904.466 842.478L970.633 820.979L971.51 823.679Z" fill="#008C95"/>
<path d="M1059.2 1098.7L719.887 1208.95L620.139 1158.14L621.445 1155.61L720.126 1205.89L1057.19 1096.37L1092.59 1026.91L1269.9 969.302L1295.41 982.301L1294.12 984.828L1269.66 972.364L1094.59 1029.25L1059.2 1098.7Z" fill="#008C95"/>
<path d="M1057.35 1047.46L900.147 1098.53L862.161 1079.16L863.449 1076.64L900.403 1095.47L1055.36 1045.12L1093.9 969.468L1096.43 970.756L1057.35 1047.46Z" fill="#008C95"/>
<path d="M981.437 1095.66L873.953 1130.58L807.643 1096.78L808.931 1094.25L874.192 1127.52L980.56 1092.96L981.437 1095.66Z" fill="#008C95"/>
<path d="M911.263 762.919L908.735 761.631L936.694 706.73L1110.92 650.12L1132.03 608.683L1134.56 609.971L1112.91 652.457L938.687 709.066L911.263 762.919Z" fill="#008C95"/>
<path d="M73.2532 507.569L-343.635 643.024L-461.05 583.213L-528.585 605.157L-543.35 634.107L-545.877 632.819L-530.577 602.82L-460.811 580.152L-343.396 639.963L71.2604 505.233L126.485 396.848L261.789 352.885L262.666 355.584L128.496 399.179L73.2532 507.569Z" fill="#46A9AF"/>
</g>
<path d="M143.482 568.016L-195.83 678.265L-295.578 627.456L-294.272 624.923L-195.591 675.204L141.471 565.685L176.876 496.228L354.18 438.619L379.691 451.617L378.403 454.144L353.942 441.681L178.869 498.565L143.482 568.016Z" fill="#46A9AF"/>
<path d="M376.379 457.527C377.32 458.003 378.38 458.19 379.427 458.063C380.473 457.937 381.458 457.504 382.259 456.818C383.059 456.132 383.639 455.225 383.924 454.21C384.209 453.196 384.188 452.119 383.862 451.117C383.536 450.115 382.921 449.231 382.094 448.578C381.267 447.925 380.265 447.532 379.214 447.447C378.164 447.363 377.112 447.592 376.191 448.105C375.27 448.618 374.522 449.392 374.041 450.329C373.72 450.955 373.525 451.638 373.469 452.339C373.413 453.04 373.496 453.746 373.713 454.415C373.93 455.084 374.278 455.703 374.735 456.237C375.193 456.771 375.752 457.21 376.379 457.527Z" fill="#46A9AF"/>
<path d="M125.734 503.883L-31.4693 554.962L-69.4551 535.592L-68.1674 533.065L-31.2126 551.894L123.741 501.546L162.5 426.024L165.027 427.311L125.734 503.883Z" fill="#46A9AF"/>
<path d="M231.52 481.103L228.992 479.816L250.872 439.848L286.52 428.265L287.397 430.964L252.865 442.184L231.52 481.103Z" fill="#46A9AF"/>
<path d="M65.7201 564.973L-41.7634 599.896L-108.073 566.095L-106.786 563.567L-41.5248 596.835L64.843 562.274L65.7201 564.973Z" fill="#46A9AF"/>
<path d="M66.6786 568.779C67.6822 568.453 68.5666 567.837 69.22 567.008C69.8733 566.179 70.2662 565.175 70.349 564.123C70.4318 563.071 70.2008 562.018 69.6851 561.098C69.1695 560.177 68.3924 559.43 67.4521 558.951C66.5118 558.472 65.4506 558.282 64.4026 558.406C63.3546 558.53 62.3669 558.962 61.5645 559.647C60.762 560.333 60.1808 561.241 59.8944 562.256C59.6079 563.272 59.6291 564.35 59.9552 565.354C60.3925 566.699 61.3465 567.816 62.6074 568.459C63.8682 569.101 65.3327 569.217 66.6786 568.779Z" fill="#46A9AF"/>
</g>
</svg>
