<svg width="222" height="24" viewBox="0 0 222 24" fill="none" xmlns="http://www.w3.org/2000/svg">
<path d="M100.739 5.42425C103.167 5.42425 104.895 4.1485 105.225 1.35022H102.839C102.592 2.3373 102.015 2.83084 100.739 2.83084C99.4634 2.83084 98.8046 2.3373 98.5997 1.35022H96.2135C96.5418 4.1485 98.311 5.42425 100.739 5.42425Z" fill="white"/>
<path d="M51.7483 16.806V6.70007H48.7428V21.4318H51.8717L57.9198 11.1559V21.4318H60.923V6.70007H57.7965L51.7483 16.806Z" fill="white"/>
<path d="M39.2888 6.82343C36.9096 6.82343 34.8796 7.93157 33.8296 9.98954C33.9786 6.65115 34.6421 4.66535 38.5066 4.14853L44.5153 3.32441L44.2685 0.0325928L38.0131 0.896288C32.6214 1.6366 31.0989 5.79444 31.0989 12.3362C31.0989 18.0561 33.6923 21.7181 38.5066 21.7181C43.1976 21.7181 45.7491 18.0957 45.7491 13.8587C45.7491 9.62171 42.9112 6.82343 39.2888 6.82343ZM38.5066 18.4682C35.7898 18.4682 34.1858 16.494 34.1858 13.5305V12.0079C34.7609 10.8556 36.2857 9.94996 38.5066 9.94996C40.8533 9.94996 42.6622 11.0604 42.6622 13.8587C42.6622 16.657 41.2234 18.4682 38.5066 18.4682Z" fill="white"/>
<path d="M119.494 6.70007V12.2128H113.648V6.70007H110.645V21.4318H113.648V15.2579H119.494V21.4318H122.497V6.70007H119.494Z" fill="white"/>
<path d="M97.6942 16.806V6.70007H94.6887V21.4318H97.8176L103.866 11.1559V21.4318H106.871V6.70007H103.742L97.6942 16.806Z" fill="white"/>
<path d="M66.3283 15.7118C66.0001 17.3577 65.5461 18.0585 64.6405 18.0585C64.147 18.0585 63.7768 18.0166 63.53 17.9351V21.3503C63.9002 21.5156 64.2308 21.639 65.0107 21.639C66.5751 21.639 67.6855 20.7334 68.221 19.3342C68.5492 18.4705 68.7564 17.2763 68.9217 15.7537C69.087 14.2312 69.2104 12.2151 69.2104 9.82893H73.203V21.4341H76.2061V6.70239H66.7008C66.6985 11.1443 66.5751 14.0659 66.3283 15.7118Z" fill="white"/>
<path d="M90.3795 17.4391L90.4214 11.5958C90.4633 7.89191 88.1982 6.36938 84.9063 6.36938C82.1895 6.36938 79.7218 7.85001 79.3517 11.3071H82.2315C82.3967 9.94988 83.4653 9.49591 84.9063 9.49591C86.3823 9.49591 87.3717 9.94988 87.5207 11.4654L83.8378 12.953C81.3282 13.982 79.4355 15.1344 79.4355 17.5625C79.4355 20.0721 80.8346 21.6784 83.6329 21.6784C85.5652 21.6784 86.7874 20.7705 87.7652 18.9966C87.9118 20.7705 89.0875 21.5551 91.1222 21.5551H91.9463V18.7149H91.6995C90.7497 18.7149 90.3795 18.3447 90.3795 17.4391ZM84.7411 18.5915C83.3419 18.5915 82.3129 18.2213 82.3129 16.9456C82.3129 15.8351 83.1766 15.3416 84.6596 14.7223L87.5277 13.5304L87.4974 17.5206C87.0039 18.1399 86.0168 18.5915 84.7411 18.5915Z" fill="white"/>
<path d="M144.097 13.9938C144.097 18.4124 141.403 21.6204 136.773 21.6204C132.142 21.6204 129.388 18.4426 129.388 12.15C129.388 5.49186 131.023 1.65063 136.319 0.894022L142.735 0.0163574V3.22437L136.803 4.1323C133.686 4.61652 132.748 6.28106 132.475 9.5496C133.595 7.73374 135.441 6.85608 137.65 6.85608C141.555 6.85142 144.097 9.57521 144.097 13.9938ZM132.599 11.6029V13.2977C132.599 16.536 134.142 18.3518 136.775 18.3518C139.378 18.3518 141.012 16.7781 141.012 13.9938C141.012 11.2095 139.438 9.90811 136.957 9.90811C135.108 9.90811 133.535 10.4529 132.599 11.6029Z" fill="#F0B900"/>
<path d="M150.026 16.2916L156.442 6.48828H159.378V21.3154H156.321V11.3911L149.875 21.3154H146.939V6.48828H150.026V16.2916Z" fill="#F0B900"/>
<path d="M171.088 16.5337C171.088 15.2324 170.15 14.6876 168.394 14.6876H166.155V12.7507H168.273C169.908 12.7507 170.694 12.0849 170.694 10.9954C170.694 9.81506 169.817 9.24004 168.092 9.24004C166.306 9.24004 165.217 9.93612 164.944 11.2677H162.311C162.674 8.09 164.884 6.18335 168.213 6.18335C171.481 6.18335 173.6 7.75709 173.6 10.4809C173.6 11.9638 172.722 13.1441 171.421 13.5376C172.995 13.9007 174.024 15.081 174.024 16.8666C174.024 19.9536 171.481 21.6181 168.152 21.6181C164.702 21.6181 162.493 19.8325 162.22 16.5035H164.884C165.096 17.8956 166.185 18.5312 168.031 18.5312C169.877 18.5312 171.088 17.8956 171.088 16.5337Z" fill="#F0B900"/>
<path d="M186.006 15.2626H179.923V21.3154H176.836V6.48828H179.923V12.0872H186.006V6.48828H189.093V21.3154H186.006V15.2626Z" fill="#F0B900"/>
<path d="M198.956 21.6181C194.81 21.6181 191.935 18.3496 191.935 13.9007C191.935 9.45189 194.84 6.18335 199.017 6.18335C203.193 6.18335 206.008 9.33083 206.008 14.0218C206.008 14.1428 205.978 14.5363 205.978 14.6573H194.994C195.236 17.1087 196.749 18.5614 199.019 18.5614C201.077 18.5614 202.318 17.7746 202.893 16.5943H205.677C205.039 19.318 202.982 21.6181 198.956 21.6181ZM195.052 12.632H202.921C202.618 10.6345 201.317 9.24237 199.017 9.24237C196.868 9.24237 195.446 10.4832 195.052 12.632Z" fill="#F0B900"/>
<path d="M221.683 11.6215H218.929C218.535 10.3504 217.325 9.50302 215.085 9.50302C212.543 9.50302 211 11.2886 211 13.8611C211 16.4638 212.543 18.2797 215.085 18.2797C217.325 18.2797 218.535 17.402 218.929 16.1914H221.683C221.078 19.5205 218.656 21.6087 215.055 21.6087C210.667 21.6087 207.913 18.2191 207.913 13.8611C207.913 9.53328 210.667 6.17395 215.055 6.17395C218.656 6.17395 221.078 8.29245 221.683 11.6215Z" fill="#F0B900"/>
<path d="M12.005 23.9972C18.6342 23.9972 24.0083 18.6253 24.0083 11.9986C24.0083 5.37196 18.6342 0 12.005 0C5.37576 0 0.00170898 5.37196 0.00170898 11.9986C0.00170898 18.6253 5.37576 23.9972 12.005 23.9972Z" fill="#FFCA05"/>
<path d="M17.1706 20.9382C13.0943 23.2895 8.67338 23.7109 5.84949 22.3024C9.4649 24.4558 14.107 24.6421 18.0087 22.3909C21.9105 20.1374 24.0709 16.0261 24.0127 11.8193C23.8218 14.9691 21.2447 18.5869 17.1706 20.9382Z" fill="#171818"/>
<path d="M13.5274 0.880047C14.3538 2.30945 12.3564 5.00995 9.06457 6.90729C5.77275 8.80696 2.43669 9.18642 1.61025 7.75469C1.57532 7.68718 1.54273 7.61268 1.51945 7.53586C1.30527 6.87004 1.56136 6.00868 2.17828 5.10075C2.27839 4.95874 2.38082 4.81906 2.48558 4.6817C3.41679 3.46881 4.59709 2.41654 6.00322 1.60639C7.40934 0.793911 8.91091 0.30037 10.4265 0.10016C10.6034 0.074552 10.7757 0.0559283 10.9433 0.0442882C12.0374 -0.0371925 12.9105 0.172329 13.3807 0.689149C13.4366 0.749678 13.4855 0.814862 13.5274 0.880047Z" fill="#171818"/>
<path d="M18.6302 2.42811C20.0736 4.92608 17.1613 9.30508 12.1281 12.2105C7.0949 15.1158 1.84289 15.4464 0.401842 12.9484C0.162056 12.5317 0.0340145 12.0684 0.00840629 11.5702C-0.0544503 13.2487 0.234224 14.9552 0.907022 16.5755C1.00713 16.8176 1.11654 17.0574 1.23295 17.2948C1.2376 17.3042 1.24459 17.3158 1.24924 17.3251C1.68458 18.0771 2.32711 18.6684 3.12795 19.0967C5.95184 20.6076 10.7266 20.0885 15.1918 17.5114C19.6546 14.9342 22.4924 11.0627 22.5972 7.86404C22.6275 6.96077 22.4389 6.11104 22.0082 5.35909C21.8452 5.11465 21.6753 4.87486 21.496 4.64671C20.4368 3.27784 19.1191 2.18833 17.6548 1.41077C18.0622 1.67849 18.3928 2.01605 18.6302 2.42811C18.6302 2.42811 18.6326 2.43044 18.6326 2.43277L18.6302 2.42811Z" fill="#171818"/>
<path d="M12.005 23.9972C18.6342 23.9972 24.0083 18.6253 24.0083 11.9986C24.0083 5.37196 18.6342 0 12.005 0C5.37576 0 0.00170898 5.37196 0.00170898 11.9986C0.00170898 18.6253 5.37576 23.9972 12.005 23.9972Z" fill="url(#paint0_radial_645_1434)"/>
<defs>
<radialGradient id="paint0_radial_645_1434" cx="0" cy="0" r="1" gradientUnits="userSpaceOnUse" gradientTransform="translate(12.0056 11.9995) scale(12.003)">
<stop offset="0.5" stop-color="white" stop-opacity="0"/>
<stop offset="1" stop-color="white" stop-opacity="0.35"/>
</radialGradient>
</defs>
</svg>
