<svg width="120" height="24" viewBox="0 0 120 24" fill="none" xmlns="http://www.w3.org/2000/svg">
<path d="M98.7048 5.29185C101.081 5.29185 102.773 4.04672 103.095 1.31543H100.759C100.517 2.27942 99.9533 2.76143 98.7048 2.76143C97.4562 2.76143 96.8118 2.27942 96.6104 1.31543H94.2744C94.5966 4.04672 96.3285 5.29185 98.7048 5.29185Z" fill="black"/>
<path d="M50.7556 16.4022V6.5376H47.8154V20.917H50.8764L56.797 10.8865V20.917H59.7372V6.5376H56.676L50.7556 16.4022Z" fill="black"/>
<path d="M38.5628 6.65763C36.235 6.65763 34.2469 7.74014 33.219 9.74864C33.3659 6.48962 34.0142 4.55252 37.7975 4.04685L43.6778 3.24353L43.4362 0.0302734L37.3142 0.873761C32.0381 1.59673 30.5479 5.65347 30.5479 12.0399C30.5479 17.6229 33.0853 21.1977 37.7975 21.1977C42.389 21.1977 44.8861 17.6631 44.8861 13.526C44.8861 9.3889 42.1071 6.65763 38.5628 6.65763ZM37.7975 18.0246C35.1393 18.0246 33.5686 16.0966 33.5686 13.2047V11.7185C34.1324 10.5939 35.6227 9.71024 37.7975 9.71024C40.0933 9.71024 41.8654 10.7947 41.8654 13.526C41.8654 16.2573 40.4558 18.0246 37.7975 18.0246Z" fill="black"/>
<path d="M117.06 6.5376V11.9197H111.341V6.5376H108.4V20.917H111.341V14.892H117.06V20.917H120V6.5376H117.06Z" fill="black"/>
<path d="M95.7243 16.4022V6.5376H92.7842V20.917H95.8453L101.766 10.8865V20.917H104.706V6.5376H101.645L95.7243 16.4022Z" fill="black"/>
<path d="M65.0259 15.3334C64.7037 16.9401 64.2606 17.6229 63.3746 17.6229C63.0081 17.6372 62.6415 17.5966 62.2871 17.5024V20.8362C62.7398 21.0475 63.2379 21.1441 63.737 21.1173C65.2675 21.1173 66.355 20.2337 66.8786 18.868C67.2008 18.0245 67.4022 16.8597 67.5633 15.3736C67.7592 13.4519 67.8533 11.5213 67.8452 9.58972H71.752V20.9165H74.6921V6.53711H65.3884C65.3884 10.875 65.2675 13.7268 65.0259 15.3334Z" fill="black"/>
<path d="M88.5659 17.0204L88.6062 11.3169C88.6465 7.70195 86.4313 6.21582 83.2092 6.21582C80.551 6.21582 78.1345 7.66178 77.772 11.0357H80.5913C80.7524 9.71025 81.7995 9.26841 83.2092 9.26841C84.6547 9.26841 85.6219 9.71145 85.7672 11.1904L82.162 12.6424C79.7052 13.6465 77.8525 14.7712 77.8525 17.1409C77.8525 19.5911 79.2219 21.1575 81.9607 21.1575C83.8518 21.1575 85.0485 20.2712 86.0046 18.5408C86.1482 20.2726 87.2998 21.037 89.2909 21.037H90.0964V18.2656H89.8548C88.9284 18.2656 88.5659 17.9041 88.5659 17.0204ZM83.0481 18.1451C81.6787 18.1451 80.6718 17.7836 80.6718 16.5384C80.6718 15.454 81.5176 14.972 82.9676 14.3695L85.7751 13.2055L85.7466 17.1008C85.2633 17.7033 84.2967 18.1451 83.0481 18.1451Z" fill="black"/>
<path d="M11.7508 23.4208C18.2395 23.4208 23.4997 18.1779 23.4997 11.7104C23.4997 5.24293 18.2395 0 11.7508 0C5.2621 0 0.00195312 5.24293 0.00195312 11.7104C0.00195312 18.1779 5.2621 23.4208 11.7508 23.4208Z" fill="#FFCC00"/>
<path d="M16.8072 20.4351C12.8182 22.7311 8.4903 23.1425 5.72607 21.7658C7.52246 22.8348 9.57236 23.4064 11.6642 23.4216C13.7561 23.4368 15.8141 22.895 17.6259 21.8521C19.4377 20.8093 20.9376 19.3032 21.9709 17.4892C23.0041 15.6753 23.5333 13.6192 23.5037 11.5332C23.3175 14.6082 20.7962 18.1391 16.8072 20.4351Z" fill="black"/>
<path d="M13.2421 0.857429C14.0507 2.25346 12.0953 4.88772 8.87448 6.74119C5.65367 8.59465 2.3871 8.96544 1.57844 7.56941C1.54264 7.50058 1.51273 7.42884 1.48903 7.355C1.28016 6.70445 1.53062 5.86398 2.13462 4.97814C2.23171 4.84001 2.33192 4.70397 2.43525 4.57004C4.33327 2.11568 7.12632 0.50804 10.2068 0.0968341C10.3797 0.071771 10.548 0.053267 10.7117 0.0413225C11.7823 -0.037457 12.6372 0.166388 13.0981 0.671172C13.1514 0.729003 13.1996 0.791335 13.2421 0.857429Z" fill="black"/>
<path d="M18.2359 2.36763C19.648 4.80538 16.7987 9.07997 11.8718 11.9152C6.94489 14.7504 1.80618 15.0726 0.394106 12.6349C0.159448 12.2237 0.027147 11.7623 0.00831146 11.2895C-0.0550659 12.9622 0.244608 14.6288 0.886833 16.1753C0.984258 16.4117 1.09049 16.6461 1.20552 16.8785C1.21097 16.8885 1.21651 16.8981 1.2222 16.908C1.65905 17.6458 2.29634 18.2453 3.06042 18.6373C5.8236 20.111 10.4978 19.6049 14.8679 17.0895C19.2362 14.5752 22.0124 10.7948 22.1158 7.67273C22.1576 6.81987 21.9577 5.97252 21.5388 5.22778C21.3791 4.98823 21.2122 4.75636 21.0382 4.53215C20.0245 3.22505 18.7432 2.14828 17.2797 1.37354C17.6721 1.62467 17.9994 1.9647 18.2349 2.36592L18.239 2.37324L18.2359 2.36763Z" fill="black"/>
</svg>
