<svg width="329" height="475" viewBox="0 0 329 475" fill="none" xmlns="http://www.w3.org/2000/svg">
<path d="M163.5 424C203.5 426 216.5 400.5 245 370.5C273.089 340.932 317.5 344.5 310 303.5C302.497 262.486 275.499 268.5 293.999 234.5C351.999 145.5 312 65.0262 255.5 84C187 107.004 190.407 97.6725 141 84C61.4997 61.9999 24.4997 121.5 13.4995 164.5C0.419777 215.629 67.8966 263.402 27.9997 290C-15.5001 319 -8.00007 402 54.9996 392C102.016 384.537 110 421.325 163.5 424Z" fill="#E3E731"/>
<path d="M162 152.5H220.25V188C225.417 181.333 237.75 172.9 245.75 192.5C255.75 217 220.75 229 211.25 234.5C201.75 240 202.25 251.5 215.25 248.5C213.75 245.167 212.35 238.6 218.75 239C226.75 239.5 224.75 252.5 218.75 255.5C212.75 258.5 194.25 257.5 198.75 241C193.75 247.833 180.25 261.3 166.25 260.5C167.083 271.833 173 295.4 190 299V305H196.5V337H201.5V349H163" stroke="white" stroke-width="4" stroke-linecap="round" stroke-linejoin="round"/>
<path d="M161.529 152.5H103.279V188C98.112 181.333 85.7787 172.9 77.7787 192.5C67.7787 217 102.779 229 112.279 234.5C121.779 240 121.279 251.5 108.279 248.5C109.779 245.167 111.179 238.6 104.779 239C96.7787 239.5 98.7787 252.5 104.779 255.5C110.779 258.5 129.279 257.5 124.779 241C129.779 247.833 143.279 261.3 157.279 260.5C156.445 271.833 150.529 295.4 133.529 299V305H127.029V337H122.029V349H160.529" stroke="white" stroke-width="4" stroke-linecap="round" stroke-linejoin="round"/>
<rect x="138" y="314.5" width="48" height="20" rx="6" stroke="white" stroke-width="4"/>
<rect x="93.9999" y="139" width="136" height="13" rx="6.5" stroke="white" stroke-width="4"/>
<path d="M103.367 202C100.533 198.333 95.3975 193 91.3665 193C85.3666 193 79.3665 208.5 103.367 218.5" stroke="white" stroke-width="4" stroke-linecap="round" stroke-linejoin="round"/>
<path d="M220 202C222.833 198.333 227.969 193 232 193C238 193 244 208.5 220 218.5" stroke="white" stroke-width="4" stroke-linecap="round" stroke-linejoin="round"/>
<path d="M279.147 27.7811C280.045 25.0172 283.955 25.0172 284.853 27.7812L286.939 34.2016C287.341 35.4377 288.493 36.2746 289.792 36.2746H296.543C299.45 36.2746 300.658 39.9934 298.307 41.7016L292.845 45.6697C291.794 46.4336 291.354 47.7877 291.755 49.0238L293.841 55.4443C294.74 58.2082 291.576 60.5066 289.225 58.7984L283.763 54.8303C282.712 54.0664 281.288 54.0664 280.237 54.8303L274.775 58.7984C272.424 60.5066 269.26 58.2082 270.159 55.4443L272.245 49.0238C272.646 47.7877 272.206 46.4336 271.155 45.6697L265.693 41.7016C263.342 39.9934 264.55 36.2746 267.457 36.2746H274.208C275.507 36.2746 276.659 35.4377 277.061 34.2016L279.147 27.7811Z" fill="#E3E731"/>
<path d="M310.098 5.8541C310.697 4.01148 313.303 4.01148 313.902 5.8541L315.368 10.3647C315.635 11.1888 316.403 11.7467 317.27 11.7467L322.013 11.7467C323.95 11.7467 324.756 14.2259 323.188 15.3647L319.351 18.1525C318.65 18.6618 318.357 19.5645 318.625 20.3885L320.09 24.8992C320.689 26.7418 318.58 28.2741 317.013 27.1353L313.176 24.3475C312.475 23.8382 311.525 23.8382 310.824 24.3475L306.987 27.1353C305.42 28.2741 303.311 26.7418 303.91 24.8992L305.375 20.3885C305.643 19.5645 305.35 18.6618 304.649 18.1525L300.812 15.3647C299.244 14.2259 300.05 11.7467 301.987 11.7467L306.73 11.7467C307.597 11.7467 308.365 11.1888 308.632 10.3647L310.098 5.8541Z" fill="#E3E731"/>
<path d="M271.098 368.854C271.697 367.011 274.303 367.011 274.902 368.854L277.939 378.202C278.207 379.026 278.975 379.584 279.841 379.584H289.67C291.607 379.584 292.413 382.063 290.846 383.202L282.894 388.979C282.193 389.488 281.9 390.391 282.168 391.215L285.205 400.562C285.803 402.405 283.694 403.937 282.127 402.798L274.176 397.021C273.475 396.512 272.525 396.512 271.824 397.021L263.873 402.798C262.306 403.937 260.197 402.405 260.795 400.562L263.832 391.215C264.1 390.391 263.807 389.488 263.106 388.979L255.154 383.202C253.587 382.063 254.393 379.584 256.33 379.584H266.159C267.025 379.584 267.793 379.026 268.061 378.202L271.098 368.854Z" fill="#E3E731"/>
<path d="M90.0489 415.927C90.3483 415.006 91.6517 415.006 91.9511 415.927L93.6942 421.292C93.828 421.704 94.212 421.983 94.6452 421.983H100.286C101.255 421.983 101.658 423.222 100.874 423.792L96.3103 427.107C95.9598 427.362 95.8132 427.813 95.947 428.225L97.6902 433.59C97.9895 434.511 96.935 435.278 96.1513 434.708L91.5878 431.393C91.2373 431.138 90.7627 431.138 90.4122 431.393L85.8487 434.708C85.065 435.278 84.0105 434.511 84.3098 433.59L86.053 428.225C86.1868 427.813 86.0402 427.362 85.6897 427.107L81.1262 423.792C80.3425 423.222 80.7452 421.983 81.7139 421.983H87.3548C87.788 421.983 88.172 421.704 88.3058 421.292L90.0489 415.927Z" fill="#E3E731"/>
<path d="M32.1468 407.781C33.0449 405.017 36.9551 405.017 37.8532 407.781L41.9599 420.42C42.3616 421.657 43.5134 422.493 44.8131 422.493L58.1029 422.493C61.009 422.493 62.2174 426.212 59.8662 427.92L49.1146 435.732C48.0631 436.496 47.6231 437.85 48.0248 439.086L52.1315 451.725C53.0296 454.489 49.8661 456.788 47.515 455.08L36.7634 447.268C35.7119 446.504 34.2881 446.504 33.2366 447.268L22.485 455.08C20.1339 456.788 16.9704 454.489 17.8685 451.725L21.9752 439.086C22.3769 437.85 21.9369 436.496 20.8854 435.732L10.1338 427.92C7.78263 426.212 8.99096 422.493 11.8971 422.493L25.1869 422.493C26.4866 422.493 27.6384 421.657 28.0401 420.42L32.1468 407.781Z" fill="#E3E731"/>
<path d="M76.5489 454.927C76.8483 454.006 78.1517 454.006 78.4511 454.927L79.8574 459.255C79.9913 459.667 80.3752 459.946 80.8085 459.946H85.3595C86.3282 459.946 86.731 461.186 85.9473 461.755L82.2654 464.43C81.9149 464.685 81.7683 465.136 81.9021 465.548L83.3085 469.877C83.6078 470.798 82.5533 471.564 81.7696 470.995L78.0878 468.32C77.7373 468.065 77.2627 468.065 76.9122 468.32L73.2304 470.995C72.4467 471.564 71.3922 470.798 71.6915 469.877L73.0979 465.548C73.2317 465.136 73.0851 464.685 72.7346 464.43L69.0527 461.755C68.269 461.186 68.6718 459.946 69.6405 459.946H74.1915C74.6248 459.946 75.0087 459.667 75.1426 459.255L76.5489 454.927Z" fill="#E3E731"/>
</svg>
