<svg width="120" height="33" viewBox="0 0 120 33" fill="none" xmlns="http://www.w3.org/2000/svg">
<path d="M16.5919 9.31313C16.6346 9.22808 16.6346 9.18555 16.6772 9.1005C17.1891 8.16493 17.7862 7.01673 17.9568 6.71905C17.1891 5.10307 16.5919 4.12498 16.5919 4.12498C16.5919 4.12498 15.9521 5.01802 15.1417 6.4639C15.355 6.88915 16.0374 8.2925 16.5493 9.22807C16.5919 9.2706 16.5919 9.2706 16.5919 9.31313Z" fill="#008996"/>
<path d="M16.5919 9.31314C16.9758 10.0786 17.317 10.8441 17.6156 11.567C18.3833 10.0361 18.9378 9.05798 18.9378 9.05798C18.9378 9.05798 19.1084 9.48324 19.3644 10.2487C18.9378 8.88788 18.426 7.65463 17.9995 6.71907C17.8289 7.01675 17.2744 8.16495 16.7199 9.10051C16.6772 9.18556 16.6346 9.22809 16.5919 9.31314Z" fill="#33A1AB"/>
<path d="M15.6108 11.567C15.9094 10.8441 16.208 10.0786 16.5918 9.31314C16.5918 9.27062 16.5492 9.27061 16.5492 9.22809C16.0373 8.29252 15.3122 6.84664 15.1416 6.46391C14.8004 7.05927 14.4592 7.78221 14.0753 8.5902C14.2886 8.9304 14.8857 10.1211 15.6108 11.567Z" fill="#33A1AB"/>
<path d="M16.5919 13.6507C16.6346 13.5657 16.6772 13.5232 16.6772 13.4381C16.9758 12.7577 17.317 12.1198 17.5729 11.567C17.2743 10.844 16.9758 10.0786 16.5492 9.31313C16.1654 10.0786 15.8242 10.844 15.5682 11.567C15.8668 12.2049 16.208 12.8853 16.5066 13.5657C16.5919 13.6082 16.5919 13.6507 16.5919 13.6507Z" fill="#4DADB6"/>
<path d="M19.4496 10.7165C19.4496 10.7165 19.4923 10.8015 19.5349 10.9291C19.4496 10.7165 19.4069 10.4613 19.3216 10.2487C19.0657 9.48322 18.8951 9.05797 18.8951 9.05797C18.8951 9.05797 18.3406 10.0361 17.5729 11.567C17.7861 12.0773 17.9567 12.5876 18.0847 13.0554C18.8951 11.6095 19.4496 10.7165 19.4496 10.7165Z" fill="#4DADB6"/>
<path d="M16.5919 13.6508C16.8052 14.1186 16.9758 14.5438 17.1464 15.0116C17.4876 14.2887 17.7862 13.6083 18.0848 13.0554C17.9142 12.5451 17.7435 12.0773 17.5729 11.567C17.2744 12.1199 16.9758 12.7577 16.6772 13.4381C16.6772 13.5232 16.6346 13.6083 16.5919 13.6508Z" fill="#66B8C0"/>
<path d="M15.0992 13.0979C15.2698 12.5876 15.4404 12.0773 15.611 11.567C14.9286 10.1211 14.2888 8.93039 14.1182 8.59019C13.9049 9.1005 13.649 9.65334 13.4784 10.2062C13.6917 10.5889 14.3314 11.6946 15.0992 13.0979Z" fill="#4DADB6"/>
<path d="M16.0375 15.0541C16.2081 14.5864 16.3787 14.1186 16.592 13.6933C16.592 13.6508 16.5493 13.6508 16.5493 13.6083C16.2507 12.9279 15.9095 12.2474 15.611 11.6096C15.3977 12.1199 15.2271 12.6302 15.0991 13.1405C15.3977 13.6933 15.7389 14.3737 16.0375 15.0541Z" fill="#66B8C0"/>
<path d="M17.1464 15.0116C16.9758 14.5438 16.8052 14.1185 16.592 13.6507C16.3787 14.1185 16.2081 14.5863 16.0375 15.0116C16.2507 15.4368 16.4213 15.8621 16.592 16.2873C16.8052 15.8621 16.9758 15.4368 17.1464 15.0116Z" fill="#7FC4CA"/>
<path d="M20.0042 12.7152C19.8762 12.0773 19.7056 11.482 19.535 10.9291C19.4923 10.8015 19.4497 10.7165 19.4497 10.7165C19.4497 10.7165 18.8525 11.6095 18.1274 13.0554C18.3407 13.6933 18.5113 14.3312 18.6393 14.9691C19.3217 13.7358 19.8762 12.9278 20.0042 12.7152Z" fill="#66B8C0"/>
<path d="M18.6393 14.9691C18.5113 14.3312 18.3407 13.6933 18.1275 13.0554C17.8289 13.6508 17.4877 14.2887 17.1891 15.0116C17.4024 15.5645 17.573 16.1173 17.7436 16.6701C18.0421 16.0322 18.3407 15.4794 18.6393 14.9691Z" fill="#7FC4CA"/>
<path d="M16.7625 16.7551C16.8905 17.0954 17.0184 17.4356 17.1464 17.7758C17.317 17.393 17.5303 17.0103 17.7009 16.6701C17.5729 16.1173 17.3597 15.607 17.1464 15.0116C16.9758 15.4368 16.7625 15.8621 16.5919 16.3299C16.6772 16.4575 16.7199 16.6276 16.7625 16.7551Z" fill="#99D0D5"/>
<path d="M14.5873 15.0541C14.7152 14.4163 14.8858 13.7784 15.0991 13.098C14.374 11.6946 13.6916 10.5889 13.4783 10.2062C13.265 10.8441 13.0518 11.482 12.8812 12.1624C12.8812 12.2049 12.8812 12.2474 12.8385 12.29C13.0944 12.6302 13.7769 13.6933 14.5873 15.0541Z" fill="#66B8C0"/>
<path d="M15.5256 16.7126C15.6536 16.1598 15.8669 15.607 16.0375 15.0116C15.7389 14.3312 15.3977 13.6933 15.0991 13.0554C14.8858 13.7358 14.7152 14.3737 14.5873 15.0116C14.8858 15.5645 15.1844 16.1598 15.5256 16.7126Z" fill="#7FC4CA"/>
<path d="M16.0373 17.8183C16.1653 17.4355 16.2933 17.0528 16.4639 16.67C16.5065 16.5425 16.5492 16.4574 16.5918 16.3724C16.4212 15.9471 16.208 15.5219 16.0373 15.0966C15.8241 15.6494 15.6535 16.2448 15.5255 16.7976C15.6961 17.0953 15.8667 17.4355 16.0373 17.8183Z" fill="#99D0D5"/>
<path d="M17.1464 17.7758C17.0185 17.4356 16.9332 17.0954 16.7626 16.7552C16.7199 16.6276 16.6346 16.4575 16.592 16.2874C16.5493 16.3724 16.5067 16.5 16.464 16.5851C16.2934 16.9678 16.1654 17.3505 16.0375 17.7333C16.2081 18.116 16.4213 18.4987 16.592 18.8815C16.7626 18.5838 16.9758 18.1585 17.1464 17.7758Z" fill="#B2DBDF"/>
<path d="M16.8052 28.6624C18.2127 27.0889 19.1511 25.4729 19.7482 23.8995C20.516 21.7307 20.7719 19.4768 20.6866 17.308C20.6013 15.6495 20.3454 14.1185 20.0468 12.6727C19.9188 12.8853 19.3643 13.6933 18.6392 14.9265C20.1321 22.1134 17.4876 27.4716 16.8052 28.6624Z" fill="#7FC4CA"/>
<path d="M16.7626 28.6623C17.445 27.4291 20.1321 22.0708 18.5966 14.969C18.2981 15.4793 17.9995 16.0322 17.6583 16.6701C19.407 22.8363 17.3597 27.5141 16.7626 28.6623Z" fill="#99D0D5"/>
<path d="M16.72 28.7474L16.7626 28.7049C17.3598 27.5567 19.4071 22.8789 17.701 16.6701C17.5304 17.0103 17.3171 17.3931 17.1465 17.7758C19.1085 23.6869 17.1892 27.8544 16.72 28.7474Z" fill="#B2DBDF"/>
<path d="M16.6772 19.1791C18.6393 23.6869 16.9758 27.982 16.6346 28.79C16.6772 28.7474 16.6772 28.7474 16.7199 28.7049C17.1891 27.8119 19.1084 23.6443 17.1464 17.7333C16.9758 18.116 16.7625 18.5413 16.5919 18.924C16.6346 19.0516 16.6772 19.1366 16.6772 19.1791Z" fill="#CCE7EA"/>
<path d="M14.5873 15.0541C13.7769 13.6508 13.0944 12.6301 12.8385 12.2474C12.5826 13.5232 12.412 15.0541 12.412 16.7552C12.412 16.9678 12.412 17.1379 12.4546 17.3505C12.7106 20.4124 13.6916 24.0271 16.0801 28.0245C15.1418 26.1108 13.3077 21.2629 14.5873 15.0541Z" fill="#7FC4CA"/>
<path d="M15.9948 27.5992C15.2271 25.643 14.1607 21.6456 15.483 16.7551C15.1844 16.1597 14.8432 15.6069 14.5446 15.0966C13.265 21.2628 15.0991 26.1533 16.0375 28.067C16.1654 28.2796 16.2934 28.4922 16.464 28.7474C16.3787 28.4922 16.2081 28.1095 15.9948 27.5992Z" fill="#99D0D5"/>
<path d="M16.0374 17.8183C15.8668 17.4356 15.6535 17.0954 15.4829 16.7552C14.1607 21.6882 15.227 25.643 15.9948 27.5992C15.355 25.7706 14.6299 22.2835 16.0374 17.8183Z" fill="#B2DBDF"/>
<path d="M16.5494 19.0515C16.5494 19.009 16.592 19.009 16.592 18.9665C16.4214 18.5838 16.2508 18.201 16.0375 17.8183C14.5873 22.2835 15.3551 25.7706 15.9949 27.5992C16.1655 28.067 16.3361 28.4072 16.464 28.6624C16.0802 27.5567 14.7153 23.3892 16.5494 19.0515Z" fill="#CCE7EA"/>
<path d="M16.6772 19.1792C16.6346 19.0941 16.6346 19.0516 16.5919 18.9665C16.5919 19.0091 16.5493 19.0091 16.5493 19.0516C14.6726 23.3892 16.0375 27.5568 16.464 28.6199C16.5066 28.7475 16.5493 28.8325 16.5919 28.8751C16.6346 28.8325 16.6346 28.8325 16.6346 28.79C17.0185 28.0245 18.6393 23.7294 16.6772 19.1792Z" fill="white"/>
<path d="M24.6107 2.08376C22.2221 0.765462 19.4923 0 16.5493 0C7.42159 0 0 7.39948 0 16.5C0 25.6005 7.42159 33 16.5493 33C25.677 33 33.0986 25.6005 33.0986 16.5C33.0986 13.5657 32.3308 10.8015 30.9659 8.4201L29.1745 9.48324C30.4114 11.6521 31.0939 14.1611 31.0939 16.8402C31.0939 25.0902 24.3974 31.8093 16.0801 31.8093C7.80546 31.8093 1.06632 25.1327 1.06632 16.8402C1.06632 8.5902 7.76281 1.87113 16.0801 1.87113C18.8099 1.87113 21.3691 2.59406 23.587 3.86984L22.478 5.95361L28.3215 5.7835L25.2505 0.807987L24.6107 2.08376Z" fill="#37808F"/>
<path d="M81.936 19.5193V9.48324H79.4622V23.5168H81.7654L88.5045 13.4807V23.5168H90.9784V9.48324H88.6752L81.936 19.5193Z" fill="#37808F"/>
<path d="M49.3919 15.1817H43.6764V9.48324H41.4585V23.5168H43.6764V17.3505H49.3919V23.5168H51.6099V9.48324H49.3919V15.1817Z" fill="#37808F"/>
<path d="M67.3914 9.48324V23.5168H69.9505V11.6521H74.9836V23.5168H77.5001V9.48324H67.3914Z" fill="#37808F"/>
<path d="M100.447 11.6521L100.789 9.48324H93.0258V23.5168H95.5849V11.6521H100.447Z" fill="#37808F"/>
<path d="M119.94 18.5838C119.897 18.2861 119.769 17.9459 119.641 17.6482C119.513 17.3505 119.3 17.0528 119.087 16.7977C118.873 16.5425 118.618 16.3299 118.319 16.1598C118.831 15.7771 119.172 15.3093 119.385 14.8415C119.599 14.3312 119.684 13.7784 119.684 13.2255C119.684 12.7577 119.599 12.29 119.471 11.8222C119.3 11.3544 119.044 10.9291 118.745 10.5464C118.404 10.1637 117.978 9.86598 117.423 9.61082C116.911 9.35567 116.272 9.27062 115.504 9.27062C114.736 9.27062 114.096 9.39819 113.542 9.61082C112.987 9.82345 112.561 10.1211 112.22 10.5039C111.878 10.8866 111.622 11.3119 111.452 11.7796C111.281 12.2474 111.196 12.7152 111.196 13.2255V13.9059H113.499V13.4807C113.499 13.1405 113.542 12.8428 113.584 12.5876C113.627 12.3325 113.755 12.1198 113.883 11.9497C114.011 11.7796 114.224 11.6521 114.48 11.567C114.736 11.482 115.077 11.4394 115.504 11.4394C115.802 11.4394 116.101 11.482 116.314 11.6095C116.528 11.7371 116.741 11.8647 116.869 12.0348C116.997 12.2049 117.125 12.375 117.21 12.6302C117.295 12.8428 117.295 13.0979 117.295 13.3531C117.295 13.6083 117.253 13.9059 117.167 14.1611C117.082 14.4162 116.997 14.6289 116.826 14.799C116.655 14.9691 116.485 15.0967 116.229 15.2242C115.973 15.3518 115.674 15.3943 115.291 15.3943H113.755V17.5206H115.248C115.674 17.5206 116.016 17.5631 116.314 17.6907C116.613 17.8183 116.869 17.9459 117.039 18.1585C117.21 18.3711 117.381 18.5838 117.466 18.8389C117.551 19.0941 117.594 19.3918 117.594 19.732C117.594 20.3273 117.423 20.8376 117.039 21.2204C116.655 21.6031 116.101 21.8157 115.291 21.8157C115.12 21.8157 114.949 21.7732 114.779 21.7307C114.608 21.6881 114.395 21.6031 114.224 21.518C114.054 21.433 113.883 21.348 113.712 21.2629C113.584 21.1778 113.457 21.0503 113.329 20.9652C113.073 20.6675 112.945 20.4124 112.859 20.1147C112.817 19.817 112.774 19.4768 112.774 19.0941V18.7114L110.471 18.4562V18.924C110.471 19.4768 110.556 20.0722 110.684 20.5825C110.812 21.1353 111.111 21.6881 111.58 22.1985C111.793 22.4111 112.006 22.6662 112.305 22.8363C112.561 23.049 112.902 23.2191 113.201 23.3467C113.542 23.5168 113.883 23.6018 114.224 23.7294C114.608 23.8144 114.992 23.857 115.333 23.857C116.144 23.857 116.826 23.7294 117.423 23.4742C118.02 23.2191 118.49 22.8789 118.873 22.4961C119.257 22.0709 119.556 21.6031 119.726 21.0928C119.897 20.5825 119.982 20.0722 119.982 19.5619C120.025 19.1791 119.982 18.8814 119.94 18.5838Z" fill="#37808F"/>
<path d="M103.476 9.48324L98.144 23.5168H100.49L102.153 19.2216H106.803L108.423 23.5168H110.769L105.438 9.48324H103.476ZM102.964 17.0528L104.457 13.0979L105.95 17.0528H102.964Z" fill="#37808F"/>
<path d="M56.1311 19.5193V9.48324H53.6572V23.5168H55.9605L62.6996 13.4807V23.5168H65.2161V9.48324H62.8702L56.1311 19.5193Z" fill="#37808F"/>
</svg>
