<svg width="301" height="353" viewBox="0 0 301 353" fill="none" xmlns="http://www.w3.org/2000/svg">
<path d="M21.9537 128.351C80.725 78.8301 122.232 123.022 135.638 151.308C141.658 133.681 163.711 100.147 203.767 107.034C253.838 115.643 285.029 151.718 260.405 218.949C250.144 239.856 230.444 263.222 195.559 294.378C151.645 337.012 140.153 353 135.638 353C131.124 353 94.0499 312.689 75.718 294.378C36.7289 258.713 -36.8176 177.872 21.9537 128.351Z" fill="#D73939"/>
<path d="M214.856 56.9862C222.503 50.37 227.904 56.2742 229.648 60.0533C230.431 57.6982 233.301 53.218 238.512 54.1382C245.027 55.2883 249.086 60.1081 245.882 69.0903C244.547 71.8836 241.983 75.0054 237.444 79.1679C231.731 84.864 230.236 87 229.648 87C229.061 87 224.237 81.6143 221.852 79.1679C216.779 74.403 207.21 63.6024 214.856 56.9862Z" fill="#D73939"/>
<path d="M248.652 4.88651C261.105 -5.93997 269.9 3.72141 272.741 9.9054C274.017 6.05161 278.69 -1.27957 287.177 0.226104C297.787 2.10819 304.397 9.99503 299.179 24.6932C297.005 29.264 292.83 34.3725 285.438 41.1839C276.133 50.5047 273.698 54 272.741 54C271.785 54 263.929 45.1871 260.044 41.1839C251.783 33.3867 236.199 15.713 248.652 4.88651Z" fill="#D73939"/>
<path d="M259.04 95.1718C264.502 90.36 268.36 94.654 269.606 97.4024C270.165 95.6896 272.215 92.4313 275.937 93.1005C280.591 93.937 283.49 97.4422 281.201 103.975C280.248 106.006 278.417 108.277 275.175 111.304C271.093 115.447 270.025 117 269.606 117C269.186 117 265.741 113.083 264.037 111.304C260.413 107.839 253.578 99.9835 259.04 95.1718Z" fill="#D73939"/>
<path d="M52 226.577H101.018L112.568 246.814L128.626 198.05L154.262 267.05L167.502 222.676L178.208 244.863L190.321 222.676H221.5" stroke="white" stroke-width="4" stroke-linecap="round" stroke-linejoin="round"/>
<path d="M57.0983 162.393C97.5172 128.289 126.063 158.722 135.283 178.202C139.423 166.063 154.589 142.969 182.137 147.712C216.572 153.641 238.024 178.484 221.088 224.784C214.032 239.182 200.484 255.274 176.492 276.73C146.291 306.09 138.388 317.101 135.283 317.101C132.178 317.101 106.681 289.34 94.0737 276.73C67.2596 252.168 16.6794 196.496 57.0983 162.393Z" stroke="white" stroke-width="4" stroke-linecap="round" stroke-linejoin="round"/>
</svg>
