<svg width="339" height="371" viewBox="0 0 339 371" fill="none" xmlns="http://www.w3.org/2000/svg">
<path d="M129.5 99.0001C117.603 110.117 103.5 147.667 100 167C100 170.5 109 168.5 138 217.5C163.348 260.33 164.5 280.5 162.5 285C182.5 277.5 230 296 256 327C276.8 351.8 333.667 342 359.5 334C373.833 234.5 391.6 30.3001 348 9.50008C293.5 -16.4999 252.5 21 235 47.5C217.5 74 160 70.5 129.5 99.0001Z" fill="#E3E731"/>
<path d="M141 160C146.738 151.196 165.23 114.581 184.232 116.302C214 119 226.5 88.5 237 76.5" stroke="white" stroke-width="4" stroke-linecap="round"/>
<path d="M175 241.756C192.776 236.468 232 237.615 242.185 255.702C257.845 283.513 292.587 286.416 308 284.391" stroke="white" stroke-width="4" stroke-linecap="round"/>
<path d="M175 194.019C183.493 183.337 206.47 162.557 230.437 164.893C260.396 167.813 270.196 200.651 290.003 185.27" stroke="white" stroke-width="4" stroke-linecap="round"/>
<path d="M107 175.5C102.725 169.537 89.0684 156.466 84.3158 172.73C80 187.5 121.375 265.412 142.706 285.123C126.54 266.47 93.9392 225.312 83.1967 199.309C82.7576 198.246 80.2595 198.52 79.9893 199.638C77.1618 211.337 67.4264 230.995 42.8016 249.684M42.8016 249.684C42.5765 258.459 45.2992 278.845 57.9897 290.185M42.8016 249.684C33.8012 252.946 13.9103 261.699 6.35002 270.61C-2.80004 281.394 1.97159 310.212 25.5665 312.646C26.449 312.737 26.9378 311.701 26.3486 311.038C19.5502 303.383 8.09402 288.322 6.35002 277.36" stroke="white" stroke-width="4" stroke-linecap="round"/>
<path d="M73.1865 368.471L106.929 350.938C111.655 348.483 106.929 346.213 94.1039 343.85C84.1078 342.009 68.8153 318.875 61.8961 306.657C61.6071 306.147 60.9473 305.994 60.4615 306.322L38.8875 320.917C38.5941 321.115 38.4215 321.442 38.4748 321.792C39.8488 330.827 60.9334 356.028 71.9945 368.265C72.2989 368.602 72.7836 368.68 73.1865 368.471Z" stroke="white" stroke-width="4" stroke-linecap="round"/>
<path d="M61.0274 307.061L66.1152 303.669C66.6311 303.325 66.7129 302.6 66.2865 302.15L61.0274 296.598M61.0274 296.598L34.3638 311.449M61.0274 296.598C75.203 286.698 112.465 272.837 148.106 296.598C152.156 299.748 164 302.709 166.669 291.873C167.5 288.5 158.878 284.036 153.709 277.697M153.709 277.697C137.744 258.117 115.071 223.452 98.5486 176.605C98.511 176.499 98.4911 176.378 98.493 176.265C98.6605 166.392 112.897 172.755 146.081 233.483C159.36 257.784 173 298.5 153.709 277.697Z" stroke="white" stroke-width="4" stroke-linecap="round"/>
</svg>
