<svg width="321" height="303" viewBox="0 0 321 303" fill="none" xmlns="http://www.w3.org/2000/svg">
<path d="M167.5 188.5C77.9001 201.3 21.0001 188.5 16.5001 174C-19.5 210.5 3.5001 275 92.0001 263.5C190.3 250.727 209 250.918 272.5 230C315 216 320.5 190.5 320.5 159.5C320.5 124.812 296.642 107.944 296.5 110.001C295.5 124.5 282.379 124.858 269 132.501C251.73 142.366 221.96 157.858 209 168C190.6 182.4 173.667 187.667 167.5 188.5Z" fill="#AAE695"/>
<path d="M67.1116 115.596C73.675 108.418 94.5742 99.7696 126.811 120.445C127.68 121.003 128.694 120.091 128.157 119.21C121.885 108.933 108.125 94.2824 89.74 95.9974C88.7313 96.0915 88.1678 94.8848 89.007 94.3173C98.9888 87.5676 121.995 80.8574 154.426 95.1819C155.325 95.579 156.195 94.6233 155.637 93.8145C149.123 84.3766 134.746 70.6626 115.64 71.0537C114.494 71.0771 114.04 69.4892 115.118 69.0991C128.051 64.4224 149.717 61.8492 167.449 76.4344C168.271 77.1099 169.446 76.3081 168.964 75.3601C163.4 64.4066 149.766 49.7276 126.915 53.3214C125.802 53.4964 125.235 52.1198 126.249 51.6284C139.671 45.1212 164.22 41.4796 186.413 64.3954C187.087 65.0912 188.239 64.5717 188.045 63.6228C185.446 50.9335 173.773 30.7926 142.871 30.9932C141.949 30.9991 141.484 29.8935 142.206 29.3185C153.583 20.2473 180.338 11.4511 211.397 38.6868" stroke="white" stroke-width="4" stroke-linecap="round"/>
<path d="M21.9829 153.733C37.5142 162.129 87.2676 175.472 162.84 162.376C163.992 162.177 165.092 162.994 165.203 164.158L167.539 188.692" stroke="white" stroke-width="4" stroke-linecap="round"/>
<path d="M294.662 104.791C259.492 125.766 185.336 168.353 170.081 170.895C151.013 174.073 77.2814 181.701 38.5088 170.895" stroke="white" stroke-width="4" stroke-linecap="round"/>
<path d="M275.595 31.695C274.535 40.1699 269.747 56.6112 259.069 54.5772C245.721 52.0348 219.66 14.5334 199.956 28.5169C184.193 39.7038 136.606 95.4686 114.784 121.953C111.182 126.826 112.897 168.113 112.877 153.098C112.876 152.462 115.843 159.878 112.877 155.005C130.886 154.793 175.167 149.793 208.219 131.487C241.271 113.181 278.773 95.8923 293.392 89.5361" stroke="white" stroke-width="4" stroke-linecap="round"/>
<path d="M112.24 154.369C105.672 139.962 83.0019 115.469 44.8649 132.758M44.8649 132.758C33.212 138.055 11.3044 153.988 16.8978 175.344C23.8896 202.04 167.539 195.684 188.514 181.065C210.973 165.81 262.5 132.885 288.942 123.224C293.815 122.376 301.019 112.164 290.849 78.095C278.136 35.5087 268.602 -4.53514 236.186 24.0676M44.8649 132.758C67.2386 123.605 96.1381 92.5024 107.791 78.095C138.301 30.2967 165.42 16.6606 175.166 15.8173C175.79 15.1667 176.414 14.5259 177.033 13.8978C181.663 9.19969 186.047 5.20746 188.514 3.09227C210.38 -2.50116 229.406 14.7452 236.186 24.0676M236.186 24.0676C237.245 24.7032 238.728 28.5169 236.186 38.6868" stroke="white" stroke-width="4" stroke-linecap="round"/>
<path d="M224.745 52.0348L131.945 134.665" stroke="white" stroke-width="4" stroke-linecap="round"/>
<path d="M224.582 192.175C217.505 195.045 211.155 199.265 205.71 204.707C200.262 210.152 196.048 216.505 193.178 223.579C190.406 230.417 189 237.639 189 245.049C189 252.459 190.406 259.682 193.178 266.516C196.051 273.593 200.265 279.947 205.71 285.388C211.155 290.837 217.505 295.051 224.582 297.92C231.42 300.696 238.643 302.095 246.053 302.095C253.462 302.095 260.685 300.69 267.52 297.92C274.597 295.051 280.95 290.834 286.392 285.388C291.84 279.943 296.054 273.593 298.927 266.516C301.699 259.682 303.102 252.459 303.102 245.049C303.102 237.639 301.696 230.417 298.927 223.579C296.057 216.502 291.837 210.149 286.392 204.707C280.947 199.262 274.6 195.045 267.52 192.175C260.685 189.406 253.462 188 246.053 188C238.643 188 231.42 189.406 224.582 192.175Z" fill="#008C95"/>
<path d="M203.258 269.07C200.511 267.344 197.977 265.36 195.735 263.02C192.309 253.384 191.731 242.952 193.999 233.048C195.066 230.944 196.281 228.921 197.654 226.985C198.077 226.388 198.468 225.764 198.924 225.185L211.798 232.805C211.798 232.906 211.798 233.015 211.798 233.129C211.766 240.054 212.471 246.927 213.87 253.7C213.873 253.729 213.88 253.749 213.886 253.778L203.901 269.435C203.684 269.322 203.468 269.202 203.258 269.07Z" fill="white"/>
<path d="M241.538 295.535C243.758 296.666 246.043 297.626 248.392 298.405C238.419 298.838 228.347 296.502 219.444 291.393L241.027 295.238C241.192 295.345 241.363 295.445 241.538 295.535Z" fill="white"/>
<path d="M241.46 291.638L215.993 287.098C213.013 283.479 210.331 279.653 208.027 275.558C207.442 274.518 206.786 273.506 206.289 272.421L216.264 256.78C216.484 256.835 216.73 256.893 217.011 256.967C223.251 258.638 229.601 259.824 235.996 260.755C236.371 260.806 236.681 260.852 236.949 260.881L248.906 281.556C246.831 284.471 244.734 287.373 242.588 290.242C242.233 290.724 241.855 291.183 241.46 291.638Z" fill="white"/>
<path d="M283.835 282.832C281.806 284.862 279.653 286.691 277.401 288.319C277.026 285.337 276.383 282.406 275.475 279.549L288.233 255.749C291.746 254.149 295.139 252.333 298.283 250.084C298.694 249.793 299.036 249.467 299.301 249.111C298.377 261.41 293.219 273.448 283.835 282.832Z" fill="white"/>
<path d="M283.266 251.965C283.741 252.87 284.21 253.784 284.682 254.712L272.357 277.701C272.286 277.717 272.218 277.73 272.147 277.74C265.486 278.984 258.771 279.646 251.998 279.679L239.702 258.412C241.615 254.857 243.512 251.293 245.393 247.719C246.669 245.298 247.923 242.862 249.177 240.425L274.628 237.811C277.747 242.387 280.7 247.056 283.266 251.965Z" fill="white"/>
<path d="M278.103 224.701C276.897 227.89 275.602 231.047 274.319 234.211L249.523 236.757C249.226 236.366 248.919 235.982 248.596 235.613C245.668 232.298 242.721 229.002 239.78 225.699C239.806 225.667 239.835 225.641 239.861 225.612C238.675 224.426 237.483 223.24 236.297 222.051L243.199 201.269C243.674 201.143 244.156 201.036 244.637 200.984C248.389 200.603 252.147 200.17 255.909 199.954C258.213 199.824 260.527 199.75 262.873 199.915L279.951 219.165C279.363 221.02 278.788 222.881 278.103 224.701Z" fill="white"/>
<path d="M283.835 207.269C288.547 211.984 292.195 217.361 294.774 223.11C291.585 220.913 288.172 219.106 284.585 217.633C284.026 217.403 283.454 217.2 282.872 216.999L266.062 198.053C266.178 197.235 266.24 196.415 266.266 195.587C272.661 198.192 278.652 202.089 283.835 207.269Z" fill="white"/>
<path d="M228.941 194.592C229.006 194.641 229.038 194.683 229.077 194.692C232.919 196.021 236.416 197.976 239.709 200.293L233.262 219.714C233.229 219.724 233.197 219.733 233.165 219.746C231.843 220.293 230.499 220.78 229.2 221.372C223.848 223.805 218.629 226.5 213.711 229.729L200.985 222.199C201.005 221.802 201.073 221.398 201.208 221.039C202.061 218.764 202.902 216.473 203.871 214.243C204.614 212.524 205.464 210.863 206.388 209.241C206.993 208.572 207.623 207.909 208.269 207.263C214.312 201.22 221.454 196.932 229.058 194.395C229.019 194.46 228.98 194.524 228.941 194.592Z" fill="white"/>
</svg>
