<svg width="125" height="124" viewBox="0 0 125 124" fill="none" xmlns="http://www.w3.org/2000/svg">
<path d="M33.4847 60.8652C30.5437 57.5139 29.0546 53.1315 29.3448 48.6821C29.635 44.2328 31.6808 40.0809 35.0321 37.14C38.3835 34.199 42.7659 32.7098 47.2152 33C51.6646 33.2902 55.8164 35.336 58.7574 38.6874C59.1495 39.1343 59.3481 39.7186 59.3094 40.3118C59.2707 40.9051 58.9979 41.4586 58.5511 41.8508C58.1042 42.2429 57.5199 42.4415 56.9266 42.4028C56.3334 42.3641 55.7798 42.0913 55.3877 41.6444C53.231 39.1868 50.1863 37.6865 46.9235 37.4737C43.6606 37.2609 40.4468 38.353 37.9892 40.5097C35.5315 42.6664 34.0312 45.7111 33.8184 48.9739C33.6056 52.2368 34.6977 55.4505 36.8544 57.9082C37.2465 58.355 37.4451 58.9394 37.4064 59.5326C37.3677 60.1259 37.0949 60.6794 36.6481 61.0716C36.2012 61.4637 35.6169 61.6622 35.0237 61.6236C34.4304 61.5849 33.8768 61.3121 33.4847 60.8652ZM71.1014 44.2577C70.1176 45.1192 69.3656 46.2136 68.9142 47.4408C67.9556 46.8688 66.8859 46.508 65.7766 46.3824C64.6674 46.2569 63.5441 46.3695 62.4819 46.7127C61.4196 47.056 60.4429 47.6219 59.6168 48.3728C58.7908 49.1237 58.1345 50.0423 57.6918 51.0671L52.018 44.6015C50.6456 43.0375 48.708 42.0828 46.6317 41.9474C44.5553 41.812 42.5102 42.5069 40.9462 43.8794C39.3822 45.2518 38.4275 47.1893 38.2921 49.2657C38.1567 51.3421 38.8516 53.3872 40.2241 54.9511L55.0093 71.7996L53.0719 71.2146C51.0987 70.553 48.9435 70.7023 47.0805 71.6297C45.2174 72.5571 43.7991 74.1867 43.1375 76.1598C42.4759 78.133 42.6252 80.2882 43.5526 82.1512C44.48 84.0143 46.1095 85.4326 48.0827 86.0942L63.4984 91.2057C63.782 91.32 64.0859 91.375 64.3915 91.3674C64.697 91.3598 64.9978 91.2898 65.2754 91.1617C65.5529 91.0336 65.8013 90.8501 66.0053 90.6225C66.2093 90.3948 66.3646 90.1279 66.4616 89.838C66.5587 89.5481 66.5954 89.2415 66.5695 88.9369C66.5437 88.6323 66.4558 88.3362 66.3113 88.0669C66.1668 87.7975 65.9687 87.5605 65.7293 87.3705C65.4898 87.1805 65.214 87.0415 64.9189 86.962L49.5095 81.845C49.0839 81.7093 48.6895 81.4902 48.3496 81.2004C48.0096 80.9106 47.7308 80.556 47.5294 80.1573C47.328 79.7585 47.2081 79.3236 47.1766 78.878C47.1452 78.4324 47.2029 77.985 47.3463 77.5619C47.4897 77.1389 47.716 76.7486 48.0119 76.414C48.3079 76.0794 48.6675 75.807 49.0699 75.613C49.4722 75.4189 49.9092 75.3069 50.3553 75.2836C50.8014 75.2603 51.2477 75.3261 51.6681 75.4773L51.7401 75.4998L61.2186 78.3656C61.6853 78.5078 62.1856 78.4939 62.6436 78.3259C63.1016 78.158 63.4924 77.8452 63.7565 77.435C64.0206 77.0249 64.1438 76.5397 64.1072 76.0533C64.0706 75.5668 63.8763 75.1055 63.5538 74.7395L43.5938 51.9941C43.0056 51.3238 42.7077 50.4473 42.7658 49.5575C42.8238 48.6676 43.233 47.8372 43.9033 47.2491C44.5735 46.6609 45.45 46.363 46.3399 46.4211C47.2298 46.4791 48.0601 46.8883 48.6483 47.5585L61.2158 61.8797C61.6079 62.3266 62.1615 62.5993 62.7547 62.638C63.348 62.6767 63.9323 62.4782 64.3791 62.086C64.826 61.6939 65.0987 61.1403 65.1374 60.5471C65.1761 59.9538 64.9776 59.3695 64.5854 58.9227L62.3677 56.3954C61.7795 55.7251 61.4816 54.8487 61.5397 53.9588C61.5977 53.0689 62.0069 52.2385 62.6771 51.6504C63.3474 51.0622 64.2239 50.7643 65.1138 50.8224C66.0036 50.8804 66.834 51.2896 67.4222 51.9598L71.1185 56.1719C71.5106 56.6188 72.0642 56.8916 72.6574 56.9303C73.2507 56.969 73.835 56.7704 74.2819 56.3783C74.7287 55.9861 75.0015 55.4326 75.0402 54.8393C75.0789 54.2461 74.8803 53.6618 74.4882 53.2149L73.7489 52.3725C73.1607 51.7022 72.8629 50.8257 72.9209 49.9359C72.979 49.046 73.3881 48.2156 74.0584 47.6274C74.7287 47.0392 75.6052 46.7414 76.495 46.7994C77.3849 46.8575 78.2153 47.2666 78.8035 47.9369L85.4568 55.5187C89.4507 60.0699 90.6703 64.4759 90.6798 64.5123C90.831 65.0871 91.2042 65.5783 91.7175 65.878C92.2307 66.1777 92.842 66.2613 93.4169 66.1104C93.7543 66.0235 94.0665 65.8581 94.3279 65.6278C94.6411 65.3533 94.8717 64.9971 94.9938 64.5989C95.1158 64.2008 95.1246 63.7765 95.019 63.3736C94.962 63.1515 93.5562 57.9471 88.8286 52.5598L82.1753 44.978C81.4955 44.2034 80.6699 43.5704 79.7454 43.115C78.821 42.6595 77.8159 42.3907 76.7875 42.3238C75.7592 42.2569 74.7277 42.3933 73.7521 42.7251C72.7764 43.057 71.8757 43.5777 71.1014 44.2577Z" fill="white"/>
</svg>
